<?xml version="1.0" encoding="UTF-8" standalone="no"?>
<svg width="304px" height="338px" viewBox="0 0 304 338" version="1.1" xmlns="http://www.w3.org/2000/svg" xmlns:xlink="http://www.w3.org/1999/xlink" xmlns:sketch="http://www.bohemiancoding.com/sketch/ns">
    <!-- Generator: Sketch 3.2.1 (9971) - http://www.bohemiancoding.com/sketch -->
    <title>labirint</title>
    <desc>Created with Sketch.</desc>
    <defs></defs>
    <g id="Page-1" stroke="none" stroke-width="1" fill="none" fill-rule="evenodd" sketch:type="MSPage">
        <g id="labirint" sketch:type="MSLayerGroup" transform="translate(2.000000, 2.000000)">
            <g id="borders" stroke="#9CA5BF" stroke-width="3" stroke-linecap="square" sketch:type="MSShapeGroup">
                <path d="M30.0123429,90.9722342 L30.0123429,150.00629 L90.0473752,150.00629" id="line18"></path>
                <path d="M0,0 L0,90 L60,90 L60,29.6362513" id="line17"></path>
                <path d="M30,30 L30,0 L90.085392,0 L90.085392,30 L119.976135,30" id="line16"></path>
                <path d="M270.030064,90.6609797 L270.030064,150.0004 L240.047453,150.0004 L240.047453,209.982864 L209.934389,209.982861 L209.934389,269.999755 L180.064514,269.999755 L180.064514,300.057434 L150.021307,300.057434 L150.021307,269.999755" id="line15"></path>
                <path d="M90.023021,180.009867 L90.023021,209.995443 L150.05704,209.995443 L150.05704,149.816168" id="line14"></path>
                <path d="M150.679218,180.055567 L210.043518,180.055567 L210.043518,120.010402 L240.039346,120.010402" id="line13"></path>
                <path d="M31.2242155,119.978201 L59.9616537,119.978201" id="line12"></path>
                <path d="M90.5,0 L270,0 L270,60.0401649" id="line11"></path>
                <path d="M0.468888817,59.9976934 L30.0167542,59.9976934" id="line10"></path>
                <path d="M180,59.7153026 L180,90 L300,90 L300,0 L270.428448,3.68128068e-15" id="line9"></path>
                <path d="M60.5308708,59.9666538 L149.973116,59.9666538 L149.973116,30.0007817 L209.893801,30.0007817 L209.893801,59.9666538 L240.061343,59.9666538 L240.061343,30.0007817" id="line8"></path>
                <path d="M90.0066342,60.5175825 L90.0066342,90.0281988" id="line7"></path>
                <path d="M59.9951184,151.42645 L59.9951184,209.953335 L90.0262642,209.953335 L89.7509842,269.960426 L120.001968,269.960426 L120.001967,299.832849" id="line6"></path>
                <path d="M90.0473752,119.978201 L120.001189,119.978201 L120.001189,179.986353" id="line5"></path>
                <path d="M179.989441,91.5862427 L179.989441,119.978943 L150.000427,119.978944 L150.000427,89.9973025" id="line4"></path>
                <path d="M179.974364,150.016845 L179.974364,120.01246 L120.025081,120.012459 L120.025081,90.0005368" id="line3"></path>
                <path d="M209.929804,239.980678 L120.051478,239.980678" id="line2"></path>
                <path d="M209.928677,239.973976 L180.052292,239.973976 L180.052292,210.006751" id="line1"></path>
            </g>
            <path d="M165,138 C166.656854,138 168,136.656854 168,135 C168,133.343146 166.656854,132 165,132 C163.343146,132 162,133.343146 162,135 C162,136.656854 163.343146,138 165,138 Z M165,153 C166.656854,153 168,151.656854 168,150 C168,148.343146 166.656854,147 165,147 C163.343146,147 162,148.343146 162,150 C162,151.656854 163.343146,153 165,153 Z M195,138 C196.656854,138 198,136.656854 198,135 C198,133.343146 196.656854,132 195,132 C193.343146,132 192,133.343146 192,135 C192,136.656854 193.343146,138 195,138 Z M195,153 C196.656854,153 198,151.656854 198,150 C198,148.343146 196.656854,147 195,147 C193.343146,147 192,148.343146 192,150 C192,151.656854 193.343146,153 195,153 Z M195,108 C196.656854,108 198,106.656854 198,105 C198,103.343146 196.656854,102 195,102 C193.343146,102 192,103.343146 192,105 C192,106.656854 193.343146,108 195,108 Z M210,108 C211.656854,108 213,106.656854 213,105 C213,103.343146 211.656854,102 210,102 C208.343146,102 207,103.343146 207,105 C207,106.656854 208.343146,108 210,108 Z M225,108 C226.656854,108 228,106.656854 228,105 C228,103.343146 226.656854,102 225,102 C223.343146,102 222,103.343146 222,105 C222,106.656854 223.343146,108 225,108 Z M240,108 C241.656854,108 243,106.656854 243,105 C243,103.343146 241.656854,102 240,102 C238.343146,102 237,103.343146 237,105 C237,106.656854 238.343146,108 240,108 Z M255,108 C256.656854,108 258,106.656854 258,105 C258,103.343146 256.656854,102 255,102 C253.343146,102 252,103.343146 252,105 C252,106.656854 253.343146,108 255,108 Z M195,123 C196.656854,123 198,121.656854 198,120 C198,118.343146 196.656854,117 195,117 C193.343146,117 192,118.343146 192,120 C192,121.656854 193.343146,123 195,123 Z M165,168 C166.656854,168 168,166.656854 168,165 C168,163.343146 166.656854,162 165,162 C163.343146,162 162,163.343146 162,165 C162,166.656854 163.343146,168 165,168 Z M180,168 C181.656854,168 183,166.656854 183,165 C183,163.343146 181.656854,162 180,162 C178.343146,162 177,163.343146 177,165 C177,166.656854 178.343146,168 180,168 Z M195,168 C196.656854,168 198,166.656854 198,165 C198,163.343146 196.656854,162 195,162 C193.343146,162 192,163.343146 192,165 C192,166.656854 193.343146,168 195,168 Z M195,198 C196.656854,198 198,196.656854 198,195 C198,193.343146 196.656854,192 195,192 C193.343146,192 192,193.343146 192,195 C192,196.656854 193.343146,198 195,198 Z M195,213 C196.656854,213 198,211.656854 198,210 C198,208.343146 196.656854,207 195,207 C193.343146,207 192,208.343146 192,210 C192,211.656854 193.343146,213 195,213 Z M195,228 C196.656854,228 198,226.656854 198,225 C198,223.343146 196.656854,222 195,222 C193.343146,222 192,223.343146 192,225 C192,226.656854 193.343146,228 195,228 Z M165,273 C166.656854,273 168,271.656854 168,270 C168,268.343146 166.656854,267 165,267 C163.343146,267 162,268.343146 162,270 C162,271.656854 163.343146,273 165,273 Z M165,288 C166.656854,288 168,286.656854 168,285 C168,283.343146 166.656854,282 165,282 C163.343146,282 162,283.343146 162,285 C162,286.656854 163.343146,288 165,288 Z M135,273 C136.656854,273 138,271.656854 138,270 C138,268.343146 136.656854,267 135,267 C133.343146,267 132,268.343146 132,270 C132,271.656854 133.343146,273 135,273 Z M135,288 C136.656854,288 138,286.656854 138,285 C138,283.343146 136.656854,282 135,282 C133.343146,282 132,283.343146 132,285 C132,286.656854 133.343146,288 135,288 Z M135,303 C136.656854,303 138,301.656854 138,300 C138,298.343146 136.656854,297 135,297 C133.343146,297 132,298.343146 132,300 C132,301.656854 133.343146,303 135,303 Z M135,318 C136.656854,318 138,316.656854 138,315 C138,313.343146 136.656854,312 135,312 C133.343146,312 132,313.343146 132,315 C132,316.656854 133.343146,318 135,318 Z M150,318 C151.656854,318 153,316.656854 153,315 C153,313.343146 151.656854,312 150,312 C148.343146,312 147,313.343146 147,315 C147,316.656854 148.343146,318 150,318 Z M150,333 C151.656854,333 153,331.656854 153,330 C153,328.343146 151.656854,327 150,327 C148.343146,327 147,328.343146 147,330 C147,331.656854 148.343146,333 150,333 Z M105,243 C106.656854,243 108,241.656854 108,240 C108,238.343146 106.656854,237 105,237 C103.343146,237 102,238.343146 102,240 C102,241.656854 103.343146,243 105,243 Z M105,258 C106.656854,258 108,256.656854 108,255 C108,253.343146 106.656854,252 105,252 C103.343146,252 102,253.343146 102,255 C102,256.656854 103.343146,258 105,258 Z M165,213 C166.656854,213 168,211.656854 168,210 C168,208.343146 166.656854,207 165,207 C163.343146,207 162,208.343146 162,210 C162,211.656854 163.343146,213 165,213 Z M165,228 C166.656854,228 168,226.656854 168,225 C168,223.343146 166.656854,222 165,222 C163.343146,222 162,223.343146 162,225 C162,226.656854 163.343146,228 165,228 Z M210,198 C211.656854,198 213,196.656854 213,195 C213,193.343146 211.656854,192 210,192 C208.343146,192 207,193.343146 207,195 C207,196.656854 208.343146,198 210,198 Z M165,198 C166.656854,198 168,196.656854 168,195 C168,193.343146 166.656854,192 165,192 C163.343146,192 162,193.343146 162,195 C162,196.656854 163.343146,198 165,198 Z M180,198 C181.656854,198 183,196.656854 183,195 C183,193.343146 181.656854,192 180,192 C178.343146,192 177,193.343146 177,195 C177,196.656854 178.343146,198 180,198 Z M225,198 C226.656854,198 228,196.656854 228,195 C228,193.343146 226.656854,192 225,192 C223.343146,192 222,193.343146 222,195 C222,196.656854 223.343146,198 225,198 Z M165,258 C166.656854,258 168,256.656854 168,255 C168,253.343146 166.656854,252 165,252 C163.343146,252 162,253.343146 162,255 C162,256.656854 163.343146,258 165,258 Z M180,258 C181.656854,258 183,256.656854 183,255 C183,253.343146 181.656854,252 180,252 C178.343146,252 177,253.343146 177,255 C177,256.656854 178.343146,258 180,258 Z M135,258 C136.656854,258 138,256.656854 138,255 C138,253.343146 136.656854,252 135,252 C133.343146,252 132,253.343146 132,255 C132,256.656854 133.343146,258 135,258 Z M120,258 C121.656854,258 123,256.656854 123,255 C123,253.343146 121.656854,252 120,252 C118.343146,252 117,253.343146 117,255 C117,256.656854 118.343146,258 120,258 Z M150,258 C151.656854,258 153,256.656854 153,255 C153,253.343146 151.656854,252 150,252 C148.343146,252 147,253.343146 147,255 C147,256.656854 148.343146,258 150,258 Z M195,258 C196.656854,258 198,256.656854 198,255 C198,253.343146 196.656854,252 195,252 C193.343146,252 192,253.343146 192,255 C192,256.656854 193.343146,258 195,258 Z M135,228 C136.656854,228 138,226.656854 138,225 C138,223.343146 136.656854,222 135,222 C133.343146,222 132,223.343146 132,225 C132,226.656854 133.343146,228 135,228 Z M150,228 C151.656854,228 153,226.656854 153,225 C153,223.343146 151.656854,222 150,222 C148.343146,222 147,223.343146 147,225 C147,226.656854 148.343146,228 150,228 Z M105,228 C106.656854,228 108,226.656854 108,225 C108,223.343146 106.656854,222 105,222 C103.343146,222 102,223.343146 102,225 C102,226.656854 103.343146,228 105,228 Z M120,228 C121.656854,228 123,226.656854 123,225 C123,223.343146 121.656854,222 120,222 C118.343146,222 117,223.343146 117,225 C117,226.656854 118.343146,228 120,228 Z M225,152 C226.656854,152 228,150.656854 228,149 C228,147.343146 226.656854,146 225,146 C223.343146,146 222,147.343146 222,149 C222,150.656854 223.343146,152 225,152 Z M225,167 C226.656854,167 228,165.656854 228,164 C228,162.343146 226.656854,161 225,161 C223.343146,161 222,162.343146 222,164 C222,165.656854 223.343146,167 225,167 Z M225,182 C226.656854,182 228,180.656854 228,179 C228,177.343146 226.656854,176 225,176 C223.343146,176 222,177.343146 222,179 C222,180.656854 223.343146,182 225,182 Z M225,138 C226.656854,138 228,136.656854 228,135 C228,133.343146 226.656854,132 225,132 C223.343146,132 222,133.343146 222,135 C222,136.656854 223.343146,138 225,138 Z M240,138 C241.656854,138 243,136.656854 243,135 C243,133.343146 241.656854,132 240,132 C238.343146,132 237,133.343146 237,135 C237,136.656854 238.343146,138 240,138 Z M255,123 C256.656854,123 258,121.656854 258,120 C258,118.343146 256.656854,117 255,117 C253.343146,117 252,118.343146 252,120 C252,121.656854 253.343146,123 255,123 Z M255,138 C256.656854,138 258,136.656854 258,135 C258,133.343146 256.656854,132 255,132 C253.343146,132 252,133.343146 252,135 C252,136.656854 253.343146,138 255,138 Z" id="dots" fill="#9CA5BF" sketch:type="MSShapeGroup"></path>
            <path d="M135.499437,135.153049 L165,135.100432 L165,165.35518 L195.077346,165.751346 L195.077346,105.121487 L255.058278,105.043767 L255.123274,135.153048 L225.037034,135.153048 L225.038066,194.824474 L194.918478,194.885945 L194.918478,232.28745 L194.918478,194.885945 L165.26733,194.885949 L165.26733,225.050156 L105.192183,225.050156 L105.192183,255.002448 L164.999998,254.957845 L164.999998,291.58637 L164.999998,254.957845 L200.572165,254.957845 L164.999998,254.957845 L135.030535,254.957845 L135.030535,314.705992 L150.196591,314.705992 L150.196592,330.171804" id="main-line" stroke="#FFFFFF" stroke-width="10" stroke-linecap="square" sketch:type="MSShapeGroup"></path>
            <path d="M157,45 C157,40.581722 160.590712,37 165,37 C169.418278,37 173,40.5907123 173,45 L173,53 L171.010132,50.6281738 L169.023865,53 L167.00116,50.6281738 L165.024414,53 L163.025696,50.6281738 L161.008179,53 L158.996765,50.6281738 L157,53 L157,45 Z M161.781065,46.0887574 C162.800668,46.0887574 163.627219,45.05027 163.627219,43.7692308 C163.627219,42.4881916 162.800668,41.4497041 161.781065,41.4497041 C160.761462,41.4497041 159.934911,42.4881916 159.934911,43.7692308 C159.934911,45.05027 160.761462,46.0887574 161.781065,46.0887574 Z M166.798817,46.0887574 C167.818419,46.0887574 168.64497,45.05027 168.64497,43.7692308 C168.64497,42.4881916 167.818419,41.4497041 166.798817,41.4497041 C165.779214,41.4497041 164.952663,42.4881916 164.952663,43.7692308 C164.952663,45.05027 165.779214,46.0887574 166.798817,46.0887574 Z M161.497041,45 C161.889196,45 162.207101,44.5761276 162.207101,44.0532544 C162.207101,43.5303813 161.889196,43.1065089 161.497041,43.1065089 C161.104887,43.1065089 160.786982,43.5303813 160.786982,44.0532544 C160.786982,44.5761276 161.104887,45 161.497041,45 Z M166.514793,45 C166.906948,45 167.224852,44.5761276 167.224852,44.0532544 C167.224852,43.5303813 166.906948,43.1065089 166.514793,43.1065089 C166.122638,43.1065089 165.804734,43.5303813 165.804734,44.0532544 C165.804734,44.5761276 166.122638,45 166.514793,45 Z" id="red-ghost" fill="#F44336" sketch:type="MSShapeGroup"></path>
            <path d="M277,75.2728906 C277,70.8546126 280.590712,67.2728906 285,67.2728906 C289.418278,67.2728906 293,70.8636029 293,75.2728906 L293,83.2728906 L291.010132,80.9010644 L289.023865,83.2728906 L287.00116,80.9010644 L285.024414,83.2728906 L283.025696,80.9010644 L281.008179,83.2728906 L278.996765,80.9010644 L277,83.2728906 L277,75.2728906 Z M281.781065,76.361648 C282.800668,76.361648 283.627219,75.3231606 283.627219,74.0421214 C283.627219,72.7610822 282.800668,71.7225947 281.781065,71.7225947 C280.761462,71.7225947 279.934911,72.7610822 279.934911,74.0421214 C279.934911,75.3231606 280.761462,76.361648 281.781065,76.361648 Z M286.798817,76.361648 C287.818419,76.361648 288.64497,75.3231606 288.64497,74.0421214 C288.64497,72.7610822 287.818419,71.7225947 286.798817,71.7225947 C285.779214,71.7225947 284.952663,72.7610822 284.952663,74.0421214 C284.952663,75.3231606 285.779214,76.361648 286.798817,76.361648 Z M281.497041,75.2728906 C281.889196,75.2728906 282.207101,74.8490182 282.207101,74.326145 C282.207101,73.8032719 281.889196,73.3793995 281.497041,73.3793995 C281.104887,73.3793995 280.786982,73.8032719 280.786982,74.326145 C280.786982,74.8490182 281.104887,75.2728906 281.497041,75.2728906 Z M286.514793,75.2728906 C286.906948,75.2728906 287.224852,74.8490182 287.224852,74.326145 C287.224852,73.8032719 286.906948,73.3793995 286.514793,73.3793995 C286.122638,73.3793995 285.804734,73.8032719 285.804734,74.326145 C285.804734,74.8490182 286.122638,75.2728906 286.514793,75.2728906 Z" id="green-ghost" fill="#4CAF50" sketch:type="MSShapeGroup"></path>
            <path d="M37,135 C37,130.581722 40.5907123,127 45,127 C49.418278,127 53,130.590712 53,135 L53,143 L51.0101318,140.628174 L49.0238647,143 L47.0011597,140.628174 L45.0244141,143 L43.0256958,140.628174 L41.0081787,143 L38.9967651,140.628174 L37,143 L37,135 Z M41.7810651,136.088757 C42.8006677,136.088757 43.6272189,135.05027 43.6272189,133.769231 C43.6272189,132.488192 42.8006677,131.449704 41.7810651,131.449704 C40.7614625,131.449704 39.9349112,132.488192 39.9349112,133.769231 C39.9349112,135.05027 40.7614625,136.088757 41.7810651,136.088757 Z M46.7988166,136.088757 C47.8184192,136.088757 48.6449704,135.05027 48.6449704,133.769231 C48.6449704,132.488192 47.8184192,131.449704 46.7988166,131.449704 C45.779214,131.449704 44.9526627,132.488192 44.9526627,133.769231 C44.9526627,135.05027 45.779214,136.088757 46.7988166,136.088757 Z M41.4970414,135 C41.8891963,135 42.2071006,134.576128 42.2071006,134.053254 C42.2071006,133.530381 41.8891963,133.106509 41.4970414,133.106509 C41.1048866,133.106509 40.7869822,133.530381 40.7869822,134.053254 C40.7869822,134.576128 41.1048866,135 41.4970414,135 Z M46.5147929,135 C46.9069478,135 47.2248521,134.576128 47.2248521,134.053254 C47.2248521,133.530381 46.9069478,133.106509 46.5147929,133.106509 C46.122638,133.106509 45.8047337,133.530381 45.8047337,134.053254 C45.8047337,134.576128 46.122638,135 46.5147929,135 Z" id="blue-ghost" fill="#2196F3" sketch:type="MSShapeGroup"></path>
        </g>
    </g>
</svg>