<?xml version="1.0" encoding="UTF-8" standalone="no"?>
<svg width="304px" height="335px" viewBox="0 0 304 335" version="1.1" xmlns="http://www.w3.org/2000/svg" xmlns:xlink="http://www.w3.org/1999/xlink" xmlns:sketch="http://www.bohemiancoding.com/sketch/ns">
    <!-- Generator: Sketch 3.2.1 (9971) - http://www.bohemiancoding.com/sketch -->
    <title>Labirint</title>
    <desc>Created with Sketch.</desc>
    <defs></defs>
    <g id="Page-1" stroke="none" stroke-width="1" fill="none" fill-rule="evenodd" sketch:type="MSPage">
        <g id="PC" sketch:type="MSArtboardGroup" transform="translate(-448.000000, -2445.000000)">
            <g id="Why" sketch:type="MSLayerGroup" transform="translate(130.000000, 2269.000000)">
                <g id="Labirint" transform="translate(320.000000, 176.000000)" sketch:type="MSShapeGroup">
                    <g id="Grid" transform="translate(0.000000, 2.000000)" stroke="#9CA5BF" stroke-width="3">
                        <rect id="Path" x="0" y="0" width="30" height="30"></rect>
                        <rect id="Rectangle-52" x="30" y="0" width="30" height="30"></rect>
                        <rect id="Rectangle-53" x="60" y="0" width="30" height="30"></rect>
                        <rect id="Rectangle-54" x="90" y="0" width="30" height="30"></rect>
                        <rect id="Rectangle-58" x="120" y="0" width="30" height="30"></rect>
                        <rect id="Rectangle-55" x="150" y="0" width="30" height="30"></rect>
                        <rect id="Rectangle-56" x="180" y="0" width="30" height="30"></rect>
                        <rect id="Rectangle-57" x="210" y="0" width="30" height="30"></rect>
                        <rect id="Rectangle-60" x="240" y="0" width="30" height="30"></rect>
                        <rect id="Rectangle-59" x="270" y="0" width="30" height="30"></rect>
                        <rect id="Rectangle-61" x="0" y="30" width="30" height="30"></rect>
                        <rect id="Rectangle-62" x="30" y="30" width="30" height="30"></rect>
                        <rect id="Rectangle-63" x="60" y="30" width="30" height="30"></rect>
                        <rect id="Rectangle-64" x="90" y="30" width="30" height="30"></rect>
                        <rect id="Rectangle-65" x="120" y="30" width="30" height="30"></rect>
                        <rect id="Rectangle-66" x="150" y="30" width="30" height="30"></rect>
                        <rect id="Rectangle-67" x="180" y="30" width="30" height="30"></rect>
                        <rect id="Rectangle-68" x="210" y="30" width="30" height="30"></rect>
                        <rect id="Rectangle-69" x="240" y="30" width="30" height="30"></rect>
                        <rect id="Rectangle-70" x="270" y="30" width="30" height="30"></rect>
                        <rect id="Rectangle-72" x="0" y="60" width="30" height="30"></rect>
                        <rect id="Rectangle-73" x="30" y="60" width="30" height="30"></rect>
                        <rect id="Rectangle-74" x="60" y="60" width="30" height="30"></rect>
                        <rect id="Rectangle-75" x="90" y="60" width="30" height="30"></rect>
                        <rect id="Rectangle-76" x="120" y="60" width="30" height="30"></rect>
                        <rect id="Rectangle-77" x="150" y="60" width="30" height="30"></rect>
                        <rect id="Rectangle-78" x="180" y="60" width="30" height="30"></rect>
                        <rect id="Rectangle-79" x="210" y="60" width="30" height="30"></rect>
                        <rect id="Rectangle-80" x="240" y="60" width="30" height="30"></rect>
                        <rect id="Rectangle-81" x="270" y="60" width="30" height="30"></rect>
                        <rect id="Rectangle-84" x="30" y="90" width="30" height="30"></rect>
                        <rect id="Rectangle-85" x="60" y="90" width="30" height="30"></rect>
                        <rect id="Rectangle-86" x="90" y="90" width="30" height="30"></rect>
                        <rect id="Rectangle-87" x="120" y="90" width="30" height="30"></rect>
                        <rect id="Rectangle-88" x="150" y="90" width="30" height="30"></rect>
                        <rect id="Rectangle-89" x="180" y="90" width="30" height="30"></rect>
                        <rect id="Rectangle-90" x="210" y="90" width="30" height="30"></rect>
                        <rect id="Rectangle-91" x="240" y="90" width="30" height="30"></rect>
                        <rect id="Rectangle-95" x="30" y="120" width="30" height="30"></rect>
                        <rect id="Rectangle-96" x="60" y="120" width="30" height="30"></rect>
                        <rect id="Rectangle-97" x="90" y="120" width="30" height="30"></rect>
                        <rect id="Rectangle-98" x="120" y="120" width="30" height="30"></rect>
                        <rect id="Rectangle-99" x="150" y="120" width="30" height="30"></rect>
                        <rect id="Rectangle-100" x="180" y="120" width="30" height="30"></rect>
                        <rect id="Rectangle-101" x="210" y="120" width="30" height="30"></rect>
                        <rect id="Rectangle-102" x="240" y="120" width="30" height="30"></rect>
                        <rect id="Rectangle-107" x="60" y="150" width="30" height="30"></rect>
                        <rect id="Rectangle-108" x="90" y="150" width="30" height="30"></rect>
                        <rect id="Rectangle-109" x="120" y="150" width="30" height="30"></rect>
                        <rect id="Rectangle-110" x="150" y="150" width="30" height="30"></rect>
                        <rect id="Rectangle-111" x="180" y="150" width="30" height="30"></rect>
                        <rect id="Rectangle-112" x="210" y="150" width="30" height="30"></rect>
                        <rect id="Rectangle-119" x="60" y="180" width="30" height="30"></rect>
                        <rect id="Rectangle-120" x="90" y="180" width="30" height="30"></rect>
                        <rect id="Rectangle-121" x="120" y="180" width="30" height="30"></rect>
                        <rect id="Rectangle-122" x="150" y="180" width="30" height="30"></rect>
                        <rect id="Rectangle-123" x="180" y="180" width="30" height="30"></rect>
                        <rect id="Rectangle-124" x="210" y="180" width="30" height="30"></rect>
                        <rect id="Rectangle-131" x="90" y="210" width="30" height="30"></rect>
                        <rect id="Rectangle-132" x="120" y="210" width="30" height="30"></rect>
                        <rect id="Rectangle-133" x="150" y="210" width="30" height="30"></rect>
                        <rect id="Rectangle-134" x="180" y="210" width="30" height="30"></rect>
                        <rect id="Rectangle-142" x="90" y="240" width="30" height="30"></rect>
                        <rect id="Rectangle-143" x="120" y="240" width="30" height="30"></rect>
                        <rect id="Rectangle-144" x="150" y="240" width="30" height="30"></rect>
                        <rect id="Rectangle-145" x="180" y="240" width="30" height="30"></rect>
                        <rect id="Rectangle-154" x="120" y="270" width="30" height="30"></rect>
                        <rect id="Rectangle-155" x="150" y="270" width="30" height="30"></rect>
                    </g>
                    <g id="Overlap" transform="translate(1.000000, 0.000000)" fill="#FFFFFF">
                        <rect id="Rectangle-217" x="270.5" y="28.5" width="27" height="46.5"></rect>
                        <rect id="Rectangle-213" x="210.5" y="20" width="27" height="30"></rect>
                        <rect id="Rectangle-206" x="150.5" y="43.5" width="27" height="30"></rect>
                        <rect id="Rectangle-204" x="90.5" y="77.5" width="27" height="30"></rect>
                        <rect id="Rectangle-202" x="120.5" y="19.5" width="27" height="30"></rect>
                        <rect id="Rectangle-199" x="60.5" y="29" width="27" height="30"></rect>
                        <rect id="Rectangle-194" x="30.5" y="50" width="27" height="30"></rect>
                        <rect id="Rectangle-196" x="30.5" y="22" width="27" height="30"></rect>
                        <rect id="Rectangle-192" x="60.5" y="80" width="27" height="30"></rect>
                        <path d="M183,120.5 L183,93.5 L217,93.5 L217,120.5 L183,120.5 L183,120.5 Z" id="Rectangle-173"></path>
                        <path d="M214,120.5 L214,93.5 L248,93.5 L248,120.5 L214,120.5 L214,120.5 Z" id="Rectangle-172"></path>
                        <path d="M220,150.5 L220,123.5 L254,123.5 L254,150.5 L220,150.5 L220,150.5 Z" id="Rectangle-170"></path>
                        <path d="M190,210.5 L190,183.5 L224,183.5 L224,210.5 L190,210.5 L190,210.5 Z" id="Rectangle-167"></path>
                        <path d="M4,90.5 L4,63.5 L50,63.5 L50,90.5 L4,90.5 L4,90.5 Z" id="Rectangle-195"></path>
                        <path d="M50,120.5 L50,93.5 L111,93.5 L111,120.5 L50,120.5 L50,120.5 Z" id="Rectangle-191"></path>
                        <path d="M91.5,30.5 L91.5,3.5 L144.5,3.5 L144.5,30.5 L91.5,30.5 L91.5,30.5 Z" id="Rectangle-203"></path>
                        <path d="M249,90.5 L249,63.5 L288,63.5 L288,90.5 L249,90.5 L249,90.5 Z" id="Rectangle-216"></path>
                        <path d="M218,30.5 L218,3.5 L257,3.5 L257,30.5 L218,30.5 L218,30.5 Z" id="Rectangle-218"></path>
                        <path d="M140,30.5 L140,3.5 L211,3.5 L211,30.5 L140,30.5 L140,30.5 Z" id="Rectangle-220"></path>
                        <path d="M193,90.5 L193,63.5 L232,63.5 L232,90.5 L193,90.5 L193,90.5 Z" id="Rectangle-212"></path>
                        <path d="M83,60.5 L83,33.5 L143.5,33.5 L143.5,60.5 L83,60.5 L83,60.5 Z" id="Rectangle-201"></path>
                        <path d="M1,60.5 L1,33.5 L54,33.5 L54,60.5 L1,60.5 L1,60.5 Z" id="Rectangle-197"></path>
                        <path d="M39,30.5 L39,3.5 L73,3.5 L73,30.5 L39,30.5 L39,30.5 Z" id="Rectangle-198"></path>
                        <path d="M53,150.5 L53,123.5 L106,123.5 L106,150.5 L53,150.5 L53,150.5 Z" id="Rectangle-189"></path>
                        <path d="M70,180.5 L70,153.5 L104,153.5 L104,180.5 L70,180.5 L70,180.5 Z" id="Rectangle-185"></path>
                        <path d="M101,210.5 L101,183.5 L135,183.5 L135,210.5 L101,210.5 L101,210.5 Z" id="Rectangle-184"></path>
                        <path d="M162,210.5 L162,183.5 L196,183.5 L196,210.5 L162,210.5 L162,210.5 Z" id="Rectangle-166"></path>
                        <path d="M160,270.5 L160,243.5 L194,243.5 L194,270.5 L160,270.5 L160,270.5 Z" id="Rectangle-178"></path>
                        <path d="M117,240.5 L117,213.5 L151,213.5 L151,240.5 L117,240.5 L117,240.5 Z" id="Rectangle-163"></path>
                        <path d="M90.5,270.5 L90.5,243.5 L150.5,243.5 L150.5,270.5 L90.5,270.5 L90.5,270.5 Z" id="Rectangle-161"></path>
                        <rect id="Rectangle-165" x="90.5" y="225" width="27" height="30"></rect>
                        <rect id="Rectangle-169" x="210.5" y="132" width="27" height="30"></rect>
                        <rect id="Rectangle-171" x="240.5" y="108.5" width="27" height="30"></rect>
                        <rect id="Rectangle-190" x="60.5" y="106" width="27" height="30"></rect>
                        <rect id="Rectangle-188" x="90.5" y="139" width="27" height="30"></rect>
                        <rect id="Rectangle-187" x="60.5" y="169" width="27" height="30"></rect>
                        <rect id="Rectangle-186" x="90.5" y="169" width="27" height="30"></rect>
                        <rect id="Rectangle-182" x="120.5" y="163" width="27" height="30"></rect>
                        <rect id="Rectangle-181" x="120.5" y="141" width="27" height="30"></rect>
                        <rect id="Rectangle-176" x="150.5" y="131" width="27" height="30"></rect>
                        <rect id="Rectangle-168" x="210.5" y="161" width="27" height="30"></rect>
                        <rect id="Rectangle-177" x="120.5" y="262" width="27" height="42"></rect>
                        <rect id="Rectangle-179" x="180.5" y="202" width="27" height="30"></rect>
                        <rect id="Path" x="150.5" y="257" width="27" height="30"></rect>
                        <rect id="Rectangle-219" x="240.5" y="24.75" width="27" height="56.25"></rect>
                        <rect id="Rectangle-211" x="180.5" y="52" width="27" height="30"></rect>
                        <path d="M161,60.5 L161,33.5 L200,33.5 L200,60.5 L161,60.5 L161,60.5 Z" id="Rectangle-210"></path>
                        <path d="M125,150.5 L125,123.5 L159,123.5 L159,150.5 L125,150.5 L125,150.5 Z" id="Rectangle-175"></path>
                        <path d="M217,90.5 L217,63.5 L256,63.5 L256,90.5 L217,90.5 L217,90.5 Z" id="Rectangle-214"></path>
                        <path d="M102,90.5 L102,63.5 L136,63.5 L136,90.5 L102,90.5 L102,90.5 Z" id="Rectangle-209"></path>
                        <rect id="Rectangle-208" x="150.5" y="77" width="27" height="30"></rect>
                        <rect id="Rectangle-207" x="120.5" y="79.5" width="27" height="30"></rect>
                        <rect id="Rectangle-215" x="240.5" y="51" width="27" height="30"></rect>
                        <path d="M123,90.5 L123,63.5 L162,63.5 L162,90.5 L123,90.5 L123,90.5 Z" id="Rectangle-205"></path>
                        <path d="M90.5,60.5 L90.5,33.5 L143.5,33.5 L143.5,60.5 L90.5,60.5 L90.5,60.5 Z" id="Rectangle-200"></path>
                        <path d="M162,180.5 L162,153.5 L196,153.5 L196,180.5 L162,180.5 L162,180.5 Z" id="Rectangle-183"></path>
                        <rect id="Rectangle-174" x="180.5" y="120.5" width="27" height="46.5"></rect>
                        <rect id="Path" x="150.5" y="197" width="27" height="30"></rect>
                        <rect id="Rectangle-193" x="0.5" y="0.5" width="27" height="46.5"></rect>
                    </g>
                    <path d="M165,140 C166.656854,140 168,138.656854 168,137 C168,135.343146 166.656854,134 165,134 C163.343146,134 162,135.343146 162,137 C162,138.656854 163.343146,140 165,140 Z M165,155 C166.656854,155 168,153.656854 168,152 C168,150.343146 166.656854,149 165,149 C163.343146,149 162,150.343146 162,152 C162,153.656854 163.343146,155 165,155 Z M195,140 C196.656854,140 198,138.656854 198,137 C198,135.343146 196.656854,134 195,134 C193.343146,134 192,135.343146 192,137 C192,138.656854 193.343146,140 195,140 Z M195,155 C196.656854,155 198,153.656854 198,152 C198,150.343146 196.656854,149 195,149 C193.343146,149 192,150.343146 192,152 C192,153.656854 193.343146,155 195,155 Z M195,110 C196.656854,110 198,108.656854 198,107 C198,105.343146 196.656854,104 195,104 C193.343146,104 192,105.343146 192,107 C192,108.656854 193.343146,110 195,110 Z M210,110 C211.656854,110 213,108.656854 213,107 C213,105.343146 211.656854,104 210,104 C208.343146,104 207,105.343146 207,107 C207,108.656854 208.343146,110 210,110 Z M225,110 C226.656854,110 228,108.656854 228,107 C228,105.343146 226.656854,104 225,104 C223.343146,104 222,105.343146 222,107 C222,108.656854 223.343146,110 225,110 Z M240,110 C241.656854,110 243,108.656854 243,107 C243,105.343146 241.656854,104 240,104 C238.343146,104 237,105.343146 237,107 C237,108.656854 238.343146,110 240,110 Z M255,110 C256.656854,110 258,108.656854 258,107 C258,105.343146 256.656854,104 255,104 C253.343146,104 252,105.343146 252,107 C252,108.656854 253.343146,110 255,110 Z M195,125 C196.656854,125 198,123.656854 198,122 C198,120.343146 196.656854,119 195,119 C193.343146,119 192,120.343146 192,122 C192,123.656854 193.343146,125 195,125 Z M165,170 C166.656854,170 168,168.656854 168,167 C168,165.343146 166.656854,164 165,164 C163.343146,164 162,165.343146 162,167 C162,168.656854 163.343146,170 165,170 Z M180,170 C181.656854,170 183,168.656854 183,167 C183,165.343146 181.656854,164 180,164 C178.343146,164 177,165.343146 177,167 C177,168.656854 178.343146,170 180,170 Z M195,170 C196.656854,170 198,168.656854 198,167 C198,165.343146 196.656854,164 195,164 C193.343146,164 192,165.343146 192,167 C192,168.656854 193.343146,170 195,170 Z M195,200 C196.656854,200 198,198.656854 198,197 C198,195.343146 196.656854,194 195,194 C193.343146,194 192,195.343146 192,197 C192,198.656854 193.343146,200 195,200 Z M195,215 C196.656854,215 198,213.656854 198,212 C198,210.343146 196.656854,209 195,209 C193.343146,209 192,210.343146 192,212 C192,213.656854 193.343146,215 195,215 Z M195,230 C196.656854,230 198,228.656854 198,227 C198,225.343146 196.656854,224 195,224 C193.343146,224 192,225.343146 192,227 C192,228.656854 193.343146,230 195,230 Z M165,275 C166.656854,275 168,273.656854 168,272 C168,270.343146 166.656854,269 165,269 C163.343146,269 162,270.343146 162,272 C162,273.656854 163.343146,275 165,275 Z M165,290 C166.656854,290 168,288.656854 168,287 C168,285.343146 166.656854,284 165,284 C163.343146,284 162,285.343146 162,287 C162,288.656854 163.343146,290 165,290 Z M135,275 C136.656854,275 138,273.656854 138,272 C138,270.343146 136.656854,269 135,269 C133.343146,269 132,270.343146 132,272 C132,273.656854 133.343146,275 135,275 Z M135,290 C136.656854,290 138,288.656854 138,287 C138,285.343146 136.656854,284 135,284 C133.343146,284 132,285.343146 132,287 C132,288.656854 133.343146,290 135,290 Z M135,305 C136.656854,305 138,303.656854 138,302 C138,300.343146 136.656854,299 135,299 C133.343146,299 132,300.343146 132,302 C132,303.656854 133.343146,305 135,305 Z M135,320 C136.656854,320 138,318.656854 138,317 C138,315.343146 136.656854,314 135,314 C133.343146,314 132,315.343146 132,317 C132,318.656854 133.343146,320 135,320 Z M150,320 C151.656854,320 153,318.656854 153,317 C153,315.343146 151.656854,314 150,314 C148.343146,314 147,315.343146 147,317 C147,318.656854 148.343146,320 150,320 Z M150,335 C151.656854,335 153,333.656854 153,332 C153,330.343146 151.656854,329 150,329 C148.343146,329 147,330.343146 147,332 C147,333.656854 148.343146,335 150,335 Z M105,245 C106.656854,245 108,243.656854 108,242 C108,240.343146 106.656854,239 105,239 C103.343146,239 102,240.343146 102,242 C102,243.656854 103.343146,245 105,245 Z M105,260 C106.656854,260 108,258.656854 108,257 C108,255.343146 106.656854,254 105,254 C103.343146,254 102,255.343146 102,257 C102,258.656854 103.343146,260 105,260 Z M165,215 C166.656854,215 168,213.656854 168,212 C168,210.343146 166.656854,209 165,209 C163.343146,209 162,210.343146 162,212 C162,213.656854 163.343146,215 165,215 Z M165,230 C166.656854,230 168,228.656854 168,227 C168,225.343146 166.656854,224 165,224 C163.343146,224 162,225.343146 162,227 C162,228.656854 163.343146,230 165,230 Z M210,200 C211.656854,200 213,198.656854 213,197 C213,195.343146 211.656854,194 210,194 C208.343146,194 207,195.343146 207,197 C207,198.656854 208.343146,200 210,200 Z M165,200 C166.656854,200 168,198.656854 168,197 C168,195.343146 166.656854,194 165,194 C163.343146,194 162,195.343146 162,197 C162,198.656854 163.343146,200 165,200 Z M180,200 C181.656854,200 183,198.656854 183,197 C183,195.343146 181.656854,194 180,194 C178.343146,194 177,195.343146 177,197 C177,198.656854 178.343146,200 180,200 Z M225,200 C226.656854,200 228,198.656854 228,197 C228,195.343146 226.656854,194 225,194 C223.343146,194 222,195.343146 222,197 C222,198.656854 223.343146,200 225,200 Z M165,260 C166.656854,260 168,258.656854 168,257 C168,255.343146 166.656854,254 165,254 C163.343146,254 162,255.343146 162,257 C162,258.656854 163.343146,260 165,260 Z M180,260 C181.656854,260 183,258.656854 183,257 C183,255.343146 181.656854,254 180,254 C178.343146,254 177,255.343146 177,257 C177,258.656854 178.343146,260 180,260 Z M135,260 C136.656854,260 138,258.656854 138,257 C138,255.343146 136.656854,254 135,254 C133.343146,254 132,255.343146 132,257 C132,258.656854 133.343146,260 135,260 Z M120,260 C121.656854,260 123,258.656854 123,257 C123,255.343146 121.656854,254 120,254 C118.343146,254 117,255.343146 117,257 C117,258.656854 118.343146,260 120,260 Z M150,260 C151.656854,260 153,258.656854 153,257 C153,255.343146 151.656854,254 150,254 C148.343146,254 147,255.343146 147,257 C147,258.656854 148.343146,260 150,260 Z M195,260 C196.656854,260 198,258.656854 198,257 C198,255.343146 196.656854,254 195,254 C193.343146,254 192,255.343146 192,257 C192,258.656854 193.343146,260 195,260 Z M135,230 C136.656854,230 138,228.656854 138,227 C138,225.343146 136.656854,224 135,224 C133.343146,224 132,225.343146 132,227 C132,228.656854 133.343146,230 135,230 Z M150,230 C151.656854,230 153,228.656854 153,227 C153,225.343146 151.656854,224 150,224 C148.343146,224 147,225.343146 147,227 C147,228.656854 148.343146,230 150,230 Z M105,230 C106.656854,230 108,228.656854 108,227 C108,225.343146 106.656854,224 105,224 C103.343146,224 102,225.343146 102,227 C102,228.656854 103.343146,230 105,230 Z M120,230 C121.656854,230 123,228.656854 123,227 C123,225.343146 121.656854,224 120,224 C118.343146,224 117,225.343146 117,227 C117,228.656854 118.343146,230 120,230 Z M225,154 C226.656854,154 228,152.656854 228,151 C228,149.343146 226.656854,148 225,148 C223.343146,148 222,149.343146 222,151 C222,152.656854 223.343146,154 225,154 Z M225,169 C226.656854,169 228,167.656854 228,166 C228,164.343146 226.656854,163 225,163 C223.343146,163 222,164.343146 222,166 C222,167.656854 223.343146,169 225,169 Z M225,184 C226.656854,184 228,182.656854 228,181 C228,179.343146 226.656854,178 225,178 C223.343146,178 222,179.343146 222,181 C222,182.656854 223.343146,184 225,184 Z M225,140 C226.656854,140 228,138.656854 228,137 C228,135.343146 226.656854,134 225,134 C223.343146,134 222,135.343146 222,137 C222,138.656854 223.343146,140 225,140 Z M240,140 C241.656854,140 243,138.656854 243,137 C243,135.343146 241.656854,134 240,134 C238.343146,134 237,135.343146 237,137 C237,138.656854 238.343146,140 240,140 Z M255,125 C256.656854,125 258,123.656854 258,122 C258,120.343146 256.656854,119 255,119 C253.343146,119 252,120.343146 252,122 C252,123.656854 253.343146,125 255,125 Z M255,140 C256.656854,140 258,138.656854 258,137 C258,135.343146 256.656854,134 255,134 C253.343146,134 252,135.343146 252,137 C252,138.656854 253.343146,140 255,140 Z" id="Dotes" fill="#9CA5BF"></path>
                    <path d="M155.656854,130.952244 C152.53266,127.837347 147.46734,127.837347 144.343146,130.952244 C141.218951,134.06714 141.218951,139.117384 144.343146,142.23228 C147.46734,145.347176 152.53266,145.347176 155.656854,142.23228 L150,136.592262 L155.656854,130.952244 L155.656854,130.952244 Z" id="Pacman" fill="#FFB03B"></path>
                    <path d="M54,145 L42,145 L42,145 L40,145 L42,142.633136 L44,145 L42,145 L40,145 L40,137 C40,132.581722 43.5907123,129 48,129 C52.418278,129 56,132.590712 56,137 L56,145 L54,145 L56,145 L54,142.633136 L52,145 L54,145 Z M46,142.633136 L48,145 L44,145 L46,142.633136 Z M50,142.633136 L52,145 L48,145 L50,142.633136 Z M44.7810651,138.088757 C45.8006677,138.088757 46.6272189,137.05027 46.6272189,135.769231 C46.6272189,134.488192 45.8006677,133.449704 44.7810651,133.449704 C43.7614625,133.449704 42.9349112,134.488192 42.9349112,135.769231 C42.9349112,137.05027 43.7614625,138.088757 44.7810651,138.088757 Z M49.7988166,138.088757 C50.8184192,138.088757 51.6449704,137.05027 51.6449704,135.769231 C51.6449704,134.488192 50.8184192,133.449704 49.7988166,133.449704 C48.779214,133.449704 47.9526627,134.488192 47.9526627,135.769231 C47.9526627,137.05027 48.779214,138.088757 49.7988166,138.088757 Z M44.4970414,137 C44.8891963,137 45.2071006,136.576128 45.2071006,136.053254 C45.2071006,135.530381 44.8891963,135.106509 44.4970414,135.106509 C44.1048866,135.106509 43.7869822,135.530381 43.7869822,136.053254 C43.7869822,136.576128 44.1048866,137 44.4970414,137 Z M49.5147929,137 C49.9069478,137 50.2248521,136.576128 50.2248521,136.053254 C50.2248521,135.530381 49.9069478,135.106509 49.5147929,135.106509 C49.122638,135.106509 48.8047337,135.530381 48.8047337,136.053254 C48.8047337,136.576128 49.122638,137 49.5147929,137 Z" id="Blue-Ghost" fill="#2196F3"></path>
                    <path d="M171,56 L159,56 L159,56 L157,56 L159,53.6331361 L161,56 L159,56 L157,56 L157,48 C157,43.581722 160.590712,40 165,40 C169.418278,40 173,43.5907123 173,48 L173,56 L171,56 L173,56 L171,53.6331361 L169,56 L171,56 Z M163,53.6331361 L165,56 L161,56 L163,53.6331361 Z M167,53.6331361 L169,56 L165,56 L167,53.6331361 Z M161.781065,49.0887574 C162.800668,49.0887574 163.627219,48.05027 163.627219,46.7692308 C163.627219,45.4881916 162.800668,44.4497041 161.781065,44.4497041 C160.761462,44.4497041 159.934911,45.4881916 159.934911,46.7692308 C159.934911,48.05027 160.761462,49.0887574 161.781065,49.0887574 Z M166.798817,49.0887574 C167.818419,49.0887574 168.64497,48.05027 168.64497,46.7692308 C168.64497,45.4881916 167.818419,44.4497041 166.798817,44.4497041 C165.779214,44.4497041 164.952663,45.4881916 164.952663,46.7692308 C164.952663,48.05027 165.779214,49.0887574 166.798817,49.0887574 Z M161.497041,48 C161.889196,48 162.207101,47.5761276 162.207101,47.0532544 C162.207101,46.5303813 161.889196,46.1065089 161.497041,46.1065089 C161.104887,46.1065089 160.786982,46.5303813 160.786982,47.0532544 C160.786982,47.5761276 161.104887,48 161.497041,48 Z M166.514793,48 C166.906948,48 167.224852,47.5761276 167.224852,47.0532544 C167.224852,46.5303813 166.906948,46.1065089 166.514793,46.1065089 C166.122638,46.1065089 165.804734,46.5303813 165.804734,47.0532544 C165.804734,47.5761276 166.122638,48 166.514793,48 Z" id="Red-Ghost" fill="#F44336"></path>
                    <path d="M291,83.6862915 L279,83.6862915 L279,83.6862915 L277,83.6862915 L279,81.3194276 L281,83.6862915 L279,83.6862915 L277,83.6862915 L277,75.6862915 C277,71.2680135 280.590712,67.6862915 285,67.6862915 C289.418278,67.6862915 293,71.2770038 293,75.6862915 L293,83.6862915 L291,83.6862915 L293,83.6862915 L291,81.3194276 L289,83.6862915 L291,83.6862915 Z M283,81.3194276 L285,83.6862915 L281,83.6862915 L283,81.3194276 Z M287,81.3194276 L289,83.6862915 L285,83.6862915 L287,81.3194276 Z M281.781065,76.7750489 C282.800668,76.7750489 283.627219,75.7365615 283.627219,74.4555223 C283.627219,73.1744831 282.800668,72.1359956 281.781065,72.1359956 C280.761462,72.1359956 279.934911,73.1744831 279.934911,74.4555223 C279.934911,75.7365615 280.761462,76.7750489 281.781065,76.7750489 Z M286.798817,76.7750489 C287.818419,76.7750489 288.64497,75.7365615 288.64497,74.4555223 C288.64497,73.1744831 287.818419,72.1359956 286.798817,72.1359956 C285.779214,72.1359956 284.952663,73.1744831 284.952663,74.4555223 C284.952663,75.7365615 285.779214,76.7750489 286.798817,76.7750489 Z M281.497041,75.6862915 C281.889196,75.6862915 282.207101,75.2624191 282.207101,74.7395459 C282.207101,74.2166728 281.889196,73.7928004 281.497041,73.7928004 C281.104887,73.7928004 280.786982,74.2166728 280.786982,74.7395459 C280.786982,75.2624191 281.104887,75.6862915 281.497041,75.6862915 Z M286.514793,75.6862915 C286.906948,75.6862915 287.224852,75.2624191 287.224852,74.7395459 C287.224852,74.2166728 286.906948,73.7928004 286.514793,73.7928004 C286.122638,73.7928004 285.804734,74.2166728 285.804734,74.7395459 C285.804734,75.2624191 286.122638,75.6862915 286.514793,75.6862915 Z" id="Green-Ghost" fill="#4CAF50"></path>
                </g>
            </g>
        </g>
    </g>
</svg>