<?xml version="1.0" encoding="UTF-8" standalone="no"?>
<svg width="60px" height="60px" viewBox="0 0 60 60" version="1.1" xmlns="http://www.w3.org/2000/svg" xmlns:xlink="http://www.w3.org/1999/xlink" xmlns:sketch="http://www.bohemiancoding.com/sketch/ns">
    <!-- Generator: Sketch 3.2.1 (9971) - http://www.bohemiancoding.com/sketch -->
    <title>Business icon</title>
    <desc>Created with Sketch.</desc>
    <defs>
        <linearGradient x1="50%" y1="1.41638472e-14%" x2="50%" y2="100%" id="linearGradient-1">
            <stop stop-color="#4A81FF" offset="0%"></stop>
            <stop stop-color="#3CC4FF" offset="100%"></stop>
        </linearGradient>
    </defs>
    <g id="Page-1" stroke="none" stroke-width="1" fill="none" fill-rule="evenodd" sketch:type="MSPage">
        <g id="PC" sketch:type="MSArtboardGroup" transform="translate(-815.000000, -2031.000000)" fill="url(#linearGradient-1)">
            <g id="What" sketch:type="MSLayerGroup" transform="translate(0.000000, 752.000000)">
                <g id="Type" transform="translate(620.000000, 1279.000000)" sketch:type="MSShapeGroup">
                    <path d="M248.044787,59.0163934 L254,59.0163934 C254.55,59.0163934 255,58.5727869 255,58.0318033 L255,24.5891803 C255,24.0481967 254.55,23.6065574 254,23.6065574 L251,23.6065574 L251,18.687541 C251,18.1465574 250.55,17.704918 250,17.704918 L240,17.704918 C239.45,17.704918 239,18.1465574 239,18.687541 L239,23.6065574 L239,23.6065574 L236,23.6065574 C235.45,23.6065574 235,24.0481967 235,24.5891803 L235,33.442623 L219,33.442623 L219,18.687541 C219,18.1465574 218.55,17.704918 218,17.704918 L215,17.704918 L215,10.8196721 C215,10.2786885 214.55,9.83606557 214,9.83606557 L207,9.83606557 L207,0.982622951 C207,0.441639344 206.55,0 206,0 C205.45,0 205,0.441639344 205,0.982622951 L205,9.83606557 L200,9.83606557 C199.45,9.83606557 199,10.2786885 199,10.8196721 L199,17.704918 L199,17.704918 L196,17.704918 C195.45,17.704918 195,18.1465574 195,18.687541 L195,58.0318033 C195,58.5727869 195.45,59.0163934 196,59.0163934 L203.955213,59.0163934 L203.955213,59.0163934 C203.970063,59.0170468 203.984994,59.017377 204,59.017377 L208,59.017377 C208.015006,59.017377 208.029937,59.0170468 208.044787,59.0163934 L217.955213,59.0163934 C217.970063,59.0170468 217.984994,59.017377 218,59.017377 L236,59.017377 C236.015006,59.017377 236.029937,59.0170468 236.044787,59.0163934 L236.044787,59.0163934 L243.955213,59.0163934 C243.970063,59.0170468 243.984994,59.017377 244,59.017377 L248,59.017377 C248.015006,59.017377 248.029937,59.0170468 248.044787,59.0163934 L248.044787,59.0163934 Z M243,57.0481967 L237,57.0481967 L237,25.5727869 L253,25.5727869 L253,57.0481967 L249,57.0481967 L249,52.1311475 C249,51.5901639 248.55,51.147541 248,51.147541 L244,51.147541 C243.45,51.147541 243,51.5901639 243,52.1311475 L243,57.0481967 Z M209,57.0481967 L217,57.0481967 L217,19.6711475 L214.044836,19.6711475 L214.044836,19.6711475 C214.02997,19.6718009 214.015022,19.6721311 214,19.6721311 L200,19.6721311 C199.984978,19.6721311 199.97003,19.6718009 199.955164,19.6711475 L197,19.6711475 L197,57.0481967 L203,57.0481967 L203,52.1311475 C203,51.5901639 203.45,51.147541 204,51.147541 L208,51.147541 C208.55,51.147541 209,51.5901639 209,52.1311475 L209,57.0481967 L209,57.0481967 Z M235,57.0491803 L235,35.4108197 L219,35.4108197 L219,57.0491803 L235,57.0491803 L235,57.0491803 Z M201,17.7059016 L213,17.7059016 L213,11.8042623 L201,11.8042623 L201,17.7059016 Z M241,23.6065574 L249,23.6065574 L249,19.6711475 L241,19.6711475 L241,23.6065574 Z M210,15.7377049 L204,15.7377049 C203.45,15.7377049 203,15.2960656 203,14.755082 C203,14.2131148 203.45,13.7704918 204,13.7704918 L210,13.7704918 C210.55,13.7704918 211,14.2131148 211,14.755082 C211,15.2960656 210.55,15.7377049 210,15.7377049 Z M214,27.5409836 L200,27.5409836 C199.45,27.5409836 199,27.0993443 199,26.5583607 C199,26.0163934 199.45,25.5737705 200,25.5737705 L214,25.5737705 C214.55,25.5737705 215,26.0163934 215,26.5583607 C215,27.0993443 214.55,27.5409836 214,27.5409836 Z M214,23.607541 L200,23.607541 C199.45,23.607541 199,23.1639344 199,22.6229508 C199,22.0819672 199.45,21.6393443 200,21.6393443 L214,21.6393443 C214.55,21.6393443 215,22.0819672 215,22.6229508 C215,23.1639344 214.55,23.607541 214,23.607541 Z M214,31.4744262 L200,31.4744262 C199.45,31.4744262 199,31.0318033 199,30.4908197 C199,29.9498361 199.45,29.5081967 200,29.5081967 L214,29.5081967 C214.55,29.5081967 215,29.9498361 215,30.4908197 C215,31.0318033 214.55,31.4744262 214,31.4744262 Z M214,35.4108197 L200,35.4108197 C199.45,35.4108197 199,34.9672131 199,34.4262295 C199,33.8852459 199.45,33.442623 200,33.442623 L214,33.442623 C214.55,33.442623 215,33.8852459 215,34.4262295 C215,34.9672131 214.55,35.4108197 214,35.4108197 Z M214,39.3442623 L200,39.3442623 C199.45,39.3442623 199,38.902623 199,38.3616393 C199,37.8196721 199.45,37.3770492 200,37.3770492 L214,37.3770492 C214.55,37.3770492 215,37.8196721 215,38.3616393 C215,38.902623 214.55,39.3442623 214,39.3442623 Z M214,43.2777049 L200,43.2777049 C199.45,43.2777049 199,42.835082 199,42.2940984 C199,41.7531148 199.45,41.3114754 200,41.3114754 L214,41.3114754 C214.55,41.3114754 215,41.7531148 215,42.2940984 C215,42.835082 214.55,43.2777049 214,43.2777049 Z M214,47.2140984 L200,47.2140984 C199.45,47.2140984 199,46.7704918 199,46.2295082 C199,45.6885246 199.45,45.2459016 200,45.2459016 L214,45.2459016 C214.55,45.2459016 215,45.6885246 215,46.2295082 C215,46.7704918 214.55,47.2140984 214,47.2140984 Z M250,29.5091803 L240,29.5091803 C239.45,29.5091803 239,29.0655738 239,28.5245902 C239,27.9836066 239.45,27.5409836 240,27.5409836 L250,27.5409836 C250.55,27.5409836 251,27.9836066 251,28.5245902 C251,29.0655738 250.55,29.5091803 250,29.5091803 Z M250,33.442623 L240,33.442623 C239.45,33.442623 239,33.0009836 239,32.46 C239,31.9180328 239.45,31.4754098 240,31.4754098 L250,31.4754098 C250.55,31.4754098 251,31.9180328 251,32.46 C251,33.0009836 250.55,33.442623 250,33.442623 Z M250,37.3760656 L240,37.3760656 C239.45,37.3760656 239,36.9334426 239,36.392459 C239,35.8514754 239.45,35.4098361 240,35.4098361 L250,35.4098361 C250.55,35.4098361 251,35.8514754 251,36.392459 C251,36.9334426 250.55,37.3760656 250,37.3760656 Z M250,41.312459 L240,41.312459 C239.45,41.312459 239,40.8688525 239,40.3278689 C239,39.7868852 239.45,39.3442623 240,39.3442623 L250,39.3442623 C250.55,39.3442623 251,39.7868852 251,40.3278689 C251,40.8688525 250.55,41.312459 250,41.312459 Z M250,49.1793443 L240,49.1793443 C239.45,49.1793443 239,48.7367213 239,48.1957377 C239,47.6547541 239.45,47.2131148 240,47.2131148 L250,47.2131148 C250.55,47.2131148 251,47.6547541 251,48.1957377 C251,48.7367213 250.55,49.1793443 250,49.1793443 Z M250,45.2459016 L240,45.2459016 C239.45,45.2459016 239,44.8042623 239,44.2632787 C239,43.7213115 239.45,43.2786885 240,43.2786885 L250,43.2786885 C250.55,43.2786885 251,43.7213115 251,44.2632787 C251,44.8042623 250.55,45.2459016 250,45.2459016 Z M232,41.312459 L222,41.312459 C221.45,41.312459 221,40.8688525 221,40.3278689 C221,39.7868852 221.45,39.3442623 222,39.3442623 L232,39.3442623 C232.55,39.3442623 233,39.7868852 233,40.3278689 C233,40.8688525 232.55,41.312459 232,41.312459 Z M232,45.2459016 L222,45.2459016 C221.45,45.2459016 221,44.8042623 221,44.2632787 C221,43.7213115 221.45,43.2786885 222,43.2786885 L232,43.2786885 C232.55,43.2786885 233,43.7213115 233,44.2632787 C233,44.8042623 232.55,45.2459016 232,45.2459016 Z M232,49.1793443 L222,49.1793443 C221.45,49.1793443 221,48.7367213 221,48.1957377 C221,47.6547541 221.45,47.2131148 222,47.2131148 L232,47.2131148 C232.55,47.2131148 233,47.6547541 233,48.1957377 C233,48.7367213 232.55,49.1793443 232,49.1793443 Z M205,57.0491803 L207,57.0491803 L207,53.1157377 L205,53.1157377 L205,57.0491803 Z M245,57.0491803 L247,57.0491803 L247,53.1157377 L245,53.1157377 L245,57.0491803 Z" id="Business-icon"></path>
                </g>
            </g>
        </g>
    </g>
</svg>