<?xml version="1.0" encoding="UTF-8" standalone="no"?>
<svg width="60px" height="58px" viewBox="0 0 60 58" version="1.1" xmlns="http://www.w3.org/2000/svg" xmlns:xlink="http://www.w3.org/1999/xlink" xmlns:sketch="http://www.bohemiancoding.com/sketch/ns">
    <!-- Generator: Sketch 3.2.1 (9971) - http://www.bohemiancoding.com/sketch -->
    <title>Chart icon</title>
    <desc>Created with Sketch.</desc>
    <defs>
        <linearGradient x1="50%" y1="100%" x2="50%" y2="-2.22044605e-14%" id="linearGradient-1">
            <stop stop-color="#8BC34A" offset="0%"></stop>
            <stop stop-color="#009620" offset="100%"></stop>
        </linearGradient>
    </defs>
    <g id="Page-1" stroke="none" stroke-width="1" fill="none" fill-rule="evenodd" sketch:type="MSPage">
        <g id="PC" sketch:type="MSArtboardGroup" transform="translate(-130.000000, -2566.000000)" fill="url(#linearGradient-1)">
            <g id="Why" sketch:type="MSLayerGroup" transform="translate(130.000000, 2269.000000)">
                <g id="2" transform="translate(0.000000, 294.000000)" sketch:type="MSShapeGroup">
                    <path d="M56,59 L59,59 C59.55,59 60,59.448 60,60 C60,60.552 59.55,61.001 59,61.001 L1,61.001 C0.45,61.001 0,60.552 0,60 C0,59.448 0.45,59 1,59 L4,59 L4,59 L4,52.001 C4,51.448 4.45,51 5,51 L13,51 C13.55,51 14,51.448 14,52.001 L14,59 L18,59 L18,42 C18,41.448 18.45,41 19,41 L27,41 C27.55,41 28,41.448 28,42 L28,59 L28,59 L32,59 L32,59 L32,31.999 C32,31.447 32.45,31 33,31 L41,31 C41.55,31 42,31.447 42,31.999 L42,59 L46,59 L46,22.001 C46,21.448 46.45,21 47,21 L55,21 C55.55,21 56,21.448 56,22.001 L56,59 L56,59 Z M50.4339901,5.72128258 L7.44896438,34.0070408 C6.98896438,34.3100408 6.85896438,34.9310408 7.16896438,35.3920408 C7.35896438,35.6850408 7.67896438,35.8430408 7.99896438,35.8430408 C8.18896438,35.8430408 8.37896438,35.7890408 8.54896438,35.6770408 L51.7368464,7.25779549 L51.0079566,13.8890364 C50.9379566,14.4390364 51.3379566,14.9320364 51.8879566,14.9940364 L51.9979566,14.9990364 C52.4979566,14.9990364 52.9379566,14.6210364 52.9879566,14.1100364 L53.9080752,5.82896916 C54.3606698,5.5238221 54.486908,4.9089761 54.1789644,4.45004083 C53.955756,4.10704401 53.5554029,3.94838846 53.175606,4.01484999 C53.1533458,4.01084895 53.1307891,4.00756868 53.1079566,4.00503635 L44.1079566,3.00603635 C43.5679566,2.94603635 43.0679566,3.34003635 43.0079566,3.88903635 C42.9379566,4.43803635 43.3379566,4.93203635 43.8879566,4.99303635 L50.4339901,5.72128258 L50.4339901,5.72128258 Z M6,59 L12,59 L12,53 L6,53 L6,59 Z M20,59 L26,59 L26,43.001 L20,43.001 L20,59 Z M34,58.999 L40,58.999 L40,32.999 L34,32.999 L34,58.999 Z M48,59 L54,59 L54,23 L48,23 L48,59 Z" id="Chart-icon"></path>
                </g>
            </g>
        </g>
    </g>
</svg>