<?xml version="1.0" encoding="UTF-8" standalone="no"?>
<svg width="53px" height="60px" viewBox="0 0 53 60" version="1.1" xmlns="http://www.w3.org/2000/svg" xmlns:xlink="http://www.w3.org/1999/xlink" xmlns:sketch="http://www.bohemiancoding.com/sketch/ns">
    <!-- Generator: Sketch 3.2.1 (9971) - http://www.bohemiancoding.com/sketch -->
    <title>Clock icon</title>
    <desc>Created with Sketch.</desc>
    <defs>
        <linearGradient x1="50%" y1="100%" x2="50%" y2="-2.22044605e-14%" id="linearGradient-1">
            <stop stop-color="#8BC34A" offset="0%"></stop>
            <stop stop-color="#009620" offset="100%"></stop>
        </linearGradient>
    </defs>
    <g id="Page-1" stroke="none" stroke-width="1" fill="none" fill-rule="evenodd" sketch:type="MSPage">
        <g id="PC" sketch:type="MSArtboardGroup" transform="translate(-1013.000000, -2686.000000)" fill="url(#linearGradient-1)">
            <g id="Why" sketch:type="MSLayerGroup" transform="translate(130.000000, 2269.000000)">
                <g id="7" transform="translate(660.000000, 414.000000)" sketch:type="MSShapeGroup">
                    <path d="M270.933696,15.1496204 L272.0765,16.2784426 C272.2715,16.4751639 272.5275,16.5745082 272.7835,16.5745082 C273.0385,16.5745082 273.2945,16.4751639 273.4905,16.2784426 C273.8805,15.8859836 273.8805,15.2948361 273.4905,14.902377 L269.7075,11.1646721 C269.3165,10.7702459 268.6835,10.7702459 268.2925,11.1646721 C267.9025,11.5571311 267.9025,12.1482787 268.2925,12.5407377 L269.529274,13.7623804 L265.2925,17.9510656 C264.9025,18.3435246 264.9025,18.9346721 265.2925,19.3271311 C265.4885,19.5238525 265.7445,19.6231967 266.0005,19.6231967 C266.2555,19.6231967 266.5115,19.5238525 266.7065,19.3271311 L270.933696,15.1496204 L270.933696,15.1496204 Z M250,4.96721311 L252,4.96721311 C252.553,4.96721311 253,4.57377049 253,3.98360656 C253,3.49180328 252.553,3 252,3 L246,3 C245.448,3 245,3.49180328 245,3.98360656 C245,4.57377049 245.448,4.96721311 246,4.96721311 L248,4.96721311 L248,11.4590164 C248,12.0491803 248.448,12.442623 249,12.442623 C249.553,12.442623 250,12.0491803 250,11.4590164 L250,4.96721311 L250,4.96721311 Z M239.78125,28.3770492 C239.52525,28.3770492 239.27025,28.2796721 239.07425,28.0819672 L235.29325,24.3442623 C234.90225,23.9508197 234.90225,23.3616393 235.29325,22.9672131 C235.68325,22.5737705 236.31625,22.5737705 236.70725,22.9672131 L240.48825,26.704918 C240.87925,27.0993443 240.87925,27.6885246 240.48825,28.0819672 C240.29325,28.2796721 240.03725,28.3770492 239.78125,28.3770492 Z M249,54.244918 C248.448,54.244918 248,53.7531148 248,53.2613115 L248,48.2459016 C248,47.7531148 248.448,47.2622951 249,47.2622951 C249.553,47.2622951 250,47.7531148 250,48.2459016 L250,53.2613115 C250,53.7531148 249.553,54.244918 249,54.244918 Z M236.00025,50.0161475 C235.74425,50.0161475 235.48825,49.9177869 235.29325,49.7210656 C234.90225,49.327623 234.90225,48.737459 235.29325,48.345 L239.07525,44.6072951 C239.46625,44.2128689 240.09925,44.2128689 240.48925,44.6072951 C240.88025,44.9997541 240.88025,45.6882787 240.48925,46.0827049 L236.70725,49.7210656 C236.51225,49.9177869 236.25625,50.0161475 236.00025,50.0161475 Z M266.043,36.442623 L260.999,36.442623 C260.447,36.442623 260,36.0491803 260,35.4590164 C260,34.9672131 260.447,34.4754098 260.999,34.4754098 L266.043,34.4754098 C266.595,34.4754098 267.043,34.9672131 267.043,35.4590164 C267.043,36.0491803 266.595,36.442623 266.043,36.442623 Z M261.7815,50.0161475 C261.5265,50.0161475 261.2705,49.9177869 261.0755,49.7210656 L257.2925,46.0827049 C256.9025,45.6882787 256.9025,44.9997541 257.2925,44.6072951 C257.6835,44.2128689 258.3165,44.2128689 258.7065,44.6072951 L262.4885,48.345 C262.8795,48.737459 262.8795,49.327623 262.4885,49.7210656 C262.2935,49.9177869 262.0375,50.0161475 261.7815,50.0161475 Z M257.9995,28.3770492 C257.7435,28.3770492 257.4885,28.2796721 257.2925,28.0819672 C256.9025,27.6885246 256.9025,27.0993443 257.2925,26.704918 L261.0755,22.9672131 C261.4655,22.5737705 262.0985,22.5737705 262.4885,22.9672131 C262.8795,23.3616393 262.8795,23.9508197 262.4885,24.3442623 L258.7065,28.0819672 C258.5115,28.2796721 258.2555,28.3770492 257.9995,28.3770492 Z M249.217,62.4098361 C234.516,62.4098361 223,50.8032787 223,35.852459 C223,35.3606557 223.447,34.8688525 224,34.8688525 L248.434,34.8688525 L248.434,11.852459 C248.434,11.3606557 248.882,10.8688525 249.434,10.8688525 C263.771,10.8688525 275.434,22.4763934 275.434,36.6393443 C275.434,50.9016393 263.673,62.4098361 249.217,62.4098361 Z M225.018,36.8360656 C225.511,50.2131148 235.962,60.442623 249.217,60.442623 C262.571,60.442623 273.434,49.8206557 273.434,36.6393443 C273.434,23.852459 263.206,13.4272131 250.434,12.8360656 L250.434,35.852459 C250.434,36.442623 249.987,36.8360656 249.434,36.8360656 L225.018,36.8360656 Z" id="Clock-icon"></path>
                </g>
            </g>
        </g>
    </g>
</svg>