<?xml version="1.0" encoding="UTF-8" standalone="no"?>
<svg width="60px" height="49px" viewBox="0 0 60 49" version="1.1" xmlns="http://www.w3.org/2000/svg" xmlns:xlink="http://www.w3.org/1999/xlink" xmlns:sketch="http://www.bohemiancoding.com/sketch/ns">
    <!-- Generator: Sketch 3.2.1 (9971) - http://www.bohemiancoding.com/sketch -->
    <title>Cloud icon</title>
    <desc>Created with Sketch.</desc>
    <defs>
        <linearGradient x1="50%" y1="100%" x2="50%" y2="-2.22044605e-14%" id="linearGradient-1">
            <stop stop-color="#8BC34A" offset="0%"></stop>
            <stop stop-color="#009620" offset="100%"></stop>
        </linearGradient>
    </defs>
    <g id="Page-1" stroke="none" stroke-width="1" fill="none" fill-rule="evenodd" sketch:type="MSPage">
        <g id="PC" sketch:type="MSArtboardGroup" transform="translate(-490.000000, -1121.000000)" fill="url(#linearGradient-1)">
            <g id="What" sketch:type="MSLayerGroup" transform="translate(0.000000, 752.000000)">
                <g id="Projects" transform="translate(129.000000, 311.000000)" sketch:type="MSShapeGroup">
                    <g id="ОНЛАЙН-СЕРВИСАМ-+-Cloud-icon" transform="translate(321.000000, 58.000000)">
                        <path d="M70.3961744,25.0212766 L69.82,25.0212766 C63.5396552,25.0212766 58.6206897,30.0568085 58.6206897,36.4893617 C58.6206897,42.8593617 63.7651724,48.0512766 70.09,48.0512766 C76.4137931,48.0512766 81.5582759,42.8593617 81.5582759,36.4893617 C81.5582759,34.456383 81.0265517,32.4546809 80.02,30.704234 C79.7334483,30.2131915 79.1013793,30.0359574 78.6058621,30.3278723 C78.1113793,30.6197872 77.9437931,31.2557447 78.2303448,31.7572128 C79.0548276,33.1844681 79.4893103,34.8212766 79.4893103,36.4893617 C79.4893103,41.7125532 75.2727586,45.9661702 70.09,45.9661702 C64.9062069,45.9661702 60.6896552,41.7125532 60.6896552,36.4893617 C60.6896552,31.2255106 64.7003448,27.106383 69.82,27.106383 L70.0604389,27.106383 L68.2171796,29.055646 C67.8230417,29.4726673 67.838559,30.1388588 68.2523521,30.535029 C68.4530417,30.7226886 68.7095934,30.8175609 68.9661452,30.8175609 C69.2382141,30.8175609 69.5113176,30.712263 69.7151107,30.4943694 L74.0226969,25.9373694 L69.7316624,21.1937524 C69.3458003,20.7663056 68.6930417,20.735029 68.2689038,21.1207737 C67.8468348,21.5065183 67.8158003,22.1643694 68.2006279,22.5907737 L70.3961744,25.0212766 Z M50.982069,37.2817021 C50.4224138,37.2817021 45.8448276,37.1878723 42.7537931,34.1238085 C40.9268966,32.309766 40,29.8482979 40,26.8155106 C40,23.6451064 41.3986207,20.6842553 43.8358621,18.6825532 C45.9762069,16.9310638 48.6710345,16.1282979 51.3855172,16.3889362 C52.4913793,7.11021277 60.342069,0 69.7310345,0 C76.6062069,0 82.9734483,3.93042553 86.1389655,10.0710638 C89.5910345,10.103383 92.83,11.4368085 95.3231034,13.8659574 C97.9910345,16.4525319 99.4610345,19.933617 99.4610345,23.667 C99.4610345,35.5510638 87.4527586,37.2608511 87.3306897,37.2723191 C86.7658621,37.3546809 86.2475862,36.9480851 86.1731034,36.3746809 C86.0986207,35.8117021 86.4968966,35.2914681 87.0617241,35.2070213 C87.4837931,35.1548936 97.392069,33.6953191 97.392069,23.667 C97.392069,20.5080638 96.1475862,17.5565957 93.8872414,15.367234 C91.6403448,13.1789149 88.6786207,12.0519149 85.5389655,12.1572128 L84.8582759,12.1874468 L84.5665517,11.5619149 C81.8572414,5.80702128 76.0331034,2.08614894 69.7310345,2.08614894 C61.0568966,2.08614894 53.8610345,8.91382979 53.35,17.64 L53.2796552,18.8504043 L52.1055172,18.5991489 C49.6362069,18.0893404 47.0965517,18.7044468 45.1403448,20.3089362 C43.1882759,21.9040426 42.0689655,24.2810638 42.0689655,26.8155106 C42.0689655,29.2644681 42.787931,31.2244681 44.2062069,32.6319149 C46.8234483,35.2382979 50.9396552,35.1965957 51.0006897,35.1965957 C51.5624138,35.1861702 52.0424138,35.6553191 52.0506897,36.2287234 C52.0589655,36.8021277 51.6027586,37.2723191 51.0306897,37.2817021 L50.982069,37.2817021 Z" id="Cloud-icon"></path>
                    </g>
                </g>
            </g>
        </g>
    </g>
</svg>