<?xml version="1.0" encoding="UTF-8" standalone="no"?>
<svg width="60px" height="54px" viewBox="0 0 60 54" version="1.1" xmlns="http://www.w3.org/2000/svg" xmlns:xlink="http://www.w3.org/1999/xlink" xmlns:sketch="http://www.bohemiancoding.com/sketch/ns">
    <!-- Generator: Sketch 3.2.1 (9971) - http://www.bohemiancoding.com/sketch -->
    <title>Computer Icon</title>
    <desc>Created with Sketch.</desc>
    <defs>
        <linearGradient x1="50%" y1="100%" x2="50%" y2="-2.22044605e-14%" id="linearGradient-1">
            <stop stop-color="#8BC34A" offset="0%"></stop>
            <stop stop-color="#009620" offset="100%"></stop>
        </linearGradient>
    </defs>
    <g id="Page-1" stroke="none" stroke-width="1" fill="none" fill-rule="evenodd" sketch:type="MSPage">
        <g id="PC" sketch:type="MSArtboardGroup" transform="translate(-650.000000, -1118.000000)" fill="url(#linearGradient-1)">
            <g id="What" sketch:type="MSLayerGroup" transform="translate(0.000000, 752.000000)">
                <g id="Projects" transform="translate(129.000000, 311.000000)" sketch:type="MSShapeGroup">
                    <g id="КОМПЬЮТЕРНЫМ-+-Computer-Icon" transform="translate(481.000000, 55.000000)">
                        <path d="M42,36 L42,4.999 C42,3.34 43.35,1.999 45,1.999 L95,1.999 C96.65,1.999 98,3.34 98,4.999 L98,36 L42,36 Z M42,37.999 L42,42.999 C42,44.649 43.35,45.999 45,45.999 L95,45.999 C96.65,45.999 98,44.649 98,42.999 L98,37.999 L42,37.999 Z M71,48 L71,52 L88,52 C88.55,52 89,52.45 89,53 C89,53.55 88.55,54.001 88,54.001 L52,54.001 C51.45,54.001 51,53.55 51,53 C51,52.45 51.45,52 52,52 L69,52 L69,48 L45,48 C42.24,48 40,45.75 40,42.999 L40,4.999 C40,2.239 42.24,0 45,0 L95,0 C97.76,0 100,2.239 100,4.999 L100,42.999 C100,45.75 97.76,48 95,48 L71,48 L71,48 Z M70,44 C68.9,44 68,43.101 68,42.001 C68,40.9 68.9,40 70,40 C71.1,40 72,40.9 72,42.001 C72,43.101 71.1,44 70,44 Z" id="Computer-Icon"></path>
                    </g>
                </g>
            </g>
        </g>
    </g>
</svg>