<?xml version="1.0" encoding="UTF-8" standalone="no"?>
<svg width="60px" height="60px" viewBox="0 0 60 60" version="1.1" xmlns="http://www.w3.org/2000/svg" xmlns:xlink="http://www.w3.org/1999/xlink" xmlns:sketch="http://www.bohemiancoding.com/sketch/ns">
    <!-- Generator: Sketch 3.2.1 (9971) - http://www.bohemiancoding.com/sketch -->
    <title>Flag icon</title>
    <desc>Created with Sketch.</desc>
    <defs>
        <linearGradient x1="50%" y1="100%" x2="50%" y2="-2.22044605e-14%" id="linearGradient-1">
            <stop stop-color="#8BC34A" offset="0%"></stop>
            <stop stop-color="#009620" offset="100%"></stop>
        </linearGradient>
    </defs>
    <g id="Page-1" stroke="none" stroke-width="1" fill="none" fill-rule="evenodd" sketch:type="MSPage">
        <g id="PC" sketch:type="MSArtboardGroup" transform="translate(-1010.000000, -2445.000000)" fill="url(#linearGradient-1)">
            <g id="Why" sketch:type="MSLayerGroup" transform="translate(130.000000, 2269.000000)">
                <g id="5" transform="translate(660.000000, 176.000000)" sketch:type="MSShapeGroup">
                    <path d="M256.584476,32.4634191 L244.999875,43.8553279 L225.413875,24.5963115 L236.999875,13.1963115 L241.292875,17.4258197 C241.309449,17.4421215 241.326457,17.4577323 241.343863,17.4726522 L256.584476,32.4634191 L256.584476,32.4634191 Z M258.999746,32.4614804 C259.000738,32.6617014 258.94002,32.8636715 258.813875,33.0366393 C258.771875,33.0946721 254.977875,38.3963115 257.083875,41.8094262 L277.585875,21.6454918 L257.999875,2.37663934 L243.4184,16.725639 L258.7065,31.7631148 C258.902764,31.9561615 259.000513,32.2084391 258.999746,32.4614804 L258.999746,32.4614804 Z M256.008896,43.6830163 C256.098906,43.7831115 256.19339,43.8819757 256.2925,43.9795082 C256.4805,44.1565574 256.7345,44.2647541 256.9995,44.2647541 C257.2645,44.2647541 257.5195,44.1565574 257.7065,43.9795082 L279.7065,22.3401639 C280.0975,21.9467213 280.0975,21.3270492 279.7065,20.9434426 L258.7065,0.287704918 C258.3165,-0.0959016393 257.6835,-0.0959016393 257.2925,0.287704918 L241.9995,15.3280328 L237.7065,11.1083607 C237.3165,10.7237705 236.6835,10.7237705 236.2925,11.1083607 L223.2925,23.8942623 C222.9025,24.2778689 222.9025,24.897541 223.2925,25.2909836 L244.2925,45.9467213 C244.4885,46.1336066 244.7435,46.2319672 244.9995,46.2319672 C245.2555,46.2319672 245.5115,46.1336066 245.7065,45.9467213 L251.997761,39.7551749 L256,43.6918033 L256.008896,43.6830163 L256.008896,43.6830163 Z M254.433209,39.3631569 C254.438887,38.5760155 254.561177,37.7926055 254.7515,37.045082 L253.41437,38.3610193 L254.433209,39.3631569 Z M251.26025,59.2745902 C251.00425,59.2745902 250.74925,59.1762295 250.55325,58.9893443 L220.29325,29.2155738 C219.90225,28.8329508 219.90225,28.2122951 220.29325,27.8286885 C220.68325,27.445082 221.31625,27.445082 221.70725,27.8286885 L251.96725,57.592623 C252.35825,57.9772131 252.35825,58.5968852 251.96725,58.9893443 C251.77225,59.1762295 251.51625,59.2745902 251.26025,59.2745902 Z" id="Flag-icon"></path>
                </g>
            </g>
        </g>
    </g>
</svg>