<?xml version="1.0" encoding="UTF-8" standalone="no"?>
<svg width="60px" height="60px" viewBox="0 0 60 60" version="1.1" xmlns="http://www.w3.org/2000/svg" xmlns:xlink="http://www.w3.org/1999/xlink" xmlns:sketch="http://www.bohemiancoding.com/sketch/ns">
    <!-- Generator: Sketch 3.2.1 (9971) - http://www.bohemiancoding.com/sketch -->
    <title>Graph icon</title>
    <desc>Created with Sketch.</desc>
    <defs>
        <linearGradient x1="50%" y1="100%" x2="50%" y2="-2.22044605e-14%" id="linearGradient-1">
            <stop stop-color="#8BC34A" offset="0%"></stop>
            <stop stop-color="#009620" offset="100%"></stop>
        </linearGradient>
    </defs>
    <g id="Page-1" stroke="none" stroke-width="1" fill="none" fill-rule="evenodd" sketch:type="MSPage">
        <g id="PC" sketch:type="MSArtboardGroup" transform="translate(-130.000000, -2445.000000)" fill="url(#linearGradient-1)">
            <g id="Why" sketch:type="MSLayerGroup" transform="translate(130.000000, 2269.000000)">
                <g id="1" transform="translate(0.000000, 176.000000)" sketch:type="MSShapeGroup">
                    <path d="M8,20.0050973 L8,8 L52,8 L52,32 L8,32 L8,22.0040973 L16,22.0040973 C16.27,22.0040973 16.53,21.8950973 16.72,21.6940973 L21.24,16.9740973 L25.07,26.3840973 C25.2,26.6940973 25.47,26.9140973 25.8,26.9840973 L26,27.0050973 C26.26,27.0050973 26.52,26.8940973 26.71,26.7140973 L33,20.4140973 L37.29,24.7140973 C37.49,24.9140973 37.78,25.0150973 38.05,25.0040973 C38.33,24.9840973 38.59,24.8550973 38.77,24.6340973 L47.77,13.6340973 C48.12,13.2040973 48.06,12.5740973 47.63,12.2240973 C47.21,11.8740973 46.58,11.9440973 46.22,12.3640973 L37.93,22.5150973 L33.71,18.2940973 C33.32,17.9030973 32.68,17.9030973 32.29,18.2940973 L26.36,24.2340973 L22.51,14.7940973 C22.38,14.4740973 22.1,14.2550973 21.77,14.1850973 C21.44,14.1240973 21.09,14.2340973 20.86,14.4740973 L15.57,20.0050973 L8,20.0050973 Z M31,39.999 L59,39.999 C59.55,39.999 60,39.549 60,39 L60,0.999 C60,0.449 59.55,0 59,0 L1,0 C0.45,0 0,0.449 0,0.999 L0,39 C0,39.549 0.45,39.999 1,39.999 L29,39.999 L29,46.585 L17.2925,58.2925 C16.9025,58.6835 16.9025,59.3125 17.2925,59.7125 C17.6825,60.1035 18.3225,60.1035 18.7125,59.7125 L30.0025,48.4125 L41.2925,59.7125 C41.4925,59.9015 41.7425,60.0035 42.0025,60.0035 C42.2625,60.0035 42.5125,59.9015 42.7125,59.7125 C43.1025,59.3125 43.1025,58.6835 42.7125,58.2925 L31,46.58 L31,39.999 L31,39.999 Z M2,38 L58,38 L58,2 L2,2 L2,38 Z M53,33.999 L7,33.999 C6.45,33.999 6,33.549 6,33 L6,6.999 C6,6.449 6.45,6 7,6 L53,6 C53.55,6 54,6.449 54,6.999 L54,33 C54,33.549 53.55,33.999 53,33.999 Z" id="Graph-icon"></path>
                </g>
            </g>
        </g>
    </g>
</svg>