<?xml version="1.0" encoding="UTF-8" standalone="no"?>
<svg width="57px" height="60px" viewBox="0 0 57 60" version="1.1" xmlns="http://www.w3.org/2000/svg" xmlns:xlink="http://www.w3.org/1999/xlink" xmlns:sketch="http://www.bohemiancoding.com/sketch/ns">
    <!-- Generator: Sketch 3.2.1 (9971) - http://www.bohemiancoding.com/sketch -->
    <title>Heart icon</title>
    <desc>Created with Sketch.</desc>
    <defs>
        <linearGradient x1="50%" y1="100%" x2="50%" y2="-2.22044605e-14%" id="linearGradient-1">
            <stop stop-color="#8BC34A" offset="0%"></stop>
            <stop stop-color="#009620" offset="100%"></stop>
        </linearGradient>
    </defs>
    <g id="Page-1" stroke="none" stroke-width="1" fill="none" fill-rule="evenodd" sketch:type="MSPage">
        <g id="PC" sketch:type="MSArtboardGroup" transform="translate(-1011.000000, -2566.000000)" fill="url(#linearGradient-1)">
            <g id="Why" sketch:type="MSLayerGroup" transform="translate(130.000000, 2269.000000)">
                <g id="6" transform="translate(660.000000, 294.000000)" sketch:type="MSShapeGroup">
                    <path d="M248.254412,59.0061687 C242.221173,54.5551921 223.072727,39.0316506 223.072727,21.4251724 C223.072727,10.3044828 229.607,5.23448276 235.678018,5.23448276 C242.715378,5.23448276 246.987105,11.2366269 248.273408,17.4827586 L248.254412,17.4827586 L248.254412,20.8241379 L238.287703,27.0413793 C237.953994,27.2493103 237.767449,27.6206897 237.804758,28.0137931 C237.842067,28.4068966 238.098049,28.7389655 238.464921,28.8827586 L253.469394,34.6448276 L242.222776,41.3793103 C241.910831,41.5655172 241.72014,41.8965517 241.72014,42.27 C241.72014,42.6310345 241.911867,42.9631034 242.222776,43.1482759 L248.254412,46.7586207 L248.254412,59.0061687 Z M250.32714,59.1186086 C255.985862,54.3841987 275.881673,36.5386324 275.881673,19.8734483 C275.881673,9.70448276 269.521509,5.06896552 263.611127,5.06896552 C258.518436,5.06896552 252.029764,8.5862069 250.502164,18.4872414 C250.477309,18.6489987 250.415896,18.797111 250.32714,18.9237649 L250.32714,21.3931034 C250.32714,21.7562069 250.142667,22.0872414 249.840049,22.2734483 L241.147031,27.6941379 L256.196067,33.4768966 C256.566049,33.6103448 256.822031,33.9527586 256.856231,34.3448276 C256.890431,34.7493103 256.696631,35.1206897 256.35774,35.3275862 L244.771194,42.27 L249.823467,45.2906897 C250.136449,45.4758621 250.32714,45.8172414 250.32714,46.1793103 L250.32714,59.1186086 Z M249.478236,62.1837931 C249.279255,62.1837931 249.080273,62.1206897 248.906164,62.007931 C248.6222,61.8206897 241.868218,57.3310345 235.004382,50.0989655 C225.842927,40.4482759 221,30.5275862 221,21.4251724 C221,12.3527586 226.041909,3.16551724 235.678018,3.16551724 C240.997673,3.16551724 246.880073,6.54827586 249.478236,14.007931 C252.116818,6.43448276 258.149491,3 263.611127,3 C273.027527,3 277.9544,11.4931034 277.9544,19.8734483 C277.9544,28.4586207 273.252418,38.162069 263.978,48.7148276 C257.130745,56.5148276 250.181927,61.9137931 250.112491,61.9655172 C249.925945,62.1113793 249.702091,62.1837931 249.478236,62.1837931 Z" id="Heart-icon"></path>
                </g>
            </g>
        </g>
    </g>
</svg>