<?xml version="1.0" encoding="UTF-8" standalone="no"?>
<svg width="60px" height="60px" viewBox="0 0 60 60" version="1.1" xmlns="http://www.w3.org/2000/svg" xmlns:xlink="http://www.w3.org/1999/xlink" xmlns:sketch="http://www.bohemiancoding.com/sketch/ns">
    <!-- Generator: Sketch 3.2.1 (9971) - http://www.bohemiancoding.com/sketch -->
    <title>Fill 303</title>
    <desc>Created with Sketch.</desc>
    <defs>
        <linearGradient x1="50%" y1="100%" x2="50%" y2="-2.22044605e-14%" id="linearGradient-1">
            <stop stop-color="#8BC34A" offset="0%"></stop>
            <stop stop-color="#009620" offset="100%"></stop>
        </linearGradient>
    </defs>
    <g id="Page-1" stroke="none" stroke-width="1" fill="none" fill-rule="evenodd" sketch:type="MSPage">
        <g id="PC" sketch:type="MSArtboardGroup" transform="translate(-1010.000000, -2805.000000)" fill="url(#linearGradient-1)">
            <g id="Why" sketch:type="MSLayerGroup" transform="translate(130.000000, 2269.000000)">
                <g id="8" transform="translate(660.000000, 536.000000)" sketch:type="MSShapeGroup">
                    <path d="M262.102295,41.9114754 C259.497705,41.9114754 257.377049,39.7868852 257.377049,37.1803279 C257.377049,34.5737705 259.497705,32.4590164 262.102295,32.4590164 C264.707869,32.4590164 266.828525,34.5737705 266.828525,37.1803279 C266.828525,39.7868852 264.707869,41.9114754 262.102295,41.9114754 Z M262.102295,34.4262295 C260.581639,34.4262295 259.344262,35.6655738 259.344262,37.1803279 C259.344262,38.704918 260.581639,39.9442623 262.102295,39.9442623 C263.623934,39.9442623 264.861311,38.704918 264.861311,37.1803279 C264.861311,35.6655738 263.623934,34.4262295 262.102295,34.4262295 Z M252.972459,43.3180328 C251.604262,43.3180328 250.491803,42.2065574 250.491803,40.8403279 C250.491803,39.4721311 251.604262,38.3606557 252.972459,38.3606557 C254.339672,38.3606557 255.452131,39.4721311 255.452131,40.8403279 C255.452131,42.2065574 254.339672,43.3180328 252.972459,43.3180328 Z M252.972459,40.3278689 C252.68918,40.3278689 252.459016,40.555082 252.459016,40.8403279 C252.459016,41.1147541 252.68918,41.3508197 252.972459,41.3508197 C253.254754,41.3508197 253.484918,41.1147541 253.484918,40.8403279 C253.484918,40.555082 253.254754,40.3278689 252.972459,40.3278689 Z M252.972459,16.7596721 C251.604262,16.7596721 250.491803,15.6491803 250.491803,14.2809836 C250.491803,12.9147541 251.604262,11.8032787 252.972459,11.8032787 C254.339672,11.8032787 255.452131,12.9147541 255.452131,14.2809836 C255.452131,15.6491803 254.339672,16.7596721 252.972459,16.7596721 Z M252.972459,13.7704918 C252.68918,13.7704918 252.459016,13.9957377 252.459016,14.2809836 C252.459016,14.5662295 252.68918,14.792459 252.972459,14.792459 C253.254754,14.792459 253.484918,14.5662295 253.484918,14.2809836 C253.484918,13.9957377 253.254754,13.7704918 252.972459,13.7704918 Z M260.841311,16.7596721 C259.474098,16.7596721 258.360656,15.6491803 258.360656,14.2809836 C258.360656,12.9147541 259.474098,11.8032787 260.841311,11.8032787 C262.208525,11.8032787 263.321967,12.9147541 263.321967,14.2809836 C263.321967,15.6491803 262.208525,16.7596721 260.841311,16.7596721 Z M260.841311,13.7704918 C260.559016,13.7704918 260.327869,13.9957377 260.327869,14.2809836 C260.327869,14.5662295 260.559016,14.792459 260.841311,14.792459 C261.12459,14.792459 261.354754,14.5662295 261.354754,14.2809836 C261.354754,13.9957377 261.12459,13.7704918 260.841311,13.7704918 Z M267.726557,16.7596721 C266.358361,16.7596721 265.245902,15.6491803 265.245902,14.2809836 C265.245902,12.9147541 266.358361,11.8032787 267.726557,11.8032787 C269.09377,11.8032787 270.20623,12.9147541 270.20623,14.2809836 C270.20623,15.6491803 269.09377,16.7596721 267.726557,16.7596721 Z M267.726557,13.7704918 C267.443279,13.7704918 267.213115,13.9957377 267.213115,14.2809836 C267.213115,14.5662295 267.443279,14.792459 267.726557,14.792459 C268.008852,14.792459 268.239016,14.5662295 268.239016,14.2809836 C268.239016,13.9957377 268.008852,13.7704918 267.726557,13.7704918 Z M259.907869,30.4918033 C256.855738,30.4918033 254.141967,28.8590164 252.826885,26.2229508 L254.586557,25.3485246 C255.567213,27.3059016 257.605246,28.5245902 259.907869,28.5245902 C262.223279,28.5245902 264.210164,26.8239344 265.297049,25.2295082 L265.58918,24.8065574 L266.108525,24.8065574 C269.736066,24.8065574 272.728197,23.6360656 274.763279,21.4327869 C276.55541,19.4862295 277.542951,16.8098361 277.542951,13.8885246 C277.542951,7.95737705 273.53082,1.96721311 265.860656,1.96721311 C262.814426,1.96721311 260.431148,3.01967213 258.133443,5.39114754 L257.631803,5.90163934 L256.987541,5.58786885 C254.202951,4.19114754 251.105574,4.15081967 248.266885,5.45901639 C245.419344,6.78688525 243.287869,9.33442623 242.566885,12.2852459 L240.655738,11.8239344 C241.517377,8.29278689 244.053115,5.24262295 247.439672,3.67868852 C250.566557,2.23377049 254.092787,2.18360656 257.221639,3.52131148 C259.747541,1.12131148 262.509508,0 265.860656,0 C274.726885,0 279.510164,7.15180328 279.510164,13.8885246 C279.510164,17.3016393 278.337705,20.4491803 276.20918,22.7606557 C273.89082,25.2786885 270.582951,26.6567213 266.618033,26.7639344 C264.856393,29.104918 262.379672,30.4918033 259.907869,30.4918033 Z M258.360656,59.3606557 L220.983607,59.3606557 C220.440656,59.3606557 220,58.9180328 220,58.3770492 L220,52.4754098 C220,51.9540984 220,50.9813115 225.033115,48.1091803 C227.705574,46.5845902 230.922951,45.0393443 233.770492,43.9288525 L233.770492,40.2688525 C232.85377,39.6491803 231.349836,38.0754098 231.178689,34.2993443 C230.156721,33.7081967 229.572459,32.2131148 229.572459,30.7681967 C229.572459,29.9704918 229.754426,29.2721311 230.098689,28.7311475 C230.305246,28.4163934 230.565902,28.1606557 230.867869,27.9737705 L230.862951,27.9639344 C230.170492,26.3311475 229.122951,23.8622951 230.124262,22.347541 C230.466557,21.8262295 231.221967,21.2065574 232.737705,21.3245902 C234.01541,18.6688525 237.774754,17.704918 240.827869,17.704918 C244.184918,17.704918 248.398689,18.8754098 249.222951,22.1704918 C249.82,24.5606557 248.957377,26.7245902 248.397705,27.9934426 C248.676066,28.1803279 248.916066,28.4262295 249.107869,28.7311475 C249.439344,29.252459 249.614426,29.9518033 249.614426,30.7278689 C249.614426,32.1934426 249.025246,33.6983607 247.997377,34.2993443 C247.84,38.0852459 246.44918,39.6491803 245.57377,40.2590164 L245.57377,43.9377049 C248.477377,45.1377049 251.687869,46.6819672 254.283607,48.1485246 C259.344262,51 259.344262,51.9245902 259.344262,52.4754098 L259.344262,58.3770492 C259.344262,58.9180328 258.90459,59.3606557 258.360656,59.3606557 Z M221.967213,57.3934426 L257.377049,57.3934426 L257.377049,52.6327869 C256.61377,51.5704918 250.619672,48.0786885 244.225246,45.5222951 C243.851475,45.364918 243.606557,45.0098361 243.606557,44.6065574 L243.606557,39.6885246 C243.606557,39.2567213 243.882951,38.8829508 244.290164,38.7540984 C244.284262,38.7540984 246.044918,37.9672131 246.044918,33.5704918 C246.044918,33.0304918 246.485574,32.5868852 247.028525,32.5868852 C247.268525,32.4895082 247.806557,31.3180328 247.604918,30.2360656 C247.484918,29.5967213 247.230164,29.5967213 247.108197,29.5967213 C246.565246,29.5967213 246.12459,29.1540984 246.12459,28.6131148 C246.12459,28.2688525 246.265246,27.9540984 246.498361,27.4327869 C246.979344,26.3508197 247.784918,24.5311475 247.31377,22.6534426 C246.803279,20.607541 243.59377,19.6721311 240.827869,19.6721311 C238.060984,19.6721311 234.851475,20.607541 234.34,22.6534426 C234.212131,23.1639344 233.703607,23.4796721 233.18918,23.3704918 C232.873443,23.312459 232.594098,23.2731148 232.360984,23.2731148 C232.245902,23.2731148 231.861311,23.2918033 231.763934,23.4295082 C231.346885,24.0688525 232.34623,26.4206557 232.674754,27.1967213 C232.998361,27.9540984 233.12918,28.2786885 233.12918,28.6131148 C233.12918,28.8688525 233.024918,29.1255738 232.840984,29.3016393 C232.656066,29.4885246 232.40623,29.5967213 232.145574,29.5967213 C232.003934,29.5967213 231.709836,29.5967213 231.581967,30.2763934 C231.379344,31.357377 231.901639,32.4895082 232.171148,32.5868852 C232.714098,32.5868852 233.12918,33.0304918 233.12918,33.5704918 C233.12918,37.9780328 235.017705,38.7344262 235.036393,38.7442623 C235.452459,38.8721311 235.737705,39.2567213 235.737705,39.6885246 L235.737705,44.6065574 C235.737705,45.0098361 235.483934,45.3836066 235.101311,45.5222951 C229.000984,47.8239344 222.747213,51.4918033 221.967213,52.6229508 L221.967213,57.3934426 Z" id="Fill-303"></path>
                </g>
            </g>
        </g>
    </g>
</svg>