<?xml version="1.0" encoding="UTF-8" standalone="no"?>
<svg width="36px" height="60px" viewBox="0 0 36 60" version="1.1" xmlns="http://www.w3.org/2000/svg" xmlns:xlink="http://www.w3.org/1999/xlink" xmlns:sketch="http://www.bohemiancoding.com/sketch/ns">
    <!-- Generator: Sketch 3.2.1 (9971) - http://www.bohemiancoding.com/sketch -->
    <title>Phone icon</title>
    <desc>Created with Sketch.</desc>
    <defs>
        <linearGradient x1="50%" y1="100%" x2="50%" y2="-2.22044605e-14%" id="linearGradient-1">
            <stop stop-color="#8BC34A" offset="0%"></stop>
            <stop stop-color="#009620" offset="100%"></stop>
        </linearGradient>
    </defs>
    <g id="Page-1" stroke="none" stroke-width="1" fill="none" fill-rule="evenodd" sketch:type="MSPage">
        <g id="PC" sketch:type="MSArtboardGroup" transform="translate(-342.000000, -1116.000000)" fill="url(#linearGradient-1)">
            <g id="What" sketch:type="MSLayerGroup" transform="translate(0.000000, 752.000000)">
                <g id="Projects" transform="translate(129.000000, 311.000000)" sketch:type="MSShapeGroup">
                    <g id="МОБИЛЬНЫМ--+-Phone-icon" transform="translate(161.000000, 53.000000)">
                        <path d="M54,48 L54,12.001 L54,12.001 L86,12.001 L86,48 L54,48 L54,48 Z M54,49.999 L54,54 C54,56.199 55.79,57.999 58,57.999 L82,57.999 C84.21,57.999 86,56.199 86,54 L86,49.999 L54,49.999 L54,49.999 Z M54,10 L54,6 C54,3.789 55.79,1.999 58,1.999 L82,1.999 C84.21,1.999 86,3.789 86,6 L86,10 L54,10 L54,10 Z M82,60 L58,60 C54.69,60 52,57.31 52,54 L52,6 C52,2.689 54.69,0 58,0 L82,0 C85.31,0 88,2.689 88,6 L88,54 C88,57.31 85.31,60 82,60 Z M77,7.999 L63,7.999 C62.45,7.999 62,7.549 62,6.999 C62,6.449 62.45,6 63,6 L77,6 C77.55,6 78,6.449 78,6.999 C78,7.549 77.55,7.999 77,7.999 Z M70,57 C68.35,57 67,55.649 67,54 C67,52.339 68.35,51 70,51 C71.65,51 73,52.339 73,54 C73,55.649 71.65,57 70,57 Z M70,52.999 C69.45,52.999 69,53.449 69,54 C69,54.549 69.45,54.999 70,54.999 C70.55,54.999 71,54.549 71,54 C71,53.449 70.55,52.999 70,52.999 Z" id="Phone-icon"></path>
                    </g>
                </g>
            </g>
        </g>
    </g>
</svg>