<?xml version="1.0" encoding="UTF-8" standalone="no"?>
<svg width="60px" height="60px" viewBox="0 0 60 60" version="1.1" xmlns="http://www.w3.org/2000/svg" xmlns:xlink="http://www.w3.org/1999/xlink" xmlns:sketch="http://www.bohemiancoding.com/sketch/ns">
    <!-- Generator: Sketch 3.2.1 (9971) - http://www.bohemiancoding.com/sketch -->
    <title>Settings icon</title>
    <desc>Created with Sketch.</desc>
    <defs>
        <linearGradient x1="50%" y1="100%" x2="50%" y2="-2.22044605e-14%" id="linearGradient-1">
            <stop stop-color="#8BC34A" offset="0%"></stop>
            <stop stop-color="#009620" offset="100%"></stop>
        </linearGradient>
    </defs>
    <g id="Page-1" stroke="none" stroke-width="1" fill="none" fill-rule="evenodd" sketch:type="MSPage">
        <g id="PC" sketch:type="MSArtboardGroup" transform="translate(-130.000000, -2685.000000)" fill="url(#linearGradient-1)">
            <g id="Why" sketch:type="MSLayerGroup" transform="translate(130.000000, 2269.000000)">
                <g id="3" transform="translate(0.000000, 414.000000)" sketch:type="MSShapeGroup">
                    <path d="M34.4272131,62 L24.5901639,62 C24.0472131,62 23.6065574,61.6 23.6065574,61 L23.6065574,53.5 C23.2632787,53.401 22.8186885,53.2 22.3583607,53 C21.2163934,52.6 19.8432787,52.1 18.7121311,51.6 L13.5413115,56.8 C13.1734426,57.201 12.5203279,57.201 12.1504918,56.8 L5.13245902,49.701 C4.94852459,49.5 4.8442623,49.201 4.8442623,49 C4.8442623,48.7 4.94852459,48.5 5.13245902,48.3 L10.3042623,43 C9.39836066,41.2 8.61344262,38.6 8.18754098,36 L0.983606557,36 C0.440655738,36 0,35.6 0,35 L0,27 C0,26.5 0.440655738,26 0.983606557,26 L8.28786885,26 C8.7,24.7 9.47114754,22.6 10.2993443,21.1 L5.13442623,15.8 C4.74983607,15.401 4.74983607,14.8 5.13442623,14.401 L12.1504918,7.3 C12.5340984,6.901 13.1567213,6.901 13.5413115,7.3 L18.7062295,12.5 C20.275082,11.6 22.2757377,10.901 23.6065574,10.5 L23.6065574,3 C23.6065574,2.5 24.0472131,2 24.5901639,2 L34.4272131,2 C34.9681967,2 35.4108197,2.5 35.4108197,3 L35.4108197,10.5 C36.7190164,10.8 38.755082,11.701 40.3091803,12.5 L45.4731148,7.3 C45.8567213,6.901 46.4763934,6.901 46.86,7.3 L53.8829508,14.401 C54.0698361,14.6 54.1681967,14.8 54.1681967,15.1 C54.1681967,15.401 54.0698361,15.6 53.8829508,15.8 L48.7190164,21 C49.555082,22.6 50.2534426,24.3 50.7354098,26 L58.0337705,26 C58.5747541,26 59.017377,26.5 59.017377,27 L59.017377,35 C59.017377,35.6 58.5747541,36 58.0337705,36 L50.8534426,36 C50.3714754,39.901 49.6436066,41.5 48.7288525,43 L53.8829508,48.3 C54.2665574,48.7 54.2665574,49.3 53.8829508,49.701 L46.8698361,56.8 C46.4862295,57.201 45.8567213,57.201 45.4731148,56.8 L40.2993443,51.6 C39.1681967,52.1 37.8009836,52.6 36.66,53 C36.1977049,53.2 35.755082,53.401 35.4108197,53.5 L35.4108197,61 C35.4108197,61.6 34.9681967,62 34.4272131,62 Z M25.5737705,60 L33.4436066,60 L33.4436066,52.901 C33.4436066,52.5 33.6403279,52.201 33.955082,52 C34.3878689,51.7 35.1059016,51.5 36.0108197,51.201 C37.3091803,50.701 38.9222951,50.1 39.964918,49.5 C40.3485246,49.201 40.8501639,49.3 41.164918,49.6 L46.1714754,54.7 L51.7977049,49 L46.7911475,43.901 C46.4763934,43.6 46.417377,43.1 46.6534426,42.7 L46.7321311,42.5 C47.764918,40.8 48.5222951,39.6 49.0042623,34.901 C49.0534426,34.4 49.4763934,34 49.9780328,34 L57.0501639,34 L57.0501639,28 L49.9780328,28 C49.5255738,28 49.1321311,27.7 49.0239344,27.3 C48.5321311,25.201 47.6862295,23.1 46.6534426,21.401 C46.417377,21 46.4763934,20.5 46.7911475,20.2 L51.7977049,15.1 L46.1714754,9.401 L41.164918,14.5 C40.8501639,14.8 40.3485246,14.8 39.964918,14.6 C38.1944262,13.5 35.1944262,12.401 34.2403279,12.201 C33.7780328,12.1 33.4436066,11.701 33.4436066,11.2 L33.4436066,4 L25.5737705,4 L25.5737705,11.2 C25.5737705,11.701 25.2511475,12.1 24.7986885,12.201 C23.6183607,12.5 20.792459,13.5 19.0554098,14.6 C18.6688525,14.9 18.1691803,14.8 17.847541,14.5 L12.8459016,9.401 L7.22065574,15.1 L12.2203279,20.2 C12.5419672,20.5 12.6009836,21 12.364918,21.401 C11.2878689,23.2 10.2619672,26.1 9.9904918,27.3 C9.88327869,27.7 9.48786885,28 9.03442623,28 L1.96721311,28 L1.96721311,34 L9.03442623,34 C9.52721311,34 9.94327869,34.4 10.0091803,34.901 C10.3986885,37.8 11.344918,41 12.364918,42.7 C12.6009836,43.1 12.5419672,43.6 12.2203279,43.901 L7.21967213,49 L12.844918,54.7 L17.8445902,49.6 C18.1662295,49.3 18.6668852,49.201 19.0534426,49.5 C20.0970492,50.1 21.7131148,50.701 23.0104918,51.201 C23.9134426,51.5 24.6255738,51.7 25.0613115,52 C25.3780328,52.201 25.5737705,52.5 25.5737705,52.901 L25.5737705,60 Z M29.5081967,44 C23.0006557,44 17.704918,38.701 17.704918,32 C17.704918,25.4 23.0006557,20 29.5081967,20 C36.0206557,20 41.312459,25.4 41.312459,32 C41.312459,38.701 36.0206557,44 29.5081967,44 Z M29.5081967,22 C24.0845902,22 19.6721311,26.5 19.6721311,32 C19.6721311,37.6 24.0845902,42 29.5081967,42 C34.9288525,42 39.3452459,37.6 39.3452459,32 C39.3452459,26.5 34.9288525,22 29.5081967,22 Z" id="Settings-icon"></path>
                </g>
            </g>
        </g>
    </g>
</svg>