<?xml version="1.0" encoding="UTF-8" standalone="no"?>
<svg width="60px" height="60px" viewBox="0 0 60 60" version="1.1" xmlns="http://www.w3.org/2000/svg" xmlns:xlink="http://www.w3.org/1999/xlink" xmlns:sketch="http://www.bohemiancoding.com/sketch/ns">
    <!-- Generator: Sketch 3.2.1 (9971) - http://www.bohemiancoding.com/sketch -->
    <title>Sofa icon</title>
    <desc>Created with Sketch.</desc>
    <defs>
        <linearGradient x1="50%" y1="100%" x2="50%" y2="-2.22044605e-14%" id="linearGradient-1">
            <stop stop-color="#8BC34A" offset="0%"></stop>
            <stop stop-color="#009620" offset="100%"></stop>
        </linearGradient>
    </defs>
    <g id="Page-1" stroke="none" stroke-width="1" fill="none" fill-rule="evenodd" sketch:type="MSPage">
        <g id="PC" sketch:type="MSArtboardGroup" transform="translate(-130.000000, -2805.000000)" fill="url(#linearGradient-1)">
            <g id="Why" sketch:type="MSLayerGroup" transform="translate(130.000000, 2269.000000)">
                <g id="4" transform="translate(0.000000, 536.000000)" sketch:type="MSShapeGroup">
                    <path d="M25.4177032,19.9977032 C26.1903492,18.2333362 27.9520195,17 30,17 C32.0493261,17 33.8119656,18.2349574 34.5838185,20.0011815 L34.5838185,20.0011815 L36.2925,18.2925 C36.6825,17.9025 37.3225,17.9025 37.7125,18.2925 C38.1025,18.6835 38.1025,19.3125 37.7125,19.7125 L35.4125,22.0035 L37.7125,24.2925 C38.1025,24.6835 38.1025,25.3125 37.7125,25.7125 C37.5125,25.9025 37.2625,26.0025 37.0025,26.0025 C36.7425,26.0025 36.4925,25.9025 36.2925,25.7125 L34.5814271,24.0014271 C33.8083294,25.7630868 32.0472124,27.001 30,27.001 C27.9541335,27.001 26.1939864,25.764714 25.420099,24.004901 L23.7125,25.7125 C23.5125,25.9025 23.2625,26.0025 23.0025,26.0025 C22.7425,26.0025 22.4925,25.9025 22.2925,25.7125 C21.9025,25.3125 21.9025,24.6835 22.2925,24.2925 L24.5925,22.0035 L22.2925,19.7125 C21.9025,19.3125 21.9025,18.6835 22.2925,18.2925 C22.6825,17.9025 23.3225,17.9025 23.7125,18.2925 L25.4177032,19.9977032 Z M27.0012783,21.9125793 C27.0481743,20.2927372 28.3793817,19.001 30,19.001 C31.65,19.001 33,20.34 33,22.001 C33,23.65 31.65,25.001 30,25.001 C28.3786145,25.001 27.046914,23.6964522 27.0012126,22.0865172 C27.0062405,22.0285948 27.0062624,21.9703891 27.0012783,21.9125793 Z M49.2251172,31.2573637 C50.6535878,30.4586035 52.2847294,30 54,30 C57.66,30 60,33.549 60,36 C60,38.599 58.51,41.04 56.38,41.919 L56.01,42.069 C54.76,42.569 54,42.95 54,43.999 L54,49 C54,54.469 50.86,58 46,58 L46,59 C46,59.55 45.55,60.001 45,60.001 C44.45,60.001 44,59.55 44,59 L44,58 L16,58 L16,59 C16,59.55 15.55,60.001 15,60.001 C14.45,60.001 14,59.55 14,59 L14,58 L14,58 C9.14,58 6,54.469 6,49 L6,43.999 C6,42.95 5.24,42.569 3.98,42.069 L3.62,41.919 C1.49,41.04 0,38.599 0,36 C0,33.549 2.34,30 6,30 C7.87918483,30 9.6573933,30.5504414 11.1787483,31.4955721 L9.19422295,18.149 C8.48422295,13.54 9.73422295,9.089 12.7242229,5.609 C15.7842229,2.04 20.3242229,0 25.1842229,0 L35.1842229,0 C40.0442229,0 44.5842229,2.04 47.6442229,5.609 C50.6242229,9.089 51.8842229,13.54 51.1742229,18.149 L49.2251172,31.2573637 L49.2251172,31.2573637 Z M46.9442563,32.9904408 C45.13527,34.8107938 44,37.3010413 44,40 L44,42.379 C41.93,41.539 37.64,40.35 30,40.35 C22.36,40.35 18.07,41.539 16,42.379 L16,40 C16,37.5260604 15.0461395,35.2274811 13.4938867,33.4594452 L11.1742229,17.85 C10.5542229,13.819 11.6442229,9.939 14.2342229,6.909 C16.9142229,3.79 20.9042229,1.999 25.1842229,1.999 L35.1842229,1.999 C39.4542229,1.999 43.4442229,3.79 46.1242229,6.909 C48.7242229,9.939 49.8142229,13.819 49.1942229,17.85 L46.9442563,32.9904408 L46.9442563,32.9904408 Z M48.8095956,33.9651877 C50.2178663,32.7460137 52.0395574,31.999 54,31.999 C56.48,31.999 58,34.589 58,36 C58,37.789 57,39.499 55.62,40.069 L55.28,40.209 C54.05,40.7 52,41.509 52,43.999 L52,49 C52,53.319 49.7,55.999 46,55.999 L14,55.999 C10.3,55.999 8,53.319 8,49 L8,43.999 C8,41.509 5.95,40.7 4.72,40.209 L4.38,40.069 C3,39.499 2,37.789 2,36 C2,34.589 3.52,31.999 6,31.999 C10.34,31.999 14,35.66 14,40 L14.01,45.909 L15.58,44.809 C15.61,44.79 19.25,42.349 30,42.349 C40.75,42.349 44.39,44.79 44.41,44.809 L46,45.959 L46,40 C46,37.9625177 46.8066578,36.0746858 48.1116342,34.6450504 C48.4381108,34.5558432 48.7040429,34.3021375 48.8095956,33.9651877 L48.8095956,33.9651877 Z" id="Sofa-icon"></path>
                </g>
            </g>
        </g>
    </g>
</svg>