<?xml version="1.0" encoding="UTF-8" standalone="no"?>
<svg width="52px" height="60px" viewBox="0 0 52 60" version="1.1" xmlns="http://www.w3.org/2000/svg" xmlns:xlink="http://www.w3.org/1999/xlink" xmlns:sketch="http://www.bohemiancoding.com/sketch/ns">
    <!-- Generator: Sketch 3.2.1 (9971) - http://www.bohemiancoding.com/sketch -->
    <title>Stample icon</title>
    <desc>Created with Sketch.</desc>
    <defs>
        <linearGradient x1="50%" y1="100%" x2="50%" y2="-2.22044605e-14%" id="linearGradient-1">
            <stop stop-color="#8BC34A" offset="0%"></stop>
            <stop stop-color="#009620" offset="100%"></stop>
        </linearGradient>
    </defs>
    <g id="Page-1" stroke="none" stroke-width="1" fill="none" fill-rule="evenodd" sketch:type="MSPage">
        <g id="PC" sketch:type="MSArtboardGroup" transform="translate(-974.000000, -1115.000000)" fill="url(#linearGradient-1)">
            <g id="What" sketch:type="MSLayerGroup" transform="translate(0.000000, 752.000000)">
                <g id="Projects" transform="translate(129.000000, 311.000000)" sketch:type="MSShapeGroup">
                    <g id="ДР.-ЦИФРОВЫМ-ПРОЕКТА-+-Stample-icon" transform="translate(801.000000, 52.000000)">
                        <path d="M71.1572115,2.40780677 L59.8025,13.5870492 C55.1408518,18.1623287 54.7653898,25.3910605 58.6761139,30.402183 L54.2925,34.7139344 C53.9025,35.0985246 53.9025,35.7181967 54.2925,36.1106557 L56.57125,38.3520492 L45.77,48.9762295 C43.41,51.297541 43.41,54.9378689 45.77,57.2581967 C48.13,59.5706557 51.83,59.5706557 54.19,57.2581967 L62.19,49.3795082 C63.25,48.3368852 64.71,48.3368852 65.77,49.3893443 C66.86,50.4516393 66.86,51.8385246 65.77,52.9106557 L60.77,57.8286885 C60.38,58.2132787 60.38,58.8329508 60.77,59.2254098 C60.97,59.4122951 61.22,59.5116393 61.48,59.5116393 C61.74,59.5116393 61.99,59.4122951 62.19,59.2254098 L67.19,54.307377 C69.04,52.4788525 69.04,49.8221311 67.19,47.992623 C65.38,46.2132787 62.58,46.2132787 60.77,47.992623 L52.77,55.8614754 C51.21,57.4057377 48.75,57.4057377 47.19,55.8614754 C45.59,54.297541 45.59,51.9368852 47.19,50.3729508 L57.99125,39.7487705 L57.99125,39.7487705 L59.2925,41.0286885 C59.4925,41.2155738 59.7425,41.314918 60.0025,41.314918 C60.2625,41.314918 60.5125,41.2155738 60.7125,41.0286885 L65.0936374,36.719373 L65.0936374,36.719373 C67.418925,38.4823656 70.2207125,39.367377 73.0225,39.367377 C76.3525,39.367377 79.6825,38.1172131 82.2125,35.6286885 L93.7325,24.307377 C94.0148647,24.023232 94.092794,23.6199832 93.9662877,23.2730822 C94.0630367,22.9480326 93.9784408,22.5867414 93.7125,22.3317387 L89.6607842,18.4566057 L95.7125,12.5040984 C96.1025,12.1116393 96.1025,11.4919672 95.7125,11.107377 C95.3225,10.7237705 94.6825,10.7237705 94.2925,11.107377 L88.2208834,17.0794589 L78.506623,7.78856756 L84.7125,1.68442623 C85.1025,1.29098361 85.1025,0.672295082 84.7125,0.287704918 C84.3225,-0.0959016393 83.6825,-0.0959016393 83.2925,0.287704918 L77.0667222,6.41142082 L72.8085321,2.3388121 C72.7850917,2.30980502 72.7597477,2.28178778 72.7325,2.25491803 C72.5349934,2.06064923 72.2733696,1.96476344 72.0125701,1.96726065 C71.7517241,1.96479775 71.490042,2.05803264 71.2925,2.24696532 C71.2404598,2.29686513 71.1953636,2.35083495 71.1572115,2.40780677 L71.1572115,2.40780677 Z M72.0462886,4.32601543 L61.2125,14.9729508 C56.9225,19.1936066 56.9225,26.0581967 61.2125,30.2778689 L65.2425,34.2427869 C69.5325,38.4516393 76.5125,38.4516393 80.8025,34.2427869 L91.9011969,23.3156028 L88.0903332,19.6708249 C88.0612222,19.6733303 88.0319251,19.6745902 88.0025,19.6745902 C87.7425,19.6745902 87.4925,19.5762295 87.2925,19.3893443 C87.0825228,19.1775136 86.985598,18.9003891 87.0017255,18.6296612 L76.7488421,8.82362112 C76.5823434,8.78047066 76.4262423,8.69464448 76.2925,8.56967213 C76.1696874,8.44608519 76.085549,8.29996676 76.0400848,8.14575307 L72.0462886,4.32601543 L72.0462886,4.32601543 Z M63.5975,35.397541 L60.0025,38.9336066 L56.4125,35.4132787 L60.0167719,31.8755134 L63.5975,35.397541 L63.5975,35.397541 Z M71,29.5091803 C68.24,29.5091803 66,27.2960656 66,24.5901639 C66,21.8744262 68.24,19.6721311 71,19.6721311 C73.76,19.6721311 76,21.8744262 76,24.5901639 C76,27.2960656 73.76,29.5091803 71,29.5091803 Z M71,21.6393443 C69.35,21.6393443 68,22.957377 68,24.5901639 C68,26.2131148 69.35,27.5409836 71,27.5409836 C72.65,27.5409836 74,26.2131148 74,24.5901639 C74,22.957377 72.65,21.6393443 71,21.6393443 Z M86.0025,24.592623 C85.7425,24.592623 85.4925,24.4932787 85.2925,24.307377 L71.2925,10.5368852 C70.9025,10.1434426 70.9025,9.5247541 71.2925,9.14016393 C71.6825,8.75655738 72.3225,8.75655738 72.7125,9.14016393 L86.7125,22.9106557 C87.1025,23.2952459 87.1025,23.914918 86.7125,24.307377 C86.5125,24.4932787 86.2625,24.592623 86.0025,24.592623 Z" id="Stample-icon"></path>
                    </g>
                </g>
            </g>
        </g>
    </g>
</svg>