<?xml version="1.0" encoding="UTF-8" standalone="no"?>
<svg width="60px" height="60px" viewBox="0 0 60 60" version="1.1" xmlns="http://www.w3.org/2000/svg" xmlns:xlink="http://www.w3.org/1999/xlink" xmlns:sketch="http://www.bohemiancoding.com/sketch/ns">
    <!-- Generator: Sketch 3.2.1 (9971) - http://www.bohemiancoding.com/sketch -->
    <title>Step icon</title>
    <desc>Created with Sketch.</desc>
    <defs>
        <linearGradient x1="50%" y1="1.41638472e-14%" x2="50%" y2="100%" id="linearGradient-1">
            <stop stop-color="#4A81FF" offset="0%"></stop>
            <stop stop-color="#3CC4FF" offset="100%"></stop>
        </linearGradient>
    </defs>
    <g id="Page-1" stroke="none" stroke-width="1" fill="none" fill-rule="evenodd" sketch:type="MSPage">
        <g id="PC" sketch:type="MSArtboardGroup" transform="translate(-325.000000, -2031.000000)" fill="url(#linearGradient-1)">
            <g id="What" sketch:type="MSLayerGroup" transform="translate(0.000000, 752.000000)">
                <g id="Devs" transform="translate(130.000000, 1279.000000)" sketch:type="MSShapeGroup">
                    <path d="M219.559908,2.51061897 L218.72459,1.68098361 C217.780328,0.737704918 216,0 214.672131,0 L213.688525,0 C212.065574,0 210.737705,1.31704918 210.737705,2.95081967 L210.737705,13.77 L210.737705,13.77 L208.790318,13.77 C208.446055,13.77 208.121465,13.9470492 207.944416,14.2509836 L195.239926,35.7508888 L195.239926,35.7508888 C195.090603,35.9232766 195,36.1477002 195,36.392459 L195,42.2940984 C195,42.835082 195.442623,43.2786885 195.983607,43.2786885 L223.52459,43.2786885 L223.52459,57.0491803 L219.590164,57.0491803 C219.04918,57.0491803 218.606557,57.4918033 218.606557,58.0337705 C218.606557,58.5737705 219.04918,59.017377 219.590164,59.017377 L229.42623,59.017377 C229.967213,59.017377 230.409836,58.5737705 230.409836,58.0337705 C230.409836,57.4918033 229.967213,57.0491803 229.42623,57.0491803 L225.491803,57.0491803 L225.491803,43.2786885 L253.032787,43.2786885 C253.57377,43.2786885 254.016393,42.835082 254.016393,42.2940984 L254.016393,36.6674978 C254.042094,36.5799601 254.055891,36.4874814 254.055891,36.3919672 C254.055891,36.1568852 253.967367,35.9395082 253.829662,35.762459 L242.114908,14.2814754 C241.937859,13.9657377 241.613268,13.77 241.249334,13.77 L212.704918,13.77 L212.704918,2.95081967 C212.704918,2.40885246 213.147541,1.96721311 213.688525,1.96721311 L214.672131,1.96721311 C215.488525,1.96721311 216.757377,2.48754098 217.337705,3.06786885 L218.166854,3.90326475 C217.821227,4.48876911 217.622951,5.17183201 217.622951,5.90163934 C217.622951,8.06459016 219.383607,9.83508197 221.557377,9.83508197 C223.731148,9.83508197 225.491803,8.06459016 225.491803,5.90163934 C225.491803,3.72688525 223.731148,1.96721311 221.557377,1.96721311 C220.828094,1.96721311 220.14531,2.16527288 219.559908,2.51061897 L219.559908,2.51061897 Z M212.704918,15.7367213 L240.649283,15.7367213 L251.370594,35.4098361 L197.70502,35.4098361 L209.33125,15.7367213 L210.737705,15.7367213 L210.737705,18.687541 C210.737705,19.2285246 211.180328,19.6721311 211.721311,19.6721311 C212.262295,19.6721311 212.704918,19.2285246 212.704918,18.687541 L212.704918,15.7367213 L212.704918,15.7367213 Z M196.967213,41.3114754 L252.04918,41.3114754 L252.04918,37.3770492 L196.967213,37.3770492 L196.967213,41.3114754 Z M243.218944,31.4754098 L215.658288,31.4754098 C215.35337,31.4754098 215.068124,31.3367213 214.881239,31.0908197 C214.694354,30.8547541 214.625501,30.54 214.70419,30.2557377 L217.655009,18.452459 C217.763206,18.0088525 218.156649,17.704918 218.609108,17.704918 L238.281239,17.704918 C238.674682,17.704918 239.038616,17.94 239.186157,18.3039344 L244.035337,29.94 C244.143534,30.0983607 244.20255,30.2842623 244.20255,30.4908197 C244.20255,31.0318033 243.759927,31.4754098 243.218944,31.4754098 Z M216.917305,29.5081967 L241.723862,29.5081967 L237.622223,19.6721311 L219.376321,19.6721311 L216.917305,29.5081967 Z M223.52459,5.90163934 C223.52459,6.98360656 222.639344,7.86885246 221.557377,7.86885246 C220.47541,7.86885246 219.590164,6.98360656 219.590164,5.90163934 C219.590164,4.81770492 220.47541,3.93344262 221.557377,3.93344262 C222.639344,3.93344262 223.52459,4.81770492 223.52459,5.90163934 Z" id="Step-icon"></path>
                </g>
            </g>
        </g>
    </g>
</svg>