<?xml version="1.0" encoding="UTF-8" standalone="no"?>
<svg width="60px" height="53px" viewBox="0 0 60 53" version="1.1" xmlns="http://www.w3.org/2000/svg" xmlns:xlink="http://www.w3.org/1999/xlink" xmlns:sketch="http://www.bohemiancoding.com/sketch/ns">
    <!-- Generator: Sketch 3.2.1 (9971) - http://www.bohemiancoding.com/sketch -->
    <title>Store icon</title>
    <desc>Created with Sketch.</desc>
    <defs>
        <linearGradient x1="50%" y1="100%" x2="50%" y2="-2.22044605e-14%" id="linearGradient-1">
            <stop stop-color="#8BC34A" offset="0%"></stop>
            <stop stop-color="#009620" offset="100%"></stop>
        </linearGradient>
    </defs>
    <g id="Page-1" stroke="none" stroke-width="1" fill="none" fill-rule="evenodd" sketch:type="MSPage">
        <g id="PC" sketch:type="MSArtboardGroup" transform="translate(-170.000000, -1119.000000)" fill="url(#linearGradient-1)">
            <g id="What" sketch:type="MSLayerGroup" transform="translate(0.000000, 752.000000)">
                <g id="Projects" transform="translate(129.000000, 311.000000)" sketch:type="MSShapeGroup">
                    <g id="ИНТЕРНЕТ-+-Store-icon" transform="translate(1.000000, 56.000000)">
                        <path d="M82.9695432,10.039 L69.5377049,10.039 L69.5377049,10.039 L69.5377049,2.038 L80.6072357,2.038 L82.9695432,10.039 L82.9695432,10.039 Z M85.0256932,10.039 L96.3213115,10.039 L91.6,2.038 L82.6649784,2.038 L85.0256932,10.039 L85.0256932,10.039 Z M83.3081967,12.038 L69.5377049,12.038 L69.5377049,12.038 L69.5377049,19.6432686 C71.0377522,21.1695294 73.5189694,22.039 76.4229508,22.039 C79.6696372,22.039 81.8011669,21.0167577 83.3081967,18.7364606 L83.3081967,12.038 L83.3081967,12.038 Z M85.2754098,12.038 L97.0786885,12.038 L97.0786885,13.039 C97.0786885,16.637 93.7344262,20.038 90.1934426,20.038 C88.5798465,20.038 86.5067445,19.5895224 85.2754098,18.594715 L85.2754098,12.038 L85.2754098,12.038 Z M81.3275455,0.038 L57.744367,0.038 L57.7443652,0.038 C57.737226,0.0379220859 57.7300978,0.0379222829 57.7229798,0.038 L46.9147541,0.038 C46.5704918,0.038 46.2459016,0.223 46.0688525,0.524 L40.1672131,10.523 C40.1046207,10.6329481 40.0629274,10.7518952 40.0430022,10.8736108 C40.0363383,10.9128367 40.0320563,10.9542663 40.0303501,10.9963704 C40.0295141,11.0158462 40.0292323,11.0353393 40.0295082,11.0548249 L40.0295082,13.039 C40.0295082,17.3068932 42.4983258,20.7924783 45.9311475,21.7669151 L45.9311475,21.7669151 L45.9311475,51.038 C45.9311475,51.59 46.3737705,52.039 46.9147541,52.039 L92.1606557,52.039 C92.7016393,52.039 93.1442623,51.59 93.1442623,51.038 L93.1442623,21.4596959 C96.4754111,20.1350446 99.0459016,16.7143385 99.0459016,13.039 L99.0459016,11.0548249 C99.0461775,11.0353393 99.0458957,11.0158462 99.0450597,10.9963704 C99.0433535,10.9542663 99.0390715,10.9128367 99.0323711,10.8722382 C99.0124825,10.7518952 98.9707891,10.6329481 98.9081967,10.523 L93.0065574,0.524 C92.8295082,0.223 92.504918,0.038 92.1606557,0.038 L81.348781,0.038 C81.3417109,0.0379222829 81.3346332,0.0379220859 81.3275473,0.038 L81.3275455,0.038 Z M67.5704918,10.039 L56.1058666,10.039 L58.4681742,2.038 L67.5704918,2.038 L67.5704918,10.039 L67.5704918,10.039 Z M67.5704918,12.038 L55.7672131,12.038 L55.7672131,12.038 L55.7672131,18.7413004 C57.3922281,21.2916796 58.7565392,22.039 61.6688525,22.039 C64.2279958,22.039 66.0155503,21.3221762 67.5704918,19.6530777 L67.5704918,12.038 L67.5704918,12.038 Z M54.0497167,10.039 L42.7540984,10.039 L47.4754098,2.038 L56.4104314,2.038 L54.0497167,10.039 L54.0497167,10.039 Z M53.8,12.038 L41.9967213,12.038 L41.9967213,13.039 C41.9967213,16.479 44.2,20.038 47.8983607,20.038 C49.8573081,20.038 52.5950673,19.446683 53.8,18.5717351 L53.8,12.038 Z M47.8983607,22.039 L47.8983607,50.038 L75.4393443,50.038 L75.4393443,50.038 L75.4393443,29.038 C75.4393443,28.486 75.8819672,28.039 76.4229508,28.039 L88.2262295,28.039 C88.7672131,28.039 89.2098361,28.486 89.2098361,29.038 L89.2098361,50.038 L91.1770492,50.038 L91.1770492,21.9749181 C90.8522027,22.0171709 90.5238735,22.039 90.1934426,22.039 C88.5213115,22.039 86.1901639,21.617 84.4885246,20.481 C82.6393443,22.873 79.9934426,24.038 76.4229508,24.038 C73.2459016,24.038 70.452459,23.109 68.5737705,21.461 C66.7344262,23.236 64.5606557,24.038 61.6688525,24.038 C57.9803279,24.038 56.1311475,22.742 54.5377049,20.467 C52.6393443,21.598 49.6295082,22.039 47.8983607,22.039 L47.8983607,22.039 Z M70.5213115,44.038 L50.8491803,44.038 C50.3081967,44.038 49.8655738,43.59 49.8655738,43.039 L49.8655738,29.038 C49.8655738,28.486 50.3081967,28.039 50.8491803,28.039 L70.5213115,28.039 C71.0622951,28.039 71.504918,28.486 71.504918,29.038 L71.504918,43.039 C71.504918,43.59 71.0622951,44.038 70.5213115,44.038 Z M51.8327869,42.038 L69.5377049,42.038 L69.5377049,30.038 L51.8327869,30.038 L51.8327869,42.038 Z M77.4065574,50.038 L87.242623,50.038 L87.242623,30.038 L77.4065574,30.038 L77.4065574,50.038 Z M84.2918033,40.039 C83.7508197,40.039 83.3081967,40.486 83.3081967,41.038 C83.3081967,41.59 83.7508197,42.038 84.2918033,42.038 C84.8327869,42.038 85.2754098,41.59 85.2754098,41.038 C85.2754098,40.486 84.8327869,40.039 84.2918033,40.039 Z" id="Store-icon"></path>
                    </g>
                </g>
            </g>
        </g>
    </g>
</svg>