<?xml version="1.0" encoding="UTF-8" standalone="no"?>
<svg width="60px" height="50px" viewBox="0 0 60 50" version="1.1" xmlns="http://www.w3.org/2000/svg" xmlns:xlink="http://www.w3.org/1999/xlink" xmlns:sketch="http://www.bohemiancoding.com/sketch/ns">
    <!-- Generator: Sketch 3.2.1 (9971) - http://www.bohemiancoding.com/sketch -->
    <title>Windows icon</title>
    <desc>Created with Sketch.</desc>
    <defs>
        <linearGradient x1="50%" y1="100%" x2="50%" y2="-2.22044605e-14%" id="linearGradient-1">
            <stop stop-color="#8BC34A" offset="0%"></stop>
            <stop stop-color="#009620" offset="100%"></stop>
        </linearGradient>
    </defs>
    <g id="Page-1" stroke="none" stroke-width="1" fill="none" fill-rule="evenodd" sketch:type="MSPage">
        <g id="PC" sketch:type="MSArtboardGroup" transform="translate(-810.000000, -1120.000000)" fill="url(#linearGradient-1)">
            <g id="What" sketch:type="MSLayerGroup" transform="translate(0.000000, 752.000000)">
                <g id="Projects" transform="translate(129.000000, 311.000000)" sketch:type="MSShapeGroup">
                    <g id="ЛЮБЫМ-ВЕБ-САЙТАМ-+-Windows-icon" transform="translate(641.000000, 57.000000)">
                        <path d="M98,22 L92,22 L92,34 C92,37.311 89.31,40 86,40 L50,40 L50,44 C50,46.2 51.79,48 54,48 L94,48 C96.21,48 98,46.2 98,44 L98,22 Z M98,20 L92,20 L92,12 L94,12 C96.21,12 98,13.79 98,16 L98,20 L98,20 Z M92,10 L92,6 C92,2.69 89.31,0 86,0 L46,0 C42.69,0 40,2.69 40,6 L40,34 C40,37.311 42.69,40 46,40 L48,40 L48,44 C48,47.311 50.69,50 54,50 L94,50 C97.31,50 100,47.311 100,44 L100,16 C100,12.69 97.31,10 94,10 L92,10 L92,10 Z M42,10 L42,6 C42,3.79 43.79,2 46,2 L86,2 C88.21,2 90,3.79 90,6 L90,10 L42,10 L42,10 Z M42,12 L42,34 C42,36.2 43.79,38 46,38 L86,38 C88.21,38 90,36.2 90,34 L90,12 L42,12 L42,12 Z M48,8 C46.9,8 46,7.101 46,6 C46,4.9 46.9,4 48,4 C49.1,4 50,4.9 50,6 C50,7.101 49.1,8 48,8 Z M54,8 C52.9,8 52,7.101 52,6 C52,4.9 52.9,4 54,4 C55.1,4 56,4.9 56,6 C56,7.101 55.1,8 54,8 Z M60,8 C58.9,8 58,7.101 58,6 C58,4.9 58.9,4 60,4 C61.1,4 62,4.9 62,6 C62,7.101 61.1,8 60,8 Z" id="Windows-icon"></path>
                    </g>
                </g>
            </g>
        </g>
    </g>
</svg>