<?xml version="1.0" encoding="UTF-8" standalone="no"?>
<svg width="16px" height="29px" viewBox="0 0 16 29" version="1.1" xmlns="http://www.w3.org/2000/svg" xmlns:xlink="http://www.w3.org/1999/xlink" xmlns:sketch="http://www.bohemiancoding.com/sketch/ns">
    <!-- Generator: Sketch 3.2.1 (9971) - http://www.bohemiancoding.com/sketch -->
    <title>arr-prev</title>
    <desc>Created with Sketch.</desc>
    <defs></defs>
    <g id="Page-1" stroke="none" stroke-width="1" fill="none" fill-rule="evenodd" sketch:type="MSPage">
        <g id="arr-prev" sketch:type="MSLayerGroup" transform="translate(13.500000, 15.150758) scale(-1, 1) rotate(-135.000000) translate(-13.500000, -15.150758) translate(3.000000, 4.650758)" fill="#2196F3">
            <path d="M1.00212041,19.1589503 C1.00071256,19.1857053 1,19.2126463 1,19.2397552 C1,20.0529793 1.63960296,20.7061615 2.44092124,20.7384999 C2.46051496,20.7393342 2.48021009,20.7397552 2.5,20.7397552 C2.5005419,20.7397552 2.50108373,20.7397549 2.5016255,20.7397542 C2.50216687,20.7397549 2.5027087,20.7397552 2.5032506,20.7397552 L21,20.7397552 C21,19.2397552 21,19.2397552 21,19.2397552 C21,18.4195343 20.3269718,17.7397552 19.4967494,17.7397552 L4,17.7397552 L4,2.41054403 C4,1.48779285 3.32897121,0.739755209 2.5,0.739755209 C2.5,0.739755209 2.5,0.739755209 1,0.739755209 L1,19.0689664 C1,19.0991547 1.00071261,19.129156 1.00212041,19.1589503 Z" id="Rectangle-7" sketch:type="MSShapeGroup"></path>
        </g>
    </g>
</svg>