<?xml version="1.0" encoding="UTF-8" standalone="no"?>
<svg width="75px" height="16px" viewBox="0 0 75 16" version="1.1" xmlns="http://www.w3.org/2000/svg" xmlns:xlink="http://www.w3.org/1999/xlink" xmlns:sketch="http://www.bohemiancoding.com/sketch/ns">
    <!-- Generator: Sketch 3.2.1 (9971) - http://www.bohemiancoding.com/sketch -->
    <title>birzool</title>
    <desc>Created with Sketch.</desc>
    <defs></defs>
    <g id="Page-1" stroke="none" stroke-width="1" fill="none" fill-rule="evenodd" sketch:type="MSPage">
        <path d="M72.0743205,13.3491478 L69.0383434,13.3491478 C69.0383434,13.3491478 69.1508968,12.6984348 69.3055342,12.1445565 L71.6527747,3.41968696 C71.6527747,3.41968696 71.2904006,3.0029913 70.4861449,3.0029913 C69.1284426,3.0029913 68.1719502,3.74455652 67.6925037,5.60862609 L66.1228281,11.7152 C65.9680495,12.2967652 65.7211945,13.2934957 65.7211945,13.7924174 C65.7211945,15.1396174 66.353725,15.9247304 67.6611525,15.9247304 L71.8072708,15.9247304 C73.7609273,15.9247304 74.5341143,14.8310261 74.5341143,13.9168 C74.5341143,13.1970783 74.1264082,13.0583652 74.1264082,13.0583652 C74.1264082,13.0583652 73.6346754,13.3491478 72.0743205,13.3491478 Z M26.0388357,9.41662609 C25.5890456,9.41662609 25.1494235,9.33161739 25.1494235,9.33161739 L26.2673319,5.16006957 C26.2673319,5.16006957 26.6287174,5.11304348 27.0727174,5.11304348 C28.1417632,5.11304348 28.6171143,5.79158261 28.6171143,6.68953043 C28.6171143,8.18323478 27.6470647,9.41662609 26.0388357,9.41662609 Z M28.1632289,11.2690087 C30.7406602,10.7422609 32.0524655,8.7104 32.0524655,6.53634783 C32.0524655,4.57697391 30.586164,3.0029913 27.2691563,3.0029913 L25.5932823,3.0029913 C24.2046525,3.0029913 23.2577632,3.72716522 22.770267,5.60862609 L21.1678281,11.742887 C21.0131907,12.3244522 20.7969808,13.2769391 20.7969808,13.8306783 C20.7969808,15.0611478 21.3775418,15.9247304 22.6838395,15.9247304 C23.4991105,15.9247304 23.8816792,15.400487 23.8816792,15.400487 C23.8816792,15.400487 23.75458,14.5057391 24.3967136,12.1388522 L24.6016258,11.3872696 L25.452767,11.4937043 C25.5372174,14.1938087 26.7178281,15.9247304 28.8119998,15.9247304 C30.2276029,15.9247304 30.8921907,14.817113 30.8921907,13.8614261 C30.8921907,13.7924174 30.8806105,13.7254957 30.8806105,13.7254957 C29.8405151,13.7254957 28.6973281,12.7920696 28.1632289,11.2690087 Z M61.5188701,9.79046957 C60.7879082,12.5875478 60.0150037,13.8135652 59.0030113,13.8135652 C58.3562174,13.8135652 58.0610647,13.3075478 58.0610647,12.3105391 C58.0610647,11.5350261 58.2439464,10.4966957 58.5953052,9.20904348 C59.4948853,5.81634783 60.3382594,5.11262609 61.111164,5.11262609 C61.7295724,5.11262609 62.066809,5.53933913 62.066809,6.56403478 C62.066809,7.31186087 61.884351,8.36424348 61.5188701,9.79046957 Z M49.7121983,9.79046957 C48.9534159,12.5875478 48.1836182,13.8135652 47.207496,13.8135652 C46.5609846,13.8135652 46.2687976,13.2937739 46.2687976,12.3105391 C46.2687976,11.7804522 46.4302136,10.5136696 46.7917403,9.22838261 C47.6581334,6.14733913 48.3625456,5.11401739 49.3035037,5.11401739 C49.4581411,5.83415652 49.7573892,6.41933913 50.257454,6.8845913 C50.2321754,7.60431304 50.0495762,8.54427826 49.7121983,9.79046957 L49.7121983,9.79046957 Z M61.4766449,3.0029913 C60.0710685,3.0029913 58.7779044,3.4208 57.7099884,4.40389565 C57.2600571,4.81933913 56.0230991,5.47422609 54.6459082,5.47422609 C53.7042441,5.47422609 53.1698624,5.08243478 52.9310571,4.73627826 C52.2423205,3.54546087 51.159435,3.0029913 49.6702556,3.0029913 C45.2709273,3.0029913 42.9517899,7.74733913 42.9517899,11.4427826 C42.9517899,14.2121739 44.4803701,15.9247304 46.8698357,15.9247304 C51.6203815,15.9247304 53.190622,11.3133913 53.5422632,7.96966957 C53.5422632,7.96966957 54.1115266,7.99693913 54.3926983,7.99693913 C54.9341411,7.99693913 55.462309,7.92431304 55.462309,7.92431304 C55.0267823,8.96292174 54.7440571,10.3305739 54.7440571,11.5076174 C54.7440571,14.1798957 56.1777365,15.9247304 58.5532212,15.9247304 C63.4222518,15.9247304 65.3698357,10.9161739 65.3698357,7.36723478 C65.3698357,4.54246957 63.8125876,3.0029913 61.4766449,3.0029913 Z M21.2493128,3.41982609 C21.2493128,3.41982609 20.8630724,3.0048 20.0619235,3.0048 C18.7854235,3.0048 17.7927785,3.68389565 17.2867823,5.60862609 L15.6843434,11.742887 C15.529706,12.3244522 15.3188624,13.2382609 15.3188624,13.7924174 C15.3188624,15.1218087 15.9374121,15.9247304 17.1882098,15.9247304 C18.022122,15.9247304 18.3980533,15.400487 18.3980533,15.400487 C18.3980533,15.400487 18.2671411,14.519513 18.9136525,12.1516522 L21.2493128,3.41982609 Z M7.57823649,6.70622609 C7.04357237,6.70622609 6.57443496,6.63206957 6.57443496,6.63206957 L7.76563725,2.22733913 C7.76563725,2.22733913 8.22347695,2.18852174 8.69727466,2.18852174 C10.0897174,2.18852174 10.8211029,2.83965217 10.8211029,3.88090435 C10.8211029,5.52125217 9.5981258,6.70622609 7.57823649,6.70622609 Z M6.48306473,13.7339826 C5.6166716,13.7339826 4.91903801,13.5629913 4.91903801,13.5629913 C4.91903801,13.5629913 4.93471359,12.8307478 5.22464107,11.6521739 L6.10275557,8.37913043 C6.10275557,8.37913043 6.85475939,8.34893913 7.57357618,8.34893913 C9.63823267,8.34893913 10.4698853,9.23798261 10.4698853,10.5337043 C10.4698853,12.1192348 9.14042733,13.7339826 6.48306473,13.7339826 L6.48306473,13.7339826 Z M12.0889884,7.51874783 C13.4812899,6.82114783 14.5133357,5.46685217 14.5133357,3.79130435 C14.5133357,2.71123478 13.8412632,1.63311304 12.7318281,0.975304348 C11.6222518,0.317356522 9.99396931,0 8.25101511,0 C4.16661053,0 0.60303038,2.38233043 0.60303038,4.84702609 C0.60303038,6.05175652 1.46320977,6.17544348 1.46320977,6.17544348 C1.46320977,6.17544348 2.2615342,4.84702609 3.84970977,3.72549565 L1.91808382,10.8847304 C1.8056716,11.328 1.58691969,12.2918957 1.58691969,12.845913 C1.58691969,14.5437217 2.78108763,15.9247304 5.6490113,15.9247304 L6.50156473,15.9247304 C11.8931143,15.9247304 14.1865495,13.365287 14.1865495,10.5337043 C14.1865495,9.19067826 13.3707136,8.10615652 12.0889884,7.51874783 Z M42.1606678,7.01286957 C42.7903739,6.33182609 43.4145724,5.49787826 43.4145724,4.63930435 C43.4145724,3.696 42.7369922,3.0029913 41.6101869,3.0029913 L36.7110762,3.0029913 C34.7944197,3.0029913 33.3539617,4.29231304 33.3539617,5.7056 C33.3539617,6.27325217 33.5909311,6.48111304 33.5909311,6.48111304 C33.5909311,6.48111304 34.8136258,6.12104348 36.3597174,6.12104348 L39.4840991,6.12104348 C39.4840991,6.12104348 34.9826678,10.2637913 33.1295609,12.1314783 C32.5182136,12.7475478 32.083393,13.3907478 32.083393,14.2075826 C32.083393,15.2322783 32.9431487,15.9247304 33.997225,15.9247304 L38.3276373,15.9247304 C40.7344731,15.9247304 41.8468739,14.6978783 41.8468739,13.2861217 C41.8468739,12.7737043 41.630664,12.4353391 41.5601945,12.4076522 C41.5601945,12.4076522 40.6745953,12.8367304 38.9460456,12.8367304 L36.0600456,12.8367304 C36.0600456,12.8367304 40.7782518,8.50824348 42.1606678,7.01286957 Z" id="birzool" fill="#9CA5BF" sketch:type="MSShapeGroup"></path>
    </g>
</svg>