<?xml version="1.0" encoding="UTF-8" standalone="no"?>
<svg width="16px" height="16px" viewBox="0 0 16 16" version="1.1" xmlns="http://www.w3.org/2000/svg" xmlns:xlink="http://www.w3.org/1999/xlink" xmlns:sketch="http://www.bohemiancoding.com/sketch/ns">
    <!-- Generator: Sketch 3.2.1 (9971) - http://www.bohemiancoding.com/sketch -->
    <title>blue-ghost</title>
    <desc>Created with Sketch.</desc>
    <defs></defs>
    <g id="Page-1" stroke="none" stroke-width="1" fill="none" fill-rule="evenodd" sketch:type="MSPage">
        <g id="labirint" sketch:type="MSLayerGroup" transform="translate(-37.000000, -127.000000)" fill="#2196F3">
            <path d="M37,135 C37,130.581722 40.5907123,127 45,127 C49.418278,127 53,130.590712 53,135 L53,143 L51.0101318,140.628174 L49.0238647,143 L47.0011597,140.628174 L45.0244141,143 L43.0256958,140.628174 L41.0081787,143 L38.9967651,140.628174 L37,143 L37,135 Z M41.7810651,136.088757 C42.8006677,136.088757 43.6272189,135.05027 43.6272189,133.769231 C43.6272189,132.488192 42.8006677,131.449704 41.7810651,131.449704 C40.7614625,131.449704 39.9349112,132.488192 39.9349112,133.769231 C39.9349112,135.05027 40.7614625,136.088757 41.7810651,136.088757 Z M46.7988166,136.088757 C47.8184192,136.088757 48.6449704,135.05027 48.6449704,133.769231 C48.6449704,132.488192 47.8184192,131.449704 46.7988166,131.449704 C45.779214,131.449704 44.9526627,132.488192 44.9526627,133.769231 C44.9526627,135.05027 45.779214,136.088757 46.7988166,136.088757 Z M41.4970414,135 C41.8891963,135 42.2071006,134.576128 42.2071006,134.053254 C42.2071006,133.530381 41.8891963,133.106509 41.4970414,133.106509 C41.1048866,133.106509 40.7869822,133.530381 40.7869822,134.053254 C40.7869822,134.576128 41.1048866,135 41.4970414,135 Z M46.5147929,135 C46.9069478,135 47.2248521,134.576128 47.2248521,134.053254 C47.2248521,133.530381 46.9069478,133.106509 46.5147929,133.106509 C46.122638,133.106509 45.8047337,133.530381 45.8047337,134.053254 C45.8047337,134.576128 46.122638,135 46.5147929,135 Z" id="blue-ghost" sketch:type="MSShapeGroup"></path>
        </g>
    </g>
</svg>