<?xml version="1.0" encoding="UTF-8" standalone="no"?>
<svg width="60px" height="60px" viewBox="0 0 60 60" version="1.1" xmlns="http://www.w3.org/2000/svg" xmlns:xlink="http://www.w3.org/1999/xlink" xmlns:sketch="http://www.bohemiancoding.com/sketch/ns">
    <!-- Generator: Sketch 3.2.1 (9971) - http://www.bohemiancoding.com/sketch -->
    <title>bookmark</title>
    <desc>Created with Sketch.</desc>
    <defs></defs>
    <g id="Page-1" stroke="none" stroke-width="1" fill="none" fill-rule="evenodd" sketch:type="MSPage">
        <g id="icons-1" sketch:type="MSLayerGroup" transform="translate(-229.000000, -4.000000)" fill="#FFFFFF">
            <g id="bookmark" transform="translate(229.000000, 4.000000)" sketch:type="MSShapeGroup">
                <path d="M59,59.017377 L1,59.017377 C0.448,59.017377 0,58.5737705 0,58.0327869 L0,2.95180328 C0,2.40983607 0.448,1.96721311 1,1.96721311 L9,1.96721311 C9.553,1.96721311 10,2.40983607 10,2.95180328 C10,3.49180328 9.553,3.93442623 9,3.93442623 L2,3.93442623 L2,57.0491803 L58,57.0491803 L58,3.93442623 L29,3.93442623 C28.448,3.93442623 28,3.49180328 28,2.95180328 C28,2.40983607 28.448,1.96721311 29,1.96721311 L59,1.96721311 C59.553,1.96721311 60,2.40983607 60,2.95180328 L60,58.0327869 C60,58.5737705 59.553,59.017377 59,59.017377" id="Fill-18"></path>
                <path d="M19,22.6219672 C19.256,22.6219672 19.512,22.7213115 19.707,22.9072131 L28,31.0613115 L28,1.96622951 L10,1.96622951 L10,31.0613115 L18.293,22.9072131 C18.489,22.7213115 18.744,22.6219672 19,22.6219672 L19,22.6219672 Z M29,34.4252459 C28.74,34.4252459 28.485,34.3259016 28.293,34.14 L19,24.992459 L9.707,34.14 C9.421,34.4154098 8.992,34.5039344 8.617,34.347541 C8.244,34.2 8,33.8340984 8,33.4416393 L8,0.982622951 C8,0.441639344 8.448,0 9,0 L29,0 C29.553,0 30,0.441639344 30,0.982622951 L30,33.4416393 C30,33.8340984 29.757,34.2 29.383,34.347541 C29.259,34.3957377 29.129,34.4252459 29,34.4252459 L29,34.4252459 Z" id="Fill-19"></path>
                <path d="M51,17.7059016 L36,17.7059016 C35.448,17.7059016 35,17.2622951 35,16.7213115 C35,16.1803279 35.448,15.7377049 36,15.7377049 L51,15.7377049 C51.553,15.7377049 52,16.1803279 52,16.7213115 C52,17.2622951 51.553,17.7059016 51,17.7059016" id="Fill-20"></path>
                <path d="M51,25.5727869 L36,25.5727869 C35.448,25.5727869 35,25.1301639 35,24.5891803 C35,24.0481967 35.448,23.6065574 36,23.6065574 L51,23.6065574 C51.553,23.6065574 52,24.0481967 52,24.5891803 C52,25.1301639 51.553,25.5727869 51,25.5727869" id="Fill-21"></path>
                <path d="M51,33.442623 L36,33.442623 C35.448,33.442623 35,33 35,32.46 C35,31.9180328 35.448,31.4754098 36,31.4754098 L51,31.4754098 C51.553,31.4754098 52,31.9180328 52,32.46 C52,33 51.553,33.442623 51,33.442623" id="Fill-22"></path>
                <path d="M51,41.312459 L9,41.312459 C8.448,41.312459 8,40.8688525 8,40.3278689 C8,39.7868852 8.448,39.3442623 9,39.3442623 L51,39.3442623 C51.553,39.3442623 52,39.7868852 52,40.3278689 C52,40.8688525 51.553,41.312459 51,41.312459" id="Fill-23"></path>
                <path d="M41,49.1793443 L9,49.1793443 C8.448,49.1793443 8,48.7367213 8,48.1957377 C8,47.6547541 8.448,47.2131148 9,47.2131148 L41,47.2131148 C41.553,47.2131148 42,47.6547541 42,48.1957377 C42,48.7367213 41.553,49.1793443 41,49.1793443" id="Fill-24"></path>
            </g>
        </g>
    </g>
</svg>