<?xml version="1.0" encoding="UTF-8" standalone="no"?>
<svg width="50px" height="60px" viewBox="0 0 50 60" version="1.1" xmlns="http://www.w3.org/2000/svg" xmlns:xlink="http://www.w3.org/1999/xlink" xmlns:sketch="http://www.bohemiancoding.com/sketch/ns">
    <!-- Generator: Sketch 3.2.1 (9971) - http://www.bohemiancoding.com/sketch -->
    <title>book</title>
    <desc>Created with Sketch.</desc>
    <defs></defs>
    <g id="Page-1" stroke="none" stroke-width="1" fill="none" fill-rule="evenodd" sketch:type="MSPage">
        <g id="icons-1" sketch:type="MSLayerGroup" transform="translate(-597.000000, 0.000000)" fill="#FFFFFF">
            <g id="book" transform="translate(597.000000, 0.000000)" sketch:type="MSShapeGroup">
                <path d="M47,7.999 L7,7.999 C6.45,7.999 6,7.549 6,6.999 C6,6.449 6.45,6 7,6 L47,6 C47.55,6 48,6.449 48,6.999 C48,7.549 47.55,7.999 47,7.999" id="Fill-6962"></path>
                <path d="M2,11.89 L2,53.949 C2,56.18 3.81,57.999 6.04,57.999 L48,57.999 L48,13.999 L7,13.999 C5.04,13.999 3.27,13.189 2,11.89 L2,11.89 Z M49,60 L6.04,60 C2.71,60 0,57.289 0,53.949 L0,6.999 C0,3.14 3.14,0 7,0 L49,0 C49.55,0 50,0.449 50,0.999 C50,1.549 49.55,1.999 49,1.999 L7,1.999 C4.24,1.999 2,4.239 2,6.999 C2,9.75 4.24,12 7,12 L49,12 C49.55,12 50,12.449 50,12.999 L50,58.999 C50,59.549 49.55,60 49,60 L49,60 Z" id="Fill-6963"></path>
                <path d="M25,24.001 C22.24,24.001 20,26.24 20,29 C20,31.75 22.24,34 25,34 C27.76,34 30,31.75 30,29 C30,26.24 27.76,24.001 25,24.001 L25,24.001 Z M25,36.001 C21.14,36.001 18,32.86 18,29 C18,25.141 21.14,22 25,22 C28.86,22 32,25.141 32,29 C32,32.86 28.86,36.001 25,36.001 L25,36.001 Z" id="Fill-6964"></path>
                <path d="M14.04,46 L35.95,46 C35.45,40.4 30.73,36.001 25,36.001 C19.27,36.001 14.55,40.4 14.04,46 L14.04,46 Z M37.02,48.001 L13,48.001 C12.45,48.001 12,47.55 12,47 C12,39.83 17.83,34 25,34 C32.1,34 37.89,39.72 38,46.79 L38.02,47 C38.02,47.55 37.57,48.001 37.02,48.001 L37.02,48.001 Z" id="Fill-6965"></path>
            </g>
        </g>
    </g>
</svg>