<?xml version="1.0" encoding="UTF-8" standalone="no"?>
<svg width="61px" height="60px" viewBox="0 0 61 60" version="1.1" xmlns="http://www.w3.org/2000/svg" xmlns:xlink="http://www.w3.org/1999/xlink" xmlns:sketch="http://www.bohemiancoding.com/sketch/ns">
    <!-- Generator: Sketch 3.2.1 (9971) - http://www.bohemiancoding.com/sketch -->
    <title>business</title>
    <desc>Created with Sketch.</desc>
    <defs></defs>
    <g id="Page-1" stroke="none" stroke-width="1" fill="none" fill-rule="evenodd" sketch:type="MSPage">
        <g id="gradient-icons" sketch:type="MSLayerGroup" transform="translate(-656.000000, -1.000000)" fill="#4B81FF">
            <path d="M709.58408,60.0163934 L715.539293,60.0163934 C716.089293,60.0163934 716.539293,59.5727869 716.539293,59.0318033 L716.539293,25.5891803 C716.539293,25.0481967 716.089293,24.6065574 715.539293,24.6065574 L712.539293,24.6065574 L712.539293,19.687541 C712.539293,19.1465574 712.089293,18.704918 711.539293,18.704918 L701.539293,18.704918 C700.989293,18.704918 700.539293,19.1465574 700.539293,19.687541 L700.539293,24.6065574 L700.539293,24.6065574 L697.539293,24.6065574 C696.989293,24.6065574 696.539293,25.0481967 696.539293,25.5891803 L696.539293,34.442623 L680.539293,34.442623 L680.539293,19.687541 C680.539293,19.1465574 680.089293,18.704918 679.539293,18.704918 L676.539293,18.704918 L676.539293,11.8196721 C676.539293,11.2786885 676.089293,10.8360656 675.539293,10.8360656 L668.539293,10.8360656 L668.539293,1.98262295 C668.539293,1.44163934 668.089293,1 667.539293,1 C666.989293,1 666.539293,1.44163934 666.539293,1.98262295 L666.539293,10.8360656 L661.539293,10.8360656 C660.989293,10.8360656 660.539293,11.2786885 660.539293,11.8196721 L660.539293,18.704918 L660.539293,18.704918 L657.539293,18.704918 C656.989293,18.704918 656.539293,19.1465574 656.539293,19.687541 L656.539293,59.0318033 C656.539293,59.5727869 656.989293,60.0163934 657.539293,60.0163934 L665.494506,60.0163934 L665.494506,60.0163934 C665.509356,60.0170468 665.524287,60.017377 665.539293,60.017377 L669.539293,60.017377 C669.554299,60.017377 669.56923,60.0170468 669.58408,60.0163934 L679.494506,60.0163934 C679.509356,60.0170468 679.524287,60.017377 679.539293,60.017377 L697.539293,60.017377 C697.554299,60.017377 697.56923,60.0170468 697.58408,60.0163934 L697.58408,60.0163934 L705.494506,60.0163934 C705.509356,60.0170468 705.524287,60.017377 705.539293,60.017377 L709.539293,60.017377 C709.554299,60.017377 709.56923,60.0170468 709.58408,60.0163934 L709.58408,60.0163934 Z M704.539293,58.0481967 L698.539293,58.0481967 L698.539293,26.5727869 L714.539293,26.5727869 L714.539293,58.0481967 L710.539293,58.0481967 L710.539293,53.1311475 C710.539293,52.5901639 710.089293,52.147541 709.539293,52.147541 L705.539293,52.147541 C704.989293,52.147541 704.539293,52.5901639 704.539293,53.1311475 L704.539293,58.0481967 Z M670.539293,58.0481967 L678.539293,58.0481967 L678.539293,20.6711475 L675.584129,20.6711475 L675.584129,20.6711475 C675.569263,20.6718009 675.554315,20.6721311 675.539293,20.6721311 L661.539293,20.6721311 C661.524271,20.6721311 661.509323,20.6718009 661.494457,20.6711475 L658.539293,20.6711475 L658.539293,58.0481967 L664.539293,58.0481967 L664.539293,53.1311475 C664.539293,52.5901639 664.989293,52.147541 665.539293,52.147541 L669.539293,52.147541 C670.089293,52.147541 670.539293,52.5901639 670.539293,53.1311475 L670.539293,58.0481967 L670.539293,58.0481967 Z M696.539293,58.0491803 L696.539293,36.4108197 L680.539293,36.4108197 L680.539293,58.0491803 L696.539293,58.0491803 L696.539293,58.0491803 Z M662.539293,18.7059016 L674.539293,18.7059016 L674.539293,12.8042623 L662.539293,12.8042623 L662.539293,18.7059016 Z M702.539293,24.6065574 L710.539293,24.6065574 L710.539293,20.6711475 L702.539293,20.6711475 L702.539293,24.6065574 Z M671.539293,16.7377049 L665.539293,16.7377049 C664.989293,16.7377049 664.539293,16.2960656 664.539293,15.755082 C664.539293,15.2131148 664.989293,14.7704918 665.539293,14.7704918 L671.539293,14.7704918 C672.089293,14.7704918 672.539293,15.2131148 672.539293,15.755082 C672.539293,16.2960656 672.089293,16.7377049 671.539293,16.7377049 Z M675.539293,28.5409836 L661.539293,28.5409836 C660.989293,28.5409836 660.539293,28.0993443 660.539293,27.5583607 C660.539293,27.0163934 660.989293,26.5737705 661.539293,26.5737705 L675.539293,26.5737705 C676.089293,26.5737705 676.539293,27.0163934 676.539293,27.5583607 C676.539293,28.0993443 676.089293,28.5409836 675.539293,28.5409836 Z M675.539293,24.607541 L661.539293,24.607541 C660.989293,24.607541 660.539293,24.1639344 660.539293,23.6229508 C660.539293,23.0819672 660.989293,22.6393443 661.539293,22.6393443 L675.539293,22.6393443 C676.089293,22.6393443 676.539293,23.0819672 676.539293,23.6229508 C676.539293,24.1639344 676.089293,24.607541 675.539293,24.607541 Z M675.539293,32.4744262 L661.539293,32.4744262 C660.989293,32.4744262 660.539293,32.0318033 660.539293,31.4908197 C660.539293,30.9498361 660.989293,30.5081967 661.539293,30.5081967 L675.539293,30.5081967 C676.089293,30.5081967 676.539293,30.9498361 676.539293,31.4908197 C676.539293,32.0318033 676.089293,32.4744262 675.539293,32.4744262 Z M675.539293,36.4108197 L661.539293,36.4108197 C660.989293,36.4108197 660.539293,35.9672131 660.539293,35.4262295 C660.539293,34.8852459 660.989293,34.442623 661.539293,34.442623 L675.539293,34.442623 C676.089293,34.442623 676.539293,34.8852459 676.539293,35.4262295 C676.539293,35.9672131 676.089293,36.4108197 675.539293,36.4108197 Z M675.539293,40.3442623 L661.539293,40.3442623 C660.989293,40.3442623 660.539293,39.902623 660.539293,39.3616393 C660.539293,38.8196721 660.989293,38.3770492 661.539293,38.3770492 L675.539293,38.3770492 C676.089293,38.3770492 676.539293,38.8196721 676.539293,39.3616393 C676.539293,39.902623 676.089293,40.3442623 675.539293,40.3442623 Z M675.539293,44.2777049 L661.539293,44.2777049 C660.989293,44.2777049 660.539293,43.835082 660.539293,43.2940984 C660.539293,42.7531148 660.989293,42.3114754 661.539293,42.3114754 L675.539293,42.3114754 C676.089293,42.3114754 676.539293,42.7531148 676.539293,43.2940984 C676.539293,43.835082 676.089293,44.2777049 675.539293,44.2777049 Z M675.539293,48.2140984 L661.539293,48.2140984 C660.989293,48.2140984 660.539293,47.7704918 660.539293,47.2295082 C660.539293,46.6885246 660.989293,46.2459016 661.539293,46.2459016 L675.539293,46.2459016 C676.089293,46.2459016 676.539293,46.6885246 676.539293,47.2295082 C676.539293,47.7704918 676.089293,48.2140984 675.539293,48.2140984 Z M711.539293,30.5091803 L701.539293,30.5091803 C700.989293,30.5091803 700.539293,30.0655738 700.539293,29.5245902 C700.539293,28.9836066 700.989293,28.5409836 701.539293,28.5409836 L711.539293,28.5409836 C712.089293,28.5409836 712.539293,28.9836066 712.539293,29.5245902 C712.539293,30.0655738 712.089293,30.5091803 711.539293,30.5091803 Z M711.539293,34.442623 L701.539293,34.442623 C700.989293,34.442623 700.539293,34.0009836 700.539293,33.46 C700.539293,32.9180328 700.989293,32.4754098 701.539293,32.4754098 L711.539293,32.4754098 C712.089293,32.4754098 712.539293,32.9180328 712.539293,33.46 C712.539293,34.0009836 712.089293,34.442623 711.539293,34.442623 Z M711.539293,38.3760656 L701.539293,38.3760656 C700.989293,38.3760656 700.539293,37.9334426 700.539293,37.392459 C700.539293,36.8514754 700.989293,36.4098361 701.539293,36.4098361 L711.539293,36.4098361 C712.089293,36.4098361 712.539293,36.8514754 712.539293,37.392459 C712.539293,37.9334426 712.089293,38.3760656 711.539293,38.3760656 Z M711.539293,42.312459 L701.539293,42.312459 C700.989293,42.312459 700.539293,41.8688525 700.539293,41.3278689 C700.539293,40.7868852 700.989293,40.3442623 701.539293,40.3442623 L711.539293,40.3442623 C712.089293,40.3442623 712.539293,40.7868852 712.539293,41.3278689 C712.539293,41.8688525 712.089293,42.312459 711.539293,42.312459 Z M711.539293,50.1793443 L701.539293,50.1793443 C700.989293,50.1793443 700.539293,49.7367213 700.539293,49.1957377 C700.539293,48.6547541 700.989293,48.2131148 701.539293,48.2131148 L711.539293,48.2131148 C712.089293,48.2131148 712.539293,48.6547541 712.539293,49.1957377 C712.539293,49.7367213 712.089293,50.1793443 711.539293,50.1793443 Z M711.539293,46.2459016 L701.539293,46.2459016 C700.989293,46.2459016 700.539293,45.8042623 700.539293,45.2632787 C700.539293,44.7213115 700.989293,44.2786885 701.539293,44.2786885 L711.539293,44.2786885 C712.089293,44.2786885 712.539293,44.7213115 712.539293,45.2632787 C712.539293,45.8042623 712.089293,46.2459016 711.539293,46.2459016 Z M693.539293,42.312459 L683.539293,42.312459 C682.989293,42.312459 682.539293,41.8688525 682.539293,41.3278689 C682.539293,40.7868852 682.989293,40.3442623 683.539293,40.3442623 L693.539293,40.3442623 C694.089293,40.3442623 694.539293,40.7868852 694.539293,41.3278689 C694.539293,41.8688525 694.089293,42.312459 693.539293,42.312459 Z M693.539293,46.2459016 L683.539293,46.2459016 C682.989293,46.2459016 682.539293,45.8042623 682.539293,45.2632787 C682.539293,44.7213115 682.989293,44.2786885 683.539293,44.2786885 L693.539293,44.2786885 C694.089293,44.2786885 694.539293,44.7213115 694.539293,45.2632787 C694.539293,45.8042623 694.089293,46.2459016 693.539293,46.2459016 Z M693.539293,50.1793443 L683.539293,50.1793443 C682.989293,50.1793443 682.539293,49.7367213 682.539293,49.1957377 C682.539293,48.6547541 682.989293,48.2131148 683.539293,48.2131148 L693.539293,48.2131148 C694.089293,48.2131148 694.539293,48.6547541 694.539293,49.1957377 C694.539293,49.7367213 694.089293,50.1793443 693.539293,50.1793443 Z M666.539293,58.0491803 L668.539293,58.0491803 L668.539293,54.1157377 L666.539293,54.1157377 L666.539293,58.0491803 Z M706.539293,58.0491803 L708.539293,58.0491803 L708.539293,54.1157377 L706.539293,54.1157377 L706.539293,58.0491803 Z" id="business" sketch:type="MSShapeGroup"></path>
        </g>
    </g>
</svg>