<?xml version="1.0" encoding="UTF-8" standalone="no"?>
<svg width="69px" height="49px" viewBox="0 0 69 49" version="1.1" xmlns="http://www.w3.org/2000/svg" xmlns:xlink="http://www.w3.org/1999/xlink" xmlns:sketch="http://www.bohemiancoding.com/sketch/ns">
    <!-- Generator: Sketch 3.2.1 (9971) - http://www.bohemiancoding.com/sketch -->
    <title>capable-bits</title>
    <desc>Created with Sketch.</desc>
    <defs></defs>
    <g id="Page-1" stroke="none" stroke-width="1" fill="none" fill-rule="evenodd" sketch:type="MSPage">
        <g id="capable-bits" sketch:type="MSLayerGroup" fill="#9CA5BF">
            <path d="M34.501,23.812 L20.651,15.723 L20.651,7.929 L34.503,16.019 L48.444,7.932 L48.444,15.724 L34.501,23.812 L34.501,23.812 Z M21.652,15.149 L34.504,22.655 L47.445,15.148 L47.445,9.669 L34.502,17.177 L21.652,9.672 L21.652,15.149 L21.652,15.149 Z" id="Shape" sketch:type="MSShapeGroup"></path>
            <path d="M14.409,31.609 L0.56,23.52 L0.56,15.726 L14.411,23.816 L28.352,15.729 L28.352,23.521 L14.409,31.609 L14.409,31.609 Z M1.56,22.946 L14.411,30.453 L27.352,22.945 L27.352,17.466 L14.409,24.974 L1.56,17.469 L1.56,22.946 L1.56,22.946 Z" id="Shape" sketch:type="MSShapeGroup"></path>
            <path d="M54.501,31.609 L40.652,23.52 L40.652,15.726 L54.503,23.816 L68.444,15.729 L68.444,23.521 L54.501,31.609 L54.501,31.609 Z M41.652,22.946 L54.503,30.453 L67.444,22.945 L67.444,17.466 L54.501,24.974 L41.652,17.469 L41.652,22.946 L41.652,22.946 Z" id="Shape" sketch:type="MSShapeGroup"></path>
            <path d="M34.501,39.354 L20.651,31.265 L20.651,23.471 L34.503,31.562 L48.444,23.474 L48.444,31.266 L34.501,39.354 L34.501,39.354 Z M21.652,30.69 L34.504,38.197 L47.445,30.689 L47.445,25.21 L34.502,32.718 L21.652,25.213 L21.652,30.69 L21.652,30.69 Z" id="Shape" sketch:type="MSShapeGroup"></path>
            <path d="M35.003,38.775 L34.003,38.775 L34.003,32.139 L35.003,32.139 L35.003,38.775 L35.003,38.775 Z M55.002,31.031 L54.002,31.031 L54.002,24.395 L55.002,24.395 L55.002,31.031 L55.002,31.031 Z M14.91,31.031 L13.91,31.031 L13.91,24.395 L14.91,24.395 L14.91,31.031 L14.91,31.031 Z" id="Shape" sketch:type="MSShapeGroup"></path>
            <path d="M21.152,8.8 L34.502,1.056 L47.944,8.8 L34.502,16.598 L21.152,8.8 L21.152,8.8 Z" id="Shape" sketch:type="MSShapeGroup"></path>
            <path d="M34.501,17.176 L20.157,8.799 L34.501,0.479 L48.943,8.799 L34.501,17.176 L34.501,17.176 Z M22.146,8.802 L34.503,16.019 L46.945,8.802 L34.503,1.634 L22.146,8.802 L22.146,8.802 Z" id="Shape" sketch:type="MSShapeGroup"></path>
            <path d="M1.06,16.598 L14.41,8.854 L27.852,16.598 L14.41,24.395 L1.06,16.598 L1.06,16.598 Z" id="Shape" sketch:type="MSShapeGroup"></path>
            <path d="M14.409,24.974 L0.066,16.597 L14.409,8.277 L28.851,16.597 L14.409,24.974 L14.409,24.974 Z M2.054,16.599 L14.411,23.816 L26.853,16.599 L14.411,9.431 L2.054,16.599 L2.054,16.599 Z" id="Shape" sketch:type="MSShapeGroup"></path>
            <path d="M41.152,16.598 L54.502,8.854 L67.944,16.598 L54.502,24.395 L41.152,16.598 L41.152,16.598 Z" id="Shape" sketch:type="MSShapeGroup"></path>
            <path d="M54.501,24.974 L40.158,16.597 L54.501,8.277 L68.943,16.597 L54.501,24.974 L54.501,24.974 Z M42.146,16.599 L54.502,23.816 L66.944,16.599 L54.502,9.431 L42.146,16.599 L42.146,16.599 Z" id="Shape" sketch:type="MSShapeGroup"></path>
            <path d="M21.152,24.342 L34.502,16.598 L47.944,24.342 L34.502,32.139 L21.152,24.342 L21.152,24.342 Z" id="Shape" sketch:type="MSShapeGroup"></path>
            <path d="M34.501,32.718 L20.157,24.341 L34.501,16.021 L48.943,24.341 L34.501,32.718 L34.501,32.718 Z M22.146,24.343 L34.503,31.561 L46.945,24.343 L34.503,17.175 L22.146,24.343 L22.146,24.343 Z" id="Shape" sketch:type="MSShapeGroup"></path>
            <g id="text" transform="translate(7.000000, 43.000000)" sketch:type="MSShapeGroup">
                <path d="M1.557,1.242 C1.895,0.896 2.326,0.722 2.848,0.722 C3.547,0.722 4.058,0.954 4.381,1.417 C4.559,1.677 4.655,1.938 4.668,2.2 L3.791,2.2 C3.735,1.999 3.664,1.846 3.576,1.745 C3.42,1.563 3.188,1.472 2.881,1.472 C2.569,1.472 2.322,1.601 2.141,1.857 C1.961,2.115 1.87,2.48 1.87,2.951 C1.87,3.422 1.965,3.773 2.156,4.01 C2.346,4.244 2.588,4.362 2.882,4.362 C3.183,4.362 3.413,4.26 3.57,4.059 C3.657,3.952 3.73,3.789 3.787,3.573 L4.659,3.573 C4.584,4.03 4.392,4.403 4.083,4.688 C3.774,4.975 3.378,5.12 2.895,5.12 C2.298,5.12 1.828,4.925 1.486,4.538 C1.144,4.149 0.973,3.616 0.973,2.936 C0.974,2.203 1.168,1.639 1.557,1.242 L1.557,1.242 Z" id="Shape"></path>
                <path d="M7.566,0.803 L8.559,0.803 L10.044,5.002 L9.092,5.002 L8.815,4.139 L7.269,4.139 L6.984,5.002 L6.066,5.002 L7.566,0.803 L7.566,0.803 Z M7.508,3.414 L8.583,3.414 L8.053,1.764 L7.508,3.414 L7.508,3.414 Z" id="Shape"></path>
                <path d="M14.395,3.184 C14.149,3.389 13.798,3.493 13.342,3.493 L12.468,3.493 L12.468,5.003 L11.596,5.003 L11.596,0.804 L13.399,0.804 C13.815,0.804 14.146,0.913 14.393,1.128 C14.64,1.345 14.764,1.681 14.764,2.134 C14.764,2.629 14.641,2.979 14.395,3.184 L14.395,3.184 Z M13.725,1.672 C13.614,1.578 13.458,1.533 13.258,1.533 L12.467,1.533 L12.467,2.767 L13.258,2.767 C13.458,2.767 13.614,2.718 13.725,2.617 C13.836,2.517 13.892,2.357 13.892,2.138 C13.892,1.919 13.836,1.766 13.725,1.672 L13.725,1.672 Z" id="Shape"></path>
                <path d="M17.235,0.803 L18.228,0.803 L19.713,5.002 L18.761,5.002 L18.484,4.139 L16.938,4.139 L16.653,5.002 L15.735,5.002 L17.235,0.803 L17.235,0.803 Z M17.177,3.414 L18.252,3.414 L17.722,1.764 L17.177,3.414 L17.177,3.414 Z" id="Shape"></path>
                <path d="M24.375,1.25 C24.503,1.43 24.568,1.643 24.568,1.891 C24.568,2.149 24.503,2.354 24.373,2.51 C24.301,2.596 24.194,2.676 24.053,2.748 C24.267,2.826 24.429,2.949 24.538,3.119 C24.647,3.287 24.702,3.492 24.702,3.734 C24.702,3.982 24.64,4.205 24.515,4.404 C24.435,4.535 24.336,4.644 24.218,4.734 C24.084,4.836 23.926,4.906 23.743,4.945 C23.561,4.982 23.363,5.002 23.15,5.002 L21.258,5.002 L21.258,0.803 L23.287,0.803 C23.799,0.811 24.162,0.959 24.375,1.25 L24.375,1.25 Z M22.096,1.533 L22.096,2.457 L23.117,2.457 C23.299,2.457 23.447,2.424 23.561,2.353 C23.675,2.285 23.731,2.162 23.731,1.984 C23.731,1.789 23.656,1.66 23.506,1.597 C23.376,1.554 23.211,1.533 23.01,1.533 L22.096,1.533 L22.096,1.533 Z M22.096,3.152 L22.096,4.271 L23.116,4.271 C23.298,4.271 23.44,4.248 23.541,4.199 C23.725,4.107 23.817,3.931 23.817,3.674 C23.817,3.455 23.728,3.307 23.549,3.225 C23.449,3.178 23.31,3.155 23.129,3.153 L22.096,3.153 L22.096,3.152 Z" id="Shape"></path>
                <path d="M26.455,0.803 L27.332,0.803 L27.332,4.246 L29.429,4.246 L29.429,5.002 L26.455,5.002 L26.455,0.803 L26.455,0.803 Z" id="Shape"></path>
                <path d="M34.12,1.547 L31.898,1.547 L31.898,2.438 L33.937,2.438 L33.937,3.168 L31.898,3.168 L31.898,4.246 L34.222,4.246 L34.222,5.002 L31.04,5.002 L31.04,0.803 L34.119,0.803 L34.119,1.547 L34.12,1.547 Z" id="Shape"></path>
                <path d="M41.653,1.25 C41.781,1.43 41.845,1.643 41.845,1.891 C41.845,2.149 41.781,2.354 41.651,2.51 C41.579,2.596 41.471,2.676 41.331,2.748 C41.545,2.826 41.707,2.949 41.816,3.119 C41.924,3.287 41.979,3.492 41.979,3.734 C41.979,3.982 41.917,4.205 41.792,4.404 C41.712,4.535 41.613,4.644 41.494,4.734 C41.36,4.836 41.202,4.906 41.019,4.945 C40.837,4.982 40.639,5.002 40.426,5.002 L38.534,5.002 L38.534,0.803 L40.562,0.803 C41.077,0.811 41.439,0.959 41.653,1.25 L41.653,1.25 Z M39.373,1.533 L39.373,2.457 L40.394,2.457 C40.577,2.457 40.724,2.424 40.838,2.353 C40.951,2.285 41.008,2.162 41.008,1.984 C41.008,1.789 40.934,1.66 40.783,1.597 C40.653,1.554 40.487,1.533 40.287,1.533 L39.373,1.533 L39.373,1.533 Z M39.373,3.152 L39.373,4.271 L40.393,4.271 C40.575,4.271 40.717,4.248 40.818,4.199 C41.003,4.107 41.094,3.931 41.094,3.674 C41.094,3.455 41.005,3.307 40.826,3.225 C40.726,3.178 40.587,3.155 40.406,3.153 L39.373,3.153 L39.373,3.152 Z" id="Shape"></path>
                <path d="M44.532,5.002 L43.661,5.002 L43.661,0.803 L44.532,0.803 L44.532,5.002 L44.532,5.002 Z" id="Shape"></path>
                <path d="M49.401,0.803 L49.401,1.547 L48.144,1.547 L48.144,5.002 L47.261,5.002 L47.261,1.547 L46,1.547 L46,0.803 L49.401,0.803 L49.401,0.803 Z" id="Shape"></path>
                <path d="M51.57,3.705 C51.597,3.896 51.651,4.041 51.73,4.135 C51.876,4.309 52.125,4.395 52.478,4.395 C52.689,4.395 52.861,4.372 52.992,4.327 C53.243,4.239 53.368,4.077 53.368,3.841 C53.368,3.702 53.306,3.595 53.183,3.519 C53.061,3.445 52.867,3.38 52.601,3.322 L52.146,3.222 C51.7,3.124 51.392,3.017 51.226,2.902 C50.943,2.707 50.801,2.404 50.801,1.992 C50.801,1.617 50.939,1.304 51.216,1.056 C51.493,0.806 51.9,0.681 52.436,0.681 C52.884,0.681 53.266,0.8 53.582,1.035 C53.897,1.269 54.063,1.609 54.079,2.055 L53.236,2.055 C53.22,1.803 53.107,1.623 52.897,1.518 C52.756,1.448 52.583,1.413 52.374,1.413 C52.144,1.413 51.958,1.458 51.819,1.55 C51.681,1.64 51.612,1.769 51.612,1.931 C51.612,2.081 51.68,2.193 51.817,2.267 C51.905,2.318 52.09,2.374 52.374,2.441 L53.111,2.615 C53.434,2.691 53.676,2.793 53.838,2.92 C54.088,3.117 54.213,3.404 54.213,3.777 C54.213,4.162 54.066,4.48 53.769,4.732 C53.472,4.986 53.053,5.113 52.512,5.113 C51.959,5.113 51.525,4.988 51.208,4.738 C50.891,4.49 50.732,4.146 50.732,3.709 L51.57,3.709 L51.57,3.705 Z" id="Shape"></path>
            </g>
        </g>
    </g>
</svg>