<?xml version="1.0" encoding="UTF-8" standalone="no"?>
<svg width="69px" height="49px" viewBox="0 0 69 49" version="1.1" xmlns="http://www.w3.org/2000/svg" xmlns:xlink="http://www.w3.org/1999/xlink" xmlns:sketch="http://www.bohemiancoding.com/sketch/ns">
    <!-- Generator: Sketch 3.2.1 (9971) - http://www.bohemiancoding.com/sketch -->
    <title>capable-bits</title>
    <desc>Created with Sketch.</desc>
    <defs></defs>
    <g id="Page-1" stroke="none" stroke-width="1" fill="none" fill-rule="evenodd" sketch:type="MSPage">
        <g id="logotypes" sketch:type="MSLayerGroup" transform="translate(-97.000000, 0.000000)" fill="#9CA5BF">
            <g id="capable-bits" transform="translate(97.000000, 0.000000)">
                <path d="M21.1519462,8.80018087 L34.5022616,1.05614076 L47.944596,8.80018087 L34.5022616,16.5976817 L21.1519462,8.80018087 L21.1519462,8.80018087 Z" id="Fill-57" sketch:type="MSShapeGroup"></path>
                <path d="M1.05993249,16.5976817 L14.4101772,8.85357102 L27.8525116,16.5976817 L14.4101772,24.3951119 L1.05993249,16.5976817 L1.05993249,16.5976817 Z" id="Fill-83" sketch:type="MSShapeGroup"></path>
                <path d="M41.1519409,16.5976817 L54.5022563,8.85357102 L67.9445907,16.5976817 L54.5022563,24.3951119 L41.1519409,16.5976817 L41.1519409,16.5976817 Z" id="Fill-87" sketch:type="MSShapeGroup"></path>
                <path d="M21.1519462,24.3417218 L34.5022616,16.5976817 L47.944596,24.3417218 L34.5022616,32.1392226 L21.1519462,24.3417218 L21.1519462,24.3417218 Z" id="Fill-91" sketch:type="MSShapeGroup"></path>
                <text id="CAPABLE-BITS" sketch:type="MSTextLayer" font-family="Helvetica" font-size="5.83333333" font-weight="bold" sketch:alignment="middle" letter-spacing="1">
                    <tspan x="7.71160118" y="48.0014609">CAPABLE BIT</tspan>
                    <tspan x="57.4941533" y="48.0014609">S</tspan>
                </text>
                <path d="M18.1176317,28.3024609 L14.1592954,30.5985748 L14.6623506,30.5993266 L1.31210583,22.8018258 L1.55993249,23.2335764 L1.55993249,16.5976817 L0.807760846,17.0294333 L14.1580056,24.8268635 L14.4093127,24.9736436 L14.6610574,24.8276153 L28.1033917,17.030185 L27.3525116,16.5976817 L27.3525116,20.3669677 L28.3525116,20.3669677 L28.3525116,16.5976817 L27.6016315,16.1651783 L14.1592971,23.9626086 L14.6623489,23.9633603 L1.31210413,16.16593 L0.559932489,16.5976817 L0.559932489,23.2335764 L0.559932489,23.5205785 L0.807759145,23.6653271 L14.1580039,31.4628278 L14.4093127,31.6096102 L14.6610591,31.4635796 C15.6506431,30.8895511 15.6506431,30.8895511 18.6193954,29.1674657 C20.1037715,28.306423 20.1037715,28.306423 21.3407517,27.5888874 L20.838988,26.7238826 C19.6020079,27.4414182 19.6020079,27.4414182 18.1176317,28.3024609 Z" id="Stroke-86" sketch:type="MSShapeGroup"></path>
                <path d="M21.6519462,24.3417218 L20.8997739,24.773473 L34.2500893,32.5709738 L34.5013977,32.7177552 L34.7531434,32.5717249 L48.1954778,24.7742241 L47.444596,24.3417164 L47.4445253,30.9776817 L47.6936442,30.5451843 L34.2513805,38.3426145 L34.7544323,38.3433651 L21.4041169,30.5459349 L21.6519462,30.9776871 L21.6519462,24.3417218 Z M20.6519462,31.2646912 L20.8997756,31.4094393 L34.250091,39.2068695 L34.5013984,39.353649 L34.7531427,39.2076201 L48.1954064,31.4101899 L48.4445222,31.2656857 L48.4445253,30.9776924 L48.444596,24.3417271 L47.6937142,23.9092194 L34.2513798,31.7067202 L34.754434,31.7074713 L21.4041186,23.9099706 L20.6519462,24.3417218 L20.6519462,30.9776871 L20.6519462,31.2646912 Z" id="Stroke-94" sketch:type="MSShapeGroup"></path>
                <path d="M50.4138984,29.2222208 C53.2910368,30.9026761 53.2910368,30.9026761 54.250083,31.4628278 L54.5013925,31.6096106 L54.7531392,31.463579 L68.1954029,23.6660782 L68.444517,23.5215737 L68.44452,23.2335818 L68.4445907,16.597687 L67.6937106,16.1651783 L54.2513762,23.9626086 L54.754427,23.9633597 L41.4041116,16.1659295 L40.6519409,16.597687 L40.6519842,20.6592821 L41.6519842,20.6592715 L41.6519409,16.5976763 L40.8997703,17.0294339 L54.2500857,24.8268641 L54.5013925,24.9736432 L54.7531365,24.8276153 L68.1954709,17.030185 L67.4445907,16.5976763 L67.44452,23.2335711 L67.6936372,22.8010746 L54.2513735,30.5985754 L54.7544297,30.5993266 C53.7953835,30.0391748 53.7953835,30.0391748 50.9182451,28.3587196 C49.4796759,27.5184919 49.4796759,27.5184919 48.2808682,26.8183022 L47.7765215,27.6818035 C48.9753292,28.3819932 48.9753292,28.3819932 50.4138984,29.2222208 Z" id="Stroke-90" sketch:type="MSShapeGroup"></path>
                <path d="M21.6519462,8.80018087 L20.8997739,9.23193208 L34.2500893,17.0294329 L34.5013977,17.1762143 L34.7531434,17.030184 L48.1954778,9.23268325 L47.444596,8.80017555 C47.4445898,9.38397649 47.4445898,9.38397649 47.4445711,11.1353793 C47.4445618,12.0110807 47.4445618,12.0110807 47.444554,12.7408319 L48.444554,12.7408426 C48.4445618,12.0110914 48.4445618,12.0110914 48.4445711,11.13539 C48.4445898,9.38398714 48.4445898,9.38398714 48.444596,8.8001862 L47.6937142,8.3676785 L34.2513798,16.1651793 L34.754434,16.1659305 L21.4041186,8.36842966 L20.6519462,8.80018087 L20.6519462,12.6962332 L21.6519462,12.6962332 L21.6519462,8.80018087 Z" id="Stroke-60" sketch:type="MSShapeGroup"></path>
                <path d="M34.7531414,1.48864431 L34.2526701,1.48938907 L47.6950045,9.23342917 L47.6937142,8.3676785 L34.2513798,16.1651793 L34.754434,16.1659305 L21.4041186,8.36842966 L21.402826,9.23268442 L34.7531414,1.48864431 Z M20.1580157,8.79869441 L20.8997739,9.23193208 L34.2500893,17.0294329 L34.5013977,17.1762143 L34.7531434,17.030184 L48.1954778,9.23268325 L48.943648,8.79869184 L48.1941875,8.36693257 L34.7518531,0.622892464 L34.5014022,0.478609342 L34.2513818,0.623637222 L20.9010664,8.36767733 L20.1580157,8.79869441 Z" id="Stroke-58" sketch:type="MSShapeGroup"></path>
                <path d="M34.0022616,38.7751173 L35.0022616,38.7751173 L35.0022616,32.1392226 L34.0022616,32.1392226 L34.0022616,38.7751173 Z M13.9101772,31.0310772 L14.9101772,31.0310772 L14.9101772,24.3951119 L13.9101772,24.3951119 L13.9101772,31.0310772 Z M54.0022563,31.0310772 L55.0022563,31.0310772 L55.0022563,24.3951119 L54.0022563,24.3951119 L54.0022563,31.0310772 Z" id="Stroke-95" sketch:type="MSShapeGroup"></path>
                <path d="M54.7531379,9.28607357 L54.2526631,9.28681834 L67.6949975,17.030929 L67.6937106,16.1651783 L54.2513762,23.9626086 L54.754427,23.9633597 L41.4041116,16.1659295 L41.4028225,17.0301842 L54.7531379,9.28607357 Z M40.1580105,16.5961991 L40.8997703,17.0294339 L54.2500857,24.8268641 L54.5013925,24.9736432 L54.7531365,24.8276153 L68.1954709,17.030185 L68.9436427,16.5961966 L68.1941839,16.1644343 L54.7518495,8.4203237 L54.5013969,8.27603828 L54.2513748,8.42106847 L40.9010594,16.1651791 L40.1580105,16.5961991 Z" id="Stroke-88" sketch:type="MSShapeGroup"></path>
                <path d="M27.6029184,17.030929 L27.6016315,16.1651783 L14.1592971,23.9626086 L14.6623489,23.9633603 L1.31210413,16.16593 L1.31081502,17.0301836 L14.6610597,9.286073 L14.160584,9.28681834 L27.6029184,17.030929 Z M14.4093171,8.2760379 L14.1592947,8.42106905 L0.809049962,16.1651797 L0.0660059571,16.5961991 L0.807760846,17.0294333 L14.1580056,24.8268635 L14.4093127,24.9736436 L14.6610574,24.8276153 L28.1033917,17.030185 L28.8515636,16.5961966 L28.1021048,16.1644343 L14.6597704,8.4203237 L14.4093171,8.2760379 Z" id="Stroke-84" sketch:type="MSShapeGroup"></path>
                <path d="M47.6950045,24.7749701 L47.6937142,23.9092194 L34.2513798,31.7067202 L34.754434,31.7074713 L21.4041186,23.9099706 L21.402826,24.7742253 L34.7531414,17.0301852 L34.2526701,17.03093 L47.6950045,24.7749701 Z M34.5014022,16.0201502 L34.2513818,16.1651781 L20.9010664,23.9092182 L20.1580157,24.3402353 L20.8997739,24.773473 L34.2500893,32.5709738 L34.5013977,32.7177552 L34.7531434,32.5717249 L48.1954778,24.7742241 L48.943648,24.3402327 L48.1941875,23.9084735 L34.7518531,16.1644334 L34.5014022,16.0201502 Z" id="Stroke-92" sketch:type="MSShapeGroup"></path>
            </g>
        </g>
    </g>
</svg>