<?xml version="1.0" encoding="UTF-8" standalone="no"?>
<svg width="69px" height="49px" viewBox="0 0 69 49" version="1.1" xmlns="http://www.w3.org/2000/svg" xmlns:xlink="http://www.w3.org/1999/xlink" xmlns:sketch="http://www.bohemiancoding.com/sketch/ns">
    <!-- Generator: Sketch 3.2.1 (9971) - http://www.bohemiancoding.com/sketch -->
    <title>capable-bits</title>
    <desc>Created with Sketch.</desc>
    <defs></defs>
    <g id="Page-1" stroke="none" stroke-width="1" fill="none" fill-rule="evenodd" sketch:type="MSPage">
        <g id="logotypes" sketch:type="MSLayerGroup" transform="translate(-97.000000, 0.000000)" fill="#9CA5BF">
            <g id="capable-bits" transform="translate(97.000000, 0.000000)" sketch:type="MSShapeGroup">
                <path d="M21.1519462,8.80018087 L34.5022616,1.05614076 L47.944596,8.80018087 L34.5022616,16.5976817 L21.1519462,8.80018087 L21.1519462,8.80018087 Z" id="Fill-57"></path>
                <path d="M1.05993249,16.5976817 L14.4101772,8.85357102 L27.8525116,16.5976817 L14.4101772,24.3951119 L1.05993249,16.5976817 L1.05993249,16.5976817 Z" id="Fill-83"></path>
                <path d="M41.1519409,16.5976817 L54.5022563,8.85357102 L67.9445907,16.5976817 L54.5022563,24.3951119 L41.1519409,16.5976817 L41.1519409,16.5976817 Z" id="Fill-87"></path>
                <path d="M21.1519462,24.3417218 L34.5022616,16.5976817 L47.944596,24.3417218 L34.5022616,32.1392226 L21.1519462,24.3417218 L21.1519462,24.3417218 Z" id="Fill-91"></path>
                <path d="M18.1176317,28.3024609 L14.1592954,30.5985748 L14.6623506,30.5993266 L1.31210583,22.8018258 L1.55993249,23.2335764 L1.55993249,16.5976817 L0.807760846,17.0294333 L14.1580056,24.8268635 L14.4093127,24.9736436 L14.6610574,24.8276153 L28.1033917,17.030185 L27.3525116,16.5976817 L27.3525116,20.3669677 L28.3525116,20.3669677 L28.3525116,16.5976817 L27.6016315,16.1651783 L14.1592971,23.9626086 L14.6623489,23.9633603 L1.31210413,16.16593 L0.559932489,16.5976817 L0.559932489,23.2335764 L0.559932489,23.5205785 L0.807759145,23.6653271 L14.1580039,31.4628278 L14.4093127,31.6096102 L14.6610591,31.4635796 C15.6506431,30.8895511 15.6506431,30.8895511 18.6193954,29.1674657 C20.1037715,28.306423 20.1037715,28.306423 21.3407517,27.5888874 L20.838988,26.7238826 C19.6020079,27.4414182 19.6020079,27.4414182 18.1176317,28.3024609 Z" id="Stroke-86"></path>
                <path d="M21.6519462,24.3417218 L20.8997739,24.773473 L34.2500893,32.5709738 L34.5013977,32.7177552 L34.7531434,32.5717249 L48.1954778,24.7742241 L47.444596,24.3417164 L47.4445253,30.9776817 L47.6936442,30.5451843 L34.2513805,38.3426145 L34.7544323,38.3433651 L21.4041169,30.5459349 L21.6519462,30.9776871 L21.6519462,24.3417218 Z M20.6519462,31.2646912 L20.8997756,31.4094393 L34.250091,39.2068695 L34.5013984,39.353649 L34.7531427,39.2076201 L48.1954064,31.4101899 L48.4445222,31.2656857 L48.4445253,30.9776924 L48.444596,24.3417271 L47.6937142,23.9092194 L34.2513798,31.7067202 L34.754434,31.7074713 L21.4041186,23.9099706 L20.6519462,24.3417218 L20.6519462,30.9776871 L20.6519462,31.2646912 Z" id="Stroke-94"></path>
                <path d="M50.4138984,29.2222208 C53.2910368,30.9026761 53.2910368,30.9026761 54.250083,31.4628278 L54.5013925,31.6096106 L54.7531392,31.463579 L68.1954029,23.6660782 L68.444517,23.5215737 L68.44452,23.2335818 L68.4445907,16.597687 L67.6937106,16.1651783 L54.2513762,23.9626086 L54.754427,23.9633597 L41.4041116,16.1659295 L40.6519409,16.597687 L40.6519842,20.6592821 L41.6519842,20.6592715 L41.6519409,16.5976763 L40.8997703,17.0294339 L54.2500857,24.8268641 L54.5013925,24.9736432 L54.7531365,24.8276153 L68.1954709,17.030185 L67.4445907,16.5976763 L67.44452,23.2335711 L67.6936372,22.8010746 L54.2513735,30.5985754 L54.7544297,30.5993266 C53.7953835,30.0391748 53.7953835,30.0391748 50.9182451,28.3587196 C49.4796759,27.5184919 49.4796759,27.5184919 48.2808682,26.8183022 L47.7765215,27.6818035 C48.9753292,28.3819932 48.9753292,28.3819932 50.4138984,29.2222208 Z" id="Stroke-90"></path>
                <path d="M21.6519462,8.80018087 L20.8997739,9.23193208 L34.2500893,17.0294329 L34.5013977,17.1762143 L34.7531434,17.030184 L48.1954778,9.23268325 L47.444596,8.80017555 C47.4445898,9.38397649 47.4445898,9.38397649 47.4445711,11.1353793 C47.4445618,12.0110807 47.4445618,12.0110807 47.444554,12.7408319 L48.444554,12.7408426 C48.4445618,12.0110914 48.4445618,12.0110914 48.4445711,11.13539 C48.4445898,9.38398714 48.4445898,9.38398714 48.444596,8.8001862 L47.6937142,8.3676785 L34.2513798,16.1651793 L34.754434,16.1659305 L21.4041186,8.36842966 L20.6519462,8.80018087 L20.6519462,12.6962332 L21.6519462,12.6962332 L21.6519462,8.80018087 Z" id="Stroke-60"></path>
                <path d="M34.7531414,1.48864431 L34.2526701,1.48938907 L47.6950045,9.23342917 L47.6937142,8.3676785 L34.2513798,16.1651793 L34.754434,16.1659305 L21.4041186,8.36842966 L21.402826,9.23268442 L34.7531414,1.48864431 Z M20.1580157,8.79869441 L20.8997739,9.23193208 L34.2500893,17.0294329 L34.5013977,17.1762143 L34.7531434,17.030184 L48.1954778,9.23268325 L48.943648,8.79869184 L48.1941875,8.36693257 L34.7518531,0.622892464 L34.5014022,0.478609342 L34.2513818,0.623637222 L20.9010664,8.36767733 L20.1580157,8.79869441 Z" id="Stroke-58"></path>
                <path d="M34.0022616,38.7751173 L35.0022616,38.7751173 L35.0022616,32.1392226 L34.0022616,32.1392226 L34.0022616,38.7751173 Z M13.9101772,31.0310772 L14.9101772,31.0310772 L14.9101772,24.3951119 L13.9101772,24.3951119 L13.9101772,31.0310772 Z M54.0022563,31.0310772 L55.0022563,31.0310772 L55.0022563,24.3951119 L54.0022563,24.3951119 L54.0022563,31.0310772 Z" id="Stroke-95"></path>
                <path d="M54.7531379,9.28607357 L54.2526631,9.28681834 L67.6949975,17.030929 L67.6937106,16.1651783 L54.2513762,23.9626086 L54.754427,23.9633597 L41.4041116,16.1659295 L41.4028225,17.0301842 L54.7531379,9.28607357 Z M40.1580105,16.5961991 L40.8997703,17.0294339 L54.2500857,24.8268641 L54.5013925,24.9736432 L54.7531365,24.8276153 L68.1954709,17.030185 L68.9436427,16.5961966 L68.1941839,16.1644343 L54.7518495,8.4203237 L54.5013969,8.27603828 L54.2513748,8.42106847 L40.9010594,16.1651791 L40.1580105,16.5961991 Z" id="Stroke-88"></path>
                <path d="M27.6029184,17.030929 L27.6016315,16.1651783 L14.1592971,23.9626086 L14.6623489,23.9633603 L1.31210413,16.16593 L1.31081502,17.0301836 L14.6610597,9.286073 L14.160584,9.28681834 L27.6029184,17.030929 Z M14.4093171,8.2760379 L14.1592947,8.42106905 L0.809049962,16.1651797 L0.0660059571,16.5961991 L0.807760846,17.0294333 L14.1580056,24.8268635 L14.4093127,24.9736436 L14.6610574,24.8276153 L28.1033917,17.030185 L28.8515636,16.5961966 L28.1021048,16.1644343 L14.6597704,8.4203237 L14.4093171,8.2760379 Z" id="Stroke-84"></path>
                <path d="M47.6950045,24.7749701 L47.6937142,23.9092194 L34.2513798,31.7067202 L34.754434,31.7074713 L21.4041186,23.9099706 L21.402826,24.7742253 L34.7531414,17.0301852 L34.2526701,17.03093 L47.6950045,24.7749701 Z M34.5014022,16.0201502 L34.2513818,16.1651781 L20.9010664,23.9092182 L20.1580157,24.3402353 L20.8997739,24.773473 L34.2500893,32.5709738 L34.5013977,32.7177552 L34.7531434,32.5717249 L48.1954778,24.7742241 L48.943648,24.3402327 L48.1941875,23.9084735 L34.7518531,16.1644334 L34.5014022,16.0201502 Z" id="Stroke-92"></path>
                <path d="M8.56324506,44.2416953 C8.90504364,43.8960989 9.33988087,43.7233034 9.86776979,43.7233034 C10.5741535,43.7233034 11.0906414,43.9549634 11.417249,44.4182903 C11.5976427,44.678437 11.6944841,44.9395293 11.7077763,45.2015749 L10.8304977,45.2015749 C10.7735312,45.0002935 10.7004254,44.8483853 10.611178,44.7458457 C10.451672,44.5635531 10.2152649,44.4724082 9.90194948,44.4724082 C9.58293747,44.4724082 9.33133951,44.6010554 9.14714805,44.8583538 C8.96295659,45.1156522 8.87086224,45.4797572 8.87086224,45.9506797 C8.87086224,46.4216022 8.96817844,46.774314 9.16281374,47.0088258 C9.35744905,47.2433376 9.60477459,47.3605918 9.90479779,47.3605918 C10.2124165,47.3605918 10.4469248,47.2599526 10.6083297,47.0586712 C10.6975771,46.950435 10.7716323,46.7880831 10.8304977,46.5716107 L11.6992314,46.5716107 C11.6232761,47.029241 11.4291185,47.4014161 11.1167525,47.6881471 C10.8043866,47.9748782 10.4042034,48.1182415 9.91619102,48.1182415 C9.31234685,48.1182415 8.83763372,47.9245586 8.49203737,47.5371868 C8.14644103,47.1479162 7.97364545,46.6143387 7.97364545,45.9364381 C7.97364545,45.2034701 8.17017668,44.6385614 8.56324506,44.2416953 L8.56324506,44.2416953 Z M14.5164514,46.4149538 L15.5817184,46.4149538 L15.0576298,44.7629355 L14.5164514,46.4149538 Z M14.5705693,43.803056 L15.5617802,43.803056 L17.0485966,48.0014609 L16.097262,48.0014609 L15.8266728,47.1384238 L14.2800419,47.1384238 L13.9895146,48.0014609 L13.0723596,48.0014609 L14.5705693,43.803056 Z M20.7730025,44.6717897 C20.6581202,44.5787445 20.4971925,44.5322226 20.2902145,44.5322226 L19.4727503,44.5322226 L19.4727503,45.768388 L20.2902145,45.768388 C20.4971925,45.768388 20.6581202,45.7180684 20.7730025,45.6174277 C20.8878848,45.516787 20.9453251,45.3572834 20.9453251,45.1389121 C20.9453251,44.9205408 20.8878848,44.7648349 20.7730025,44.6717897 L20.7730025,44.6717897 Z M21.4380823,46.1842409 C21.18743,46.38932 20.8294963,46.4918581 20.3642704,46.4918581 L19.4727503,46.4918581 L19.4727503,48.0014609 L18.6011682,48.0014609 L18.6011682,43.803056 L20.4297815,43.803056 C20.8513331,43.803056 21.18743,43.9112906 21.4380823,44.127763 C21.6887346,44.3442354 21.8140589,44.6793829 21.8140589,45.1332155 C21.8140589,45.6288234 21.6887346,45.9791617 21.4380823,46.1842409 L21.4380823,46.1842409 Z M24.1897913,46.4149538 L25.2550582,46.4149538 L24.7309697,44.7629355 L24.1897913,46.4149538 Z M24.2439091,43.803056 L25.2351201,43.803056 L26.7219365,48.0014609 L25.7706018,48.0014609 L25.5000126,47.1384238 L23.9533818,47.1384238 L23.6628544,48.0014609 L22.7456995,48.0014609 L24.2439091,43.803056 Z M29.1062138,44.5322226 L29.1062138,45.4579225 L30.137301,45.4579225 C30.3214925,45.4579225 30.4710271,45.4232685 30.5859094,45.3539593 C30.7007917,45.2846501 30.758232,45.1616994 30.758232,44.9851035 C30.758232,44.7895188 30.6822779,44.6603968 30.5303675,44.5977337 C30.3993447,44.5540594 30.2322456,44.5322226 30.0290654,44.5322226 L29.1062138,44.5322226 Z M29.1062138,46.1529095 L29.1062138,47.2722943 L30.137301,47.2722943 C30.3214925,47.2722943 30.4648559,47.2476092 30.5673954,47.1982383 C30.7534858,47.107092 30.8465296,46.9323975 30.8465296,46.6741497 C30.8465296,46.4557784 30.7563341,46.3057691 30.5759404,46.2241172 C30.4752997,46.178544 30.3338352,46.1548084 30.1515426,46.1529095 L29.1062138,46.1529095 Z M31.4019495,44.2502402 C31.5310734,44.428735 31.5956344,44.6423559 31.5956344,44.8911094 C31.5956344,45.1474583 31.5310734,45.3534838 31.4019495,45.509192 C31.329792,45.5965406 31.2234563,45.6762924 31.0829391,45.7484499 C31.2975126,45.826304 31.4593898,45.9497294 31.5685755,46.1187298 C31.6777611,46.2877302 31.7323531,46.4928063 31.7323531,46.7339642 C31.7323531,46.9827176 31.669691,47.2058328 31.5443648,47.4033164 C31.4646118,47.5343392 31.3649221,47.6444726 31.2452926,47.73372 C31.110472,47.8362596 30.9514431,47.9065172 30.7682011,47.9444948 C30.5849591,47.9824724 30.3860543,48.0014609 30.1714807,48.0014609 L28.2688115,48.0014609 L28.2688115,43.803056 L30.3081995,43.803056 C30.8227962,43.8106515 31.1873759,43.9597114 31.4019495,44.2502402 L31.4019495,44.2502402 Z M33.4672164,43.803056 L34.3444951,43.803056 L34.3444951,47.2466595 L36.4237594,47.2466595 L36.4237594,48.0014609 L33.4672164,48.0014609 L33.4672164,43.803056 Z M41.1351038,44.5464642 L38.9134241,44.5464642 L38.9134241,45.4379844 L40.9528121,45.4379844 L40.9528121,46.167151 L38.9134241,46.167151 L38.9134241,47.2466595 L41.2376428,47.2466595 L41.2376428,48.0014609 L38.0560836,48.0014609 L38.0560836,43.803056 L41.1351038,43.803056 L41.1351038,44.5464642 Z M46.3935673,44.5322226 L46.3935673,45.4579225 L47.4246546,45.4579225 C47.608846,45.4579225 47.7583807,45.4232685 47.873263,45.3539593 C47.9881453,45.2846501 48.0455856,45.1616994 48.0455856,44.9851035 C48.0455856,44.7895188 47.9696314,44.6603968 47.817721,44.5977337 C47.6866982,44.5540594 47.5195992,44.5322226 47.3164189,44.5322226 L46.3935673,44.5322226 Z M46.3935673,46.1529095 L46.3935673,47.2722943 L47.4246546,47.2722943 C47.608846,47.2722943 47.7522094,47.2476092 47.854749,47.1982383 C48.0408393,47.107092 48.1338831,46.9323975 48.1338831,46.6741497 C48.1338831,46.4557784 48.0436876,46.3057691 47.8632939,46.2241172 C47.7626532,46.178544 47.6211887,46.1548084 47.4388961,46.1529095 L46.3935673,46.1529095 Z M48.689303,44.2502402 C48.8184269,44.428735 48.8829879,44.6423559 48.8829879,44.8911094 C48.8829879,45.1474583 48.8184269,45.3534838 48.689303,45.509192 C48.6171455,45.5965406 48.5108098,45.6762924 48.3702926,45.7484499 C48.5848661,45.826304 48.7467433,45.9497294 48.855929,46.1187298 C48.9651146,46.2877302 49.0197066,46.4928063 49.0197066,46.7339642 C49.0197066,46.9827176 48.9570445,47.2058328 48.8317184,47.4033164 C48.7519654,47.5343392 48.6522756,47.6444726 48.5326461,47.73372 C48.3978255,47.8362596 48.2387966,47.9065172 48.0555546,47.9444948 C47.8723126,47.9824724 47.6734078,48.0014609 47.4588342,48.0014609 L45.556165,48.0014609 L45.556165,43.803056 L47.595553,43.803056 C48.1101498,43.8106515 48.4747294,43.9597114 48.689303,44.2502402 L48.689303,44.2502402 Z M51.5577926,48.0014609 L50.6862106,48.0014609 L50.6862106,43.803056 L51.5577926,43.803056 L51.5577926,48.0014609 Z M56.4257939,43.803056 L56.4257939,44.5464642 L55.1696904,44.5464642 L55.1696904,48.0014609 L54.2867151,48.0014609 L54.2867151,44.5464642 L53.024915,44.5464642 L53.024915,43.803056 L56.4257939,43.803056 Z M58.5736617,46.7054811 C58.6002461,46.8972681 58.6524645,47.0406315 58.7303186,47.1355755 C58.8727347,47.3083737 59.1167373,47.3947715 59.4623336,47.3947715 C59.6693116,47.3947715 59.8373601,47.3719852 59.966484,47.3264121 C60.2114396,47.2390636 60.3339156,47.0767117 60.3339156,46.8393515 C60.3339156,46.7007332 60.2731523,46.5934481 60.151624,46.5174928 C60.0300956,46.4434365 59.8392609,46.377926 59.5791142,46.3209596 L59.1347783,46.2212689 C58.6980356,46.122527 58.3961181,46.0152419 58.2290165,45.8994101 C57.9460833,45.7057243 57.8046188,45.4028573 57.8046188,44.9908001 C57.8046188,44.6148217 57.9413361,44.3024604 58.214775,44.053707 C58.4882139,43.8049536 58.8898212,43.6805788 59.419609,43.6805788 C59.8620483,43.6805788 60.2394452,43.7978329 60.5518111,44.0323447 C60.8641771,44.2668565 61.0279531,44.6072258 61.0431441,45.0534629 L60.2000452,45.0534629 C60.1848541,44.8009117 60.0747207,44.6214701 59.8696415,44.5151328 C59.7329221,44.4448742 59.5629748,44.4097454 59.3597945,44.4097454 C59.1338277,44.4097454 58.9534367,44.4553179 58.8186161,44.5464642 C58.6837956,44.6376105 58.6163863,44.7648336 58.6163863,44.9281374 C58.6163863,45.078149 58.6828462,45.1901813 58.8157678,45.2642376 C58.9012175,45.3136085 59.0835073,45.3715235 59.3626428,45.4379844 L60.0861129,45.6117311 C60.403226,45.6876863 60.6424814,45.789275 60.8038863,45.9165 C61.0545386,46.1139836 61.1798629,46.3997609 61.1798629,46.7738405 C61.1798629,47.1574144 61.0331765,47.475947 60.7397994,47.7294476 C60.4464223,47.9829482 60.0319977,48.1096966 59.4965133,48.1096966 C58.9496356,48.1096966 58.5195455,47.984847 58.2062301,47.7351442 C57.8929147,47.4854413 57.7362594,47.1422237 57.7362594,46.7054811 L58.5736617,46.7054811 Z" id="CAPABLE-BITS"></path>
            </g>
        </g>
    </g>
</svg>