<?xml version="1.0" encoding="UTF-8" standalone="no"?>
<svg width="69px" height="50px" viewBox="0 0 69 50" version="1.1" xmlns="http://www.w3.org/2000/svg" xmlns:xlink="http://www.w3.org/1999/xlink" xmlns:sketch="http://www.bohemiancoding.com/sketch/ns">
    <!-- Generator: Sketch 3.2.1 (9971) - http://www.bohemiancoding.com/sketch -->
    <title>capable-bits</title>
    <desc>Created with Sketch.</desc>
    <defs></defs>
    <g id="Page-1" stroke="none" stroke-width="1" fill="none" fill-rule="evenodd" sketch:type="MSPage">
        <g id="logotypes" sketch:type="MSLayerGroup" transform="translate(-164.000000, 0.000000)" fill="#9CA5BF">
            <path d="M176.716418,45.2233507 C177.065812,44.8700744 177.510312,44.6934389 178.049932,44.6934389 C178.772013,44.6934389 179.299979,44.930247 179.633844,45.4038701 C179.818246,45.6697978 179.91724,45.9366921 179.930828,46.2045609 L179.034054,46.2045609 C178.975821,45.9988066 178.901091,45.8435227 178.80986,45.7387044 C178.64681,45.5523609 178.405149,45.4591905 178.084871,45.4591905 C177.75877,45.4591905 177.501581,45.5906966 177.313296,45.8537127 C177.125012,46.1167289 177.030871,46.4889251 177.030871,46.9703125 C177.030871,47.4516999 177.13035,47.8122498 177.32931,48.051973 C177.528271,48.2916962 177.781092,48.411556 178.087783,48.411556 C178.402238,48.411556 178.641957,48.3086804 178.806949,48.1029261 C178.898179,47.9922846 178.97388,47.8263249 179.034054,47.605042 L179.922093,47.605042 C179.84445,48.0728418 179.645977,48.4532875 179.32667,48.7463903 C179.007363,49.0394932 178.598286,49.1860424 178.099429,49.1860424 C177.482166,49.1860424 176.996904,48.9880554 176.643628,48.5920754 C176.290351,48.1941543 176.113716,47.6487195 176.113716,46.9557545 C176.113716,46.2064982 176.314615,45.6290361 176.716418,45.2233507 L176.716418,45.2233507 Z M181.779695,47.4449038 L182.868635,47.4449038 L182.3329,45.756174 L181.779695,47.4449038 Z M181.835016,44.7749638 L182.848254,44.7749638 L184.368111,49.0666667 L183.395635,49.0666667 L183.119033,48.184451 L181.538032,48.184451 L181.241049,49.0666667 L180.303513,49.0666667 L181.835016,44.7749638 Z M187.153059,45.6630027 C187.035624,45.5678899 186.87112,45.5203342 186.659542,45.5203342 L185.823912,45.5203342 L185.823912,46.7839699 L186.659542,46.7839699 C186.87112,46.7839699 187.035624,46.7325321 187.153059,46.6296549 C187.270494,46.5267778 187.329211,46.3637297 187.329211,46.1405056 C187.329211,45.9172816 187.270494,45.7581156 187.153059,45.6630027 L187.153059,45.6630027 Z M187.832918,47.2090639 C187.576696,47.4187004 187.210808,47.5235171 186.735244,47.5235171 L185.823912,47.5235171 L185.823912,49.0666667 L184.932962,49.0666667 L184.932962,44.7749638 L186.802211,44.7749638 C187.23313,44.7749638 187.576696,44.8856036 187.832918,45.1068866 C188.08914,45.3281695 188.21725,45.6707647 188.21725,46.1346824 C188.21725,46.6413039 188.08914,46.9994275 187.832918,47.2090639 L187.832918,47.2090639 Z M189.623554,47.4449038 L190.712494,47.4449038 L190.176759,45.756174 L189.623554,47.4449038 Z M189.678874,44.7749638 L190.692112,44.7749638 L192.211969,49.0666667 L191.239494,49.0666667 L190.962891,48.184451 L189.381891,48.184451 L189.084907,49.0666667 L188.147371,49.0666667 L189.678874,44.7749638 Z M193.627008,45.5203342 L193.627008,46.4666052 L194.681008,46.4666052 C194.869293,46.4666052 195.022151,46.431181 195.139586,46.3603317 C195.257021,46.2894823 195.315738,46.1637994 195.315738,45.9832791 C195.315738,45.783348 195.238096,45.6513567 195.08281,45.5873011 C194.948875,45.5426563 194.778063,45.5203342 194.570367,45.5203342 L193.627008,45.5203342 Z M193.627008,47.1770363 L193.627008,48.3212963 L194.681008,48.3212963 C194.869293,48.3212963 195.015842,48.2960627 195.12066,48.2455946 C195.310886,48.1524229 195.405998,47.9738463 195.405998,47.7098597 C195.405998,47.4866357 195.313798,47.3332928 195.129395,47.2498264 C195.026518,47.2032405 194.88191,47.1789774 194.695566,47.1770363 L193.627008,47.1770363 Z M195.97376,45.2320855 C196.105753,45.4145469 196.171749,45.6329149 196.171749,45.8871962 C196.171749,46.1492418 196.105753,46.3598456 195.97376,46.519014 C195.899999,46.6083036 195.7913,46.6898277 195.647661,46.7635887 C195.867002,46.8431729 196.032477,46.9693411 196.144089,47.1420971 C196.255701,47.3148531 196.311506,47.5244864 196.311506,47.7710033 C196.311506,48.0252846 196.247451,48.2533579 196.11934,48.45523 C196.037815,48.5891644 195.93591,48.7017453 195.813622,48.792976 C195.675805,48.8977942 195.513243,48.969613 195.325928,49.0084346 C195.138614,49.0472562 194.935289,49.0666667 194.715948,49.0666667 L192.770997,49.0666667 L192.770997,44.7749638 L194.855705,44.7749638 C195.381737,44.7827281 195.754418,44.9351005 195.97376,45.2320855 L195.97376,45.2320855 Z M197.0627,44.7749638 L197.959473,44.7749638 L197.959473,48.2950919 L200.084944,48.2950919 L200.084944,49.0666667 L197.0627,49.0666667 L197.0627,44.7749638 Z M203.878762,45.5348922 L201.607712,45.5348922 L201.607712,46.446224 L203.69242,46.446224 L203.69242,47.1915943 L201.607712,47.1915943 L201.607712,48.2950919 L203.98358,48.2950919 L203.98358,49.0666667 L200.731319,49.0666667 L200.731319,44.7749638 L203.878762,44.7749638 L203.878762,45.5348922 Z M207.209636,45.5203342 L207.209636,46.4666052 L208.263636,46.4666052 C208.451921,46.4666052 208.604779,46.431181 208.722214,46.3603317 C208.839649,46.2894823 208.898366,46.1637994 208.898366,45.9832791 C208.898366,45.783348 208.820724,45.6513567 208.665438,45.5873011 C208.531503,45.5426563 208.360691,45.5203342 208.152996,45.5203342 L207.209636,45.5203342 Z M207.209636,47.1770363 L207.209636,48.3212963 L208.263636,48.3212963 C208.451921,48.3212963 208.59847,48.2960627 208.703289,48.2455946 C208.893514,48.1524229 208.988626,47.9738463 208.988626,47.7098597 C208.988626,47.4866357 208.896426,47.3332928 208.712023,47.2498264 C208.609146,47.2032405 208.464538,47.1789774 208.278194,47.1770363 L207.209636,47.1770363 Z M209.556388,45.2320855 C209.688382,45.4145469 209.754377,45.6329149 209.754377,45.8871962 C209.754377,46.1492418 209.688382,46.3598456 209.556388,46.519014 C209.482627,46.6083036 209.373928,46.6898277 209.230289,46.7635887 C209.449631,46.8431729 209.615105,46.9693411 209.726717,47.1420971 C209.838329,47.3148531 209.894134,47.5244864 209.894134,47.7710033 C209.894134,48.0252846 209.83008,48.2533579 209.701968,48.45523 C209.620443,48.5891644 209.518538,48.7017453 209.39625,48.792976 C209.258433,48.8977942 209.095871,48.969613 208.908557,49.0084346 C208.721242,49.0472562 208.517918,49.0666667 208.298576,49.0666667 L206.353625,49.0666667 L206.353625,44.7749638 L208.438333,44.7749638 C208.964365,44.7827281 209.337046,44.9351005 209.556388,45.2320855 L209.556388,45.2320855 Z M211.4664,49.0666667 L210.575449,49.0666667 L210.575449,44.7749638 L211.4664,44.7749638 L211.4664,49.0666667 Z M215.420357,44.7749638 L215.420357,45.5348922 L214.13634,45.5348922 L214.13634,49.0666667 L213.233743,49.0666667 L213.233743,45.5348922 L211.943903,45.5348922 L211.943903,44.7749638 L215.420357,44.7749638 Z M212.25253,7.97333333 L212.3,7.97333333 L212.3,12.0859637 L219.152604,8.12666667 L233,16.0726452 L232.952655,16.1 L232.952655,16.1 L233,16.1 L233,23.0766667 L232.872319,23.0766667 L219.251253,30.9407924 L219.261921,30.9469511 L219.2,31.0542008 L212.209137,27.018024 L212.209137,27.018024 L212.209137,30.837987 L212.209137,30.837987 L212.218677,30.8324786 L212.302555,30.9777581 L198.576667,38.9024032 L198.576667,38.9955361 L198.423333,38.9955361 L198.423333,38.9141126 L184.692375,30.9865401 L184.767126,30.8570681 L184.776667,30.8625765 L184.776667,27.02911 L177.805005,31.0542006 L177.785329,31.0201198 L177.785329,31.0201198 L177.765652,31.0542007 L164.080948,23.1533333 L164,23.1533333 L164,16.1 L164.047021,16.1 L164.047021,16.1 L164,16.0726452 L177.752568,8.12666667 L184.7,12.1132648 L184.7,7.97333333 L184.747145,7.97333333 L184.7,7.9459062 L198.452604,0 L212.3,7.9459062 L212.25253,7.97333333 Z M212.146667,8.03449927 L212.146667,12.1745566 L205.4,16.0726452 L205.447021,16.1 L205.4,16.1 L205.4,18.7151802 L205.4,18.7151802 L204.075517,19.4798707 L198.452604,16.2533333 L192.906194,19.4579084 L191.605005,18.7066666 L191.6,18.715336 L191.6,18.715336 L191.6,16.1 L191.552655,16.1 L191.6,16.0726452 L184.853333,12.2012511 L184.853333,8.03510991 L198.452604,15.9466667 L212.146667,8.03449927 Z M164.153333,16.1618483 L164.153333,23.0224954 L164.153333,23.0224954 L177.723333,30.8571386 L177.723333,30.8571386 L177.723333,24.056326 L164.153333,16.1618483 L164.153333,16.1618483 Z M177.876667,24.0016321 L177.876667,30.8698272 L184.776667,26.8861103 L184.776667,24.2438413 L184.776667,24.2438413 L184.7,24.1992395 L191.446667,20.3011864 L191.446667,16.1612372 L177.876667,24.0016321 L177.876667,24.0016321 Z M232.846667,16.1612374 L232.846667,22.9500987 L232.846667,22.9500987 L219.276667,30.7847418 L219.276667,30.7847418 L219.276667,24.001653 L232.846667,16.1612374 L232.846667,16.1612374 Z M219.123333,24.0563049 L219.123333,30.8669377 L212.209137,26.8750244 L212.209137,24.2517386 L212.3,24.1992395 L205.553333,20.3278704 L205.553333,16.1618481 L219.123333,24.0563049 L219.123333,24.0563049 Z M184.93,24.333045 L184.93,30.9511036 L184.93,30.9511036 L198.423333,38.7414832 L198.423333,32.1829714 L184.93,24.333045 L184.93,24.333045 Z M198.576667,32.128319 L198.576667,38.7086973 L212.055803,30.9265141 L212.055803,24.3403316 L198.576667,32.128319 L198.576667,32.128319 Z M191.6,20.2125943 L191.6,18.8467765 L192.782398,19.5294345 L191.6,20.2125943 L191.6,20.2125943 Z M204.199738,19.5511512 L205.4,18.8581798 L205.4,20.2398848 L204.199738,19.5511512 L204.199738,19.5511512 Z M219.128816,30.8701033 L219.130953,30.8688695 L219.126679,30.8688695 L219.128816,30.8701033 L219.128816,30.8701033 Z M216.593733,47.7418873 C216.620908,47.9379362 216.674287,48.0844854 216.753871,48.1815394 C216.899452,48.3581775 217.148877,48.4464952 217.502153,48.4464952 C217.71373,48.4464952 217.885513,48.4232026 218.017507,48.3766168 C218.267906,48.2873271 218.393103,48.1213674 218.393103,47.8787326 C218.393103,47.7370339 218.33099,47.6273646 218.206761,47.5497215 C218.082532,47.4740194 217.887456,47.4070532 217.621529,47.3488209 L217.167318,47.2469148 C216.72087,47.1459787 216.412244,47.0363094 216.241429,46.9179036 C215.952208,46.7199137 215.8076,46.4103163 215.8076,45.9891023 C215.8076,45.6047688 215.947355,45.2854662 216.226871,45.0311849 C216.506386,44.7769036 216.916918,44.6497649 217.458479,44.6497649 C217.91075,44.6497649 218.296534,44.7696247 218.615841,45.0093479 C218.935148,45.2490711 219.102564,45.5970041 219.118092,46.0531576 L218.256258,46.0531576 C218.240729,45.7949941 218.128148,45.611565 217.918512,45.5028646 C217.778754,45.4310447 217.60503,45.3951353 217.397335,45.3951353 C217.166347,45.3951353 216.981947,45.4417205 216.844131,45.5348922 C216.706314,45.628064 216.637407,45.7581143 216.637407,45.925047 C216.637407,46.0783922 216.705343,46.1929141 216.841219,46.2686162 C216.928567,46.3190842 217.114908,46.3782862 217.400247,46.446224 L218.139794,46.6238317 C218.463954,46.7014749 218.708526,46.805321 218.873518,46.9353733 C219.12974,47.1372454 219.257849,47.4293733 219.257849,47.8117658 C219.257849,48.2038636 219.107903,48.5294746 218.808007,48.7886086 C218.50811,49.0477425 218.084476,49.1773076 217.537092,49.1773076 C216.978061,49.1773076 216.538414,49.0496836 216.218136,48.7944318 C215.897858,48.53918 215.737721,48.1883353 215.737721,47.7418873 L216.593733,47.7418873 Z" id="capable-bits" sketch:type="MSShapeGroup"></path>
        </g>
    </g>
</svg>