<?xml version="1.0" encoding="UTF-8" standalone="no"?>
<svg width="60px" height="58px" viewBox="0 0 60 58" version="1.1" xmlns="http://www.w3.org/2000/svg" xmlns:xlink="http://www.w3.org/1999/xlink" xmlns:sketch="http://www.bohemiancoding.com/sketch/ns">
    <!-- Generator: Sketch 3.2.1 (9971) - http://www.bohemiancoding.com/sketch -->
    <title>chart</title>
    <desc>Created with Sketch.</desc>
    <defs></defs>
    <g id="Page-1" stroke="none" stroke-width="1" fill="none" fill-rule="evenodd" sketch:type="MSPage">
        <g id="gradient-icons" sketch:type="MSLayerGroup" transform="translate(-83.000000, -93.000000)" fill="#4CAF50">
            <path d="M139,148.99425 L142,148.99425 C142.55,148.99425 143,149.44225 143,149.99425 C143,150.54625 142.55,150.99525 142,150.99525 L84,150.99525 C83.45,150.99525 83,150.54625 83,149.99425 C83,149.44225 83.45,148.99425 84,148.99425 L87,148.99425 L87,148.99425 L87,141.99525 C87,141.44225 87.45,140.99425 88,140.99425 L96,140.99425 C96.55,140.99425 97,141.44225 97,141.99525 L97,148.99425 L101,148.99425 L101,131.99425 C101,131.44225 101.45,130.99425 102,130.99425 L110,130.99425 C110.55,130.99425 111,131.44225 111,131.99425 L111,148.99425 L111,148.99425 L115,148.99425 L115,148.99425 L115,121.99325 C115,121.44125 115.45,120.99425 116,120.99425 L124,120.99425 C124.55,120.99425 125,121.44125 125,121.99325 L125,148.99425 L129,148.99425 L129,111.99525 C129,111.44225 129.45,110.99425 130,110.99425 L138,110.99425 C138.55,110.99425 139,111.44225 139,111.99525 L139,148.99425 L139,148.99425 Z M133.43399,95.7155326 L90.4489644,124.001291 C89.9889644,124.304291 89.8589644,124.925291 90.1689644,125.386291 C90.3589644,125.679291 90.6789644,125.837291 90.9989644,125.837291 C91.1889644,125.837291 91.3789644,125.783291 91.5489644,125.671291 L134.736846,97.2520455 L134.007957,103.883286 C133.937957,104.433286 134.337957,104.926286 134.887957,104.988286 L134.997957,104.993286 C135.497957,104.993286 135.937957,104.615286 135.987957,104.104286 L136.908075,95.8232192 C137.36067,95.5180721 137.486908,94.9032261 137.178964,94.4442908 C136.955756,94.101294 136.555403,93.9426385 136.175606,94.0091 C136.153346,94.005099 136.130789,94.0018187 136.107957,93.9992864 L127.107957,93.0002864 C126.567957,92.9402864 126.067957,93.3342864 126.007957,93.8832864 C125.937957,94.4322864 126.337957,94.9262864 126.887957,94.9872864 L133.43399,95.7155326 L133.43399,95.7155326 Z M89,148.99425 L95,148.99425 L95,142.99425 L89,142.99425 L89,148.99425 Z M103,148.99425 L109,148.99425 L109,132.99525 L103,132.99525 L103,148.99425 Z M117,148.99325 L123,148.99325 L123,122.99325 L117,122.99325 L117,148.99325 Z M131,148.99425 L137,148.99425 L137,112.99425 L131,112.99425 L131,148.99425 Z" id="chart" sketch:type="MSShapeGroup"></path>
        </g>
    </g>
</svg>