<?xml version="1.0" encoding="UTF-8" standalone="no"?>
<svg width="60px" height="60px" viewBox="0 0 60 60" version="1.1" xmlns="http://www.w3.org/2000/svg" xmlns:xlink="http://www.w3.org/1999/xlink" xmlns:sketch="http://www.bohemiancoding.com/sketch/ns">
    <!-- Generator: Sketch 3.2.1 (9971) - http://www.bohemiancoding.com/sketch -->
    <title>checklist</title>
    <desc>Created with Sketch.</desc>
    <defs></defs>
    <g id="Page-1" stroke="none" stroke-width="1" fill="none" fill-rule="evenodd" sketch:type="MSPage">
        <g id="icons-1" sketch:type="MSLayerGroup" transform="translate(-520.000000, -1.000000)" fill="#FFFFFF">
            <g id="checklist" transform="translate(520.000000, 1.000000)" sketch:type="MSShapeGroup">
                <path d="M2,57.999 L58,57.999 L58,1.999 L2,1.999 L2,57.999 Z M59,60 L1,60 C0.45,60 0,59.549 0,58.999 L0,0.999 C0,0.45 0.45,0 1,0 L59,0 C59.55,0 60,0.45 60,0.999 L60,58.999 C60,59.549 59.55,60 59,60 L59,60 Z" id="Fill-7709"></path>
                <path d="M51,16 L35,16 C34.45,16 34,15.55 34,15.001 C34,14.45 34.45,14 35,14 L51,14 C51.55,14 52,14.45 52,15.001 C52,15.55 51.55,16 51,16" id="Fill-7710"></path>
                <path d="M51,24.001 L27,24.001 C26.45,24.001 26,23.55 26,23 C26,22.451 26.45,22 27,22 L51,22 C51.55,22 52,22.451 52,23 C52,23.55 51.55,24.001 51,24.001" id="Fill-7711"></path>
                <path d="M51,31.999 L27,31.999 C26.45,31.999 26,31.549 26,30.999 C26,30.45 26.45,30 27,30 L51,30 C51.55,30 52,30.45 52,30.999 C52,31.549 51.55,31.999 51,31.999" id="Fill-7712"></path>
                <path d="M51,40 L27,40 C26.45,40 26,39.55 26,39.001 C26,38.45 26.45,38 27,38 L51,38 C51.55,38 52,38.45 52,39.001 C52,39.55 51.55,40 51,40" id="Fill-7713"></path>
                <path d="M43,48.001 L27,48.001 C26.45,48.001 26,47.55 26,47 C26,46.451 26.45,46 27,46 L43,46 C43.55,46 44,46.451 44,47 C44,47.55 43.55,48.001 43,48.001" id="Fill-7714"></path>
                <path d="M10,18.001 L18,18.001 L18,10.001 L10,10.001 L10,18.001 Z M19,20 L9,20 C8.45,20 8,19.55 8,19 L8,9.001 C8,8.45 8.45,8 9,8 L19,8 C19.55,8 20,8.45 20,9.001 L20,19 C20,19.55 19.55,20 19,20 L19,20 Z" id="Fill-7715"></path>
                <path d="M10,33.999 L18,33.999 L18,25.999 L10,25.999 L10,33.999 Z M19,36 L9,36 C8.45,36 8,35.549 8,34.999 L8,24.999 C8,24.45 8.45,24 9,24 L19,24 C19.55,24 20,24.45 20,24.999 L20,34.999 C20,35.549 19.55,36 19,36 L19,36 Z" id="Fill-7716"></path>
                <path d="M10,50 L18,50 L18,42 L10,42 L10,50 Z M19,52 L9,52 C8.45,52 8,51.55 8,51.001 L8,41 C8,40.451 8.45,40 9,40 L19,40 C19.55,40 20,40.451 20,41 L20,51.001 C20,51.55 19.55,52 19,52 L19,52 Z" id="Fill-7717"></path>
            </g>
        </g>
    </g>
</svg>