<?xml version="1.0" encoding="UTF-8" standalone="no"?>
<svg width="53px" height="60px" viewBox="0 0 53 60" version="1.1" xmlns="http://www.w3.org/2000/svg" xmlns:xlink="http://www.w3.org/1999/xlink" xmlns:sketch="http://www.bohemiancoding.com/sketch/ns">
    <!-- Generator: Sketch 3.2.1 (9971) - http://www.bohemiancoding.com/sketch -->
    <title>clock</title>
    <desc>Created with Sketch.</desc>
    <defs></defs>
    <g id="Page-1" stroke="none" stroke-width="1" fill="none" fill-rule="evenodd" sketch:type="MSPage">
        <g id="gradient-icons" sketch:type="MSLayerGroup" transform="translate(-527.000000, -88.000000)" fill="#4CAF50">
            <path d="M552.853396,97.1847564 L552.853396,119.868852 L528.419396,119.868852 C527.866396,119.868852 527.419396,120.360656 527.419396,120.852459 C527.419396,135.803279 538.935396,147.409836 553.636396,147.409836 C568.092396,147.409836 579.853396,135.901639 579.853396,121.639344 C579.853396,107.663236 568.496091,96.175559 554.419396,95.8748922 L554.419396,89.9667932 L552.419396,89.9667932 L552.419396,96.4590164 C552.419396,96.4590164 552.419396,96.9474785 552.853396,97.1847564 Z M544.200646,113.377049 C543.944646,113.377049 543.689646,113.279672 543.493646,113.081967 L539.712646,109.344262 C539.321646,108.95082 539.321646,108.361639 539.712646,107.967213 C540.102646,107.57377 540.735646,107.57377 541.126646,107.967213 L544.907646,111.704918 C545.298646,112.099344 545.298646,112.688525 544.907646,113.081967 C544.712646,113.279672 544.456646,113.377049 544.200646,113.377049 Z M553.419396,139.244918 C552.867396,139.244918 552.419396,138.753115 552.419396,138.261311 L552.419396,133.245902 C552.419396,132.753115 552.867396,132.262295 553.419396,132.262295 C553.972396,132.262295 554.419396,132.753115 554.419396,133.245902 L554.419396,138.261311 C554.419396,138.753115 553.972396,139.244918 553.419396,139.244918 Z M540.419646,135.016148 C540.163646,135.016148 539.907646,134.917787 539.712646,134.721066 C539.321646,134.327623 539.321646,133.737459 539.712646,133.345 L543.494646,129.607295 C543.885646,129.212869 544.518646,129.212869 544.908646,129.607295 C545.299646,129.999754 545.299646,130.688279 544.908646,131.082705 L541.126646,134.721066 C540.931646,134.917787 540.675646,135.016148 540.419646,135.016148 Z M570.462396,121.442623 L565.418396,121.442623 C564.866396,121.442623 564.419396,121.04918 564.419396,120.459016 C564.419396,119.967213 564.866396,119.47541 565.418396,119.47541 L570.462396,119.47541 C571.014396,119.47541 571.462396,119.967213 571.462396,120.459016 C571.462396,121.04918 571.014396,121.442623 570.462396,121.442623 Z M566.200896,135.016148 C565.945896,135.016148 565.689896,134.917787 565.494896,134.721066 L561.711896,131.082705 C561.321896,130.688279 561.321896,129.999754 561.711896,129.607295 C562.102896,129.212869 562.735896,129.212869 563.125896,129.607295 L566.907896,133.345 C567.298896,133.737459 567.298896,134.327623 566.907896,134.721066 C566.712896,134.917787 566.456896,135.016148 566.200896,135.016148 Z M562.418896,113.377049 C562.162896,113.377049 561.907896,113.279672 561.711896,113.081967 C561.321896,112.688525 561.321896,112.099344 561.711896,111.704918 L565.494896,107.967213 C565.884896,107.57377 566.517896,107.57377 566.907896,107.967213 C567.298896,108.361639 567.298896,108.95082 566.907896,109.344262 L563.125896,113.081967 C562.930896,113.279672 562.674896,113.377049 562.418896,113.377049 Z M529.437396,121.836066 C529.930396,135.213115 540.381396,145.442623 553.636396,145.442623 C566.990396,145.442623 577.853396,134.820656 577.853396,121.639344 C577.853396,108.852459 567.625396,98.4272131 554.853396,97.8360656 L554.853396,120.852459 C554.853396,121.442623 554.406396,121.836066 553.853396,121.836066 L529.437396,121.836066 Z M573.955437,98.7690647 L570.710876,102.04541 C571.523376,102.748535 572.098694,103.319641 572.098694,103.319641 L575.349189,100.145765 L576.495896,101.278443 C576.690896,101.475164 576.946896,101.574508 577.202896,101.574508 C577.457896,101.574508 577.713896,101.475164 577.909896,101.278443 C578.299896,100.885984 578.299896,100.294836 577.909896,99.902377 L574.126896,96.1646721 C573.735896,95.7702459 573.102896,95.7702459 572.711896,96.1646721 C572.321896,96.5571311 572.321896,97.1482787 572.711896,97.5407377 L573.955437,98.7690647 Z M556.419396,89.9672131 L550.419396,89.9672131 C549.867396,89.9672131 549.419396,89.5737705 549.419396,88.9836066 C549.419396,88.4918033 549.867396,88 550.419396,88 L556.419396,88 C556.972396,88 557.419396,88.4918033 557.419396,88.9836066 C557.419396,89.5737705 556.972396,89.9672131 556.419396,89.9672131 Z" id="clock" sketch:type="MSShapeGroup"></path>
        </g>
    </g>
</svg>