<?xml version="1.0" encoding="UTF-8" standalone="no"?>
<svg width="60px" height="49px" viewBox="0 0 60 49" version="1.1" xmlns="http://www.w3.org/2000/svg" xmlns:xlink="http://www.w3.org/1999/xlink" xmlns:sketch="http://www.bohemiancoding.com/sketch/ns">
    <!-- Generator: Sketch 3.2.1 (9971) - http://www.bohemiancoding.com/sketch -->
    <title>cloud</title>
    <desc>Created with Sketch.</desc>
    <defs></defs>
    <g id="Page-1" stroke="none" stroke-width="1" fill="none" fill-rule="evenodd" sketch:type="MSPage">
        <g id="gradient-icons" sketch:type="MSLayerGroup" transform="translate(-164.000000, -12.000000)" fill="#4CAF50">
            <path d="M194.879576,37.0212766 L194.303402,37.0212766 C188.023057,37.0212766 183.104091,42.0568085 183.104091,48.4893617 C183.104091,54.8593617 188.248574,60.0512766 194.573402,60.0512766 C200.897195,60.0512766 206.041678,54.8593617 206.041678,48.4893617 C206.041678,46.456383 205.509953,44.4546809 204.503402,42.704234 C204.21685,42.2131915 203.584781,42.0359574 203.089264,42.3278723 C202.594781,42.6197872 202.427195,43.2557447 202.713747,43.7572128 C203.538229,45.1844681 203.972712,46.8212766 203.972712,48.4893617 C203.972712,53.7125532 199.75616,57.9661702 194.573402,57.9661702 C189.389609,57.9661702 185.173057,53.7125532 185.173057,48.4893617 C185.173057,43.2255106 189.183747,39.106383 194.303402,39.106383 L194.543841,39.106383 L192.700581,41.055646 C192.306443,41.4726673 192.321961,42.1388588 192.735754,42.535029 C192.936443,42.7226886 193.192995,42.8175609 193.449547,42.8175609 C193.721616,42.8175609 193.994719,42.712263 194.198512,42.4943694 L198.506099,37.9373694 L194.215064,33.1937524 C193.829202,32.7663056 193.176443,32.735029 192.752306,33.1207737 C192.330237,33.5065183 192.299202,34.1643694 192.68403,34.5907737 L194.879576,37.0212766 Z M175.465471,49.2817021 C174.905816,49.2817021 170.328229,49.1878723 167.237195,46.1238085 C165.410298,44.309766 164.483402,41.8482979 164.483402,38.8155106 C164.483402,35.6451064 165.882022,32.6842553 168.319264,30.6825532 C170.459609,28.9310638 173.154436,28.1282979 175.868919,28.3889362 C176.974781,19.1102128 184.825471,12 194.214436,12 C201.089609,12 207.45685,15.9304255 210.622367,22.0710638 C214.074436,22.103383 217.313402,23.4368085 219.806505,25.8659574 C222.474436,28.4525319 223.944436,31.933617 223.944436,35.667 C223.944436,47.5510638 211.93616,49.2608511 211.814091,49.2723191 C211.249264,49.3546809 210.730988,48.9480851 210.656505,48.3746809 C210.582022,47.8117021 210.980298,47.2914681 211.545126,47.2070213 C211.967195,47.1548936 221.875471,45.6953191 221.875471,35.667 C221.875471,32.5080638 220.630988,29.5565957 218.370643,27.367234 C216.123747,25.1789149 213.162022,24.0519149 210.022367,24.1572128 L209.341678,24.1874468 L209.049953,23.5619149 C206.340643,17.8070213 200.516505,14.0861489 194.214436,14.0861489 C185.540298,14.0861489 178.344436,20.9138298 177.833402,29.64 L177.763057,30.8504043 L176.588919,30.5991489 C174.119609,30.0893404 171.579953,30.7044468 169.623747,32.3089362 C167.671678,33.9040426 166.552367,36.2810638 166.552367,38.8155106 C166.552367,41.2644681 167.271333,43.2244681 168.689609,44.6319149 C171.30685,47.2382979 175.423057,47.1965957 175.484091,47.1965957 C176.045816,47.1861702 176.525816,47.6553191 176.534091,48.2287234 C176.542367,48.8021277 176.08616,49.2723191 175.514091,49.2817021 L175.465471,49.2817021 Z" id="cloud" sketch:type="MSShapeGroup"></path>
        </g>
    </g>
</svg>