<?xml version="1.0" encoding="UTF-8" standalone="no"?>
<svg width="61px" height="54px" viewBox="0 0 61 54" version="1.1" xmlns="http://www.w3.org/2000/svg" xmlns:xlink="http://www.w3.org/1999/xlink" xmlns:sketch="http://www.bohemiancoding.com/sketch/ns">
    <!-- Generator: Sketch 3.2.1 (9971) - http://www.bohemiancoding.com/sketch -->
    <title>computer</title>
    <desc>Created with Sketch.</desc>
    <defs></defs>
    <g id="Page-1" stroke="none" stroke-width="1" fill="none" fill-rule="evenodd" sketch:type="MSPage">
        <g id="gradient-icons" sketch:type="MSLayerGroup" transform="translate(-257.000000, -8.000000)" fill="#4CAF50">
            <path d="M259.427838,44.0000584 L259.427838,12.9990584 C259.427838,11.3400584 260.777838,9.99905836 262.427838,9.99905836 L312.427838,9.99905836 C314.077838,9.99905836 315.427838,11.3400584 315.427838,12.9990584 L315.427838,44.0000584 L259.427838,44.0000584 Z M259.427838,45.9990584 L259.427838,50.9990584 C259.427838,52.6490584 260.777838,53.9990584 262.427838,53.9990584 L312.427838,53.9990584 C314.077838,53.9990584 315.427838,52.6490584 315.427838,50.9990584 L315.427838,45.9990584 L259.427838,45.9990584 Z M288.427838,56.0000584 L288.427838,60.0000584 L305.427838,60.0000584 C305.977838,60.0000584 306.427838,60.4500584 306.427838,61.0000584 C306.427838,61.5500584 305.977838,62.0010584 305.427838,62.0010584 L269.427838,62.0010584 C268.877838,62.0010584 268.427838,61.5500584 268.427838,61.0000584 C268.427838,60.4500584 268.877838,60.0000584 269.427838,60.0000584 L286.427838,60.0000584 L286.427838,56.0000584 L262.427838,56.0000584 C259.667838,56.0000584 257.427838,53.7500584 257.427838,50.9990584 L257.427838,12.9990584 C257.427838,10.2390584 259.667838,8.00005836 262.427838,8.00005836 L312.427838,8.00005836 C315.187838,8.00005836 317.427838,10.2390584 317.427838,12.9990584 L317.427838,50.9990584 C317.427838,53.7500584 315.187838,56.0000584 312.427838,56.0000584 L288.427838,56.0000584 L288.427838,56.0000584 Z M287.427838,52.0000584 C286.327838,52.0000584 285.427838,51.1010584 285.427838,50.0010584 C285.427838,48.9000584 286.327838,48.0000584 287.427838,48.0000584 C288.527838,48.0000584 289.427838,48.9000584 289.427838,50.0010584 C289.427838,51.1010584 288.527838,52.0000584 287.427838,52.0000584 Z" id="computer" sketch:type="MSShapeGroup"></path>
        </g>
    </g>
</svg>