<?xml version="1.0" encoding="UTF-8" standalone="no"?>
<svg width="100px" height="285px" viewBox="0 0 100 285" version="1.1" xmlns="http://www.w3.org/2000/svg" xmlns:xlink="http://www.w3.org/1999/xlink" xmlns:sketch="http://www.bohemiancoding.com/sketch/ns">
    <!-- Generator: Sketch 3.2.1 (9971) - http://www.bohemiancoding.com/sketch -->
    <title>dotts-arrow</title>
    <desc>Created with Sketch.</desc>
    <defs></defs>
    <g id="Page-1" stroke="none" stroke-width="1" fill="none" fill-rule="evenodd" sketch:type="MSPage">
        <g id="dots-and-arrows" sketch:type="MSLayerGroup" fill="#FFFFFF">
            <g id="dotts-arrow" sketch:type="MSShapeGroup">
                <g id="Oval-72">
                    <circle id="Oval-73" cx="72.5" cy="2.5" r="2.5"></circle>
                    <circle id="Oval-83" cx="47.5" cy="257.5" r="2.5"></circle>
                    <circle id="Oval-82" cx="47.5" cy="157.5" r="2.5"></circle>
                    <circle id="Oval-81" cx="47.5" cy="182.5" r="2.5"></circle>
                    <circle id="Oval-84" cx="47.5" cy="232.5" r="2.5"></circle>
                    <circle id="Oval-79" cx="47.5" cy="27.5" r="2.5"></circle>
                    <circle id="Oval-78" cx="47.5" cy="52.5" r="2.5"></circle>
                    <circle id="Oval-89" cx="47.5" cy="127.5" r="2.5"></circle>
                    <circle id="Oval-76" cx="47.5" cy="102.5" r="2.5"></circle>
                    <circle id="Oval-87" cx="97.5" cy="282.5" r="2.5"></circle>
                    <circle id="Oval-86" cx="72.5" cy="282.5" r="2.5"></circle>
                    <circle id="Oval-88" cx="2.5" cy="143.5" r="2.5"></circle>
                    <circle id="Oval-74" cx="97.5" cy="2.5" r="2.5"></circle>
                </g>
                <path d="M18.9858686,146.745747 C18.9770411,146.797689 18.9724455,146.851075 18.9724455,146.905538 C18.9724455,146.960284 18.9770422,147.013879 18.9858686,147.065969 L18.9858686,147.112106 C18.9858686,147.527344 19.4053209,147.863961 19.9308686,147.863961 C19.9919801,147.863961 20.0517368,147.859349 20.1096181,147.850538 L27.9724455,147.850538 C27.9724455,146.905538 27.9724455,146.905538 27.9724455,146.905538 C27.9724455,146.388799 27.548841,145.960538 27.0262983,145.960538 L20.8758686,145.960538 L20.8758686,139.615816 C20.8758686,139.200578 20.4531205,138.863961 19.9308686,138.863961 C19.9308686,138.863961 19.9308686,138.863961 18.9858686,138.863961 L18.9858686,146.745747 Z" id="Rectangle-7" transform="translate(23.472446, 143.363961) rotate(225.000000) translate(-23.472446, -143.363961) "></path>
                <path d="M42.9858686,82.8542318 C42.9770411,82.9061736 42.9724455,82.95956 42.9724455,83.0140225 C42.9724455,83.0687687 42.9770422,83.1223637 42.9858686,83.1744531 L42.9858686,83.2205906 C42.9858686,83.6358286 43.4053209,83.9724455 43.9308686,83.9724455 C43.9919801,83.9724455 44.0517368,83.9678335 44.1096181,83.9590225 L51.9724455,83.9590225 C51.9724455,83.0140225 51.9724455,83.0140225 51.9724455,83.0140225 C51.9724455,82.4972833 51.548841,82.0690225 51.0262983,82.0690225 L44.8758686,82.0690225 L44.8758686,75.7243005 C44.8758686,75.3090625 44.4531205,74.9724455 43.9308686,74.9724455 C43.9308686,74.9724455 43.9308686,74.9724455 42.9858686,74.9724455 L42.9858686,82.8542318 Z" id="Rectangle-9" transform="translate(47.472446, 79.472446) rotate(135.000000) translate(-47.472446, -79.472446) "></path>
                <path d="M42.9858686,207.854232 C42.9770411,207.906174 42.9724455,207.95956 42.9724455,208.014022 C42.9724455,208.068769 42.9770422,208.122364 42.9858686,208.174453 L42.9858686,208.220591 C42.9858686,208.635829 43.4053209,208.972446 43.9308686,208.972446 C43.9919801,208.972446 44.0517368,208.967833 44.1096181,208.959022 L51.9724455,208.959022 C51.9724455,208.014022 51.9724455,208.014022 51.9724455,208.014022 C51.9724455,207.497283 51.548841,207.069022 51.0262983,207.069022 L44.8758686,207.069022 L44.8758686,200.724301 C44.8758686,200.309062 44.4531205,199.972446 43.9308686,199.972446 C43.9308686,199.972446 43.9308686,199.972446 42.9858686,199.972446 L42.9858686,207.854232 Z" id="Rectangle-10" transform="translate(47.472446, 204.472446) rotate(315.000000) translate(-47.472446, -204.472446) "></path>
            </g>
        </g>
    </g>
</svg>