<?xml version="1.0" encoding="UTF-8" standalone="no"?>
<svg width="286px" height="100px" viewBox="0 0 286 100" version="1.1" xmlns="http://www.w3.org/2000/svg" xmlns:xlink="http://www.w3.org/1999/xlink" xmlns:sketch="http://www.bohemiancoding.com/sketch/ns">
    <!-- Generator: Sketch 3.2.1 (9971) - http://www.bohemiancoding.com/sketch -->
    <title>dotts-t</title>
    <desc>Created with Sketch.</desc>
    <defs></defs>
    <g id="Page-1" stroke="none" stroke-width="1" fill="none" fill-rule="evenodd" sketch:type="MSPage">
        <g id="dots-and-arrows" sketch:type="MSLayerGroup" transform="translate(-333.000000, -2.000000)" fill="#FFFFFF">
            <g id="dotts-t" transform="translate(476.000000, 51.500000) scale(-1, 1) rotate(-270.000000) translate(-476.000000, -51.500000) translate(425.500000, -91.000000)" sketch:type="MSShapeGroup">
                <g id="Oval-72" transform="translate(1.000000, 0.000000)">
                    <circle id="Oval-73" cx="72.5" cy="2.5" r="2.5"></circle>
                    <circle id="Oval-83" cx="47.5" cy="257.5" r="2.5"></circle>
                    <circle id="Oval-82" cx="47.5" cy="157.5" r="2.5"></circle>
                    <circle id="Oval-81" cx="47.5" cy="182.5" r="2.5"></circle>
                    <circle id="Oval-84" cx="47.5" cy="232.5" r="2.5"></circle>
                    <circle id="Oval-79" cx="47.5" cy="27.5" r="2.5"></circle>
                    <circle id="Oval-78" cx="47.5" cy="52.5" r="2.5"></circle>
                    <circle id="Oval-89" cx="47.5" cy="127.5" r="2.5"></circle>
                    <circle id="Oval-76" cx="47.5" cy="102.5" r="2.5"></circle>
                    <circle id="Oval-87" cx="97.5" cy="282.5" r="2.5"></circle>
                    <circle id="Oval-86" cx="72.5" cy="282.5" r="2.5"></circle>
                    <circle id="Oval-88" cx="2.5" cy="143.5" r="2.5"></circle>
                    <circle id="Oval-74" cx="97.5" cy="2.5" r="2.5"></circle>
                </g>
                <path d="M19.9773597,146.745747 C19.9685321,146.797689 19.9639366,146.851075 19.9639366,146.905538 C19.9639366,146.960284 19.9685333,147.013879 19.9773597,147.065969 L19.9773597,147.112106 C19.9773597,147.527344 20.3968119,147.863961 20.9223597,147.863961 C20.9834712,147.863961 21.0432279,147.859349 21.1011092,147.850538 L28.9639366,147.850538 C28.9639366,146.905538 28.9639366,146.905538 28.9639366,146.905538 C28.9639366,146.388799 28.5403321,145.960538 28.0177894,145.960538 L21.8673597,145.960538 L21.8673597,139.615816 C21.8673597,139.200578 21.4446115,138.863961 20.9223597,138.863961 C20.9223597,138.863961 20.9223597,138.863961 19.9773597,138.863961 L19.9773597,146.745747 Z" id="Rectangle-7" transform="translate(24.463937, 143.363961) scale(-1, 1) rotate(-315.000000) translate(-24.463937, -143.363961) "></path>
                <path d="M43.9858686,82.8457534 C43.9770411,82.8976952 43.9724455,82.9510816 43.9724455,83.0055441 C43.9724455,83.0602903 43.9770422,83.1138853 43.9858686,83.1659747 L43.9858686,83.2121122 C43.9858686,83.6273502 44.4053209,83.9639671 44.9308686,83.9639671 C44.9919801,83.9639671 45.0517368,83.9593551 45.1096181,83.9505441 L52.9724455,83.9505441 C52.9724455,83.0055441 52.9724455,83.0055441 52.9724455,83.0055441 C52.9724455,82.4888049 52.548841,82.0605441 52.0262983,82.0605441 L45.8758686,82.0605441 L45.8758686,75.7158221 C45.8758686,75.3005841 45.4531205,74.9639671 44.9308686,74.9639671 C44.9308686,74.9639671 44.9308686,74.9639671 43.9858686,74.9639671 L43.9858686,82.8457534 Z" id="Rectangle-9" transform="translate(48.472446, 79.463967) scale(1, -1) rotate(-45.000000) translate(-48.472446, -79.463967) "></path>
                <path d="M43.9858686,210.845753 C43.9770411,210.897695 43.9724455,210.951082 43.9724455,211.005544 C43.9724455,211.06029 43.9770422,211.113885 43.9858686,211.165975 L43.9858686,211.212112 C43.9858686,211.62735 44.4053209,211.963967 44.9308686,211.963967 C44.9919801,211.963967 45.0517368,211.959355 45.1096181,211.950544 L52.9724455,211.950544 C52.9724455,211.005544 52.9724455,211.005544 52.9724455,211.005544 C52.9724455,210.488805 52.548841,210.060544 52.0262983,210.060544 L45.8758686,210.060544 L45.8758686,203.715822 C45.8758686,203.300584 45.4531205,202.963967 44.9308686,202.963967 C44.9308686,202.963967 44.9308686,202.963967 43.9858686,202.963967 L43.9858686,210.845753 Z" id="Rectangle-10" transform="translate(48.472446, 207.463967) scale(1, -1) rotate(-225.000000) translate(-48.472446, -207.463967) "></path>
            </g>
        </g>
    </g>
</svg>