<?xml version="1.0" encoding="UTF-8" standalone="no"?>
<svg width="166px" height="100px" viewBox="0 0 166 100" version="1.1" xmlns="http://www.w3.org/2000/svg" xmlns:xlink="http://www.w3.org/1999/xlink" xmlns:sketch="http://www.bohemiancoding.com/sketch/ns">
    <!-- Generator: Sketch 3.2.1 (9971) - http://www.bohemiancoding.com/sketch -->
    <title>dotts-t-small</title>
    <desc>Created with Sketch.</desc>
    <defs></defs>
    <g id="Page-1" stroke="none" stroke-width="1" fill="none" fill-rule="evenodd" sketch:type="MSPage">
        <g id="dots-and-arrows" sketch:type="MSLayerGroup" transform="translate(-659.000000, -2.000000)" fill="#FFFFFF">
            <g id="dotts-t-small" transform="translate(742.000000, 51.500000) scale(-1, 1) rotate(-270.000000) translate(-742.000000, -51.500000) translate(691.500000, -31.000000)" sketch:type="MSShapeGroup">
                <g id="Oval-72" transform="translate(1.000000, 0.000000)">
                    <ellipse id="Oval-73" cx="72.5" cy="2.5" rx="2.5" ry="2.5"></ellipse>
                    <ellipse id="Oval-82" cx="47.5" cy="97.5" rx="2.5" ry="2.5"></ellipse>
                    <ellipse id="Oval-81" cx="47.5" cy="122.5" rx="2.5" ry="2.5"></ellipse>
                    <ellipse id="Oval-89" cx="47.5" cy="67.5" rx="2.5" ry="2.5"></ellipse>
                    <ellipse id="Oval-76" cx="47.5" cy="42.5" rx="2.5" ry="2.5"></ellipse>
                    <ellipse id="Oval-87" cx="97.5" cy="162.5" rx="2.5" ry="2.5"></ellipse>
                    <ellipse id="Oval-86" cx="72.5" cy="162.5" rx="2.5" ry="2.5"></ellipse>
                    <ellipse id="Oval-88" cx="2.5" cy="83.5" rx="2.5" ry="2.5"></ellipse>
                    <ellipse id="Oval-74" cx="97.5" cy="2.5" rx="2.5" ry="2.5"></ellipse>
                </g>
                <path d="M22.9086726,84.1084785 C22.8657021,84.0779999 22.8247027,84.0435083 22.7861919,84.0050073 C22.7474805,83.9663057 22.7128335,83.9251685 22.6822419,83.8821055 L22.6496178,83.8494897 C22.3560002,83.5559468 22.4145736,83.0214612 22.7861919,82.6499374 C22.8294043,82.606736 22.8749199,82.5677528 22.9220785,82.5330637 L28.4819371,76.9746202 L29.150153,77.642666 C29.5155428,78.0079628 29.5188352,78.6101693 29.1493418,78.9795687 L24.8003312,83.3274724 L29.2867271,87.8127264 C29.5803448,88.1062693 29.5194408,88.6430849 29.150153,89.0122787 C29.150153,89.0122787 29.150153,89.0122787 28.4819371,89.6803245 L22.9086726,84.1084785 L22.9086726,84.1084785 Z" id="Rectangle-7" transform="translate(25.967808, 83.327472) rotate(-180.000000) translate(-25.967808, -83.327472) "></path>
                <path d="M49.2536505,20.7528751 C49.2231641,20.7956953 49.1886638,20.8365513 49.150153,20.8749274 C49.1114415,20.9135035 49.0702938,20.9480294 49.0272198,20.9785141 L48.9945957,21.0110241 C48.7009781,21.3036151 48.1663565,21.2452465 47.7947381,20.8749274 C47.7515257,20.8318661 47.7125325,20.7865097 47.6778346,20.7395161 L42.117976,15.1990975 L42.7861919,14.533218 C43.1515817,14.1691058 43.7539415,14.1658249 44.123435,14.5340264 L48.4724455,18.8678306 L52.9588415,14.3971214 C53.2524591,14.1045304 53.7894113,14.1652214 54.1586991,14.533218 C54.1586991,14.533218 54.1586991,14.533218 54.826915,15.1990975 L49.2536505,20.7528751 L49.2536505,20.7528751 Z" id="Rectangle-9" transform="translate(48.472446, 17.704436) rotate(-180.000000) translate(-48.472446, -17.704436) "></path>
                <path d="M47.6912405,142.199202 C47.7217269,142.156382 47.7562273,142.115525 47.7947381,142.077149 C47.8334495,142.038573 47.8745972,142.004047 47.9176712,141.973563 L47.9502953,141.941053 C48.243913,141.648462 48.7785346,141.70683 49.150153,142.077149 C49.1933654,142.120211 49.2323585,142.165567 49.2670564,142.212561 L54.826915,147.752979 L54.1586991,148.418859 C53.7933093,148.782971 53.1909496,148.786252 52.8214561,148.41805 L48.4724455,144.084246 L43.9860496,148.554955 C43.692432,148.847546 43.1554798,148.786855 42.7861919,148.418859 C42.7861919,148.418859 42.7861919,148.418859 42.117976,147.752979 L47.6912405,142.199202 L47.6912405,142.199202 Z" id="Rectangle-10" transform="translate(48.472446, 145.247641) rotate(-180.000000) translate(-48.472446, -145.247641) "></path>
            </g>
        </g>
    </g>
</svg>