<?xml version="1.0" encoding="UTF-8" standalone="no"?>
<svg width="166px" height="101px" viewBox="0 0 166 101" version="1.1" xmlns="http://www.w3.org/2000/svg" xmlns:xlink="http://www.w3.org/1999/xlink" xmlns:sketch="http://www.bohemiancoding.com/sketch/ns">
    <!-- Generator: Sketch 3.2.1 (9971) - http://www.bohemiancoding.com/sketch -->
    <title>dotts-b-small</title>
    <desc>Created with Sketch.</desc>
    <defs></defs>
    <g id="Page-1" stroke="none" stroke-width="1" fill="none" fill-rule="evenodd" sketch:type="MSPage">
        <g id="dots-and-arrows" sketch:type="MSLayerGroup" transform="translate(-659.000000, -187.000000)" fill="#FFFFFF">
            <g id="dotts-b-small" transform="translate(742.000000, 237.500000) scale(-1, 1) rotate(-90.000000) translate(-742.000000, -237.500000) translate(692.000000, 155.000000)" sketch:type="MSShapeGroup">
                <g id="Oval-72">
                    <ellipse id="Oval-73" cx="72.5" cy="2.5" rx="2.5" ry="2.5"></ellipse>
                    <ellipse id="Oval-82" cx="47.5" cy="97.5" rx="2.5" ry="2.5"></ellipse>
                    <ellipse id="Oval-81" cx="47.5" cy="122.5" rx="2.5" ry="2.5"></ellipse>
                    <ellipse id="Oval-89" cx="47.5" cy="67.5" rx="2.5" ry="2.5"></ellipse>
                    <ellipse id="Oval-76" cx="47.5" cy="42.5" rx="2.5" ry="2.5"></ellipse>
                    <ellipse id="Oval-87" cx="97.5" cy="162.5" rx="2.5" ry="2.5"></ellipse>
                    <ellipse id="Oval-86" cx="72.5" cy="162.5" rx="2.5" ry="2.5"></ellipse>
                    <ellipse id="Oval-88" cx="2.5" cy="83.5" rx="2.5" ry="2.5"></ellipse>
                    <ellipse id="Oval-74" cx="97.5" cy="2.5" rx="2.5" ry="2.5"></ellipse>
                </g>
                <path d="M21.9086726,84.1084785 C21.8657021,84.0779999 21.8247027,84.0435083 21.7861919,84.0050073 C21.7474805,83.9663057 21.7128335,83.9251685 21.6822419,83.8821055 L21.6496178,83.8494897 C21.3560002,83.5559468 21.4145736,83.0214612 21.7861919,82.6499374 C21.8294043,82.606736 21.8749199,82.5677528 21.9220785,82.5330637 L27.4819371,76.9746202 L28.150153,77.642666 C28.5155428,78.0079628 28.5188352,78.6101693 28.1493418,78.9795687 L23.8003312,83.3274724 L28.2867271,87.8127264 C28.5803448,88.1062693 28.5194408,88.6430849 28.150153,89.0122787 C28.150153,89.0122787 28.150153,89.0122787 27.4819371,89.6803245 L21.9086726,84.1084785 L21.9086726,84.1084785 Z" id="Rectangle-7"></path>
                <path d="M48.2536505,20.7528751 C48.2231641,20.7956953 48.1886638,20.8365513 48.150153,20.8749274 C48.1114415,20.9135035 48.0702938,20.9480294 48.0272198,20.9785141 L47.9945957,21.0110241 C47.7009781,21.3036151 47.1663565,21.2452465 46.7947381,20.8749274 C46.7515257,20.8318661 46.7125325,20.7865097 46.6778346,20.7395161 L41.117976,15.1990975 L41.7861919,14.533218 C42.1515817,14.1691058 42.7539415,14.1658249 43.123435,14.5340264 L47.4724455,18.8678306 L51.9588415,14.3971214 C52.2524591,14.1045304 52.7894113,14.1652214 53.1586991,14.533218 C53.1586991,14.533218 53.1586991,14.533218 53.826915,15.1990975 L48.2536505,20.7528751 L48.2536505,20.7528751 Z" id="Rectangle-9"></path>
                <path d="M46.6912405,142.199202 C46.7217269,142.156382 46.7562273,142.115525 46.7947381,142.077149 C46.8334495,142.038573 46.8745972,142.004047 46.9176712,141.973563 L46.9502953,141.941053 C47.243913,141.648462 47.7785346,141.70683 48.150153,142.077149 C48.1933654,142.120211 48.2323585,142.165567 48.2670564,142.212561 L53.826915,147.752979 L53.1586991,148.418859 C52.7933093,148.782971 52.1909496,148.786252 51.8214561,148.41805 L47.4724455,144.084246 L42.9860496,148.554955 C42.692432,148.847546 42.1554798,148.786855 41.7861919,148.418859 C41.7861919,148.418859 41.7861919,148.418859 41.117976,147.752979 L46.6912405,142.199202 L46.6912405,142.199202 Z" id="Rectangle-10"></path>
            </g>
        </g>
    </g>
</svg>