<?xml version="1.0" encoding="UTF-8" standalone="no"?>
<svg width="286px" height="101px" viewBox="0 0 286 101" version="1.1" xmlns="http://www.w3.org/2000/svg" xmlns:xlink="http://www.w3.org/1999/xlink" xmlns:sketch="http://www.bohemiancoding.com/sketch/ns">
    <!-- Generator: Sketch 3.2.1 (9971) - http://www.bohemiancoding.com/sketch -->
    <title>dotts-b</title>
    <desc>Created with Sketch.</desc>
    <defs></defs>
    <g id="Page-1" stroke="none" stroke-width="1" fill="none" fill-rule="evenodd" sketch:type="MSPage">
        <g id="dots-and-arrows" sketch:type="MSLayerGroup" transform="translate(-333.000000, -186.000000)" fill="#FFFFFF">
            <g id="dotts-b" transform="translate(476.000000, 236.500000) scale(-1, 1) rotate(-90.000000) translate(-476.000000, -236.500000) translate(426.000000, 94.000000)" sketch:type="MSShapeGroup">
                <g id="Oval-72">
                    <circle id="Oval-73" cx="72.5" cy="2.5" r="2.5"></circle>
                    <circle id="Oval-83" cx="47.5" cy="257.5" r="2.5"></circle>
                    <circle id="Oval-82" cx="47.5" cy="157.5" r="2.5"></circle>
                    <circle id="Oval-81" cx="47.5" cy="182.5" r="2.5"></circle>
                    <circle id="Oval-84" cx="47.5" cy="232.5" r="2.5"></circle>
                    <circle id="Oval-79" cx="47.5" cy="27.5" r="2.5"></circle>
                    <circle id="Oval-78" cx="47.5" cy="52.5" r="2.5"></circle>
                    <circle id="Oval-89" cx="47.5" cy="127.5" r="2.5"></circle>
                    <circle id="Oval-76" cx="47.5" cy="102.5" r="2.5"></circle>
                    <circle id="Oval-87" cx="97.5" cy="282.5" r="2.5"></circle>
                    <circle id="Oval-86" cx="72.5" cy="282.5" r="2.5"></circle>
                    <circle id="Oval-88" cx="2.5" cy="143.5" r="2.5"></circle>
                    <circle id="Oval-74" cx="97.5" cy="2.5" r="2.5"></circle>
                </g>
                <path d="M22.9858686,146.745747 C22.9770411,146.797689 22.9724455,146.851075 22.9724455,146.905538 C22.9724455,146.960284 22.9770422,147.013879 22.9858686,147.065969 L22.9858686,147.112106 C22.9858686,147.527344 23.4053209,147.863961 23.9308686,147.863961 C23.9919801,147.863961 24.0517368,147.859349 24.1096181,147.850538 L31.9724455,147.850538 C31.9724455,146.905538 31.9724455,146.905538 31.9724455,146.905538 C31.9724455,146.388799 31.548841,145.960538 31.0262983,145.960538 L24.8758686,145.960538 L24.8758686,139.615816 C24.8758686,139.200578 24.4531205,138.863961 23.9308686,138.863961 C23.9308686,138.863961 23.9308686,138.863961 22.9858686,138.863961 L22.9858686,146.745747 Z" id="Rectangle-7" transform="translate(27.472446, 143.363961) scale(-1, 1) rotate(225.000000) translate(-27.472446, -143.363961) "></path>
                <path d="M42.9858686,78.8542318 C42.9770411,78.9061736 42.9724455,78.95956 42.9724455,79.0140225 C42.9724455,79.0687687 42.9770422,79.1223637 42.9858686,79.1744531 L42.9858686,79.2205906 C42.9858686,79.6358286 43.4053209,79.9724455 43.9308686,79.9724455 C43.9919801,79.9724455 44.0517368,79.9678335 44.1096181,79.9590225 L51.9724455,79.9590225 C51.9724455,79.0140225 51.9724455,79.0140225 51.9724455,79.0140225 C51.9724455,78.4972833 51.548841,78.0690225 51.0262983,78.0690225 L44.8758686,78.0690225 L44.8758686,71.7243005 C44.8758686,71.3090625 44.4531205,70.9724455 43.9308686,70.9724455 C43.9308686,70.9724455 43.9308686,70.9724455 42.9858686,70.9724455 L42.9858686,78.8542318 Z" id="Rectangle-9" transform="translate(47.472446, 75.472446) scale(1, -1) rotate(135.000000) translate(-47.472446, -75.472446) "></path>
                <path d="M42.9858686,211.854232 C42.9770411,211.906174 42.9724455,211.95956 42.9724455,212.014022 C42.9724455,212.068769 42.9770422,212.122364 42.9858686,212.174453 L42.9858686,212.220591 C42.9858686,212.635829 43.4053209,212.972446 43.9308686,212.972446 C43.9919801,212.972446 44.0517368,212.967833 44.1096181,212.959022 L51.9724455,212.959022 C51.9724455,212.014022 51.9724455,212.014022 51.9724455,212.014022 C51.9724455,211.497283 51.548841,211.069022 51.0262983,211.069022 L44.8758686,211.069022 L44.8758686,204.724301 C44.8758686,204.309062 44.4531205,203.972446 43.9308686,203.972446 C43.9308686,203.972446 43.9308686,203.972446 42.9858686,203.972446 L42.9858686,211.854232 Z" id="Rectangle-10" transform="translate(47.472446, 208.472446) scale(1, -1) rotate(315.000000) translate(-47.472446, -208.472446) "></path>
            </g>
        </g>
    </g>
</svg>