<?xml version="1.0" encoding="UTF-8" standalone="no"?>
<svg width="50px" height="50px" viewBox="0 0 50 50" version="1.1" xmlns="http://www.w3.org/2000/svg" xmlns:xlink="http://www.w3.org/1999/xlink" xmlns:sketch="http://www.bohemiancoding.com/sketch/ns">
    <!-- Generator: Sketch 3.2.1 (9971) - http://www.bohemiancoding.com/sketch -->
    <title>driver-notes</title>
    <desc>Created with Sketch.</desc>
    <defs></defs>
    <g id="Page-1" stroke="none" stroke-width="1" fill="none" fill-rule="evenodd" sketch:type="MSPage">
        <g id="logotypes" sketch:type="MSLayerGroup" transform="translate(-528.000000, 0.000000)" fill="#9CA5BF">
            <path d="M553.48399,36.6507455 C554.54789,35.0776598 560.460607,26.4121003 564.122947,22.6596132 C565.711061,21.0324079 568.428928,18.8840932 570.622012,17.2317775 L576.97074,23.5805054 C577.754705,24.3644706 577.762608,25.6276273 576.97074,26.4194946 L554.419495,48.9707401 C553.635529,49.7547054 552.372373,49.7626075 551.580505,48.9707401 L529.02926,26.4194946 C528.245295,25.6355294 528.237392,24.3723727 529.02926,23.5805054 L551.580505,1.02925987 C552.364471,0.245294623 553.627627,0.237392488 554.419495,1.02925987 L563.681142,10.2909073 L563.681142,10.2909073 C562.904083,11.0208559 562.215486,11.7233793 561.685905,12.3553913 C558.368396,16.3145702 553.941635,25.1041474 553.377332,26.2358195 C552.967259,25.5634128 551.474618,23.1108132 550.662853,21.7086733 C549.885953,20.3667543 548.311905,17.4769675 548.311905,17.4769675 C548.311905,17.4769675 545.083581,19.4011487 543.61001,20.2981047 C541.478794,21.5953665 537.497546,24.0596209 537.497546,24.0596209 C537.497546,24.0596209 541.876317,26.1677985 544.550389,28.2913267 C546.365168,29.7324743 550.035003,32.8503807 552.073422,34.8739802 C552.691875,35.4879373 553.105633,36.1051285 553.317312,36.4575039 L553.317312,36.8979992 C553.317312,36.8979992 553.364516,36.8275513 553.45339,36.6960128 C553.4738,36.734141 553.48399,36.7547383 553.48399,36.7547383 L553.48399,36.6507455 Z" id="driver-notes" sketch:type="MSShapeGroup"></path>
        </g>
    </g>
</svg>