<?xml version="1.0" encoding="UTF-8" standalone="no"?>
<svg width="21px" height="20px" viewBox="0 0 21 20" version="1.1" xmlns="http://www.w3.org/2000/svg" xmlns:xlink="http://www.w3.org/1999/xlink" xmlns:sketch="http://www.bohemiancoding.com/sketch/ns">
    <!-- Generator: Sketch 3.2.1 (9971) - http://www.bohemiancoding.com/sketch -->
    <title>email</title>
    <desc>Created with Sketch.</desc>
    <defs></defs>
    <g id="Page-1" stroke="none" stroke-width="1" fill="none" fill-rule="evenodd" sketch:type="MSPage">
        <path d="M12.9256587,7.56728564 C12.3296232,7.00933489 11.5294069,6.66666667 10.6507576,6.66666667 C8.8132576,6.66666667 7.31742426,8.16666667 7.31742426,10 C7.31742426,11.8416667 8.8132576,13.3333333 10.6507576,13.3333333 C11.4578398,13.3333333 12.1987456,13.0458195 12.7760193,12.5674013 C12.9248926,13.3541421 13.4696228,13.75 14.4007576,13.75 C15.9499243,13.75 17.0732576,12.2083333 17.0732576,10.0916667 C17.0732576,8.60833333 16.4957576,7.15833333 15.4882576,6.11666667 C14.2632576,4.84166667 12.4457576,4.16666667 10.2340909,4.16666667 C6.78742426,4.16666667 3.98409093,6.975 3.98409093,10.4166667 C3.98409093,13.8666667 6.78742426,16.6666667 10.2340909,16.6666667 C11.3332576,16.6666667 12.4132576,16.375 13.3599243,15.8333333 C13.5582576,15.7166667 13.6265909,15.4583333 13.5115909,15.2583333 C13.3965909,15.0666667 13.1407576,14.9916667 12.9424243,15.1083333 C12.1232576,15.5833333 11.1865909,15.8333333 10.2340909,15.8333333 C7.24742426,15.8333333 4.81742426,13.4083333 4.81742426,10.4166667 C4.81742426,7.43333333 7.24742426,5 10.2340909,5 C12.2140909,5 13.8232576,5.58333333 14.8882576,6.69166667 C15.7474243,7.58333333 16.2399243,8.825 16.2399243,10.0916667 C16.2399243,11.4583333 15.5957576,12.9166667 14.4007576,12.9166667 C13.5674243,12.9166667 13.5674243,12.5166667 13.5674243,12.0833333 L13.5674243,11.6143453 C13.8328497,11.136128 13.9840909,10.5857678 13.9840909,10 C13.9840909,9.4168827 13.8328497,8.86748696 13.5674243,8.38935244 L13.5674243,7.91666667 C13.5674243,7.69166667 13.3815909,7.5 13.1507576,7.5 C13.0678579,7.5 12.9905877,7.52489985 12.9256587,7.56728564 Z M12.7340909,11.3826438 C12.2857997,12.0566717 11.5192283,12.5 10.6507576,12.5 C9.27242426,12.5 8.1507576,11.3833333 8.1507576,10 C8.1507576,8.625 9.27242426,7.5 10.6507576,7.5 C11.5192283,7.5 12.2857997,7.94663668 12.7340909,8.62102763 L12.7340909,11.3826438 Z M10.6507576,20 C5.13659093,20 0.650757595,15.5166667 0.650757595,10 C0.650757595,4.48333333 5.13659093,0 10.6507576,0 C16.1649243,0 20.6507576,4.48333333 20.6507576,10 C20.6507576,15.5166667 16.1649243,20 10.6507576,20 Z M10.6507576,0.833333333 C5.59659093,0.833333333 1.48409093,4.95 1.48409093,10 C1.48409093,15.0583333 5.59659093,19.1666667 10.6507576,19.1666667 C15.7057576,19.1666667 19.8174243,15.0583333 19.8174243,10 C19.8174243,4.95 15.7057576,0.833333333 10.6507576,0.833333333 Z" id="email" fill="#333333" sketch:type="MSShapeGroup"></path>
    </g>
</svg>