<?xml version="1.0" encoding="UTF-8" standalone="no"?>
<svg width="61px" height="60px" viewBox="0 0 61 60" version="1.1" xmlns="http://www.w3.org/2000/svg" xmlns:xlink="http://www.w3.org/1999/xlink" xmlns:sketch="http://www.bohemiancoding.com/sketch/ns">
    <!-- Generator: Sketch 3.2.1 (9971) - http://www.bohemiancoding.com/sketch -->
    <title>flag</title>
    <desc>Created with Sketch.</desc>
    <defs></defs>
    <g id="Page-1" stroke="none" stroke-width="1" fill="none" fill-rule="evenodd" sketch:type="MSPage">
        <g id="gradient-icons" sketch:type="MSLayerGroup" transform="translate(-353.000000, -94.000000)" fill="#4CAF50">
            <path d="M390.067099,127.201242 L378.482498,138.593151 L358.896498,119.334134 L370.482498,107.934134 L374.775498,112.163642 C374.792071,112.179944 374.80908,112.195555 374.826486,112.210475 L390.067099,127.201242 L390.067099,127.201242 Z M392.482368,127.199303 C392.483361,127.399524 392.422643,127.601494 392.296498,127.774462 C392.254498,127.832495 388.460498,133.134134 390.566498,136.547249 L411.068498,116.383315 L391.482498,97.1144621 L376.901023,111.463462 L392.189123,126.500938 C392.385387,126.693984 392.483136,126.946262 392.482368,127.199303 L392.482368,127.199303 Z M389.491519,138.420839 C389.581529,138.520934 389.676013,138.619798 389.775123,138.717331 C389.963123,138.89438 390.217123,139.002577 390.482123,139.002577 C390.747123,139.002577 391.002123,138.89438 391.189123,138.717331 L413.189123,117.077987 C413.580123,116.684544 413.580123,116.064872 413.189123,115.681265 L392.189123,95.0255277 C391.799123,94.6419211 391.166123,94.6419211 390.775123,95.0255277 L375.482123,110.065856 L371.189123,105.846183 C370.799123,105.461593 370.166123,105.461593 369.775123,105.846183 L356.775123,118.632085 C356.385123,119.015692 356.385123,119.635364 356.775123,120.028806 L377.775123,140.684544 C377.971123,140.871429 378.226123,140.96979 378.482123,140.96979 C378.738123,140.96979 378.994123,140.871429 379.189123,140.684544 L385.480384,134.492998 L389.482623,138.429626 L389.491519,138.420839 L389.491519,138.420839 Z M387.915832,134.10098 C387.92151,133.313838 388.0438,132.530428 388.234123,131.782905 L386.896993,133.098842 L387.915832,134.10098 Z M384.742873,154.012413 C384.486873,154.012413 384.231873,153.914052 384.035873,153.727167 L353.775873,123.953397 C353.384873,123.570774 353.384873,122.950118 353.775873,122.566511 C354.165873,122.182905 354.798873,122.182905 355.189873,122.566511 L385.449873,152.330446 C385.840873,152.715036 385.840873,153.334708 385.449873,153.727167 C385.254873,153.914052 384.998873,154.012413 384.742873,154.012413 Z" id="flag" sketch:type="MSShapeGroup"></path>
        </g>
    </g>
</svg>