<?xml version="1.0" encoding="UTF-8" standalone="no"?>
<svg width="61px" height="61px" viewBox="0 0 61 61" version="1.1" xmlns="http://www.w3.org/2000/svg" xmlns:xlink="http://www.w3.org/1999/xlink" xmlns:sketch="http://www.bohemiancoding.com/sketch/ns">
    <!-- Generator: Sketch 3.2.1 (9971) - http://www.bohemiancoding.com/sketch -->
    <title>graph</title>
    <desc>Created with Sketch.</desc>
    <defs></defs>
    <g id="Page-1" stroke="none" stroke-width="1" fill="none" fill-rule="evenodd" sketch:type="MSPage">
        <g id="gradient-icons" sketch:type="MSLayerGroup" transform="translate(0.000000, -92.000000)" fill="#4CAF50">
            <path d="M8.5,112.999347 L8.5,100.99425 L52.5,100.99425 L52.5,124.99425 L8.5,124.99425 L8.5,114.998347 L16.5,114.998347 C16.77,114.998347 17.03,114.889347 17.22,114.688347 L21.74,109.968347 L25.57,119.378347 C25.7,119.688347 25.97,119.908347 26.3,119.978347 L26.5,119.999347 C26.76,119.999347 27.02,119.888347 27.21,119.708347 L33.5,113.408347 L37.79,117.708347 C37.99,117.908347 38.28,118.009347 38.55,117.998347 C38.83,117.978347 39.09,117.849347 39.27,117.628347 L48.27,106.628347 C48.62,106.198347 48.56,105.568347 48.13,105.218347 C47.71,104.868347 47.08,104.938347 46.72,105.358347 L38.43,115.509347 L34.21,111.288347 C33.82,110.897347 33.18,110.897347 32.79,111.288347 L26.86,117.228347 L23.01,107.788347 C22.88,107.468347 22.6,107.249347 22.27,107.179347 C21.94,107.118347 21.59,107.228347 21.36,107.468347 L16.07,112.999347 L8.5,112.999347 Z M31.5,132.99325 L59.5,132.99325 C60.05,132.99325 60.5,132.54325 60.5,131.99425 L60.5,93.99325 C60.5,93.44325 60.05,92.99425 59.5,92.99425 L1.5,92.99425 C0.95,92.99425 0.5,93.44325 0.5,93.99325 L0.5,131.99425 C0.5,132.54325 0.95,132.99325 1.5,132.99325 L29.5,132.99325 L29.5,139.57925 L17.7925,151.28675 C17.4025,151.67775 17.4025,152.30675 17.7925,152.70675 C18.1825,153.09775 18.8225,153.09775 19.2125,152.70675 L30.5025,141.40675 L41.7925,152.70675 C41.9925,152.89575 42.2425,152.99775 42.5025,152.99775 C42.7625,152.99775 43.0125,152.89575 43.2125,152.70675 C43.6025,152.30675 43.6025,151.67775 43.2125,151.28675 L31.5,139.57425 L31.5,132.99325 L31.5,132.99325 Z M2.5,130.99425 L58.5,130.99425 L58.5,94.99425 L2.5,94.99425 L2.5,130.99425 Z M53.5,126.99325 L7.5,126.99325 C6.95,126.99325 6.5,126.54325 6.5,125.99425 L6.5,99.99325 C6.5,99.44325 6.95,98.99425 7.5,98.99425 L53.5,98.99425 C54.05,98.99425 54.5,99.44325 54.5,99.99325 L54.5,125.99425 C54.5,126.54325 54.05,126.99325 53.5,126.99325 Z" id="graph" sketch:type="MSShapeGroup"></path>
        </g>
    </g>
</svg>