<?xml version="1.0" encoding="UTF-8" standalone="no"?>
<svg width="16px" height="17px" viewBox="0 0 16 17" version="1.1" xmlns="http://www.w3.org/2000/svg" xmlns:xlink="http://www.w3.org/1999/xlink" xmlns:sketch="http://www.bohemiancoding.com/sketch/ns">
    <!-- Generator: Sketch 3.2.1 (9971) - http://www.bohemiancoding.com/sketch -->
    <title>green-ghost</title>
    <desc>Created with Sketch.</desc>
    <defs></defs>
    <g id="Page-1" stroke="none" stroke-width="1" fill="none" fill-rule="evenodd" sketch:type="MSPage">
        <g id="labirint" sketch:type="MSLayerGroup" transform="translate(-277.000000, -67.000000)" fill="#4CAF50">
            <path d="M277,75.2728906 C277,70.8546126 280.590712,67.2728906 285,67.2728906 C289.418278,67.2728906 293,70.8636029 293,75.2728906 L293,83.2728906 L291.010132,80.9010644 L289.023865,83.2728906 L287.00116,80.9010644 L285.024414,83.2728906 L283.025696,80.9010644 L281.008179,83.2728906 L278.996765,80.9010644 L277,83.2728906 L277,75.2728906 Z M281.781065,76.361648 C282.800668,76.361648 283.627219,75.3231606 283.627219,74.0421214 C283.627219,72.7610822 282.800668,71.7225947 281.781065,71.7225947 C280.761462,71.7225947 279.934911,72.7610822 279.934911,74.0421214 C279.934911,75.3231606 280.761462,76.361648 281.781065,76.361648 Z M286.798817,76.361648 C287.818419,76.361648 288.64497,75.3231606 288.64497,74.0421214 C288.64497,72.7610822 287.818419,71.7225947 286.798817,71.7225947 C285.779214,71.7225947 284.952663,72.7610822 284.952663,74.0421214 C284.952663,75.3231606 285.779214,76.361648 286.798817,76.361648 Z M281.497041,75.2728906 C281.889196,75.2728906 282.207101,74.8490182 282.207101,74.326145 C282.207101,73.8032719 281.889196,73.3793995 281.497041,73.3793995 C281.104887,73.3793995 280.786982,73.8032719 280.786982,74.326145 C280.786982,74.8490182 281.104887,75.2728906 281.497041,75.2728906 Z M286.514793,75.2728906 C286.906948,75.2728906 287.224852,74.8490182 287.224852,74.326145 C287.224852,73.8032719 286.906948,73.3793995 286.514793,73.3793995 C286.122638,73.3793995 285.804734,73.8032719 285.804734,74.326145 C285.804734,74.8490182 286.122638,75.2728906 286.514793,75.2728906 Z" id="green-ghost" sketch:type="MSShapeGroup"></path>
        </g>
    </g>
</svg>