<?xml version="1.0" encoding="UTF-8" standalone="no"?>
<svg width="58px" height="60px" viewBox="0 0 58 60" version="1.1" xmlns="http://www.w3.org/2000/svg" xmlns:xlink="http://www.w3.org/1999/xlink" xmlns:sketch="http://www.bohemiancoding.com/sketch/ns">
    <!-- Generator: Sketch 3.2.1 (9971) - http://www.bohemiancoding.com/sketch -->
    <title>hand</title>
    <desc>Created with Sketch.</desc>
    <defs></defs>
    <g id="Page-1" stroke="none" stroke-width="1" fill="none" fill-rule="evenodd" sketch:type="MSPage">
        <g id="icons-1" sketch:type="MSLayerGroup" transform="translate(-375.000000, -3.000000)" fill="#FFFFFF">
            <path d="M431,14.8032787 L431,38.4108197 C431,40.5737705 429.21,42.3442623 427,42.3442623 L417,42.3442623 C416.45,42.3442623 416,42.7868852 416,43.3278689 C416,43.8688525 416.45,44.312459 417,44.312459 L427,44.312459 C430.31,44.312459 433,41.6665574 433,38.4108197 L433,8.90163934 C433,5.64590164 430.31,3 427,3 L387,3 C383.69,3 381,5.64590164 381,8.90163934 L381,29.557377 C381,30.0983607 381.45,30.5409836 382,30.5409836 C382.55,30.5409836 383,30.0983607 383,29.557377 L383,14.8032787 L431,14.8032787 Z M431,12.8360656 L431,8.90163934 C431,6.72786885 429.21,4.96721311 427,4.96721311 L387,4.96721311 C384.79,4.96721311 383,6.72786885 383,8.90163934 L383,12.8360656 L431,12.8360656 L431,12.8360656 Z M389,10.8688525 C387.9,10.8688525 387,9.98459016 387,8.90163934 C387,7.81967213 387.9,6.93442623 389,6.93442623 C390.1,6.93442623 391,7.81967213 391,8.90163934 C391,9.98459016 390.1,10.8688525 389,10.8688525 Z M395,10.8688525 C393.9,10.8688525 393,9.98459016 393,8.90163934 C393,7.81967213 393.9,6.93442623 395,6.93442623 C396.1,6.93442623 397,7.81967213 397,8.90163934 C397,9.98459016 396.1,10.8688525 395,10.8688525 Z M401,10.8688525 C399.9,10.8688525 399,9.98459016 399,8.90163934 C399,7.81967213 399.9,6.93442623 401,6.93442623 C402.1,6.93442623 403,7.81967213 403,8.90163934 C403,9.98459016 402.1,10.8688525 401,10.8688525 Z M377,60.0491803 L385,60.0491803 L385,42.3442623 L377,42.3442623 L377,60.0491803 Z M387,46.2777049 L387,58.0809836 L387,58.0809836 L428.4,58.0809836 C427.05,56.0459016 423.02,52.1793443 412,52.1793443 L393,52.1793443 C392.45,52.1793443 392,51.7367213 392,51.1957377 C392,50.6547541 392.45,50.2131148 393,50.2131148 L403.138239,50.2131148 C401.849304,48.6226381 399.234577,46.2777049 395,46.2777049 L387,46.2777049 Z M387,44.3114754 L387,41.3616393 C387,40.8196721 386.55,40.3770492 386,40.3770492 L376,40.3770492 C375.45,40.3770492 375,40.8196721 375,41.3616393 L375,61.0327869 C375,61.5737705 375.45,62.017377 376,62.017377 L386,62.017377 C386.55,62.017377 387,61.5737705 387,61.0327869 L387,60.0481967 L430,60.0481967 C430.31,60.0481967 430.6,59.9104918 430.79,59.6645902 C430.98,59.4285246 431.04,59.1137705 430.97,58.8295082 C430.88,58.4744262 428.59,50.2131148 412,50.2131148 L405.579542,50.2131148 C404.604887,48.6541944 401.314223,44.3114754 395,44.3114754 L387,44.3114754 Z" id="hand" sketch:type="MSShapeGroup"></path>
        </g>
    </g>
</svg>