<?xml version="1.0" encoding="UTF-8" standalone="no"?>
<svg width="58px" height="60px" viewBox="0 0 58 60" version="1.1" xmlns="http://www.w3.org/2000/svg" xmlns:xlink="http://www.w3.org/1999/xlink" xmlns:sketch="http://www.bohemiancoding.com/sketch/ns">
    <!-- Generator: Sketch 3.2.1 (9971) - http://www.bohemiancoding.com/sketch -->
    <title>hand</title>
    <desc>Created with Sketch.</desc>
    <defs></defs>
    <g id="Page-1" stroke="none" stroke-width="1" fill="none" fill-rule="evenodd" sketch:type="MSPage">
        <g id="icons-1" sketch:type="MSLayerGroup" transform="translate(-375.000000, -3.000000)" fill="#FFFFFF">
            <g id="hand" transform="translate(375.000000, 3.000000)" sketch:type="MSShapeGroup">
                <path d="M52,41.312459 L42,41.312459 C41.45,41.312459 41,40.8688525 41,40.3278689 C41,39.7868852 41.45,39.3442623 42,39.3442623 L52,39.3442623 C54.21,39.3442623 56,37.5737705 56,35.4108197 L56,5.90163934 C56,3.72786885 54.21,1.96721311 52,1.96721311 L12,1.96721311 C9.79,1.96721311 8,3.72786885 8,5.90163934 L8,26.557377 C8,27.0983607 7.55,27.5409836 7,27.5409836 C6.45,27.5409836 6,27.0983607 6,26.557377 L6,5.90163934 C6,2.64590164 8.69,0 12,0 L52,0 C55.31,0 58,2.64590164 58,5.90163934 L58,35.4108197 C58,38.6665574 55.31,41.312459 52,41.312459" id="Fill-6067"></path>
                <path d="M57,11.8032787 L7,11.8032787 C6.45,11.8032787 6,11.3606557 6,10.8196721 C6,10.2786885 6.45,9.83606557 7,9.83606557 L57,9.83606557 C57.55,9.83606557 58,10.2786885 58,10.8196721 C58,11.3606557 57.55,11.8032787 57,11.8032787" id="Fill-6068"></path>
                <path d="M14,7.86885246 C12.9,7.86885246 12,6.98459016 12,5.90163934 C12,4.81967213 12.9,3.93442623 14,3.93442623 C15.1,3.93442623 16,4.81967213 16,5.90163934 C16,6.98459016 15.1,7.86885246 14,7.86885246" id="Fill-6069"></path>
                <path d="M20,7.86885246 C18.9,7.86885246 18,6.98459016 18,5.90163934 C18,4.81967213 18.9,3.93442623 20,3.93442623 C21.1,3.93442623 22,4.81967213 22,5.90163934 C22,6.98459016 21.1,7.86885246 20,7.86885246" id="Fill-6070"></path>
                <path d="M26,7.86885246 C24.9,7.86885246 24,6.98459016 24,5.90163934 C24,4.81967213 24.9,3.93442623 26,3.93442623 C27.1,3.93442623 28,4.81967213 28,5.90163934 C28,6.98459016 27.1,7.86885246 26,7.86885246" id="Fill-6071"></path>
                <path d="M2,57.0491803 L10,57.0491803 L10,39.3442623 L2,39.3442623 L2,57.0491803 Z M11,59.017377 L1,59.017377 C0.45,59.017377 0,58.5737705 0,58.0327869 L0,38.3616393 C0,37.8196721 0.45,37.3770492 1,37.3770492 L11,37.3770492 C11.55,37.3770492 12,37.8196721 12,38.3616393 L12,58.0327869 C12,58.5737705 11.55,59.017377 11,59.017377 L11,59.017377 Z" id="Fill-6072"></path>
                <path d="M6,55.0819672 C4.9,55.0819672 4,54.1977049 4,53.1157377 C4,52.0327869 4.9,51.147541 6,51.147541 C7.1,51.147541 8,52.0327869 8,53.1157377 C8,54.1977049 7.1,55.0819672 6,55.0819672" id="Fill-6073"></path>
                <path d="M55,57.0481967 L11,57.0481967 C10.45,57.0481967 10,56.6055738 10,56.0655738 C10,55.5236066 10.45,55.0809836 11,55.0809836 L53.4,55.0809836 C52.05,53.0459016 48.02,49.1793443 37,49.1793443 L18,49.1793443 C17.45,49.1793443 17,48.7367213 17,48.1957377 C17,47.6547541 17.45,47.2131148 18,47.2131148 L37,47.2131148 C53.59,47.2131148 55.88,55.4744262 55.97,55.8295082 C56.04,56.1137705 55.98,56.4285246 55.79,56.6645902 C55.6,56.9104918 55.31,57.0481967 55,57.0481967" id="Fill-6074"></path>
                <path d="M30,49.1793443 C29.63,49.1793443 29.28,48.982623 29.11,48.6383607 C28.98,48.4022951 26.26,43.2777049 20,43.2777049 L11,43.2777049 C10.45,43.2777049 10,42.835082 10,42.2940984 C10,41.7531148 10.45,41.3114754 11,41.3114754 L20,41.3114754 C27.53,41.3114754 30.76,47.487541 30.89,47.7531148 C31.14,48.235082 30.94,48.835082 30.45,49.0711475 C30.3,49.14 30.15,49.1793443 30,49.1793443" id="Fill-6075"></path>
            </g>
        </g>
    </g>
</svg>