<?xml version="1.0" encoding="UTF-8" standalone="no"?>
<svg width="57px" height="60px" viewBox="0 0 57 60" version="1.1" xmlns="http://www.w3.org/2000/svg" xmlns:xlink="http://www.w3.org/1999/xlink" xmlns:sketch="http://www.bohemiancoding.com/sketch/ns">
    <!-- Generator: Sketch 3.2.1 (9971) - http://www.bohemiancoding.com/sketch -->
    <title>heart</title>
    <desc>Created with Sketch.</desc>
    <defs></defs>
    <g id="Page-1" stroke="none" stroke-width="1" fill="none" fill-rule="evenodd" sketch:type="MSPage">
        <g id="gradient-icons" sketch:type="MSLayerGroup" transform="translate(-436.000000, -88.000000)" fill="#4CAF50">
            <path d="M463.236785,144.629535 C457.203546,140.178558 438.0551,124.655017 438.0551,107.048538 C438.0551,95.9278487 444.589373,90.8578487 450.660391,90.8578487 C457.697751,90.8578487 461.969478,96.8599929 463.255781,103.106125 L463.236785,103.106125 L463.236785,106.447504 L453.270076,112.664745 C452.936367,112.872676 452.749822,113.244056 452.787131,113.637159 C452.82444,114.030263 453.080422,114.362331 453.447294,114.506125 L468.451767,120.268194 L457.205149,127.002676 C456.893204,127.188883 456.702513,127.519918 456.702513,127.893366 C456.702513,128.2544 456.89424,128.586469 457.205149,128.771642 L463.236785,132.381987 L463.236785,144.629535 Z M465.309513,144.741975 C470.968235,140.007565 490.864046,122.161998 490.864046,105.496814 C490.864046,95.3278487 484.503882,90.6923315 478.5935,90.6923315 C473.500809,90.6923315 467.012137,94.2095729 465.484537,104.110607 C465.459682,104.272365 465.398268,104.420477 465.309513,104.547131 L465.309513,107.016469 C465.309513,107.379573 465.12504,107.710607 464.822422,107.896814 L456.129404,113.317504 L471.17844,119.100263 C471.548422,119.233711 471.804404,119.576125 471.838604,119.968194 C471.872804,120.372676 471.679004,120.744056 471.340113,120.950952 L459.753567,127.893366 L464.80584,130.914056 C465.118822,131.099228 465.309513,131.440607 465.309513,131.802676 L465.309513,144.741975 Z M464.460609,147.807159 C464.261627,147.807159 464.062646,147.744056 463.888537,147.631297 C463.604573,147.444056 456.850591,142.9544 449.986755,135.722331 C440.8253,126.071642 435.982373,116.150952 435.982373,107.048538 C435.982373,97.9761246 441.024282,88.7888832 450.660391,88.7888832 C455.980046,88.7888832 461.862446,92.1716418 464.460609,99.631297 C467.099191,92.0578487 473.131864,88.623366 478.5935,88.623366 C488.0099,88.623366 492.936773,97.1164694 492.936773,105.496814 C492.936773,114.081987 488.234791,123.785435 478.960373,134.338194 C472.113118,142.138194 465.1643,147.537159 465.094864,147.588883 C464.908318,147.734745 464.684464,147.807159 464.460609,147.807159 Z" id="heart" sketch:type="MSShapeGroup"></path>
        </g>
    </g>
</svg>