<?xml version="1.0" encoding="UTF-8" standalone="no"?>
<svg width="82px" height="26px" viewBox="0 0 82 26" version="1.1" xmlns="http://www.w3.org/2000/svg" xmlns:xlink="http://www.w3.org/1999/xlink" xmlns:sketch="http://www.bohemiancoding.com/sketch/ns">
    <!-- Generator: Sketch 3.2.1 (9971) - http://www.bohemiancoding.com/sketch -->
    <title>inspire-me</title>
    <desc>Created with Sketch.</desc>
    <defs></defs>
    <g id="Page-1" stroke="none" stroke-width="1" fill="none" fill-rule="evenodd" sketch:type="MSPage">
        <g id="logotypes" sketch:type="MSLayerGroup" transform="translate(-728.000000, -13.000000)" fill="#9CA5BF">
            <g id="inspire-me" transform="translate(728.000000, 13.000000)" sketch:type="MSShapeGroup">
                <g id="Group-4" transform="translate(7.754137, 1.427477)">
                    <path d="M1.75548126,23.9816139 C1.35032759,23.9816139 0.961513002,23.853141 0.655224586,23.6070439 C-0.0490172239,23.041192 -0.523681189,21.2020306 2.06287741,19.6697768 C4.64971293,18.1372375 10.0452077,15.9012375 19.2657075,14.905144 C19.2000743,15.3705015 19.1239176,15.9135138 19.1131172,16.6723606 C15.7985005,17.0138131 11.0571226,17.9627998 7.60570078,19.4430935 C5.7995407,20.2176425 4.27889902,21.209168 3.86876055,22.330594 C3.45529889,23.4605848 2.57188112,23.9816139 1.75548126,23.9816139" id="Fill-1"></path>
                    <path d="M63.6611888,20.9370909 C62.9090375,20.9370909 61.9253698,20.7715036 60.6808308,20.3152819 C57.2421479,19.0545342 55.6788585,16.3777293 55.6788585,16.3777293 C55.6788585,16.3777293 48.2661803,15.3428085 38.4613509,15.3428085 C34.5618507,15.3428085 30.2821209,15.5066828 25.9428504,15.964332 C25.9976832,15.5015439 26.0683012,14.9025746 26.0516852,14.3141685 C28.8085579,14.098905 31.8395947,14.003264 34.918541,14.003264 C42.4760554,14.003264 50.3182573,14.5788228 55.0707126,15.3676466 C55.0707126,15.3676466 53.4204661,12.3037099 53.2850456,7.83998927 C53.1424249,3.12817314 54.2598514,0.387417263 56.8034853,0.262941267 C56.8447484,0.260942799 56.8857345,0.260086313 56.9261668,0.260086313 C59.2172374,0.260086313 60.0339142,3.44564402 60.0339142,3.44564402 C60.0339142,3.44564402 60.813205,1.81118284 62.3903411,1.79034168 C62.4066802,1.79005618 62.4230193,1.79005618 62.4396353,1.79005618 C63.8990746,1.79005618 65.8993651,2.69793156 65.3089429,9.75423596 C65.3089429,9.75423596 65.4773185,9.70227579 65.6949882,9.70227579 C65.9173658,9.70227579 66.191253,9.75623442 66.3898143,9.97463841 C66.3898143,9.97463841 66.9600203,6.77337845 68.9356636,6.77337845 C69.0051739,6.77337845 69.0768997,6.77737538 69.1500101,6.78565475 C71.1558392,7.01176711 71.2469504,9.7822145 71.2508274,10.5981604 C71.2596893,12.3710868 70.6471125,13.3289239 69.7675718,13.3289239 C69.4862074,13.3289239 69.1774265,13.2307135 68.8528605,13.0300102 C68.8528605,13.0300102 68.9004931,16.2815174 70.3048227,16.3186318 C70.316177,16.3189173 70.3272543,16.3189173 70.3386086,16.3189173 C71.7241067,16.3189173 72.6235866,14.07007 72.6235866,14.07007 C72.6235866,14.07007 72.9085512,13.4633922 73.2533333,13.4633922 C73.279642,13.4633922 73.3062276,13.4668182 73.3330902,13.4745266 C73.7567984,13.5950056 73.7412901,14.1223156 73.2270247,15.0704459 C72.5673691,16.2866563 71.3895711,17.7027135 69.5615333,17.7027135 L69.5576562,17.7027135 C67.7996825,17.700715 65.9159811,16.6066966 66.2081459,11.5602799 C66.2081459,11.5602799 66.1167579,11.08493 65.6509558,11.08493 C65.64154,11.08493 65.6318473,11.08493 65.6221547,11.085501 C65.3042351,11.0980628 65.0563796,11.3495843 65.0563796,11.3495843 C65.0563796,11.3495843 64.9320365,12.0918723 64.6249173,12.9552104 C64.2070247,14.130024 63.5830935,15.0367574 62.8010334,15.0367574 C62.6753056,15.0367574 62.5454238,15.0133468 62.411665,14.9636706 C61.4977845,14.625073 61.7711179,13.5210623 62.0688213,12.6865592 C62.2122729,12.2842962 62.7115839,11.2636502 62.9497467,8.24482176 C63.2280648,4.71010317 62.5085917,3.29690092 61.7281932,3.29690092 C61.6919149,3.29690092 61.6553597,3.30004137 61.6188045,3.30632227 C60.7988045,3.44164709 60.4307599,4.87968744 60.4307599,4.87968744 C60.4307599,4.87968744 60.9655184,7.18991624 60.9500101,9.71769254 C60.9353327,12.1235623 60.3360486,13.5222043 59.377028,13.5222043 C59.3288416,13.5222043 59.2792705,13.5187783 59.2291456,13.511641 C58.0519014,13.3431987 57.9270044,11.428952 58.2787099,9.25119305 C58.7057413,6.60550715 59.3077947,5.31478243 59.3077947,5.31478243 C59.3077947,5.31478243 58.940027,2.28053728 57.575022,2.28053728 C57.5614522,2.28053728 57.5478825,2.28082278 57.5340358,2.28167926 C56.1994934,2.34049132 55.7846471,5.66794025 55.9629922,9.12814454 C56.1446606,12.6411655 57.2939345,14.9770889 57.7730294,15.7590608 C57.7730294,15.7590608 61.8544748,16.5087717 63.9876933,17.6761624 C65.7484363,18.6399949 65.966106,19.5138963 65.6022155,20.2147875 C65.4316245,20.5433927 64.8212631,20.9370909 63.6611888,20.9370909 M58.5517663,16.8399464 C58.5517663,16.8399464 59.7118406,18.5517768 62.0929146,19.3862799 C62.6309963,19.5749923 63.0715974,19.6526471 63.4108409,19.6526471 C64.4039243,19.6526471 64.5271597,18.9851588 63.6758663,18.477548 C62.6077339,17.8420352 59.6481459,17.0021078 58.5517663,16.8399464 M69.7462479,8.48321042 C69.2076123,8.48321042 68.8232286,10.5624734 68.8348598,11.8740393 C68.8348598,11.8740393 69.2322594,12.3833631 69.6327052,12.3833631 C69.8127119,12.3833631 69.9932725,12.2800138 70.1386626,11.9808146 C70.5197231,11.1945603 70.3114691,8.52860419 69.7631408,8.48378141 C69.7576022,8.48349591 69.7517866,8.48321042 69.7462479,8.48321042 M59.6232219,7.76690245 C59.2075447,9.13813687 58.8597163,12.1835163 59.3665046,12.1835163 C59.36872,12.1835163 59.3709355,12.1835163 59.3734279,12.1832308 C60.0397298,12.1478294 59.6232219,7.76690245 59.6232219,7.76690245" id="Fill-3"></path>
                </g>
                <path d="M29.7265924,21.9951369 C29.3291928,21.9951369 27.6290983,21.7801588 27.7418102,18.0869903 C27.8697535,13.9076231 29.56154,9.54839377 28.9916109,9.09502707 C28.8597906,8.98967926 28.6689835,8.94228703 28.4452212,8.94228703 C27.8171361,8.94228703 26.9287335,9.31600051 26.3452347,9.83160521 C26.6662006,10.4205822 27.4936778,11.862334 27.4285984,13.0337217 C27.3673961,14.1263126 26.7526039,15.3428085 24.7935765,15.4984035 C24.6969267,15.5061118 24.6036001,15.5095378 24.512766,15.5095378 C22.7691928,15.5095378 22.1571699,14.131166 22.1915096,13.1599106 C22.2291726,12.0838784 23.0320027,11.0332554 23.6465181,10.4634065 L23.3518609,9.94808733 C23.3518609,9.94808733 21.8254036,10.9635945 21.3105843,12.2371895 C20.8467207,13.3840245 21.2272273,16.2124275 19.1327795,16.332621 C19.0962242,16.334905 19.0577305,16.336047 19.018129,16.336047 C18.5869436,16.336047 17.9868288,16.2012932 17.6927254,15.6539985 C17.6927254,15.6539985 18.368997,14.6210761 18.4598311,12.5617978 C18.5836204,9.76222983 18.3989058,8.4906333 17.5913678,8.4906333 C17.5813982,8.4906333 17.5711516,8.4906333 17.5609051,8.49120429 C16.8594326,8.51889734 16.2820263,9.15726507 16.2463019,11.4575015 C16.2443634,11.5762676 16.2468558,12.605764 16.2463019,12.7276706 C16.2332861,15.0187712 16.0856805,17.4023723 14.3182911,17.7149898 C14.1994867,17.7361164 14.0864978,17.7455378 13.9798784,17.7455378 C13.2357582,17.7455378 12.7882337,17.2910291 12.6935225,17.1634127 C12.6935225,17.1634127 13.3542857,16.1693177 13.4478892,14.378976 C13.4949679,13.4768105 13.4996758,12.6154709 13.4963526,11.8937385 C13.4897062,10.6926593 13.4586896,9.86786313 12.9435934,9.86786313 C12.9167308,9.86786313 12.8882067,9.87014709 12.8588517,9.87471502 C12.0546369,9.99862002 10.8677001,11.4475092 10.3725431,12.1138555 C10.3725431,12.1138555 10.4096521,15.9474877 9.97209726,17.4066547 C9.4204458,19.2492421 8.01306991,20.1853815 6.72782168,20.2333447 C6.70289767,20.2342012 6.67852752,20.2344867 6.65388045,20.2344867 C5.39881797,20.2344867 4.30742317,19.0536777 5.0606822,17.1551333 C5.69042891,15.5666369 7.52815941,13.7334709 7.52815941,13.7334709 L7.52178994,10.0639985 C7.52178994,10.0639985 4.74220871,11.4766297 2.69594732,11.4766297 C2.67213104,11.4766297 2.64831476,11.4763442 2.62449848,11.4760587 C0.321519757,11.4395153 0,9.98605822 0,9.23063739 C0,8.27479877 0.517865586,6.2857523 3.35255657,4.38007048 C4.10553867,3.87445812 5.12493077,3.40567467 5.96182371,3.17756384 C6.30217494,3.08477783 6.84884161,2.95944535 7.44591017,2.95944535 C8.31686592,2.95944535 9.29499493,3.22609806 9.89649443,4.24874259 C10.2606619,4.86826762 10.3999595,5.93345097 10.3847281,7.47655363 C10.3847281,7.47655363 15.8001621,4.83172421 22.3341304,2.69707508 C27.676177,0.951270684 32.9384667,0.101350868 36.1378791,0.101350868 C36.4530294,0.101350868 36.7482405,0.109630235 37.0215738,0.126188968 C39.9767308,0.304052605 41.4652482,1.26902707 41.7183654,2.70050102 C41.7460588,2.82240756 41.7621209,2.94916752 41.7632286,3.07906793 L41.7610132,3.14159142 L41.761567,3.15757916 L41.7596285,3.15843565 C41.7269504,4.06659653 41.0074772,4.79746476 40.1165822,4.80488764 L40.1035664,4.80488764 C39.3359068,4.80488764 38.6895441,4.26587232 38.5003985,3.53357661 L38.4998446,3.53357661 L38.4998446,3.53214913 C38.4782438,3.44906997 38.4616278,3.36456333 38.452766,3.27634525 C38.3389463,2.87493871 37.9495778,2.12522778 36.6094968,1.97391522 C36.3430868,1.94365271 35.8875312,1.91396118 35.2494765,1.91396118 C32.7692604,1.91396118 27.534387,2.36247446 19.9613644,4.97418641 C12.2512597,7.6332906 10.3725431,8.83808121 10.3725431,8.83808121 L10.3847281,10.5804597 C10.3847281,10.5804597 11.6857616,9.12985751 12.8602364,8.83808121 C13.0715366,8.78555005 13.2612361,8.76156844 13.4312732,8.76156844 C14.0950827,8.76156844 14.4575887,9.12671706 14.606025,9.58408069 C14.606025,9.58408069 15.7104357,7.62957916 17.8716245,7.16365066 C18.1302803,7.10797906 18.3714894,7.08171348 18.5958055,7.08171348 C20.4612293,7.08171348 21.1729483,8.90717109 21.1676866,10.9113488 C21.1676866,10.9113488 21.9292536,9.89013177 23.0126174,9.20294433 C23.0126174,9.20294433 22.477028,8.0061476 22.9046133,6.9375383 C23.3684769,5.78013994 24.4277474,5.41156537 25.1416819,5.3724525 C25.1704829,5.37073953 25.1990071,5.37016854 25.2280851,5.37016854 C26.0001756,5.37016854 26.8066059,5.92888304 26.6551233,7.07771655 C26.5568119,7.82371604 26.1162107,8.27051634 25.6429314,8.64166037 L25.8453698,9.00395403 C25.8453698,9.00395403 26.9453495,8.19543105 28.2494292,8.00386364 C28.4410672,7.97559959 28.6180277,7.96389428 28.7803107,7.96389428 C29.5476933,7.96389428 29.9752786,8.22455158 29.9752786,8.22455158 C29.9752786,8.22455158 30.144485,6.67117109 31.022641,5.54974515 C31.6449105,4.75521144 32.725228,4.12540858 33.9116109,4.12540858 C34.5784667,4.12540858 35.2785545,4.32439888 35.9495643,4.80488764 C37.2107194,5.70762411 37.5341776,7.50196272 37.5341776,7.50196272 C37.5341776,7.50196272 37.8188652,7.08856537 38.3472543,6.69600919 C38.9731239,6.23093718 39.7341371,5.86007865 40.413178,5.7947002 C40.500689,5.78642084 40.5843229,5.7824239 40.6643566,5.7824239 C41.9556974,5.7824239 42.2511854,6.85360266 42.3830057,8.19971348 C42.3932523,8.3042048 42.4375616,9.0556287 42.4190071,9.37795301 C42.4190071,9.37795301 42.7698818,8.70332737 43.5668963,7.8197191 C43.5668963,7.8197191 43.0321378,6.801357 43.0670314,5.38758376 C43.1038636,3.91813892 43.4960014,2.27454188 44.8803918,2.22400919 C44.8983924,2.2234382 44.9163931,2.22315271 44.9341169,2.22315271 C46.2116109,2.22315271 46.3002297,3.92470531 46.2384735,4.56906844 C46.1382236,5.61084116 45.8419048,6.37596885 45.5248159,6.894143 C45.5248159,6.894143 45.7386086,7.08913636 46.0559743,7.08913636 C46.0695441,7.08913636 46.0836677,7.08856537 46.0977913,7.08799438 C46.6375346,7.05887385 47.1747855,6.4222191 47.9812158,6.23721808 C48.1545762,6.19753422 48.3107666,6.17869152 48.4497872,6.17869152 C48.8305708,6.17869152 49.0847957,6.31972625 49.2218777,6.55811491 C49.1747991,6.64347804 48.1692536,8.4221144 48.0906045,10.6444106 C48.0194326,12.6622921 48.3160284,13.19988 48.8593718,13.19988 C48.9526984,13.19988 49.0535022,13.1838922 49.1609524,13.1570557 C50.2163458,12.8918304 50.7959676,12.1840873 50.7959676,12.1840873 C50.7959676,12.1840873 50.3993989,10.9972829 50.4885714,9.37795301 C50.5583587,8.09864811 51.0817629,5.37159602 53.4030193,5.24483606 C53.4354205,5.24283759 53.4692063,5.2419811 53.5035461,5.2419811 C54.3385005,5.2419811 55.7046133,5.78499336 55.5869166,8.19000664 C55.5869166,8.19000664 55.4744816,10.3474954 53.4813914,11.8811767 C53.4813914,11.8811767 53.7475245,13.5607462 55.2712124,13.5607462 C55.3423843,13.5607462 55.4163256,13.5570347 55.4930361,13.5493264 C56.7766228,13.4211389 57.5467747,12.2226292 57.9685444,11.3906956 C58.1510436,11.0315424 58.4110841,10.8702375 58.6198919,10.8702375 C58.8940561,10.8702375 59.0793246,11.1491665 58.8810402,11.6225179 C58.3844985,12.8096078 57.2723337,14.8503289 54.5304154,14.8503289 C54.5101993,14.8503289 54.4897062,14.8503289 54.46949,14.8500434 C52.2202364,14.8254908 51.2077676,13.0094545 51.2077676,13.0094545 C51.2077676,13.0094545 49.6671868,14.3544234 47.8754272,14.4820398 C47.7854238,14.4883207 47.6970821,14.4917467 47.6104019,14.4917467 C46.3664168,14.4917467 45.47026,13.8145516 45.4541979,11.9785306 C45.4464438,11.2036961 45.6679905,9.65402707 45.6679905,9.65402707 C45.6679905,9.65402707 44.6779534,9.51185036 44.0315907,8.64223136 C44.0315907,8.64223136 43.1027558,9.57865628 42.3888213,11.2490899 C42.3888213,11.2490899 42.3226342,11.6893238 42.2520162,12.0833075 C42.152874,12.639738 41.9504357,13.2272875 41.8180615,13.475954 C41.4491861,14.1671384 40.9473826,14.3975332 40.3766228,14.3975332 C40.3572374,14.3975332 40.3375751,14.3972477 40.3181898,14.3966767 C39.559669,14.376121 39.1160216,13.9330322 38.947923,13.4916563 C38.947923,13.4916563 39.5796082,13.1139459 39.7128132,10.9090649 C39.8410334,8.78155312 39.7025667,7.39604392 39.0548193,7.39604392 C38.9199527,7.39604392 38.7629314,7.45628345 38.58154,7.58218693 C38.169463,7.86853882 37.6579669,8.70361287 37.6731982,9.08389275 C37.7150152,10.1476486 37.6812293,12.172382 36.8648294,13.5010776 C36.3536103,14.3332967 35.7590341,14.6610455 35.2378453,14.6610455 C34.4790476,14.6610455 33.8764404,13.9655787 33.9157649,13.1207978 C33.9766903,11.8137998 34.9262952,10.9998524 34.9262952,10.9998524 C34.9262952,10.9998524 35.1384262,9.68714454 35.0547923,8.16002962 C34.9719892,6.64661849 34.5942519,5.32820072 33.944566,5.32820072 C33.9387504,5.32820072 33.9326579,5.32848621 33.9268423,5.32848621 C33.266356,5.35246782 32.7606754,5.86835802 32.6892266,9.57408836 C32.6332861,12.4815735 32.7482134,15.4610036 32.6523945,17.2807513 C32.5355285,19.5247451 31.8498413,21.9914254 29.832381,21.9914254 L29.8085647,21.9914254 C29.8085647,21.9914254 29.7789328,21.9951369 29.7265924,21.9951369 M30.0467275,10.6289939 C29.0738602,13.852237 28.3322324,18.8578279 29.1898953,18.9240628 C29.1962648,18.9243483 29.2023573,18.9246338 29.2087268,18.9246338 C29.5263695,18.9246338 29.9993718,18.3116752 30.0467275,16.332621 C30.0987909,14.1445843 30.0467275,10.6289939 30.0467275,10.6289939 M7.48412698,15.0304765 C6.72920635,15.8469934 5.0606822,18.6639765 6.06207362,18.8218555 C6.09613644,18.8272799 6.12936846,18.8298493 6.16176967,18.8298493 C7.40077001,18.8298493 7.48412698,15.0304765 7.48412698,15.0304765 M24.0566565,11.3375935 C23.7858156,11.6587758 23.2862276,12.2734474 23.238872,13.0208744 C23.2034245,13.5818728 23.5897467,14.1220301 24.0774265,14.1220301 C24.1020736,14.1220301 24.1272746,14.1206027 24.1524755,14.1177477 C24.8536711,14.0380945 24.9821682,13.2201502 24.6908342,12.5806404 C24.3995002,11.9405598 24.0566565,11.3375935 24.0566565,11.3375935 M54.1562783,6.55554545 C54.1349544,6.55554545 54.1141844,6.55782942 54.0942452,6.56182635 C53.6481054,6.65347038 53.2822763,7.05202196 53.1188855,8.6148238 C52.9934347,9.81104954 53.2315974,10.8622436 53.2315974,10.8622436 C53.2315974,10.8622436 54.5891253,9.74424362 54.7303614,8.25195914 C54.8530429,6.94867263 54.4465046,6.55554545 54.1562783,6.55554545 M6.01277947,4.28699898 C5.45309693,4.28699898 4.90089159,4.53109755 4.68322188,4.62930797 C3.6242283,5.10779826 2.38079703,6.06477886 1.66077001,7.13253166 C0.404599797,8.9939617 0.889787234,10.528214 2.61203647,10.528214 C2.81779804,10.528214 3.04183722,10.5062308 3.28221547,10.4602661 C4.99864911,10.1325174 7.50434313,8.80153779 7.50434313,8.80153779 L7.5165282,6.50644025 C7.5165282,4.71981001 6.75800743,4.28699898 6.01277947,4.28699898 M25.3939683,6.16869918 C25.3707058,6.16869918 25.3466126,6.17069765 25.3216886,6.17526558 C24.8572712,6.26119969 24.8677947,6.82476762 25.0001689,7.25529469 C25.1225735,7.64870735 25.2386086,7.85597702 25.2386086,7.85597702 C25.5064032,7.66412411 25.8301385,7.15651328 25.8323539,6.77708989 C25.8340155,6.47931818 25.6700709,6.16869918 25.3939683,6.16869918 M45.0850456,3.51701788 C45.0814455,3.51701788 45.0781223,3.51701788 45.0747991,3.51730337 C44.459176,3.55356129 44.5076393,5.58657406 44.9119622,6.06506435 C45.3376089,5.48036977 45.5519554,3.51701788 45.0850456,3.51701788" id="Fill-5"></path>
            </g>
        </g>
    </g>
</svg>