<?xml version="1.0" encoding="UTF-8" standalone="no"?>
<svg width="36px" height="60px" viewBox="0 0 36 60" version="1.1" xmlns="http://www.w3.org/2000/svg" xmlns:xlink="http://www.w3.org/1999/xlink" xmlns:sketch="http://www.bohemiancoding.com/sketch/ns">
    <!-- Generator: Sketch 3.2.1 (9971) - http://www.bohemiancoding.com/sketch -->
    <title>iphone</title>
    <desc>Created with Sketch.</desc>
    <defs></defs>
    <g id="Page-1" stroke="none" stroke-width="1" fill="none" fill-rule="evenodd" sketch:type="MSPage">
        <g id="gradient-icons" sketch:type="MSLayerGroup" transform="translate(-95.000000, -6.000000)" fill="#4CAF50">
            <path d="M97,54 L97,18.001 L97,18.001 L129,18.001 L129,54 L97,54 L97,54 Z M97,55.999 L97,60 C97,62.199 98.79,63.999 101,63.999 L125,63.999 C127.21,63.999 129,62.199 129,60 L129,55.999 L97,55.999 L97,55.999 Z M97,16 L97,12 C97,9.789 98.79,7.999 101,7.999 L125,7.999 C127.21,7.999 129,9.789 129,12 L129,16 L97,16 L97,16 Z M125,66 L101,66 C97.69,66 95,63.31 95,60 L95,12 C95,8.689 97.69,6 101,6 L125,6 C128.31,6 131,8.689 131,12 L131,60 C131,63.31 128.31,66 125,66 Z M120,13.999 L106,13.999 C105.45,13.999 105,13.549 105,12.999 C105,12.449 105.45,12 106,12 L120,12 C120.55,12 121,12.449 121,12.999 C121,13.549 120.55,13.999 120,13.999 Z M113,63 C111.35,63 110,61.649 110,60 C110,58.339 111.35,57 113,57 C114.65,57 116,58.339 116,60 C116,61.649 114.65,63 113,63 Z M113,58.999 C112.45,58.999 112,59.449 112,60 C112,60.549 112.45,60.999 113,60.999 C113.55,60.999 114,60.549 114,60 C114,59.449 113.55,58.999 113,58.999 Z" id="iphone" sketch:type="MSShapeGroup"></path>
        </g>
    </g>
</svg>