<?xml version="1.0" encoding="UTF-8" standalone="no"?>
<svg width="60px" height="59px" viewBox="0 0 60 59" version="1.1" xmlns="http://www.w3.org/2000/svg" xmlns:xlink="http://www.w3.org/1999/xlink" xmlns:sketch="http://www.bohemiancoding.com/sketch/ns">
    <!-- Generator: Sketch 3.2.1 (9971) - http://www.bohemiancoding.com/sketch -->
    <title>location</title>
    <desc>Created with Sketch.</desc>
    <defs></defs>
    <g id="Page-1" stroke="none" stroke-width="1" fill="none" fill-rule="evenodd" sketch:type="MSPage">
        <g id="icons-1" sketch:type="MSLayerGroup" transform="translate(-78.000000, -2.000000)" fill="#FFFFFF">
            <g id="location" transform="translate(78.000000, 2.000000)" sketch:type="MSShapeGroup">
                <path d="M29,43.2786885 C28.45,43.2786885 28,42.8360656 28,42.295082 L28,16.7213115 C28,16.1803279 28.45,15.7377049 29,15.7377049 C29.55,15.7377049 30,16.1803279 30,16.7213115 L30,42.295082 C30,42.8360656 29.55,43.2786885 29,43.2786885" id="Fill-4920"></path>
                <path d="M59,59.0216511 L58.73,58.9813233 L40.97,54.132143 L19.22,58.9911593 C19.06,59.0314872 18.89,59.0314872 18.73,58.9813233 L0.73,54.0632905 C0.3,53.9462413 0,53.5616511 0,53.1200118 L0,24.594438 C0,24.28952 0.15,23.994438 0.39,23.8075528 C0.64,23.6216511 0.97,23.5616511 1.27,23.6403397 L19.02,28.4993561 L21.72,27.8905036 C22.25,27.7724708 22.79,28.1059134 22.91,28.637061 C23.04,29.1672249 22.7,29.6905036 22.16,29.8075528 L19.22,30.4665692 C19.06,30.506897 18.89,30.506897 18.73,30.4567331 L2,25.8829626 L2,52.3705036 L19.02,57.0239462 L40.78,52.1560774 C40.94,52.1255856 41.11,52.1255856 41.27,52.1649298 L58,56.7396839 L58,30.2609954 L40.97,25.6075528 L36.22,26.6698479 C35.68,26.7878807 35.14,26.4623069 35.02,25.932143 C34.9,25.4000118 35.23,24.8698479 35.77,24.7518151 L40.78,23.6314872 C40.94,23.6000118 41.11,23.6000118 41.27,23.6403397 L59.27,28.5583725 C59.7,28.6754216 60,29.0698479 60,29.5134544 L60,58.037061 C60,58.341979 59.85,58.637061 59.6,58.8141102 C59.43,58.9527987 59.22,59.0216511 59,59.0216511" id="Fill-4921"></path>
                <path d="M32.53,8.38032787 C31.97,8.38032787 31.53,7.94754098 31.53,7.39672131 C31.53,6.5704918 30.84,5.90163934 30,5.90163934 C29.45,5.90163934 29,5.46 29,4.91803279 C29,4.37606557 29.45,3.93442623 30,3.93442623 C31.95,3.93442623 33.53,5.48852459 33.53,7.39672131 C33.53,7.94754098 33.08,8.38032787 32.53,8.38032787" id="Fill-4922"></path>
                <path d="M19,59.017377 C18.45,59.017377 18,58.5737705 18,58.0327869 L18,29.5091803 C18,28.9672131 18.45,28.5245902 19,28.5245902 C19.55,28.5245902 20,28.9672131 20,29.5091803 L20,58.0327869 C20,58.5737705 19.55,59.017377 19,59.017377" id="Fill-4923"></path>
                <path d="M41,54.097377 C40.45,54.097377 40,53.6547541 40,53.1147541 L40,24.5891803 C40,24.0481967 40.45,23.6065574 41,23.6065574 C41.55,23.6065574 42,24.0481967 42,24.5891803 L42,53.1147541 C42,53.6547541 41.55,54.097377 41,54.097377" id="Fill-4924"></path>
                <path d="M29,1.96622951 C25.14,1.96622951 22,5.0547541 22,8.85245902 C22,12.6481967 25.14,15.7367213 29,15.7367213 C32.86,15.7367213 36,12.6481967 36,8.85245902 C36,5.0547541 32.86,1.96622951 29,1.96622951 L29,1.96622951 Z M29,17.704918 C24.04,17.704918 20,13.7301639 20,8.85245902 C20,3.97278689 24.04,0 29,0 C33.96,0 38,3.97278689 38,8.85245902 C38,13.7301639 33.96,17.704918 29,17.704918 L29,17.704918 Z" id="Fill-4925"></path>
            </g>
        </g>
    </g>
</svg>