<?xml version="1.0" encoding="UTF-8" standalone="no"?>
<svg width="54px" height="45px" viewBox="0 0 54 45" version="1.1" xmlns="http://www.w3.org/2000/svg" xmlns:xlink="http://www.w3.org/1999/xlink" xmlns:sketch="http://www.bohemiancoding.com/sketch/ns">
    <!-- Generator: Sketch 3.2.1 (9971) - http://www.bohemiancoding.com/sketch -->
    <title>logo-small</title>
    <desc>Created with Sketch.</desc>
    <defs></defs>
    <g id="Page-1" stroke="none" stroke-width="1" fill="none" fill-rule="evenodd" sketch:type="MSPage">
        <path d="M15.109133,9.65940065 C15.1550346,9.85682001 15.2278215,10.044949 15.4278215,10.0369859 C15.616674,10.0296864 15.6838871,9.90758498 15.6963461,9.71580618 C15.8589691,7.2412624 16.1268379,4.31547438 15.9081494,2.03967715 C15.9009363,1.96070941 15.8527396,1.76594443 15.8527396,1.76594443 C15.7222477,1.16472784 14.7347068,0.855161019 13.8589691,1.3372624 C13.1330674,1.71318867 13.0301166,2.35057116 13.2314281,2.897373 C14.3438871,5.90146517 14.6222477,7.55547438 15.109133,9.65940065 L15.109133,9.65940065 Z M13.5602805,11.9249122 C13.5602805,11.9249122 13.5350346,11.9979076 13.5337232,12.0287647 C13.4592969,12.9269398 13.2097887,13.841373 13.4504445,15.3782578 C13.4678215,15.499032 13.5147068,15.6672532 13.7032314,15.6476771 C14.0979855,15.6791979 14.0822477,14.8234928 15.0481494,12.9226265 C15.1537232,12.7052993 15.0747068,12.0861656 14.5494609,11.8031426 C13.9274937,11.4587371 13.6261822,11.7016126 13.5602805,11.9249122 L13.5602805,11.9249122 Z M15.8445428,15.5229214 C16.2068379,15.690479 16.48651,14.8759168 18.0517559,13.4156771 C18.22651,13.2471242 18.3635592,12.6349583 17.9629035,12.1833822 C17.4950346,11.6392348 17.1268379,11.7649859 16.9874937,11.9521195 C16.9874937,11.9521195 16.9389691,12.0125066 16.9261822,12.0420366 C16.5471658,12.8648937 15.9986412,13.6419629 15.6983133,15.179843 C15.6737232,15.2996218 15.6599527,15.4754744 15.8445428,15.5229214 L15.8445428,15.5229214 Z M16.5917559,24.3115665 C16.4494609,24.2525066 16.3527396,24.4014836 16.2950346,24.5123039 C15.5517559,25.9151426 15.4924117,26.7977232 15.1884773,27.7682301 C15.1756904,27.8024053 15.1645428,27.8949767 15.1645428,27.8949767 C15.1186412,28.1736864 15.2353625,28.6345527 15.8760182,28.6710504 C16.4786412,28.7165066 16.8294609,28.0018154 16.8212641,27.6650412 C16.7130674,25.0992532 16.9370018,24.3673085 16.5917559,24.3115665 L16.5917559,24.3115665 Z M13.261592,9.97328084 C13.3527396,10.1305527 13.4894609,10.1716956 13.6586412,10.1129675 C13.8206084,10.0565619 13.8212641,9.90360342 13.7832314,9.73405503 C13.284215,7.56011954 12.5379855,4.86327162 11.7629035,2.96008268 C11.7370018,2.89372323 11.6461822,2.73910572 11.6461822,2.73910572 C11.3770018,2.25468176 10.3884773,2.22249742 9.75831332,2.86784305 C9.22946086,3.38146517 9.31273955,3.97339143 9.62782152,4.39145595 C11.3602805,6.68749282 12.2996248,8.28775088 13.261592,9.97328084 L13.261592,9.97328084 Z M17.3848707,10.2672532 C17.5996248,10.3219997 17.7268379,10.1935942 17.804215,9.98190756 C18.8029035,7.24424858 20.116674,4.35230388 20.6202805,1.71053429 C20.6373297,1.61895825 20.6484773,1.38338222 20.6484773,1.38338222 C20.6996248,0.661723231 19.5737232,-0.132931147 18.4251986,0.117243969 C17.4825756,0.297409867 17.0874937,0.959345351 17.1353625,1.64517024 C17.4012641,5.40808268 17.1868379,7.24491217 17.0429035,9.78316102 C17.0304445,10.0200642 17.1563461,10.2088569 17.3848707,10.2672532 L17.3848707,10.2672532 Z M6.52651004,6.84841448 C8.89372316,8.46990756 9.8953625,9.36775088 11.3386412,10.6571149 C11.474051,10.7772255 11.614051,10.815714 11.7560182,10.7045619 C11.8911002,10.599714 11.9586412,10.4776126 11.8688051,10.3302947 C10.6511002,8.32756655 9.34716578,6.35237761 8.09470676,4.89246978 C8.04782152,4.83772323 7.91241168,4.71993521 7.91241168,4.71993521 C7.50552644,4.34699512 6.56093627,4.5298154 6.16618217,5.34404581 C5.82782152,5.99967715 6.09601824,6.55278314 6.52651004,6.84841448 L6.52651004,6.84841448 Z M7.90749365,20.8658523 C7.96618217,21.5941472 8.5901166,21.972396 8.86651004,21.9196403 C10.8658543,21.6691334 11.9507723,21.735161 12.0222477,21.2543868 C12.0917559,21.043032 11.9297887,20.9325435 11.8074937,20.87282 C9.91864119,20.3220366 9.60126414,20.0111426 8.67765758,19.8047647 C8.64519857,19.7958062 8.56159201,19.8004513 8.56159201,19.8004513 C8.31405103,19.8004513 7.82880513,20.0463131 7.90749365,20.8658523 L7.90749365,20.8658523 Z M12.0061822,13.3732071 C12.0048707,13.1319905 11.6661822,12.6150504 11.0720838,12.596138 C10.3668379,12.5639536 10.2143789,13.5281564 10.2533953,13.7567647 C10.2533953,13.7567647 10.2537232,14.4240089 11.6622477,16.8879352 C11.7294609,16.9888016 11.8458543,17.1175389 12.004215,17.0163407 C12.3714281,16.8696864 11.9737232,15.4983684 12.0061822,13.3732071 L12.0061822,13.3732071 Z M8.31175595,17.5445619 C9.09700185,18.0050965 9.69503463,18.4795665 11.2156904,18.9201933 C11.3343789,18.9563592 11.5114281,18.9842301 11.5845428,18.7974283 C11.80651,18.4367647 10.8924117,17.9822025 9.62421496,16.2376126 C9.47667398,16.043843 8.87273955,15.8484145 8.35864119,16.2250043 C7.74093627,16.6643039 8.05765758,17.3132993 8.22978873,17.4728937 C8.22946086,17.4732255 8.28355922,17.5299629 8.31175595,17.5445619 L8.31175595,17.5445619 Z M19.9170018,21.0758799 C19.9170018,21.0758799 19.9097887,21.0569675 19.9032314,21.0516587 C19.7406084,20.8758062 19.6822477,20.735456 19.2901166,20.5114928 C19.2599527,20.493244 19.2104445,20.4726725 19.1553625,20.5158062 C19.0268379,20.5927831 19.209133,20.7424237 19.3025756,21.2842486 C19.314051,21.3449675 19.46651,21.4395297 19.6884773,21.380138 C19.9533953,21.3121195 19.9422477,21.1299629 19.9170018,21.0758799 L19.9170018,21.0758799 Z M21.221592,27.6885988 C21.2327396,27.7320642 21.2796248,27.838903 21.2796248,27.838903 C21.4097887,28.1653914 21.8304445,28.581797 22.5396248,28.2025527 C23.2114281,27.8598062 23.1278215,26.8680642 22.9029035,26.5127094 C21.1373297,23.8440642 20.9429035,22.7046725 20.5376576,22.8699076 C20.3488051,22.8997693 20.3402805,23.1214099 20.3488051,23.2776864 C20.4573297,25.2595112 20.9245428,26.4529859 21.221592,27.6885988 L21.221592,27.6885988 Z M20.8730674,19.7052255 C21.189133,19.414903 21.029133,19.1624053 20.9504445,19.1036771 C20.9504445,19.1036771 20.9258543,19.0831057 20.9133953,19.079456 C20.5448707,18.9467371 20.3537232,18.7894652 19.6271658,18.7546265 C19.5707723,18.7509767 19.4848707,18.7579444 19.4425756,18.8588108 C19.3238871,19.0628661 19.6960182,19.1441564 20.2563461,19.8502209 C20.3212641,19.9285251 20.6097887,19.9517509 20.8730674,19.7052255 L20.8730674,19.7052255 Z M19.8153625,13.8035481 C19.8153625,13.8035481 19.7625756,13.8214652 19.7445428,13.8373914 C19.2088051,14.2302394 18.8058543,14.3725804 18.0697887,15.3185343 C18.0111002,15.3915297 17.9402805,15.5103131 18.0435592,15.639714 C18.2192969,15.9469583 18.6861822,15.5083223 20.2150346,15.2717509 C20.3871658,15.2415573 20.6917559,14.8735942 20.5914281,14.343714 C20.4802805,13.7116403 19.9714281,13.7418338 19.8153625,13.8035481 L19.8153625,13.8035481 Z M3.86978873,9.93645134 C6.65503463,10.5927463 8.0448707,11.1607831 9.85110021,11.8419629 C10.0202805,11.9043407 10.1992969,11.8708292 10.2930674,11.7158799 C10.3812641,11.5698891 10.3668379,11.5098338 10.2419199,11.3913822 C8.73765758,9.96299512 6.50454283,8.47521632 4.70552644,7.50703199 C4.64323136,7.47285687 4.47372316,7.41147438 4.47372316,7.41147438 C3.96159201,7.21106885 3.13142808,7.79934535 3.05405103,8.70216563 C2.97175595,9.4374283 3.36191988,9.81667254 3.86978873,9.93645134 L3.86978873,9.93645134 Z M19.1173297,28.7526725 C19.8058543,28.6136495 19.9750346,27.7025343 19.8606084,27.3272716 C18.9337232,24.4904053 19.0406084,23.729926 18.6363461,23.7767094 C18.4586412,23.7558062 18.396674,23.9525619 18.36651,24.0955665 C17.9750346,25.9005435 18.0996248,26.7778154 18.0629035,27.9603407 C18.0606084,28.0028108 18.076674,28.1103131 18.076674,28.1103131 C18.1130674,28.4364698 18.3878215,28.9152532 19.1173297,28.7526725 L19.1173297,28.7526725 Z M19.3320838,17.2260366 C19.3560182,17.5485435 19.8360182,17.3461472 21.009133,17.6971887 C21.1429035,17.732691 21.4829035,17.5319536 21.5881494,17.0488569 C21.7173297,16.4755112 21.3429035,16.3185712 21.2097887,16.3142578 C21.2097887,16.3142578 21.16651,16.310608 21.1484773,16.3165804 C20.6350346,16.456267 20.2976576,16.431714 19.4576576,16.9649122 C19.3907723,17.0050596 19.3002805,17.079714 19.3320838,17.2260366 L19.3320838,17.2260366 Z M20.6360182,12.19035 C20.7953625,12.399714 21.009133,12.3954007 21.234051,12.2583684 C23.1192969,11.1007278 24.9884773,9.92550203 26.7232314,8.68292139 C28.4579855,9.92550203 30.3268379,11.1007278 32.2127396,12.2583684 C32.4373297,12.3954007 32.6514281,12.399714 32.8107723,12.19035 C32.9796248,11.9680458 32.8245428,11.7248384 32.6409363,11.5158062 C30.6671658,9.28646056 29.2051986,7.93571401 26.7229035,4.28196286 C24.2406084,7.93571401 22.7783133,9.28646056 20.8051986,11.5158062 C20.621592,11.7245066 20.4678215,11.9680458 20.6360182,12.19035 L20.6360182,12.19035 Z M24.0301166,26.2028108 C24.2602805,26.5180182 24.8268379,26.8491518 25.4858543,26.2436218 C26.1163461,25.6875297 25.7543789,24.6433638 25.4156904,24.3241748 C22.7848707,21.9425343 22.5038871,21.1438983 22.1130674,21.4345527 C21.9173297,21.5198246 21.9701166,21.7600458 22.0219199,21.9262762 C22.6806084,24.0285435 23.2694609,24.8102578 23.9278215,26.0558246 C23.9517559,26.100949 24.0301166,26.2028108 24.0301166,26.2028108 L24.0301166,26.2028108 Z M19.2255264,10.9364882 C19.4461822,11.079161 19.6451986,11.0008569 19.8097887,10.794479 C21.9376576,8.11687531 24.2333953,5.50961263 25.7720838,2.7530412 C25.8261822,2.6571518 25.9251986,2.39801816 25.9251986,2.39801816 C26.2497887,1.61132692 25.4114281,0.17829466 24.0373297,0.0246725401 C22.9183133,-0.129613174 22.3537232,0.459326918 22.154051,1.24303199 C21.0560182,5.54080157 20.2002805,7.48811954 19.0996248,10.2652624 C18.996674,10.5250596 18.9914281,10.7861841 19.2255264,10.9364882 L19.2255264,10.9364882 Z M26.7235592,32.3958062 C27.3245428,31.527161 27.9412641,30.4829951 28.4933953,29.2244882 C28.5396248,29.1209675 28.5635592,29.0201011 28.5635592,28.9248753 C28.5635592,28.483585 28.0750346,28.3014283 27.8858543,28.2689122 C27.529133,28.2088569 25.9186412,28.2088569 25.5609363,28.2689122 C25.3727396,28.3014283 24.8832314,28.4832532 24.8832314,28.9248753 C24.8832314,29.0201011 24.9078215,29.1209675 24.954051,29.2244882 C25.5058543,30.4833269 26.1225756,31.527161 26.7235592,32.3958062 L26.7235592,32.3958062 Z M21.6097887,37.7848569 C22.0399527,37.5433085 22.2786412,37.1458154 22.2622477,36.694903 C22.2547068,36.4732624 22.1848707,36.2439905 22.0602805,36.0326357 L21.6573297,35.351456 C20.8058543,33.9164329 20.629133,33.6181472 19.8383133,31.6067924 C19.5337232,30.8307186 18.9674937,30.0015573 18.2970018,30.0022209 C18.1517559,30.0042117 17.82651,30.0612808 17.6288051,30.2713085 C17.5111002,30.3934099 17.456674,30.547032 17.4632314,30.7265343 L17.464215,30.7530781 C17.7278215,34.8902578 19.4727396,37.0230504 19.4874937,37.0409675 C20.1743789,37.9879168 20.8688051,38.2294652 21.6097887,37.7848569 L21.6097887,37.7848569 Z M11.0261822,25.1951426 C12.6851986,23.5733177 13.5753625,23.3165066 13.4176576,22.9110504 C13.3779855,22.7076587 13.1897887,22.7106449 13.0583133,22.7312163 C11.3917559,22.9667924 10.5251986,23.5208937 9.61929693,23.8842117 C9.58683791,23.8954928 9.5196248,23.9462578 9.5196248,23.9462578 C9.30913299,24.086608 9.15306742,24.4801195 9.70814939,25.0249306 C10.1684773,25.4891149 10.8333953,25.3743131 11.0261822,25.1951426 L11.0261822,25.1951426 Z M12.4530674,33.9861103 C12.2648707,32.7431979 12.2012641,32.3248016 12.2012641,31.0808937 C12.2012641,30.8347002 12.2035592,30.5559905 12.2084773,30.1813914 C12.2084773,29.4481195 12.0094609,28.5857785 11.44651,28.3687831 C11.3179855,28.3203407 11.0147068,28.2599536 10.7674937,28.3764145 C10.6222477,28.4444329 10.521592,28.5615573 10.46651,28.7231426 C9.99995267,30.0858338 9.76290349,31.4246357 9.76290349,32.7007278 C9.76290349,33.9423131 9.98946086,34.6513638 9.99732972,34.677244 C10.2527396,35.703161 10.7638871,36.1394744 11.5556904,36.0127278 C12.174051,35.9314375 12.5730674,35.4914744 12.5730674,34.8889306 C12.5730674,34.8215758 12.5674937,34.7535573 12.5573297,34.6855389 L12.4530674,33.9861103 L12.4530674,33.9861103 Z M17.0009363,35.1291518 C16.4720838,33.6340735 16.361592,33.323843 16.0078215,31.294903 C15.8720838,30.5108661 15.496674,29.637244 14.8432314,29.532396 C14.7009363,29.509502 14.3674937,29.511161 14.1327396,29.6873454 C13.9960182,29.7888753 13.9137232,29.9298891 13.8878215,30.1087278 C13.7809363,30.8207647 13.7271658,31.527161 13.7271658,32.2076771 C13.7271658,34.8574099 14.5501166,36.3601195 14.5560182,36.3707371 C15.0251986,37.3767463 15.6478215,37.7178338 16.4550346,37.4139076 C17.0009363,37.2264421 17.32651,36.8007463 17.32651,36.2741841 C17.32651,36.1268661 17.3002805,35.9758983 17.2474937,35.827585 L17.0009363,35.1291518 L17.0009363,35.1291518 Z M8.05372316,25.8491149 C7.90847726,25.8836218 7.79208381,25.9735389 7.71241168,26.1155481 C6.31601824,28.5389951 6.1648707,30.5048937 6.1648707,31.2378338 C6.1648707,31.4564882 6.17864119,31.5749398 6.17864119,31.5706265 C6.2206084,32.5796218 6.60257562,33.088267 7.34716578,33.1270873 C7.66388709,33.1523039 7.94093627,33.0693546 8.14847726,32.8865343 C8.36454283,32.6977417 8.49273955,32.4133914 8.51077234,32.086903 L8.54552644,31.4173361 C8.61765758,29.9836403 8.63077234,29.6853546 9.0206084,27.8694283 C9.05831332,27.6909214 9.10323136,27.4148661 9.10323136,27.1086172 C9.10323136,26.7227371 9.02946086,26.2160827 8.67372316,25.9778523 C8.56651004,25.9075112 8.29831332,25.790055 8.05372316,25.8491149 L8.05372316,25.8491149 Z M2.05044447,13.0311242 C4.40191988,12.8015205 6.02257562,13.1416126 8.09700185,13.1744606 C8.30454283,13.1774467 8.46946086,13.1124145 8.51798545,12.9601195 C8.56224775,12.8141288 8.48552644,12.713926 8.29175595,12.6701288 C6.09241168,11.9876218 3.63175595,11.177373 1.82782152,11.0456495 C1.76913299,11.0413361 1.62388709,11.0512901 1.62388709,11.0512901 C1.18716578,11.0708661 0.64191988,11.7716218 0.983887093,12.3887647 C1.24028054,12.8778338 1.66913299,13.0679536 2.05044447,13.0311242 L2.05044447,13.0311242 Z M14.8392969,23.777373 C14.7386412,23.6751795 14.601592,23.7690781 14.5130674,23.8434007 C13.3792969,24.7857048 12.8743789,25.5972808 12.2707723,26.3249122 C12.2481494,26.3501288 12.2061822,26.4257785 12.2061822,26.4257785 C12.0688051,26.6490781 12.00651,27.0887094 12.5455264,27.3501656 C13.0494609,27.6066449 13.6038871,27.1165804 13.714051,26.8232716 C14.5238871,24.5716956 15.1163461,23.9495758 14.8392969,23.777373 L14.8392969,23.777373 Z M1.15142808,16.2694652 C3.41831332,15.5617417 4.73175595,15.5355297 7.10946086,15.0733361 C7.36093627,15.0235665 7.52749365,14.9094283 7.54749365,14.7368937 C7.56290349,14.5709951 7.43110021,14.4847278 7.18814939,14.491032 C4.58782152,14.3792163 2.29470676,14.2743684 0.654051027,14.5633638 C0.602575617,14.5723223 0.478313322,14.6124698 0.478313322,14.6124698 C0.10454283,14.7222947 -0.185621104,15.3838983 0.143559224,15.8739629 C0.400936273,16.2790873 0.801592011,16.3776311 1.15142808,16.2694652 L1.15142808,16.2694652 Z M1.82028054,20.1591242 C3.63175595,18.8528384 4.86519857,18.3388845 6.60290349,17.2084513 C6.77732972,17.0939813 6.84388709,16.8972255 6.80028054,16.7452624 C6.7553625,16.598608 6.60290349,16.5073638 6.41700185,16.5796956 C4.42946086,17.0073822 2.08191988,17.6454283 0.512083814,18.542608 C0.461264142,18.5718062 0.346510044,18.6610596 0.346510044,18.6610596 C-0.00562110398,18.9211887 -0.0423424155,19.8996587 0.580936273,20.2208384 C1.0648707,20.4842854 1.52519857,20.4033269 1.82028054,20.1591242 L1.82028054,20.1591242 Z M6.74782152,19.1159536 C6.68782152,19.0187371 6.52388709,18.9311426 6.2996248,19.0369859 C4.48814939,19.89435 2.95142808,21.1488753 1.17569037,22.6751426 C1.12159201,22.7212624 1.0301166,22.8788661 1.0301166,22.8788661 C0.714051027,23.3330965 0.776346109,24.9164329 1.62552644,25.2090781 C2.3143789,25.4658891 2.91470676,24.8255205 3.17208381,24.3679721 C4.51208381,21.9787002 5.54257562,21.1648016 6.6301166,19.7563223 C6.73995267,19.6129859 6.93044447,19.4079352 6.74782152,19.1159536 L6.74782152,19.1159536 Z M6.98716578,23.4153822 C6.98716578,23.1336864 6.9743789,22.9127094 6.83241168,22.7580919 C6.74126414,22.6635297 6.52290349,22.5653177 6.28782152,22.5676403 C6.14618217,22.5702947 6.02159201,22.6296864 5.91831332,22.74482 C3.65273955,25.2319721 3.5553625,27.1703315 3.5543789,27.1879168 C3.51700185,27.3913085 3.49929693,27.5084329 3.49929693,27.6730043 C3.49929693,28.2951242 3.63831332,28.7954744 4.17700185,28.9507555 C4.45831332,29.0423315 4.72814939,29.0244145 4.95732972,28.9013177 C5.19732972,28.7712532 5.37667398,28.5323592 5.46191988,28.2274375 L5.63044447,27.6242301 C5.99896906,26.3003592 5.89372316,26.271161 6.63044447,24.6586265 C6.7196248,24.4625343 6.98716578,23.8961564 6.98716578,23.4153822 L6.98716578,23.4153822 Z M38.8983133,11.8034744 C38.3724117,12.0868292 38.2930674,12.7056311 38.3986412,12.9229583 C39.3648707,14.8238246 39.3488051,15.6795297 39.7435592,15.6480089 C39.9320838,15.667585 39.9796248,15.4993638 39.996674,15.3785896 C40.2363461,13.8417048 39.9871658,12.9272716 39.9133953,12.0290965 C39.9120838,11.9979076 39.8868379,11.925244 39.8868379,11.925244 C39.8209363,11.7016126 39.5199527,11.4587371 38.8983133,11.8034744 L38.8983133,11.8034744 Z M38.0196248,10.0369859 C38.2192969,10.0446172 38.2920838,9.85682001 38.3383133,9.65940065 C38.8245428,7.55547438 39.1032314,5.90113337 40.2153625,2.8977048 C40.416674,2.35090295 40.3137232,1.71352047 39.5878215,1.3375942 C38.7120838,0.855492817 37.7245428,1.16505964 37.594051,1.76627623 C37.594051,1.76627623 37.54651,1.9610412 37.5389691,2.04000895 C37.3206084,4.31580618 37.5878215,7.2415942 37.7511002,9.71613798 C37.7635592,9.90791678 37.8301166,10.0300182 38.0196248,10.0369859 L38.0196248,10.0369859 Z M37.5711002,28.6713822 C38.2117559,28.6348845 38.3281494,28.1740182 38.2832314,27.8953085 C38.2832314,27.8953085 38.2717559,27.8027371 38.2592969,27.7685619 C37.9550346,26.7977232 37.8953625,25.9151426 37.1524117,24.5126357 C37.0947068,24.4014836 36.9976576,24.2528384 36.8550346,24.3118983 C36.5107723,24.3676403 36.734051,25.099585 36.6258543,27.665373 C36.6170018,28.0021472 36.9688051,28.7165066 37.5711002,28.6713822 L37.5711002,28.6713822 Z M35.4832314,12.1833822 C35.0825756,12.6349583 35.2206084,13.2471242 35.3950346,13.4156771 C36.9606084,14.875585 37.2396248,15.6901472 37.6022477,15.5229214 C37.7868379,15.4754744 37.7730674,15.2996218 37.7478215,15.1801748 C37.4468379,13.6422947 36.8986412,12.8652255 36.5196248,12.0423684 C36.5074937,12.0125066 36.4579855,11.9524513 36.4579855,11.9524513 C36.3202805,11.7649859 35.9517559,11.6395665 35.4832314,12.1833822 L35.4832314,12.1833822 Z M52.9353625,18.542608 C51.3648707,17.6454283 49.0179855,17.0073822 47.0304445,16.5796956 C46.8445428,16.5073638 46.6920838,16.598608 46.6471658,16.7452624 C46.6032314,16.8975573 46.669133,17.0943131 46.8445428,17.2084513 C48.5822477,18.3385527 49.8156904,18.8528384 51.62651,20.1591242 C51.921592,20.4029951 52.3825756,20.4839536 52.86651,20.2211702 C53.4894609,19.8999905 53.4524117,18.9215205 53.1002805,18.6613914 C53.1002805,18.6613914 52.9855264,18.5718062 52.9353625,18.542608 L52.9353625,18.542608 Z M47.5284773,22.7444882 C47.4258543,22.6290228 47.3012641,22.5699629 47.1589691,22.5673085 C46.9235592,22.5649859 46.7051986,22.6631979 46.6150346,22.7577601 C46.4727396,22.9127094 46.4592969,23.1336864 46.4592969,23.4150504 C46.4592969,23.8958246 46.7268379,24.4622025 46.8170018,24.6576311 C47.5537232,26.2698338 47.4481494,26.299032 47.8163461,27.6232348 L47.9855264,28.2264421 C48.0707723,28.5313638 48.2504445,28.7705896 48.4901166,28.9003223 C48.7192969,29.0234191 48.9888051,29.0416679 49.2704445,28.9497601 C49.8094609,28.794479 49.9481494,28.2941288 49.9481494,27.6720089 C49.9481494,27.5074375 49.9301166,27.3903131 49.8930674,27.1869214 C49.8917559,27.1699997 49.7947068,25.2316403 47.5284773,22.7444882 L47.5284773,22.7444882 Z M43.9268379,23.945926 C43.9268379,23.945926 43.8596248,23.8954928 43.8278215,23.8838799 C42.9219199,23.5205619 42.0553625,22.9664606 40.3888051,22.7308845 C40.2576576,22.7103131 40.0684773,22.7073269 40.0294609,22.9107186 C39.8717559,23.3161748 40.761592,23.5729859 42.4209363,25.1948108 C42.6130674,25.3739813 43.2786412,25.4887831 43.7383133,25.024267 C44.294051,24.4801195 44.1379855,24.0862762 43.9268379,23.945926 L43.9268379,23.945926 Z M52.2714281,22.6748108 C50.4953625,21.1485435 48.9589691,19.8940182 47.1468379,19.0366541 C46.9225756,18.9311426 46.7592969,19.0184053 46.6996248,19.1156218 C46.5170018,19.4076034 46.70651,19.6126541 46.8170018,19.7559905 C47.9038871,21.1644698 48.9343789,21.9783684 50.2743789,24.3676403 C50.5324117,24.8251887 51.1327396,25.4658891 51.821592,25.2087463 C52.6711002,24.9157693 52.7333953,23.3327647 52.4170018,22.8785343 C52.4170018,22.8788661 52.3248707,22.7209306 52.2714281,22.6748108 L52.2714281,22.6748108 Z M45.3933953,25.8491149 C45.1488051,25.790055 44.8809363,25.9075112 44.7724117,25.9778523 C44.4173297,26.2160827 44.3435592,26.7227371 44.3435592,27.1086172 C44.3435592,27.4148661 44.3884773,27.6909214 44.4261822,27.8694283 C44.8156904,29.6856864 44.829133,29.9836403 44.9012641,31.4173361 L44.9353625,32.086903 C44.9533953,32.4133914 45.0822477,32.6977417 45.2973297,32.8865343 C45.5058543,33.0693546 45.7825756,33.1523039 46.0986412,33.1270873 C46.8435592,33.088267 47.2258543,32.5796218 47.2678215,31.5706265 C47.2678215,31.5749398 47.281592,31.4564882 47.281592,31.2378338 C47.281592,30.5052255 47.1304445,28.5389951 45.7337232,26.1155481 C45.6543789,25.9735389 45.5386412,25.8836218 45.3933953,25.8491149 L45.3933953,25.8491149 Z M42.3743789,12.596138 C41.7812641,12.6150504 41.4422477,13.1319905 41.4409363,13.3732071 C41.4730674,15.4983684 41.0750346,16.8696864 41.4422477,17.0160089 C41.6009363,17.1175389 41.7170018,16.9884698 41.784215,16.8876034 C43.1927396,14.4236771 43.1937232,13.7564329 43.1937232,13.7564329 C43.2320838,13.5281564 43.0799527,12.5642854 42.3743789,12.596138 L42.3743789,12.596138 Z M44.929133,12.9597877 C44.9776576,13.1124145 45.1419199,13.1771149 45.3497887,13.1741288 C47.4245428,13.1412808 49.0448707,12.8011887 51.3960182,13.0307924 C51.7773297,13.0676218 52.2071658,12.877502 52.4625756,12.3877693 C52.8048707,11.7709583 52.2596248,11.0698707 51.8232314,11.0502947 C51.8232314,11.0502947 51.6779855,11.0406725 51.6192969,11.0446541 C49.8153625,11.1763776 47.3547068,11.9866265 45.1553625,12.6691334 C44.9612641,12.7135942 44.884215,12.813797 44.929133,12.9597877 L44.929133,12.9597877 Z M46.2592969,14.4907002 C46.0156904,14.484396 45.8835592,14.5706633 45.8992969,14.7365619 C45.9196248,14.9090965 46.0861822,15.022903 46.3370018,15.0730043 C48.7147068,15.5355297 50.029133,15.5617417 52.2960182,16.2691334 C52.6448707,16.3772993 53.0458543,16.2787555 53.3035592,15.8736311 C53.6324117,15.3835665 53.3419199,14.7219629 52.9688051,14.612138 C52.9688051,14.612138 52.8438871,14.5719905 52.7924117,14.563032 C51.1524117,14.2740366 48.8592969,14.3788845 46.2592969,14.4907002 L46.2592969,14.4907002 Z M41.8622477,18.7977601 C41.9363461,18.9845619 42.1133953,18.956691 42.2317559,18.9205251 C43.7527396,18.4798983 44.3504445,18.0050965 45.1356904,17.5448937 C45.1638871,17.5299629 45.2176576,17.4732255 45.2176576,17.4732255 C45.3897887,17.3139629 45.7058543,16.6646357 45.0888051,16.2253361 C44.5747068,15.8487463 43.9707723,16.0441748 43.8225756,16.2379444 C42.5550346,17.9825343 41.6409363,18.4370965 41.8622477,18.7977601 L41.8622477,18.7977601 Z M41.6907723,10.7042301 C41.8333953,10.8153822 41.9730674,10.7772255 42.1078215,10.6567831 C43.5511002,9.36741908 44.5533953,8.46957577 46.9199527,6.84808268 C47.3504445,6.55245134 47.6196248,5.99934535 47.2812641,5.34338222 C46.88651,4.5291518 45.9419199,4.34666332 45.5347068,4.71927162 C45.5347068,4.71927162 45.3989691,4.83705964 45.3527396,4.89180618 C44.0996248,6.35171401 42.7953625,8.32723475 41.5776576,10.3296311 C41.4884773,10.4772808 41.5563461,10.5990504 41.6907723,10.7042301 L41.6907723,10.7042301 Z M39.7878215,10.1129675 C39.9570018,10.1716956 40.0943789,10.1305527 40.1848707,9.97328084 C41.1471658,8.28741908 42.08651,6.68749282 43.8189691,4.39178775 C44.1343789,3.97339143 44.2176576,3.38179696 43.6888051,2.86817484 C43.0589691,2.22282922 42.0697887,2.25501355 41.8009363,2.73943752 C41.8009363,2.73943752 41.7101166,2.89405503 41.6835592,2.96041448 C40.9088051,4.86327162 40.1622477,7.56045134 39.6638871,9.73438683 C39.6258543,9.90360342 39.6258543,10.0565619 39.7878215,10.1129675 L39.7878215,10.1129675 Z M44.5802805,21.9196403 C44.8570018,21.972396 45.4806084,21.594479 45.5396248,20.8658523 C45.6186412,20.0463131 45.1327396,19.8004513 44.8855264,19.8004513 C44.8855264,19.8004513 44.8022477,19.7954744 44.7697887,19.8047647 C43.8455264,20.0111426 43.5288051,20.3220366 41.6392969,20.87282 C41.5173297,20.9328753 41.3550346,21.0433638 41.4245428,21.2543868 C41.4963461,21.735161 42.5809363,21.6691334 44.5802805,21.9196403 L44.5802805,21.9196403 Z M43.1543789,11.7158799 C43.2478215,11.8708292 43.4271658,11.9040089 43.5960182,11.8419629 C45.4025756,11.1607831 46.7917559,10.5924145 49.5773297,9.93645134 C50.0848707,9.81700434 50.4747068,9.4374283 50.3930674,8.70216563 C50.3153625,7.79967715 49.4855264,7.21140065 48.9727396,7.41147438 C48.9727396,7.41147438 48.804215,7.47285687 48.7419199,7.50703199 C46.9429035,8.47521632 44.709133,9.96299512 43.2045428,11.3913822 C43.0799527,11.5098338 43.0651986,11.5698891 43.1543789,11.7158799 L43.1543789,11.7158799 Z M35.376674,15.3182025 C34.6412641,14.3722486 34.2379855,14.2299076 33.7025756,13.8370596 C33.6838871,13.8211334 33.6317559,13.8032163 33.6317559,13.8032163 C33.4750346,13.7411702 32.9671658,13.7113085 32.8550346,14.3430504 C32.7553625,14.8729306 33.0602805,15.2408937 33.2320838,15.2710873 C34.7612641,15.5079905 35.2278215,15.9462947 35.4029035,15.6390504 C35.5068379,15.5103131 35.4353625,15.3911979 35.376674,15.3182025 L35.376674,15.3182025 Z M35.6432314,9.98190756 C35.7196248,10.1935942 35.8471658,10.3216679 36.0622477,10.2672532 C36.2907723,10.2088569 36.416674,10.0200642 36.4035592,9.78282922 C36.2599527,7.24491217 36.0461822,5.40775088 36.3114281,1.64483844 C36.3592969,0.959013554 35.9645428,0.29707807 35.021592,0.116912171 C33.8733953,-0.132931147 32.7474937,0.661391434 32.7986412,1.38305042 C32.7986412,1.38305042 32.8094609,1.61862646 32.8261822,1.71020249 C33.3301166,4.35230388 34.6438871,7.24424858 35.6432314,9.98190756 L35.6432314,9.98190756 Z M32.4373297,17.6971887 C33.6104445,17.3461472 34.0911002,17.5485435 34.1143789,17.2260366 C34.1468379,17.079714 34.0556904,17.0050596 33.9894609,16.9649122 C33.1488051,16.431714 32.8120838,16.456267 32.2979855,16.3165804 C32.2799527,16.310608 32.236674,16.3142578 32.236674,16.3142578 C32.104215,16.3185712 31.729133,16.4755112 31.8589691,17.0488569 C31.9635592,17.5319536 32.304215,17.7330228 32.4373297,17.6971887 L32.4373297,17.6971887 Z M33.7583133,21.380138 C33.9806084,21.4395297 34.1333953,21.3449675 34.1448707,21.2842486 C34.2383133,20.7420919 34.4209363,20.5927831 34.2924117,20.5158062 C34.2370018,20.4726725 34.1874937,20.4935758 34.1573297,20.5114928 C33.7645428,20.735456 33.7068379,20.8758062 33.5438871,21.0516587 C33.5370018,21.0572993 33.5304445,21.0758799 33.5304445,21.0758799 C33.5051986,21.1299629 33.4930674,21.3121195 33.7583133,21.380138 L33.7583133,21.380138 Z M34.004215,18.8588108 C33.9622477,18.7576126 33.8763461,18.7509767 33.8199527,18.7546265 C33.0937232,18.7891334 32.901592,18.9464053 32.534051,19.079456 C32.5212641,19.0834375 32.496674,19.1036771 32.496674,19.1036771 C32.4183133,19.1627371 32.2579855,19.414903 32.574051,19.7052255 C32.8376576,19.9517509 33.1261822,19.9285251 33.1907723,19.8505527 C33.7511002,19.1444882 34.1235592,19.0631979 34.004215,18.8588108 L34.004215,18.8588108 Z M34.3294609,28.7526725 C35.0596248,28.9152532 35.334051,28.4364698 35.3707723,28.1103131 C35.3707723,28.1103131 35.3871658,28.0028108 35.3845428,27.9603407 C35.3481494,26.7778154 35.4730674,25.9005435 35.0802805,24.0955665 C35.0504445,23.9525619 34.9881494,23.7558062 34.8104445,23.7767094 C34.40651,23.729926 34.5130674,24.4904053 33.5868379,27.3272716 C33.4717559,27.7025343 33.6412641,28.6136495 34.3294609,28.7526725 L34.3294609,28.7526725 Z M32.3822477,30.3788108 C32.4009363,30.3164329 32.4104445,30.2553822 32.4133953,30.1966541 C32.4350346,29.6986265 31.8989691,29.5158062 31.6888051,29.4872716 C30.9986412,29.4016679 29.9792969,29.9424974 29.4861822,30.7096126 C28.1976576,32.7050412 28.189133,33.2408937 26.974051,34.6284698 L26.7232314,34.8859444 L26.4724117,34.6284698 C25.2570018,33.2408937 25.2488051,32.7050412 23.9602805,30.7096126 C23.4671658,29.9424974 22.4488051,29.4019997 21.7573297,29.4872716 C21.5481494,29.5158062 21.0114281,29.6986265 21.0333953,30.1966541 C21.0363461,30.2553822 21.0458543,30.3164329 21.0648707,30.3788108 C22.2963461,34.651032 24.5943789,36.8939813 24.614051,36.9112348 C25.294051,37.5688569 26.08651,37.9570596 26.7232314,37.8996587 C27.3599527,37.9573914 28.1517559,37.5691887 28.8330674,36.9112348 C28.8527396,36.8939813 31.1504445,34.651032 32.3822477,30.3788108 L32.3822477,30.3788108 Z M35.1507723,30.0022209 C34.4792969,30.0015573 33.914051,30.8307186 33.609133,31.6067924 C32.8179855,33.6181472 32.641592,33.9164329 31.7897887,35.351456 L31.3871658,36.0326357 C31.2622477,36.2439905 31.1920838,36.4732624 31.1848707,36.694903 C31.1681494,37.1458154 31.4068379,37.5436403 31.8376576,37.7848569 C32.5776576,38.2294652 33.2730674,37.987585 33.9599527,37.0409675 C33.9743789,37.0230504 35.7196248,34.8902578 35.9832314,30.7530781 L35.9838871,30.7265343 C35.9907723,30.547032 35.9360182,30.3934099 35.8189691,30.2713085 C35.6199527,30.0612808 35.2950346,30.0042117 35.1507723,30.0022209 L35.1507723,30.0022209 Z M27.6747068,2.753373 C29.2137232,5.50994443 31.5088051,8.1172071 33.6373297,10.7948108 C33.801592,11.0011887 34.0012641,11.0794928 34.2219199,10.93682 C34.4553625,10.7861841 34.4504445,10.5253914 34.3481494,10.2655942 C33.2474937,7.48845134 32.3907723,5.54113337 31.2937232,1.24336378 C31.094051,0.459658715 30.529133,-0.129281377 29.4097887,0.0250043374 C28.036674,0.178626457 27.1976576,1.61165872 27.5225756,2.39834996 C27.5222477,2.39834996 27.6206084,2.6574836 27.6747068,2.753373 L27.6747068,2.753373 Z M30.7711002,15.4622025 C30.7589691,15.2608016 30.56651,15.206055 30.3681494,15.1788477 C29.1225756,15.012949 28.0278215,14.8981472 26.7235592,14.6695389 C25.4192969,14.8981472 24.3248707,15.012949 23.0796248,15.1788477 C22.8809363,15.206055 22.6884773,15.2608016 22.6760182,15.4622025 C22.6651986,15.6526541 22.7789691,15.7316218 22.9674937,15.7631426 C24.1556904,15.9612255 25.4471658,16.1918246 26.7238871,16.3786265 C28.0002805,16.1918246 29.2924117,15.9608937 30.4799527,15.7631426 C30.6678215,15.7316218 30.7819199,15.6526541 30.7711002,15.4622025 L30.7711002,15.4622025 Z M29.9432314,19.4537232 C28.8504445,20.0997324 27.9074937,20.6926541 26.7235592,21.3270504 C25.5399527,20.6926541 24.5970018,20.0997324 23.5035592,19.4537232 C23.3304445,19.3518615 23.144215,19.2758799 23.0117559,19.427843 C22.8881494,19.5711795 22.9288051,19.7038983 23.0586412,19.8462394 C24.2029035,21.0947924 25.46651,22.5172071 26.7238871,23.7461841 C27.981592,22.5172071 29.2448707,21.0947924 30.3888051,19.8462394 C30.5186412,19.7038983 30.5596248,19.5711795 30.4360182,19.427843 C30.3032314,19.2758799 30.1173297,19.3521933 29.9432314,19.4537232 L29.9432314,19.4537232 Z M31.7199527,13.718608 C31.7878215,13.4916587 31.6917559,13.2846172 31.4829035,13.1741288 C29.8543789,12.3107924 28.5143789,11.6611334 26.7232314,10.5360089 C24.9324117,11.6614652 23.5917559,12.3111242 21.9638871,13.1741288 C21.7550346,13.2846172 21.6589691,13.4916587 21.7268379,13.718608 C21.7914281,13.932949 21.9658543,13.9770781 22.1855264,13.9339444 C23.6635592,13.649926 25.2160182,13.412691 26.7229035,13.1243592 C28.2297887,13.412691 29.7825756,13.649926 31.2599527,13.9339444 C31.4802805,13.9770781 31.6553625,13.9332808 31.7199527,13.718608 L31.7199527,13.718608 Z M42.6799527,28.3767463 C42.4320838,28.2599536 42.1284773,28.3203407 42.0009363,28.3691149 C41.4376576,28.5861103 41.2386412,29.4484513 41.2386412,30.1817232 C41.244215,30.5563223 41.2455264,30.835032 41.2455264,31.0812255 C41.2455264,32.3251334 41.1829035,32.7435297 40.9943789,33.9864421 L40.8894609,34.6862025 C40.8799527,34.7542209 40.8743789,34.8222394 40.8743789,34.8895942 C40.8743789,35.4918062 41.2733953,35.9321011 41.8911002,36.0133914 C42.6835592,36.140138 43.194051,35.7034928 43.4501166,34.6779076 C43.4579855,34.6520274 43.6848707,33.9429767 43.6848707,32.7013914 C43.6848707,31.4249675 43.4478215,30.0864974 42.9806084,28.7238062 C42.9251986,28.5618891 42.824215,28.4447647 42.6799527,28.3767463 L42.6799527,28.3767463 Z M30.4917559,17.3789951 C30.4170018,17.1908661 30.2170018,17.1998246 30.0202805,17.2369859 C28.889133,17.4533177 27.8907723,17.6696495 26.7235592,17.855456 C25.556674,17.6693177 24.5583133,17.4533177 23.4271658,17.2369859 C23.2297887,17.1998246 23.0294609,17.1905343 22.9553625,17.3789951 C22.8868379,17.5561748 22.9697887,17.6673269 23.1389691,17.757244 C24.2714281,18.3541472 25.5006084,19.022055 26.7238871,19.630903 C27.9471658,19.0217232 29.1763461,18.3538154 30.3084773,17.757244 C30.4776576,17.6676587 30.5606084,17.5565066 30.4917559,17.3789951 L30.4917559,17.3789951 Z M30.9078215,28.2025527 C31.616674,28.5821288 32.0370018,28.1657232 32.1674937,27.838903 C32.1674937,27.838903 32.2137232,27.7320642 32.2251986,27.6885988 C32.5219199,26.4529859 32.9897887,25.259843 33.0986412,23.2776864 C33.1061822,23.1210781 33.0986412,22.8994375 32.909133,22.8699076 C32.504215,22.7050043 32.3097887,23.844396 30.544215,26.5127094 C30.3189691,26.8677324 30.2363461,27.8594744 30.9078215,28.2025527 L30.9078215,28.2025527 Z M41.2412641,26.4257785 C41.2412641,26.4257785 41.1986412,26.3501288 41.176674,26.3249122 C40.5724117,25.5972808 40.0681494,24.785373 38.9343789,23.8434007 C38.8451986,23.7687463 38.7088051,23.6751795 38.6074937,23.777373 C38.3304445,23.9499076 38.9235592,24.5720274 39.7330674,26.8236034 C39.8438871,27.1169122 40.3979855,27.6069767 40.9012641,27.3504974 C41.4409363,27.0887094 41.3786412,26.6490781 41.2412641,26.4257785 L41.2412641,26.4257785 Z M29.416674,26.2028108 C29.416674,26.2028108 29.4960182,26.1006172 29.5192969,26.0561564 C30.1773297,24.8105896 30.76651,24.0288753 31.4251986,21.926608 C31.4770018,21.7603776 31.529133,21.5198246 31.3343789,21.4348845 C30.9425756,21.1442301 30.6625756,21.9428661 28.0311002,24.3245066 C27.6920838,24.6436956 27.3307723,25.6878615 27.9612641,26.2439536 C28.6199527,26.8491518 29.1861822,26.5180182 29.416674,26.2028108 L29.416674,26.2028108 Z M39.314051,29.6873454 C39.0789691,29.511161 38.7461822,29.509502 38.6038871,29.532396 C37.9507723,29.637244 37.5743789,30.5108661 37.4389691,31.294903 C37.0855264,33.3235112 36.9747068,33.6340735 36.4455264,35.1291518 L36.1996248,35.8272532 C36.1468379,35.9752348 36.1206084,36.1262025 36.1206084,36.2738523 C36.1206084,36.8004145 36.4455264,37.2257785 36.9914281,37.4135758 C37.7989691,37.717502 38.4212641,37.3767463 38.8904445,36.3704053 C38.8973297,36.3597877 39.7199527,34.8570781 39.7199527,32.2073454 C39.7199527,31.5268292 39.6655264,30.8201011 39.5586412,30.108396 C39.5337232,29.9302209 39.4507723,29.7888753 39.314051,29.6873454 L39.314051,29.6873454 Z M34.8406084,38.9720274 C34.7061822,38.9089859 34.5425756,38.941502 34.4730674,38.967714 C34.1674937,39.0851702 34.0596248,39.5530043 34.0596248,39.9498338 C34.0625756,40.1525619 34.0632314,40.3035297 34.0632314,40.4379076 C34.0632314,41.1117877 34.0294609,41.3384053 33.9278215,42.0112901 L33.8707723,42.3908661 C33.8651986,42.4283592 33.8629035,42.4658523 33.8629035,42.5020182 C33.8629035,42.827843 34.0789691,43.0664053 34.4137232,43.1102025 C34.8435592,43.1795481 35.1196248,42.9426449 35.2583133,42.3865527 C35.2625756,42.3726172 35.3855264,41.988396 35.3855264,41.3151795 C35.3855264,40.6243776 35.2570018,39.8990689 35.004215,39.1604882 C34.9737232,39.0718983 34.9196248,39.0081933 34.8406084,38.9720274 L34.8406084,38.9720274 Z M30.7602805,39.8526172 C30.3970018,39.8526172 30.0901166,40.3018707 29.9251986,40.7225896 C29.4963461,41.8128753 29.4002805,41.9741288 28.9389691,42.7518615 L28.7206084,43.12082 C28.6533953,43.2349583 28.6153625,43.3593822 28.6107723,43.4801564 C28.6019199,43.7240274 28.7314281,43.9396956 28.964215,44.0700919 C29.3661822,44.3113085 29.7429035,44.1799168 30.1147068,43.6669583 C30.1222477,43.6573361 31.0684773,42.5013546 31.2114281,40.2590689 L31.2124117,40.2451334 C31.2156904,40.1482486 31.1861822,40.0649675 31.1225756,39.9989398 C31.0153625,39.8844698 30.8386412,39.8539444 30.7602805,39.8526172 L30.7602805,39.8526172 Z M33.0170018,39.6820735 C32.889133,39.5868477 32.7088051,39.5861841 32.6317559,39.5974652 C32.2779855,39.6548661 32.074051,40.1290043 32.0006084,40.5530412 C31.8088051,41.652949 31.7484773,41.8205066 31.4619199,42.6317509 L31.3288051,43.0093361 C31.2999527,43.0906265 31.2855264,43.1719168 31.2855264,43.2518799 C31.2855264,43.5372255 31.4619199,43.7674928 31.7579855,43.868691 C32.1953625,44.0335942 32.5330674,43.8484513 32.7868379,43.3043039 C32.7904445,43.2979997 33.2360182,42.4834375 33.2360182,41.0477509 C33.2360182,40.6787924 33.2071658,40.2962301 33.149133,39.9100182 C33.1356904,39.813797 33.0907723,39.7364882 33.0170018,39.6820735 L33.0170018,39.6820735 Z M21.9848707,42.6317509 C21.6979855,41.8208384 21.6379855,41.6532808 21.44651,40.5530412 C21.3733953,40.1290043 21.1694609,39.6548661 20.8153625,39.5974652 C20.7383133,39.5861841 20.5583133,39.5868477 20.4301166,39.6820735 C20.3563461,39.7364882 20.3120838,39.8134652 20.2976576,39.91035 C20.2402805,40.2965619 20.2101166,40.6787924 20.2101166,41.0480827 C20.2101166,42.4837693 20.6563461,43.2983315 20.6599527,43.3046357 C20.914051,43.8491149 21.2514281,44.033926 21.6894609,43.8690228 C21.9845428,43.7674928 22.1609363,43.5375573 22.1609363,43.2522117 C22.1609363,43.1722486 22.1471658,43.0909583 22.1183133,43.0096679 L21.9848707,42.6317509 L21.9848707,42.6317509 Z M19.5199527,42.0112901 C19.4176576,41.3384053 19.3835592,41.1117877 19.3835592,40.4379076 C19.3835592,40.3038615 19.3848707,40.1528937 19.3878215,39.9498338 C19.3878215,39.5530043 19.2792969,39.085502 18.9747068,38.967714 C18.9048707,38.941502 18.7406084,38.9086541 18.6061822,38.9720274 C18.5284773,39.0081933 18.4733953,39.0722301 18.4438871,39.1601564 C18.1907723,39.8990689 18.0622477,40.6240458 18.0622477,41.3148477 C18.0622477,41.9880642 18.1851986,42.3726172 18.1888051,42.3862209 C18.3281494,42.9423131 18.6055264,43.1792163 19.034051,43.1098707 C19.3688051,43.0660735 19.5855264,42.8275112 19.5855264,42.5016864 C19.5855264,42.4655205 19.5822477,42.4280274 19.5773297,42.3905343 L19.5199527,42.0112901 L19.5199527,42.0112901 Z M24.5081494,42.7518615 C24.0468379,41.9741288 23.9511002,41.8128753 23.5225756,40.7225896 C23.3570018,40.3018707 23.0507723,39.8526172 22.6868379,39.8526172 C22.6084773,39.8539444 22.4320838,39.8844698 22.3251986,39.9989398 C22.2609363,40.0649675 22.2314281,40.1482486 22.2353625,40.2451334 L22.2360182,40.2590689 C22.3783133,42.5016864 23.3245428,43.6573361 23.3317559,43.6669583 C23.7051986,44.1799168 24.0809363,44.3109767 24.4825756,44.0700919 C24.7150346,43.9393638 24.8445428,43.7240274 24.8363461,43.4801564 C24.8314281,43.3593822 24.7943789,43.2349583 24.72651,43.12082 L24.5081494,42.7518615 L24.5081494,42.7518615 Z" id="logo-small" fill="#333333" sketch:type="MSShapeGroup"></path>
    </g>
</svg>