<?xml version="1.0" encoding="UTF-8" standalone="no"?>
<svg width="100px" height="72px" viewBox="0 0 100 72" version="1.1" xmlns="http://www.w3.org/2000/svg" xmlns:xlink="http://www.w3.org/1999/xlink" xmlns:sketch="http://www.bohemiancoding.com/sketch/ns">
    <!-- Generator: Sketch 3.2.1 (9971) - http://www.bohemiancoding.com/sketch -->
    <title>Logotype</title>
    <desc>Created with Sketch.</desc>
    <defs></defs>
    <g id="Page-1" stroke="none" stroke-width="1" fill="none" fill-rule="evenodd" sketch:type="MSPage">
        <g id="PC" sketch:type="MSArtboardGroup" transform="translate(-550.000000, -40.000000)" fill="#FFFFFF">
            <g id="Intro" sketch:type="MSLayerGroup">
                <path d="M588.389836,49.6594007 C588.435738,49.85682 588.508525,50.044949 588.708525,50.0369859 C588.897377,50.0296864 588.96459,49.907585 588.977049,49.7158062 C589.139672,47.2412624 589.407541,44.3154744 589.188852,42.0396771 C589.181639,41.9607094 589.133443,41.7659444 589.133443,41.7659444 C589.002951,41.1647278 588.01541,40.855161 587.139672,41.3372624 C586.41377,41.7131887 586.31082,42.3505712 586.512131,42.897373 C587.62459,45.9014652 587.902951,47.5554744 588.389836,49.6594007 L588.389836,49.6594007 Z M586.840984,51.9249122 C586.840984,51.9249122 586.815738,51.9979076 586.814426,52.0287647 C586.74,52.9269398 586.490492,53.841373 586.731148,55.3782578 C586.748525,55.499032 586.79541,55.6672532 586.983934,55.6476771 C587.378689,55.6791979 587.362951,54.8234928 588.328852,52.9226265 C588.434426,52.7052993 588.35541,52.0861656 587.830164,51.8031426 C587.208197,51.4587371 586.906885,51.7016126 586.840984,51.9249122 L586.840984,51.9249122 Z M589.125246,55.5229214 C589.487541,55.690479 589.767213,54.8759168 591.332459,53.4156771 C591.507213,53.2471242 591.644262,52.6349583 591.243607,52.1833822 C590.775738,51.6392348 590.407541,51.7649859 590.268197,51.9521195 C590.268197,51.9521195 590.219672,52.0125066 590.206885,52.0420366 C589.827869,52.8648937 589.279344,53.6419629 588.979016,55.179843 C588.954426,55.2996218 588.940656,55.4754744 589.125246,55.5229214 L589.125246,55.5229214 Z M589.872459,64.3115665 C589.730164,64.2525066 589.633443,64.4014836 589.575738,64.5123039 C588.832459,65.9151426 588.773115,66.7977232 588.46918,67.7682301 C588.456393,67.8024053 588.445246,67.8949767 588.445246,67.8949767 C588.399344,68.1736864 588.516066,68.6345527 589.156721,68.6710504 C589.759344,68.7165066 590.110164,68.0018154 590.101967,67.6650412 C589.99377,65.0992532 590.217705,64.3673085 589.872459,64.3115665 L589.872459,64.3115665 Z M586.542295,49.9732808 C586.633443,50.1305527 586.770164,50.1716956 586.939344,50.1129675 C587.101311,50.0565619 587.101967,49.9036034 587.063934,49.734055 C586.564918,47.5601195 585.818689,44.8632716 585.043607,42.9600827 C585.017705,42.8937232 584.926885,42.7391057 584.926885,42.7391057 C584.657705,42.2546818 583.66918,42.2224974 583.039016,42.867843 C582.510164,43.3814652 582.593443,43.9733914 582.908525,44.391456 C584.640984,46.6874928 585.580328,48.2877509 586.542295,49.9732808 L586.542295,49.9732808 Z M590.665574,50.2672532 C590.880328,50.3219997 591.007541,50.1935942 591.084918,49.9819076 C592.083607,47.2442486 593.397377,44.3523039 593.900984,41.7105343 C593.918033,41.6189583 593.92918,41.3833822 593.92918,41.3833822 C593.980328,40.6617232 592.854426,39.8670689 591.705902,40.117244 C590.763279,40.2974099 590.368197,40.9593454 590.416066,41.6451702 C590.681967,45.4080827 590.467541,47.2449122 590.323607,49.783161 C590.311148,50.0200642 590.437049,50.2088569 590.665574,50.2672532 L590.665574,50.2672532 Z M579.807213,46.8484145 C582.174426,48.4699076 583.176066,49.3677509 584.619344,50.6571149 C584.754754,50.7772255 584.894754,50.815714 585.036721,50.7045619 C585.171803,50.599714 585.239344,50.4776126 585.149508,50.3302947 C583.931803,48.3275665 582.627869,46.3523776 581.37541,44.8924698 C581.328525,44.8377232 581.193115,44.7199352 581.193115,44.7199352 C580.78623,44.3469951 579.841639,44.5298154 579.446885,45.3440458 C579.108525,45.9996771 579.376721,46.5527831 579.807213,46.8484145 L579.807213,46.8484145 Z M581.188197,60.8658523 C581.246885,61.5941472 581.87082,61.972396 582.147213,61.9196403 C584.146557,61.6691334 585.231475,61.735161 585.302951,61.2543868 C585.372459,61.043032 585.210492,60.9325435 585.088197,60.87282 C583.199344,60.3220366 582.881967,60.0111426 581.958361,59.8047647 C581.925902,59.7958062 581.842295,59.8004513 581.842295,59.8004513 C581.594754,59.8004513 581.109508,60.0463131 581.188197,60.8658523 L581.188197,60.8658523 Z M585.286885,53.3732071 C585.285574,53.1319905 584.946885,52.6150504 584.352787,52.596138 C583.647541,52.5639536 583.495082,53.5281564 583.534098,53.7567647 C583.534098,53.7567647 583.534426,54.4240089 584.942951,56.8879352 C585.010164,56.9888016 585.126557,57.1175389 585.284918,57.0163407 C585.652131,56.8696864 585.254426,55.4983684 585.286885,53.3732071 L585.286885,53.3732071 Z M581.592459,57.5445619 C582.377705,58.0050965 582.975738,58.4795665 584.496393,58.9201933 C584.615082,58.9563592 584.792131,58.9842301 584.865246,58.7974283 C585.087213,58.4367647 584.173115,57.9822025 582.904918,56.2376126 C582.757377,56.043843 582.153443,55.8484145 581.639344,56.2250043 C581.021639,56.6643039 581.338361,57.3132993 581.510492,57.4728937 C581.510164,57.4732255 581.564262,57.5299629 581.592459,57.5445619 L581.592459,57.5445619 Z M593.197705,61.0758799 C593.197705,61.0758799 593.190492,61.0569675 593.183934,61.0516587 C593.021311,60.8758062 592.962951,60.735456 592.57082,60.5114928 C592.540656,60.493244 592.491148,60.4726725 592.436066,60.5158062 C592.307541,60.5927831 592.489836,60.7424237 592.583279,61.2842486 C592.594754,61.3449675 592.747213,61.4395297 592.96918,61.380138 C593.234098,61.3121195 593.222951,61.1299629 593.197705,61.0758799 L593.197705,61.0758799 Z M594.502295,67.6885988 C594.513443,67.7320642 594.560328,67.838903 594.560328,67.838903 C594.690492,68.1653914 595.111148,68.581797 595.820328,68.2025527 C596.492131,67.8598062 596.408525,66.8680642 596.183607,66.5127094 C594.418033,63.8440642 594.223607,62.7046725 593.818361,62.8699076 C593.629508,62.8997693 593.620984,63.1214099 593.629508,63.2776864 C593.738033,65.2595112 594.205246,66.4529859 594.502295,67.6885988 L594.502295,67.6885988 Z M594.15377,59.7052255 C594.469836,59.414903 594.309836,59.1624053 594.231148,59.1036771 C594.231148,59.1036771 594.206557,59.0831057 594.194098,59.079456 C593.825574,58.9467371 593.634426,58.7894652 592.907869,58.7546265 C592.851475,58.7509767 592.765574,58.7579444 592.723279,58.8588108 C592.60459,59.0628661 592.976721,59.1441564 593.537049,59.8502209 C593.601967,59.9285251 593.890492,59.9517509 594.15377,59.7052255 L594.15377,59.7052255 Z M593.096066,53.8035481 C593.096066,53.8035481 593.043279,53.8214652 593.025246,53.8373914 C592.489508,54.2302394 592.086557,54.3725804 591.350492,55.3185343 C591.291803,55.3915297 591.220984,55.5103131 591.324262,55.639714 C591.5,55.9469583 591.966885,55.5083223 593.495738,55.2717509 C593.667869,55.2415573 593.972459,54.8735942 593.872131,54.343714 C593.760984,53.7116403 593.252131,53.7418338 593.096066,53.8035481 L593.096066,53.8035481 Z M577.150492,49.9364513 C579.935738,50.5927463 581.325574,51.1607831 583.131803,51.8419629 C583.300984,51.9043407 583.48,51.8708292 583.57377,51.7158799 C583.661967,51.5698891 583.647541,51.5098338 583.522623,51.3913822 C582.018361,49.9629951 579.785246,48.4752163 577.98623,47.507032 C577.923934,47.4728569 577.754426,47.4114744 577.754426,47.4114744 C577.242295,47.2110689 576.412131,47.7993454 576.334754,48.7021656 C576.252459,49.4374283 576.642623,49.8166725 577.150492,49.9364513 L577.150492,49.9364513 Z M592.398033,68.7526725 C593.086557,68.6136495 593.255738,67.7025343 593.141311,67.3272716 C592.214426,64.4904053 592.321311,63.729926 591.917049,63.7767094 C591.739344,63.7558062 591.677377,63.9525619 591.647213,64.0955665 C591.255738,65.9005435 591.380328,66.7778154 591.343607,67.9603407 C591.341311,68.0028108 591.357377,68.1103131 591.357377,68.1103131 C591.39377,68.4364698 591.668525,68.9152532 592.398033,68.7526725 L592.398033,68.7526725 Z M592.612787,57.2260366 C592.636721,57.5485435 593.116721,57.3461472 594.289836,57.6971887 C594.423607,57.732691 594.763607,57.5319536 594.868852,57.0488569 C594.998033,56.4755112 594.623607,56.3185712 594.490492,56.3142578 C594.490492,56.3142578 594.447213,56.310608 594.42918,56.3165804 C593.915738,56.456267 593.578361,56.431714 592.738361,56.9649122 C592.671475,57.0050596 592.580984,57.079714 592.612787,57.2260366 L592.612787,57.2260366 Z M593.916721,52.19035 C594.076066,52.399714 594.289836,52.3954007 594.514754,52.2583684 C596.4,51.1007278 598.26918,49.925502 600.003934,48.6829214 C601.738689,49.925502 603.607541,51.1007278 605.493443,52.2583684 C605.718033,52.3954007 605.932131,52.399714 606.091475,52.19035 C606.260328,51.9680458 606.105246,51.7248384 605.921639,51.5158062 C603.947869,49.2864606 602.485902,47.935714 600.003607,44.2819629 C597.521311,47.935714 596.059016,49.2864606 594.085902,51.5158062 C593.902295,51.7245066 593.748525,51.9680458 593.916721,52.19035 L593.916721,52.19035 Z M597.31082,66.2028108 C597.540984,66.5180182 598.107541,66.8491518 598.766557,66.2436218 C599.397049,65.6875297 599.035082,64.6433638 598.696393,64.3241748 C596.065574,61.9425343 595.78459,61.1438983 595.39377,61.4345527 C595.198033,61.5198246 595.25082,61.7600458 595.302623,61.9262762 C595.961311,64.0285435 596.550164,64.8102578 597.208525,66.0558246 C597.232459,66.100949 597.31082,66.2028108 597.31082,66.2028108 L597.31082,66.2028108 Z M592.50623,50.9364882 C592.726885,51.079161 592.925902,51.0008569 593.090492,50.794479 C595.218361,48.1168753 597.514098,45.5096126 599.052787,42.7530412 C599.106885,42.6571518 599.205902,42.3980182 599.205902,42.3980182 C599.530492,41.6113269 598.692131,40.1782947 597.318033,40.0246725 C596.199016,39.8703868 595.634426,40.4593269 595.434754,41.243032 C594.336721,45.5408016 593.480984,47.4881195 592.380328,50.2652624 C592.277377,50.5250596 592.272131,50.7861841 592.50623,50.9364882 L592.50623,50.9364882 Z M600.004262,72.3958062 C600.605246,71.527161 601.221967,70.4829951 601.774098,69.2244882 C601.820328,69.1209675 601.844262,69.0201011 601.844262,68.9248753 C601.844262,68.483585 601.355738,68.3014283 601.166557,68.2689122 C600.809836,68.2088569 599.199344,68.2088569 598.841639,68.2689122 C598.653443,68.3014283 598.163934,68.4832532 598.163934,68.9248753 C598.163934,69.0201011 598.188525,69.1209675 598.234754,69.2244882 C598.786557,70.4833269 599.403279,71.527161 600.004262,72.3958062 L600.004262,72.3958062 Z M594.890492,77.7848569 C595.320656,77.5433085 595.559344,77.1458154 595.542951,76.694903 C595.53541,76.4732624 595.465574,76.2439905 595.340984,76.0326357 L594.938033,75.351456 C594.086557,73.9164329 593.909836,73.6181472 593.119016,71.6067924 C592.814426,70.8307186 592.248197,70.0015573 591.577705,70.0022209 C591.432459,70.0042117 591.107213,70.0612808 590.909508,70.2713085 C590.791803,70.3934099 590.737377,70.547032 590.743934,70.7265343 L590.744918,70.7530781 C591.008525,74.8902578 592.753443,77.0230504 592.768197,77.0409675 C593.455082,77.9879168 594.149508,78.2294652 594.890492,77.7848569 L594.890492,77.7848569 Z M584.306885,65.1951426 C585.965902,63.5733177 586.856066,63.3165066 586.698361,62.9110504 C586.658689,62.7076587 586.470492,62.7106449 586.339016,62.7312163 C584.672459,62.9667924 583.805902,63.5208937 582.9,63.8842117 C582.867541,63.8954928 582.800328,63.9462578 582.800328,63.9462578 C582.589836,64.086608 582.43377,64.4801195 582.988852,65.0249306 C583.44918,65.4891149 584.114098,65.3743131 584.306885,65.1951426 L584.306885,65.1951426 Z M585.73377,73.9861103 C585.545574,72.7431979 585.481967,72.3248016 585.481967,71.0808937 C585.481967,70.8347002 585.484262,70.5559905 585.48918,70.1813914 C585.48918,69.4481195 585.290164,68.5857785 584.727213,68.3687831 C584.598689,68.3203407 584.29541,68.2599536 584.048197,68.3764145 C583.902951,68.4444329 583.802295,68.5615573 583.747213,68.7231426 C583.280656,70.0858338 583.043607,71.4246357 583.043607,72.7007278 C583.043607,73.9423131 583.270164,74.6513638 583.278033,74.677244 C583.533443,75.703161 584.04459,76.1394744 584.836393,76.0127278 C585.454754,75.9314375 585.85377,75.4914744 585.85377,74.8889306 C585.85377,74.8215758 585.848197,74.7535573 585.838033,74.6855389 L585.73377,73.9861103 L585.73377,73.9861103 Z M590.281639,75.1291518 C589.752787,73.6340735 589.642295,73.323843 589.288525,71.294903 C589.152787,70.5108661 588.777377,69.637244 588.123934,69.532396 C587.981639,69.509502 587.648197,69.511161 587.413443,69.6873454 C587.276721,69.7888753 587.194426,69.9298891 587.168525,70.1087278 C587.061639,70.8207647 587.007869,71.527161 587.007869,72.2076771 C587.007869,74.8574099 587.83082,76.3601195 587.836721,76.3707371 C588.305902,77.3767463 588.928525,77.7178338 589.735738,77.4139076 C590.281639,77.2264421 590.607213,76.8007463 590.607213,76.2741841 C590.607213,76.1268661 590.580984,75.9758983 590.528197,75.827585 L590.281639,75.1291518 L590.281639,75.1291518 Z M581.334426,65.8491149 C581.18918,65.8836218 581.072787,65.9735389 580.993115,66.1155481 C579.596721,68.5389951 579.445574,70.5048937 579.445574,71.2378338 C579.445574,71.4564882 579.459344,71.5749398 579.459344,71.5706265 C579.501311,72.5796218 579.883279,73.088267 580.627869,73.1270873 C580.94459,73.1523039 581.221639,73.0693546 581.42918,72.8865343 C581.645246,72.6977417 581.773443,72.4133914 581.791475,72.086903 L581.82623,71.4173361 C581.898361,69.9836403 581.911475,69.6853546 582.301311,67.8694283 C582.339016,67.6909214 582.383934,67.4148661 582.383934,67.1086172 C582.383934,66.7227371 582.310164,66.2160827 581.954426,65.9778523 C581.847213,65.9075112 581.579016,65.790055 581.334426,65.8491149 L581.334426,65.8491149 Z M575.331148,53.0311242 C577.682623,52.8015205 579.303279,53.1416126 581.377705,53.1744606 C581.585246,53.1774467 581.750164,53.1124145 581.798689,52.9601195 C581.842951,52.8141288 581.76623,52.713926 581.572459,52.6701288 C579.373115,51.9876218 576.912459,51.177373 575.108525,51.0456495 C575.049836,51.0413361 574.90459,51.0512901 574.90459,51.0512901 C574.467869,51.0708661 573.922623,51.7716218 574.26459,52.3887647 C574.520984,52.8778338 574.949836,53.0679536 575.331148,53.0311242 L575.331148,53.0311242 Z M588.12,63.777373 C588.019344,63.6751795 587.882295,63.7690781 587.79377,63.8434007 C586.66,64.7857048 586.155082,65.5972808 585.551475,66.3249122 C585.528852,66.3501288 585.486885,66.4257785 585.486885,66.4257785 C585.349508,66.6490781 585.287213,67.0887094 585.82623,67.3501656 C586.330164,67.6066449 586.88459,67.1165804 586.994754,66.8232716 C587.80459,64.5716956 588.397049,63.9495758 588.12,63.777373 L588.12,63.777373 Z M574.432131,56.2694652 C576.699016,55.5617417 578.012459,55.5355297 580.390164,55.0733361 C580.641639,55.0235665 580.808197,54.9094283 580.828197,54.7368937 C580.843607,54.5709951 580.711803,54.4847278 580.468852,54.491032 C577.868525,54.3792163 575.57541,54.2743684 573.934754,54.5633638 C573.883279,54.5723223 573.759016,54.6124698 573.759016,54.6124698 C573.385246,54.7222947 573.095082,55.3838983 573.424262,55.8739629 C573.681639,56.2790873 574.082295,56.3776311 574.432131,56.2694652 L574.432131,56.2694652 Z M575.100984,60.1591242 C576.912459,58.8528384 578.145902,58.3388845 579.883607,57.2084513 C580.058033,57.0939813 580.12459,56.8972255 580.080984,56.7452624 C580.036066,56.598608 579.883607,56.5073638 579.697705,56.5796956 C577.710164,57.0073822 575.362623,57.6454283 573.792787,58.542608 C573.741967,58.5718062 573.627213,58.6610596 573.627213,58.6610596 C573.275082,58.9211887 573.238361,59.8996587 573.861639,60.2208384 C574.345574,60.4842854 574.805902,60.4033269 575.100984,60.1591242 L575.100984,60.1591242 Z M580.028525,59.1159536 C579.968525,59.0187371 579.80459,58.9311426 579.580328,59.0369859 C577.768852,59.89435 576.232131,61.1488753 574.456393,62.6751426 C574.402295,62.7212624 574.31082,62.8788661 574.31082,62.8788661 C573.994754,63.3330965 574.057049,64.9164329 574.90623,65.2090781 C575.595082,65.4658891 576.19541,64.8255205 576.452787,64.3679721 C577.792787,61.9787002 578.823279,61.1648016 579.91082,59.7563223 C580.020656,59.6129859 580.211148,59.4079352 580.028525,59.1159536 L580.028525,59.1159536 Z M580.267869,63.4153822 C580.267869,63.1336864 580.255082,62.9127094 580.113115,62.7580919 C580.021967,62.6635297 579.803607,62.5653177 579.568525,62.5676403 C579.426885,62.5702947 579.302295,62.6296864 579.199016,62.74482 C576.933443,65.2319721 576.836066,67.1703315 576.835082,67.1879168 C576.797705,67.3913085 576.78,67.5084329 576.78,67.6730043 C576.78,68.2951242 576.919016,68.7954744 577.457705,68.9507555 C577.739016,69.0423315 578.008852,69.0244145 578.238033,68.9013177 C578.478033,68.7712532 578.657377,68.5323592 578.742623,68.2274375 L578.911148,67.6242301 C579.279672,66.3003592 579.174426,66.271161 579.911148,64.6586265 C580.000328,64.4625343 580.267869,63.8961564 580.267869,63.4153822 L580.267869,63.4153822 Z M612.179016,51.8034744 C611.653115,52.0868292 611.57377,52.7056311 611.679344,52.9229583 C612.645574,54.8238246 612.629508,55.6795297 613.024262,55.6480089 C613.212787,55.667585 613.260328,55.4993638 613.277377,55.3785896 C613.517049,53.8417048 613.267869,52.9272716 613.194098,52.0290965 C613.192787,51.9979076 613.167541,51.925244 613.167541,51.925244 C613.101639,51.7016126 612.800656,51.4587371 612.179016,51.8034744 L612.179016,51.8034744 Z M611.300328,50.0369859 C611.5,50.0446172 611.572787,49.85682 611.619016,49.6594007 C612.105246,47.5554744 612.383934,45.9011334 613.496066,42.8977048 C613.697377,42.350903 613.594426,41.7135205 612.868525,41.3375942 C611.992787,40.8554928 611.005246,41.1650596 610.874754,41.7662762 C610.874754,41.7662762 610.827213,41.9610412 610.819672,42.0400089 C610.601311,44.3158062 610.868525,47.2415942 611.031803,49.716138 C611.044262,49.9079168 611.11082,50.0300182 611.300328,50.0369859 L611.300328,50.0369859 Z M610.851803,68.6713822 C611.492459,68.6348845 611.608852,68.1740182 611.563934,67.8953085 C611.563934,67.8953085 611.552459,67.8027371 611.54,67.7685619 C611.235738,66.7977232 611.176066,65.9151426 610.433115,64.5126357 C610.37541,64.4014836 610.278361,64.2528384 610.135738,64.3118983 C609.791475,64.3676403 610.014754,65.099585 609.906557,67.665373 C609.897705,68.0021472 610.249508,68.7165066 610.851803,68.6713822 L610.851803,68.6713822 Z M608.763934,52.1833822 C608.363279,52.6349583 608.501311,53.2471242 608.675738,53.4156771 C610.241311,54.875585 610.520328,55.6901472 610.882951,55.5229214 C611.067541,55.4754744 611.05377,55.2996218 611.028525,55.1801748 C610.727541,53.6422947 610.179344,52.8652255 609.800328,52.0423684 C609.788197,52.0125066 609.738689,51.9524513 609.738689,51.9524513 C609.600984,51.7649859 609.232459,51.6395665 608.763934,52.1833822 L608.763934,52.1833822 Z M626.216066,58.542608 C624.645574,57.6454283 622.298689,57.0073822 620.311148,56.5796956 C620.125246,56.5073638 619.972787,56.598608 619.927869,56.7452624 C619.883934,56.8975573 619.949836,57.0943131 620.125246,57.2084513 C621.862951,58.3385527 623.096393,58.8528384 624.907213,60.1591242 C625.202295,60.4029951 625.663279,60.4839536 626.147213,60.2211702 C626.770164,59.8999905 626.733115,58.9215205 626.380984,58.6613914 C626.380984,58.6613914 626.26623,58.5718062 626.216066,58.542608 L626.216066,58.542608 Z M620.80918,62.7444882 C620.706557,62.6290228 620.581967,62.5699629 620.439672,62.5673085 C620.204262,62.5649859 619.985902,62.6631979 619.895738,62.7577601 C619.753443,62.9127094 619.74,63.1336864 619.74,63.4150504 C619.74,63.8958246 620.007541,64.4622025 620.097705,64.6576311 C620.834426,66.2698338 620.728852,66.299032 621.097049,67.6232348 L621.26623,68.2264421 C621.351475,68.5313638 621.531148,68.7705896 621.77082,68.9003223 C622,69.0234191 622.269508,69.0416679 622.551148,68.9497601 C623.090164,68.794479 623.228852,68.2941288 623.228852,67.6720089 C623.228852,67.5074375 623.21082,67.3903131 623.17377,67.1869214 C623.172459,67.1699997 623.07541,65.2316403 620.80918,62.7444882 L620.80918,62.7444882 Z M617.207541,63.945926 C617.207541,63.945926 617.140328,63.8954928 617.108525,63.8838799 C616.202623,63.5205619 615.336066,62.9664606 613.669508,62.7308845 C613.538361,62.7103131 613.34918,62.7073269 613.310164,62.9107186 C613.152459,63.3161748 614.042295,63.5729859 615.701639,65.1948108 C615.89377,65.3739813 616.559344,65.4887831 617.019016,65.024267 C617.574754,64.4801195 617.418689,64.0862762 617.207541,63.945926 L617.207541,63.945926 Z M625.552131,62.6748108 C623.776066,61.1485435 622.239672,59.8940182 620.427541,59.0366541 C620.203279,58.9311426 620.04,59.0184053 619.980328,59.1156218 C619.797705,59.4076034 619.987213,59.6126541 620.097705,59.7559905 C621.18459,61.1644698 622.215082,61.9783684 623.555082,64.3676403 C623.813115,64.8251887 624.413443,65.4658891 625.102295,65.2087463 C625.951803,64.9157693 626.014098,63.3327647 625.697705,62.8785343 C625.697705,62.8788661 625.605574,62.7209306 625.552131,62.6748108 L625.552131,62.6748108 Z M618.674098,65.8491149 C618.429508,65.790055 618.161639,65.9075112 618.053115,65.9778523 C617.698033,66.2160827 617.624262,66.7227371 617.624262,67.1086172 C617.624262,67.4148661 617.66918,67.6909214 617.706885,67.8694283 C618.096393,69.6856864 618.109836,69.9836403 618.181967,71.4173361 L618.216066,72.086903 C618.234098,72.4133914 618.362951,72.6977417 618.578033,72.8865343 C618.786557,73.0693546 619.063279,73.1523039 619.379344,73.1270873 C620.124262,73.088267 620.506557,72.5796218 620.548525,71.5706265 C620.548525,71.5749398 620.562295,71.4564882 620.562295,71.2378338 C620.562295,70.5052255 620.411148,68.5389951 619.014426,66.1155481 C618.935082,65.9735389 618.819344,65.8836218 618.674098,65.8491149 L618.674098,65.8491149 Z M615.655082,52.596138 C615.061967,52.6150504 614.722951,53.1319905 614.721639,53.3732071 C614.75377,55.4983684 614.355738,56.8696864 614.722951,57.0160089 C614.881639,57.1175389 614.997705,56.9884698 615.064918,56.8876034 C616.473443,54.4236771 616.474426,53.7564329 616.474426,53.7564329 C616.512787,53.5281564 616.360656,52.5642854 615.655082,52.596138 L615.655082,52.596138 Z M618.209836,52.9597877 C618.258361,53.1124145 618.422623,53.1771149 618.630492,53.1741288 C620.705246,53.1412808 622.325574,52.8011887 624.676721,53.0307924 C625.058033,53.0676218 625.487869,52.877502 625.743279,52.3877693 C626.085574,51.7709583 625.540328,51.0698707 625.103934,51.0502947 C625.103934,51.0502947 624.958689,51.0406725 624.9,51.0446541 C623.096066,51.1763776 620.63541,51.9866265 618.436066,52.6691334 C618.241967,52.7135942 618.164918,52.813797 618.209836,52.9597877 L618.209836,52.9597877 Z M619.54,54.4907002 C619.296393,54.484396 619.164262,54.5706633 619.18,54.7365619 C619.200328,54.9090965 619.366885,55.022903 619.617705,55.0730043 C621.99541,55.5355297 623.309836,55.5617417 625.576721,56.2691334 C625.925574,56.3772993 626.326557,56.2787555 626.584262,55.8736311 C626.913115,55.3835665 626.622623,54.7219629 626.249508,54.612138 C626.249508,54.612138 626.12459,54.5719905 626.073115,54.563032 C624.433115,54.2740366 622.14,54.3788845 619.54,54.4907002 L619.54,54.4907002 Z M615.142951,58.7977601 C615.217049,58.9845619 615.394098,58.956691 615.512459,58.9205251 C617.033443,58.4798983 617.631148,58.0050965 618.416393,57.5448937 C618.44459,57.5299629 618.498361,57.4732255 618.498361,57.4732255 C618.670492,57.3139629 618.986557,56.6646357 618.369508,56.2253361 C617.85541,55.8487463 617.251475,56.0441748 617.103279,56.2379444 C615.835738,57.9825343 614.921639,58.4370965 615.142951,58.7977601 L615.142951,58.7977601 Z M614.971475,50.7042301 C615.114098,50.8153822 615.25377,50.7772255 615.388525,50.6567831 C616.831803,49.3674191 617.834098,48.4695758 620.200656,46.8480827 C620.631148,46.5524513 620.900328,45.9993454 620.561967,45.3433822 C620.167213,44.5291518 619.222623,44.3466633 618.81541,44.7192716 C618.81541,44.7192716 618.679672,44.8370596 618.633443,44.8918062 C617.380328,46.351714 616.076066,48.3272348 614.858361,50.3296311 C614.76918,50.4772808 614.837049,50.5990504 614.971475,50.7042301 L614.971475,50.7042301 Z M613.068525,50.1129675 C613.237705,50.1716956 613.375082,50.1305527 613.465574,49.9732808 C614.427869,48.2874191 615.367213,46.6874928 617.099672,44.3917877 C617.415082,43.9733914 617.498361,43.381797 616.969508,42.8681748 C616.339672,42.2228292 615.350492,42.2550136 615.081639,42.7394375 C615.081639,42.7394375 614.99082,42.894055 614.964262,42.9604145 C614.189508,44.8632716 613.442951,47.5604513 612.94459,49.7343868 C612.906557,49.9036034 612.906557,50.0565619 613.068525,50.1129675 L613.068525,50.1129675 Z M617.860984,61.9196403 C618.137705,61.972396 618.761311,61.594479 618.820328,60.8658523 C618.899344,60.0463131 618.413443,59.8004513 618.16623,59.8004513 C618.16623,59.8004513 618.082951,59.7954744 618.050492,59.8047647 C617.12623,60.0111426 616.809508,60.3220366 614.92,60.87282 C614.798033,60.9328753 614.635738,61.0433638 614.705246,61.2543868 C614.777049,61.735161 615.861639,61.6691334 617.860984,61.9196403 L617.860984,61.9196403 Z M616.435082,51.7158799 C616.528525,51.8708292 616.707869,51.9040089 616.876721,51.8419629 C618.683279,51.1607831 620.072459,50.5924145 622.858033,49.9364513 C623.365574,49.8170043 623.75541,49.4374283 623.67377,48.7021656 C623.596066,47.7996771 622.76623,47.2114007 622.253443,47.4114744 C622.253443,47.4114744 622.084918,47.4728569 622.022623,47.507032 C620.223607,48.4752163 617.989836,49.9629951 616.485246,51.3913822 C616.360656,51.5098338 616.345902,51.5698891 616.435082,51.7158799 L616.435082,51.7158799 Z M608.657377,55.3182025 C607.921967,54.3722486 607.518689,54.2299076 606.983279,53.8370596 C606.96459,53.8211334 606.912459,53.8032163 606.912459,53.8032163 C606.755738,53.7411702 606.247869,53.7113085 606.135738,54.3430504 C606.036066,54.8729306 606.340984,55.2408937 606.512787,55.2710873 C608.041967,55.5079905 608.508525,55.9462947 608.683607,55.6390504 C608.787541,55.5103131 608.716066,55.3911979 608.657377,55.3182025 L608.657377,55.3182025 Z M608.923934,49.9819076 C609.000328,50.1935942 609.127869,50.3216679 609.342951,50.2672532 C609.571475,50.2088569 609.697377,50.0200642 609.684262,49.7828292 C609.540656,47.2449122 609.326885,45.4077509 609.592131,41.6448384 C609.64,40.9590136 609.245246,40.2970781 608.302295,40.1169122 C607.154098,39.8670689 606.028197,40.6613914 606.079344,41.3830504 C606.079344,41.3830504 606.090164,41.6186265 606.106885,41.7102025 C606.61082,44.3523039 607.92459,47.2442486 608.923934,49.9819076 L608.923934,49.9819076 Z M605.718033,57.6971887 C606.891148,57.3461472 607.371803,57.5485435 607.395082,57.2260366 C607.427541,57.079714 607.336393,57.0050596 607.270164,56.9649122 C606.429508,56.431714 606.092787,56.456267 605.578689,56.3165804 C605.560656,56.310608 605.517377,56.3142578 605.517377,56.3142578 C605.384918,56.3185712 605.009836,56.4755112 605.139672,57.0488569 C605.244262,57.5319536 605.584918,57.7330228 605.718033,57.6971887 L605.718033,57.6971887 Z M607.039016,61.380138 C607.261311,61.4395297 607.414098,61.3449675 607.425574,61.2842486 C607.519016,60.7420919 607.701639,60.5927831 607.573115,60.5158062 C607.517705,60.4726725 607.468197,60.4935758 607.438033,60.5114928 C607.045246,60.735456 606.987541,60.8758062 606.82459,61.0516587 C606.817705,61.0572993 606.811148,61.0758799 606.811148,61.0758799 C606.785902,61.1299629 606.77377,61.3121195 607.039016,61.380138 L607.039016,61.380138 Z M607.284918,58.8588108 C607.242951,58.7576126 607.157049,58.7509767 607.100656,58.7546265 C606.374426,58.7891334 606.182295,58.9464053 605.814754,59.079456 C605.801967,59.0834375 605.777377,59.1036771 605.777377,59.1036771 C605.699016,59.1627371 605.538689,59.414903 605.854754,59.7052255 C606.118361,59.9517509 606.406885,59.9285251 606.471475,59.8505527 C607.031803,59.1444882 607.404262,59.0631979 607.284918,58.8588108 L607.284918,58.8588108 Z M607.610164,68.7526725 C608.340328,68.9152532 608.614754,68.4364698 608.651475,68.1103131 C608.651475,68.1103131 608.667869,68.0028108 608.665246,67.9603407 C608.628852,66.7778154 608.75377,65.9005435 608.360984,64.0955665 C608.331148,63.9525619 608.268852,63.7558062 608.091148,63.7767094 C607.687213,63.729926 607.79377,64.4904053 606.867541,67.3272716 C606.752459,67.7025343 606.921967,68.6136495 607.610164,68.7526725 L607.610164,68.7526725 Z M605.662951,70.3788108 C605.681639,70.3164329 605.691148,70.2553822 605.694098,70.1966541 C605.715738,69.6986265 605.179672,69.5158062 604.969508,69.4872716 C604.279344,69.4016679 603.26,69.9424974 602.766885,70.7096126 C601.478361,72.7050412 601.469836,73.2408937 600.254754,74.6284698 L600.003934,74.8859444 L599.753115,74.6284698 C598.537705,73.2408937 598.529508,72.7050412 597.240984,70.7096126 C596.747869,69.9424974 595.729508,69.4019997 595.038033,69.4872716 C594.828852,69.5158062 594.292131,69.6986265 594.314098,70.1966541 C594.317049,70.2553822 594.326557,70.3164329 594.345574,70.3788108 C595.577049,74.651032 597.875082,76.8939813 597.894754,76.9112348 C598.574754,77.5688569 599.367213,77.9570596 600.003934,77.8996587 C600.640656,77.9573914 601.432459,77.5691887 602.11377,76.9112348 C602.133443,76.8939813 604.431148,74.651032 605.662951,70.3788108 L605.662951,70.3788108 Z M608.431475,70.0022209 C607.76,70.0015573 607.194754,70.8307186 606.889836,71.6067924 C606.098689,73.6181472 605.922295,73.9164329 605.070492,75.351456 L604.667869,76.0326357 C604.542951,76.2439905 604.472787,76.4732624 604.465574,76.694903 C604.448852,77.1458154 604.687541,77.5436403 605.118361,77.7848569 C605.858361,78.2294652 606.55377,77.987585 607.240656,77.0409675 C607.255082,77.0230504 609.000328,74.8902578 609.263934,70.7530781 L609.26459,70.7265343 C609.271475,70.547032 609.216721,70.3934099 609.099672,70.2713085 C608.900656,70.0612808 608.575738,70.0042117 608.431475,70.0022209 L608.431475,70.0022209 Z M600.95541,42.753373 C602.494426,45.5099444 604.789508,48.1172071 606.918033,50.7948108 C607.082295,51.0011887 607.281967,51.0794928 607.502623,50.93682 C607.736066,50.7861841 607.731148,50.5253914 607.628852,50.2655942 C606.528197,47.4884513 605.671475,45.5411334 604.574426,41.2433638 C604.374754,40.4596587 603.809836,39.8707186 602.690492,40.0250043 C601.317377,40.1786265 600.478361,41.6116587 600.803279,42.39835 C600.802951,42.39835 600.901311,42.6574836 600.95541,42.753373 L600.95541,42.753373 Z M604.051803,55.4622025 C604.039672,55.2608016 603.847213,55.206055 603.648852,55.1788477 C602.403279,55.012949 601.308525,54.8981472 600.004262,54.6695389 C598.7,54.8981472 597.605574,55.012949 596.360328,55.1788477 C596.161639,55.206055 595.96918,55.2608016 595.956721,55.4622025 C595.945902,55.6526541 596.059672,55.7316218 596.248197,55.7631426 C597.436393,55.9612255 598.727869,56.1918246 600.00459,56.3786265 C601.280984,56.1918246 602.573115,55.9608937 603.760656,55.7631426 C603.948525,55.7316218 604.062623,55.6526541 604.051803,55.4622025 L604.051803,55.4622025 Z M603.223934,59.4537232 C602.131148,60.0997324 601.188197,60.6926541 600.004262,61.3270504 C598.820656,60.6926541 597.877705,60.0997324 596.784262,59.4537232 C596.611148,59.3518615 596.424918,59.2758799 596.292459,59.427843 C596.168852,59.5711795 596.209508,59.7038983 596.339344,59.8462394 C597.483607,61.0947924 598.747213,62.5172071 600.00459,63.7461841 C601.262295,62.5172071 602.525574,61.0947924 603.669508,59.8462394 C603.799344,59.7038983 603.840328,59.5711795 603.716721,59.427843 C603.583934,59.2758799 603.398033,59.3521933 603.223934,59.4537232 L603.223934,59.4537232 Z M605.000656,53.718608 C605.068525,53.4916587 604.972459,53.2846172 604.763607,53.1741288 C603.135082,52.3107924 601.795082,51.6611334 600.003934,50.5360089 C598.213115,51.6614652 596.872459,52.3111242 595.24459,53.1741288 C595.035738,53.2846172 594.939672,53.4916587 595.007541,53.718608 C595.072131,53.932949 595.246557,53.9770781 595.46623,53.9339444 C596.944262,53.649926 598.496721,53.412691 600.003607,53.1243592 C601.510492,53.412691 603.063279,53.649926 604.540656,53.9339444 C604.760984,53.9770781 604.936066,53.9332808 605.000656,53.718608 L605.000656,53.718608 Z M615.960656,68.3767463 C615.712787,68.2599536 615.40918,68.3203407 615.281639,68.3691149 C614.718361,68.5861103 614.519344,69.4484513 614.519344,70.1817232 C614.524918,70.5563223 614.52623,70.835032 614.52623,71.0812255 C614.52623,72.3251334 614.463607,72.7435297 614.275082,73.9864421 L614.170164,74.6862025 C614.160656,74.7542209 614.155082,74.8222394 614.155082,74.8895942 C614.155082,75.4918062 614.554098,75.9321011 615.171803,76.0133914 C615.964262,76.140138 616.474754,75.7034928 616.73082,74.6779076 C616.738689,74.6520274 616.965574,73.9429767 616.965574,72.7013914 C616.965574,71.4249675 616.728525,70.0864974 616.261311,68.7238062 C616.205902,68.5618891 616.104918,68.4447647 615.960656,68.3767463 L615.960656,68.3767463 Z M603.772459,57.3789951 C603.697705,57.1908661 603.497705,57.1998246 603.300984,57.2369859 C602.169836,57.4533177 601.171475,57.6696495 600.004262,57.855456 C598.837377,57.6693177 597.839016,57.4533177 596.707869,57.2369859 C596.510492,57.1998246 596.310164,57.1905343 596.236066,57.3789951 C596.167541,57.5561748 596.250492,57.6673269 596.419672,57.757244 C597.552131,58.3541472 598.781311,59.022055 600.00459,59.630903 C601.227869,59.0217232 602.457049,58.3538154 603.58918,57.757244 C603.758361,57.6676587 603.841311,57.5565066 603.772459,57.3789951 L603.772459,57.3789951 Z M604.188525,68.2025527 C604.897377,68.5821288 605.317705,68.1657232 605.448197,67.838903 C605.448197,67.838903 605.494426,67.7320642 605.505902,67.6885988 C605.802623,66.4529859 606.270492,65.259843 606.379344,63.2776864 C606.386885,63.1210781 606.379344,62.8994375 606.189836,62.8699076 C605.784918,62.7050043 605.590492,63.844396 603.824918,66.5127094 C603.599672,66.8677324 603.517049,67.8594744 604.188525,68.2025527 L604.188525,68.2025527 Z M614.521967,66.4257785 C614.521967,66.4257785 614.479344,66.3501288 614.457377,66.3249122 C613.853115,65.5972808 613.348852,64.785373 612.215082,63.8434007 C612.125902,63.7687463 611.989508,63.6751795 611.888197,63.777373 C611.611148,63.9499076 612.204262,64.5720274 613.01377,66.8236034 C613.12459,67.1169122 613.678689,67.6069767 614.181967,67.3504974 C614.721639,67.0887094 614.659344,66.6490781 614.521967,66.4257785 L614.521967,66.4257785 Z M602.697377,66.2028108 C602.697377,66.2028108 602.776721,66.1006172 602.8,66.0561564 C603.458033,64.8105896 604.047213,64.0288753 604.705902,61.926608 C604.757705,61.7603776 604.809836,61.5198246 604.615082,61.4348845 C604.223279,61.1442301 603.943279,61.9428661 601.311803,64.3245066 C600.972787,64.6436956 600.611475,65.6878615 601.241967,66.2439536 C601.900656,66.8491518 602.466885,66.5180182 602.697377,66.2028108 L602.697377,66.2028108 Z M612.594754,69.6873454 C612.359672,69.511161 612.026885,69.509502 611.88459,69.532396 C611.231475,69.637244 610.855082,70.5108661 610.719672,71.294903 C610.36623,73.3235112 610.25541,73.6340735 609.72623,75.1291518 L609.480328,75.8272532 C609.427541,75.9752348 609.401311,76.1262025 609.401311,76.2738523 C609.401311,76.8004145 609.72623,77.2257785 610.272131,77.4135758 C611.079672,77.717502 611.701967,77.3767463 612.171148,76.3704053 C612.178033,76.3597877 613.000656,74.8570781 613.000656,72.2073454 C613.000656,71.5268292 612.94623,70.8201011 612.839344,70.108396 C612.814426,69.9302209 612.731475,69.7888753 612.594754,69.6873454 L612.594754,69.6873454 Z M608.121311,78.9720274 C607.986885,78.9089859 607.823279,78.941502 607.75377,78.967714 C607.448197,79.0851702 607.340328,79.5530043 607.340328,79.9498338 C607.343279,80.1525619 607.343934,80.3035297 607.343934,80.4379076 C607.343934,81.1117877 607.310164,81.3384053 607.208525,82.0112901 L607.151475,82.3908661 C607.145902,82.4283592 607.143607,82.4658523 607.143607,82.5020182 C607.143607,82.827843 607.359672,83.0664053 607.694426,83.1102025 C608.124262,83.1795481 608.400328,82.9426449 608.539016,82.3865527 C608.543279,82.3726172 608.66623,81.988396 608.66623,81.3151795 C608.66623,80.6243776 608.537705,79.8990689 608.284918,79.1604882 C608.254426,79.0718983 608.200328,79.0081933 608.121311,78.9720274 L608.121311,78.9720274 Z M604.040984,79.8526172 C603.677705,79.8526172 603.37082,80.3018707 603.205902,80.7225896 C602.777049,81.8128753 602.680984,81.9741288 602.219672,82.7518615 L602.001311,83.12082 C601.934098,83.2349583 601.896066,83.3593822 601.891475,83.4801564 C601.882623,83.7240274 602.012131,83.9396956 602.244918,84.0700919 C602.646885,84.3113085 603.023607,84.1799168 603.39541,83.6669583 C603.402951,83.6573361 604.34918,82.5013546 604.492131,80.2590689 L604.493115,80.2451334 C604.496393,80.1482486 604.466885,80.0649675 604.403279,79.9989398 C604.296066,79.8844698 604.119344,79.8539444 604.040984,79.8526172 L604.040984,79.8526172 Z M606.297705,79.6820735 C606.169836,79.5868477 605.989508,79.5861841 605.912459,79.5974652 C605.558689,79.6548661 605.354754,80.1290043 605.281311,80.5530412 C605.089508,81.652949 605.02918,81.8205066 604.742623,82.6317509 L604.609508,83.0093361 C604.580656,83.0906265 604.56623,83.1719168 604.56623,83.2518799 C604.56623,83.5372255 604.742623,83.7674928 605.038689,83.868691 C605.476066,84.0335942 605.81377,83.8484513 606.067541,83.3043039 C606.071148,83.2979997 606.516721,82.4834375 606.516721,81.0477509 C606.516721,80.6787924 606.487869,80.2962301 606.429836,79.9100182 C606.416393,79.813797 606.371475,79.7364882 606.297705,79.6820735 L606.297705,79.6820735 Z M595.265574,82.6317509 C594.978689,81.8208384 594.918689,81.6532808 594.727213,80.5530412 C594.654098,80.1290043 594.450164,79.6548661 594.096066,79.5974652 C594.019016,79.5861841 593.839016,79.5868477 593.71082,79.6820735 C593.637049,79.7364882 593.592787,79.8134652 593.578361,79.91035 C593.520984,80.2965619 593.49082,80.6787924 593.49082,81.0480827 C593.49082,82.4837693 593.937049,83.2983315 593.940656,83.3046357 C594.194754,83.8491149 594.532131,84.033926 594.970164,83.8690228 C595.265246,83.7674928 595.441639,83.5375573 595.441639,83.2522117 C595.441639,83.1722486 595.427869,83.0909583 595.399016,83.0096679 L595.265574,82.6317509 L595.265574,82.6317509 Z M592.800656,82.0112901 C592.698361,81.3384053 592.664262,81.1117877 592.664262,80.4379076 C592.664262,80.3038615 592.665574,80.1528937 592.668525,79.9498338 C592.668525,79.5530043 592.56,79.085502 592.25541,78.967714 C592.185574,78.941502 592.021311,78.9086541 591.886885,78.9720274 C591.80918,79.0081933 591.754098,79.0722301 591.72459,79.1601564 C591.471475,79.8990689 591.342951,80.6240458 591.342951,81.3148477 C591.342951,81.9880642 591.465902,82.3726172 591.469508,82.3862209 C591.608852,82.9423131 591.88623,83.1792163 592.314754,83.1098707 C592.649508,83.0660735 592.86623,82.8275112 592.86623,82.5016864 C592.86623,82.4655205 592.862951,82.4280274 592.858033,82.3905343 L592.800656,82.0112901 L592.800656,82.0112901 Z M597.788852,82.7518615 C597.327541,81.9741288 597.231803,81.8128753 596.803279,80.7225896 C596.637705,80.3018707 596.331475,79.8526172 595.967541,79.8526172 C595.88918,79.8539444 595.712787,79.8844698 595.605902,79.9989398 C595.541639,80.0649675 595.512131,80.1482486 595.516066,80.2451334 L595.516721,80.2590689 C595.659016,82.5016864 596.605246,83.6573361 596.612459,83.6669583 C596.985902,84.1799168 597.361639,84.3109767 597.763279,84.0700919 C597.995738,83.9393638 598.125246,83.7240274 598.117049,83.4801564 C598.112131,83.3593822 598.075082,83.2349583 598.007213,83.12082 L597.788852,82.7518615 Z M550,80.1253546 L581.817049,80.1253546 L581.817049,82.1300735 L550,82.1300735 L550,80.1253546 Z M617.874098,80.1187186 L649.69082,80.1187186 L649.69082,82.1234375 L617.874098,82.1234375 L617.874098,80.1187186 Z M550.006885,109.639714 L649.651803,109.639714 L649.651803,111.644433 L550.006885,111.644433 L550.006885,109.639714 Z M559.230492,96.9322117 C559.167869,95.5516034 559.089508,93.8856495 559.105246,92.4416679 L559.058033,92.4416679 C558.713115,93.7429767 558.274098,95.1866265 557.803607,96.5353822 L556.266885,101.168599 L554.777377,101.168599 L553.36623,96.5990873 C552.958689,95.2347371 552.582295,93.7748292 552.300328,92.4419997 L552.268852,92.4419997 C552.221639,93.8385343 552.159016,95.5360089 552.080656,96.9959168 L551.845246,101.296009 L550.042623,101.296009 L550.748197,90.6018523 L553.288197,90.6018523 L554.667869,94.9019444 C555.044262,96.1551426 555.373443,97.4249306 555.64,98.6144237 L555.687213,98.6144237 C555.969508,97.4564513 556.330164,96.1392163 556.737705,94.8860182 L558.195738,90.6018523 L560.704262,90.6018523 L561.315738,101.296009 L559.434098,101.296009 L559.230492,96.9322117 Z M564.294098,90.6011887 L566.081639,94.7267555 C566.363934,95.4248569 566.583279,96.059585 566.834098,96.6943131 L566.881311,96.6943131 C567.038033,96.2025896 567.22623,95.5200827 567.477049,94.6793085 L568.856721,90.6015205 L570.895082,90.6015205 L568.809836,95.9328384 C568.198361,97.4879721 567.524262,99.1058154 566.771475,100.10552 C566.081639,100.978479 565.250492,101.470202 564.137377,101.470202 C563.682623,101.470202 563.400328,101.422424 563.149508,101.327198 L563.30623,99.7564698 C563.462951,99.8042486 563.666885,99.819843 563.96459,99.819843 C564.858361,99.819843 565.422951,99.0580366 565.689508,98.4554928 C565.783607,98.2331887 565.752131,98.0901841 565.642295,97.884138 L562.114426,90.6011887 L564.294098,90.6011887 Z M578.969508,90.6011887 L578.969508,99.7405435 L579.973115,99.7883223 L579.863607,103.94541 L578.389836,103.94541 L578.28,101.295677 L571.866885,101.295677 L571.757049,103.94541 L570.283279,103.94541 L570.18918,99.7883223 L571.036066,99.7405435 C571.443607,98.9949951 571.82,98.2172624 572.055082,97.3764882 C572.384262,96.2341103 572.509836,94.9331334 572.509836,93.393926 L572.509836,90.6011887 L578.969508,90.6011887 Z M574.297049,93.8859813 C574.297049,95.3455573 574.14,96.6624606 573.79541,97.789244 C573.591475,98.4873454 573.29377,99.1695205 573.011475,99.6930965 L577.040984,99.6930965 L577.040984,92.2041011 L574.297049,92.2041011 L574.297049,93.8859813 Z M581.493115,90.7441933 C582.182951,90.6171149 583.139344,90.5218891 584.440656,90.5218891 C585.851803,90.5218891 586.886557,90.8234928 587.560656,91.3948477 C588.187869,91.9180919 588.59541,92.7591979 588.59541,93.758903 C588.59541,94.7745343 588.281967,95.6153085 587.68623,96.1863315 C586.918033,96.9640642 585.71082,97.3287094 584.346557,97.3287094 C583.985902,97.3287094 583.656721,97.3127831 583.405902,97.2653361 L583.405902,101.295345 L581.493115,101.295345 L581.493115,90.7441933 Z M583.405902,95.7264606 C583.640984,95.7898338 583.954754,95.8057601 584.346557,95.8057601 C585.788852,95.8057601 586.667213,95.0917324 586.667213,93.8382025 C586.667213,92.6480458 585.851803,92.0133177 584.519016,92.0133177 C583.98623,92.0133177 583.609836,92.0610965 583.405902,92.1085435 L583.405902,95.7264606 L583.405902,95.7264606 Z M592.170164,94.4566725 C592.483934,94.3936311 593.017049,94.3617785 593.393115,94.3617785 C595.556721,94.3617785 597.516721,95.4089306 597.516721,97.8048384 C597.516721,98.7886172 597.202951,99.5341656 596.685574,100.089594 C595.744918,101.073373 594.098361,101.406829 592.608852,101.406829 C591.558361,101.406829 590.743279,101.32753 590.257049,101.263825 L590.257049,90.6011887 L592.170164,90.6011887 L592.170164,94.4566725 Z M592.170164,99.8516956 C592.405246,99.8994744 592.719016,99.9150689 593.11082,99.9150689 C594.365246,99.9150689 595.494098,99.2325619 595.494098,97.8522854 C595.494098,96.4401564 594.25541,95.8847278 593.11082,95.8847278 C592.719016,95.8847278 592.37377,95.9165804 592.170164,95.9481011 L592.170164,99.8516956 L592.170164,99.8516956 Z M600.511475,90.6011887 L600.511475,101.295345 L598.582951,101.295345 L598.582951,90.6011887 L600.511475,90.6011887 Z M604.665246,90.6011887 L604.665246,94.3777048 C604.665246,96.0751795 604.618033,97.6462394 604.539672,99.0739629 L604.571148,99.0898891 C605.12,97.884138 605.809836,96.5987555 606.5,95.3930043 L609.29082,90.6011887 L611.25082,90.6011887 L611.25082,101.295345 L609.463607,101.295345 L609.463607,97.502903 C609.463607,95.8213546 609.479344,94.4563407 609.60459,93.0760642 L609.573115,93.0760642 C609.071475,94.2980735 608.365902,95.6305712 607.691803,96.7732808 L605.026557,101.295345 L602.878361,101.295345 L602.878361,90.6011887 L604.665246,90.6011887 L604.665246,90.6011887 Z M606.233443,88.2530596 C606.280656,88.8084882 606.453115,89.2209122 607.048525,89.2209122 C607.644262,89.2209122 607.832787,88.8244145 607.879672,88.2530596 L609.243607,88.2530596 C609.149508,89.4747371 608.381311,90.0935389 607.017377,90.0935389 C605.68459,90.0935389 604.979016,89.4428845 604.86918,88.2530596 L606.233443,88.2530596 Z M618.728525,92.2356218 L615.718033,92.2356218 L615.718033,90.6011887 L623.698689,90.6011887 L623.698689,92.2356218 L620.657049,92.2356218 L620.657049,101.295677 L618.728525,101.295677 L618.728525,92.2356218 L618.728525,92.2356218 Z M630.847869,96.5513085 L626.865574,96.5513085 L626.865574,99.6930965 L631.318361,99.6930965 L631.318361,101.295677 L624.937049,101.295677 L624.937049,90.6015205 L631.083279,90.6015205 L631.083279,92.2041011 L626.865574,92.2041011 L626.865574,94.9646541 L630.847869,94.9646541 L630.847869,96.5513085 Z M640.584262,100.978479 C640.129508,101.216378 639.12623,101.454608 637.856066,101.454608 C634.500984,101.454608 632.462623,99.3284513 632.462623,96.0755112 C632.462623,92.5531518 634.877049,90.4269951 638.107213,90.4269951 C639.377049,90.4269951 640.28623,90.6967463 640.678361,90.9031242 L640.255082,92.4582578 C639.753443,92.2362854 639.063607,92.0458338 638.185574,92.0458338 C636.037705,92.0458338 634.485574,93.4105159 634.485574,95.9806172 C634.485574,98.3290781 635.849508,99.8364329 638.170164,99.8364329 C638.954098,99.8364329 639.76918,99.677502 640.27082,99.4399352 L640.584262,100.978479 Z M644.66,92.2356218 L641.649508,92.2356218 L641.649508,90.6011887 L649.630164,90.6011887 L649.630164,92.2356218 L646.588525,92.2356218 L646.588525,101.295677 L644.66,101.295677 L644.66,92.2356218 Z" id="Logotype" sketch:type="MSShapeGroup"></path>
            </g>
        </g>
    </g>
</svg>