<?xml version="1.0" encoding="UTF-8" standalone="no"?>
<svg width="21px" height="20px" viewBox="0 0 21 20" version="1.1" xmlns="http://www.w3.org/2000/svg" xmlns:xlink="http://www.w3.org/1999/xlink" xmlns:sketch="http://www.bohemiancoding.com/sketch/ns">
    <!-- Generator: Sketch 3.2.1 (9971) - http://www.bohemiancoding.com/sketch -->
    <title>map</title>
    <desc>Created with Sketch.</desc>
    <defs></defs>
    <g id="Page-1" stroke="none" stroke-width="1" fill="none" fill-rule="evenodd" sketch:type="MSPage">
        <path d="M12.4015137,1.26466968 L7.234847,4.95490298 L7.234847,17.7114038 L11.7092879,14.5161615 C11.9053334,14.377121 12.1730606,14.4211649 12.3121061,14.6154761 C12.4511516,14.8097872 12.4062425,15.0800957 12.2119243,15.2182725 L7.0301061,18.9188211 C6.95496974,18.9723646 6.86687883,19 6.77878792,19 C6.77878792,19 6.6026061,18.9723646 6.52746974,18.9188211 L0.48201519,14.6007948 C0.368878827,14.5204795 0.30151519,14.3892115 0.30151519,14.250171 L0.30151519,0.432486783 C0.30151519,0.270128993 0.392197008,0.122452493 0.536424281,0.0481824399 C0.679787917,-0.0260876129 0.85251519,-0.0139971392 0.984651554,0.08099944 L6.72090422,4.1780531 C6.75211571,4.17060709 6.7846886,4.16666667 6.81818033,4.16666667 C6.82918155,4.16666667 6.84008055,4.16708876 6.8508621,4.1679177 L12.5516238,0.0962130722 C12.6238832,0.036088486 12.7168241,0 12.8181803,0 C12.8344536,0 12.8505032,0.000923583425 12.8662798,0.00272140629 C12.9400646,0.00989091095 13.012391,0.0359835889 13.0755606,0.08099944 L19.1210152,4.39902577 C19.2341516,4.48020466 19.3015152,4.61060906 19.3015152,4.75051311 L19.3015152,9.06853944 C19.3015152,9.3068945 19.1089243,9.50034208 18.869697,9.50034208 C18.6313334,9.50034208 18.4378788,9.3068945 18.4378788,9.06853944 L18.4378788,4.97245967 L13.234847,1.25602783 L13.234847,8.75 C13.234847,8.98 13.0490137,9.16666667 12.8181803,9.16666667 C12.5881803,9.16666667 12.4015137,8.98 12.4015137,8.75 L12.4015137,1.26466968 Z M6.40151366,5.01117147 L1.16515155,1.2710475 L1.16515155,14.0273609 L6.40151366,17.7675999 L6.40151366,5.01117147 L6.40151366,5.01117147 Z M16.5515152,20 C16.4281819,20 16.3106819,19.945 16.2315152,19.85 C15.8806819,19.43 12.8015152,15.6858333 12.8015152,13.75 C12.8015152,11.6825 14.4840152,10 16.5515152,10 C18.6198485,10 20.3015152,11.6825 20.3015152,13.75 C20.3015152,15.6858333 17.2223485,19.43 16.8715152,19.85 C16.7923485,19.945 16.6756819,20 16.5515152,20 Z M16.5515152,10.8333333 C14.9431819,10.8333333 13.6348485,12.1416667 13.6348485,13.75 C13.6348485,14.9933333 15.5148485,17.6166667 16.5515152,18.9225 C17.5881819,17.6166667 19.4681819,14.9916667 19.4681819,13.75 C19.4681819,12.1416667 18.1598485,10.8333333 16.5515152,10.8333333 Z M16.1348485,15.8333333 C15.2165152,15.8333333 14.4681819,15.0858333 14.4681819,14.1666667 C14.4681819,13.2475 15.2165152,12.5 16.1348485,12.5 C17.0540152,12.5 17.8015152,13.2475 17.8015152,14.1666667 C17.8015152,15.0858333 17.0540152,15.8333333 16.1348485,15.8333333 Z M16.1348485,13.3333333 C15.6748485,13.3333333 15.3015152,13.7066667 15.3015152,14.1666667 C15.3015152,14.6258333 15.6748485,15 16.1348485,15 C16.5948485,15 16.9681819,14.6258333 16.9681819,14.1666667 C16.9681819,13.7066667 16.5948485,13.3333333 16.1348485,13.3333333 Z" id="map" fill="#333333" sketch:type="MSShapeGroup"></path>
    </g>
</svg>