<?xml version="1.0" encoding="UTF-8" standalone="no"?>
<svg width="60px" height="60px" viewBox="0 0 60 60" version="1.1" xmlns="http://www.w3.org/2000/svg" xmlns:xlink="http://www.w3.org/1999/xlink" xmlns:sketch="http://www.bohemiancoding.com/sketch/ns">
    <!-- Generator: Sketch 3.2.1 (9971) - http://www.bohemiancoding.com/sketch -->
    <title>mind</title>
    <desc>Created with Sketch.</desc>
    <defs></defs>
    <g id="Page-1" stroke="none" stroke-width="1" fill="none" fill-rule="evenodd" sketch:type="MSPage">
        <g id="icons-1" sketch:type="MSLayerGroup" transform="translate(-156.000000, -4.000000)" fill="#FFFFFF">
            <g id="mind" transform="translate(156.000000, 4.000000)" sketch:type="MSShapeGroup">
                <path d="M10.8196721,46 C9.19278689,46 7.86885246,47.34 7.86885246,49 C7.86885246,50.65 9.19278689,52 10.8196721,52 C12.447541,52 13.7704918,50.65 13.7704918,49 C13.7704918,47.34 12.447541,46 10.8196721,46 L10.8196721,46 Z M10.8196721,54.001 C8.10786885,54.001 5.90163934,51.751 5.90163934,49 C5.90163934,46.24 8.10786885,44 10.8196721,44 C13.5314754,44 15.7377049,46.24 15.7377049,49 C15.7377049,51.751 13.5314754,54.001 10.8196721,54.001 L10.8196721,54.001 Z" id="Fill-132"></path>
                <path d="M1.93377049,56 C0.864590164,56 0,56.88 0,57.96 C0,59.05 0.864590164,59.931 1.93377049,59.931 C3.00295082,59.931 3.86754098,59.05 3.86754098,57.96 C3.86754098,56.88 3.00295082,56 1.93377049,56" id="Fill-133"></path>
                <path d="M15.9167213,36.31 L16.2236066,36.77 C18.6491803,40.389 22.6209836,42.549 26.8504918,42.549 C29.847541,42.549 32.7688525,41.459 35.072459,39.489 L35.4462295,39.17 L35.9085246,39.27 C37.1183607,39.529 38.3577049,39.659 39.5872131,39.659 C49.3839344,39.659 57.0659016,31.459 57.0659016,21 C57.0659016,10.339 49.3839344,1.999 39.5872131,1.999 C33.0708197,1.999 27.0265574,5.669 23.8121311,11.579 L23.2740984,12.569 L22.375082,11.909 C20.1727869,10.289 17.5918033,9.43 14.9104918,9.43 C7.77344262,9.43 1.96721311,15.469 1.96721311,22.899 C1.96721311,30.319 7.77344262,36.359 14.9104918,36.359 L15.1367213,36.34 L15.9167213,36.31 L15.9167213,36.31 Z M26.8504918,44.549 C22.1527869,44.549 17.7344262,42.249 14.9213115,38.359 L14.9104918,38.359 C6.68852459,38.359 0,31.419 0,22.899 C0,14.369 6.68852459,7.43 14.9104918,7.43 C17.6508197,7.43 20.2986885,8.209 22.6318033,9.68 C26.3045902,3.68 32.7068852,0 39.5872131,0 C50.4855738,0 59.0331148,9.219 59.0331148,21 C59.0331148,32.59 50.4855738,41.659 39.5872131,41.659 C38.377377,41.659 37.167541,41.549 35.967541,41.319 C33.3727869,43.409 30.1514754,44.549 26.8504918,44.549 L26.8504918,44.549 Z" id="Fill-134"></path>
                <path d="M16.9563934,24 C16.8265574,24 16.7213115,24.109 16.7213115,24.239 C16.7213115,24.5 17.1914754,24.5 17.1914754,24.239 C17.1914754,24.109 17.0862295,24 16.9563934,24 L16.9563934,24 Z M16.9563934,26.479 C15.7416393,26.479 14.7540984,25.469 14.7540984,24.239 C14.7540984,23 15.7416393,22 16.9563934,22 C18.1711475,22 19.1586885,23 19.1586885,24.239 C19.1586885,25.469 18.1711475,26.479 16.9563934,26.479 L16.9563934,26.479 Z" id="Fill-135"></path>
                <path d="M28.7606557,24 C28.6308197,24 28.5245902,24.109 28.5245902,24.239 C28.5245902,24.5 28.9967213,24.5 28.9967213,24.239 C28.9967213,24.109 28.8904918,24 28.7606557,24 L28.7606557,24 Z M28.7606557,26.479 C27.5459016,26.479 26.557377,25.469 26.557377,24.239 C26.557377,23 27.5459016,22 28.7606557,22 C29.9754098,22 30.9639344,23 30.9639344,24.239 C30.9639344,25.469 29.9754098,26.479 28.7606557,26.479 L28.7606557,26.479 Z" id="Fill-136"></path>
                <path d="M41.547541,24 C41.4098361,24 41.3114754,24.109 41.3114754,24.239 C41.3114754,24.5 41.7836066,24.5 41.7836066,24.239 C41.7836066,24.109 41.6754098,24 41.547541,24 L41.547541,24 Z M41.547541,26.479 C40.3278689,26.479 39.3442623,25.469 39.3442623,24.239 C39.3442623,23 40.3278689,22 41.547541,22 C42.757377,22 43.7508197,23 43.7508197,24.239 C43.7508197,25.469 42.757377,26.479 41.547541,26.479 L41.547541,26.479 Z" id="Fill-137"></path>
            </g>
        </g>
    </g>
</svg>