<?xml version="1.0" encoding="UTF-8" standalone="no"?>
<svg width="70px" height="40px" viewBox="0 0 70 40" version="1.1" xmlns="http://www.w3.org/2000/svg" xmlns:xlink="http://www.w3.org/1999/xlink" xmlns:sketch="http://www.bohemiancoding.com/sketch/ns">
    <!-- Generator: Sketch 3.2.1 (9971) - http://www.bohemiancoding.com/sketch -->
    <title>mobiads</title>
    <desc>Created with Sketch.</desc>
    <defs>
        <path d="M39.0412955,19.7921162 L37.3405548,19.7921162 L37.3405548,10.5437453 L40.831549,9.09774597 L40.831549,17.9243671 C40.831549,18.9486166 40.0259349,19.7921162 39.0412955,19.7921162 L39.0412955,19.7921162 L39.0412955,19.7921162 Z M36.7438037,19.7921162 L33.4019973,19.7921162 L33.4019973,12.1704946 L36.7438037,10.7847452 L36.7438037,19.7921162 L36.7438037,19.7921162 L36.7438037,19.7921162 Z M29.4932774,17.9243671 L29.4932774,13.7972439 L32.8052462,12.4114945 L32.8052462,19.7619912 L31.2835308,19.7619912 C30.2988914,19.7921162 29.4932774,18.9486166 29.4932774,17.9243671 L29.4932774,17.9243671 L29.4932774,17.9243671 Z" id="path-1"></path>
        <path id="path-3" d="M29.4932774,12.7729943 L29.4932774,4.48862301 L29.4932774,4.39824805 L29.4932774,4.30787309 L29.4932774,1.62674928 C29.4932774,0.72299968 30.2392163,0 31.134343,0 C32.0294697,0 32.7754086,0.72299968 32.7754086,1.62674928 L32.7754086,2.68112381 L39.0412955,2.68112381 C40.0259349,2.68112381 40.831549,3.49449845 40.831549,4.48862301 L40.831549,8.25424634 L29.4932774,12.7729943 L29.4932774,12.7729943 Z"></path>
    </defs>
    <g id="Page-1" stroke="none" stroke-width="1" fill="none" fill-rule="evenodd" sketch:type="MSPage">
        <g id="logotypes" sketch:type="MSLayerGroup" transform="translate(-418.000000, -5.000000)">
            <g id="mobiads" transform="translate(418.000000, 5.000000)">
                <mask id="mask-2" sketch:name="SVGID_1_" fill="white">
                    <use xlink:href="#path-1"></use>
                </mask>
                <use id="SVGID_1_" fill="#9CA5BF" sketch:type="MSShapeGroup" xlink:href="#path-1"></use>
                <mask id="mask-4" sketch:name="SVGID_3_" fill="white">
                    <use xlink:href="#path-3"></use>
                </mask>
                <use id="SVGID_3_" fill="#9CA5BF" sketch:type="MSShapeGroup" xlink:href="#path-3"></use>
                <path d="M13.1721338,39.5942741 L11.4117179,39.5942741 C11.1431799,39.5942741 11.0238297,39.5641491 11.0238297,39.2327743 L11.0238297,32.3040273 L10.9044794,32.3040273 L10.1883781,33.9910266 L8.72633778,37.3047751 C8.45779977,37.9373999 8.27877443,38.0880248 7.71186085,38.0880248 L6.72722147,38.0880248 C6.13047034,38.0880248 6.01112011,37.9373999 5.7425821,37.3047751 L4.63859249,34.9550262 L3.53460289,32.5149023 L3.41525266,32.5149023 L3.41525266,39.2327743 C3.41525266,39.5641491 3.29590243,39.5942741 2.99752687,39.5942741 L1.1774359,39.5942741 C0.908897886,39.5942741 0.759710101,39.5641491 0.759710101,39.2327743 L0.759710101,28.1769042 C0.759710101,27.2430296 1.05808567,26.9116547 1.89353726,26.9116547 L2.93785175,26.9116547 C3.594278,26.9116547 3.83297846,27.1225296 4.13135403,27.7551544 L6.07079522,32.1534024 L7.17478483,34.7140263 L7.23445994,34.7140263 L8.42796221,31.8822775 L10.2778907,27.8154043 C10.5762663,27.1526546 10.8149668,26.9417797 11.5609057,26.9417797 L12.4261948,26.9417797 C13.2019713,26.9417797 13.560022,27.1827796 13.560022,28.1166542 L13.560022,39.2628993 C13.5898595,39.5641491 13.4705093,39.5942741 13.1721338,39.5942741 L13.1721338,39.5942741 L13.1721338,39.5942741 Z M19.7065587,39.805149 C16.6332903,39.805149 15.2607627,37.9675248 15.2607627,34.8646512 C15.2607627,31.7617776 16.9615035,29.8940284 19.7363963,29.8940284 C22.7201519,29.8940284 24.2418673,31.7316526 24.2418673,34.8345262 C24.2418673,37.9976498 22.7798271,39.805149 19.7065587,39.805149 L19.7065587,39.805149 L19.7065587,39.805149 Z M19.7960714,32.0931524 C18.542894,32.0931524 17.9461429,33.147527 17.9461429,34.8044012 C17.9461429,36.6119004 18.4533813,37.5759 19.7363963,37.5759 C21.0790863,37.5759 21.5564872,36.3709005 21.5564872,34.8646512 C21.5564872,33.2379019 21.1089239,32.0931524 19.7960714,32.0931524 L19.7960714,32.0931524 L19.7960714,32.0931524 Z M29.8811656,39.805149 C28.5981506,39.805149 27.1659479,39.5942741 26.0917959,39.1122743 C25.7934203,38.9917744 25.7635827,38.8411494 25.7635827,38.5700246 L25.7635827,26.7309048 C25.7635827,26.429655 25.882933,26.369405 26.151471,26.369405 L27.971562,26.369405 C28.2401,26.369405 28.3296126,26.429655 28.3296126,26.7309048 L28.3296126,30.1350283 C28.9562013,29.9241534 29.7021403,29.8337784 30.4182416,29.8337784 C33.3124846,29.8337784 34.5059869,31.9726525 34.5059869,34.7441513 C34.5358245,37.545775 33.222972,39.805149 29.8811656,39.805149 L29.8811656,39.805149 L29.8811656,39.805149 Z M29.8811656,32.1232774 C29.58279,32.1232774 28.8965262,32.1534024 28.3296126,32.3642773 L28.3296126,37.3951501 C28.8070135,37.545775 29.3739271,37.5759 29.7021403,37.5759 C30.9851552,37.5759 31.8206068,36.8529003 31.8206068,34.8345262 C31.8504443,32.996902 31.1045054,32.1232774 29.8811656,32.1232774 L29.8811656,32.1232774 L29.8811656,32.1232774 Z M37.2510421,29.1107788 C36.4454281,29.1107788 35.7890018,28.478154 35.7890018,27.6346544 C35.7890018,26.7911548 36.4752657,26.1284051 37.2510421,26.1284051 C38.0566562,26.1284051 38.74292,26.7911548 38.74292,27.6346544 C38.74292,28.478154 38.0864937,29.1107788 37.2510421,29.1107788 L37.2510421,29.1107788 L37.2510421,29.1107788 Z M36.2962403,30.1049033 L38.1163313,30.1049033 C38.4445444,30.1049033 38.5042195,30.1651533 38.5042195,30.4362782 L38.5042195,39.2628993 C38.5042195,39.5340241 38.4445444,39.5942741 38.1163313,39.5942741 L36.2962403,39.5942741 C36.0277023,39.5942741 35.9381896,39.5340241 35.9381896,39.2628993 L35.9381896,30.4362782 C35.9381896,30.1651533 36.0277023,30.1049033 36.2962403,30.1049033 L36.2962403,30.1049033 L36.2962403,30.1049033 Z M50.9464807,39.5942741 L48.8280142,39.5942741 C48.5594762,39.5942741 48.3804508,39.5641491 48.3207757,39.2930242 L47.6345119,36.9432753 L43.5766042,36.9432753 L42.8903404,39.2327743 C42.8306653,39.4737742 42.7411526,39.5641491 42.3831019,39.5641491 L40.2944729,39.5641491 C40.0259349,39.5641491 39.9960974,39.4135242 40.0557725,39.2026493 L43.7556295,27.8756543 C43.99433,27.0924047 44.3523807,26.8815298 45.0386445,26.8815298 L46.1127965,26.8815298 C46.9184106,26.8815298 47.2167861,27.0020297 47.4853241,27.8756543 L51.1851812,39.2026493 C51.2448563,39.3833992 51.2150187,39.5942741 50.9464807,39.5942741 L50.9464807,39.5942741 L50.9464807,39.5942741 Z M46.3216594,32.4245273 L45.6652332,29.8337784 L45.5458829,29.8337784 L44.8596191,32.4245273 L44.1733553,34.7140263 L46.9482481,34.7140263 L46.3216594,32.4245273 L46.3216594,32.4245273 Z M60.9420623,38.7206495 C60.8823872,39.5340241 57.7494437,39.805149 56.7051292,39.805149 C53.3036477,39.805149 52.1996581,37.7566499 52.1996581,34.9550262 C52.1996581,32.2437774 53.4826731,29.8940284 56.4664287,29.8940284 C57.0930174,29.8940284 57.6300935,29.9241534 58.3461948,30.1049033 L58.3461948,26.7911548 C58.3461948,26.4899049 58.4357075,26.429655 58.7340831,26.429655 L60.554174,26.429655 C60.8227121,26.429655 60.9420623,26.4899049 60.9420623,26.7911548 L60.9420623,37.9373999 C61.0017374,38.1783997 61.0017374,38.4495246 60.9420623,38.7206495 L60.9420623,38.7206495 L60.9420623,38.7206495 Z M58.4058699,32.3040273 C57.7792813,32.1534024 57.3317179,32.1232774 56.9438297,32.1232774 C55.7503274,32.1232774 54.9148758,32.9667771 54.9148758,34.9550262 C54.9148758,36.8830253 55.6906523,37.545775 57.0333423,37.545775 C57.3615555,37.545775 58.0179817,37.4855251 58.4058699,37.3349001 L58.4058699,32.3040273 L58.4058699,32.3040273 Z M68.8490148,32.1534024 C68.7595022,32.4245273 68.6699895,32.4245273 68.4014515,32.3341523 C67.5361623,32.0630275 66.8498985,31.9124025 66.0442845,31.9124025 C65.4176958,31.9124025 65.1491578,32.3040273 65.1491578,32.6052772 C65.1491578,33.087277 65.537046,33.3282769 66.6111981,33.7500267 C68.3119388,34.4127764 69.714304,35.0454011 69.714304,36.8830253 C69.714304,38.8411494 68.2224262,39.805149 66.0144469,39.805149 C64.7911071,39.805149 63.3290668,39.5641491 62.2549148,38.9315244 C62.0460519,38.8110245 62.0162143,38.6905245 62.1355646,38.4495246 L62.642803,37.2144002 C62.7621532,36.9432753 62.8516659,36.8830253 63.1202039,37.0035253 C63.8661429,37.3349001 65.1193202,37.666275 65.8652592,37.666275 C66.7305483,37.666275 67.0289239,37.3349001 67.0289239,36.8830253 C67.0289239,36.4010255 66.6111981,36.1299007 65.4176958,35.6780259 C63.5379297,34.9550262 62.4936152,34.2320265 62.4936152,32.7559021 C62.4936152,31.1894028 63.6274424,29.9241534 65.9547718,29.9241534 C67.0289239,29.9241534 68.162751,30.1350283 69.0877153,30.5266531 C69.3562533,30.6471531 69.3264158,30.737528 69.2369031,31.0387779 L68.8490148,32.1534024 L68.8490148,32.1534024 Z" id="SVGID_5_" fill="#9CA5BF" sketch:type="MSShapeGroup"></path>
            </g>
        </g>
    </g>
</svg>