<?xml version="1.0" encoding="UTF-8" standalone="no"?>
<svg width="58px" height="50px" viewBox="0 0 58 50" version="1.1" xmlns="http://www.w3.org/2000/svg" xmlns:xlink="http://www.w3.org/1999/xlink" xmlns:sketch="http://www.bohemiancoding.com/sketch/ns">
    <!-- Generator: Sketch 3.2.1 (9971) - http://www.bohemiancoding.com/sketch -->
    <title>nova-poshta</title>
    <desc>Created with Sketch.</desc>
    <defs></defs>
    <g id="Page-1" stroke="none" stroke-width="1" fill="none" fill-rule="evenodd" sketch:type="MSPage">
        <g id="logotypes" sketch:type="MSLayerGroup" transform="translate(0.000000, -1.000000)" fill="#9CA5BF">
            <path d="M39.1944932,12.4804134 L39.1944932,26.471752 C39.1944932,26.9745079 39.4884658,27.0949803 39.847589,26.7394685 L46.5247397,20.1237205 C46.8834658,19.7674213 46.8834658,19.1855315 46.5247397,18.8300197 L39.8471918,12.2126969 C39.4884658,11.857185 39.1944932,11.9772638 39.1944932,12.4804134 L39.1944932,12.4804134 Z M9.34276712,44.5386811 C7.59561644,44.5386811 6.22665753,45.8772638 6.22665753,47.5867126 C6.22665753,49.3406496 7.59561644,50.7150591 9.34276712,50.7150591 C11.0903151,50.7150591 12.4588767,49.3406496 12.4588767,47.5867126 C12.4588767,45.8772638 11.0903151,44.5386811 9.34276712,44.5386811 L9.34276712,44.5386811 Z M9.34276712,49.4839567 C8.3559726,49.4839567 7.58290411,48.6504921 7.58290411,47.5867126 C7.58290411,46.567815 8.3559726,45.7693898 9.34276712,45.7693898 C10.3299589,45.7693898 11.1030274,46.567815 11.1030274,47.5867126 C11.1030274,48.6504921 10.3299589,49.4839567 9.34276712,49.4839567 L9.34276712,49.4839567 Z M20.8426575,8.77411417 L23.8546849,8.77411417 C24.3623836,8.77411417 24.7775205,9.1859252 24.7775205,9.6886811 L24.7775205,14.7650591 C24.7775205,15.2682087 25.1926575,15.679626 25.7003562,15.679626 L30.759863,15.679626 C31.2675616,15.679626 31.6826986,15.2682087 31.6826986,14.7650591 L31.6826986,9.6886811 C31.6826986,9.1859252 32.0978356,8.77411417 32.6055342,8.77411417 L35.4550822,8.77411417 C35.9627808,8.77411417 36.0839452,8.48356299 35.7256164,8.12765748 L28.8021644,1.26663386 C28.4430411,0.911122047 27.8558904,0.911122047 27.4971644,1.26663386 L20.5725205,8.12765748 C20.2137945,8.48356299 20.3349589,8.77411417 20.8426575,8.77411417 L20.8426575,8.77411417 Z M16.6130274,26.9004921 C16.9717534,27.2563976 17.2653288,27.1359252 17.2653288,26.6327756 L17.2653288,12.3193898 C17.2653288,11.8162402 16.9717534,11.6961614 16.6126301,12.0516732 L9.77260274,18.8292323 C9.41387671,19.1851378 9.41387671,19.7670276 9.77260274,20.1225394 L16.6130274,26.9004921 L16.6130274,26.9004921 Z M4.15017808,45.3075787 L4.15017808,47.067815 L1.84527397,47.067815 L1.84527397,45.3075787 C1.84527397,44.8556102 1.62360274,44.6355315 1.16715068,44.6355315 L0,44.6355315 L0,45.7776575 L0.474328767,45.7776575 C0.520013699,45.7776575 0.529945205,45.7875 0.529945205,45.8327756 L0.529945205,50.617815 L1.84527397,50.617815 L1.84527397,48.2099409 L4.15017808,48.2099409 L4.15017808,50.617815 L5.46550685,50.617815 L5.46550685,45.8327756 C5.46550685,45.7875 5.47543836,45.7776575 5.52152055,45.7776575 L5.99545205,45.7776575 L5.99545205,44.6355315 L4.82830137,44.6355315 C4.37820548,44.6355315 4.15017808,44.8615157 4.15017808,45.3075787 L4.15017808,45.3075787 Z M30.759863,23.1237205 L25.7003562,23.1237205 C25.1926575,23.1237205 24.7775205,23.5355315 24.7775205,24.0382874 L24.7775205,29.4229331 C24.7775205,29.9260827 24.3623836,30.3375 23.8546849,30.3375 L21.0031507,30.3375 C20.4954521,30.3375 20.3742877,30.6284449 20.7330137,30.9839567 L27.4951781,37.6851378 C27.8539041,38.0406496 28.4414521,38.0406496 28.8001781,37.6851378 L35.563137,30.9839567 C35.9222603,30.6284449 35.8006986,30.3375 35.2933973,30.3375 L32.6055342,30.3375 C32.0978356,30.3375 31.6826986,29.9260827 31.6826986,29.4229331 L31.6826986,24.0382874 C31.6826986,23.5355315 31.2675616,23.1237205 30.759863,23.1237205 L30.759863,23.1237205 Z M45.267411,45.3075787 L45.267411,49.4205709 C45.267411,49.4662402 45.2574795,49.4760827 45.2113973,49.4760827 L43.6716164,49.4760827 L43.6716164,44.6355315 L42.3562877,44.6355315 L42.3562877,49.4760827 L40.8165068,49.4760827 C40.7704247,49.4760827 40.7608904,49.4662402 40.7608904,49.4205709 L40.7608904,45.3075787 C40.7608904,44.8556102 40.5416027,44.6355315 40.0907123,44.6355315 L38.9156164,44.6355315 L38.9156164,45.7776575 L39.3895479,45.7776575 C39.4356301,45.7776575 39.4455616,45.7875 39.4455616,45.8327756 L39.4455616,49.9457677 C39.4455616,50.3981299 39.6668356,50.617815 40.1232877,50.617815 L45.9042192,50.617815 C46.3670274,50.617815 46.5827397,50.4044291 46.5827397,49.9457677 L46.5827397,45.8327756 C46.5827397,45.7875 46.592274,45.7776575 46.6383562,45.7776575 L47.1126849,45.7776575 L47.1126849,44.6355315 L45.9371918,44.6355315 C45.4863014,44.6355315 45.267411,44.8556102 45.267411,45.3075787 L45.267411,45.3075787 Z M52.8189315,46.3028543 L52.8189315,45.2752953 C52.8189315,44.8268701 52.6262603,44.6355315 52.1737808,44.6355315 L48.129274,44.6355315 C47.6827534,44.6355315 47.4924658,44.8268701 47.4924658,45.2752953 L47.4924658,46.3028543 L48.6770959,46.3028543 L48.6770959,45.8327756 C48.6770959,45.7831693 48.6830548,45.7776575 48.7327123,45.7776575 L49.4982329,45.7776575 L49.4982329,50.617815 L50.8131644,50.617815 L50.8131644,45.7776575 L51.5703425,45.7776575 C51.6203973,45.7776575 51.6263562,45.7831693 51.6263562,45.8327756 L51.6263562,46.3028543 L52.8189315,46.3028543 L52.8189315,46.3028543 Z M16.7337945,47.449311 C17.0361096,47.2182087 17.3046575,46.8115157 17.3046575,46.2367126 C17.3046575,45.263878 16.5518493,44.6355315 15.3870822,44.6355315 L12.6869041,44.6355315 L12.6869041,45.7776575 L13.2172466,45.7776575 L13.2172466,49.9457677 C13.2172466,50.3981299 13.4389178,50.617815 13.8949726,50.617815 L15.4196575,50.617815 C16.7036027,50.617815 17.5326849,49.9166339 17.5326849,48.8308071 C17.5326849,48.2103346 17.226,47.691437 16.7337945,47.449311 L16.7337945,47.449311 Z M14.5158904,45.7776575 L15.3954247,45.7776575 C15.7728219,45.7776575 15.9893288,45.9918307 15.9893288,46.3658465 C15.9893288,46.7382874 15.7624932,46.9788386 15.4117123,46.9788386 L14.5158904,46.9788386 L14.5158904,45.7776575 L14.5158904,45.7776575 Z M15.5094384,49.4760827 L14.5719041,49.4760827 C14.5258219,49.4760827 14.5158904,49.4662402 14.5158904,49.4205709 L14.5158904,48.0642717 L15.5094384,48.0642717 C15.9360959,48.0642717 16.2014658,48.3331693 16.2014658,48.7662402 C16.2014658,49.2107283 15.9428493,49.4760827 15.5094384,49.4760827 L15.5094384,49.4760827 Z M57.5872466,49.4760827 C57.5018356,49.4760827 57.488726,49.4760827 57.450589,49.3788386 L55.7082055,44.6355315 L54.4183014,44.6355315 L52.6671781,49.3819882 C52.6357945,49.4760827 52.6266575,49.4760827 52.5400548,49.4760827 L52.277863,49.4760827 L52.277863,50.617815 L53.0453699,50.617815 C53.5057945,50.617815 53.698863,50.483563 53.8383014,50.0686024 L54.1755753,49.1473425 L55.9513288,49.1473425 L56.2878082,50.0654528 C56.4280411,50.483563 56.6211096,50.617815 57.0815342,50.617815 L57.8410959,50.617815 L57.8410959,49.4760827 L57.5872466,49.4760827 L57.5872466,49.4760827 Z M54.5056986,48.029626 L54.9403014,46.7524606 C54.9812192,46.6300197 55.0245205,46.4760827 55.0622603,46.3319882 C55.101589,46.4764764 55.1456849,46.6308071 55.187,46.753248 L55.6283562,48.029626 L54.5056986,48.029626 L54.5056986,48.029626 Z M39.9202877,9.11820866 C40.543589,9.11820866 41.0512877,8.61545276 41.0512877,7.99734252 C41.0512877,7.37923228 40.543589,6.87687008 39.9202877,6.87687008 C39.2969863,6.87687008 38.7896849,7.37923228 38.7896849,7.99734252 C38.7896849,8.61545276 39.2969863,9.11820866 39.9202877,9.11820866 L39.9202877,9.11820866 Z M39.9202877,7.0859252 C40.427589,7.0859252 40.8399452,7.49458661 40.8399452,7.99734252 C40.8399452,8.50009843 40.427589,8.90915354 39.9202877,8.90915354 C39.4133836,8.90915354 39.0006301,8.50009843 39.0006301,7.99734252 C39.0006301,7.49458661 39.4133836,7.0859252 39.9202877,7.0859252 L39.9202877,7.0859252 Z M23.027589,49.3788386 L21.2856027,44.6355315 L19.9956986,44.6355315 L18.2441781,49.3819882 C18.2127945,49.4760827 18.2036575,49.4760827 18.1166575,49.4760827 L17.8544658,49.4760827 L17.8544658,50.617815 L18.6223699,50.617815 C19.0827945,50.617815 19.275863,50.483563 19.4153014,50.0686024 L19.7525753,49.1473425 L21.5283288,49.1473425 L21.864411,50.0654528 C22.0050411,50.483563 22.1981096,50.617815 22.6585342,50.617815 L23.4180959,50.617815 L23.4180959,49.4760827 L23.1642466,49.4760827 C23.0788356,49.4760827 23.065726,49.4760827 23.027589,49.3788386 L23.027589,49.3788386 Z M20.0826986,48.029626 L20.5173014,46.7524606 C20.5582192,46.6300197 20.6015205,46.4760827 20.6392603,46.3319882 C20.678589,46.4764764 20.7226849,46.6304134 20.764,46.753248 L21.2053562,48.029626 L20.0826986,48.029626 L20.0826986,48.029626 Z M31.6938219,49.4205709 L31.6938219,45.3075787 C31.6938219,44.8556102 31.4721507,44.6355315 31.0156986,44.6355315 L26.3180959,44.6355315 L26.3180959,45.7776575 L26.8480411,45.7776575 L26.8480411,50.617815 L28.1633699,50.617815 L28.1633699,45.7776575 L30.3228767,45.7776575 C30.3689589,45.7776575 30.3788904,45.7875 30.3788904,45.8327756 L30.3788904,49.9457677 C30.3788904,50.4044291 30.5942055,50.617815 31.0570137,50.617815 L32.2241644,50.617815 L32.2241644,49.4760827 L31.7498356,49.4760827 C31.7037534,49.4760827 31.6938219,49.4662402 31.6938219,49.4205709 L31.6938219,49.4205709 Z M39.740726,8.12135827 L39.9413425,8.12135827 C39.9715342,8.12135827 40.1089863,8.11466535 40.1201096,8.24616142 C40.1340137,8.41387795 40.1169315,8.45639764 40.1642055,8.52529528 L40.4295753,8.52529528 C40.3902466,8.46899606 40.3902466,8.42332677 40.3870685,8.28395669 C40.3854795,8.20403543 40.3819041,8.06151575 40.2289589,8.01781496 L40.2289589,8.01466535 C40.3016575,7.9894685 40.4216301,7.92529528 40.4216301,7.74064961 C40.4216301,7.45757874 40.1578493,7.42883858 40.0458219,7.42883858 L39.4801233,7.42883858 L39.4801233,8.52529528 L39.740726,8.52529528 L39.740726,8.12135827 L39.740726,8.12135827 Z M39.740726,7.64183071 L39.9699452,7.64183071 C40.0819726,7.64183071 40.146726,7.67490157 40.146726,7.78316929 C40.146726,7.8363189 40.1260685,7.92057087 39.9794795,7.92057087 L39.740726,7.92057087 L39.740726,7.64183071 L39.740726,7.64183071 Z M35.5714795,44.5386811 C33.8239315,44.5386811 32.4553699,45.8772638 32.4553699,47.5867126 C32.4553699,49.3406496 33.8239315,50.7150591 35.5714795,50.7150591 C37.3186301,50.7150591 38.6871918,49.3406496 38.6871918,47.5867126 C38.6871918,45.8772638 37.3186301,44.5386811 35.5714795,44.5386811 L35.5714795,44.5386811 Z M35.5714795,49.4839567 C34.5846849,49.4839567 33.8112192,48.6504921 33.8112192,47.5867126 C33.8112192,46.567815 34.5846849,45.7693898 35.5714795,45.7693898 C36.558274,45.7693898 37.3313425,46.567815 37.3313425,47.5867126 C37.3313425,48.6504921 36.558274,49.4839567 35.5714795,49.4839567 L35.5714795,49.4839567 Z" id="nova-poshta" sketch:type="MSShapeGroup"></path>
        </g>
    </g>
</svg>