<?xml version="1.0" encoding="UTF-8" standalone="no"?>
<svg width="60px" height="60px" viewBox="0 0 60 60" version="1.1" xmlns="http://www.w3.org/2000/svg" xmlns:xlink="http://www.w3.org/1999/xlink" xmlns:sketch="http://www.bohemiancoding.com/sketch/ns">
    <!-- Generator: Sketch 3.2.1 (9971) - http://www.bohemiancoding.com/sketch -->
    <title>person</title>
    <desc>Created with Sketch.</desc>
    <defs></defs>
    <g id="Page-1" stroke="none" stroke-width="1" fill="none" fill-rule="evenodd" sketch:type="MSPage">
        <g id="gradient-icons" sketch:type="MSLayerGroup" transform="translate(-614.000000, -85.000000)" fill="#4CAF50">
            <path d="M656.438314,126.911475 C653.833724,126.911475 651.713068,124.786885 651.713068,122.180328 C651.713068,119.57377 653.833724,117.459016 656.438314,117.459016 C659.043888,117.459016 661.164543,119.57377 661.164543,122.180328 C661.164543,124.786885 659.043888,126.911475 656.438314,126.911475 Z M656.438314,119.42623 C654.917658,119.42623 653.680281,120.665574 653.680281,122.180328 C653.680281,123.704918 654.917658,124.944262 656.438314,124.944262 C657.959953,124.944262 659.19733,123.704918 659.19733,122.180328 C659.19733,120.665574 657.959953,119.42623 656.438314,119.42623 Z M647.308478,128.318033 C645.940281,128.318033 644.827822,127.206557 644.827822,125.840328 C644.827822,124.472131 645.940281,123.360656 647.308478,123.360656 C648.675691,123.360656 649.78815,124.472131 649.78815,125.840328 C649.78815,127.206557 648.675691,128.318033 647.308478,128.318033 Z M647.308478,125.327869 C647.025199,125.327869 646.795035,125.555082 646.795035,125.840328 C646.795035,126.114754 647.025199,126.35082 647.308478,126.35082 C647.590773,126.35082 647.820937,126.114754 647.820937,125.840328 C647.820937,125.555082 647.590773,125.327869 647.308478,125.327869 Z M647.308478,101.759672 C645.940281,101.759672 644.827822,100.64918 644.827822,99.2809836 C644.827822,97.9147541 645.940281,96.8032787 647.308478,96.8032787 C648.675691,96.8032787 649.78815,97.9147541 649.78815,99.2809836 C649.78815,100.64918 648.675691,101.759672 647.308478,101.759672 Z M647.308478,98.7704918 C647.025199,98.7704918 646.795035,98.9957377 646.795035,99.2809836 C646.795035,99.5662295 647.025199,99.792459 647.308478,99.792459 C647.590773,99.792459 647.820937,99.5662295 647.820937,99.2809836 C647.820937,98.9957377 647.590773,98.7704918 647.308478,98.7704918 Z M655.17733,101.759672 C653.810117,101.759672 652.696675,100.64918 652.696675,99.2809836 C652.696675,97.9147541 653.810117,96.8032787 655.17733,96.8032787 C656.544543,96.8032787 657.657986,97.9147541 657.657986,99.2809836 C657.657986,100.64918 656.544543,101.759672 655.17733,101.759672 Z M655.17733,98.7704918 C654.895035,98.7704918 654.663888,98.9957377 654.663888,99.2809836 C654.663888,99.5662295 654.895035,99.792459 655.17733,99.792459 C655.460609,99.792459 655.690773,99.5662295 655.690773,99.2809836 C655.690773,98.9957377 655.460609,98.7704918 655.17733,98.7704918 Z M662.062576,101.759672 C660.69438,101.759672 659.58192,100.64918 659.58192,99.2809836 C659.58192,97.9147541 660.69438,96.8032787 662.062576,96.8032787 C663.429789,96.8032787 664.542248,97.9147541 664.542248,99.2809836 C664.542248,100.64918 663.429789,101.759672 662.062576,101.759672 Z M662.062576,98.7704918 C661.779298,98.7704918 661.549134,98.9957377 661.549134,99.2809836 C661.549134,99.5662295 661.779298,99.792459 662.062576,99.792459 C662.344871,99.792459 662.575035,99.5662295 662.575035,99.2809836 C662.575035,98.9957377 662.344871,98.7704918 662.062576,98.7704918 Z M654.243888,115.491803 C651.191757,115.491803 648.477986,113.859016 647.162904,111.222951 L648.922576,110.348525 C649.903232,112.305902 651.941265,113.52459 654.243888,113.52459 C656.559298,113.52459 658.546183,111.823934 659.633068,110.229508 L659.925199,109.806557 L660.444543,109.806557 C664.072084,109.806557 667.064216,108.636066 669.099298,106.432787 C670.891429,104.48623 671.87897,101.809836 671.87897,98.8885246 C671.87897,92.957377 667.866839,86.9672131 660.196675,86.9672131 C657.150445,86.9672131 654.767166,88.0196721 652.469461,90.3911475 L651.967822,90.9016393 L651.32356,90.5878689 C648.53897,89.1911475 645.441593,89.1508197 642.602904,90.4590164 C639.755363,91.7868852 637.623888,94.3344262 636.902904,97.2852459 L634.991757,96.8239344 C635.853396,93.2927869 638.389134,90.242623 641.775691,88.6786885 C644.902576,87.2337705 648.428806,87.1836066 651.557658,88.5213115 C654.08356,86.1213115 656.845527,85 660.196675,85 C669.062904,85 673.846183,92.1518033 673.846183,98.8885246 C673.846183,102.301639 672.673724,105.44918 670.545199,107.760656 C668.226839,110.278689 664.91897,111.656721 660.954052,111.763934 C659.192412,114.104918 656.715691,115.491803 654.243888,115.491803 Z M652.696675,144.360656 L615.319625,144.360656 C614.776675,144.360656 614.336019,143.918033 614.336019,143.377049 L614.336019,137.47541 C614.336019,136.954098 614.336019,135.981311 619.369134,133.10918 C622.041593,131.58459 625.25897,130.039344 628.106511,128.928852 L628.106511,125.268852 C627.189789,124.64918 625.685855,123.07541 625.514707,119.299344 C624.49274,118.708197 623.908478,117.213115 623.908478,115.768197 C623.908478,114.970492 624.090445,114.272131 624.434707,113.731148 C624.641265,113.416393 624.90192,113.160656 625.203888,112.97377 L625.19897,112.963934 C624.506511,111.331148 623.45897,108.862295 624.460281,107.347541 C624.802576,106.82623 625.557986,106.206557 627.073724,106.32459 C628.351429,103.668852 632.110773,102.704918 635.163888,102.704918 C638.520937,102.704918 642.734707,103.87541 643.55897,107.170492 C644.156019,109.560656 643.293396,111.72459 642.733724,112.993443 C643.012084,113.180328 643.252084,113.42623 643.443888,113.731148 C643.775363,114.252459 643.950445,114.951803 643.950445,115.727869 C643.950445,117.193443 643.361265,118.698361 642.333396,119.299344 C642.176019,123.085246 640.785199,124.64918 639.909789,125.259016 L639.909789,128.937705 C642.813396,130.137705 646.023888,131.681967 648.619625,133.148525 C653.680281,136 653.680281,136.92459 653.680281,137.47541 L653.680281,143.377049 C653.680281,143.918033 653.240609,144.360656 652.696675,144.360656 Z M616.303232,142.393443 L651.713068,142.393443 L651.713068,137.632787 C650.949789,136.570492 644.955691,133.078689 638.561265,130.522295 C638.187494,130.364918 637.942576,130.009836 637.942576,129.606557 L637.942576,124.688525 C637.942576,124.256721 638.21897,123.882951 638.626183,123.754098 C638.620281,123.754098 640.380937,122.967213 640.380937,118.570492 C640.380937,118.030492 640.821593,117.586885 641.364543,117.586885 C641.604543,117.489508 642.142576,116.318033 641.940937,115.236066 C641.820937,114.596721 641.566183,114.596721 641.444216,114.596721 C640.901265,114.596721 640.460609,114.154098 640.460609,113.613115 C640.460609,113.268852 640.601265,112.954098 640.83438,112.432787 C641.315363,111.35082 642.120937,109.531148 641.649789,107.653443 C641.139298,105.607541 637.929789,104.672131 635.163888,104.672131 C632.397002,104.672131 629.187494,105.607541 628.676019,107.653443 C628.54815,108.163934 628.039625,108.479672 627.525199,108.370492 C627.209461,108.312459 626.930117,108.273115 626.697002,108.273115 C626.58192,108.273115 626.19733,108.291803 626.099953,108.429508 C625.682904,109.068852 626.682248,111.420656 627.010773,112.196721 C627.33438,112.954098 627.465199,113.278689 627.465199,113.613115 C627.465199,113.868852 627.360937,114.125574 627.177002,114.301639 C626.992084,114.488525 626.742248,114.596721 626.481593,114.596721 C626.339953,114.596721 626.045855,114.596721 625.917986,115.276393 C625.715363,116.357377 626.237658,117.489508 626.507166,117.586885 C627.050117,117.586885 627.465199,118.030492 627.465199,118.570492 C627.465199,122.978033 629.353724,123.734426 629.372412,123.744262 C629.788478,123.872131 630.073724,124.256721 630.073724,124.688525 L630.073724,129.606557 C630.073724,130.009836 629.819953,130.383607 629.43733,130.522295 C623.337002,132.823934 617.083232,136.491803 616.303232,137.622951 L616.303232,142.393443 Z" id="person" sketch:type="MSShapeGroup"></path>
        </g>
    </g>
</svg>