<?xml version="1.0" encoding="UTF-8" standalone="no"?>
<svg width="20px" height="21px" viewBox="0 0 20 21" version="1.1" xmlns="http://www.w3.org/2000/svg" xmlns:xlink="http://www.w3.org/1999/xlink" xmlns:sketch="http://www.bohemiancoding.com/sketch/ns">
    <!-- Generator: Sketch 3.2.1 (9971) - http://www.bohemiancoding.com/sketch -->
    <title>phone</title>
    <desc>Created with Sketch.</desc>
    <defs></defs>
    <g id="Page-1" stroke="none" stroke-width="1" fill="none" fill-rule="evenodd" sketch:type="MSPage">
        <path d="M15.2253959,14.8014849 L15.4466598,14.5790503 C15.7749931,14.2540503 15.9683264,13.8290503 15.9916598,13.3790503 C16.0166598,12.920717 15.8566598,12.4873836 15.5416598,12.1790503 L14.2508264,10.888217 C13.6366598,10.270717 12.5074931,10.320717 11.8449931,10.9790503 L11.6316598,11.195717 C10.4208264,10.1873836 9.26749309,9.03738365 8.26665976,7.82905032 L8.47832642,7.61238365 C9.16832642,6.92905032 9.21165976,5.84571698 8.57415976,5.21238365 L7.28332642,3.92071698 C6.66999309,3.30405032 5.54165976,3.34571698 4.87665976,4.01321698 L4.08999309,4.80405032 C3.27582642,5.61238365 3.09582642,6.85405032 3.66165976,7.75405032 C5.69749309,10.9790503 8.47832642,13.7623836 11.7041598,15.795717 C12.0483264,16.0123836 12.4516598,16.1290503 12.8724931,16.1290503 C13.5212865,16.1290503 14.1676145,15.8578589 14.6490769,15.3807626 C14.6625214,15.3995049 14.6778252,15.4173565 14.695,15.4340909 C14.795,15.5674243 15.0916667,16.5257576 14.6158333,17.4757576 C14.0108333,18.6840909 12.415,19.3174243 10,19.3174243 C4.94583333,19.3174243 0.833333333,15.2090909 0.833333333,10.1507576 C0.833333333,5.1007576 4.94583333,0.984090928 10,0.984090928 C15.055,0.984090928 19.1666667,5.1007576 19.1666667,10.1507576 C19.1666667,12.0090909 18.6125,13.8007576 17.5633333,15.3340909 C17.4333333,15.5257576 17.4816667,15.7840909 17.6716667,15.9090909 C17.8616667,16.0424243 18.1208333,15.9924243 18.2508333,15.8007576 C19.395,14.1340909 20,12.1840909 20,10.1507576 C20,4.63409093 15.5141667,0.150757595 10,0.150757595 C4.48666667,0.150757595 0,4.63409093 0,10.1507576 C0,15.6674243 4.48666667,20.1507576 10,20.1507576 C13.65,20.1507576 14.9825,18.7840909 15.4575,17.6424243 C15.9608333,16.4257576 15.6191667,15.1840909 15.295,14.8590909 C15.2734746,14.8371263 15.2501111,14.8179115 15.2253959,14.8014849 Z M6.16665976,4.29571698 C5.91415976,4.29571698 5.65832642,4.41238365 5.46582642,4.60405032 L4.67915976,5.38738365 C4.13749309,5.92905032 4.00582642,6.73738365 4.36665976,7.31238365 C6.33582642,10.4290503 9.02749309,13.120717 12.1491598,15.095717 C12.7058264,15.445717 13.5433264,15.3040503 14.0699931,14.7790503 L14.8566598,13.995717 C15.0399931,13.8123836 15.1474931,13.5790503 15.1599931,13.3373836 C15.1716598,13.1123836 15.0983264,12.9123836 14.9524931,12.763217 L13.6616598,11.470717 C13.3624931,11.170717 12.7841598,11.220717 12.4333264,11.570717 L11.9549931,12.045717 C11.8049931,12.195717 11.5649931,12.2123836 11.3999931,12.0790503 C9.93915976,10.9040503 8.54915976,9.52071698 7.38082642,8.06238365 C7.24832642,7.89571698 7.26165976,7.65405032 7.41165976,7.50405032 L7.88915976,7.02905032 C8.07165976,6.84571698 8.17915976,6.61238365 8.19165976,6.37071698 C8.20415976,6.14571698 8.12999309,5.94571698 7.98499309,5.79571698 L6.69415976,4.50405032 C6.55915976,4.37071698 6.37249309,4.29571698 6.16665976,4.29571698 Z" id="phone" fill="#333333" sketch:type="MSShapeGroup"></path>
    </g>
</svg>