<?xml version="1.0" encoding="UTF-8" standalone="no"?>
<svg width="42px" height="60px" viewBox="0 0 42 60" version="1.1" xmlns="http://www.w3.org/2000/svg" xmlns:xlink="http://www.w3.org/1999/xlink" xmlns:sketch="http://www.bohemiancoding.com/sketch/ns">
    <!-- Generator: Sketch 3.2.1 (9971) - http://www.bohemiancoding.com/sketch -->
    <title>questionnaire</title>
    <desc>Created with Sketch.</desc>
    <defs></defs>
    <g id="Page-1" stroke="none" stroke-width="1" fill="none" fill-rule="evenodd" sketch:type="MSPage">
        <path d="M41,60 L1,60 C0.448,60 0,59.6 0,59 L0,9 C0,8.501 0.448,8 1,8 L11,8 C11.553,8 12,8.501 12,9 C12,9.599 11.553,10.001 11,10.001 L2,10.001 L2,58.001 L40,58.001 L40,10.001 L31,10.001 C30.448,10.001 30,9.599 30,9 C30,8.501 30.448,8 31,8 L41,8 C41.553,8 42,8.501 42,9 L42,59 C42,59.6 41.553,60 41,60 Z M12,16.001 L30,16.001 L30,6 L26,6 C25.448,6 25,5.6 25,5 C25,2.4 22.494,2 21,2 C19.507,2 17,2.4 17,5 C17,5.6 16.553,6 16,6 L12,6 L12,16.001 Z M10,14 L10,17 C10,17.6 10.448,18 11,18 L31,18 C31.553,18 32,17.6 32,17 L32,14 L36,14 L36,52.001 L6,52.001 L6,14 L10,14 L10,14 Z M10,12 L10,5 C10,4.5 10.448,4.001 11,4.001 L15.087,4.001 C15.538,1.5 17.718,0 21,0 C24.283,0 26.463,1.5 26.913,4.001 L31,4.001 C31.553,4.001 32,4.5 32,5 L32,12 L37,12 C37.553,12 38,12.5 38,13.001 L38,53 C38,53.6 37.553,54 37,54 L5,54 C4.448,54 4,53.6 4,53 L4,13.001 C4,12.5 4.448,12 5,12 L10,12 L10,12 Z M29.653,24 L12,24 C11.448,24 11,23.6 11,23 C11,22.5 11.448,22.001 12,22.001 L29.653,22.001 C30.205,22.001 30.653,22.5 30.653,23 C30.653,23.6 30.205,24 29.653,24 Z M29.653,30 L12,30 C11.448,30 11,29.6 11,29 C11,28.5 11.448,28.001 12,28.001 L29.653,28.001 C30.205,28.001 30.653,28.5 30.653,29 C30.653,29.6 30.205,30 29.653,30 Z M29.653,36 L12,36 C11.448,36 11,35.6 11,35 C11,34.5 11.448,34.001 12,34.001 L29.653,34.001 C30.205,34.001 30.653,34.5 30.653,35 C30.653,35.6 30.205,36 29.653,36 Z M29.653,42 L12,42 C11.448,42 11,41.6 11,41 C11,40.5 11.448,40.001 12,40.001 L29.653,40.001 C30.205,40.001 30.653,40.5 30.653,41 C30.653,41.6 30.205,42 29.653,42 Z" id="questionnaire" fill="#2196F3" sketch:type="MSShapeGroup"></path>
    </g>
</svg>