<?xml version="1.0" encoding="UTF-8" standalone="no"?>
<svg width="16px" height="16px" viewBox="0 0 16 16" version="1.1" xmlns="http://www.w3.org/2000/svg" xmlns:xlink="http://www.w3.org/1999/xlink" xmlns:sketch="http://www.bohemiancoding.com/sketch/ns">
    <!-- Generator: Sketch 3.2.1 (9971) - http://www.bohemiancoding.com/sketch -->
    <title>red-ghost</title>
    <desc>Created with Sketch.</desc>
    <defs></defs>
    <g id="Page-1" stroke="none" stroke-width="1" fill="none" fill-rule="evenodd" sketch:type="MSPage">
        <g id="labirint" sketch:type="MSLayerGroup" transform="translate(-157.000000, -37.000000)" fill="#F44336">
            <path d="M157,45 C157,40.581722 160.590712,37 165,37 C169.418278,37 173,40.5907123 173,45 L173,53 L171.010132,50.6281738 L169.023865,53 L167.00116,50.6281738 L165.024414,53 L163.025696,50.6281738 L161.008179,53 L158.996765,50.6281738 L157,53 L157,45 Z M161.781065,46.0887574 C162.800668,46.0887574 163.627219,45.05027 163.627219,43.7692308 C163.627219,42.4881916 162.800668,41.4497041 161.781065,41.4497041 C160.761462,41.4497041 159.934911,42.4881916 159.934911,43.7692308 C159.934911,45.05027 160.761462,46.0887574 161.781065,46.0887574 Z M166.798817,46.0887574 C167.818419,46.0887574 168.64497,45.05027 168.64497,43.7692308 C168.64497,42.4881916 167.818419,41.4497041 166.798817,41.4497041 C165.779214,41.4497041 164.952663,42.4881916 164.952663,43.7692308 C164.952663,45.05027 165.779214,46.0887574 166.798817,46.0887574 Z M161.497041,45 C161.889196,45 162.207101,44.5761276 162.207101,44.0532544 C162.207101,43.5303813 161.889196,43.1065089 161.497041,43.1065089 C161.104887,43.1065089 160.786982,43.5303813 160.786982,44.0532544 C160.786982,44.5761276 161.104887,45 161.497041,45 Z M166.514793,45 C166.906948,45 167.224852,44.5761276 167.224852,44.0532544 C167.224852,43.5303813 166.906948,43.1065089 166.514793,43.1065089 C166.122638,43.1065089 165.804734,43.5303813 165.804734,44.0532544 C165.804734,44.5761276 166.122638,45 166.514793,45 Z" id="red-ghost" sketch:type="MSShapeGroup"></path>
        </g>
    </g>
</svg>