<?xml version="1.0" encoding="UTF-8" standalone="no"?>
<svg width="63px" height="26px" viewBox="0 0 63 26" version="1.1" xmlns="http://www.w3.org/2000/svg" xmlns:xlink="http://www.w3.org/1999/xlink" xmlns:sketch="http://www.bohemiancoding.com/sketch/ns">
    <!-- Generator: Sketch 3.2.1 (9971) - http://www.bohemiancoding.com/sketch -->
    <title>rio</title>
    <desc>Created with Sketch.</desc>
    <defs></defs>
    <g id="Page-1" stroke="none" stroke-width="1" fill="none" fill-rule="evenodd" sketch:type="MSPage">
        <g id="logotypes" sketch:type="MSLayerGroup" transform="translate(-315.000000, -12.000000)" fill="#9CA5BF">
            <g id="rio" transform="translate(315.000000, 12.000000)" sketch:type="MSShapeGroup">
                <path d="M32.9175627,25.7352941 L29.8315412,25.7352941 C29.2143369,25.7352941 28.8028674,25.3235294 28.8028674,24.7058824 L28.8028674,1.85294118 C28.8028674,1.23529412 29.2143369,0.823529412 29.8315412,0.823529412 L32.9175627,0.823529412 C33.534767,0.823529412 33.9462366,1.23529412 33.9462366,1.85294118 L33.9462366,24.7058824 C33.9462366,25.3235294 33.534767,25.7352941 32.9175627,25.7352941 L32.9175627,25.7352941 Z" id="Shape"></path>
                <path d="M49.9935484,0 C42.8956989,0 37.1351254,5.76470588 37.1351254,12.8676471 C37.1351254,19.9705882 42.8956989,25.7352941 49.9935484,25.7352941 C57.0913978,25.7352941 62.8519713,19.9705882 62.8519713,12.8676471 C62.8519713,5.76470588 57.0913978,0 49.9935484,0 L49.9935484,0 Z M49.9935484,20.7941176 C45.5702509,20.7941176 41.9698925,17.1911765 41.9698925,12.7647059 C41.9698925,8.33823529 45.5702509,4.73529412 49.9935484,4.73529412 C54.4168459,4.73529412 58.0172043,8.33823529 58.0172043,12.7647059 C58.0172043,14.5147059 57.5028674,16.0588235 56.5770609,17.3970588 C56.5770609,18.3235294 56.7827957,21.2058824 56.6799283,22.6470588 C55.6512545,21.9264706 54.4168459,20.8970588 53.388172,20.0735294 C52.3594982,20.5882353 51.227957,20.7941176 49.9935484,20.7941176 L49.9935484,20.7941176 Z" id="Shape"></path>
                <path d="M4.11469534,25.9411765 L1.02867384,25.9411765 C0.411469534,25.9411765 0,25.5294118 0,24.9117647 L0,2.16176471 C0,1.54411765 0.411469534,1.13235294 1.02867384,1.13235294 L4.11469534,1.13235294 L17.5903226,1.13235294 C28.8028674,3.60294118 24.0709677,16.9852941 20.5734767,17.6029412 C20.1620072,17.9117647 25.5111111,25.8382353 24.8939068,25.7352941 L19.1333333,25.7352941 C17.4874552,23.2647059 17.3845878,23.1617647 14.8129032,18.4264706 C13.7842294,18.4264706 13.0641577,18.5294118 11.521147,18.4264706 C11.1096774,17.9117647 9.87526882,14.7205882 9.25806452,13.4852941 C12.2412186,13.4852941 16.9731183,13.2794118 17.3845878,13.2794118 C20.4706093,12.8676471 21.190681,7.20588235 17.3845878,6.17647059 C13.9899642,6.17647059 6.99498208,6.17647059 5.14336918,6.17647059 L5.14336918,24.9117647 C5.14336918,25.5294118 4.62903226,25.9411765 4.11469534,25.9411765 L4.11469534,25.9411765 Z" id="Shape"></path>
                <path d="M14.7100358,18.4264706 L11.4182796,18.4264706 C11.00681,17.9117647 9.77240143,14.7205882 9.15519713,13.4852941" id="Shape"></path>
                <path d="M14.7100358,18.4264706 C13.5784946,18.4264706 13.1670251,18.3235294 11.4182796,18.4264706 C11.00681,17.9117647 9.77240143,14.7205882 9.15519713,13.4852941" id="Shape"></path>
                <path d="M24.7910394,25.7352941 L19.0304659,25.7352941 C17.4874552,23.2647059 17.3845878,23.1617647 14.7100358,18.4264706" id="Shape"></path>
            </g>
        </g>
    </g>
</svg>