<?xml version="1.0" encoding="UTF-8" standalone="no"?>
<svg width="170px" height="20px" viewBox="0 0 170 20" version="1.1" xmlns="http://www.w3.org/2000/svg" xmlns:xlink="http://www.w3.org/1999/xlink" xmlns:sketch="http://www.bohemiancoding.com/sketch/ns">
    <!-- Generator: Sketch 3.2.1 (9971) - http://www.bohemiancoding.com/sketch -->
    <title>Low poly Separator</title>
    <desc>Created with Sketch.</desc>
    <defs></defs>
    <g id="Page-1" stroke="none" stroke-width="1" fill="none" fill-rule="evenodd" sketch:type="MSPage">
        <g id="PC" sketch:type="MSArtboardGroup" transform="translate(-515.000000, -2280.000000)">
            <g id="Why" sketch:type="MSLayerGroup" transform="translate(130.000000, 2269.000000)">
                <g id="Low-poly-Separator" transform="translate(470.000000, 21.463735) scale(-1, -1) rotate(-4.000000) translate(-470.000000, -21.463735) translate(384.000000, 6.963735)" sketch:type="MSShapeGroup">
                    <polygon id="Triangle-6" fill="#59B5FF" transform="translate(26.090573, 6.075637) rotate(6.000000) translate(-26.090573, -6.075637) " points="50.057081 3.15482457 45.4111471 8.99645026 2.12406445 8.51856502 "></polygon>
                    <polygon id="Triangle-7" fill="#225FDA" transform="translate(61.667377, 9.734732) rotate(6.000000) translate(-61.667377, -9.734732) " points="49.7524824 6.88947017 73.5822725 12.4699116 56.2678317 12.5799928 "></polygon>
                    <polygon id="Triangle-9" fill="#002BC4" transform="translate(81.838565, 11.813754) rotate(6.000000) translate(-81.838565, -11.813754) " points="49.7652234 9.0377436 113.911906 13.8086924 73.4754552 14.5897641 "></polygon>
                    <polygon id="Triangle-8" fill="#3F8DEE" transform="translate(50.790462, 8.736436) rotate(6.000000) translate(-50.790462, -8.736436) " points="49.916806 5.7754753 57.3071185 11.3330486 44.2738057 11.6973966 "></polygon>
                    <polygon id="Triangle-13" fill="#FFBE59" transform="translate(91.230462, 12.643097) rotate(6.000000) translate(-91.230462, -12.643097) " points="103.730462 10.1430974 101.807385 15.1430974 78.7304617 15.1430974 "></polygon>
                    <polygon id="Triangle-12" fill="#EE933F" transform="translate(104.159246, 14.001967) rotate(6.000000) translate(-104.159246, -14.001967) " points="103.659246 11.5019675 106.659246 16.5019675 101.659246 16.5019675 "></polygon>
                    <polygon id="Triangle-17" fill="#E47DF3" transform="translate(99.768808, 10.911398) rotate(6.000000) translate(-99.768808, -10.911398) " points="120.579368 5.79668505 117.646568 16.0261114 78.9582475 16.0261112 "></polygon>
                    <polygon id="Triangle-14" fill="#A02CB1" transform="translate(128.502810, 13.973264) rotate(6.000000) translate(-128.502810, -13.973264) " points="120.416725 8.81697942 136.588896 19.129549 127.533669 19.129549 "></polygon>
                    <polygon id="Triangle-15" fill="#761A84" transform="translate(145.522167, 15.789102) rotate(6.000000) translate(-145.522167, -15.789102) " points="120.320152 10.605934 170.724182 20.9722698 136.492323 20.9722698 "></polygon>
                    <polygon id="Triangle-16" fill="#C24AD4" transform="translate(122.544442, 13.319984) rotate(6.000000) translate(-122.544442, -13.319984) " points="120.452371 8.19058153 127.569315 18.4493858 117.519568 18.4493858 "></polygon>
                    <path d="M169.34889,21.2831414 C169.502813,21.2648065 169.810658,21.2281368 169.810658,21.2281368 L166.355214,26.1912038 L128.145268,26.1912037 C128.145268,26.1912037 155.614349,22.9191622 169.34889,21.2831414 Z" id="Triangle-6" fill="#FF5959" transform="translate(148.977963, 23.709670) scale(-1, -1) rotate(6.000000) translate(-148.977963, -23.709670) "></path>
                    <polygon id="Triangle-7" fill="#DA2222" transform="translate(117.206978, 20.370405) scale(-1, -1) rotate(6.000000) translate(-117.206978, -20.370405) " points="106.093685 17.8888717 128.320271 22.8519387 111.070271 22.8519387 "></polygon>
                    <polygon id="Triangle-9" fill="#C40000" transform="translate(96.819279, 18.227572) scale(-1, -1) rotate(6.000000) translate(-96.819279, -18.227572) " points="65.2059858 15.7460382 128.432572 20.7091052 85.8281235 20.7091052 "></polygon>
                    <polygon id="Triangle-8" fill="#EE3F3F" transform="translate(125.218258, 21.180596) scale(-1, -1) rotate(6.000000) translate(-125.218258, -21.180596) " points="122.157046 18.6674085 131.734914 23.6937836 118.701601 23.6937838 "></polygon>
                    <path d="M88.5463018,12.9891444 C88.5463018,12.9891444 86.1340794,19.4186672 84.9279683,22.6334286 C84.824972,22.9079543 84.6189794,23.4570056 84.6189794,23.4570056 L50.630582,23.657075 L88.5463018,12.9891444 Z" id="Triangle-17" fill="#2FD670" transform="translate(69.588442, 18.323110) scale(-1, -1) rotate(6.000000) translate(-69.588442, -18.323110) "></path>
                    <polygon id="Triangle-14" fill="#19923D" transform="translate(42.149948, 15.659668) scale(-1, -1) rotate(6.000000) translate(-42.149948, -15.659668) " points="33.5412214 10.5449544 51.7024343 20.7743808 32.5974622 20.7743808 "></polygon>
                    <polygon id="Triangle-15" fill="#007227" transform="translate(26.088442, 13.823110) scale(-1, -1) rotate(6.000000) translate(-26.088442, -13.823110) " points="1.3142221 8.56078382 50.8626611 19.0854353 18.4809148 18.8225913 "></polygon>
                    <polygon id="Triangle-16" fill="#18AC4B" transform="translate(50.499437, 16.417360) scale(-1, -1) rotate(6.000000) translate(-50.499437, -16.417360) " points="50.2736607 11.1834299 54.6525389 21.412856 46.3463359 21.6512908 "></polygon>
                    <polygon id="Triangle-13" fill="#FFBE59" transform="translate(99.059090, 18.398940) scale(-1, -1) rotate(6.000000) translate(-99.059090, -18.398940) " points="111.55909 15.8989399 109.636013 20.8989399 86.5590903 20.8989399 "></polygon>
                    <polygon id="Triangle-10" fill="#DA6222" transform="translate(79.695420, 16.363736) scale(-1, -1) rotate(6.000000) translate(-79.695420, -16.363736) " points="72.7250894 13.8637362 86.6657508 18.8637362 75.4750894 18.8637362 "></polygon>
                    <polygon id="Triangle-11" fill="#C42200" transform="translate(72.700026, 15.628491) scale(-1, -1) rotate(6.000000) translate(-72.700026, -15.628491) " points="58.695769 13.1284906 86.7042834 17.8050615 69.945769 18.1284906 "></polygon>
                    <polygon id="Triangle-12" fill="#EE933F" transform="translate(86.130306, 17.040070) scale(-1, -1) rotate(6.000000) translate(-86.130306, -17.040070) " points="85.6303056 14.5400699 88.6303056 19.5400699 83.6303056 19.5400699 "></polygon>
                </g>
            </g>
        </g>
    </g>
</svg>