<?xml version="1.0" encoding="UTF-8" standalone="no"?>
<svg width="60px" height="60px" viewBox="0 0 60 60" version="1.1" xmlns="http://www.w3.org/2000/svg" xmlns:xlink="http://www.w3.org/1999/xlink" xmlns:sketch="http://www.bohemiancoding.com/sketch/ns">
    <!-- Generator: Sketch 3.2.1 (9971) - http://www.bohemiancoding.com/sketch -->
    <title>settings</title>
    <desc>Created with Sketch.</desc>
    <defs></defs>
    <g id="Page-1" stroke="none" stroke-width="1" fill="none" fill-rule="evenodd" sketch:type="MSPage">
        <g id="gradient-icons" sketch:type="MSLayerGroup" transform="translate(-165.000000, -90.000000)" fill="#4CAF50">
            <path d="M199.927213,150 L190.090164,150 C189.547213,150 189.106557,149.6 189.106557,149 L189.106557,141.5 C188.763279,141.401 188.318689,141.2 187.858361,141 C186.716393,140.6 185.343279,140.1 184.212131,139.6 L179.041311,144.8 C178.673443,145.201 178.020328,145.201 177.650492,144.8 L170.632459,137.701 C170.448525,137.5 170.344262,137.201 170.344262,137 C170.344262,136.7 170.448525,136.5 170.632459,136.3 L175.804262,131 C174.898361,129.2 174.113443,126.6 173.687541,124 L166.483607,124 C165.940656,124 165.5,123.6 165.5,123 L165.5,115 C165.5,114.5 165.940656,114 166.483607,114 L173.787869,114 C174.2,112.7 174.971148,110.6 175.799344,109.1 L170.634426,103.8 C170.249836,103.401 170.249836,102.8 170.634426,102.401 L177.650492,95.3 C178.034098,94.901 178.656721,94.901 179.041311,95.3 L184.20623,100.5 C185.775082,99.6 187.775738,98.901 189.106557,98.5 L189.106557,91 C189.106557,90.5 189.547213,90 190.090164,90 L199.927213,90 C200.468197,90 200.91082,90.5 200.91082,91 L200.91082,98.5 C202.219016,98.8 204.255082,99.701 205.80918,100.5 L210.973115,95.3 C211.356721,94.901 211.976393,94.901 212.36,95.3 L219.382951,102.401 C219.569836,102.6 219.668197,102.8 219.668197,103.1 C219.668197,103.401 219.569836,103.6 219.382951,103.8 L214.219016,109 C215.055082,110.6 215.753443,112.3 216.23541,114 L223.53377,114 C224.074754,114 224.517377,114.5 224.517377,115 L224.517377,123 C224.517377,123.6 224.074754,124 223.53377,124 L216.353443,124 C215.871475,127.901 215.143607,129.5 214.228852,131 L219.382951,136.3 C219.766557,136.7 219.766557,137.3 219.382951,137.701 L212.369836,144.8 C211.98623,145.201 211.356721,145.201 210.973115,144.8 L205.799344,139.6 C204.668197,140.1 203.300984,140.6 202.16,141 C201.697705,141.2 201.255082,141.401 200.91082,141.5 L200.91082,149 C200.91082,149.6 200.468197,150 199.927213,150 Z M191.07377,148 L198.943607,148 L198.943607,140.901 C198.943607,140.5 199.140328,140.201 199.455082,140 C199.887869,139.7 200.605902,139.5 201.51082,139.201 C202.80918,138.701 204.422295,138.1 205.464918,137.5 C205.848525,137.201 206.350164,137.3 206.664918,137.6 L211.671475,142.7 L217.297705,137 L212.291148,131.901 C211.976393,131.6 211.917377,131.1 212.153443,130.7 L212.232131,130.5 C213.264918,128.8 214.022295,127.6 214.504262,122.901 C214.553443,122.4 214.976393,122 215.478033,122 L222.550164,122 L222.550164,116 L215.478033,116 C215.025574,116 214.632131,115.7 214.523934,115.3 C214.032131,113.201 213.18623,111.1 212.153443,109.401 C211.917377,109 211.976393,108.5 212.291148,108.2 L217.297705,103.1 L211.671475,97.401 L206.664918,102.5 C206.350164,102.8 205.848525,102.8 205.464918,102.6 C203.694426,101.5 200.694426,100.401 199.740328,100.201 C199.278033,100.1 198.943607,99.701 198.943607,99.2 L198.943607,92 L191.07377,92 L191.07377,99.2 C191.07377,99.701 190.751148,100.1 190.298689,100.201 C189.118361,100.5 186.292459,101.5 184.55541,102.6 C184.168852,102.9 183.66918,102.8 183.347541,102.5 L178.345902,97.401 L172.720656,103.1 L177.720328,108.2 C178.041967,108.5 178.100984,109 177.864918,109.401 C176.787869,111.2 175.761967,114.1 175.490492,115.3 C175.383279,115.7 174.987869,116 174.534426,116 L167.467213,116 L167.467213,122 L174.534426,122 C175.027213,122 175.443279,122.4 175.50918,122.901 C175.898689,125.8 176.844918,129 177.864918,130.7 C178.100984,131.1 178.041967,131.6 177.720328,131.901 L172.719672,137 L178.344918,142.7 L183.34459,137.6 C183.66623,137.3 184.166885,137.201 184.553443,137.5 C185.597049,138.1 187.213115,138.701 188.510492,139.201 C189.413443,139.5 190.125574,139.7 190.561311,140 C190.878033,140.201 191.07377,140.5 191.07377,140.901 L191.07377,148 Z M195.008197,132 C188.500656,132 183.204918,126.701 183.204918,120 C183.204918,113.4 188.500656,108 195.008197,108 C201.520656,108 206.812459,113.4 206.812459,120 C206.812459,126.701 201.520656,132 195.008197,132 Z M195.008197,110 C189.58459,110 185.172131,114.5 185.172131,120 C185.172131,125.6 189.58459,130 195.008197,130 C200.428852,130 204.845246,125.6 204.845246,120 C204.845246,114.5 200.428852,110 195.008197,110 Z" id="settings" sketch:type="MSShapeGroup"></path>
        </g>
    </g>
</svg>