<?xml version="1.0" encoding="UTF-8" standalone="no"?>
<svg width="60px" height="60px" viewBox="0 0 60 60" version="1.1" xmlns="http://www.w3.org/2000/svg" xmlns:xlink="http://www.w3.org/1999/xlink" xmlns:sketch="http://www.bohemiancoding.com/sketch/ns">
    <!-- Generator: Sketch 3.2.1 (9971) - http://www.bohemiancoding.com/sketch -->
    <title>sofa</title>
    <desc>Created with Sketch.</desc>
    <defs></defs>
    <g id="Page-1" stroke="none" stroke-width="1" fill="none" fill-rule="evenodd" sketch:type="MSPage">
        <g id="gradient-icons" sketch:type="MSLayerGroup" transform="translate(-259.000000, -94.000000)" fill="#4CAF50">
            <path d="M284.417703,113.997762 C285.190349,112.233395 286.95202,111.000058 289,111.000058 C291.049326,111.000058 292.811966,112.235016 293.583818,114.00124 L293.583818,114.00124 L295.2925,112.292558 C295.6825,111.902558 296.3225,111.902558 296.7125,112.292558 C297.1025,112.683558 297.1025,113.312558 296.7125,113.712558 L294.4125,116.003558 L296.7125,118.292558 C297.1025,118.683558 297.1025,119.312558 296.7125,119.712558 C296.5125,119.902558 296.2625,120.002558 296.0025,120.002558 C295.7425,120.002558 295.4925,119.902558 295.2925,119.712558 L293.581427,118.001485 C292.808329,119.763145 291.047212,121.001058 289,121.001058 C286.954133,121.001058 285.193986,119.764772 284.420099,118.004959 L282.7125,119.712558 C282.5125,119.902558 282.2625,120.002558 282.0025,120.002558 C281.7425,120.002558 281.4925,119.902558 281.2925,119.712558 C280.9025,119.312558 280.9025,118.683558 281.2925,118.292558 L283.5925,116.003558 L281.2925,113.712558 C280.9025,113.312558 280.9025,112.683558 281.2925,112.292558 C281.6825,111.902558 282.3225,111.902558 282.7125,112.292558 L284.417703,113.997762 Z M286.001278,115.912638 C286.048174,114.292796 287.379382,113.001058 289,113.001058 C290.65,113.001058 292,114.340058 292,116.001058 C292,117.650058 290.65,119.001058 289,119.001058 C287.378615,119.001058 286.046914,117.696511 286.001213,116.086576 C286.00624,116.028653 286.006262,115.970447 286.001278,115.912638 Z M308.225117,125.257422 C309.653588,124.458662 311.284729,124.000058 313,124.000058 C316.66,124.000058 319,127.549058 319,130.000058 C319,132.599058 317.51,135.040058 315.38,135.919058 L315.01,136.069058 C313.76,136.569058 313,136.950058 313,137.999058 L313,143.000058 C313,148.469058 309.86,152.000058 305,152.000058 L305,153.000058 C305,153.550058 304.55,154.001058 304,154.001058 C303.45,154.001058 303,153.550058 303,153.000058 L303,152.000058 L275,152.000058 L275,153.000058 C275,153.550058 274.55,154.001058 274,154.001058 C273.45,154.001058 273,153.550058 273,153.000058 L273,152.000058 C268.14,152.000058 265,148.469058 265,143.000058 L265,137.999058 C265,136.950058 264.24,136.569058 262.98,136.069058 L262.62,135.919058 C260.49,135.040058 259,132.599058 259,130.000058 C259,127.549058 261.34,124.000058 265,124.000058 C266.879185,124.000058 268.657393,124.5505 270.178748,125.49563 L268.194223,112.149058 C267.484223,107.540058 268.734223,103.089058 271.724223,99.6090584 C274.784223,96.0400584 279.324223,94.0000584 284.184223,94.0000584 L294.184223,94.0000584 C299.044223,94.0000584 303.584223,96.0400584 306.644223,99.6090584 C309.624223,103.089058 310.884223,107.540058 310.174223,112.149058 L308.225117,125.257422 L308.225117,125.257422 Z M305.944256,126.990499 C304.13527,128.810852 303,131.3011 303,134.000058 L303,136.379058 C300.93,135.539058 296.64,134.350058 289,134.350058 C281.36,134.350058 277.07,135.539058 275,136.379058 L275,134.000058 C275,131.526119 274.04614,129.227539 272.493887,127.459504 L270.174223,111.850058 C269.554223,107.819058 270.644223,103.939058 273.234223,100.909058 C275.914223,97.7900584 279.904223,95.9990584 284.184223,95.9990584 L294.184223,95.9990584 C298.454223,95.9990584 302.444223,97.7900584 305.124223,100.909058 C307.724223,103.939058 308.814223,107.819058 308.194223,111.850058 L305.944256,126.990499 Z M307.809596,127.965246 C309.217866,126.746072 311.039557,125.999058 313,125.999058 C315.48,125.999058 317,128.589058 317,130.000058 C317,131.789058 316,133.499058 314.62,134.069058 L314.28,134.209058 C313.05,134.700058 311,135.509058 311,137.999058 L311,143.000058 C311,147.319058 308.7,149.999058 305,149.999058 L273,149.999058 C269.3,149.999058 267,147.319058 267,143.000058 L267,137.999058 C267,135.509058 264.95,134.700058 263.72,134.209058 L263.38,134.069058 C262,133.499058 261,131.789058 261,130.000058 C261,128.589058 262.52,125.999058 265,125.999058 C269.34,125.999058 273,129.660058 273,134.000058 L273.01,139.909058 L274.58,138.809058 C274.61,138.790058 278.25,136.349058 289,136.349058 C299.75,136.349058 303.39,138.790058 303.41,138.809058 L305,139.959058 L305,134.000058 C305,131.962576 305.806658,130.074744 307.111634,128.645109 C307.438111,128.555902 307.704043,128.302196 307.809596,127.965246 L307.809596,127.965246 Z" id="sofa" sketch:type="MSShapeGroup"></path>
        </g>
    </g>
</svg>