<?xml version="1.0" encoding="UTF-8" standalone="no"?>
<svg width="70px" height="39px" viewBox="0 0 70 39" version="1.1" xmlns="http://www.w3.org/2000/svg" xmlns:xlink="http://www.w3.org/1999/xlink" xmlns:sketch="http://www.bohemiancoding.com/sketch/ns">
    <!-- Generator: Sketch 3.2.1 (9971) - http://www.bohemiancoding.com/sketch -->
    <title>spaces</title>
    <desc>Created with Sketch.</desc>
    <defs>
        <path d="M9.52169834,28.4817244 L8.13708296,28.4817244 C7.67554449,28.4817244 7.32939065,28.2817244 7.09862142,28.0017244 C6.79092911,27.6017244 6.09862142,27.3617244 5.29092911,27.3617244 C3.9832368,27.3617244 3.4832368,27.7217244 3.4832368,28.2417244 C3.4832368,29.8017244 10.4063137,28.9217244 10.4063137,32.7617244 C10.4063137,34.9217244 8.29092911,35.7617244 5.36785219,35.7617244 C2.29092911,35.7617244 0.329390648,35.0817244 0.329390648,33.1217244 C0.329390648,32.8017244 0.560159879,32.5617244 0.906313725,32.5617244 L2.29092911,32.5617244 C2.75246757,32.5617244 3.09862142,32.7617244 3.32939065,33.0417244 C3.63708296,33.4417244 4.32939065,33.6817244 5.13708296,33.6817244 C6.71400603,33.6817244 7.25246757,33.3217244 7.25246757,32.8017244 C7.25246757,31.2417244 0.329390648,32.0817244 0.329390648,28.2817244 C0.329390648,26.1217244 2.44477526,25.2817244 5.09862142,25.2817244 C8.17554449,25.2817244 10.137083,25.9617244 10.137083,27.9217244 C10.0601599,28.2417244 9.82939065,28.4817244 9.52169834,28.4817244 L9.52169834,28.4817244 L9.52169834,28.4817244 Z M17.9063137,35.8017244 C16.7909291,35.8017244 16.0216983,35.5617244 15.2524676,35.3217244 L15.2524676,38.1617244 C15.2524676,38.4817244 15.0216983,38.7217244 14.6755445,38.7217244 L12.637083,38.7217244 C12.3293906,38.7217244 12.0601599,38.4817244 12.0601599,38.1617244 L12.0601599,26.0017244 C12.0601599,25.6817244 12.2909291,25.4417244 12.637083,25.4417244 L14.4063137,25.4417244 C14.714006,25.4417244 14.9832368,25.6817244 14.9832368,26.0017244 L14.9832368,26.2817244 C15.8293906,25.6817244 16.8678522,25.2417244 18.214006,25.2417244 C20.8678522,25.2417244 22.8678522,27.0417244 22.8678522,30.5217244 C22.8293906,34.0017244 20.8293906,35.8017244 17.9063137,35.8017244 L17.9063137,35.8017244 L17.9063137,35.8017244 Z M17.4063137,27.4817244 C16.714006,27.4817244 15.8678522,27.8817244 15.214006,28.3217244 L15.214006,33.1617244 C15.9832368,33.4017244 16.7524676,33.5617244 17.214006,33.5617244 C18.9063137,33.5617244 19.5216983,32.6417244 19.5216983,30.5217244 C19.5601599,28.4017244 18.9447753,27.4817244 17.4063137,27.4817244 L17.4063137,27.4817244 L17.4063137,27.4817244 Z M33.9447753,35.6017244 L32.1755445,35.6017244 C31.8678522,35.6017244 31.5986214,35.3617244 31.5986214,35.0417244 L31.5986214,34.7617244 C30.7524676,35.3617244 29.714006,35.8017244 28.2909291,35.8017244 C25.8293906,35.8017244 23.9447753,34.6817244 23.9447753,32.5217244 C23.9447753,30.3617244 25.8293906,29.2817244 28.2909291,29.2817244 L31.3293906,29.2817244 C31.3293906,27.8017244 30.714006,27.3617244 29.4447753,27.3617244 C28.6755445,27.3617244 27.9832368,27.6017244 27.6755445,28.0017244 C27.4447753,28.3217244 27.0986214,28.4817244 26.637083,28.4817244 L25.2524676,28.4817244 C24.9447753,28.4817244 24.6755445,28.2417244 24.6755445,27.9217244 C24.6755445,25.9617244 26.637083,25.2817244 29.6755445,25.2817244 C32.3678522,25.2817244 34.5216983,26.4017244 34.5216983,29.3217244 L34.5216983,35.0417244 C34.5216983,35.3617244 34.2524676,35.6017244 33.9447753,35.6017244 L33.9447753,35.6017244 L33.9447753,35.6017244 Z M31.3293906,31.4017244 L28.5216983,31.4017244 C27.637083,31.4017244 27.137083,31.8817244 27.137083,32.5217244 C27.137083,33.2017244 27.637083,33.6817244 28.637083,33.6817244 C29.7524676,33.6817244 30.714006,33.2817244 31.3678522,32.8417244 L31.3678522,31.4017244 L31.3293906,31.4017244 L31.3293906,31.4017244 Z M46.7524676,29.0417244 L45.3678522,29.0417244 C44.9063137,29.0417244 44.5601599,28.7617244 44.3293906,28.3617244 C44.0216983,27.8417244 43.3293906,27.4817244 42.3678522,27.4817244 C40.5986214,27.4817244 39.9447753,28.4017244 39.9447753,30.5217244 C39.9447753,32.6017244 40.5601599,33.5217244 42.4447753,33.5217244 C43.4063137,33.5217244 44.0986214,33.1617244 44.4063137,32.6417244 C44.6755445,32.2417244 44.9832368,31.9617244 45.4447753,31.9617244 L46.8293906,31.9617244 C47.137083,31.9617244 47.4063137,32.2017244 47.4063137,32.5217244 C47.4063137,34.6817244 45.4447753,35.7617244 42.214006,35.7617244 C38.637083,35.7617244 36.6755445,33.9617244 36.6755445,30.4817244 C36.6755445,27.0017244 38.6755445,25.2017244 42.137083,25.2017244 C45.3678522,25.2017244 47.3293906,26.2817244 47.3293906,28.4417244 C47.2909291,28.8017244 47.0601599,29.0417244 46.7524676,29.0417244 L46.7524676,29.0417244 L46.7524676,29.0417244 Z M58.0216983,31.4817244 L51.0986214,31.4817244 C51.214006,33.0017244 51.9063137,33.6817244 53.4447753,33.6817244 C54.2524676,33.6817244 54.9447753,33.4417244 55.2524676,33.0417244 C55.4832368,32.7217244 55.8293906,32.5617244 56.2909291,32.5617244 L57.6755445,32.5617244 C57.9832368,32.5617244 58.2524676,32.8017244 58.2524676,33.1217244 C58.2524676,35.0817244 56.2524676,35.7617244 53.2524676,35.7617244 C49.9063137,35.7617244 47.9063137,33.9217244 47.9063137,30.4817244 C47.9063137,27.0817244 49.9447753,25.2017244 53.2524676,25.2017244 C56.5986214,25.2017244 58.5986214,27.0017244 58.5986214,30.3617244 L58.5986214,30.8817244 C58.5986214,31.2417244 58.3293906,31.4817244 58.0216983,31.4817244 L58.0216983,31.4817244 L58.0216983,31.4817244 Z M53.214006,27.3617244 C51.8678522,27.3617244 51.137083,28.1217244 51.0601599,29.5617244 L55.3293906,29.5617244 C55.2909291,28.1217244 54.637083,27.3617244 53.214006,27.3617244 L53.214006,27.3617244 L53.214006,27.3617244 Z M68.9447753,28.4817244 L67.5601599,28.4817244 C67.0986214,28.4817244 66.7524676,28.2817244 66.5216983,28.0017244 C66.214006,27.6017244 65.5216983,27.3617244 64.714006,27.3617244 C63.4063137,27.3617244 62.9063137,27.7217244 62.9063137,28.2417244 C62.9063137,29.8017244 69.8293906,28.9217244 69.8293906,32.7617244 C69.8293906,34.9217244 67.714006,35.7617244 64.7909291,35.7617244 C61.714006,35.7617244 59.7524676,35.0817244 59.7524676,33.1217244 C59.7524676,32.8017244 59.9832368,32.5617244 60.3293906,32.5617244 L61.714006,32.5617244 C62.1755445,32.5617244 62.5216983,32.7617244 62.7524676,33.0417244 C63.0601599,33.4417244 63.7524676,33.6817244 64.5601599,33.6817244 C66.137083,33.6817244 66.6755445,33.3217244 66.6755445,32.8017244 C66.6755445,31.2417244 59.7524676,32.0817244 59.7524676,28.2817244 C59.7524676,26.1217244 61.8678522,25.2817244 64.5216983,25.2817244 C67.5986214,25.2817244 69.5601599,25.9617244 69.5601599,27.9217244 C69.5216983,28.2417244 69.2909291,28.4817244 68.9447753,28.4817244 L68.9447753,28.4817244 L68.9447753,28.4817244 Z" id="path-1"></path>
        <path id="path-3" d="M31.0409291,0.343202531 L35.0793906,2.30320253 C34.6178522,3.22320253 31.6563137,9.90320253 30.6178522,12.1032025 C30.387083,12.9032025 30.5793906,13.5832025 31.2716983,14.0232025 C33.464006,15.1432025 33.3486214,15.1032025 34.387083,15.6632025 L33.8101599,16.8232025 C33.4255445,17.6632025 32.387083,18.0632025 31.5409291,17.6632025 L24.5409291,14.2632025 C23.6947753,13.8632025 23.3486214,12.8232025 23.7332368,11.9832025 L28.7716983,1.18320253 C29.1947753,0.303202531 30.1947753,-0.0567974688 31.0409291,0.343202531 L31.0409291,0.343202531 L31.0409291,0.343202531 Z"></path>
        <path id="path-5" d="M37.7692308,0.343202531 L44.8076923,3.70320253 C45.6538462,4.10320253 46,5.14320253 45.6153846,5.98320253 L40.5769231,16.7832025 C40.1923077,17.6232025 39.1538462,18.0232025 38.3076923,17.6232025 L34.3461538,15.6232025 C34.9615385,14.3032025 37.5,8.66320253 38.8461538,5.78320253 C39.1538462,5.22320253 39.0769231,4.26320253 38.1923077,3.86320253 C36.6153846,3.10320253 35.6923077,2.58320253 35.0384615,2.30320253 L35.5,1.18320253 C35.9230769,0.303202531 36.9230769,-0.0567974688 37.7692308,0.343202531 L37.7692308,0.343202531 L37.7692308,0.343202531 Z"></path>
    </defs>
    <g id="Page-1" stroke="none" stroke-width="1" fill="none" fill-rule="evenodd" sketch:type="MSPage">
        <g id="logotypes" sketch:type="MSLayerGroup" transform="translate(-205.000000, -7.000000)">
            <g id="spaces" transform="translate(205.000000, 7.000000)">
                <mask id="mask-2" sketch:name="SVGID_1_" fill="white">
                    <use xlink:href="#path-1"></use>
                </mask>
                <use id="SVGID_1_" fill="#9CA5BF" sketch:type="MSShapeGroup" xlink:href="#path-1"></use>
                <mask id="mask-4" sketch:name="SVGID_3_" fill="white">
                    <use xlink:href="#path-3"></use>
                </mask>
                <use id="SVGID_3_" fill="#9CA5BF" sketch:type="MSShapeGroup" xlink:href="#path-3"></use>
                <mask id="mask-6" sketch:name="SVGID_7_" fill="white">
                    <use xlink:href="#path-5"></use>
                </mask>
                <use id="SVGID_7_" fill="#9CA5BF" sketch:type="MSShapeGroup" xlink:href="#path-5"></use>
            </g>
        </g>
    </g>
</svg>