<?xml version="1.0" encoding="UTF-8" standalone="no"?>
<svg width="53px" height="60px" viewBox="0 0 53 60" version="1.1" xmlns="http://www.w3.org/2000/svg" xmlns:xlink="http://www.w3.org/1999/xlink" xmlns:sketch="http://www.bohemiancoding.com/sketch/ns">
    <!-- Generator: Sketch 3.2.1 (9971) - http://www.bohemiancoding.com/sketch -->
    <title>stample</title>
    <desc>Created with Sketch.</desc>
    <defs></defs>
    <g id="Page-1" stroke="none" stroke-width="1" fill="none" fill-rule="evenodd" sketch:type="MSPage">
        <g id="gradient-icons" sketch:type="MSLayerGroup" transform="translate(-444.000000, -2.000000)" fill="#4CAF50">
            <path d="M471.551853,4.40780677 L460.197141,15.5870492 C455.535493,20.1623287 455.160031,27.3910605 459.070755,32.402183 L454.687141,36.7139344 C454.297141,37.0985246 454.297141,37.7181967 454.687141,38.1106557 L456.965891,40.3520492 L446.164641,50.9762295 C443.804641,53.297541 443.804641,56.9378689 446.164641,59.2581967 C448.524641,61.5706557 452.224641,61.5706557 454.584641,59.2581967 L462.584641,51.3795082 C463.644641,50.3368852 465.104641,50.3368852 466.164641,51.3893443 C467.254641,52.4516393 467.254641,53.8385246 466.164641,54.9106557 L461.164641,59.8286885 C460.774641,60.2132787 460.774641,60.8329508 461.164641,61.2254098 C461.364641,61.4122951 461.614641,61.5116393 461.874641,61.5116393 C462.134641,61.5116393 462.384641,61.4122951 462.584641,61.2254098 L467.584641,56.307377 C469.434641,54.4788525 469.434641,51.8221311 467.584641,49.992623 C465.774641,48.2132787 462.974641,48.2132787 461.164641,49.992623 L453.164641,57.8614754 C451.604641,59.4057377 449.144641,59.4057377 447.584641,57.8614754 C445.984641,56.297541 445.984641,53.9368852 447.584641,52.3729508 L458.385891,41.7487705 L458.385891,41.7487705 L459.687141,43.0286885 C459.887141,43.2155738 460.137141,43.314918 460.397141,43.314918 C460.657141,43.314918 460.907141,43.2155738 461.107141,43.0286885 L465.488279,38.719373 L465.488279,38.719373 C467.813566,40.4823656 470.615354,41.367377 473.417141,41.367377 C476.747141,41.367377 480.077141,40.1172131 482.607141,37.6286885 L494.127141,26.307377 C494.409506,26.023232 494.487435,25.6199832 494.360929,25.2730822 C494.457678,24.9480326 494.373082,24.5867414 494.107141,24.3317387 L490.055426,20.4566057 L496.107141,14.5040984 C496.497141,14.1116393 496.497141,13.4919672 496.107141,13.107377 C495.717141,12.7237705 495.077141,12.7237705 494.687141,13.107377 L488.615525,19.0794589 L478.901264,9.78856756 L485.107141,3.68442623 C485.497141,3.29098361 485.497141,2.67229508 485.107141,2.28770492 C484.717141,1.90409836 484.077141,1.90409836 483.687141,2.28770492 L477.461364,8.41142082 L473.203174,4.3388121 C473.179733,4.30980502 473.154389,4.28178778 473.127141,4.25491803 C472.929635,4.06064923 472.668011,3.96476344 472.407212,3.96726065 C472.146366,3.96479775 471.884683,4.05803264 471.687141,4.24696532 C471.635101,4.29686513 471.590005,4.35083495 471.551853,4.40780677 L471.551853,4.40780677 Z M472.44093,6.32601543 L461.607141,16.9729508 C457.317141,21.1936066 457.317141,28.0581967 461.607141,32.2778689 L465.637141,36.2427869 C469.927141,40.4516393 476.907141,40.4516393 481.197141,36.2427869 L492.295838,25.3156028 L488.484975,21.6708249 C488.455864,21.6733303 488.426567,21.6745902 488.397141,21.6745902 C488.137141,21.6745902 487.887141,21.5762295 487.687141,21.3893443 C487.477164,21.1775136 487.380239,20.9003891 487.396367,20.6296612 L477.143484,10.8236211 C476.976985,10.7804707 476.820884,10.6946445 476.687141,10.5696721 C476.564329,10.4460852 476.48019,10.2999668 476.434726,10.1457531 L472.44093,6.32601543 L472.44093,6.32601543 Z M463.992141,37.397541 L460.397141,40.9336066 L456.807141,37.4132787 L460.411413,33.8755134 L463.992141,37.397541 L463.992141,37.397541 Z M471.394641,31.5091803 C468.634641,31.5091803 466.394641,29.2960656 466.394641,26.5901639 C466.394641,23.8744262 468.634641,21.6721311 471.394641,21.6721311 C474.154641,21.6721311 476.394641,23.8744262 476.394641,26.5901639 C476.394641,29.2960656 474.154641,31.5091803 471.394641,31.5091803 Z M471.394641,23.6393443 C469.744641,23.6393443 468.394641,24.957377 468.394641,26.5901639 C468.394641,28.2131148 469.744641,29.5409836 471.394641,29.5409836 C473.044641,29.5409836 474.394641,28.2131148 474.394641,26.5901639 C474.394641,24.957377 473.044641,23.6393443 471.394641,23.6393443 Z M486.397141,26.592623 C486.137141,26.592623 485.887141,26.4932787 485.687141,26.307377 L471.687141,12.5368852 C471.297141,12.1434426 471.297141,11.5247541 471.687141,11.1401639 C472.077141,10.7565574 472.717141,10.7565574 473.107141,11.1401639 L487.107141,24.9106557 C487.497141,25.2952459 487.497141,25.914918 487.107141,26.307377 C486.907141,26.4932787 486.657141,26.592623 486.397141,26.592623 Z" id="stample" sketch:type="MSShapeGroup"></path>
        </g>
    </g>
</svg>