<?xml version="1.0" encoding="UTF-8" standalone="no"?>
<svg width="70px" height="41px" viewBox="0 0 70 41" version="1.1" xmlns="http://www.w3.org/2000/svg" xmlns:xlink="http://www.w3.org/1999/xlink" xmlns:sketch="http://www.bohemiancoding.com/sketch/ns">
    <!-- Generator: Sketch 3.2.1 (9971) - http://www.bohemiancoding.com/sketch -->
    <title>startask</title>
    <desc>Created with Sketch.</desc>
    <defs></defs>
    <g id="Page-1" stroke="none" stroke-width="1" fill="none" fill-rule="evenodd" sketch:type="MSPage">
        <g id="logotypes" sketch:type="MSLayerGroup" transform="translate(-618.000000, -4.000000)" fill="#9CA5BF">
            <g id="startask" transform="translate(618.000000, 4.000000)" sketch:type="MSShapeGroup">
                <path d="M1.2509086,37.239637 C2.36078431,37.9484409 3.82112795,38.5391108 5.18418004,38.5391108 C6.52770103,38.5391108 7.18969598,37.8303069 7.20922707,36.9837414 C7.20922707,36.3143156 6.81969697,35.6842677 5.70982125,35.1921041 L3.41218806,34.2076543 C1.79620222,33.4989732 0.6863265,32.4555177 0.6863265,30.6836307 C0.6863265,28.3604519 2.63337047,26.7065762 5.26206179,26.7065762 C6.99499158,26.7065762 8.61109873,27.2578681 9.62368291,27.7894097 C9.58462072,28.5375915 9.2341528,29.305401 8.70851159,29.7975646 C7.69592741,29.305401 6.31346554,28.8526154 5.28147158,28.8526154 C4.01583234,28.8526154 3.35383739,29.5612966 3.35383739,30.3488565 C3.35383739,31.0182823 3.82112795,31.4513176 4.73629927,31.8450975 L7.03393246,32.8295473 C8.80580313,33.5973568 9.95461973,34.8770802 9.95461973,36.6095892 C9.95461973,38.9525184 8.31910279,40.7047777 5.00888542,40.7047777 C3.41218806,40.7047777 1.58196673,40.1732361 0.199504852,39.247792 C0.277386611,38.4799825 0.744677164,37.672795 1.2509086,37.239637" id="Fill-1"></path>
                <path d="M17.2756264,31.5498239 C17.2756264,31.8845982 17.2365642,32.1798718 17.1586824,32.4948957 L14.8026986,32.4555177 L14.8026986,37.633417 C14.8026986,38.2043365 15.0363438,38.5391108 15.6399881,38.5391108 L16.8471554,38.5391108 C16.963978,38.89339 17.0418598,39.3659259 17.0418598,39.7794562 C17.0418598,39.9762235 17.0418598,40.1928638 16.9835091,40.3503757 C16.3213929,40.4487594 15.4063428,40.527638 14.646935,40.527638 C13.0891786,40.527638 12.310361,39.7597059 12.310361,38.1257032 L12.310361,32.4751454 L10.8306075,32.4948957 C10.7527258,32.1798718 10.7331947,31.8845982 10.7331947,31.5498239 C10.7331947,31.2545503 10.7527258,30.959154 10.8306075,30.6441301 L12.310361,30.6638804 L12.310361,29.2463954 C12.310361,28.1044336 12.6608289,27.6712757 13.6928228,27.6712757 L14.6663448,27.6712757 L14.8026986,27.7894097 L14.8026986,30.6836307 L17.1586824,30.6441301 C17.2365642,30.959154 17.2756264,31.2545503 17.2756264,31.5498239" id="Fill-2"></path>
                <path d="M23.6033373,37.8894353 L23.6033373,36.1765539 C23.116637,36.1371759 22.5909957,36.1174256 22.2014656,36.1174256 C21.1890028,36.1174256 20.68265,36.6884678 20.68265,37.594039 C20.68265,38.2437145 21.0720588,38.7556284 21.7729947,38.7556284 C22.3572292,38.7556284 23.0387552,38.4603548 23.6033373,37.8894353 L23.6033373,37.8894353 Z M25.8230887,40.5866437 C24.9079174,40.4881374 24.3239255,40.0549795 23.9733363,39.4644323 C23.2918103,40.1338581 22.3572292,40.7047777 21.0915899,40.7047777 C19.1250149,40.7047777 18.1709027,39.169036 18.1709027,37.7515509 C18.1709027,35.4479997 19.9233635,34.4242946 21.9678204,34.4242946 C22.4155798,34.4242946 23.0192241,34.4242946 23.6033373,34.4833003 L23.6033373,33.9517587 C23.6033373,32.9279309 23.116637,32.4555177 22.1625248,32.4555177 C21.2668845,32.4555177 20.2153595,32.7901693 19.2028966,33.1445712 C18.8328976,32.731041 18.5992523,31.9632315 18.5409017,31.3135559 C19.7480689,30.801642 21.5199396,30.4276124 22.8049886,30.4276124 C24.5965117,30.4276124 26.1346158,31.3923119 26.1346158,33.7548688 L26.1346158,37.7909289 C26.1346158,38.4406045 26.2709695,38.9328907 26.6799094,39.247792 C26.5630867,39.7204505 26.173678,40.3306254 25.8230887,40.5866437 L25.8230887,40.5866437 Z" id="Fill-3"></path>
                <path d="M28.5098881,30.5063684 C29.600354,30.6441301 30.3012899,31.2939283 30.6711676,32.2782554 C31.0995172,31.2741779 31.858925,30.5259961 33.1440954,30.5259961 C33.6307957,30.5259961 33.942444,30.5654968 34.3124431,30.6638804 C34.3124431,31.2939283 34.1176173,32.3570114 33.6892677,33.0658152 C33.3972717,32.9673089 33.0856234,32.9476813 32.7936275,32.9279309 C31.9172757,32.9279309 31.3721034,33.4398448 30.9632848,34.1486487 L30.9632848,40.4291317 C30.6128169,40.4881374 30.1259952,40.527638 29.6781145,40.527638 C29.2497648,40.527638 28.7825956,40.4881374 28.4125966,40.4291317 L28.4125966,33.8730027 C28.4125966,32.7705416 28.0036567,32.1207434 27.6920083,31.8450975 C27.7894212,31.3923119 28.1594202,30.762264 28.5098881,30.5063684" id="Fill-4"></path>
                <path d="M42.100255,31.5498239 C42.100255,31.8845982 42.0614354,32.1798718 41.9834324,32.4948957 L39.6274485,32.4555177 L39.6274485,37.633417 C39.6274485,38.2043365 39.8610938,38.5391108 40.4646168,38.5391108 L41.6719053,38.5391108 C41.7888493,38.89339 41.8666097,39.3659259 41.8666097,39.7794562 C41.8666097,39.9762235 41.8666097,40.1928638 41.8082591,40.3503757 C41.1462641,40.4487594 40.2310928,40.527638 39.471685,40.527638 C37.9139285,40.527638 37.1351109,39.7597059 37.1351109,38.1257032 L37.1351109,32.4751454 L35.6552362,32.4948957 C35.5773544,32.1798718 35.5579446,31.8845982 35.5579446,31.5498239 C35.5579446,31.2545503 35.5773544,30.959154 35.6552362,30.6441301 L37.1351109,30.6638804 L37.1351109,29.2463954 C37.1351109,28.1044336 37.4855788,27.6712757 38.5175728,27.6712757 L39.4910948,27.6712757 L39.6274485,27.7894097 L39.6274485,30.6836307 L41.9834324,30.6441301 C42.0614354,30.959154 42.100255,31.2545503 42.100255,31.5498239" id="Fill-5"></path>
                <path d="M48.6226703,37.8894353 L48.6226703,36.1765539 C48.13597,36.1371759 47.6103288,36.1174256 47.2207987,36.1174256 C46.2083358,36.1174256 45.7019831,36.6884678 45.7019831,37.594039 C45.7019831,38.2437145 46.0913919,38.7556284 46.792449,38.7556284 C47.3765622,38.7556284 48.0580882,38.4603548 48.6226703,37.8894353 L48.6226703,37.8894353 Z M50.8424218,40.5866437 C49.9272504,40.4881374 49.3431373,40.0549795 48.9926693,39.4644323 C48.3111433,40.1338581 47.3765622,40.7047777 46.110923,40.7047777 C44.1443479,40.7047777 43.1902357,39.169036 43.1902357,37.7515509 C43.1902357,35.4479997 44.9426966,34.4242946 46.9871534,34.4242946 C47.4349129,34.4242946 48.0385571,34.4242946 48.6226703,34.4833003 L48.6226703,33.9517587 C48.6226703,32.9279309 48.13597,32.4555177 47.1819791,32.4555177 C46.2862176,32.4555177 45.2348138,32.7901693 44.2222296,33.1445712 C43.8522306,32.731041 43.6185854,31.9632315 43.5602347,31.3135559 C44.767402,30.801642 46.5393939,30.4276124 47.8243216,30.4276124 C49.6158447,30.4276124 51.1540701,31.3923119 51.1540701,33.7548688 L51.1540701,37.7909289 C51.1540701,38.4406045 51.2903025,38.9328907 51.6992424,39.247792 C51.5824198,39.7204505 51.193011,40.3306254 50.8424218,40.5866437 L50.8424218,40.5866437 Z" id="Fill-6"></path>
                <path d="M53.1787532,37.9680686 C54.0160428,38.4209768 55.0480367,38.8147567 55.8853263,38.8147567 C56.8004976,38.8147567 57.3066077,38.4209768 57.3262602,37.8696849 C57.3262602,37.397149 56.9756709,37.0231194 56.2747351,36.7671011 L55.1842692,36.3536936 C53.8213384,35.8417797 52.7309938,35.0148418 52.7309938,33.4594725 C52.7309938,31.5695742 54.2107472,30.3882345 56.3526169,30.3882345 C57.4430828,30.3882345 58.9034264,30.7426364 59.7405947,31.156044 C59.7600045,31.7664642 59.4290676,32.6326573 59.0201277,32.9673089 C58.280251,32.6326573 57.3066077,32.2782554 56.3526169,32.2782554 C55.6710908,32.2782554 55.2621509,32.652285 55.2621509,33.1641989 C55.2621509,33.5973568 55.573678,33.8730027 56.2356729,34.1288984 L57.4234304,34.5621789 C58.883774,35.1133482 59.9548302,36.0386696 59.9548302,37.633417 C59.9548302,39.5234379 58.3970737,40.7047777 56.1188503,40.7047777 C54.6390969,40.7047777 53.2955759,40.2519921 52.4193454,39.7400782 C52.4388765,39.169036 52.7893444,38.3618485 53.1787532,37.9680686" id="Fill-7"></path>
                <path d="M69.0279337,38.1649585 C69.2614577,38.854012 69.4756932,39.4249316 69.9625149,39.7794562 C69.5731061,40.2322418 68.9111111,40.5668934 68.2489949,40.5668934 C67.4507675,40.5668934 67.1391191,40.1928638 66.8275921,39.3067976 L66.1655971,37.4956553 C65.8151292,36.5703339 65.4840711,36.3536936 64.7636042,36.3536936 C64.491018,36.3536936 64.2573727,36.3733212 64.0237275,36.3930716 L64.0237275,40.4291317 C63.6732596,40.4881374 63.2255001,40.527638 62.777498,40.527638 C62.3297386,40.527638 61.9012676,40.4881374 61.550921,40.4291317 L61.550921,26.0765283 L61.6677436,25.9387667 L62.6606754,25.9387667 C63.6732596,25.9387667 64.0237275,26.3915523 64.0237275,27.533514 L64.0237275,34.2470323 L64.5104278,34.2274047 C64.7441944,34.2274047 64.8804268,34.1486487 65.0167806,33.9123807 L66.3603015,31.5695742 C66.7107695,30.919776 67.1197093,30.5851244 67.8791172,30.5851244 C68.4047584,30.5851244 68.8136983,30.6047521 69.2809888,30.6245024 L69.3978114,30.7820144 L67.5869999,33.9321311 C67.3727644,34.3455386 67.1001783,34.6605626 66.7691201,34.8967079 C67.5479377,35.1527261 68.1127624,35.704018 68.463109,36.6293395 L69.0279337,38.1649585" id="Fill-8"></path>
                <path d="M31.7027855,8.87534156 L28.8777823,6.60896801 C26.4951112,4.88347312 24.833497,5.86199891 23.3738627,7.72153332 L21.8954739,9.59386297 L21.896461,9.59485678 C21.7654271,9.77249952 21.6979359,9.99834183 21.7249571,10.2356129 C21.7533354,10.4860519 21.8806679,10.7008381 22.0632764,10.8449399 L22.0632764,10.8450642 L23.7674581,12.1780058 L23.7683218,12.178627 L24.284561,12.5919259 C25.3509701,13.4452321 27.5258623,14.1062371 29.6095736,11.6420962 C29.6718826,11.5684304 29.7333279,11.4984913 29.794403,11.4309125 L31.7699064,8.92913129 L31.7027855,8.87534156" id="Fill-95"></path>
                <path d="M47.4388627,3.30968795 C47.4104844,3.06136079 47.2858664,2.84322047 47.1057256,2.69899444 L45.1254102,1.11387459 L45.119241,1.10816021 C42.77741,-0.765535927 40.8945681,-0.0176972518 39.5817609,1.53499969 L30.501182,13.0346964 C29.2380985,14.6357171 27.8724829,15.2574667 26.5310506,15.1927451 L29.9938264,17.9642203 L30.8332087,18.6364056 C31.8850584,19.4770408 34.1010375,20.5858794 36.1812941,17.9688167 C36.2466877,17.8863308 45.0711211,6.72328578 47.2994387,3.90249296 C47.4092505,3.73280066 47.4635396,3.52608911 47.4388627,3.30968795" id="Fill-98"></path>
            </g>
        </g>
    </g>
</svg>