<?xml version="1.0" encoding="UTF-8" standalone="no"?>
<svg width="60px" height="60px" viewBox="0 0 60 60" version="1.1" xmlns="http://www.w3.org/2000/svg" xmlns:xlink="http://www.w3.org/1999/xlink" xmlns:sketch="http://www.bohemiancoding.com/sketch/ns">
    <!-- Generator: Sketch 3.2.1 (9971) - http://www.bohemiancoding.com/sketch -->
    <title>step</title>
    <desc>Created with Sketch.</desc>
    <defs></defs>
    <g id="Page-1" stroke="none" stroke-width="1" fill="none" fill-rule="evenodd" sketch:type="MSPage">
        <g id="gradient-icons" sketch:type="MSLayerGroup" transform="translate(-564.000000, 0.000000)" fill="#4B81FF">
            <path d="M588.559908,3.49324192 L587.72459,2.66360656 C586.780328,1.72032787 585,0.982622951 583.672131,0.982622951 L582.688525,0.982622951 C581.065574,0.982622951 579.737705,2.29967213 579.737705,3.93344262 L579.737705,14.752623 L579.737705,14.752623 L577.790318,14.752623 C577.446055,14.752623 577.121465,14.9296721 576.944416,15.2336066 L564.239926,36.7335117 L564.239926,36.7335117 C564.090603,36.9058996 564,37.1303231 564,37.375082 L564,43.2767213 C564,43.8177049 564.442623,44.2613115 564.983607,44.2613115 L592.52459,44.2613115 L592.52459,58.0318033 L588.590164,58.0318033 C588.04918,58.0318033 587.606557,58.4744262 587.606557,59.0163934 C587.606557,59.5563934 588.04918,60 588.590164,60 L598.42623,60 C598.967213,60 599.409836,59.5563934 599.409836,59.0163934 C599.409836,58.4744262 598.967213,58.0318033 598.42623,58.0318033 L594.491803,58.0318033 L594.491803,44.2613115 L622.032787,44.2613115 C622.57377,44.2613115 623.016393,43.8177049 623.016393,43.2767213 L623.016393,37.6501207 C623.042094,37.562583 623.055891,37.4701043 623.055891,37.3745902 C623.055891,37.1395082 622.967367,36.9221311 622.829662,36.745082 L611.114908,15.2640984 C610.937859,14.9483607 610.613268,14.752623 610.249334,14.752623 L581.704918,14.752623 L581.704918,3.93344262 C581.704918,3.39147541 582.147541,2.94983607 582.688525,2.94983607 L583.672131,2.94983607 C584.488525,2.94983607 585.757377,3.47016393 586.337705,4.0504918 L587.166854,4.8858877 C586.821227,5.47139207 586.622951,6.15445496 586.622951,6.8842623 C586.622951,9.04721311 588.383607,10.8177049 590.557377,10.8177049 C592.731148,10.8177049 594.491803,9.04721311 594.491803,6.8842623 C594.491803,4.7095082 592.731148,2.94983607 590.557377,2.94983607 C589.828094,2.94983607 589.14531,3.14789583 588.559908,3.49324192 L588.559908,3.49324192 Z M581.704918,16.7193443 L609.649283,16.7193443 L620.370594,36.392459 L566.70502,36.392459 L578.33125,16.7193443 L579.737705,16.7193443 L579.737705,19.6701639 C579.737705,20.2111475 580.180328,20.6547541 580.721311,20.6547541 C581.262295,20.6547541 581.704918,20.2111475 581.704918,19.6701639 L581.704918,16.7193443 L581.704918,16.7193443 Z M565.967213,42.2940984 L621.04918,42.2940984 L621.04918,38.3596721 L565.967213,38.3596721 L565.967213,42.2940984 Z M612.218944,32.4580328 L584.658288,32.4580328 C584.35337,32.4580328 584.068124,32.3193443 583.881239,32.0734426 C583.694354,31.837377 583.625501,31.522623 583.70419,31.2383607 L586.655009,19.435082 C586.763206,18.9914754 587.156649,18.687541 587.609108,18.687541 L607.281239,18.687541 C607.674682,18.687541 608.038616,18.922623 608.186157,19.2865574 L613.035337,30.922623 C613.143534,31.0809836 613.20255,31.2668852 613.20255,31.4734426 C613.20255,32.0144262 612.759927,32.4580328 612.218944,32.4580328 Z M585.917305,30.4908197 L610.723862,30.4908197 L606.622223,20.6547541 L588.376321,20.6547541 L585.917305,30.4908197 Z M592.52459,6.8842623 C592.52459,7.96622951 591.639344,8.85147541 590.557377,8.85147541 C589.47541,8.85147541 588.590164,7.96622951 588.590164,6.8842623 C588.590164,5.80032787 589.47541,4.91606557 590.557377,4.91606557 C591.639344,4.91606557 592.52459,5.80032787 592.52459,6.8842623 Z" id="step" sketch:type="MSShapeGroup"></path>
        </g>
    </g>
</svg>