<?xml version="1.0" encoding="UTF-8" standalone="no"?>
<svg width="60px" height="52px" viewBox="0 0 60 52" version="1.1" xmlns="http://www.w3.org/2000/svg" xmlns:xlink="http://www.w3.org/1999/xlink" xmlns:sketch="http://www.bohemiancoding.com/sketch/ns">
    <!-- Generator: Sketch 3.2.1 (9971) - http://www.bohemiancoding.com/sketch -->
    <title>store</title>
    <desc>Created with Sketch.</desc>
    <defs></defs>
    <g id="Page-1" stroke="none" stroke-width="1" fill="none" fill-rule="evenodd" sketch:type="MSPage">
        <g id="gradient-icons" sketch:type="MSLayerGroup" transform="translate(-2.000000, -10.000000)" fill="#4CAF50">
            <path d="M45.4401374,20.0010584 L32.0082991,20.0010584 L32.0082991,20.0010584 L32.0082991,12.0000584 L43.0778299,12.0000584 L45.4401374,20.0010584 L45.4401374,20.0010584 Z M47.4962874,20.0010584 L58.7919057,20.0010584 L54.0705942,12.0000584 L45.1355726,12.0000584 L47.4962874,20.0010584 L47.4962874,20.0010584 Z M45.7787909,22.0000584 L32.0082991,22.0000584 L32.0082991,22.0000584 L32.0082991,29.6053269 C33.5083465,31.1315878 35.9895636,32.0010584 38.893545,32.0010584 C42.1402314,32.0010584 44.2717611,30.9788161 45.7787909,28.698519 L45.7787909,22.0000584 L45.7787909,22.0000584 Z M47.746004,22.0000584 L59.5492827,22.0000584 L59.5492827,23.0010584 C59.5492827,26.5990584 56.2050204,30.0000584 52.6640368,30.0000584 C51.0504407,30.0000584 48.9773387,29.5515807 47.746004,28.5567733 L47.746004,22.0000584 L47.746004,22.0000584 Z M43.7981397,10.0000584 L20.2149612,10.0000584 L20.2149594,10.0000584 C20.2078203,9.99998045 20.200692,9.99998064 20.193574,10.0000584 L9.38534831,10.0000584 C9.04108601,10.0000584 8.71649585,10.1850584 8.53944667,10.4860584 L2.63780732,20.4850584 C2.57521495,20.5950065 2.53352156,20.7139535 2.5135964,20.8356692 C2.50693254,20.8748951 2.50265052,20.9163246 2.50094435,20.9584287 C2.50010833,20.9779046 2.49982653,20.9973977 2.50010241,21.0168832 L2.50010241,23.0010584 C2.50010241,27.2689515 4.96891997,30.7545366 8.40174175,31.7289735 L8.40174175,31.7289735 L8.40174175,61.0000584 C8.40174175,61.5520584 8.8443647,62.0010584 9.38534831,62.0010584 L54.6312499,62.0010584 C55.1722336,62.0010584 55.6148565,61.5520584 55.6148565,61.0000584 L55.6148565,31.4217542 C58.9460053,30.097103 61.5164958,26.6763968 61.5164958,23.0010584 L61.5164958,21.0168832 C61.5167717,20.9973977 61.5164899,20.9779046 61.5156539,20.9584287 C61.5139477,20.9163246 61.5096657,20.8748951 61.5029653,20.8342966 C61.4830767,20.7139535 61.4413833,20.5950065 61.3787909,20.4850584 L55.4771516,10.4860584 C55.3001024,10.1850584 54.9755122,10.0000584 54.6312499,10.0000584 L43.8193753,10.0000584 C43.8123052,9.99998064 43.8052274,9.99998045 43.7981415,10.0000584 L43.7981397,10.0000584 Z M30.041086,20.0010584 L18.5764608,20.0010584 L20.9387684,12.0000584 L30.041086,12.0000584 L30.041086,20.0010584 L30.041086,20.0010584 Z M30.041086,22.0000584 L18.2378073,22.0000584 L18.2378073,22.0000584 L18.2378073,28.7033588 C19.8628223,31.2537379 21.2271334,32.0010584 24.1394467,32.0010584 C26.69859,32.0010584 28.4861445,31.2842346 30.041086,29.615136 L30.041086,22.0000584 L30.041086,22.0000584 Z M16.5203109,20.0010584 L5.22469257,20.0010584 L9.94600405,12.0000584 L18.8810256,12.0000584 L16.5203109,20.0010584 L16.5203109,20.0010584 Z M16.2705942,22.0000584 L4.46731552,22.0000584 L4.46731552,23.0010584 C4.46731552,26.4410584 6.67059421,30.0000584 10.3689549,30.0000584 C12.3279023,30.0000584 15.0656615,29.4087414 16.2705942,28.5337935 L16.2705942,22.0000584 Z M10.3689549,32.0010584 L10.3689549,60.0000584 L37.9099385,60.0000584 L37.9099385,60.0000584 L37.9099385,39.0000584 C37.9099385,38.4480584 38.3525614,38.0010584 38.893545,38.0010584 L50.6968237,38.0010584 C51.2378073,38.0010584 51.6804303,38.4480584 51.6804303,39.0000584 L51.6804303,60.0000584 L53.6476434,60.0000584 L53.6476434,31.9369765 C53.3227969,31.9792293 52.9944677,32.0010584 52.6640368,32.0010584 C50.9919057,32.0010584 48.6607581,31.5790584 46.9591188,30.4430584 C45.1099385,32.8350584 42.4640368,34.0000584 38.893545,34.0000584 C35.7164958,34.0000584 32.9230532,33.0710584 31.0443647,31.4230584 C29.2050204,33.1980584 27.0312499,34.0000584 24.1394467,34.0000584 C20.4509221,34.0000584 18.6017418,32.7040584 17.0082991,30.4290584 C15.1099385,31.5600584 12.1001024,32.0010584 10.3689549,32.0010584 L10.3689549,32.0010584 Z M32.9919057,54.0000584 L13.3197745,54.0000584 C12.7787909,54.0000584 12.336168,53.5520584 12.336168,53.0010584 L12.336168,39.0000584 C12.336168,38.4480584 12.7787909,38.0010584 13.3197745,38.0010584 L32.9919057,38.0010584 C33.5328893,38.0010584 33.9755122,38.4480584 33.9755122,39.0000584 L33.9755122,53.0010584 C33.9755122,53.5520584 33.5328893,54.0000584 32.9919057,54.0000584 Z M14.3033811,52.0000584 L32.0082991,52.0000584 L32.0082991,40.0000584 L14.3033811,40.0000584 L14.3033811,52.0000584 Z M39.8771516,60.0000584 L49.7132172,60.0000584 L49.7132172,40.0000584 L39.8771516,40.0000584 L39.8771516,60.0000584 Z M46.7623975,50.0010584 C46.2214139,50.0010584 45.7787909,50.4480584 45.7787909,51.0000584 C45.7787909,51.5520584 46.2214139,52.0000584 46.7623975,52.0000584 C47.3033811,52.0000584 47.746004,51.5520584 47.746004,51.0000584 C47.746004,50.4480584 47.3033811,50.0010584 46.7623975,50.0010584 Z" id="store" sketch:type="MSShapeGroup"></path>
        </g>
    </g>
</svg>