<?xml version="1.0" encoding="UTF-8" standalone="no"?>
<svg width="60px" height="60px" viewBox="0 0 60 60" version="1.1" xmlns="http://www.w3.org/2000/svg" xmlns:xlink="http://www.w3.org/1999/xlink" xmlns:sketch="http://www.bohemiancoding.com/sketch/ns">
    <!-- Generator: Sketch 3.2.1 (9971) - http://www.bohemiancoding.com/sketch -->
    <title>success</title>
    <desc>Created with Sketch.</desc>
    <defs></defs>
    <g id="Page-1" stroke="none" stroke-width="1" fill="none" fill-rule="evenodd" sketch:type="MSPage">
        <g id="gradient-icons" sketch:type="MSLayerGroup" transform="translate(-697.000000, -86.000000)" fill="#4CAF50">
            <path d="M727,146 C724.721,146 722.694,144.8 721.668,142.8 C720.01,144.201 717.583,144.6 715.516,143.8 C713.412,142.901 712.028,140.9 711.818,138.8 C711.248,138.901 710.653,139 710.046,139 C708.436,139 706.921,138.401 705.782,137.3 C704.172,135.6 703.642,133.3 704.282,131.2 C702.071,131 700.147,129.6 699.283,127.5 C698.412,125.401 698.814,123.1 700.202,121.4 C698.275,120.3 697,118.3 697,116 C697,113.8 698.275,111.7 700.201,110.701 C698.814,109 698.412,106.701 699.284,104.6 C700.149,102.5 702.072,101.1 704.281,100.901 C703.639,98.8 704.17,96.401 705.783,94.8 C706.921,93.7 708.435,93.1 710.046,93.1 C710.653,93.1 711.248,93.1 711.817,93.3 C712.026,91.1 713.41,89.2 715.514,88.3 C717.584,87.5 720.009,87.901 721.667,89.2 C722.694,87.3 724.721,86 727,86 C729.276,86 731.301,87.3 732.325,89.2 C733.983,87.901 736.409,87.5 738.475,88.3 C740.581,89.2 741.966,91.201 742.175,93.3 C742.744,93.1 743.34,93.1 743.948,93.1 C745.558,93.1 747.072,93.7 748.21,94.8 C749.822,96.401 750.352,98.8 749.712,100.901 C751.928,101.1 753.854,102.5 754.718,104.6 C755.584,106.701 755.179,109 753.791,110.701 C755.723,111.7 757,113.8 757,116 C757,118.3 755.723,120.3 753.792,121.4 C755.185,123.1 755.59,125.401 754.718,127.5 C753.853,129.6 751.927,131 749.712,131.2 C750.351,133.3 749.821,135.6 748.209,137.3 C747.071,138.401 745.556,139 743.946,139 C743.339,139 742.743,138.901 742.174,138.8 C741.964,140.9 740.581,142.901 738.477,143.8 C736.404,144.6 733.982,144.201 732.325,142.8 C731.3,144.8 729.276,146 727,146 Z M722.046,139.901 L722.241,139.901 C722.642,140 722.954,140.3 723.029,140.701 C723.386,142.701 725.055,144 727,144 C728.941,144 730.607,142.701 730.963,140.701 C731.037,140.3 731.349,140 731.751,139.901 C732.155,139.901 732.561,140 732.784,140.401 C733.818,142 735.932,142.6 737.713,141.901 C739.505,141.201 740.515,139.201 740.114,137.3 C740.029,136.901 740.197,136.5 740.537,136.3 C740.878,136.1 741.322,136.1 741.659,136.3 C743.216,137.401 745.452,137.2 746.795,135.8 C748.169,134.5 748.367,132.3 747.267,130.701 C747.035,130.4 747.033,129.901 747.26,129.6 C747.487,129.201 747.896,129.1 748.3,129.201 L749.136,129.201 C750.777,129.201 752.242,128.3 752.87,126.8 C753.613,125 752.968,122.9 751.334,121.8 C750.992,121.6 750.82,121.201 750.9,120.8 C750.98,120.401 751.296,120.1 751.699,120 C753.612,119.701 755,118 755,116 C755,114.1 753.612,112.4 751.698,112.1 C751.296,112 750.98,111.7 750.9,111.3 C750.82,110.9 750.992,110.5 751.334,110.3 C752.963,109.201 753.608,107.1 752.869,105.3 C752.243,103.8 750.778,102.8 749.136,102.8 C748.855,102.8 748.574,102.901 748.299,102.901 C747.896,103 747.487,102.8 747.26,102.5 C747.033,102.201 747.035,101.701 747.267,101.401 C748.368,99.8 748.17,97.6 746.795,96.201 C745.453,94.901 743.216,94.701 741.658,95.8 C741.32,96 740.876,96 740.536,95.8 C740.197,95.5 740.029,95.1 740.114,94.701 C740.517,92.8 739.506,90.901 737.71,90.201 C735.933,89.401 733.82,90.1 732.784,91.701 C732.562,92 732.153,92.2 731.751,92.1 C731.349,92.1 731.037,91.701 730.963,91.3 C730.607,89.401 728.941,88 727,88 C725.056,88 723.386,89.401 723.029,91.3 C722.954,91.701 722.642,92.1 722.241,92.1 C721.84,92.2 721.43,92 721.208,91.701 C720.171,90.1 718.058,89.401 716.279,90.201 C714.486,90.901 713.476,92.8 713.877,94.701 C713.962,95.1 713.794,95.5 713.454,95.8 C713.114,96 712.67,96 712.333,95.8 C710.776,94.701 708.539,94.901 707.196,96.201 C705.822,97.6 705.624,99.8 706.725,101.401 C706.957,101.701 706.959,102.201 706.732,102.5 C706.505,102.8 706.093,103 705.693,102.901 C703.814,102.5 701.867,103.6 701.132,105.3 C700.388,107.1 701.029,109.201 702.657,110.3 C702.999,110.5 703.172,110.9 703.092,111.3 C703.012,111.7 702.696,112 702.294,112.1 C700.386,112.4 699,114.1 699,116 C699,118 700.386,119.6 702.294,120 C702.696,120.1 703.012,120.401 703.092,120.8 C703.172,121.201 703,121.6 702.658,121.8 C701.03,122.9 700.388,125 701.131,126.8 C701.758,128.3 703.221,129.201 704.86,129.201 L705.694,129.201 C706.096,129.1 706.505,129.201 706.732,129.6 C706.959,129.901 706.957,130.4 706.725,130.701 C705.626,132.3 705.825,134.5 707.197,135.8 C708.538,137.2 710.774,137.401 712.333,136.3 C712.67,136.1 713.114,136.1 713.454,136.3 C713.794,136.5 713.962,136.901 713.877,137.3 C713.476,139.201 714.488,141.201 716.283,141.901 C718.06,142.6 720.172,142 721.208,140.401 C721.394,140.1 721.712,139.901 722.046,139.901 Z M720.3045,125.7 C720.0475,125.7 719.7915,125.6 719.5975,125.4 L713.2925,119.1 C712.9025,118.701 712.9025,118.001 713.2925,117.701 C713.6835,117.3 714.3165,117.3 714.7065,117.701 L720.3285,123.3 L738.5355,106.3 C738.9375,105.9 739.5715,105.9 739.9485,106.3 C740.3255,106.701 740.3035,107.4 739.8995,107.7 L720.9865,125.4 C720.7935,125.6 720.5485,125.7 720.3045,125.7" id="success" sketch:type="MSShapeGroup"></path>
        </g>
    </g>
</svg>