<?xml version="1.0" encoding="UTF-8" standalone="no"?>
<svg width="60px" height="50px" viewBox="0 0 60 50" version="1.1" xmlns="http://www.w3.org/2000/svg" xmlns:xlink="http://www.w3.org/1999/xlink" xmlns:sketch="http://www.bohemiancoding.com/sketch/ns">
    <!-- Generator: Sketch 3.2.1 (9971) - http://www.bohemiancoding.com/sketch -->
    <title>target</title>
    <desc>Created with Sketch.</desc>
    <defs></defs>
    <g id="Page-1" stroke="none" stroke-width="1" fill="none" fill-rule="evenodd" sketch:type="MSPage">
        <g id="icons-1" sketch:type="MSLayerGroup" transform="translate(-446.000000, -6.000000)" fill="#FFFFFF">
            <path d="M448,54 L504,54 L504,8 L448,8 L448,54 Z M446,6 L506,6 L506,56 L446,56 L446,6 Z M476,21 C470.486,21 466,25.481 466,31 C466,36.51 470.486,41.001 476,41.001 C481.514,41.001 486,36.51 486,31 C486,25.481 481.514,21 476,21 Z M487.958694,32.001 C487.47606,37.8248027 482.820974,42.476679 477,42.9587606 L477,42.9587606 L477,47.349 C477,47.899 476.553,48.35 476,48.35 C475.448,48.35 475,47.899 475,47.349 L475,42.9587493 C469.179813,42.4766058 464.524028,37.8247569 464.041314,32.001 L460,32.001 C459.447,32.001 459,31.551 459,31 C459,30.451 459.447,30 460,30 L464.041242,30 L464.041242,30 C464.523569,24.1765624 469.179526,19.5235099 475,19.0412581 L475,19.0412581 L475,15 C475,14.45 475.448,14 476,14 C476.553,14 477,14.45 477,15 L477,19.0412467 C482.821261,19.5234366 487.476519,24.1765165 487.958765,30 L492.391,30 C492.944,30 493.391,30.451 493.391,31 C493.391,31.551 492.944,32.001 492.391,32.001 L487.958694,32.001 Z M502,21 L500,21 L500,12 L490,12 L490,10 L502,10 L502,21 Z M452,21 L450,21 L450,10 L462,10 L462,12 L452,12 L452,21 Z M502,51.999 L490,51.999 L490,50 L500,50 L500,41 L502,41 L502,51.999 Z M462,51.999 L450,51.999 L450,41 L452,41 L452,50 L462,50 L462,51.999 Z" id="target" sketch:type="MSShapeGroup"></path>
        </g>
    </g>
</svg>