<?xml version="1.0" encoding="UTF-8" standalone="no"?>
<svg width="60px" height="50px" viewBox="0 0 60 50" version="1.1" xmlns="http://www.w3.org/2000/svg" xmlns:xlink="http://www.w3.org/1999/xlink" xmlns:sketch="http://www.bohemiancoding.com/sketch/ns">
    <!-- Generator: Sketch 3.2.1 (9971) - http://www.bohemiancoding.com/sketch -->
    <title>target</title>
    <desc>Created with Sketch.</desc>
    <defs></defs>
    <g id="Page-1" stroke="none" stroke-width="1" fill="none" fill-rule="evenodd" sketch:type="MSPage">
        <g id="icons-1" sketch:type="MSLayerGroup" transform="translate(-446.000000, -6.000000)" fill="#FFFFFF">
            <g id="target" transform="translate(446.000000, 6.000000)" sketch:type="MSShapeGroup">
                <path d="M2,48 L58,48 L58,2 L2,2 L2,48 Z M0,0 L60,0 L60,50 L0,50 L0,0 Z" id="Fill-2971"></path>
                <path d="M56,15 L54,15 L54,6 L44,6 L44,4 L56,4 L56,15" id="Fill-2972"></path>
                <path d="M6,15 L4,15 L4,4 L16,4 L16,6 L6,6 L6,15" id="Fill-2973"></path>
                <path d="M56,45.999 L44,45.999 L44,44 L54,44 L54,35 L56,35 L56,45.999" id="Fill-2974"></path>
                <path d="M16,45.999 L4,45.999 L4,35 L6,35 L6,44 L16,44 L16,45.999" id="Fill-2975"></path>
                <path d="M30.26,25 C30.117,25 30,25.12 30,25.261 C30,25.55 30.521,25.55 30.521,25.261 C30.521,25.12 30.404,25 30.26,25 L30.26,25 Z M30.26,27.53 C29.014,27.53 28,26.51 28,25.261 C28,24.02 29.014,23 30.26,23 C31.507,23 32.521,24.02 32.521,25.261 C32.521,26.51 31.507,27.53 30.26,27.53 L30.26,27.53 Z" id="Fill-2976"></path>
                <path d="M30,15 C24.486,15 20,19.481 20,25 C20,30.51 24.486,35.001 30,35.001 C35.514,35.001 40,30.51 40,25 C40,19.481 35.514,15 30,15 L30,15 Z M30,37 C23.384,37 18,31.621 18,25 C18,18.38 23.384,13 30,13 C36.617,13 42,18.38 42,25 C42,31.621 36.617,37 30,37 L30,37 Z" id="Fill-2977"></path>
                <path d="M30,15.44 C29.448,15.44 29,14.99 29,14.441 L29,9 C29,8.45 29.448,8 30,8 C30.553,8 31,8.45 31,9 L31,14.441 C31,14.99 30.553,15.44 30,15.44" id="Fill-2978"></path>
                <path d="M19.391,26.001 L14,26.001 C13.447,26.001 13,25.551 13,25 C13,24.451 13.447,24 14,24 L19.391,24 C19.944,24 20.391,24.451 20.391,25 C20.391,25.551 19.944,26.001 19.391,26.001" id="Fill-2979"></path>
                <path d="M30,42.35 C29.448,42.35 29,41.899 29,41.349 L29,35.999 C29,35.45 29.448,35 30,35 C30.553,35 31,35.45 31,35.999 L31,41.349 C31,41.899 30.553,42.35 30,42.35" id="Fill-2980"></path>
                <path d="M46.391,26.001 L41,26.001 C40.448,26.001 40,25.551 40,25 C40,24.451 40.448,24 41,24 L46.391,24 C46.944,24 47.391,24.451 47.391,25 C47.391,25.551 46.944,26.001 46.391,26.001" id="Fill-2981"></path>
            </g>
        </g>
    </g>
</svg>