<?xml version="1.0" encoding="UTF-8" standalone="no"?>
<svg width="60px" height="60px" viewBox="0 0 60 60" version="1.1" xmlns="http://www.w3.org/2000/svg" xmlns:xlink="http://www.w3.org/1999/xlink" xmlns:sketch="http://www.bohemiancoding.com/sketch/ns">
    <!-- Generator: Sketch 3.2.1 (9971) - http://www.bohemiancoding.com/sketch -->
    <title>tree</title>
    <desc>Created with Sketch.</desc>
    <defs></defs>
    <g id="Page-1" stroke="none" stroke-width="1" fill="none" fill-rule="evenodd" sketch:type="MSPage">
        <g id="icons-1" sketch:type="MSLayerGroup" transform="translate(-302.000000, -3.000000)" fill="#FFFFFF">
            <g id="tree" transform="translate(302.000000, 3.000000)" sketch:type="MSShapeGroup">
                <path d="M2,7.86786885 L34,7.86786885 L34,1.96622951 L2,1.96622951 L2,7.86786885 Z M35,9.83606557 L1,9.83606557 C0.45,9.83606557 0,9.39245902 0,8.85245902 L0,0.983606557 C0,0.442622951 0.45,0 1,0 L35,0 C35.55,0 36,0.442622951 36,0.983606557 L36,8.85245902 C36,9.39245902 35.55,9.83606557 35,9.83606557 L35,9.83606557 Z" id="Fill-7032"></path>
                <path d="M26,37.3760656 L58,37.3760656 L58,31.4744262 L26,31.4744262 L26,37.3760656 Z M59,39.3442623 L25,39.3442623 C24.45,39.3442623 24,38.9006557 24,38.3606557 L24,30.4918033 C24,29.9508197 24.45,29.5081967 25,29.5081967 L59,29.5081967 C59.55,29.5081967 60,29.9508197 60,30.4918033 L60,38.3606557 C60,38.9006557 59.55,39.3442623 59,39.3442623 L59,39.3442623 Z" id="Fill-7033"></path>
                <path d="M26,57.0501639 L58,57.0501639 L58,51.1485246 L26,51.1485246 L26,57.0501639 Z M59,59.017377 L25,59.017377 C24.45,59.017377 24,58.5737705 24,58.0327869 L24,50.164918 C24,49.6239344 24.45,49.1803279 25,49.1803279 L59,49.1803279 C59.55,49.1803279 60,49.6239344 60,50.164918 L60,58.0327869 C60,58.5737705 59.55,59.017377 59,59.017377 L59,59.017377 Z" id="Fill-7034"></path>
                <path d="M43,51.1485246 C42.45,51.1485246 42,50.704918 42,50.164918 L42,38.3616393 C42,37.8206557 42.45,37.3770492 43,37.3770492 C43.55,37.3770492 44,37.8206557 44,38.3616393 L44,50.164918 C44,50.704918 43.55,51.1485246 43,51.1485246" id="Fill-7035"></path>
                <path d="M43,31.4754098 C42.45,31.4754098 42,31.0327869 42,30.4927869 L42,24.5911475 C42,23.1540984 40.46,21.6403279 39,21.6403279 L21,21.6403279 C18.43,21.6403279 16,19.2491803 16,16.7213115 L16,8.85344262 C16,8.31245902 16.45,7.86885246 17,7.86885246 C17.55,7.86885246 18,8.31245902 18,8.85344262 L18,16.7213115 C18,18.157377 19.54,19.6721311 21,19.6721311 L39,19.6721311 C41.57,19.6721311 44,22.0632787 44,24.5911475 L44,30.4927869 C44,31.0327869 43.55,31.4754098 43,31.4754098" id="Fill-7036"></path>
            </g>
        </g>
    </g>
</svg>