<?xml version="1.0" encoding="UTF-8" standalone="no"?>
<svg width="60px" height="60px" viewBox="0 0 60 60" version="1.1" xmlns="http://www.w3.org/2000/svg" xmlns:xlink="http://www.w3.org/1999/xlink" xmlns:sketch="http://www.bohemiancoding.com/sketch/ns">
    <!-- Generator: Sketch 3.2.1 (9971) - http://www.bohemiancoding.com/sketch -->
    <title>tree</title>
    <desc>Created with Sketch.</desc>
    <defs></defs>
    <g id="Page-1" stroke="none" stroke-width="1" fill="none" fill-rule="evenodd" sketch:type="MSPage">
        <g id="icons-1" sketch:type="MSLayerGroup" transform="translate(-302.000000, -3.000000)" fill="#FFFFFF">
            <path d="M344,32.5103129 L344,27.5911475 C344,26.1540984 342.46,24.6403279 341,24.6403279 L323,24.6403279 C320.43,24.6403279 318,22.2491803 318,19.7213115 L318,12.8380737 L320,12.8380737 L320,19.7213115 C320,21.157377 321.54,22.6721311 323,22.6721311 L341,22.6721311 C343.57,22.6721311 346,25.0632787 346,27.5911475 L346,32.5103129 L344,32.5103129 Z M328,40.3760656 L360,40.3760656 L360,34.4744262 L328,34.4744262 L328,40.3760656 Z M361,42.3442623 L327,42.3442623 C326.45,42.3442623 326,41.9006557 326,41.3606557 L326,33.4918033 C326,32.9508197 326.45,32.5081967 327,32.5081967 L361,32.5081967 C361.55,32.5081967 362,32.9508197 362,33.4918033 L362,41.3606557 C362,41.9006557 361.55,42.3442623 361,42.3442623 Z M344,52.2048955 L344,42.3447766 L346,42.3447766 L346,52.2048955 L344,52.2048955 Z M304,10.8678689 L336,10.8678689 L336,4.96622951 L304,4.96622951 L304,10.8678689 Z M337,12.8360656 L303,12.8360656 C302.45,12.8360656 302,12.392459 302,11.852459 L302,3.98360656 C302,3.44262295 302.45,3 303,3 L337,3 C337.55,3 338,3.44262295 338,3.98360656 L338,11.852459 C338,12.392459 337.55,12.8360656 337,12.8360656 Z M328,60.0501639 L360,60.0501639 L360,54.1485246 L328,54.1485246 L328,60.0501639 Z M361,62.017377 L327,62.017377 C326.45,62.017377 326,61.5737705 326,61.0327869 L326,53.164918 C326,52.6239344 326.45,52.1803279 327,52.1803279 L361,52.1803279 C361.55,52.1803279 362,52.6239344 362,53.164918 L362,61.0327869 C362,61.5737705 361.55,62.017377 361,62.017377 L361,62.017377 Z" id="tree" sketch:type="MSShapeGroup"></path>
        </g>
    </g>
</svg>