<?xml version="1.0" encoding="UTF-8" standalone="no"?>
<svg width="46px" height="50px" viewBox="0 0 46 50" version="1.1" xmlns="http://www.w3.org/2000/svg" xmlns:xlink="http://www.w3.org/1999/xlink" xmlns:sketch="http://www.bohemiancoding.com/sketch/ns">
    <!-- Generator: Sketch 3.2.1 (9971) - http://www.bohemiancoding.com/sketch -->
    <title>ux-fox</title>
    <desc>Created with Sketch.</desc>
    <defs></defs>
    <g id="Page-1" stroke="none" stroke-width="1" fill="none" fill-rule="evenodd" sketch:type="MSPage">
        <g id="logotypes" sketch:type="MSLayerGroup" transform="translate(-850.000000, 0.000000)" fill="#9CA5BF">
            <g id="ux-fox" transform="translate(850.000000, 0.000000)" sketch:type="MSShapeGroup">
                <path d="M31.6982113,14.3595541 C31.6982113,14.3595541 28.7619859,16.6493631 27.9109859,19.7592357 C27.9109859,19.7592357 26.2656761,14.9754777 30.0156479,9.49299363 C33.4607887,4.4566879 38.9147042,3.16624204 38.9147042,3.16624204 C38.9147042,3.16624204 36.8916761,10.1143312 39.2302254,16.5340764 C40.692507,20.5490446 41.7317183,21.0576433 42.5321831,23.5904459 C42.5321831,23.5904459 34.8430563,22.4579618 31.6982113,14.3595541 L31.6982113,14.3595541 Z M44.102338,20.2977707 C41.4524789,15.7621019 40.5046197,11.8980892 40.9655915,7.0611465 C41.2655634,3.91305732 42.2587746,1.46210191 42.8810704,0.0213375796 C35.6934085,0.156369427 25.8724085,5.93057325 24.926493,15.8592357 C24.322662,22.2015924 27.6012958,26.4866242 31.3813944,29.1159236 C34.4646901,31.2605096 34.9463944,33.7910828 34.7455493,35.8980892 C34.5272113,38.1910828 34.4371549,38.4312102 34.3432113,39.4178344 C34.2492676,40.4047771 34.9162676,41.3977707 36.3101972,41.3977707 C37.7038028,41.3977707 41.0673099,38.906051 43.6663099,34.7076433 C46.2649859,30.5089172 46.6109577,24.5923567 44.102338,20.2977707 L44.102338,20.2977707 Z" id="Fill-7"></path>
                <path d="M13.9992254,18.0780255 C13.4125634,17.7101911 12.6937324,17.4958599 11.8990986,17.4958599 C11.1047887,17.4958599 10.3451408,17.7101911 9.6881831,18.0780255 C9.68850704,18.0745223 9.68883099,18.0713376 9.68883099,18.0681529 C9.79314085,16.9745223 10.8427183,16.0882166 12.0332113,16.0882166 C13.2237042,16.0882166 14.104831,16.9745223 14.0005211,18.0681529 C14.0001972,18.0713376 13.9995493,18.0745223 13.9992254,18.0780255 L13.9992254,18.0780255 Z M10.7248028,4.68566879 C-1.42178873,13.9805732 -2.1263662,26.4929936 3.20866197,34.9449045 C4.92070423,37.6573248 6.69656338,39.4601911 9.36002817,41.6194268 C10.1880282,40.0742038 11.2350141,38.3143312 11.2350141,38.3143312 C5.59483099,33.4426752 5.44905634,29.3257962 5.61459155,27.1324841 C5.75907042,25.2127389 6.37715493,23.3923567 7.29067606,21.9487261 C13.9872394,24.8563694 21.211831,20.9066879 23.2066761,15.5703822 C14.8920141,17.3219745 9.30333803,11.1028662 10.7248028,4.68566879 L10.7248028,4.68566879 Z" id="Fill-10"></path>
                <path d="M32.476,40.1859873 C32.5705915,39.194586 32.8355775,36.411465 32.8851408,35.8968153 C32.9337324,35.3824841 32.9272535,34.7805732 32.6577324,33.8697452 C31.2706056,29.1726115 25.0968873,28.8130573 20.884,26.5805732 C19.0465915,25.6070064 18.2156761,24.0910828 17.9017746,23.3464968 C17.3909155,23.6452229 16.8794085,23.8461783 16.5382958,23.9630573 C16.8052254,25.9003185 16.8434507,28.6328025 16.1550704,31.4754777 C14.2036338,39.5324841 9.08921127,42.4366242 8.74485915,49.7576433 L10.6188732,49.7576433 C16.1647887,38.8242038 26.904169,36.1273885 26.904169,36.1273885 C26.904169,36.1273885 24.7803944,37.4996815 24.5043944,40.3968153 C24.2283944,43.293949 26.7713521,44.1541401 28.1309437,44.1541401 C29.4908592,44.1541401 30.4665775,43.5006369 30.4665775,43.5006369 C28.9352958,46.7085987 28.9939296,49.7576433 28.9939296,49.7576433 L30.8899718,49.7576433 C31.7066338,45.2503185 35.3208732,42.9050955 35.3208732,42.9050955 C32.936,42.8006369 32.3817324,41.1773885 32.476,40.1859873" id="Fill-11"></path>
            </g>
        </g>
    </g>
</svg>