<?xml version="1.0" encoding="UTF-8" standalone="no"?>
<svg width="60px" height="60px" viewBox="0 0 60 60" version="1.1" xmlns="http://www.w3.org/2000/svg" xmlns:xlink="http://www.w3.org/1999/xlink" xmlns:sketch="http://www.bohemiancoding.com/sketch/ns">
    <!-- Generator: Sketch 3.2.1 (9971) - http://www.bohemiancoding.com/sketch -->
    <title>video</title>
    <desc>Created with Sketch.</desc>
    <defs></defs>
    <g id="Page-1" stroke="none" stroke-width="1" fill="none" fill-rule="evenodd" sketch:type="MSPage">
        <g id="icons-1" sketch:type="MSLayerGroup" transform="translate(-665.000000, -1.000000)" fill="#FFFFFF">
            <g id="video" transform="translate(665.000000, 1.000000)" sketch:type="MSShapeGroup">
                <path d="M2,49.1803279 L58,49.1803279 L58,9.83606557 L2,9.83606557 L2,49.1803279 Z M59,51.147541 L1,51.147541 C0.45,51.147541 0,50.704918 0,50.164918 L0,8.85344262 C0,8.31147541 0.45,7.86885246 1,7.86885246 L59,7.86885246 C59.55,7.86885246 60,8.31147541 60,8.85344262 L60,50.164918 C60,50.704918 59.55,51.147541 59,51.147541 L59,51.147541 Z" id="Fill-545"></path>
                <path d="M2,7.86786885 L58,7.86786885 L58,1.96622951 L2,1.96622951 L2,7.86786885 Z M59,9.83508197 L1,9.83508197 C0.45,9.83508197 0,9.39245902 0,8.85245902 L0,0.982622951 C0,0.442622951 0.45,0 1,0 L59,0 C59.55,0 60,0.442622951 60,0.982622951 L60,8.85245902 C60,9.39245902 59.55,9.83508197 59,9.83508197 L59,9.83508197 Z" id="Fill-546"></path>
                <path d="M41,9.83508197 C40.45,9.83508197 40,9.39245902 40,8.85245902 L40,0.982622951 C40,0.442622951 40.45,0 41,0 C41.55,0 42,0.442622951 42,0.982622951 L42,8.85245902 C42,9.39245902 41.55,9.83508197 41,9.83508197" id="Fill-547"></path>
                <path d="M19,9.83508197 C18.45,9.83508197 18,9.39245902 18,8.85245902 L18,0.982622951 C18,0.442622951 18.45,0 19,0 C19.55,0 20,0.442622951 20,0.982622951 L20,8.85245902 C20,9.39245902 19.55,9.83508197 19,9.83508197" id="Fill-548"></path>
                <path d="M2,57.0491803 L58,57.0491803 L58,51.147541 L2,51.147541 L2,57.0491803 Z M59,59.017377 L1,59.017377 C0.45,59.017377 0,58.5737705 0,58.0327869 L0,50.164918 C0,49.6229508 0.45,49.1803279 1,49.1803279 L59,49.1803279 C59.55,49.1803279 60,49.6229508 60,50.164918 L60,58.0327869 C60,58.5737705 59.55,59.017377 59,59.017377 L59,59.017377 Z" id="Fill-549"></path>
                <path d="M41,59.017377 C40.45,59.017377 40,58.5737705 40,58.0327869 L40,50.164918 C40,49.6229508 40.45,49.1803279 41,49.1803279 C41.55,49.1803279 42,49.6229508 42,50.164918 L42,58.0327869 C42,58.5737705 41.55,59.017377 41,59.017377" id="Fill-550"></path>
                <path d="M19,59.017377 C18.45,59.017377 18,58.5737705 18,58.0327869 L18,50.164918 C18,49.6229508 18.45,49.1803279 19,49.1803279 C19.55,49.1803279 20,49.6229508 20,50.164918 L20,58.0327869 C20,58.5737705 19.55,59.017377 19,59.017377" id="Fill-551"></path>
                <path d="M30,16.7203279 C22.83,16.7203279 17,22.4557377 17,29.5081967 C17,36.5596721 22.83,42.2940984 30,42.2940984 C37.17,42.2940984 43,36.5596721 43,29.5081967 C43,22.4557377 37.17,16.7203279 30,16.7203279 L30,16.7203279 Z M30,44.2622951 C21.73,44.2622951 15,37.642623 15,29.5081967 C15,21.3727869 21.73,14.7540984 30,14.7540984 C38.27,14.7540984 45,21.3727869 45,29.5081967 C45,37.642623 38.27,44.2622951 30,44.2622951 L30,44.2622951 Z" id="Fill-552"></path>
                <path d="M28,26.2381057 L28,32.8577779 L34.21,29.5538435 L28,26.2381057 L28,26.2381057 Z M27,35.4938435 C26.82,35.4938435 26.65,35.4446631 26.49,35.3561385 C26.18,35.1790894 26,34.8544992 26,34.5112205 L26,24.5856467 C26,24.2413844 26.18,23.9276139 26.49,23.7407287 C26.79,23.5636795 27.17,23.5636795 27.48,23.729909 L36.78,28.6872861 C37.1,28.8544992 37.3,29.1889254 37.3,29.5538435 C37.3,29.9167943 37.1,30.242368 36.78,30.4184336 L27.48,35.3758107 C27.33,35.4554828 27.16,35.4938435 27,35.4938435 L27,35.4938435 Z" id="Fill-553"></path>
            </g>
        </g>
    </g>
</svg>