<?xml version="1.0" encoding="UTF-8" standalone="no"?>
<svg width="61px" height="50px" viewBox="0 0 61 50" version="1.1" xmlns="http://www.w3.org/2000/svg" xmlns:xlink="http://www.w3.org/1999/xlink" xmlns:sketch="http://www.bohemiancoding.com/sketch/ns">
    <!-- Generator: Sketch 3.2.1 (9971) - http://www.bohemiancoding.com/sketch -->
    <title>windows</title>
    <desc>Created with Sketch.</desc>
    <defs></defs>
    <g id="Page-1" stroke="none" stroke-width="1" fill="none" fill-rule="evenodd" sketch:type="MSPage">
        <g id="gradient-icons" sketch:type="MSLayerGroup" transform="translate(-350.000000, -10.000000)" fill="#4CAF50">
            <path d="M408.91124,32 L402.91124,32 L402.91124,44 C402.91124,47.311 400.22124,50 396.91124,50 L360.91124,50 L360.91124,54 C360.91124,56.2 362.70124,58 364.91124,58 L404.91124,58 C407.12124,58 408.91124,56.2 408.91124,54 L408.91124,32 Z M408.91124,30 L402.91124,30 L402.91124,22 L404.91124,22 C407.12124,22 408.91124,23.79 408.91124,26 L408.91124,30 L408.91124,30 Z M402.91124,20 L402.91124,16 C402.91124,12.69 400.22124,10 396.91124,10 L356.91124,10 C353.60124,10 350.91124,12.69 350.91124,16 L350.91124,44 C350.91124,47.311 353.60124,50 356.91124,50 L358.91124,50 L358.91124,54 C358.91124,57.311 361.60124,60 364.91124,60 L404.91124,60 C408.22124,60 410.91124,57.311 410.91124,54 L410.91124,26 C410.91124,22.69 408.22124,20 404.91124,20 L402.91124,20 L402.91124,20 Z M352.91124,20 L352.91124,16 C352.91124,13.79 354.70124,12 356.91124,12 L396.91124,12 C399.12124,12 400.91124,13.79 400.91124,16 L400.91124,20 L352.91124,20 L352.91124,20 Z M352.91124,22 L352.91124,44 C352.91124,46.2 354.70124,48 356.91124,48 L396.91124,48 C399.12124,48 400.91124,46.2 400.91124,44 L400.91124,22 L352.91124,22 L352.91124,22 Z M358.91124,18 C357.81124,18 356.91124,17.101 356.91124,16 C356.91124,14.9 357.81124,14 358.91124,14 C360.01124,14 360.91124,14.9 360.91124,16 C360.91124,17.101 360.01124,18 358.91124,18 Z M364.91124,18 C363.81124,18 362.91124,17.101 362.91124,16 C362.91124,14.9 363.81124,14 364.91124,14 C366.01124,14 366.91124,14.9 366.91124,16 C366.91124,17.101 366.01124,18 364.91124,18 Z M370.91124,18 C369.81124,18 368.91124,17.101 368.91124,16 C368.91124,14.9 369.81124,14 370.91124,14 C372.01124,14 372.91124,14.9 372.91124,16 C372.91124,17.101 372.01124,18 370.91124,18 Z" id="windows" sketch:type="MSShapeGroup"></path>
        </g>
    </g>
</svg>