<svg xmlns="http://www.w3.org/2000/svg" xmlns:xlink="http://www.w3.org/1999/xlink" width="0" height="0" style="position:absolute">

<symbol id="icon-arrow" viewBox="0 0 43 24">
        <path d="M19.815 22.61l.03.03c.95.952 2.475.946 3.42.002l19.5-19.5-1.71-1.71c-.946-.947-2.476-.947-3.42-.003L21.67 17.393 5.65 1.378C4.674.4 3.09.398 2.112 1.374L.346 3.14l19.438 19.44.032.03z" fill="#fff"/>
</symbol>

<symbol id="icon-logo" viewBox="0 0 100 72">
        <path d="M38.39 9.66c.046.197.12.385.32.377.187-.007.255-.13.267-.32.163-2.476.43-5.402.212-7.677-.01-.08-.058-.274-.058-.274-.13-.6-1.118-.91-1.993-.43-.727.377-.83 1.015-.63 1.56 1.114 3.005 1.39 4.66 1.88 6.763zm-1.55 2.265s-.024.073-.026.104c-.074.896-.324 1.81-.083 3.347.02.12.066.29.255.27.395.03.38-.825 1.345-2.725.104-.218.025-.837-.5-1.12-.622-.344-.923-.1-.99.122zm2.285 3.598c.363.167.642-.647 2.207-2.107.175-.17.312-.78-.088-1.233-.468-.544-.836-.418-.976-.23 0 0-.048.06-.06.09-.38.822-.93 1.6-1.23 3.137-.024.12-.037.295.147.343zm.747 8.79c-.142-.06-.24.088-.296.2-.744 1.402-.803 2.285-1.107 3.255-.015.034-.026.127-.026.127-.046.28.07.74.712.776.602.048.953-.667.945-1.004-.107-2.566.117-3.298-.23-3.353zm-3.33-14.34c.09.158.228.2.397.14.16-.056.16-.21.123-.38-.5-2.173-1.245-4.87-2.02-6.773-.026-.066-.117-.22-.117-.22-.27-.485-1.258-.518-1.888.128-.53.513-.447 1.105-.13 1.523 1.73 2.298 2.67 3.9 3.632 5.584zm4.124.294c.214.055.342-.073.42-.285.998-2.738 2.31-5.63 2.815-8.27.02-.093.03-.33.03-.33.05-.72-1.075-1.515-2.223-1.265-.943.18-1.338.842-1.29 1.528.266 3.763.052 5.6-.092 8.138-.013.237.113.426.342.484zm-10.86-3.42c2.368 1.623 3.37 2.52 4.813 3.81.134.12.274.16.416.048.135-.105.202-.227.113-.375-1.22-2.002-2.523-3.978-3.776-5.438-.046-.054-.182-.172-.182-.172-.407-.373-1.35-.19-1.746.624-.338.656-.07 1.21.36 1.504zm1.382 14.02c.06.727.683 1.105.96 1.053 2-.25 3.083-.185 3.155-.666.07-.21-.093-.32-.215-.38-1.89-.552-2.206-.863-3.13-1.07-.032-.008-.116-.004-.116-.004-.247 0-.732.246-.654 1.066zm4.1-7.494c-.002-.24-.34-.758-.935-.777-.705-.032-.858.932-.82 1.16 0 0 0 .668 1.41 3.132.067.1.184.23.342.128.367-.146-.03-1.518.002-3.643zm-3.696 4.172c.786.46 1.384.935 2.904 1.375.12.036.296.064.37-.123.22-.36-.693-.815-1.96-2.56-.15-.193-.753-.39-1.267-.012-.62.44-.303 1.088-.13 1.248 0 0 .053.057.08.072zm11.606 3.53s-.008-.018-.014-.023c-.163-.176-.22-.317-.613-.54-.03-.02-.08-.04-.133.004-.128.077.054.226.147.768.012.06.164.156.386.096.264-.068.253-.25.228-.304zm1.304 6.614c.01.04.058.15.058.15.13.324.55.74 1.26.362.672-.343.59-1.335.364-1.69-1.766-2.67-1.96-3.808-2.366-3.643-.188.03-.197.25-.188.407.108 1.982.575 3.175.872 4.41zm-.348-7.986c.316-.29.156-.543.077-.6 0 0-.022-.022-.035-.026-.368-.133-.56-.29-1.286-.325-.058-.004-.143.003-.186.104-.118.203.254.284.814.99.065.08.353.102.617-.145zm-1.058-5.9s-.053.016-.07.032c-.536.393-.94.536-1.676 1.482-.058.072-.13.19-.026.32.176.307.643-.132 2.172-.368.172-.03.476-.398.376-.928-.11-.632-.62-.602-.776-.54zM27.15 9.934c2.786.658 4.176 1.226 5.982 1.907.17.063.348.03.442-.125.088-.146.074-.206-.05-.325-1.506-1.427-3.74-2.915-5.538-3.883-.062-.034-.232-.096-.232-.096-.512-.2-1.342.39-1.42 1.293-.082.735.31 1.115.816 1.234zm15.248 18.818c.69-.14.858-1.05.743-1.426-.925-2.837-.82-3.597-1.222-3.55-.178-.02-.24.176-.27.32-.39 1.804-.267 2.68-.303 3.863-.003.042.013.15.013.15.037.325.312.804 1.04.642zm.215-11.527c.024.323.504.12 1.677.47.134.037.474-.164.58-.647.128-.574-.246-.73-.38-.736 0 0-.043-.003-.06.003-.514.14-.852.115-1.692.648-.067.04-.157.115-.125.26zm1.304-5.036c.16.21.373.204.598.067 1.885-1.157 3.754-2.332 5.49-3.575 1.734 1.243 3.603 2.418 5.488 3.575.225.137.44.142.598-.068.17-.223.016-.466-.167-.675-1.974-2.23-3.436-3.58-5.918-7.234-2.483 3.655-3.945 5.005-5.918 7.235-.184.21-.337.452-.17.674zM47.31 26.2c.23.315.8.646 1.458.04.63-.555.268-1.6-.07-1.92-2.63-2.38-2.912-3.18-3.303-2.888-.196.085-.143.325-.09.49.657 2.104 1.246 2.885 1.905 4.13.022.046.1.148.1.148zm-4.803-15.267c.22.143.42.065.584-.142 2.13-2.677 4.425-5.284 5.964-8.04.054-.097.153-.356.153-.356.324-.787-.514-2.22-1.888-2.373-1.12-.155-1.685.434-1.884 1.218-1.098 4.298-1.954 6.245-3.055 9.022-.102.26-.107.52.127.67zm7.498 21.46c.6-.87 1.218-1.913 1.77-3.172.046-.103.07-.204.07-.3 0-.44-.488-.623-.677-.655-.357-.06-1.968-.06-2.325 0-.19.03-.678.213-.678.655 0 .095.025.196.07.3.553 1.258 1.17 2.302 1.77 3.17zm-5.114 5.39c.43-.243.67-.64.654-1.09-.008-.223-.077-.452-.202-.663l-.402-.682c-.85-1.434-1.028-1.732-1.82-3.743-.304-.776-.87-1.605-1.54-1.605-.146.002-.47.06-.668.27-.118.12-.173.275-.166.455v.026c.265 4.137 2.01 6.27 2.024 6.288.687.95 1.382 1.19 2.122.746zM34.31 25.195c1.66-1.623 2.55-1.88 2.39-2.285-.038-.202-.227-.2-.358-.18-1.668.237-2.534.79-3.44 1.154-.032.01-.1.062-.1.062-.21.14-.366.534.19 1.08.46.463 1.124.348 1.317.17zm1.427 8.79c-.188-1.243-.252-1.66-.252-2.905 0-.245.002-.524.007-.9 0-.732-.2-1.594-.763-1.81-.128-.05-.432-.11-.68.006-.144.068-.245.186-.3.347-.466 1.363-.703 2.702-.703 3.978 0 1.243.226 1.95.234 1.978.255 1.026.767 1.462 1.558 1.336.62-.082 1.018-.522 1.018-1.124 0-.068-.006-.136-.016-.204l-.104-.7zm4.548 1.143c-.53-1.496-.64-1.806-.993-3.835-.137-.784-.513-1.658-1.166-1.763-.142-.022-.476-.02-.71.155-.137.102-.22.243-.245.422-.11.71-.163 1.417-.163 2.098 0 2.65.823 4.152.83 4.163.468 1.007 1.09 1.348 1.898 1.044.546-.188.87-.613.87-1.14 0-.147-.025-.298-.078-.446l-.246-.7zm-8.948-9.28c-.145.034-.26.124-.34.266-1.397 2.423-1.548 4.39-1.548 5.122 0 .218.013.337.013.333.04 1.01.423 1.517 1.168 1.556.317.025.594-.058.8-.24.217-.19.345-.474.363-.8l.037-.67c.072-1.433.085-1.732.475-3.548.04-.18.084-.455.084-.76 0-.387-.074-.894-.43-1.132-.107-.07-.375-.188-.62-.13zM25.33 13.03c2.353-.228 3.973.112 6.048.144.207.003.372-.062.42-.214.045-.146-.032-.246-.226-.29-2.2-.682-4.66-1.493-6.463-1.624-.06-.005-.206.005-.206.005-.437.02-.982.723-.64 1.34.256.49.685.68 1.066.64zm12.79 10.747c-.1-.102-.238-.008-.326.066-1.134.943-1.64 1.754-2.243 2.482-.02.025-.062.1-.062.1-.137.224-.2.664.34.925.503.257 1.058-.233 1.168-.527.81-2.25 1.402-2.873 1.125-3.046zM24.432 16.27c2.267-.708 3.58-.734 5.958-1.197.252-.05.418-.164.438-.336.016-.166-.116-.252-.36-.246-2.6-.11-4.893-.215-6.533.074-.052.01-.176.05-.176.05-.376.11-.666.77-.337 1.26.258.406.658.505 1.008.396zm.67 3.89c1.81-1.307 3.044-1.82 4.782-2.952.174-.114.24-.31.197-.463-.043-.146-.195-.238-.38-.165-1.99.427-4.336 1.065-5.906 1.963-.05.03-.166.118-.166.118-.352.26-.39 1.24.235 1.56.484.265.944.184 1.24-.06zm4.927-1.044c-.06-.097-.226-.185-.45-.08-1.81.858-3.35 2.113-5.125 3.64-.054.045-.145.203-.145.203-.315.452-.253 2.035.596 2.33.69.255 1.29-.385 1.547-.843 1.34-2.39 2.37-3.203 3.458-4.612.11-.143.3-.348.12-.64zm.237 4.3c0-.282-.013-.503-.155-.658-.09-.094-.31-.193-.544-.19-.143.002-.268.062-.37.177-2.267 2.487-2.364 4.425-2.365 4.443-.037.203-.055.32-.055.485 0 .622.14 1.122.678 1.278.28.093.55.075.78-.05.24-.13.42-.367.505-.672l.17-.603c.37-1.324.263-1.353 1-2.965.09-.197.357-.764.357-1.245zm31.91-11.613c-.525.284-.604.903-.5 1.12.968 1.9.952 2.757 1.346 2.725.19.02.236-.15.253-.27.24-1.536-.01-2.45-.083-3.35 0-.03-.026-.103-.026-.103-.066-.223-.367-.466-.99-.122zm-.878-1.766c.2.008.272-.18.32-.378.484-2.106.763-3.76 1.875-6.763.2-.547.098-1.184-.627-1.56-.877-.483-1.865-.173-1.995.428 0 0-.048.195-.055.274-.22 2.275.05 5.2.212 7.675.012.192.08.314.268.32zm-.45 18.634c.64-.034.758-.495.713-.774 0 0-.012-.092-.024-.126-.305-.972-.365-1.855-1.108-3.257-.058-.112-.155-.26-.297-.2-.345.055-.12.787-.23 3.352-.008.337.344 1.052.946 1.006zm-2.087-16.486c-.4.452-.263 1.064-.088 1.233 1.565 1.46 1.844 2.274 2.207 2.107.185-.048.17-.223.146-.343-.302-1.537-.85-2.314-1.23-3.137-.012-.03-.06-.09-.06-.09-.14-.187-.508-.312-.976.23zm17.452 6.36c-1.57-.898-3.917-1.536-5.905-1.963-.185-.072-.337.02-.382.166-.044.153.022.35.197.463 1.738 1.13 2.97 1.644 4.782 2.95.295.244.756.325 1.24.062.623-.32.586-1.298.234-1.56 0 0-.113-.088-.163-.117zm-5.407 4.2c-.103-.114-.228-.173-.37-.176-.236-.002-.454.096-.544.19-.143.156-.156.377-.156.658 0 .48.268 1.047.358 1.243.736 1.61.63 1.64 1 2.964l.168.603c.085.305.265.545.505.674.23.124.5.143.78.05.54-.155.68-.655.68-1.277 0-.165-.02-.282-.057-.485-.002-.017-.1-1.955-2.365-4.443zm-3.602 1.203s-.068-.05-.1-.062c-.905-.363-1.772-.918-3.438-1.153-.132-.02-.32-.023-.36.18-.158.406.732.663 2.392 2.285.192.18.857.294 1.317-.17.555-.545.4-.94.188-1.08zm8.344-1.27c-1.776-1.527-3.312-2.782-5.124-3.64-.225-.105-.388-.018-.448.08-.182.292.007.497.118.64 1.087 1.408 2.117 2.222 3.457 4.612.258.456.858 1.097 1.547.84.85-.293.912-1.876.596-2.33 0 0-.092-.158-.146-.204zm-6.878 3.173c-.244-.06-.512.058-.62.128-.356.238-.43.745-.43 1.13 0 .307.045.583.083.76.39 1.818.403 2.116.475 3.55l.034.67c.018.325.147.61.362.8.21.18.485.264.8.24.746-.04 1.13-.548 1.17-1.557 0 .006.014-.113.014-.33 0-.734-.15-2.7-1.548-5.123-.08-.142-.195-.232-.34-.267zm-3.02-13.254c-.592.02-.93.536-.932.777.032 2.125-.366 3.497 0 3.643.16.102.276-.028.343-.128 1.408-2.464 1.41-3.132 1.41-3.132.038-.228-.114-1.192-.82-1.16zm2.556.364c.048.152.213.217.42.214 2.075-.033 3.696-.373 6.047-.143.38.04.81-.15 1.066-.64.344-.618-.202-1.32-.64-1.34 0 0-.143-.01-.202-.004-1.804.13-4.265.942-6.464 1.624-.194.044-.27.144-.226.29zm1.33 1.53c-.244-.006-.376.08-.36.247.02.172.187.286.438.336 2.377.463 3.692.49 5.96 1.196.348.106.75.01 1.006-.397.33-.49.04-1.152-.334-1.262 0 0-.125-.04-.177-.05-1.64-.287-3.932-.182-6.532-.07zm-4.395 4.31c.074.187.25.16.37.123 1.52-.44 2.118-.915 2.903-1.375.03-.015.082-.072.082-.072.172-.16.49-.808-.128-1.248-.515-.376-1.12-.18-1.267.013-1.267 1.746-2.18 2.2-1.96 2.56zm-.172-8.094c.145.11.285.073.42-.047 1.443-1.29 2.445-2.188 4.81-3.81.43-.296.7-.85.363-1.505-.395-.814-1.34-.996-1.747-.624 0 0-.135.118-.182.173-1.253 1.46-2.557 3.435-3.775 5.438-.09.148-.02.27.112.375zm-1.9-.59c.17.058.306.017.397-.14.962-1.687 1.9-3.287 3.634-5.582.316-.42.4-1.01-.13-1.524-.63-.645-1.62-.613-1.887-.13 0 0-.09.156-.118.222-.774 1.903-1.52 4.6-2.02 6.774-.037.17-.037.323.125.38zm4.79 11.806c.28.052.9-.326.96-1.054.08-.82-.406-1.066-.653-1.066 0 0-.083-.005-.116.005-.923.206-1.24.517-3.13 1.068-.12.06-.283.17-.214.38.072.482 1.157.416 3.156.667zm-1.424-10.204c.094.155.273.188.442.126 1.806-.68 3.195-1.25 5.98-1.906.51-.12.898-.5.817-1.234-.078-.902-.908-1.49-1.42-1.29 0 0-.17.06-.23.095-1.8.967-4.034 2.455-5.54 3.883-.123.12-.138.18-.05.326zm-7.778 3.602c-.735-.946-1.138-1.088-1.674-1.48-.018-.017-.07-.035-.07-.035-.157-.062-.665-.092-.777.54-.1.53.205.898.377.928 1.53.238 1.996.676 2.17.37.105-.13.033-.25-.026-.322zm.267-5.336c.076.212.204.34.42.285.227-.06.353-.248.34-.485-.143-2.538-.357-4.375-.092-8.138C59.64.96 59.246.3 58.303.12c-1.148-.25-2.274.543-2.223 1.265 0 0 .01.236.027.327.504 2.642 1.818 5.534 2.817 8.272zM55.72 17.7c1.172-.35 1.653-.15 1.676-.47.033-.148-.06-.223-.125-.263-.84-.533-1.176-.51-1.69-.648-.02-.007-.062-.004-.062-.004-.132.005-.507.162-.377.735.105.483.446.684.58.648zm1.32 3.682c.222.06.375-.035.387-.096.093-.542.276-.69.147-.768-.055-.043-.105-.022-.135-.005-.394.225-.45.366-.614.542-.007.005-.014.024-.014.024-.024.053-.036.235.23.303zm.246-2.52c-.042-.102-.128-.11-.184-.105-.726.034-.918.19-1.285.324-.013.004-.038.025-.038.025-.08.06-.24.31.077.6.263.248.552.225.616.147.562-.706.934-.787.815-.99zm.325 9.893c.73.162 1.006-.317 1.04-.643 0 0 .02-.107.016-.15-.036-1.182.09-2.06-.304-3.864-.03-.143-.09-.34-.27-.32-.403-.046-.296.714-1.222 3.55-.116.377.054 1.288.742 1.427zm-1.946 1.626c.02-.063.028-.124.03-.182.023-.498-.513-.68-.723-.71-.69-.085-1.71.455-2.202 1.223-1.29 1.996-1.297 2.53-2.512 3.92l-.25.257-.252-.258c-1.215-1.388-1.223-1.924-2.512-3.92-.492-.767-1.51-1.307-2.202-1.222-.21.03-.746.212-.724.71.003.058.013.12.032.182 1.23 4.27 3.53 6.514 3.55 6.53.68.66 1.47 1.047 2.108.99.637.057 1.428-.33 2.11-.99.02-.016 2.317-2.26 3.55-6.53zM58.43 30c-.67 0-1.235.83-1.54 1.605-.79 2.01-.968 2.31-1.82 3.744l-.402.682c-.125.21-.195.44-.202.662-.017.45.222.85.652 1.09.74.444 1.436.203 2.123-.744.016-.017 1.76-2.15 2.025-6.287v-.026c.007-.18-.047-.334-.164-.456-.2-.21-.523-.265-.67-.267zM50.955 2.75c1.54 2.758 3.835 5.365 5.963 8.043.164.206.364.284.585.142.233-.15.228-.412.126-.67-1.103-2.78-1.96-4.726-3.057-9.024-.2-.78-.763-1.37-1.883-1.215-1.373.154-2.212 1.587-1.887 2.373 0 0 .098.26.152.355zm3.097 12.71c-.012-.2-.205-.256-.403-.283-1.248-.167-2.34-.282-3.647-.51-1.304.228-2.398.343-3.644.51-.2.026-.39.08-.404.282-.01.19.103.27.29.3 1.19.2 2.48.43 3.758.616 1.276-.188 2.568-.42 3.756-.617.19-.03.303-.11.292-.3zm-.828 3.992c-1.093.646-2.036 1.24-3.22 1.873-1.183-.634-2.126-1.227-3.22-1.873-.173-.102-.36-.178-.492-.026-.123.143-.082.276.047.418 1.143 1.25 2.406 2.67 3.664 3.9 1.257-1.23 2.52-2.65 3.665-3.9.13-.142.17-.275.046-.418-.133-.152-.32-.076-.493.026zM55 13.72c.07-.228-.028-.435-.236-.546-1.63-.863-2.97-1.513-4.76-2.638-1.79 1.125-3.132 1.775-4.76 2.638-.208.11-.304.318-.236.545.064.212.24.256.458.213 1.478-.284 3.03-.52 4.538-.81 1.506.29 3.06.526 4.537.81.22.043.397 0 .46-.215zm10.96 14.657c-.247-.117-.55-.057-.678-.008-.564.215-.763 1.077-.763 1.81.004.375.005.654.005.9 0 1.244-.062 1.663-.25 2.905l-.106.7c-.01.068-.016.136-.016.204 0 .6.4 1.04 1.017 1.122.793.127 1.304-.31 1.56-1.335.008-.026.235-.735.235-1.977 0-1.275-.237-2.614-.705-3.976-.054-.162-.155-.28-.3-.347zM53.773 17.38c-.074-.19-.274-.18-.47-.143-1.132.216-2.13.433-3.298.618-1.167-.186-2.165-.402-3.296-.618-.2-.037-.4-.046-.473.142-.068.175.014.286.184.376 1.133.597 2.36 1.265 3.586 1.874 1.223-.608 2.452-1.276 3.584-1.873.168-.09.25-.2.182-.378zm.417 10.823c.707.38 1.128-.037 1.258-.364 0 0 .046-.11.058-.15.297-1.238.764-2.43.873-4.413.006-.157 0-.38-.19-.408-.406-.166-.6.973-2.366 3.642-.225.355-.308 1.346.364 1.69zm10.332-1.777s-.043-.076-.065-.1c-.604-.73-1.108-1.54-2.242-2.483-.09-.074-.225-.168-.327-.066-.277.173.316.795 1.126 3.047.11.293.665.783 1.168.526.54-.26.477-.7.34-.924zm-11.825-.223s.08-.102.103-.147c.658-1.245 1.247-2.027 1.906-4.13.052-.166.104-.406-.09-.49-.393-.292-.673.507-3.304 2.89-.34.318-.7 1.362-.07 1.918.66.605 1.225.274 1.455-.04zm9.898 3.484c-.235-.176-.568-.177-.71-.155-.654.105-1.03.98-1.165 1.763-.354 2.03-.465 2.34-.994 3.834l-.246.696c-.052.148-.08.3-.08.447 0 .526.326.952.872 1.14.808.304 1.43-.037 1.9-1.044.006-.01.83-1.514.83-4.164 0-.68-.056-1.387-.163-2.1-.027-.177-.11-.318-.246-.42zm-4.474 9.285c-.132-.063-.296-.03-.365-.004-.306.117-.414.585-.414.982.004.203.005.354.005.488 0 .674-.034.9-.135 1.573l-.06.38c-.004.04-.006.077-.006.113 0 .326.216.564.55.608.43.07.706-.166.845-.722.002-.014.125-.4.125-1.072 0-.69-.128-1.416-.38-2.155-.032-.087-.086-.15-.165-.187zm-4.08.88c-.36 0-.67.45-.833.87-.43 1.09-.525 1.252-.986 2.03l-.22.37c-.065.113-.103.237-.11.358-.006.244.123.46.356.59.402.24.78.11 1.15-.403.008-.01.954-1.166 1.097-3.408v-.016c.004-.097-.025-.18-.09-.246-.106-.116-.283-.146-.36-.147zm2.26-.17c-.13-.095-.31-.096-.387-.085-.353.058-.557.532-.63.956-.192 1.1-.253 1.268-.54 2.08l-.132.376c-.03.08-.043.16-.043.24 0 .286.177.516.473.618.436.164.774-.022 1.028-.566.003-.006.45-.82.45-2.256 0-.37-.03-.752-.088-1.138-.014-.096-.06-.174-.132-.228zm-11.033 2.95c-.287-.81-.347-.98-.54-2.08-.072-.423-.276-.897-.63-.955-.077-.01-.257-.01-.385.085-.073.054-.117.13-.132.228-.057.387-.087.77-.087 1.138 0 1.436.447 2.25.45 2.257.255.544.592.73 1.03.564.295-.104.472-.333.472-.62 0-.08-.014-.16-.043-.24l-.134-.38zm-2.465-.62c-.102-.674-.136-.9-.136-1.574 0-.134.002-.285.005-.488 0-.397-.11-.864-.414-.982-.07-.026-.234-.06-.368.004-.078.036-.133.1-.162.188-.254.74-.382 1.464-.382 2.155 0 .673.123 1.058.127 1.07.14.557.417.794.846.725.335-.044.55-.282.55-.608 0-.036-.002-.074-.007-.11l-.058-.38zm4.99.74c-.462-.778-.558-.94-.987-2.03-.165-.42-.472-.87-.835-.87-.08.002-.255.032-.362.147-.064.064-.094.147-.09.244v.014c.143 2.242 1.09 3.397 1.096 3.407.374.513.75.644 1.15.403.234-.13.363-.346.355-.59-.006-.12-.043-.245-.11-.36l-.22-.368zM0 40.125h31.817v2.005H0v-2.005zm67.874-.006H99.69v2.002H67.875V40.12zM.007 69.64h99.645v2.004H.007V69.64zM9.23 56.932c-.062-1.38-.14-3.046-.125-4.49h-.047c-.345 1.3-.784 2.745-1.254 4.093L6.267 61.17h-1.49l-1.41-4.57c-.408-1.365-.785-2.825-1.067-4.158h-.03c-.048 1.397-.11 3.094-.19 4.554l-.235 4.3H.043l.705-10.694h2.54l1.38 4.3c.376 1.253.705 2.523.972 3.712h.047c.283-1.158.643-2.475 1.05-3.728l1.46-4.284h2.507l.612 10.694H9.434l-.204-4.364zm5.064-6.33l1.788 4.125c.282.698.5 1.333.752 1.967h.047c.16-.49.347-1.174.598-2.015l1.38-4.08h2.038l-2.085 5.33c-.61 1.557-1.285 3.175-2.04 4.175-.687.872-1.52 1.364-2.632 1.364-.454 0-.737-.05-.987-.144l.157-1.57c.157.047.36.063.66.063.892 0 1.457-.763 1.724-1.366.095-.222.063-.365-.047-.57l-3.53-7.284h2.18zm14.676 0v9.14l1.003.046-.11 4.157H28.39l-.11-2.65h-6.413l-.11 2.65h-1.474l-.094-4.157.845-.047c.408-.744.784-1.522 1.02-2.363.328-1.142.454-2.443.454-3.982V50.6h6.46zm-4.673 3.284c0 1.46-.157 2.776-.502 3.903-.204.696-.5 1.38-.784 1.902h4.03v-7.49H24.3v1.683zm7.196-3.142c.69-.127 1.646-.222 2.948-.222 1.413 0 2.448.3 3.12.873.63.523 1.036 1.364 1.036 2.364 0 1.014-.313 1.854-.91 2.425-.767.778-1.974 1.143-3.338 1.143-.36 0-.69-.017-.94-.065v4.03h-1.914v-10.55zm1.913 4.982c.235.064.55.08.94.08 1.443 0 2.32-.714 2.32-1.968 0-1.19-.814-1.825-2.147-1.825-.535 0-.91.048-1.115.096v3.615zm8.764-1.27c.314-.062.847-.094 1.223-.094 2.164 0 4.124 1.047 4.124 3.443 0 .984-.314 1.73-.83 2.285-.942.983-2.59 1.317-4.078 1.317-1.053 0-1.868-.08-2.354-.143V50.6h1.913v3.857zm0 5.396c.235.047.55.063.94.063 1.255 0 2.384-.682 2.384-2.063 0-1.412-1.24-1.967-2.383-1.967-.39 0-.735.032-.94.063v3.904zm8.34-9.25v10.693h-1.927V50.6h1.928zm4.155 0v3.776c0 1.697-.047 3.268-.125 4.696l.03.016c.55-1.206 1.24-2.49 1.93-3.697l2.79-4.792h1.96v10.696h-1.786v-3.792c0-1.682.015-3.047.14-4.427h-.03c-.503 1.222-1.208 2.555-1.882 3.697l-2.665 4.522h-2.15V50.6h1.788zm1.568-2.35c.048.556.22.97.816.97.593 0 .782-.398.83-.97h1.363c-.094 1.223-.863 1.842-2.227 1.842-1.332 0-2.038-.65-2.148-1.84h1.363zm12.496 3.984h-3.013V50.6h7.98v1.636h-3.04v9.06h-1.93v-9.06zm12.117 4.315h-3.982v3.144h4.452v1.603h-6.38V50.602h6.145v1.602h-4.217v2.76h3.982v1.587zm9.736 4.43c-.454.237-1.458.476-2.728.476-3.355 0-5.393-2.127-5.393-5.38 0-3.522 2.414-5.648 5.644-5.648 1.27 0 2.18.27 2.57.476l-.422 1.555c-.502-.223-1.19-.413-2.07-.413-2.147 0-3.7 1.365-3.7 3.935 0 2.35 1.365 3.856 3.685 3.856.783 0 1.6-.158 2.1-.396l.313 1.538zm4.076-8.743h-3.01V50.6h7.98v1.636h-3.04v9.06h-1.93v-9.06z" fill="#fff"/>
</symbol>

<symbol id="icon-play" viewBox="0 0 31 21">
        <path d="M.25 7.495C.25 3.632 3.376.5 7.246.5h16.008c3.864 0 6.996 3.125 6.996 6.995v6.01c0 3.863-3.126 6.995-6.996 6.995H7.246C3.382 20.5.25 17.375.25 13.505v-6.01zM19.553 10.5L12.41 5.744v9.512l7.143-4.756z" fill="#fff"/>
</symbol>
</svg>