<svg xmlns="http://www.w3.org/2000/svg" xmlns:xlink="http://www.w3.org/1999/xlink" width="0" height="0" style="position:absolute">

<symbol id="icon-arr-next" viewBox="0 0 16 30">
        <path d="M15.337 16.093l.06-.056c.573-.574.583-1.488.04-2.078l-.04-.045h-.003v-.002L2.314.837l-1.06 1.06c-.58.58-.584 1.537.003 2.124L12.213 14.98 1.376 25.815c-.652.652-.707 1.655-.12 2.24l1.06 1.062 12.96-12.96.06-.064z" fill="#2196F3"/>
</symbol>

<symbol id="icon-arr-prev" viewBox="0 0 16 29">
        <path d="M.663 15.744l-.06-.056C.03 15.114.02 14.2.563 13.61l.04-.043h.004v-.002L13.685.488l1.06 1.06c.58.58.585 1.537-.002 2.124L3.786 14.628l10.838 10.838c.652.652.707 1.655.12 2.24l-1.06 1.062-12.96-12.96-.06-.064z" fill="#2196F3"/>
</symbol>

<symbol id="icon-arrow" viewBox="0 0 43 24">
        <path d="M19.815 22.61l.03.03c.95.952 2.475.946 3.42.002l19.5-19.5-1.71-1.71c-.946-.947-2.476-.947-3.42-.003L21.67 17.393 5.65 1.378C4.674.4 3.09.398 2.112 1.374L.346 3.14l19.438 19.44.032.03z" fill="#fff"/>
</symbol>

<symbol id="icon-book" viewBox="0 0 50 60">
        <g fill="#fff"><path d="M47 8H7c-.55 0-1-.45-1-1s.45-1 1-1h40c.55 0 1 .45 1 1s-.45 1-1 1"/><path d="M2 11.89v42.06C2 56.18 3.81 58 6.04 58H48V14H7c-1.96 0-3.73-.81-5-2.11zM49 60H6.04C2.71 60 0 57.29 0 53.95V7c0-3.86 3.14-7 7-7h42c.55 0 1 .45 1 1s-.45 1-1 1H7C4.24 2 2 4.24 2 7c0 2.75 2.24 5 5 5h42c.55 0 1 .45 1 1v46c0 .55-.45 1-1 1zM25 24c-2.76 0-5 2.24-5 5 0 2.75 2.24 5 5 5s5-2.25 5-5c0-2.76-2.24-5-5-5zm0 12c-3.86 0-7-3.14-7-7s3.14-7 7-7 7 3.14 7 7-3.14 7-7 7zM14.04 46h21.91c-.5-5.6-5.22-10-10.95-10-5.73 0-10.45 4.4-10.96 10zm22.98 2H13c-.55 0-1-.45-1-1 0-7.17 5.83-13 13-13 7.1 0 12.89 5.72 13 12.79l.02.21c0 .55-.45 1-1 1z"/></g>
</symbol>

<symbol id="icon-bookmark" viewBox="0 0 60 60">
        <g fill="#fff"><path d="M59 59.017H1c-.552 0-1-.443-1-.984V2.953c0-.543.448-.986 1-.986h8c.553 0 1 .443 1 .985 0 .54-.447.982-1 .982H2V57.05h56V3.933H29c-.552 0-1-.442-1-.982s.448-.984 1-.984h30c.553 0 1 .443 1 .985v55.08c0 .543-.447.986-1 .986"/><path d="M19 22.622c.256 0 .512.1.707.285L28 31.06V1.967H10V31.06l8.293-8.153c.196-.186.45-.285.707-.285zm10 11.803c-.26 0-.515-.1-.707-.285L19 24.992 9.707 34.14c-.286.275-.715.364-1.09.208C8.244 34.2 8 33.834 8 33.442V.982C8 .442 8.448 0 9 0h20c.553 0 1 .442 1 .983v32.46c0 .39-.243.757-.617.905-.124.048-.254.077-.383.077zM51 17.706H36c-.552 0-1-.444-1-.985 0-.54.448-.98 1-.98h15c.553 0 1 .44 1 .982s-.447.986-1 .986M51 25.573H36c-.552 0-1-.443-1-.984 0-.543.448-.984 1-.984h15c.553 0 1 .44 1 .982 0 .54-.447.983-1 .983M51 33.443H36c-.552 0-1-.443-1-.983 0-.542.448-.985 1-.985h15c.553 0 1 .443 1 .985 0 .54-.447.983-1 .983M51 41.312H9c-.552 0-1-.443-1-.984 0-.54.448-.984 1-.984h42c.553 0 1 .443 1 .984 0 .54-.447.984-1 .984M41 49.18H9c-.552 0-1-.443-1-.984 0-.54.448-.983 1-.983h32c.553 0 1 .442 1 .983 0 .54-.447.983-1 .983"/></g>
</symbol>

<symbol id="icon-capable-bits" viewBox="0 0 69 49">
        <g fill="#9CA5BF"><path d="M21.152 8.8l13.35-7.744L47.945 8.8l-13.443 7.798L21.152 8.8zM1.06 16.598l13.35-7.744 13.443 7.744-13.443 7.797-13.35-7.797zM41.152 16.598l13.35-7.744 13.443 7.744-13.443 7.797-13.35-7.797zM21.152 24.342l13.35-7.744 13.443 7.744-13.443 7.797-13.35-7.8z"/><text font-family="Helvetica" font-size="5.833" font-weight="bold" letter-spacing="1" transform="translate(-97) translate(97)"><tspan x="7.712" y="48.001">CAPABLE BIT</tspan><tspan x="57.494" y="48.001">S</tspan></text><path d="M18.118 28.302l-3.96 2.297h.504l-13.35-7.8.248.432v-6.636l-.752.43 13.35 7.8.25.146.253-.146 13.444-7.798-.75-.432v3.77h1v-3.77l-.75-.433L14.16 23.96h.502l-13.35-7.796-.752.432v6.923l.248.144 13.35 7.798.25.147.253-.147 3.96-2.297 2.72-1.578-.5-.866-2.72 1.578zM21.652 24.342l-.752.43 13.35 7.8.25.146.253-.146 13.442-7.798-.75-.432v6.636l.25-.433-13.444 7.798h.505l-13.35-7.797.248.432v-6.636zm-1 6.923l.248.144 13.35 7.796.25.147.253-.146 13.442-7.798.25-.145V24.34l-.75-.432-13.444 7.797h.505l-13.35-7.797-.752.432v6.923zM50.414 29.222l3.836 2.24.25.148.253-.146 13.442-7.798.25-.144v-6.924l-.75-.433-13.444 7.798h.505l-13.35-7.797-.752.432v4.06h1V16.6l-.752.43 13.35 7.8.25.146.254-.146 13.442-7.798-.75-.432v6.636l.25-.433-13.444 7.8h.504l-3.836-2.24-2.637-1.542-.503.865 2.637 1.54zM21.652 8.8l-.752.432 13.35 7.797.25.145.253-.146L48.195 9.23l-.75-.433v3.94h1V8.8l-.75-.432-13.444 7.797h.505L21.405 8.37l-.753.432v3.896h1V8.8zM34.753 1.49h-.5l13.442 7.743v-.865L34.25 16.165h.504L21.404 8.37v.865l13.35-7.744zM20.158 8.8l.742.432 13.35 7.797.25.145.253-.146L48.195 9.23l.75-.434-.75-.433L34.75.623 34.5.48l-.25.143L20.9 8.368l-.744.43zM34.002 38.775h1V32.14h-1v6.635zM13.91 31.03h1v-6.635h-1v6.636zm40.092 0h1v-6.635h-1v6.636zM54.753 9.286h-.5l13.442 7.745v-.864L54.25 23.963h.504l-13.35-7.797v.864l13.35-7.744zm-14.595 7.31l.742.433 13.35 7.796.25.147.253-.146 13.442-7.798.75-.435-.75-.432L54.75 8.42l-.25-.144-.25.145-13.35 7.746-.744.43zM27.603 17.03v-.865L14.16 23.963h.5L1.31 16.166v.864l13.35-7.744h-.5L27.6 17.03zM14.41 8.277l-.25.145L.81 16.166l-.744.43.742.434 13.35 7.797.25.147.253-.146 13.444-7.798.75-.434-.75-.432L14.66 8.42l-.25-.144zM47.695 24.775v-.866L34.25 31.705h.504l-13.35-7.797v.863l13.35-7.744h-.5l13.44 7.744zM34.5 16.02l-.25.145L20.9 23.91l-.742.43.742.433 13.35 7.798.25.15.253-.147 13.442-7.798.75-.434-.75-.43-13.443-7.745-.25-.144z"/></g>
</symbol>

<symbol id="icon-checklist" viewBox="0 0 60 60">
        <g fill="#fff"><path d="M2 58h56V2H2v56zm57 2H1c-.55 0-1-.45-1-1V1c0-.55.45-1 1-1h58c.55 0 1 .45 1 1v58c0 .55-.45 1-1 1zM51 16H35c-.55 0-1-.45-1-1s.45-1 1-1h16c.55 0 1 .45 1 1s-.45 1-1 1M51 24H27c-.55 0-1-.45-1-1s.45-1 1-1h24c.55 0 1 .45 1 1s-.45 1-1 1M51 32H27c-.55 0-1-.45-1-1s.45-1 1-1h24c.55 0 1 .45 1 1s-.45 1-1 1M51 40H27c-.55 0-1-.45-1-1s.45-1 1-1h24c.55 0 1 .45 1 1s-.45 1-1 1M43 48H27c-.55 0-1-.45-1-1s.45-1 1-1h16c.55 0 1 .45 1 1s-.45 1-1 1"/><path d="M10 18h8v-8h-8v8zm9 2H9c-.55 0-1-.45-1-1V9c0-.55.45-1 1-1h10c.55 0 1 .45 1 1v10c0 .55-.45 1-1 1zM10 34h8v-8h-8v8zm9 2H9c-.55 0-1-.45-1-1V25c0-.55.45-1 1-1h10c.55 0 1 .45 1 1v10c0 .55-.45 1-1 1zM10 50h8v-8h-8v8zm9 2H9c-.55 0-1-.45-1-1V41c0-.55.45-1 1-1h10c.55 0 1 .45 1 1v10c0 .55-.45 1-1 1z"/></g>
</symbol>

<symbol id="icon-dotts-b" viewBox="0 0 286 101">
        <g fill="#fff"><g transform="matrix(0 -1 -1 0 285.5 100.5)"><circle cx="72.5" cy="2.5" r="2.5"/><circle cx="47.5" cy="257.5" r="2.5"/><circle cx="47.5" cy="157.5" r="2.5"/><circle cx="47.5" cy="182.5" r="2.5"/><circle cx="47.5" cy="232.5" r="2.5"/><circle cx="47.5" cy="27.5" r="2.5"/><circle cx="47.5" cy="52.5" r="2.5"/><circle cx="47.5" cy="127.5" r="2.5"/><circle cx="47.5" cy="102.5" r="2.5"/><circle cx="97.5" cy="282.5" r="2.5"/><circle cx="72.5" cy="282.5" r="2.5"/><circle cx="2.5" cy="143.5" r="2.5"/><circle cx="97.5" cy="2.5" r="2.5"/></g><path d="M141.355 78.59c.03.044.065.085.104.124.036.038.08.073.12.104l.033.032c.294.294.828.235 1.2-.136.043-.044.082-.09.117-.136l5.56-5.56-.668-.667c-.366-.364-.968-.367-1.337.003l-4.35 4.348-4.484-4.485c-.292-.293-.83-.233-1.2.137l-.666.67 5.572 5.57zM204.465 52.247c-.043.03-.084.065-.122.103-.04.04-.074.08-.104.123l-.035.033c-.294.294-.235.828.137 1.2.043.043.088.082.135.117l5.56 5.56.668-.67c.365-.365.368-.967 0-1.337l-4.35-4.348 4.486-4.486c.295-.293.234-.83-.135-1.2l-.67-.667-5.57 5.572zM82.59 53.81c.044-.03.085-.066.123-.104.04-.04.074-.08.104-.123l.033-.033c.294-.294.235-.828-.137-1.2-.043-.043-.088-.082-.135-.117l-5.56-5.56-.668.67c-.365.365-.368.967 0 1.337l4.35 4.348-4.486 4.486c-.294.293-.233.83.136 1.2l.67.667 5.57-5.57z"/></g>
</symbol>

<symbol id="icon-dotts-b-small" viewBox="0 0 166 101">
        <g fill="#fff"><g transform="matrix(0 -1 -1 0 165.5 100.5)"><ellipse cx="72.5" cy="2.5" rx="2.5" ry="2.5"/><ellipse cx="47.5" cy="97.5" rx="2.5" ry="2.5"/><ellipse cx="47.5" cy="122.5" rx="2.5" ry="2.5"/><ellipse cx="47.5" cy="67.5" rx="2.5" ry="2.5"/><ellipse cx="47.5" cy="42.5" rx="2.5" ry="2.5"/><ellipse cx="97.5" cy="162.5" rx="2.5" ry="2.5"/><ellipse cx="72.5" cy="162.5" rx="2.5" ry="2.5"/><ellipse cx="2.5" cy="83.5" rx="2.5" ry="2.5"/><ellipse cx="97.5" cy="2.5" rx="2.5" ry="2.5"/></g><path d="M81.392 78.59c.03.044.064.085.103.124.04.04.08.073.123.104l.033.032c.295.294.83.235 1.2-.136.044-.043.083-.09.118-.136l5.558-5.56-.668-.668c-.365-.366-.967-.37-1.337 0l-4.346 4.35-4.486-4.487c-.293-.293-.83-.232-1.2.137l-.667.668 5.573 5.573zM144.747 52.246c-.043.03-.084.065-.122.104-.04.04-.073.08-.104.123l-.03.032c-.293.294-.234.83.136 1.2.043.043.088.082.135.117l5.54 5.56.668-.668c.364-.366.367-.968 0-1.337l-4.335-4.35 4.47-4.486c.293-.29.233-.83-.135-1.2l-.666-.666-5.553 5.573zM23.3 53.81c.044-.032.084-.066.123-.105.038-.038.073-.08.103-.123l.033-.032c.29-.294.232-.83-.138-1.2-.043-.043-.09-.082-.136-.117l-5.54-5.56-.666.668c-.363.368-.366.97.002 1.34l4.334 4.35-4.47 4.485c-.294.294-.233.83.135 1.2l.668.668L23.3 53.81z"/></g>
</symbol>

<symbol id="icon-dotts-l" viewBox="0 0 100 285">
        <g fill="#fff"><circle cx="72.5" cy="2.5" r="2.5"/><circle cx="47.5" cy="257.5" r="2.5"/><circle cx="47.5" cy="157.5" r="2.5"/><circle cx="47.5" cy="182.5" r="2.5"/><circle cx="47.5" cy="232.5" r="2.5"/><circle cx="47.5" cy="27.5" r="2.5"/><circle cx="47.5" cy="52.5" r="2.5"/><circle cx="47.5" cy="127.5" r="2.5"/><circle cx="47.5" cy="102.5" r="2.5"/><circle cx="97.5" cy="282.5" r="2.5"/><circle cx="72.5" cy="282.5" r="2.5"/><circle cx="2.5" cy="143.5" r="2.5"/><circle cx="97.5" cy="2.5" r="2.5"/><path d="M29.035 144.145c.043-.03.084-.065.123-.104.038-.036.073-.08.104-.12l.032-.033c.294-.294.235-.828-.136-1.2-.044-.043-.09-.082-.136-.117l-5.56-5.56-.667.668c-.366.366-.37.968 0 1.337l4.35 4.35-4.487 4.484c-.293.292-.233.83.137 1.2l.668.666 5.572-5.572zM48.253 73.91c-.03-.044-.065-.085-.103-.123-.04-.04-.08-.074-.123-.104l-.033-.033c-.294-.294-.828-.235-1.2.137-.043.043-.082.088-.117.135l-5.56 5.56.67.668c.365.365.967.368 1.337 0l4.348-4.35 4.486 4.486c.293.294.83.233 1.2-.136l.667-.67-5.572-5.57zM46.69 210.035c.03.043.066.084.104.122.04.04.08.074.123.104l.033.035c.294.294.828.235 1.2-.137.043-.043.082-.088.117-.135l5.56-5.56-.67-.668c-.365-.365-.967-.368-1.337 0l-4.348 4.35-4.486-4.486c-.293-.295-.83-.234-1.2.135l-.667.67 5.57 5.57z"/></g>
</symbol>

<symbol id="icon-dotts-r" viewBox="0 0 100 285">
        <g fill="#fff"><g transform="matrix(-1 0 0 1 100 0)"><circle cx="72.5" cy="2.5" r="2.5"/><circle cx="47.5" cy="257.5" r="2.5"/><circle cx="47.5" cy="157.5" r="2.5"/><circle cx="47.5" cy="182.5" r="2.5"/><circle cx="47.5" cy="232.5" r="2.5"/><circle cx="47.5" cy="27.5" r="2.5"/><circle cx="47.5" cy="52.5" r="2.5"/><circle cx="47.5" cy="127.5" r="2.5"/><circle cx="47.5" cy="102.5" r="2.5"/><circle cx="97.5" cy="282.5" r="2.5"/><circle cx="72.5" cy="282.5" r="2.5"/><circle cx="2.5" cy="143.5" r="2.5"/><circle cx="97.5" cy="2.5" r="2.5"/></g><path d="M78.09 144.145c.044-.03.085-.065.124-.104.038-.036.073-.08.104-.12l.032-.033c.294-.294.235-.828-.136-1.2-.044-.043-.09-.082-.136-.117l-5.56-5.56-.667.668c-.364.366-.367.968.003 1.337l4.348 4.35-4.485 4.484c-.293.292-.233.83.137 1.2l.67.666 5.57-5.572zM51.747 81.035c.03.043.065.084.103.122.04.04.08.074.123.104l.033.035c.294.294.828.235 1.2-.137.043-.043.082-.088.117-.135l5.56-5.56-.67-.668c-.365-.365-.967-.368-1.337 0l-4.348 4.35-4.486-4.486c-.293-.295-.83-.234-1.2.135l-.667.67 5.572 5.57zM53.31 202.91c-.03-.044-.066-.085-.104-.123-.04-.04-.08-.074-.123-.104l-.033-.033c-.294-.294-.828-.235-1.2.137-.043.043-.082.088-.117.135l-5.56 5.56.67.668c.365.365.967.368 1.337 0l4.348-4.35 4.486 4.486c.293.294.83.233 1.2-.136l.667-.67-5.57-5.57z"/></g>
</symbol>

<symbol id="icon-dotts-t" viewBox="0 0 286 100">
        <g fill="#fff"><g transform="matrix(0 1 1 0 .5 0)"><circle cx="72.5" cy="2.5" r="2.5"/><circle cx="47.5" cy="257.5" r="2.5"/><circle cx="47.5" cy="157.5" r="2.5"/><circle cx="47.5" cy="182.5" r="2.5"/><circle cx="47.5" cy="232.5" r="2.5"/><circle cx="47.5" cy="27.5" r="2.5"/><circle cx="47.5" cy="52.5" r="2.5"/><circle cx="47.5" cy="127.5" r="2.5"/><circle cx="47.5" cy="102.5" r="2.5"/><circle cx="97.5" cy="282.5" r="2.5"/><circle cx="72.5" cy="282.5" r="2.5"/><circle cx="2.5" cy="143.5" r="2.5"/><circle cx="97.5" cy="2.5" r="2.5"/></g><path d="M143.083 29.027c.03.043.065.084.104.123.038.038.08.073.123.104l.032.032c.294.294.828.235 1.2-.136.043-.043.082-.09.117-.136l5.557-5.56-.668-.667c-.367-.366-.97-.37-1.338 0l-4.35 4.35-4.484-4.487c-.295-.293-.832-.233-1.2.137l-.67.668 5.573 5.572zM74.4 46.69c-.042.03-.083.066-.12.104-.04.04-.075.08-.105.123l-.033.033c-.294.294-.235.828.137 1.2.04.043.086.082.133.117l5.56 5.56.668-.67c.366-.365.37-.967 0-1.337l-4.35-4.348 4.487-4.486c.294-.293.233-.83-.136-1.2l-.67-.667-5.57 5.57zM213.527 48.253c.043-.03.084-.065.122-.103.037-.04.072-.08.102-.123l.033-.033c.294-.294.235-.828-.137-1.2-.044-.043-.09-.082-.136-.117l-5.56-5.56-.668.67c-.365.365-.368.967 0 1.337l4.35 4.348-4.486 4.486c-.294.293-.233.83.136 1.2l.67.667 5.57-5.572z"/></g>
</symbol>

<symbol id="icon-dotts-t-small" viewBox="0 0 166 100">
        <g fill="#fff"><g transform="matrix(0 1 1 0 .5 0)"><ellipse cx="72.5" cy="2.5" rx="2.5" ry="2.5"/><ellipse cx="47.5" cy="97.5" rx="2.5" ry="2.5"/><ellipse cx="47.5" cy="122.5" rx="2.5" ry="2.5"/><ellipse cx="47.5" cy="67.5" rx="2.5" ry="2.5"/><ellipse cx="47.5" cy="42.5" rx="2.5" ry="2.5"/><ellipse cx="97.5" cy="162.5" rx="2.5" ry="2.5"/><ellipse cx="72.5" cy="162.5" rx="2.5" ry="2.5"/><ellipse cx="2.5" cy="83.5" rx="2.5" ry="2.5"/><ellipse cx="97.5" cy="2.5" rx="2.5" ry="2.5"/></g><path d="M83.046 28.027c.03.043.064.084.103.123.037.04.08.073.12.104l.034.032c.293.294.828.235 1.2-.136.042-.043.08-.09.116-.136l5.56-5.56-.67-.668c-.364-.366-.966-.37-1.336 0l-4.347 4.35-4.486-4.487c-.29-.295-.83-.234-1.197.135l-.668.668 5.572 5.573zM15.155 46.69c-.043.03-.084.065-.122.104-.04.04-.073.08-.104.123l-.034.032c-.293.292-.234.827.136 1.2.043.04.088.08.135.115l5.54 5.56.667-.668c.364-.366.367-.968 0-1.337l-4.335-4.348 4.47-4.487c.292-.293.232-.83-.136-1.2l-.666-.668-5.555 5.573zM148.797 48.253c.043-.03.083-.065.122-.104.036-.04.07-.08.1-.125l.034-.032c.293-.294.234-.83-.136-1.2-.044-.043-.09-.082-.137-.117l-5.54-5.56-.665.668c-.364.366-.367.968 0 1.338l4.335 4.35-4.47 4.485c-.294.294-.233.83.135 1.2l.666.668 5.555-5.573z"/></g>
</symbol>

<symbol id="icon-driver-notes" viewBox="0 0 50 50">
        <path d="M25.484 36.65c1.064-1.572 6.977-10.238 10.64-13.99 1.587-1.628 4.305-3.776 6.498-5.428l6.35 6.35c.783.782.79 2.046 0 2.837L26.418 48.97c-.784.785-2.048.793-2.84 0L1.03 26.42c-.785-.784-.793-2.048 0-2.84L23.58 1.03c.784-.785 2.048-.793 2.84 0l9.26 9.26c-.776.73-1.465 1.433-1.994 2.065-3.318 3.96-7.744 12.75-8.31 13.88-.41-.672-1.9-3.124-2.713-4.526-.777-1.344-2.35-4.234-2.35-4.234s-3.23 1.924-4.703 2.82c-2.13 1.298-6.112 3.763-6.112 3.763s4.378 2.107 7.052 4.23c1.815 1.44 5.485 4.56 7.523 6.583.62.614 1.033 1.23 1.244 1.584v.44l.136-.202.03.06v-.105z" fill="#9CA5BF"/>
</symbol>

<symbol id="icon-email" viewBox="0 0 21 20">
        <path d="M12.926 7.567c-.596-.558-1.397-.9-2.275-.9-1.836 0-3.332 1.5-3.332 3.333 0 1.842 1.496 3.333 3.334 3.333.808 0 1.55-.287 2.126-.766.15.787.694 1.183 1.625 1.183 1.55 0 2.673-1.542 2.673-3.658 0-1.484-.577-2.934-1.585-3.975-1.224-1.275-3.04-1.95-5.253-1.95-3.447 0-6.25 2.808-6.25 6.25 0 3.45 2.803 6.25 6.25 6.25 1.1 0 2.18-.292 3.126-.834.198-.116.267-.375.152-.575-.115-.19-.37-.266-.57-.15-.82.475-1.755.725-2.708.725-2.987 0-5.417-2.425-5.417-5.416C4.817 7.433 7.247 5 10.234 5c1.98 0 3.59.583 4.654 1.692.86.89 1.352 2.133 1.352 3.4 0 1.366-.644 2.825-1.84 2.825-.833 0-.833-.4-.833-.834v-.47c.266-.477.417-1.027.417-1.613 0-.583-.15-1.133-.417-1.61v-.473c0-.225-.185-.417-.416-.417-.08 0-.16.025-.223.067zm-.192 3.816c-.448.674-1.215 1.117-2.083 1.117-1.377 0-2.5-1.117-2.5-2.5 0-1.375 1.123-2.5 2.5-2.5.87 0 1.637.447 2.085 1.12v2.763zM10.65 20c-5.513 0-10-4.483-10-10s4.487-10 10-10c5.515 0 10 4.483 10 10s-4.485 10-10 10zm0-19.167C5.598.833 1.485 4.95 1.485 10c0 5.058 4.113 9.167 9.167 9.167 5.056 0 9.167-4.11 9.167-9.167 0-5.05-4.11-9.167-9.167-9.167z" fill="#333"/>
</symbol>

<symbol id="icon-hand" viewBox="0 0 58 60">
        <g fill="#fff"><path d="M52 41.312H42c-.55 0-1-.443-1-.984 0-.54.45-.984 1-.984h10c2.21 0 4-1.77 4-3.933V5.904c0-2.174-1.79-3.935-4-3.935H12c-2.21 0-4 1.76-4 3.935v20.655c0 .54-.45.984-1 .984s-1-.442-1-.983V5.9C6 2.646 8.69 0 12 0h40c3.31 0 6 2.646 6 5.902v29.51c0 3.255-2.69 5.9-6 5.9M57 11.803H7c-.55 0-1-.442-1-.983 0-.54.45-.984 1-.984h50c.55 0 1 .443 1 .984 0 .54-.45.983-1 .983M14 7.87c-1.1 0-2-.885-2-1.968 0-1.082.9-1.968 2-1.968s2 .886 2 1.968c0 1.083-.9 1.967-2 1.967M20 7.87c-1.1 0-2-.885-2-1.968 0-1.082.9-1.968 2-1.968s2 .886 2 1.968c0 1.083-.9 1.967-2 1.967M26 7.87c-1.1 0-2-.885-2-1.968 0-1.082.9-1.968 2-1.968s2 .886 2 1.968c0 1.083-.9 1.967-2 1.967"/><path d="M2 57.05h8V39.343H2V57.05zm9 1.967H1c-.55 0-1-.443-1-.984v-19.67c0-.543.45-.986 1-.986h10c.55 0 1 .443 1 .985v19.67c0 .542-.45.985-1 .985zM6 55.082c-1.1 0-2-.884-2-1.966 0-1.083.9-1.968 2-1.968s2 .885 2 1.968c0 1.082-.9 1.966-2 1.966M55 57.048H11c-.55 0-1-.442-1-.982 0-.542.45-.985 1-.985h42.4c-1.35-2.033-5.38-5.9-16.4-5.9H18c-.55 0-1-.442-1-.983 0-.54.45-.983 1-.983h19c16.59 0 18.88 8.26 18.97 8.617.07.285.01.6-.18.836-.19.245-.48.383-.79.383M30 49.18c-.37 0-.72-.197-.89-.542-.13-.236-2.85-5.36-9.11-5.36h-9c-.55 0-1-.443-1-.984 0-.54.45-.983 1-.983h9c7.53 0 10.76 6.18 10.89 6.444.25.482.05 1.082-.44 1.318-.15.07-.3.11-.45.11"/></g>
</symbol>

<symbol id="icon-inspire-me" viewBox="0 0 82 26">
        <g fill="#9CA5BF"><path d="M9.51 25.41c-.406 0-.794-.13-1.1-.376-.705-.566-1.18-2.405 1.407-3.937 2.587-1.533 7.982-3.77 17.203-4.765-.066.466-.142 1.01-.153 1.767-3.314.34-8.056 1.29-11.507 2.77-1.806.774-3.327 1.765-3.737 2.887-.414 1.13-1.297 1.65-2.114 1.65M71.415 22.364c-.752 0-1.736-.165-2.98-.622-3.44-1.26-5.002-3.937-5.002-3.937S56.02 16.77 46.215 16.77c-3.9 0-8.18.164-12.518.62.055-.46.125-1.06.11-1.65 2.756-.214 5.787-.31 8.866-.31 7.557 0 15.4.576 20.152 1.365 0 0-1.65-3.064-1.786-7.528-.145-4.712.973-7.453 3.516-7.577l.123-.003c2.29 0 3.107 3.186 3.107 3.186s.78-1.635 2.356-1.656h.05c1.46 0 3.46.908 2.87 7.964 0 0 .167-.05.385-.05.22 0 .495.054.694.273 0 0 .57-3.202 2.546-3.202.07 0 .14.005.214.014 2.006.226 2.097 2.996 2.1 3.812.01 1.773-.603 2.73-1.482 2.73-.282 0-.59-.097-.915-.298 0 0 .047 3.252 1.452 3.29h.033c1.385 0 2.285-2.25 2.285-2.25s.285-.607.63-.607c.026 0 .052.005.08.013.423.12.407.647-.107 1.595-.66 1.217-1.836 2.633-3.664 2.633h-.004c-1.758 0-3.642-1.095-3.35-6.142 0 0-.09-.475-.557-.475h-.03c-.317.013-.565.265-.565.265s-.124.742-.43 1.605c-.42 1.175-1.043 2.082-1.825 2.082-.126 0-.256-.024-.39-.073-.913-.338-.64-1.442-.342-2.276.144-.403.644-1.423.88-4.442.28-3.535-.44-4.948-1.22-4.948-.036 0-.073.003-.11.01-.82.135-1.187 1.573-1.187 1.573s.535 2.31.52 4.837c-.016 2.406-.615 3.804-1.574 3.804-.048 0-.098-.003-.148-.01-1.177-.17-1.302-2.083-.95-4.26.427-2.646 1.03-3.937 1.03-3.937s-.37-3.034-1.734-3.034h-.042c-1.335.06-1.75 3.386-1.57 6.846.18 3.513 1.33 5.85 1.81 6.63 0 0 4.08.75 6.214 1.918 1.76.964 1.978 1.838 1.614 2.54-.17.327-.78.72-1.94.72m-5.11-4.096s1.16 1.712 3.54 2.546c.54.19.98.267 1.32.267.992 0 1.115-.667.264-1.174-1.068-.636-4.028-1.476-5.124-1.638M77.5 9.91c-.538 0-.923 2.08-.91 3.39 0 0 .396.51.797.51.18 0 .36-.103.506-.402.38-.786.172-3.452-.376-3.497H77.5m-10.123-.715c-.415 1.37-.763 4.417-.256 4.417h.008c.667-.035.25-4.416.25-4.416M29.727 21.995c-.398 0-2.098-.215-1.985-3.908.128-4.18 1.82-8.54 1.25-8.992-.132-.105-.323-.153-.547-.153-.628 0-1.516.374-2.1.89.32.59 1.15 2.03 1.084 3.202-.064 1.092-.678 2.31-2.637 2.464-.097.008-.19.012-.28.012-1.745 0-2.357-1.38-2.322-2.35.038-1.076.84-2.127 1.456-2.697l-.295-.515s-1.526 1.016-2.04 2.29c-.464 1.146-.084 3.974-2.18 4.095-.035.002-.073.003-.113.003-.43 0-1.03-.135-1.325-.682 0 0 .676-1.033.767-3.092.123-2.8-.06-4.07-.87-4.07h-.03c-.7.027-1.28.665-1.315 2.966-.002.118 0 1.148 0 1.27-.013 2.29-.16 4.674-1.928 4.987-.12.02-.232.03-.338.03-.745 0-1.193-.454-1.287-.582 0 0 .66-.994.754-2.784.047-.904.052-1.766.048-2.487-.006-1.2-.037-2.026-.552-2.026-.027 0-.056.002-.085.007-.805.124-1.992 1.573-2.487 2.24 0 0 .038 3.832-.4 5.292-.552 1.842-1.96 2.778-3.244 2.826h-.074c-1.255 0-2.347-1.18-1.593-3.078.63-1.588 2.467-3.422 2.467-3.422l-.006-3.67s-2.78 1.414-4.825 1.414h-.072C.323 11.44 0 9.986 0 9.23c0-.955.518-2.944 3.353-4.85.753-.506 1.772-.974 2.61-1.202.34-.093.886-.22 1.483-.22.87 0 1.85.268 2.45 1.29.365.62.504 1.685.49 3.23 0 0 5.414-2.646 11.948-4.78C27.676.95 32.938.1 36.138.1c.315 0 .61.01.884.026 2.955.178 4.443 1.143 4.696 2.575.028.123.044.25.045.38l-.002.063.003.016h-.002c-.032.91-.752 1.64-1.642 1.646h-.013c-.768 0-1.414-.54-1.604-1.27V3.53c-.02-.083-.037-.167-.046-.256-.114-.4-.503-1.15-1.844-1.302-.267-.03-.722-.06-1.36-.06-2.48 0-7.716.448-15.29 3.06-7.71 2.66-9.587 3.864-9.587 3.864l.012 1.742s1.3-1.45 2.475-1.742c.212-.052.4-.076.57-.076.665 0 1.028.365 1.176.822 0 0 1.104-1.954 3.266-2.42.258-.056.5-.082.724-.082 1.865 0 2.577 1.825 2.572 3.83 0 0 .76-1.022 1.845-1.71 0 0-.536-1.196-.108-2.264.463-1.158 1.523-1.526 2.237-1.566l.086-.002c.772 0 1.58.56 1.427 1.708-.098.746-.54 1.193-1.012 1.564l.202.362s1.1-.81 2.404-1c.19-.028.367-.04.53-.04.767 0 1.194.26 1.194.26s.17-1.553 1.048-2.674c.622-.795 1.702-1.425 2.89-1.425.665 0 1.366.2 2.037.68 1.26.903 1.583 2.697 1.583 2.697s.285-.413.813-.806c.626-.465 1.387-.836 2.066-.9.088-.01.17-.014.25-.014 1.293 0 1.588 1.072 1.72 2.418.01.104.055.856.036 1.178 0 0 .35-.675 1.147-1.558 0 0-.535-1.02-.5-2.432.037-1.47.43-3.113 1.813-3.164h.054c1.278 0 1.366 1.7 1.304 2.345-.1 1.04-.396 1.806-.713 2.324 0 0 .214.196.53.196.015 0 .03 0 .043-.002.54-.03 1.077-.666 1.883-.85.174-.04.33-.06.47-.06.38 0 .634.142.77.38-.046.085-1.052 1.864-1.13 4.086-.072 2.018.225 2.556.768 2.556.093 0 .194-.016.3-.043 1.056-.265 1.636-.973 1.636-.973s-.397-1.187-.307-2.806c.068-1.28.592-4.006 2.913-4.133l.1-.002c.836 0 2.202.543 2.084 2.948 0 0-.113 2.157-2.106 3.69 0 0 .268 1.68 1.79 1.68.072 0 .146-.003.223-.01 1.285-.13 2.055-1.327 2.477-2.16.18-.358.44-.52.65-.52.274 0 .46.28.26.753-.496 1.186-1.608 3.226-4.35 3.226h-.06c-2.25-.025-3.262-1.84-3.262-1.84s-1.54 1.344-3.333 1.472c-.09.006-.178.01-.265.01-1.244 0-2.14-.677-2.156-2.513-.007-.776.215-2.326.215-2.326s-.99-.143-1.636-1.013c0 0-.93.937-1.644 2.607 0 0-.067.44-.138.833-.1.557-.302 1.144-.434 1.393-.37.69-.87.922-1.44.922h-.06c-.758-.022-1.202-.465-1.37-.906 0 0 .632-.378.765-2.583.127-2.128-.01-3.514-.66-3.514-.134 0-.29.06-.472.185-.413.287-.924 1.122-.91 1.502.043 1.064.01 3.088-.807 4.417-.51.833-1.105 1.16-1.626 1.16-.76 0-1.362-.694-1.322-1.54.06-1.306 1.01-2.12 1.01-2.12s.212-1.313.13-2.84c-.084-1.513-.462-2.832-1.11-2.832h-.02c-.66.024-1.165.54-1.237 4.246-.057 2.908.058 5.887-.038 7.707-.116 2.245-.802 4.71-2.82 4.71h-.023s-.03.005-.083.005m.32-11.366c-.972 3.222-1.714 8.228-.856 8.294h.02c.316 0 .79-.612.837-2.59.053-2.19 0-5.705 0-5.705m-22.562 4.4c-.755.817-2.423 3.634-1.422 3.792.034.005.067.008.1.008 1.24 0 1.322-3.8 1.322-3.8M24.05 11.33c-.27.32-.77.936-.817 1.684-.037.562.35 1.102.837 1.102.025 0 .05 0 .075-.004.702-.08.83-.898.54-1.537-.292-.64-.635-1.242-.635-1.242m30.1-4.782c-.022 0-.043.003-.063.007-.446.09-.812.49-.975 2.053-.127 1.196.112 2.247.112 2.247s1.357-1.118 1.498-2.61c.123-1.303-.283-1.696-.574-1.696M6.013 4.287c-.56 0-1.112.245-1.33.343-1.06.477-2.302 1.434-3.022 2.502-1.254 1.86-.77 3.395.953 3.395.206 0 .43-.022.67-.068C5 10.132 7.503 8.8 7.503 8.8l.014-2.296c0-1.786-.76-2.22-1.504-2.22m19.38 1.883c-.022 0-.046 0-.07.004-.466.086-.455.65-.323 1.08.123.394.24.6.24.6.266-.19.59-.698.592-1.078.002-.298-.162-.608-.438-.608m19.69-2.653h-.01c-.615.037-.566 2.07-.162 2.548.426-.585.64-2.548.173-2.548"/></g>
</symbol>

<symbol id="icon-link" viewBox="0 0 10 9">
        <g fill="#2196F3"><path d="M8.22 1l.707.707L4.685 5.95l-.708-.707L8.22 1zM2.952 4h3v3h-3zM9.677 3.25l-3-3h3v3zM5.78 2L4.8 3.008H2.005v5.03h4.938v-2.95l1.01-1.01V9h-7V2H5.78z"/></g>
</symbol>

<symbol id="icon-location" viewBox="0 0 60 59">
        <g fill="#fff"><path d="M29 43.28c-.55 0-1-.444-1-.985V16.72c0-.54.45-.982 1-.982s1 .442 1 .983v25.576c0 .54-.45.984-1 .984M59 59.022l-.27-.04-17.76-4.85-21.75 4.86c-.16.04-.33.04-.49-.01l-18-4.92c-.43-.116-.73-.5-.73-.942V24.594c0-.304.15-.6.39-.786.25-.186.58-.246.88-.168l17.75 4.86 2.7-.61c.53-.118 1.07.216 1.19.747.13.53-.21 1.054-.75 1.17l-2.94.66c-.16.04-.33.04-.49-.01L2 25.883V52.37l17.02 4.654 21.76-4.868c.16-.03.33-.03.49.01L58 56.74V30.26l-17.03-4.65-4.75 1.062c-.54.118-1.08-.208-1.2-.738-.12-.532.21-1.062.75-1.18l5.01-1.12c.16-.032.33-.032.49.008l18 4.918c.43.117.73.512.73.955V58.04c0 .304-.15.6-.4.776-.17.14-.38.208-.6.208M32.53 8.38c-.56 0-1-.432-1-.983 0-.827-.69-1.495-1.53-1.495-.55 0-1-.442-1-.984s.45-.984 1-.984c1.95 0 3.53 1.555 3.53 3.463 0 .55-.45.983-1 .983M19 59.017c-.55 0-1-.443-1-.984V29.51c0-.543.45-.985 1-.985s1 .442 1 .984V58.03c0 .54-.45.984-1 .984M41 54.097c-.55 0-1-.442-1-.982V24.59c0-.542.45-.983 1-.983s1 .44 1 .982v28.524c0 .54-.45.982-1 .982"/><path d="M29 1.966c-3.86 0-7 3.09-7 6.886 0 3.796 3.14 6.885 7 6.885s7-3.09 7-6.885c0-3.797-3.14-6.886-7-6.886zm0 15.74c-4.96 0-9-3.976-9-8.854C20 3.972 24.04 0 29 0s9 3.973 9 8.852c0 4.878-4.04 8.853-9 8.853z"/></g>
</symbol>

<symbol id="icon-logo" viewBox="0 0 100 72">
        <path d="M38.39 9.66c.046.197.12.385.32.377.187-.007.255-.13.267-.32.163-2.476.43-5.402.212-7.677-.01-.08-.058-.274-.058-.274-.13-.6-1.118-.91-1.993-.43-.727.377-.83 1.015-.63 1.56 1.114 3.005 1.39 4.66 1.88 6.763zm-1.55 2.265s-.024.073-.026.104c-.074.896-.324 1.81-.083 3.347.02.12.066.29.255.27.395.03.38-.825 1.345-2.725.104-.218.025-.837-.5-1.12-.622-.344-.923-.1-.99.122zm2.285 3.598c.363.167.642-.647 2.207-2.107.175-.17.312-.78-.088-1.233-.468-.544-.836-.418-.976-.23 0 0-.048.06-.06.09-.38.822-.93 1.6-1.23 3.137-.024.12-.037.295.147.343zm.747 8.79c-.142-.06-.24.088-.296.2-.744 1.402-.803 2.285-1.107 3.255-.015.034-.026.127-.026.127-.046.28.07.74.712.776.602.048.953-.667.945-1.004-.107-2.566.117-3.298-.23-3.353zm-3.33-14.34c.09.158.228.2.397.14.16-.056.16-.21.123-.38-.5-2.173-1.245-4.87-2.02-6.773-.026-.066-.117-.22-.117-.22-.27-.485-1.258-.518-1.888.128-.53.513-.447 1.105-.13 1.523 1.73 2.298 2.67 3.9 3.632 5.584zm4.124.294c.214.055.342-.073.42-.285.998-2.738 2.31-5.63 2.815-8.27.02-.093.03-.33.03-.33.05-.72-1.075-1.515-2.223-1.265-.943.18-1.338.842-1.29 1.528.266 3.763.052 5.6-.092 8.138-.013.237.113.426.342.484zm-10.86-3.42c2.368 1.623 3.37 2.52 4.813 3.81.134.12.274.16.416.048.135-.105.202-.227.113-.375-1.22-2.002-2.523-3.978-3.776-5.438-.046-.054-.182-.172-.182-.172-.407-.373-1.35-.19-1.746.624-.338.656-.07 1.21.36 1.504zm1.382 14.02c.06.727.683 1.105.96 1.053 2-.25 3.083-.185 3.155-.666.07-.21-.093-.32-.215-.38-1.89-.552-2.206-.863-3.13-1.07-.032-.008-.116-.004-.116-.004-.247 0-.732.246-.654 1.066zm4.1-7.494c-.002-.24-.34-.758-.935-.777-.705-.032-.858.932-.82 1.16 0 0 0 .668 1.41 3.132.067.1.184.23.342.128.367-.146-.03-1.518.002-3.643zm-3.696 4.172c.786.46 1.384.935 2.904 1.375.12.036.296.064.37-.123.22-.36-.693-.815-1.96-2.56-.15-.193-.753-.39-1.267-.012-.62.44-.303 1.088-.13 1.248 0 0 .053.057.08.072zm11.606 3.53s-.008-.018-.014-.023c-.163-.176-.22-.317-.613-.54-.03-.02-.08-.04-.133.004-.128.077.054.226.147.768.012.06.164.156.386.096.264-.068.253-.25.228-.304zm1.304 6.614c.01.04.058.15.058.15.13.324.55.74 1.26.362.672-.343.59-1.335.364-1.69-1.766-2.67-1.96-3.808-2.366-3.643-.188.03-.197.25-.188.407.108 1.982.575 3.175.872 4.41zm-.348-7.986c.316-.29.156-.543.077-.6 0 0-.022-.022-.035-.026-.368-.133-.56-.29-1.286-.325-.058-.004-.143.003-.186.104-.118.203.254.284.814.99.065.08.353.102.617-.145zm-1.058-5.9s-.053.016-.07.032c-.536.393-.94.536-1.676 1.482-.058.072-.13.19-.026.32.176.307.643-.132 2.172-.368.172-.03.476-.398.376-.928-.11-.632-.62-.602-.776-.54zM27.15 9.934c2.786.658 4.176 1.226 5.982 1.907.17.063.348.03.442-.125.088-.146.074-.206-.05-.325-1.506-1.427-3.74-2.915-5.538-3.883-.062-.034-.232-.096-.232-.096-.512-.2-1.342.39-1.42 1.293-.082.735.31 1.115.816 1.234zm15.248 18.818c.69-.14.858-1.05.743-1.426-.925-2.837-.82-3.597-1.222-3.55-.178-.02-.24.176-.27.32-.39 1.804-.267 2.68-.303 3.863-.003.042.013.15.013.15.037.325.312.804 1.04.642zm.215-11.527c.024.323.504.12 1.677.47.134.037.474-.164.58-.647.128-.574-.246-.73-.38-.736 0 0-.043-.003-.06.003-.514.14-.852.115-1.692.648-.067.04-.157.115-.125.26zm1.304-5.036c.16.21.373.204.598.067 1.885-1.157 3.754-2.332 5.49-3.575 1.734 1.243 3.603 2.418 5.488 3.575.225.137.44.142.598-.068.17-.223.016-.466-.167-.675-1.974-2.23-3.436-3.58-5.918-7.234-2.483 3.655-3.945 5.005-5.918 7.235-.184.21-.337.452-.17.674zM47.31 26.2c.23.315.8.646 1.458.04.63-.555.268-1.6-.07-1.92-2.63-2.38-2.912-3.18-3.303-2.888-.196.085-.143.325-.09.49.657 2.104 1.246 2.885 1.905 4.13.022.046.1.148.1.148zm-4.803-15.267c.22.143.42.065.584-.142 2.13-2.677 4.425-5.284 5.964-8.04.054-.097.153-.356.153-.356.324-.787-.514-2.22-1.888-2.373-1.12-.155-1.685.434-1.884 1.218-1.098 4.298-1.954 6.245-3.055 9.022-.102.26-.107.52.127.67zm7.498 21.46c.6-.87 1.218-1.913 1.77-3.172.046-.103.07-.204.07-.3 0-.44-.488-.623-.677-.655-.357-.06-1.968-.06-2.325 0-.19.03-.678.213-.678.655 0 .095.025.196.07.3.553 1.258 1.17 2.302 1.77 3.17zm-5.114 5.39c.43-.243.67-.64.654-1.09-.008-.223-.077-.452-.202-.663l-.402-.682c-.85-1.434-1.028-1.732-1.82-3.743-.304-.776-.87-1.605-1.54-1.605-.146.002-.47.06-.668.27-.118.12-.173.275-.166.455v.026c.265 4.137 2.01 6.27 2.024 6.288.687.95 1.382 1.19 2.122.746zM34.31 25.195c1.66-1.623 2.55-1.88 2.39-2.285-.038-.202-.227-.2-.358-.18-1.668.237-2.534.79-3.44 1.154-.032.01-.1.062-.1.062-.21.14-.366.534.19 1.08.46.463 1.124.348 1.317.17zm1.427 8.79c-.188-1.243-.252-1.66-.252-2.905 0-.245.002-.524.007-.9 0-.732-.2-1.594-.763-1.81-.128-.05-.432-.11-.68.006-.144.068-.245.186-.3.347-.466 1.363-.703 2.702-.703 3.978 0 1.243.226 1.95.234 1.978.255 1.026.767 1.462 1.558 1.336.62-.082 1.018-.522 1.018-1.124 0-.068-.006-.136-.016-.204l-.104-.7zm4.548 1.143c-.53-1.496-.64-1.806-.993-3.835-.137-.784-.513-1.658-1.166-1.763-.142-.022-.476-.02-.71.155-.137.102-.22.243-.245.422-.11.71-.163 1.417-.163 2.098 0 2.65.823 4.152.83 4.163.468 1.007 1.09 1.348 1.898 1.044.546-.188.87-.613.87-1.14 0-.147-.025-.298-.078-.446l-.246-.7zm-8.948-9.28c-.145.034-.26.124-.34.266-1.397 2.423-1.548 4.39-1.548 5.122 0 .218.013.337.013.333.04 1.01.423 1.517 1.168 1.556.317.025.594-.058.8-.24.217-.19.345-.474.363-.8l.037-.67c.072-1.433.085-1.732.475-3.548.04-.18.084-.455.084-.76 0-.387-.074-.894-.43-1.132-.107-.07-.375-.188-.62-.13zM25.33 13.03c2.353-.228 3.973.112 6.048.144.207.003.372-.062.42-.214.045-.146-.032-.246-.226-.29-2.2-.682-4.66-1.493-6.463-1.624-.06-.005-.206.005-.206.005-.437.02-.982.723-.64 1.34.256.49.685.68 1.066.64zm12.79 10.747c-.1-.102-.238-.008-.326.066-1.134.943-1.64 1.754-2.243 2.482-.02.025-.062.1-.062.1-.137.224-.2.664.34.925.503.257 1.058-.233 1.168-.527.81-2.25 1.402-2.873 1.125-3.046zM24.432 16.27c2.267-.708 3.58-.734 5.958-1.197.252-.05.418-.164.438-.336.016-.166-.116-.252-.36-.246-2.6-.11-4.893-.215-6.533.074-.052.01-.176.05-.176.05-.376.11-.666.77-.337 1.26.258.406.658.505 1.008.396zm.67 3.89c1.81-1.307 3.044-1.82 4.782-2.952.174-.114.24-.31.197-.463-.043-.146-.195-.238-.38-.165-1.99.427-4.336 1.065-5.906 1.963-.05.03-.166.118-.166.118-.352.26-.39 1.24.235 1.56.484.265.944.184 1.24-.06zm4.927-1.044c-.06-.097-.226-.185-.45-.08-1.81.858-3.35 2.113-5.125 3.64-.054.045-.145.203-.145.203-.315.452-.253 2.035.596 2.33.69.255 1.29-.385 1.547-.843 1.34-2.39 2.37-3.203 3.458-4.612.11-.143.3-.348.12-.64zm.237 4.3c0-.282-.013-.503-.155-.658-.09-.094-.31-.193-.544-.19-.143.002-.268.062-.37.177-2.267 2.487-2.364 4.425-2.365 4.443-.037.203-.055.32-.055.485 0 .622.14 1.122.678 1.278.28.093.55.075.78-.05.24-.13.42-.367.505-.672l.17-.603c.37-1.324.263-1.353 1-2.965.09-.197.357-.764.357-1.245zm31.91-11.613c-.525.284-.604.903-.5 1.12.968 1.9.952 2.757 1.346 2.725.19.02.236-.15.253-.27.24-1.536-.01-2.45-.083-3.35 0-.03-.026-.103-.026-.103-.066-.223-.367-.466-.99-.122zm-.878-1.766c.2.008.272-.18.32-.378.484-2.106.763-3.76 1.875-6.763.2-.547.098-1.184-.627-1.56-.877-.483-1.865-.173-1.995.428 0 0-.048.195-.055.274-.22 2.275.05 5.2.212 7.675.012.192.08.314.268.32zm-.45 18.634c.64-.034.758-.495.713-.774 0 0-.012-.092-.024-.126-.305-.972-.365-1.855-1.108-3.257-.058-.112-.155-.26-.297-.2-.345.055-.12.787-.23 3.352-.008.337.344 1.052.946 1.006zm-2.087-16.486c-.4.452-.263 1.064-.088 1.233 1.565 1.46 1.844 2.274 2.207 2.107.185-.048.17-.223.146-.343-.302-1.537-.85-2.314-1.23-3.137-.012-.03-.06-.09-.06-.09-.14-.187-.508-.312-.976.23zm17.452 6.36c-1.57-.898-3.917-1.536-5.905-1.963-.185-.072-.337.02-.382.166-.044.153.022.35.197.463 1.738 1.13 2.97 1.644 4.782 2.95.295.244.756.325 1.24.062.623-.32.586-1.298.234-1.56 0 0-.113-.088-.163-.117zm-5.407 4.2c-.103-.114-.228-.173-.37-.176-.236-.002-.454.096-.544.19-.143.156-.156.377-.156.658 0 .48.268 1.047.358 1.243.736 1.61.63 1.64 1 2.964l.168.603c.085.305.265.545.505.674.23.124.5.143.78.05.54-.155.68-.655.68-1.277 0-.165-.02-.282-.057-.485-.002-.017-.1-1.955-2.365-4.443zm-3.602 1.203s-.068-.05-.1-.062c-.905-.363-1.772-.918-3.438-1.153-.132-.02-.32-.023-.36.18-.158.406.732.663 2.392 2.285.192.18.857.294 1.317-.17.555-.545.4-.94.188-1.08zm8.344-1.27c-1.776-1.527-3.312-2.782-5.124-3.64-.225-.105-.388-.018-.448.08-.182.292.007.497.118.64 1.087 1.408 2.117 2.222 3.457 4.612.258.456.858 1.097 1.547.84.85-.293.912-1.876.596-2.33 0 0-.092-.158-.146-.204zm-6.878 3.173c-.244-.06-.512.058-.62.128-.356.238-.43.745-.43 1.13 0 .307.045.583.083.76.39 1.818.403 2.116.475 3.55l.034.67c.018.325.147.61.362.8.21.18.485.264.8.24.746-.04 1.13-.548 1.17-1.557 0 .006.014-.113.014-.33 0-.734-.15-2.7-1.548-5.123-.08-.142-.195-.232-.34-.267zm-3.02-13.254c-.592.02-.93.536-.932.777.032 2.125-.366 3.497 0 3.643.16.102.276-.028.343-.128 1.408-2.464 1.41-3.132 1.41-3.132.038-.228-.114-1.192-.82-1.16zm2.556.364c.048.152.213.217.42.214 2.075-.033 3.696-.373 6.047-.143.38.04.81-.15 1.066-.64.344-.618-.202-1.32-.64-1.34 0 0-.143-.01-.202-.004-1.804.13-4.265.942-6.464 1.624-.194.044-.27.144-.226.29zm1.33 1.53c-.244-.006-.376.08-.36.247.02.172.187.286.438.336 2.377.463 3.692.49 5.96 1.196.348.106.75.01 1.006-.397.33-.49.04-1.152-.334-1.262 0 0-.125-.04-.177-.05-1.64-.287-3.932-.182-6.532-.07zm-4.395 4.31c.074.187.25.16.37.123 1.52-.44 2.118-.915 2.903-1.375.03-.015.082-.072.082-.072.172-.16.49-.808-.128-1.248-.515-.376-1.12-.18-1.267.013-1.267 1.746-2.18 2.2-1.96 2.56zm-.172-8.094c.145.11.285.073.42-.047 1.443-1.29 2.445-2.188 4.81-3.81.43-.296.7-.85.363-1.505-.395-.814-1.34-.996-1.747-.624 0 0-.135.118-.182.173-1.253 1.46-2.557 3.435-3.775 5.438-.09.148-.02.27.112.375zm-1.9-.59c.17.058.306.017.397-.14.962-1.687 1.9-3.287 3.634-5.582.316-.42.4-1.01-.13-1.524-.63-.645-1.62-.613-1.887-.13 0 0-.09.156-.118.222-.774 1.903-1.52 4.6-2.02 6.774-.037.17-.037.323.125.38zm4.79 11.806c.28.052.9-.326.96-1.054.08-.82-.406-1.066-.653-1.066 0 0-.083-.005-.116.005-.923.206-1.24.517-3.13 1.068-.12.06-.283.17-.214.38.072.482 1.157.416 3.156.667zm-1.424-10.204c.094.155.273.188.442.126 1.806-.68 3.195-1.25 5.98-1.906.51-.12.898-.5.817-1.234-.078-.902-.908-1.49-1.42-1.29 0 0-.17.06-.23.095-1.8.967-4.034 2.455-5.54 3.883-.123.12-.138.18-.05.326zm-7.778 3.602c-.735-.946-1.138-1.088-1.674-1.48-.018-.017-.07-.035-.07-.035-.157-.062-.665-.092-.777.54-.1.53.205.898.377.928 1.53.238 1.996.676 2.17.37.105-.13.033-.25-.026-.322zm.267-5.336c.076.212.204.34.42.285.227-.06.353-.248.34-.485-.143-2.538-.357-4.375-.092-8.138C59.64.96 59.246.3 58.303.12c-1.148-.25-2.274.543-2.223 1.265 0 0 .01.236.027.327.504 2.642 1.818 5.534 2.817 8.272zM55.72 17.7c1.172-.35 1.653-.15 1.676-.47.033-.148-.06-.223-.125-.263-.84-.533-1.176-.51-1.69-.648-.02-.007-.062-.004-.062-.004-.132.005-.507.162-.377.735.105.483.446.684.58.648zm1.32 3.682c.222.06.375-.035.387-.096.093-.542.276-.69.147-.768-.055-.043-.105-.022-.135-.005-.394.225-.45.366-.614.542-.007.005-.014.024-.014.024-.024.053-.036.235.23.303zm.246-2.52c-.042-.102-.128-.11-.184-.105-.726.034-.918.19-1.285.324-.013.004-.038.025-.038.025-.08.06-.24.31.077.6.263.248.552.225.616.147.562-.706.934-.787.815-.99zm.325 9.893c.73.162 1.006-.317 1.04-.643 0 0 .02-.107.016-.15-.036-1.182.09-2.06-.304-3.864-.03-.143-.09-.34-.27-.32-.403-.046-.296.714-1.222 3.55-.116.377.054 1.288.742 1.427zm-1.946 1.626c.02-.063.028-.124.03-.182.023-.498-.513-.68-.723-.71-.69-.085-1.71.455-2.202 1.223-1.29 1.996-1.297 2.53-2.512 3.92l-.25.257-.252-.258c-1.215-1.388-1.223-1.924-2.512-3.92-.492-.767-1.51-1.307-2.202-1.222-.21.03-.746.212-.724.71.003.058.013.12.032.182 1.23 4.27 3.53 6.514 3.55 6.53.68.66 1.47 1.047 2.108.99.637.057 1.428-.33 2.11-.99.02-.016 2.317-2.26 3.55-6.53zM58.43 30c-.67 0-1.235.83-1.54 1.605-.79 2.01-.968 2.31-1.82 3.744l-.402.682c-.125.21-.195.44-.202.662-.017.45.222.85.652 1.09.74.444 1.436.203 2.123-.744.016-.017 1.76-2.15 2.025-6.287v-.026c.007-.18-.047-.334-.164-.456-.2-.21-.523-.265-.67-.267zM50.955 2.75c1.54 2.758 3.835 5.365 5.963 8.043.164.206.364.284.585.142.233-.15.228-.412.126-.67-1.103-2.78-1.96-4.726-3.057-9.024-.2-.78-.763-1.37-1.883-1.215-1.373.154-2.212 1.587-1.887 2.373 0 0 .098.26.152.355zm3.097 12.71c-.012-.2-.205-.256-.403-.283-1.248-.167-2.34-.282-3.647-.51-1.304.228-2.398.343-3.644.51-.2.026-.39.08-.404.282-.01.19.103.27.29.3 1.19.2 2.48.43 3.758.616 1.276-.188 2.568-.42 3.756-.617.19-.03.303-.11.292-.3zm-.828 3.992c-1.093.646-2.036 1.24-3.22 1.873-1.183-.634-2.126-1.227-3.22-1.873-.173-.102-.36-.178-.492-.026-.123.143-.082.276.047.418 1.143 1.25 2.406 2.67 3.664 3.9 1.257-1.23 2.52-2.65 3.665-3.9.13-.142.17-.275.046-.418-.133-.152-.32-.076-.493.026zM55 13.72c.07-.228-.028-.435-.236-.546-1.63-.863-2.97-1.513-4.76-2.638-1.79 1.125-3.132 1.775-4.76 2.638-.208.11-.304.318-.236.545.064.212.24.256.458.213 1.478-.284 3.03-.52 4.538-.81 1.506.29 3.06.526 4.537.81.22.043.397 0 .46-.215zm10.96 14.657c-.247-.117-.55-.057-.678-.008-.564.215-.763 1.077-.763 1.81.004.375.005.654.005.9 0 1.244-.062 1.663-.25 2.905l-.106.7c-.01.068-.016.136-.016.204 0 .6.4 1.04 1.017 1.122.793.127 1.304-.31 1.56-1.335.008-.026.235-.735.235-1.977 0-1.275-.237-2.614-.705-3.976-.054-.162-.155-.28-.3-.347zM53.773 17.38c-.074-.19-.274-.18-.47-.143-1.132.216-2.13.433-3.298.618-1.167-.186-2.165-.402-3.296-.618-.2-.037-.4-.046-.473.142-.068.175.014.286.184.376 1.133.597 2.36 1.265 3.586 1.874 1.223-.608 2.452-1.276 3.584-1.873.168-.09.25-.2.182-.378zm.417 10.823c.707.38 1.128-.037 1.258-.364 0 0 .046-.11.058-.15.297-1.238.764-2.43.873-4.413.006-.157 0-.38-.19-.408-.406-.166-.6.973-2.366 3.642-.225.355-.308 1.346.364 1.69zm10.332-1.777s-.043-.076-.065-.1c-.604-.73-1.108-1.54-2.242-2.483-.09-.074-.225-.168-.327-.066-.277.173.316.795 1.126 3.047.11.293.665.783 1.168.526.54-.26.477-.7.34-.924zm-11.825-.223s.08-.102.103-.147c.658-1.245 1.247-2.027 1.906-4.13.052-.166.104-.406-.09-.49-.393-.292-.673.507-3.304 2.89-.34.318-.7 1.362-.07 1.918.66.605 1.225.274 1.455-.04zm9.898 3.484c-.235-.176-.568-.177-.71-.155-.654.105-1.03.98-1.165 1.763-.354 2.03-.465 2.34-.994 3.834l-.246.696c-.052.148-.08.3-.08.447 0 .526.326.952.872 1.14.808.304 1.43-.037 1.9-1.044.006-.01.83-1.514.83-4.164 0-.68-.056-1.387-.163-2.1-.027-.177-.11-.318-.246-.42zm-4.474 9.285c-.132-.063-.296-.03-.365-.004-.306.117-.414.585-.414.982.004.203.005.354.005.488 0 .674-.034.9-.135 1.573l-.06.38c-.004.04-.006.077-.006.113 0 .326.216.564.55.608.43.07.706-.166.845-.722.002-.014.125-.4.125-1.072 0-.69-.128-1.416-.38-2.155-.032-.087-.086-.15-.165-.187zm-4.08.88c-.36 0-.67.45-.833.87-.43 1.09-.525 1.252-.986 2.03l-.22.37c-.065.113-.103.237-.11.358-.006.244.123.46.356.59.402.24.78.11 1.15-.403.008-.01.954-1.166 1.097-3.408v-.016c.004-.097-.025-.18-.09-.246-.106-.116-.283-.146-.36-.147zm2.26-.17c-.13-.095-.31-.096-.387-.085-.353.058-.557.532-.63.956-.192 1.1-.253 1.268-.54 2.08l-.132.376c-.03.08-.043.16-.043.24 0 .286.177.516.473.618.436.164.774-.022 1.028-.566.003-.006.45-.82.45-2.256 0-.37-.03-.752-.088-1.138-.014-.096-.06-.174-.132-.228zm-11.033 2.95c-.287-.81-.347-.98-.54-2.08-.072-.423-.276-.897-.63-.955-.077-.01-.257-.01-.385.085-.073.054-.117.13-.132.228-.057.387-.087.77-.087 1.138 0 1.436.447 2.25.45 2.257.255.544.592.73 1.03.564.295-.104.472-.333.472-.62 0-.08-.014-.16-.043-.24l-.134-.38zm-2.465-.62c-.102-.674-.136-.9-.136-1.574 0-.134.002-.285.005-.488 0-.397-.11-.864-.414-.982-.07-.026-.234-.06-.368.004-.078.036-.133.1-.162.188-.254.74-.382 1.464-.382 2.155 0 .673.123 1.058.127 1.07.14.557.417.794.846.725.335-.044.55-.282.55-.608 0-.036-.002-.074-.007-.11l-.058-.38zm4.99.74c-.462-.778-.558-.94-.987-2.03-.165-.42-.472-.87-.835-.87-.08.002-.255.032-.362.147-.064.064-.094.147-.09.244v.014c.143 2.242 1.09 3.397 1.096 3.407.374.513.75.644 1.15.403.234-.13.363-.346.355-.59-.006-.12-.043-.245-.11-.36l-.22-.368zM0 40.125h31.817v2.005H0v-2.005zm67.874-.006H99.69v2.002H67.875V40.12zM.007 69.64h99.645v2.004H.007V69.64zM9.23 56.932c-.062-1.38-.14-3.046-.125-4.49h-.047c-.345 1.3-.784 2.745-1.254 4.093L6.267 61.17h-1.49l-1.41-4.57c-.408-1.365-.785-2.825-1.067-4.158h-.03c-.048 1.397-.11 3.094-.19 4.554l-.235 4.3H.043l.705-10.694h2.54l1.38 4.3c.376 1.253.705 2.523.972 3.712h.047c.283-1.158.643-2.475 1.05-3.728l1.46-4.284h2.507l.612 10.694H9.434l-.204-4.364zm5.064-6.33l1.788 4.125c.282.698.5 1.333.752 1.967h.047c.16-.49.347-1.174.598-2.015l1.38-4.08h2.038l-2.085 5.33c-.61 1.557-1.285 3.175-2.04 4.175-.687.872-1.52 1.364-2.632 1.364-.454 0-.737-.05-.987-.144l.157-1.57c.157.047.36.063.66.063.892 0 1.457-.763 1.724-1.366.095-.222.063-.365-.047-.57l-3.53-7.284h2.18zm14.676 0v9.14l1.003.046-.11 4.157H28.39l-.11-2.65h-6.413l-.11 2.65h-1.474l-.094-4.157.845-.047c.408-.744.784-1.522 1.02-2.363.328-1.142.454-2.443.454-3.982V50.6h6.46zm-4.673 3.284c0 1.46-.157 2.776-.502 3.903-.204.696-.5 1.38-.784 1.902h4.03v-7.49H24.3v1.683zm7.196-3.142c.69-.127 1.646-.222 2.948-.222 1.413 0 2.448.3 3.12.873.63.523 1.036 1.364 1.036 2.364 0 1.014-.313 1.854-.91 2.425-.767.778-1.974 1.143-3.338 1.143-.36 0-.69-.017-.94-.065v4.03h-1.914v-10.55zm1.913 4.982c.235.064.55.08.94.08 1.443 0 2.32-.714 2.32-1.968 0-1.19-.814-1.825-2.147-1.825-.535 0-.91.048-1.115.096v3.615zm8.764-1.27c.314-.062.847-.094 1.223-.094 2.164 0 4.124 1.047 4.124 3.443 0 .984-.314 1.73-.83 2.285-.942.983-2.59 1.317-4.078 1.317-1.053 0-1.868-.08-2.354-.143V50.6h1.913v3.857zm0 5.396c.235.047.55.063.94.063 1.255 0 2.384-.682 2.384-2.063 0-1.412-1.24-1.967-2.383-1.967-.39 0-.735.032-.94.063v3.904zm8.34-9.25v10.693h-1.927V50.6h1.928zm4.155 0v3.776c0 1.697-.047 3.268-.125 4.696l.03.016c.55-1.206 1.24-2.49 1.93-3.697l2.79-4.792h1.96v10.696h-1.786v-3.792c0-1.682.015-3.047.14-4.427h-.03c-.503 1.222-1.208 2.555-1.882 3.697l-2.665 4.522h-2.15V50.6h1.788zm1.568-2.35c.048.556.22.97.816.97.593 0 .782-.398.83-.97h1.363c-.094 1.223-.863 1.842-2.227 1.842-1.332 0-2.038-.65-2.148-1.84h1.363zm12.496 3.984h-3.013V50.6h7.98v1.636h-3.04v9.06h-1.93v-9.06zm12.117 4.315h-3.982v3.144h4.452v1.603h-6.38V50.602h6.145v1.602h-4.217v2.76h3.982v1.587zm9.736 4.43c-.454.237-1.458.476-2.728.476-3.355 0-5.393-2.127-5.393-5.38 0-3.522 2.414-5.648 5.644-5.648 1.27 0 2.18.27 2.57.476l-.422 1.555c-.502-.223-1.19-.413-2.07-.413-2.147 0-3.7 1.365-3.7 3.935 0 2.35 1.365 3.856 3.685 3.856.783 0 1.6-.158 2.1-.396l.313 1.538zm4.076-8.743h-3.01V50.6h7.98v1.636h-3.04v9.06h-1.93v-9.06z" fill="#fff"/>
</symbol>

<symbol id="icon-map" viewBox="0 0 21 20">
        <path d="M12.402 1.265l-5.167 3.69V17.71l4.474-3.194c.194-.14.462-.095.6.1.14.194.095.464-.1.602l-5.18 3.7c-.076.054-.164.082-.25.082 0 0-.178-.028-.254-.08L.482 14.6c-.113-.08-.18-.21-.18-.35V.432c0-.162.09-.31.234-.384.144-.074.317-.062.45.033l5.734 4.1c.032-.007.065-.01.098-.01h.033L12.554.096c.072-.06.165-.096.266-.096.015 0 .032 0 .047.003.074.007.146.033.21.078L19.12 4.4c.114.08.182.21.182.35v4.32c0 .237-.193.43-.432.43-.24 0-.432-.193-.432-.43v-4.1l-5.203-3.716V8.75c0 .23-.186.417-.417.417-.23 0-.416-.187-.416-.417V1.265zm-6 3.746L1.165 1.27v12.757l5.237 3.74V5.012zM16.552 20c-.124 0-.24-.055-.32-.15-.35-.42-3.43-4.164-3.43-6.1 0-2.068 1.682-3.75 3.75-3.75s3.75 1.682 3.75 3.75c0 1.936-3.08 5.68-3.43 6.1-.08.095-.196.15-.32.15zm0-9.167c-1.61 0-2.917 1.31-2.917 2.917 0 1.243 1.88 3.867 2.917 5.172 1.036-1.305 2.916-3.93 2.916-5.172 0-1.608-1.308-2.917-2.916-2.917zm-.417 5c-.918 0-1.667-.747-1.667-1.666 0-.92.75-1.667 1.667-1.667.92 0 1.667.748 1.667 1.667 0 .92-.748 1.666-1.667 1.666zm0-2.5c-.46 0-.833.374-.833.834 0 .46.373.833.833.833.46 0 .833-.374.833-.833 0-.46-.373-.834-.833-.834z" fill="#333"/>
</symbol>

<symbol id="icon-mind" viewBox="0 0 60 60">
        <g fill="#fff"><path d="M10.82 46c-1.627 0-2.95 1.34-2.95 3 0 1.65 1.323 3 2.95 3 1.628 0 2.95-1.35 2.95-3 0-1.66-1.322-3-2.95-3zm0 8c-2.712 0-4.918-2.25-4.918-5 0-2.76 2.206-5 4.918-5 2.71 0 4.918 2.24 4.918 5 0 2.75-2.207 5-4.918 5zM1.934 56C.864 56 0 56.88 0 57.96c0 1.09.865 1.97 1.934 1.97 1.07 0 1.934-.88 1.934-1.97 0-1.08-.865-1.96-1.934-1.96"/><path d="M15.917 36.31l.307.46c2.425 3.62 6.397 5.78 10.626 5.78 2.998 0 5.92-1.09 8.222-3.06l.374-.32.463.1c1.207.26 2.447.39 3.676.39 9.797 0 17.48-8.2 17.48-18.66 0-10.66-7.683-19-17.48-19-6.516 0-12.56 3.67-15.775 9.58l-.537.99-.9-.66c-2.2-1.62-4.782-2.48-7.464-2.48-7.138 0-12.944 6.04-12.944 13.47 0 7.42 5.806 13.46 12.943 13.46l.226-.02.78-.03zm10.933 8.24c-4.697 0-9.116-2.3-11.93-6.19h-.01C6.69 38.36 0 31.42 0 22.9 0 14.37 6.69 7.43 14.91 7.43c2.74 0 5.39.78 7.722 2.25C26.305 3.68 32.707 0 39.587 0c10.9 0 19.446 9.22 19.446 21 0 11.59-8.547 20.66-19.446 20.66-1.21 0-2.42-.11-3.62-.34-2.594 2.09-5.816 3.23-9.117 3.23zM16.956 24c-.13 0-.235.11-.235.24 0 .26.47.26.47 0 0-.13-.103-.24-.233-.24zm0 2.48c-1.214 0-2.202-1.01-2.202-2.24 0-1.24.988-2.24 2.202-2.24 1.215 0 2.203 1 2.203 2.24 0 1.23-.99 2.24-2.205 2.24zM28.76 24c-.13 0-.235.11-.235.24 0 .26.472.26.472 0 0-.13-.107-.24-.236-.24zm0 2.48c-1.214 0-2.203-1.01-2.203-2.24 0-1.24.99-2.24 2.204-2.24 1.216 0 2.205 1 2.205 2.24 0 1.23-.99 2.24-2.203 2.24zM41.548 24c-.138 0-.237.11-.237.24 0 .26.475.26.475 0 0-.13-.11-.24-.236-.24zm0 2.48c-1.22 0-2.204-1.01-2.204-2.24 0-1.24.984-2.24 2.204-2.24 1.21 0 2.203 1 2.203 2.24 0 1.23-.992 2.24-2.2 2.24z"/></g>
</symbol>

<symbol id="icon-mobiads" viewBox="0 0 70 40">
        <defs><path d="M39.04 19.792h-1.7v-9.248l3.492-1.446v8.826c0 1.025-.806 1.868-1.79 1.868zm-2.296 0h-3.342V12.17l3.342-1.385v9.007zm-7.25-1.868v-4.127l3.31-1.386v7.353h-1.52c-.985.03-1.79-.813-1.79-1.838z" id="awa"/><path id="awb" d="M29.493 12.773V1.627c0-.905.746-1.628 1.64-1.628.896 0 1.642.722 1.642 1.626V2.68h6.266c.987 0 1.793.814 1.793 1.81v3.764l-11.34 4.52z"/></defs><g transform="translate(-418 -5) translate(418 5)" fill="none"><mask><use xlink:href="#awa"/></mask><use fill="#9CA5BF" xlink:href="#awa"/><mask><use xlink:href="#awb"/></mask><use fill="#9CA5BF" xlink:href="#awb"/><path d="M13.172 39.594h-1.76c-.27 0-.388-.03-.388-.36v-6.93h-.12l-.716 1.687-1.462 3.316c-.268.632-.447.783-1.014.783h-.985c-.597 0-.716-.15-.984-.784l-1.104-2.35-1.106-2.44h-.12v6.718c0 .33-.12.36-.417.36h-1.82c-.27 0-.418-.03-.418-.36V28.177c0-.934.297-1.265 1.133-1.265h1.044c.656 0 .895.21 1.193.843l1.94 4.398 1.105 2.56h.06l1.193-2.83 1.85-4.068c.298-.662.537-.873 1.283-.873h.867c.776 0 1.134.24 1.134 1.175v11.146c.03.3-.09.33-.387.33zm6.535.21c-3.074 0-4.446-1.836-4.446-4.94 0-3.102 1.703-4.97 4.477-4.97 2.984 0 4.506 1.838 4.506 4.94 0 3.164-1.462 4.97-4.535 4.97zm.09-7.71c-1.254 0-1.85 1.054-1.85 2.71 0 1.808.506 2.772 1.79 2.772 1.342 0 1.82-1.205 1.82-2.71 0-1.628-.448-2.773-1.76-2.773zm10.084 7.71c-1.28 0-2.713-.21-3.787-.692-.3-.12-.328-.27-.328-.542V26.73c0-.3.12-.36.387-.36h1.822c.268 0 .358.06.358.36v3.405c.626-.21 1.372-.3 2.088-.3 2.894 0 4.088 2.138 4.088 4.91.03 2.8-1.283 5.06-4.625 5.06zm0-7.68c-.296 0-.982.03-1.55.24v5.03c.478.152 1.045.182 1.373.182 1.283 0 2.12-.723 2.12-2.74.028-1.84-.717-2.713-1.94-2.713zm7.37-3.013c-.804 0-1.46-.63-1.46-1.474s.686-1.507 1.46-1.507c.808 0 1.494.662 1.494 1.506 0 .843-.657 1.476-1.492 1.476zm-.953.996h1.82c.33 0 .388.06.388.33v8.828c0 .27-.06.33-.388.33h-1.82c-.268 0-.358-.06-.358-.33v-8.827c0-.27.09-.33.357-.33zm14.65 9.49H48.83c-.27 0-.45-.03-.508-.302l-.685-2.35H43.58l-.688 2.29c-.06.24-.15.33-.507.33h-2.09c-.267 0-.297-.15-.237-.36l3.7-11.327c.238-.784.596-.994 1.283-.994h1.074c.805 0 1.104.12 1.372.994l3.7 11.327c.06.18.03.39-.24.39zm-4.624-7.17l-.657-2.59h-.12l-.685 2.59-.686 2.29h2.775l-.627-2.29zm14.62 6.296c-.06.814-3.193 1.085-4.237 1.085-3.4 0-4.505-2.048-4.505-4.85 0-2.71 1.284-5.06 4.267-5.06.627 0 1.164.03 1.88.21V26.79c0-.3.09-.36.388-.36h1.82c.27 0 .388.06.388.36v11.147c.06.24.06.513 0 .784zm-2.536-6.416c-.627-.15-1.074-.18-1.462-.18-1.194 0-2.03.843-2.03 2.83 0 1.93.777 2.592 2.12 2.592.328 0 .984-.06 1.372-.21v-5.032zm10.443-.15c-.09.27-.18.27-.45.18-.864-.27-1.55-.422-2.356-.422-.626 0-.895.392-.895.693 0 .482.386.723 1.46 1.145 1.7.663 3.103 1.295 3.103 3.133 0 1.958-1.492 2.922-3.7 2.922-1.223 0-2.685-.24-3.76-.873-.208-.12-.238-.24-.118-.482l.507-1.236c.12-.27.21-.33.477-.21.745.33 2 .662 2.744.662.866 0 1.164-.33 1.164-.783 0-.482-.42-.753-1.612-1.205-1.88-.723-2.924-1.446-2.924-2.922 0-1.567 1.133-2.832 3.46-2.832 1.075 0 2.21.21 3.134.603.268.12.238.21.15.51l-.39 1.114z" fill="#9CA5BF"/></g>
</symbol>

<symbol id="icon-nova-poshta" viewBox="0 0 58 50">
        <path d="M39.194 11.48v13.992c0 .503.294.623.654.267l6.677-6.617c.358-.357.358-.938 0-1.294l-6.678-6.618c-.36-.356-.653-.236-.653.267zM9.344 43.54c-1.748 0-3.117 1.337-3.117 3.047 0 1.754 1.37 3.128 3.116 3.128 1.747 0 3.116-1.374 3.116-3.128 0-1.71-1.37-3.048-3.118-3.048zm0 4.944c-.988 0-1.76-.834-1.76-1.897 0-1.02.772-1.818 1.76-1.818.986 0 1.76.797 1.76 1.816 0 1.063-.774 1.897-1.76 1.897zm11.5-40.71h3.01c.508 0 .924.412.924.915v5.074c0 .503.415.915.922.915h5.06c.508 0 .923-.413.923-.916V8.69c0-.504.415-.916.923-.916h2.85c.507 0 .628-.29.27-.646L28.802.268c-.36-.357-.946-.357-1.305 0l-6.924 6.86c-.36.356-.238.646.27.646zM16.614 25.9c.357.356.65.236.65-.267V11.32c0-.504-.293-.624-.65-.268l-6.84 6.777c-.36.354-.36.936 0 1.292l6.84 6.777zM4.15 44.308v1.76H1.845v-1.76c0-.452-.22-.672-.678-.672H0v1.142h.474c.046 0 .056.01.056.055v4.785h1.315V47.21H4.15v2.408h1.316v-4.785c0-.045.01-.055.056-.055h.473v-1.142H4.828c-.45 0-.678.226-.678.672zm26.61-22.184H25.7c-.507 0-.922.412-.922.914v5.385c0 .503-.416.915-.923.915h-2.852c-.508 0-.63.29-.27.646l6.762 6.7c.36.357.946.357 1.305 0l6.763-6.7c.36-.356.238-.647-.27-.647h-2.687c-.508 0-.923-.41-.923-.914v-5.385c0-.502-.415-.914-.923-.914zm14.507 22.184v4.113c0 .047-.01.057-.056.057h-1.537v-4.84h-1.316v4.84h-1.54c-.046 0-.055-.01-.055-.055V44.31c0-.452-.218-.672-.67-.672h-1.174v1.142h.474c.046 0 .056.01.056.055v4.113c0 .452.22.672.677.672h5.78c.464 0 .68-.214.68-.672v-4.113c0-.045.01-.055.055-.055h.475v-1.142H45.94c-.45 0-.67.22-.67.672zm7.552.995v-1.028c0-.448-.195-.64-.647-.64H48.13c-.447 0-.638.192-.638.64v1.028h1.185v-.47c0-.05.006-.055.056-.055h.765v4.84h1.315v-4.84h.757c.05 0 .056.005.056.055v.47h1.193zM16.732 46.45c.302-.232.57-.638.57-1.213 0-.973-.752-1.6-1.917-1.6h-2.7v1.14h.53v4.17c0 .45.222.67.678.67h1.525c1.283 0 2.112-.7 2.112-1.786 0-.62-.307-1.14-.8-1.38zm-2.218-1.672h.88c.377 0 .593.214.593.588 0 .372-.228.613-.578.613h-.896v-1.203zm.993 3.698h-.938c-.046 0-.056-.01-.056-.055v-1.355h.993c.426 0 .69.27.69.702 0 .445-.257.71-.69.71zm42.077 0c-.085 0-.098 0-.136-.097l-1.743-4.745h-1.29l-1.75 4.746c-.032.095-.04.095-.128.095h-.263v1.142h.767c.46 0 .654-.134.793-.55l.338-.92h1.775l.338.917c.14.42.333.553.794.553h.76v-1.142h-.255zm-3.08-1.446l.433-1.278c.04-.122.085-.276.122-.42.04.144.084.3.125.42l.44 1.278h-1.12zM39.92 8.118c.624 0 1.13-.503 1.13-1.12 0-.62-.506-1.12-1.13-1.12-.623 0-1.13.5-1.13 1.12 0 .617.507 1.12 1.13 1.12zm0-2.032c.508 0 .92.41.92.91 0 .504-.412.913-.92.913-.507 0-.92-.41-.92-.914 0-.502.413-.91.92-.91zM23.028 48.38l-1.742-4.744h-1.29l-1.752 4.746c-.03.094-.04.094-.127.094h-.263v1.142h.768c.46 0 .654-.134.793-.55l.338-.92h1.775l.336.917c.14.42.334.553.795.553h.757v-1.142h-.254c-.085 0-.098 0-.136-.097zm-2.945-1.35l.434-1.278c.04-.122.085-.276.122-.42.04.144.082.298.123.42l.44 1.278h-1.12zm11.61 1.39v-4.11c0-.452-.22-.672-.677-.672h-4.698v1.142h.53v4.84h1.315v-4.84h2.16c.046 0 .056.01.056.055v4.113c0 .458.213.672.676.672h1.167v-1.142h-.474c-.047 0-.057-.01-.057-.055zm8.048-41.3h.2c.033 0 .17-.005.18.126.015.168-.002.21.045.28h.266c-.04-.057-.04-.103-.042-.242-.002-.08-.005-.222-.158-.266v-.003c.072-.026.192-.09.192-.274 0-.28-.264-.31-.376-.31h-.566v1.096h.26V7.12zm0-.478h.23c.113 0 .178.033.178.14 0 .054-.02.14-.168.14h-.24v-.28zM35.57 43.54c-1.746 0-3.115 1.337-3.115 3.047 0 1.754 1.37 3.128 3.116 3.128 1.75 0 3.118-1.374 3.118-3.128 0-1.71-1.368-3.048-3.116-3.048zm0 4.944c-.985 0-1.76-.834-1.76-1.897 0-1.02.775-1.818 1.76-1.818.988 0 1.76.797 1.76 1.816 0 1.063-.772 1.897-1.76 1.897z" fill="#9CA5BF"/>
</symbol>

<symbol id="icon-person-card" viewBox="0 0 60 57">
        <g fill="#fff"><path d="M59 56.17H1c-.552 0-1-.45-1-1V13c0-.55.448-1 1-1h22v2H2v40.17h56V14H37v-2h22c.553 0 1 .45 1 1v42.17c0 .55-.447 1-1 1"/><path d="M17 31c-2.205 0-4 1.79-4 4 0 2.2 1.795 4 4 4 2.206 0 4-1.8 4-4 0-2.21-1.794-4-4-4zm0 10c-3.308 0-6-2.69-6-6s2.692-6 6-6c3.31 0 6 2.69 6 6s-2.69 6-6 6zM10.063 46h13.874c-.286-2.21-1.686-5-6.937-5-5.25 0-6.65 2.79-6.937 5zM26 48H8v-1c0-1.88.65-8 9-8s9 6.12 9 8v1zM24 16.04h12V7.3C36 4.74 33.59 2 30 2s-6 2.74-6 5.3v8.74zm13 2H23c-.552 0-1-.45-1-1V7.3C22 3.34 25.664 0 30 0c4.337 0 8 3.34 8 7.3v9.74c0 .55-.447 1-1 1zM30 6c-.55 0-1 .45-1 1s.45 1 1 1c.552 0 1-.45 1-1s-.448-1-1-1zm0 4c-1.654 0-3-1.35-3-3 0-1.66 1.346-3 3-3 1.655 0 3 1.34 3 3 0 1.65-1.345 3-3 3zM1 22h58v2H1v-2zM33 46h19.478v2H33v-2zM33 40h19.478v2H33v-2zM33 34h19.478v2H33v-2zM33 28h9.478v2H33v-2z"/></g>
</symbol>

<symbol id="icon-phone" viewBox="0 0 20 21">
        <path d="M15.225 14.8l.222-.22c.328-.326.52-.75.545-1.2.025-.46-.135-.893-.45-1.2l-1.29-1.292c-.615-.617-1.745-.567-2.407.09l-.213.218c-1.21-1.01-2.365-2.16-3.365-3.367l.21-.22c.69-.682.735-1.765.097-2.4l-1.29-1.29c-.614-.617-1.742-.575-2.407.09l-.787.793c-.814.808-.994 2.05-.428 2.95 2.035 3.225 4.816 6.008 8.042 8.042.344.216.748.333 1.168.333.65 0 1.296-.272 1.777-.75.012.02.027.037.044.054.1.133.397 1.092-.08 2.042-.604 1.208-2.2 1.84-4.615 1.84-5.055 0-9.168-4.107-9.168-9.165C.832 5.1 4.946.984 10 .984c5.055 0 9.167 4.117 9.167 9.167 0 1.86-.555 3.65-1.604 5.184-.13.192-.08.45.11.575.19.133.448.083.578-.11 1.146-1.665 1.75-3.615 1.75-5.65 0-5.515-4.485-10-10-10-5.512 0-10 4.485-10 10 0 5.518 4.488 10 10 10 3.65 0 4.983-1.365 5.458-2.507.504-1.216.162-2.458-.162-2.783-.022-.023-.045-.042-.07-.06zM6.167 4.297c-.253 0-.51.116-.7.308l-.788.783c-.544.542-.675 1.35-.314 1.925 1.97 3.117 4.66 5.81 7.782 7.784.556.35 1.393.208 1.92-.317l.787-.784c.183-.184.29-.417.303-.66.012-.224-.062-.424-.208-.573l-1.29-1.292c-.3-.3-.878-.25-1.23.1l-.477.477c-.15.15-.39.166-.555.033-1.46-1.176-2.85-2.56-4.02-4.018-.132-.166-.118-.408.032-.558l.477-.475c.182-.185.29-.42.302-.66.01-.225-.063-.425-.208-.575l-1.29-1.292c-.136-.133-.323-.208-.528-.208z" fill="#333"/>
</symbol>

<symbol id="icon-play" viewBox="0 0 31 21">
        <path d="M.25 7.495C.25 3.632 3.376.5 7.246.5h16.008c3.864 0 6.996 3.125 6.996 6.995v6.01c0 3.863-3.126 6.995-6.996 6.995H7.246C3.382 20.5.25 17.375.25 13.505v-6.01zM19.553 10.5L12.41 5.744v9.512l7.143-4.756z" fill="#fff"/>
</symbol>

<symbol id="icon-rio" viewBox="0 0 63 26">
        <path d="M32.918 25.735h-3.086c-.618 0-1.03-.41-1.03-1.03V1.855c0-.62.412-1.03 1.03-1.03h3.086c.617 0 1.028.41 1.028 1.03v22.852c0 .618-.41 1.03-1.028 1.03zM49.994 0c-7.098 0-12.86 5.765-12.86 12.868 0 7.103 5.762 12.867 12.86 12.867 7.097 0 12.858-5.764 12.858-12.867C62.852 5.765 57.092 0 49.994 0zm0 20.794c-4.424 0-8.024-3.603-8.024-8.03 0-4.426 3.6-8.03 8.024-8.03 4.423 0 8.023 3.604 8.023 8.03 0 1.75-.514 3.295-1.44 4.633 0 .927.206 3.81.103 5.25-1.03-.72-2.263-1.75-3.292-2.573-1.03.514-2.16.72-3.394.72zM4.114 25.94H1.03c-.62 0-1.03-.41-1.03-1.028V2.162c0-.618.41-1.03 1.03-1.03h16.56c11.213 2.47 6.48 15.853 2.983 16.47-.41.31 4.938 8.236 4.32 8.133h-5.76c-1.646-2.47-1.748-2.573-4.32-7.31-1.03 0-1.75.104-3.292 0-.41-.513-1.644-3.704-2.26-4.94 2.982 0 7.714-.206 8.126-.206 3.086-.413 3.806-6.075 0-7.105H5.143V24.91c0 .618-.514 1.03-1.028 1.03zm10.596-7.514h-3.292c-.41-.514-1.646-3.705-2.263-4.94m5.555 4.94c-1.132 0-1.543-.102-3.292 0-.41-.514-1.646-3.705-2.263-4.94m15.635 12.25h-5.76c-1.543-2.47-1.645-2.574-4.32-7.31" fill="#9CA5BF"/>
</symbol>

<symbol id="icon-separator" viewBox="0 0 170 20">
        <g fill="none"><path fill="#59B5FF" d="M121.31 16.76l4.85-5.68 43.27 1.994z"/><path fill="#225FDA" d="M121.434 16.778L97.8 10.364l17.317.496z"/><path fill="#002BC4" d="M121.317 16.752l-63.98-7.016 40.464.635z"/><path fill="#3F8DEE" d="M121.313 16.742l-7.195-5.816 13.046.092z"/><path fill="#FFBE59" d="M67.323 14.745l2.098-4.932 23.08.807z"/><path fill="#EE933F" d="M67.324 14.75L64.5 9.645l5 .175z"/><path fill="#E47DF3" d="M50.52 19.395l3.29-10.127 38.69 1.354z"/><path fill="#A02CB1" d="M50.525 19.404L34.715 8.526l9.054.317z"/><path fill="#761A84" d="M50.528 19.41L.488 7.277l34.23 1.198z"/><path fill="#C24AD4" d="M50.523 19.403L43.765 8.895l10.05.35z"/><path d="M41.96 3.967l.463-.038-3.63 4.84L.583 7.433 41.96 3.967z" fill="#FF5959"/><path fill="#DA2222" d="M42.42 3.92l22.05 5.74-17.25-.604z"/><path fill="#C40000" d="M42.415 3.913l63.053 7.176-42.605-1.493z"/><path fill="#EE3F3F" d="M42.42 3.922l9.402 5.362-13.034-.457z"/><path d="M120.256.83l-3.956 9.517-.338.813-33.995-.99 38.29-9.34z" fill="#2FD670"/><path fill="#19923D" d="M120.25.82l17.804 10.866-19.105-.67z"/><path fill="#007227" d="M120.25.817l49.18 12.26-32.374-1.398z"/><path fill="#18AC4B" d="M120.252.823l4.02 10.383-8.313-.053z"/><path fill="#FFBE59" d="M84.282 5.425l-2.098 4.932-23.077-.807z"/><path fill="#DA6222" d="M84.28 5.42l13.765 5.487-11.19-.392z"/><path fill="#C42200" d="M84.277 5.417l27.845 5.657-16.77-.263z"/><path fill="#EE933F" d="M84.28 5.42l2.824 5.105-5-.175z"/></g>
</symbol>

<symbol id="icon-spaces" viewBox="0 0 70 39">
        <defs><path d="M9.522 28.482H8.137c-.46 0-.808-.2-1.038-.48-.31-.4-1-.64-1.81-.64-1.308 0-1.808.36-1.808.88 0 1.56 6.923.68 6.923 4.52 0 2.16-2.115 3-5.038 3-3.077 0-5.04-.68-5.04-2.64 0-.32.232-.56.578-.56H2.29c.462 0 .81.2 1.04.48.307.4 1 .64 1.807.64 1.577 0 2.115-.36 2.115-.88 0-1.56-6.923-.72-6.923-4.52 0-2.16 2.114-3 4.77-3 3.075 0 5.036.68 5.036 2.64-.077.32-.308.56-.615.56zm8.384 7.32c-1.115 0-1.884-.24-2.654-.48v2.84c0 .32-.23.56-.576.56h-2.04c-.307 0-.576-.24-.576-.56v-12.16c0-.32.23-.56.577-.56h1.77c.307 0 .576.24.576.56v.28c.846-.6 1.885-1.04 3.23-1.04 2.655 0 4.655 1.8 4.655 5.28-.04 3.48-2.04 5.28-4.962 5.28zm-.5-8.32c-.692 0-1.538.4-2.192.84v4.84c.77.24 1.538.4 2 .4 1.692 0 2.308-.92 2.308-3.04.038-2.12-.577-3.04-2.116-3.04zm16.54 8.12h-1.77c-.308 0-.577-.24-.577-.56v-.28c-.85.6-1.887 1.04-3.31 1.04-2.46 0-4.346-1.12-4.346-3.28 0-2.16 1.884-3.24 4.346-3.24h3.04c0-1.48-.616-1.92-1.885-1.92-.77 0-1.462.24-1.77.64-.23.32-.576.48-1.038.48h-1.385c-.307 0-.576-.24-.576-.56 0-1.96 1.96-2.64 5-2.64 2.692 0 4.846 1.12 4.846 4.04v5.72c0 .32-.27.56-.577.56zm-2.617-4.2h-2.81c-.885 0-1.385.48-1.385 1.12 0 .68.5 1.16 1.5 1.16 1.115 0 2.077-.4 2.73-.84v-1.44h-.038zm15.42-2.36h-1.383c-.462 0-.808-.28-1.04-.68-.306-.52-1-.88-1.96-.88-1.77 0-2.423.92-2.423 3.04 0 2.08.615 3 2.5 3 .96 0 1.654-.36 1.96-.88.27-.4.578-.68 1.04-.68h1.384c.307 0 .576.24.576.56 0 2.16-1.96 3.24-5.192 3.24-3.577 0-5.538-1.8-5.538-5.28 0-3.48 2-5.28 5.46-5.28 3.232 0 5.193 1.08 5.193 3.24-.04.36-.27.6-.578.6zm11.27 2.44H51.1c.114 1.52.806 2.2 2.345 2.2.807 0 1.5-.24 1.807-.64.23-.32.577-.48 1.04-.48h1.384c.307 0 .576.24.576.56 0 1.96-2 2.64-5 2.64-3.346 0-5.346-1.84-5.346-5.28 0-3.4 2.04-5.28 5.346-5.28 3.347 0 5.347 1.8 5.347 5.16v.52c0 .36-.27.6-.58.6zm-4.807-4.12c-1.346 0-2.077.76-2.154 2.2h4.27c-.04-1.44-.694-2.2-2.117-2.2zm15.73 1.12H67.56c-.46 0-.808-.2-1.038-.48-.308-.4-1-.64-1.808-.64-1.308 0-1.808.36-1.808.88 0 1.56 6.923.68 6.923 4.52 0 2.16-2.117 3-5.04 3-3.077 0-5.04-.68-5.04-2.64 0-.32.23-.56.578-.56h1.384c.462 0 .808.2 1.038.48.308.4 1 .64 1.808.64 1.577 0 2.116-.36 2.116-.88 0-1.56-6.924-.72-6.924-4.52 0-2.16 2.116-3 4.77-3 3.077 0 5.038.68 5.038 2.64-.038.32-.27.56-.615.56z" id="bda"/><path id="bdb" d="M31.04.343l4.04 1.96c-.462.92-3.424 7.6-4.462 9.8-.23.8-.04 1.48.654 1.92 2.192 1.12 2.077 1.08 3.115 1.64l-.577 1.16c-.384.84-1.423 1.24-2.27.84l-7-3.4c-.845-.4-1.19-1.44-.807-2.28l5.04-10.8c.422-.88 1.422-1.24 2.268-.84z"/><path id="bdc" d="M37.77.343l7.038 3.36c.846.4 1.192 1.44.807 2.28l-5.038 10.8c-.385.84-1.423 1.24-2.27.84l-3.96-2c.615-1.32 3.153-6.96 4.5-9.84.307-.56.23-1.52-.655-1.92-1.577-.76-2.5-1.28-3.154-1.56l.462-1.12c.423-.88 1.423-1.24 2.27-.84z"/></defs><g transform="translate(-205 -7) translate(205 7)" fill="none"><mask><use xlink:href="#bda"/></mask><use fill="#9CA5BF" xlink:href="#bda"/><mask><use xlink:href="#bdb"/></mask><use fill="#9CA5BF" xlink:href="#bdb"/><mask><use xlink:href="#bdc"/></mask><use fill="#9CA5BF" xlink:href="#bdc"/></g>
</symbol>

<symbol id="icon-startask" viewBox="0 0 70 41">
        <g fill="#9CA5BF"><path d="M1.25 37.24c1.11.708 2.57 1.3 3.934 1.3 1.344 0 2.006-.71 2.025-1.556 0-.67-.39-1.3-1.5-1.792l-2.3-.984c-1.615-.71-2.725-1.752-2.725-3.524 0-2.324 1.947-3.977 4.576-3.977 1.734 0 3.35.55 4.363 1.082-.04.747-.39 1.514-.915 2.007-1.014-.493-2.397-.945-3.43-.945-1.264 0-1.926.708-1.926 1.496 0 .668.467 1.1 1.382 1.495l2.298.985c1.772.767 2.92 2.047 2.92 3.78 0 2.343-1.635 4.095-4.945 4.095-1.598 0-3.428-.532-4.81-1.457.077-.768.545-1.575 1.05-2.008M17.276 31.55c0 .335-.04.63-.117.945l-2.358-.04v5.178c0 .57.233.906.837.906h1.206c.117.352.195.825.195 1.24 0 .195 0 .412-.057.57-.663.1-1.578.177-2.337.177-1.558 0-2.337-.768-2.337-2.402v-5.65l-1.48.02c-.078-.316-.098-.61-.098-.946 0-.296.02-.59.098-.907l1.48.02v-1.418c0-1.142.35-1.575 1.383-1.575h.973l.137.12v2.894l2.356-.04c.076.315.115.61.115.906"/><path d="M23.603 37.89v-1.713c-.486-.04-1.012-.06-1.402-.06-1.01 0-1.516.57-1.516 1.477 0 .65.39 1.162 1.09 1.162.584 0 1.266-.296 1.83-.867zm2.22 2.697c-.915-.1-1.5-.532-1.85-1.123-.68.67-1.616 1.24-2.88 1.24-1.968 0-2.922-1.535-2.922-2.952 0-2.304 1.754-3.328 3.8-3.328.447 0 1.05 0 1.634.06v-.532c0-1.024-.486-1.496-1.44-1.496-.896 0-1.948.334-2.96.69-.37-.415-.604-1.183-.662-1.832 1.208-.512 2.98-.886 4.265-.886 1.792 0 3.33.964 3.33 3.327v4.036c0 .65.136 1.144.545 1.46-.117.47-.506 1.082-.857 1.34zM28.51 30.506c1.09.138 1.79.788 2.16 1.772.43-1.004 1.19-1.752 2.474-1.752.487 0 .798.04 1.168.138 0 .63-.194 1.693-.623 2.402-.294-.1-.605-.118-.897-.138-.877 0-1.422.512-1.83 1.22v6.28c-.35.06-.838.1-1.286.1-.428 0-.895-.04-1.265-.1v-6.555c0-1.102-.41-1.752-.72-2.028.096-.453.466-1.083.817-1.34M42.1 31.55c0 .335-.04.63-.117.945l-2.356-.04v5.178c0 .57.234.906.838.906h1.207c.117.352.195.825.195 1.24 0 .195 0 .412-.06.57-.66.1-1.576.177-2.335.177-1.558 0-2.337-.768-2.337-2.402v-5.65l-1.48.02c-.078-.316-.097-.61-.097-.946 0-.296.02-.59.097-.907l1.48.02v-1.418c0-1.142.35-1.575 1.383-1.575h.973l.138.12v2.894l2.356-.04c.078.315.117.61.117.906"/><path d="M48.623 37.89v-1.713c-.487-.04-1.013-.06-1.402-.06-1.01 0-1.517.57-1.517 1.477 0 .65.39 1.162 1.09 1.162.585 0 1.266-.296 1.83-.867zm2.22 2.697c-.916-.1-1.5-.532-1.85-1.123-.682.67-1.616 1.24-2.882 1.24-1.965 0-2.92-1.535-2.92-2.952 0-2.304 1.754-3.328 3.798-3.328.448 0 1.052 0 1.636.06v-.532c0-1.024-.487-1.496-1.44-1.496-.897 0-1.948.334-2.96.69-.37-.415-.604-1.183-.663-1.832 1.208-.512 2.98-.886 4.265-.886 1.792 0 3.33.964 3.33 3.327v4.036c0 .65.136 1.144.545 1.46-.118.47-.507 1.082-.858 1.34zM53.18 37.968c.836.453 1.868.847 2.705.847.915 0 1.422-.394 1.44-.945 0-.473-.35-.847-1.05-1.103l-1.09-.413c-1.364-.512-2.454-1.34-2.454-2.895 0-1.89 1.48-3.073 3.624-3.073 1.09 0 2.55.355 3.388.768.02.61-.31 1.477-.72 1.81-.74-.333-1.713-.688-2.667-.688-.682 0-1.09.374-1.09.886 0 .433.31.71.973.965l1.187.432c1.46.55 2.532 1.477 2.532 3.07 0 1.89-1.558 3.073-3.836 3.073-1.48 0-2.823-.453-3.7-.965.02-.57.37-1.378.76-1.772M69.028 38.165c.233.69.448 1.26.935 1.614-.39.45-1.052.786-1.714.786-.8 0-1.11-.374-1.423-1.26l-.662-1.81c-.35-.927-.682-1.143-1.402-1.143-.273 0-.507.02-.74.04v4.035c-.35.058-.798.098-1.247.098-.447 0-.876-.04-1.226-.1V26.08l.118-.14h.993c1.014 0 1.365.454 1.365 1.596v6.713l.486-.02c.235 0 .37-.08.508-.316l1.343-2.342c.35-.65.76-.985 1.52-.985.526 0 .935.02 1.4.04l.12.157-1.81 3.15c-.216.414-.49.73-.82.965.78.255 1.344.806 1.694 1.73l.565 1.536M31.703 8.875L28.878 6.61c-2.383-1.727-4.045-.748-5.504 1.112l-1.48 1.872h.002c-.13.178-.198.404-.17.642.027.25.155.465.337.61l1.704 1.332.518.414c1.066.853 3.24 1.514 5.325-.95.062-.074.123-.144.184-.21L31.77 8.93l-.067-.056M47.44 3.31c-.03-.25-.154-.467-.334-.61l-1.98-1.586-.007-.006c-2.344-1.874-4.226-1.126-5.54.427l-9.08 11.5c-1.263 1.6-2.63 2.222-3.97 2.158l3.463 2.77.84.673c1.05.84 3.267 1.95 5.347-.667L47.3 3.9c.11-.17.164-.376.14-.592"/></g>
</symbol>

<symbol id="icon-target" viewBox="0 0 60 50">
        <g fill="#fff"><path d="M2 48h56V2H2v46zM0 0h60v50H0V0zM56 15h-2V6H44V4h12v11M6 15H4V4h12v2H6v9M56 46H44v-2h10v-9h2v11M16 46H4V35h2v9h10v2"/><path d="M30.26 25c-.143 0-.26.12-.26.26 0 .29.52.29.52 0 0-.14-.116-.26-.26-.26zm0 2.53c-1.246 0-2.26-1.02-2.26-2.27 0-1.24 1.014-2.26 2.26-2.26 1.247 0 2.26 1.02 2.26 2.26 0 1.25-1.013 2.27-2.26 2.27zM30 15c-5.514 0-10 4.48-10 10 0 5.51 4.486 10 10 10s10-4.49 10-10c0-5.52-4.486-10-10-10zm0 22c-6.616 0-12-5.38-12-12s5.384-12 12-12c6.617 0 12 5.38 12 12s-5.383 12-12 12zM30 15.44c-.552 0-1-.45-1-1V9c0-.55.448-1 1-1 .553 0 1 .45 1 1v5.44c0 .55-.447 1-1 1M19.39 26H14c-.553 0-1-.45-1-1s.447-1 1-1h5.39c.554 0 1 .45 1 1s-.446 1-1 1M30 42.35c-.552 0-1-.45-1-1V36c0-.55.448-1 1-1 .553 0 1 .45 1 1v5.35c0 .55-.447 1-1 1M46.39 26H41c-.552 0-1-.45-1-1s.448-1 1-1h5.39c.554 0 1 .45 1 1s-.446 1-1 1"/></g>
</symbol>

<symbol id="icon-tree" viewBox="0 0 60 60">
        <g fill="#fff"><path d="M2 7.868h32V1.966H2v5.902zm33 1.968H1c-.55 0-1-.444-1-.984V.984C0 .444.45 0 1 0h34c.55 0 1 .443 1 .984v7.868c0 .54-.45.984-1 .984zM26 37.376h32v-5.902H26v5.902zm33 1.968H25c-.55 0-1-.443-1-.983v-7.867c0-.54.45-.984 1-.984h34c.55 0 1 .442 1 .983v7.87c0 .54-.45.982-1 .982zM26 57.05h32v-5.9H26v5.9zm33 1.967H25c-.55 0-1-.443-1-.984v-7.868c0-.54.45-.985 1-.985h34c.55 0 1 .444 1 .985v7.868c0 .54-.45.984-1 .984zM43 51.15c-.55 0-1-.445-1-.985V38.362c0-.54.45-.985 1-.985s1 .444 1 .985v11.803c0 .54-.45.984-1 .984M43 31.475c-.55 0-1-.442-1-.982V24.59c0-1.436-1.54-2.95-3-2.95H21c-2.57 0-5-2.39-5-4.92V8.854c0-.54.45-.984 1-.984s1 .442 1 .983v7.868c0 1.438 1.54 2.953 3 2.953h18c2.57 0 5 2.39 5 4.92v5.9c0 .54-.45.983-1 .983"/></g>
</symbol>

<symbol id="icon-ukr-map" viewBox="0 0 153 100">
        <g fill="none"><path d="M74.896.027h2.96V2.98h-2.96V.027zM79.296.027h2.96V2.98h-2.96V.027zM83.695.027h2.96V2.98h-2.96V.027zM88.095.027h2.96V2.98h-2.96V.027zM92.494.027h2.96V2.98h-2.96V.027zM96.893.027h2.96V2.98h-2.96V.027zM13.307 4.415h2.96v2.953h-2.96V4.415zM17.706 4.415h2.96v2.953h-2.96V4.415zM22.105 4.415h2.96v2.953h-2.96V4.415zM22.105.027h2.96V2.98h-2.96V.027zM26.505 4.415h2.96v2.953h-2.96V4.415zM30.904 4.415h2.96v2.953h-2.96V4.415zM35.303 4.415h2.96v2.953h-2.96V4.415zM39.702 4.415h2.96v2.953h-2.96V4.415zM70.497 4.415h2.96v2.953h-2.96V4.415zM74.896 4.415h2.96v2.953h-2.96V4.415zM79.296 4.415h2.96v2.953h-2.96V4.415zM83.695 4.415h2.96v2.953h-2.96V4.415zM88.095 4.415h2.96v2.953h-2.96V4.415zM92.494 4.415h2.96v2.953h-2.96V4.415zM96.893 4.415h2.96v2.953h-2.96V4.415zM13.307 8.804h2.96v2.953h-2.96V8.804zM17.706 8.804h2.96v2.953h-2.96V8.804zM22.105 8.804h2.96v2.953h-2.96V8.804zM26.505 8.804h2.96v2.953h-2.96V8.804zM30.904 8.804h2.96v2.953h-2.96V8.804zM35.303 8.804h2.96v2.953h-2.96V8.804zM39.702 8.804h2.96v2.953h-2.96V8.804zM44.102 8.804h2.96v2.953h-2.96V8.804zM48.5 8.804h2.96v2.953H48.5V8.804zM52.9 8.804h2.96v2.953H52.9V8.804zM57.3 8.804h2.96v2.953H57.3V8.804zM61.7 8.804h2.96v2.953H61.7V8.804zM66.098 8.804h2.96v2.953h-2.96V8.804zM70.497 8.804h2.96v2.953h-2.96V8.804zM74.896 8.804h2.96v2.953h-2.96V8.804zM79.296 8.804h2.96v2.953h-2.96V8.804zM83.695 8.804h2.96v2.953h-2.96V8.804zM88.095 8.804h2.96v2.953h-2.96V8.804zM92.494 8.804h2.96v2.953h-2.96V8.804zM96.893 8.804h2.96v2.953h-2.96V8.804zM101.293 8.804h2.96v2.953h-2.96V8.804zM13.307 13.193h2.96v2.952h-2.96v-2.952zM17.706 13.193h2.96v2.952h-2.96v-2.952zM22.105 13.193h2.96v2.952h-2.96v-2.952zM26.505 13.193h2.96v2.952h-2.96v-2.952zM30.904 13.193h2.96v2.952h-2.96v-2.952zM35.303 13.193h2.96v2.952h-2.96v-2.952zM39.702 13.193h2.96v2.952h-2.96v-2.952zM44.102 13.193h2.96v2.952h-2.96v-2.952zM48.5 13.193h2.96v2.952H48.5v-2.952zM52.9 13.193h2.96v2.952H52.9v-2.952zM57.3 13.193h2.96v2.952H57.3v-2.952zM61.7 13.193h2.96v2.952H61.7v-2.952zM66.098 13.193h2.96v2.952h-2.96v-2.952zM70.497 13.193h2.96v2.952h-2.96v-2.952zM74.896 13.193h2.96v2.952h-2.96v-2.952zM79.296 13.193h2.96v2.952h-2.96v-2.952zM83.695 13.193h2.96v2.952h-2.96v-2.952zM88.095 13.193h2.96v2.952h-2.96v-2.952zM92.494 13.193h2.96v2.952h-2.96v-2.952zM96.893 13.193h2.96v2.952h-2.96v-2.952zM101.293 13.193h2.96v2.952h-2.96v-2.952zM105.692 13.193h2.96v2.952h-2.96v-2.952zM17.706 17.58h2.96v2.954h-2.96V17.58zM22.105 17.58h2.96v2.954h-2.96V17.58zM26.505 17.58h2.96v2.954h-2.96V17.58zM30.904 17.58h2.96v2.954h-2.96V17.58zM35.303 17.58h2.96v2.954h-2.96V17.58zM39.702 17.58h2.96v2.954h-2.96V17.58zM44.102 17.58h2.96v2.954h-2.96V17.58zM48.5 17.58h2.96v2.954H48.5V17.58zM52.9 17.58h2.96v2.954H52.9V17.58zM57.3 17.58h2.96v2.954H57.3V17.58zM61.7 17.58h2.96v2.954H61.7V17.58zM66.098 17.58h2.96v2.954h-2.96V17.58zM70.497 17.58h2.96v2.954h-2.96V17.58zM74.896 17.58h2.96v2.954h-2.96V17.58zM79.296 17.58h2.96v2.954h-2.96V17.58zM83.695 17.58h2.96v2.954h-2.96V17.58zM88.095 17.58h2.96v2.954h-2.96V17.58zM92.494 17.58h2.96v2.954h-2.96V17.58zM96.893 17.58h2.96v2.954h-2.96V17.58zM101.293 17.58h2.96v2.954h-2.96V17.58zM105.692 17.58h2.96v2.954h-2.96V17.58zM110.09 17.582h2.96v2.953h-2.96v-2.953zM13.307 21.97h2.96v2.954h-2.96V21.97zM17.706 21.97h2.96v2.954h-2.96V21.97zM22.105 21.97h2.96v2.954h-2.96V21.97zM26.505 21.97h2.96v2.954h-2.96V21.97zM30.904 21.97h2.96v2.954h-2.96V21.97zM35.303 21.97h2.96v2.954h-2.96V21.97zM39.702 21.97h2.96v2.954h-2.96V21.97zM44.102 21.97h2.96v2.954h-2.96V21.97zM48.5 21.97h2.96v2.954H48.5V21.97zM52.9 21.97h2.96v2.954H52.9V21.97zM57.3 21.97h2.96v2.954H57.3V21.97zM61.7 21.97h2.96v2.954H61.7V21.97zM66.098 21.97h2.96v2.954h-2.96V21.97zM70.497 21.97h2.96v2.954h-2.96V21.97zM74.896 21.97h2.96v2.954h-2.96V21.97zM79.296 21.97h2.96v2.954h-2.96V21.97zM83.695 21.97h2.96v2.954h-2.96V21.97zM88.095 21.97h2.96v2.954h-2.96V21.97zM92.494 21.97h2.96v2.954h-2.96V21.97zM96.893 21.97h2.96v2.954h-2.96V21.97zM101.293 21.97h2.96v2.954h-2.96V21.97zM105.692 21.97h2.96v2.954h-2.96V21.97zM110.09 21.97h2.962v2.954h-2.96V21.97zM114.49 21.97h2.96v2.954h-2.96V21.97zM118.89 21.97h2.96v2.954h-2.96V21.97zM123.29 21.97h2.96v2.954h-2.96V21.97zM8.908 26.36h2.96v2.952h-2.96V26.36zM13.307 26.36h2.96v2.952h-2.96V26.36zM17.706 26.36h2.96v2.952h-2.96V26.36zM22.105 26.36h2.96v2.952h-2.96V26.36zM26.505 26.36h2.96v2.952h-2.96V26.36zM30.904 26.36h2.96v2.952h-2.96V26.36zM35.303 26.36h2.96v2.952h-2.96V26.36zM39.702 26.36h2.96v2.952h-2.96V26.36zM44.102 26.36h2.96v2.952h-2.96V26.36zM48.5 26.36h2.96v2.952H48.5V26.36zM52.9 26.36h2.96v2.952H52.9V26.36zM57.3 26.36h2.96v2.952H57.3V26.36zM61.7 26.36h2.96v2.952H61.7V26.36zM66.098 26.36h2.96v2.952h-2.96V26.36zM70.497 26.36h2.96v2.952h-2.96V26.36zM74.896 26.36h2.96v2.952h-2.96V26.36zM79.296 26.36h2.96v2.952h-2.96V26.36zM83.695 26.36h2.96v2.952h-2.96V26.36zM88.095 26.36h2.96v2.952h-2.96V26.36zM92.494 26.36h2.96v2.952h-2.96V26.36zM96.893 26.36h2.96v2.952h-2.96V26.36zM101.293 26.36h2.96v2.952h-2.96V26.36zM105.692 26.36h2.96v2.952h-2.96V26.36zM110.09 26.36h2.962v2.952h-2.96V26.36zM114.49 26.36h2.96v2.952h-2.96V26.36zM118.89 26.36h2.96v2.952h-2.96V26.36zM123.29 26.36h2.96v2.952h-2.96V26.36zM127.688 26.36h2.96v2.952h-2.96V26.36zM132.088 26.36h2.96v2.952h-2.96V26.36zM136.486 26.36h2.96v2.952h-2.96V26.36zM4.508 30.747h2.96V33.7h-2.96v-2.953zM8.908 30.747h2.96V33.7h-2.96v-2.953zM13.307 30.747h2.96V33.7h-2.96v-2.953zM17.706 30.747h2.96V33.7h-2.96v-2.953zM22.105 30.747h2.96V33.7h-2.96v-2.953zM26.505 30.747h2.96V33.7h-2.96v-2.953zM30.904 30.747h2.96V33.7h-2.96v-2.953zM35.303 30.747h2.96V33.7h-2.96v-2.953zM39.702 30.747h2.96V33.7h-2.96v-2.953zM44.102 30.747h2.96V33.7h-2.96v-2.953zM48.5 30.747h2.96V33.7H48.5v-2.953zM52.9 30.747h2.96V33.7H52.9v-2.953zM57.3 30.747h2.96V33.7H57.3v-2.953zM61.7 30.747h2.96V33.7H61.7v-2.953zM66.098 30.747h2.96V33.7h-2.96v-2.953zM70.497 30.747h2.96V33.7h-2.96v-2.953zM74.896 30.747h2.96V33.7h-2.96v-2.953zM79.296 30.747h2.96V33.7h-2.96v-2.953zM83.695 30.747h2.96V33.7h-2.96v-2.953zM88.095 30.747h2.96V33.7h-2.96v-2.953zM92.494 30.747h2.96V33.7h-2.96v-2.953zM96.893 30.747h2.96V33.7h-2.96v-2.953zM101.293 30.747h2.96V33.7h-2.96v-2.953zM105.692 30.747h2.96V33.7h-2.96v-2.953zM110.09 30.747h2.962V33.7h-2.96v-2.953zM114.49 30.747h2.96V33.7h-2.96v-2.953zM118.89 30.747h2.96V33.7h-2.96v-2.953zM123.29 30.747h2.96V33.7h-2.96v-2.953zM127.688 30.747h2.96V33.7h-2.96v-2.953zM132.088 30.747h2.96V33.7h-2.96v-2.953zM136.487 30.747h2.96V33.7h-2.96v-2.953zM140.886 30.747h2.96V33.7h-2.96v-2.953zM145.285 30.75h2.96v2.95h-2.96v-2.95zM4.508 35.136h2.96v2.954h-2.96v-2.954zM8.908 35.136h2.96v2.954h-2.96v-2.954zM13.307 35.136h2.96v2.954h-2.96v-2.954zM17.706 35.136h2.96v2.954h-2.96v-2.954zM22.105 35.136h2.96v2.954h-2.96v-2.954zM26.505 35.136h2.96v2.954h-2.96v-2.954zM30.904 35.136h2.96v2.954h-2.96v-2.954zM35.303 35.136h2.96v2.954h-2.96v-2.954zM39.702 35.136h2.96v2.954h-2.96v-2.954zM44.102 35.136h2.96v2.954h-2.96v-2.954zM48.5 35.136h2.96v2.954H48.5v-2.954zM52.9 35.136h2.96v2.954H52.9v-2.954zM57.3 35.136h2.96v2.954H57.3v-2.954zM61.7 35.136h2.96v2.954H61.7v-2.954zM66.098 35.136h2.96v2.954h-2.96v-2.954zM70.497 35.136h2.96v2.954h-2.96v-2.954zM74.896 35.136h2.96v2.954h-2.96v-2.954zM79.296 35.136h2.96v2.954h-2.96v-2.954zM83.695 35.136h2.96v2.954h-2.96v-2.954zM88.095 35.136h2.96v2.954h-2.96v-2.954zM92.494 35.136h2.96v2.954h-2.96v-2.954zM96.893 35.136h2.96v2.954h-2.96v-2.954zM101.293 35.136h2.96v2.954h-2.96v-2.954zM105.692 35.136h2.96v2.954h-2.96v-2.954zM110.09 35.136h2.962v2.954h-2.96v-2.954zM114.49 35.136h2.96v2.954h-2.96v-2.954zM118.89 35.136h2.96v2.954h-2.96v-2.954zM123.29 35.136h2.96v2.954h-2.96v-2.954zM127.688 35.136h2.96v2.954h-2.96v-2.954zM132.088 35.136h2.96v2.954h-2.96v-2.954zM136.487 35.136h2.96v2.954h-2.96v-2.954zM140.886 35.136h2.96v2.954h-2.96v-2.954zM145.285 35.136h2.96v2.955h-2.96v-2.953zM149.684 35.136h2.96v2.955h-2.96v-2.953zM4.508 39.525h2.96v2.953h-2.96v-2.953zM.11 39.525h2.96v2.953H.11v-2.953zM8.908 39.525h2.96v2.953h-2.96v-2.953zM13.307 39.525h2.96v2.953h-2.96v-2.953zM17.706 39.525h2.96v2.953h-2.96v-2.953zM22.105 39.525h2.96v2.953h-2.96v-2.953zM26.505 39.525h2.96v2.953h-2.96v-2.953zM30.904 39.525h2.96v2.953h-2.96v-2.953zM35.303 39.525h2.96v2.953h-2.96v-2.953zM39.702 39.525h2.96v2.953h-2.96v-2.953zM44.102 39.525h2.96v2.953h-2.96v-2.953zM48.5 39.525h2.96v2.953H48.5v-2.953zM52.9 39.525h2.96v2.953H52.9v-2.953zM57.3 39.525h2.96v2.953H57.3v-2.953zM61.7 39.525h2.96v2.953H61.7v-2.953zM66.098 39.525h2.96v2.953h-2.96v-2.953zM70.497 39.525h2.96v2.953h-2.96v-2.953zM74.896 39.525h2.96v2.953h-2.96v-2.953zM79.296 39.525h2.96v2.953h-2.96v-2.953zM83.695 39.525h2.96v2.953h-2.96v-2.953zM88.095 39.525h2.96v2.953h-2.96v-2.953zM92.494 39.525h2.96v2.953h-2.96v-2.953zM96.893 39.525h2.96v2.953h-2.96v-2.953zM101.293 39.525h2.96v2.953h-2.96v-2.953zM105.692 39.525h2.96v2.953h-2.96v-2.953zM110.09 39.525h2.962v2.953h-2.96v-2.953zM114.49 39.525h2.96v2.953h-2.96v-2.953zM118.89 39.525h2.96v2.953h-2.96v-2.953zM123.29 39.525h2.96v2.953h-2.96v-2.953zM127.688 39.525h2.96v2.953h-2.96v-2.953zM132.088 39.525h2.96v2.953h-2.96v-2.953zM136.487 39.525h2.96v2.953h-2.96v-2.953zM140.886 39.525h2.96v2.953h-2.96v-2.953zM145.285 39.526h2.96v2.953h-2.96v-2.955zM.11 43.913h2.96v2.953H.11v-2.953zM4.508 43.913h2.96v2.953h-2.96v-2.953zM8.908 43.913h2.96v2.953h-2.96v-2.953zM13.307 43.913h2.96v2.953h-2.96v-2.953zM17.706 43.913h2.96v2.953h-2.96v-2.953zM22.105 43.913h2.96v2.953h-2.96v-2.953zM26.505 43.913h2.96v2.953h-2.96v-2.953zM30.904 43.913h2.96v2.953h-2.96v-2.953zM35.303 43.913h2.96v2.953h-2.96v-2.953zM39.702 43.913h2.96v2.953h-2.96v-2.953zM44.102 43.913h2.96v2.953h-2.96v-2.953zM48.5 43.913h2.96v2.953H48.5v-2.953zM52.9 43.913h2.96v2.953H52.9v-2.953zM57.3 43.913h2.96v2.953H57.3v-2.953zM61.7 43.913h2.96v2.953H61.7v-2.953zM66.098 43.913h2.96v2.953h-2.96v-2.953zM70.497 43.913h2.96v2.953h-2.96v-2.953zM74.896 43.913h2.96v2.953h-2.96v-2.953zM79.296 43.913h2.96v2.953h-2.96v-2.953zM83.695 43.913h2.96v2.953h-2.96v-2.953zM88.095 43.913h2.96v2.953h-2.96v-2.953zM92.494 43.913h2.96v2.953h-2.96v-2.953zM96.893 43.913h2.96v2.953h-2.96v-2.953zM101.293 43.913h2.96v2.953h-2.96v-2.953zM105.692 43.913h2.96v2.953h-2.96v-2.953zM110.09 43.913h2.962v2.953h-2.96v-2.953zM114.49 43.913h2.96v2.953h-2.96v-2.953zM118.89 43.913h2.96v2.953h-2.96v-2.953zM123.29 43.913h2.96v2.953h-2.96v-2.953zM127.688 43.913h2.96v2.953h-2.96v-2.953zM132.088 43.913h2.96v2.953h-2.96v-2.953zM136.487 43.913h2.96v2.953h-2.96v-2.953zM140.886 43.914h2.96v2.953h-2.96v-2.953zM145.285 43.914h2.96v2.953h-2.96v-2.953zM.11 48.302h2.96v2.953H.11v-2.953zM4.508 48.302h2.96v2.953h-2.96v-2.953zM8.908 48.302h2.96v2.953h-2.96v-2.953zM13.307 48.302h2.96v2.953h-2.96v-2.953zM13.307 52.69h2.96v2.954h-2.96V52.69zM17.706 48.302h2.96v2.953h-2.96v-2.953zM17.706 52.69h2.96v2.954h-2.96V52.69zM22.105 48.302h2.96v2.953h-2.96v-2.953zM26.505 48.302h2.96v2.953h-2.96v-2.953zM30.904 48.302h2.96v2.953h-2.96v-2.953zM35.303 48.302h2.96v2.953h-2.96v-2.953zM48.5 48.302h2.96v2.953H48.5v-2.953zM52.9 48.302h2.96v2.953H52.9v-2.953zM57.3 48.302h2.96v2.953H57.3v-2.953zM61.7 48.302h2.96v2.953H61.7v-2.953zM66.098 48.302h2.96v2.953h-2.96v-2.953zM70.497 48.302h2.96v2.953h-2.96v-2.953zM74.896 48.302h2.96v2.953h-2.96v-2.953zM79.296 48.302h2.96v2.953h-2.96v-2.953zM83.695 48.302h2.96v2.953h-2.96v-2.953zM88.095 48.302h2.96v2.953h-2.96v-2.953zM92.494 48.302h2.96v2.953h-2.96v-2.953zM96.893 48.302h2.96v2.953h-2.96v-2.953zM101.293 48.302h2.96v2.953h-2.96v-2.953zM105.692 48.302h2.96v2.953h-2.96v-2.953zM110.09 48.302h2.962v2.953h-2.96v-2.953zM114.49 48.302h2.96v2.953h-2.96v-2.953zM118.89 48.302h2.96v2.953h-2.96v-2.953zM123.29 48.302h2.96v2.953h-2.96v-2.953zM127.688 48.302h2.96v2.953h-2.96v-2.953zM132.088 48.302h2.96v2.953h-2.96v-2.953zM136.487 48.302h2.96v2.953h-2.96v-2.953zM140.886 48.302h2.96v2.953h-2.96v-2.953zM22.105 52.69h2.96v2.954h-2.96V52.69zM26.505 52.69h2.96v2.954h-2.96V52.69zM52.9 52.69h2.96v2.954H52.9V52.69zM57.3 52.69h2.96v2.954H57.3V52.69zM61.7 52.69h2.96v2.954H61.7V52.69zM66.098 52.69h2.96v2.954h-2.96V52.69zM70.497 52.69h2.96v2.954h-2.96V52.69zM74.896 52.69h2.96v2.954h-2.96V52.69zM79.296 52.69h2.96v2.954h-2.96V52.69zM83.695 52.69h2.96v2.954h-2.96V52.69zM88.095 52.69h2.96v2.954h-2.96V52.69zM92.494 52.69h2.96v2.954h-2.96V52.69zM96.893 52.69h2.96v2.954h-2.96V52.69zM101.293 52.69h2.96v2.954h-2.96V52.69z" fill="#9CA5BF"/><path d="M105.692 52.69h2.96v2.954h-2.96V52.69zM110.09 52.69h2.962v2.954h-2.96V52.69z" fill="#F6A623"/><path d="M114.49 52.69h2.96v2.954h-2.96V52.69zM118.89 52.69h2.96v2.954h-2.96V52.69zM123.29 52.69h2.96v2.954h-2.96V52.69zM127.688 52.69h2.96v2.954h-2.96V52.69zM132.088 52.69h2.96v2.954h-2.96V52.69zM136.487 52.69h2.96v2.954h-2.96V52.69zM140.886 52.69h2.96v2.953h-2.96V52.69zM145.285 48.302h2.96v2.953h-2.96v-2.953zM149.684 48.302h2.96v2.953h-2.96v-2.953zM145.285 52.69h2.96v2.953h-2.96V52.69zM57.3 57.08h2.96v2.952H57.3V57.08zM61.7 57.08h2.96v2.952H61.7V57.08zM66.098 57.08h2.96v2.952h-2.96V57.08zM70.497 57.08h2.96v2.952h-2.96V57.08zM74.896 57.08h2.96v2.952h-2.96V57.08zM79.296 57.08h2.96v2.952h-2.96V57.08zM83.695 57.08h2.96v2.952h-2.96V57.08zM88.095 57.08h2.96v2.952h-2.96V57.08zM92.494 57.08h2.96v2.952h-2.96V57.08zM96.893 57.08h2.96v2.952h-2.96V57.08zM101.293 57.08h2.96v2.952h-2.96V57.08z" fill="#9CA5BF"/><path d="M105.692 57.08h2.96v2.952h-2.96V57.08zM110.09 57.08h2.962v2.952h-2.96V57.08z" fill="#F6A623"/><path d="M114.49 57.08h2.96v2.952h-2.96V57.08zM118.89 57.08h2.96v2.952h-2.96V57.08zM123.29 57.08h2.96v2.952h-2.96V57.08zM127.688 57.08h2.96v2.952h-2.96V57.08zM57.3 61.468h2.96v2.954H57.3v-2.954zM61.7 61.468h2.96v2.954H61.7v-2.954zM66.098 61.468h2.96v2.954h-2.96v-2.954zM70.497 61.468h2.96v2.954h-2.96v-2.954zM74.896 61.468h2.96v2.954h-2.96v-2.954zM79.296 61.468h2.96v2.954h-2.96v-2.954zM83.695 61.468h2.96v2.954h-2.96v-2.954zM88.095 61.468h2.96v2.954h-2.96v-2.954zM92.494 61.468h2.96v2.954h-2.96v-2.954zM96.893 61.468h2.96v2.954h-2.96v-2.954zM101.293 61.468h2.96v2.954h-2.96v-2.954zM105.692 61.468h2.96v2.954h-2.96v-2.954zM110.09 61.468h2.962v2.954h-2.96v-2.954zM114.49 61.468h2.96v2.954h-2.96v-2.954zM118.89 61.468h2.96v2.954h-2.96v-2.954zM123.29 61.468h2.96v2.954h-2.96v-2.954zM123.29 65.857h2.96v2.954h-2.96V65.86zM127.688 61.468h2.96v2.954h-2.96v-2.954zM132.087 57.08h2.96v2.952h-2.96V57.08zM132.087 61.468h2.96v2.954h-2.96v-2.954zM57.3 65.857h2.96v2.953H57.3v-2.953zM61.7 65.857h2.96v2.953H61.7v-2.953zM66.098 65.857h2.96v2.953h-2.96v-2.953zM70.497 65.857h2.96v2.953h-2.96v-2.953zM74.896 65.857h2.96v2.953h-2.96v-2.953zM79.296 65.857h2.96v2.953h-2.96v-2.953zM83.695 65.857h2.96v2.953h-2.96v-2.953zM88.095 65.857h2.96v2.953h-2.96v-2.953zM92.494 65.857h2.96v2.953h-2.96v-2.953zM96.893 65.857h2.96v2.953h-2.96v-2.953zM101.293 65.857h2.96v2.953h-2.96v-2.953zM105.692 65.857h2.96v2.953h-2.96v-2.953zM110.09 65.857h2.962v2.953h-2.96v-2.953zM114.49 65.857h2.96v2.953h-2.96v-2.953zM118.89 65.857h2.96v2.953h-2.96v-2.953zM57.3 70.246h2.96v2.952H57.3v-2.952zM61.7 70.246h2.96v2.952H61.7v-2.952zM66.098 70.246h2.96v2.952h-2.96v-2.952zM70.497 70.246h2.96v2.952h-2.96v-2.952zM79.296 70.246h2.96v2.952h-2.96v-2.952zM83.695 70.246h2.96v2.952h-2.96v-2.952zM88.095 70.246h2.96v2.952h-2.96v-2.952zM88.095 74.79h2.96v2.954h-2.96V74.79zM83.695 74.79h2.96v2.954h-2.96V74.79zM92.494 70.246h2.96v2.952h-2.96v-2.952zM96.893 70.246h2.96v2.952h-2.96v-2.952zM101.293 70.246h2.96v2.952h-2.96v-2.952zM101.292 74.635h2.96v2.952h-2.96v-2.952zM105.692 70.246h2.96v2.952h-2.96v-2.952zM105.69 74.633h2.96v2.953h-2.96v-2.953zM110.09 70.246h2.962v2.952h-2.96v-2.952zM57.3 74.634h2.96v2.953H57.3v-2.953zM61.7 74.634h2.96v2.953H61.7v-2.953zM66.098 74.634h2.96v2.953h-2.96v-2.953zM66.098 79.023h2.96v2.953H66.1v-2.953zM92.494 74.634h2.96v2.953h-2.96v-2.953zM96.893 74.634h2.96v2.953h-2.96v-2.953zM52.9 79.024h2.96v2.952H52.9v-2.952zM57.3 79.024h2.96v2.952H57.3v-2.952zM61.7 79.024h2.96v2.952H61.7v-2.952zM101.277 92.188h2.96v2.952h-2.96v-2.952zM96.893 79.023h2.96v2.952h-2.96v-2.952zM101.292 79.023h2.96v2.952h-2.96v-2.952zM105.615 92.188h2.96v2.952h-2.96v-2.952zM48.5 83.41h2.96v2.954H48.5V83.41zM52.9 83.41h2.96v2.954H52.9V83.41zM57.3 83.41h2.96v2.954H57.3V83.41zM61.7 83.41h2.96v2.954H61.7V83.41zM96.938 96.576h2.96v2.953h-2.96v-2.955zM88.094 83.41h2.96v2.953h-2.96V83.41zM92.494 83.41h2.96v2.953h-2.96V83.41zM96.893 83.41h2.96v2.953h-2.96V83.41zM101.292 83.41h2.96v2.953h-2.96V83.41zM105.692 83.41h2.96v2.953h-2.96V83.41zM114.46 87.956h2.96v2.953h-2.96v-2.955zM110.075 87.8h2.96v2.95h-2.96V87.8zM92.494 87.8h2.96v2.953h-2.96V87.8zM96.893 87.8h2.96v2.953h-2.96V87.8zM101.277 87.8h2.96v2.953h-2.96V87.8zM105.692 87.8h2.96v2.953h-2.96V87.8zM96.938 92.187h2.96v2.954h-2.96V92.19z" fill="#9CA5BF"/></g>
</symbol>

<symbol id="icon-ux-fox" viewBox="0 0 46 50">
        <g fill="#9CA5BF"><path d="M31.698 14.36s-2.936 2.29-3.787 5.4c0 0-1.643-4.785 2.107-10.267 3.445-5.036 8.9-6.327 8.9-6.327s-2.024 6.948.314 13.368c1.464 4.015 2.503 4.524 3.303 7.056 0 0-7.69-1.132-10.834-9.23zm12.404 5.938c-2.65-4.536-3.597-8.4-3.136-13.237.3-3.146 1.293-5.597 1.915-7.04-7.186.137-17.007 5.91-17.953 15.84-.603 6.343 2.675 10.628 6.455 13.257 3.085 2.145 3.566 4.675 3.366 6.782-.22 2.292-.31 2.532-.403 3.52-.094.986.573 1.98 1.967 1.98 1.394 0 4.757-2.493 7.356-6.69 2.6-4.2 2.945-10.117.436-14.41zM14 18.078c-.587-.368-1.306-.582-2.1-.582-.795 0-1.555.214-2.212.582v-.01c.105-1.093 1.155-1.98 2.345-1.98 1.19 0 2.072.887 1.968 1.98v.01zM10.724 4.686C-1.422 13.98-2.126 26.493 3.21 34.946c1.71 2.71 3.487 4.514 6.15 6.673.828-1.547 1.875-3.307 1.875-3.307-5.64-4.87-5.786-8.988-5.62-11.182.144-1.92.762-3.74 1.676-5.182 6.698 2.906 13.923-1.043 15.918-6.38C14.893 17.32 9.304 11.1 10.726 4.684zM32.476 40.186l.41-4.29c.048-.514.04-1.115-.228-2.026-1.387-4.697-7.56-5.057-11.774-7.29-1.837-.973-2.668-2.49-2.982-3.234-.51.3-1.023.5-1.364.617.267 1.937.305 4.67-.383 7.512-1.95 8.057-7.066 10.962-7.41 18.283h1.874c5.544-10.934 16.283-13.63 16.283-13.63s-2.124 1.372-2.4 4.27c-.276 2.896 2.267 3.756 3.627 3.756 1.36 0 2.337-.653 2.337-.653-1.532 3.21-1.473 6.26-1.473 6.26h1.896c.817-4.51 4.43-6.854 4.43-6.854-2.384-.104-2.938-1.728-2.844-2.72"/></g>
</symbol>

<symbol id="icon-video" viewBox="0 0 60 60">
        <g fill="#fff"><path d="M2 49.18h56V9.836H2V49.18zm57 1.968H1c-.55 0-1-.443-1-.983V8.853c0-.542.45-.984 1-.984h58c.55 0 1 .44 1 .982v41.312c0 .54-.45.983-1 .983zM2 7.868h56V1.966H2v5.902zm57 1.967H1c-.55 0-1-.443-1-.983V.982C0 .442.45 0 1 0h58c.55 0 1 .443 1 .983v7.87c0 .54-.45.982-1 .982zM41 9.835c-.55 0-1-.443-1-.983V.982c0-.54.45-.982 1-.982s1 .443 1 .983v7.87c0 .54-.45.982-1 .982M19 9.835c-.55 0-1-.443-1-.983V.982c0-.54.45-.982 1-.982s1 .443 1 .983v7.87c0 .54-.45.982-1 .982"/><path d="M2 57.05h56v-5.902H2v5.9zm57 1.967H1c-.55 0-1-.443-1-.984v-7.868c0-.542.45-.985 1-.985h58c.55 0 1 .443 1 .985v7.868c0 .54-.45.984-1 .984zM41 59.017c-.55 0-1-.443-1-.984v-7.868c0-.542.45-.985 1-.985s1 .443 1 .985v7.868c0 .54-.45.984-1 .984M19 59.017c-.55 0-1-.443-1-.984v-7.868c0-.542.45-.985 1-.985s1 .443 1 .985v7.868c0 .54-.45.984-1 .984"/><path d="M30 16.72c-7.17 0-13 5.736-13 12.788 0 7.052 5.83 12.786 13 12.786s13-5.734 13-12.786S37.17 16.72 30 16.72zm0 27.542c-8.27 0-15-6.62-15-14.754 0-8.135 6.73-14.754 15-14.754s15 6.62 15 14.754c0 8.135-6.73 14.754-15 14.754zM28 26.238v6.62l6.21-3.304L28 26.238zm-1 9.256c-.18 0-.35-.05-.51-.138-.31-.177-.49-.502-.49-.845v-9.923c0-.345.18-.658.49-.845.3-.176.68-.176.99-.01l9.3 4.957c.32.166.52.5.52.866 0 .363-.2.688-.52.864l-9.3 4.958c-.15.08-.32.118-.48.118z"/></g>
</symbol>
</svg>