<?xml version="1.0" encoding="UTF-8" standalone="no"?>
<svg width="153px" height="100px" viewBox="0 0 153 100" version="1.1" xmlns="http://www.w3.org/2000/svg" xmlns:xlink="http://www.w3.org/1999/xlink" xmlns:sketch="http://www.bohemiancoding.com/sketch/ns">
    <!-- Generator: Sketch 3.3.2 (12043) - http://www.bohemiancoding.com/sketch -->
    <title>ukr-map</title>
    <desc>Created with Sketch.</desc>
    <defs></defs>
    <g id="Page-1" stroke="none" stroke-width="1" fill="none" fill-rule="evenodd" sketch:type="MSPage">
        <g id="PC" sketch:type="MSArtboardGroup" transform="translate(-513.000000, -5662.000000)">
            <g id="Contacts" sketch:type="MSLayerGroup" transform="translate(130.000000, 5138.000000)">
                <g id="Info" transform="translate(0.000000, 508.000000)" sketch:type="MSShapeGroup">
                    <g id="Ukraine-map" transform="translate(353.000000, 0.000000)">
                        <g id="ukr-map" transform="translate(30.000000, 16.000000)">
                            <path d="M79.2959737,0.0267676768 L82.256358,0.0267676768 L82.256358,2.97954545 L79.2959737,2.97954545 L79.2959737,0.0267676768 Z" id="Fill-51" fill="#9CA5BF"></path>
                            <path d="M83.6950147,0.0267676768 L86.6553989,0.0267676768 L86.6553989,2.97954545 L83.6950147,2.97954545 L83.6950147,0.0267676768 Z" id="Fill-55" fill="#9CA5BF"></path>
                            <path d="M88.0945197,0.0267676768 L91.0544399,0.0267676768 L91.0544399,2.97954545 L88.0945197,2.97954545 L88.0945197,0.0267676768 Z" id="Fill-59" fill="#9CA5BF"></path>
                            <path d="M92.4940248,0.0267676768 L95.4544091,0.0267676768 L95.4544091,2.97954545 L92.4940248,2.97954545 L92.4940248,0.0267676768 Z" id="Fill-63" fill="#9CA5BF"></path>
                            <path d="M96.8930658,0.0267676768 L99.85345,0.0267676768 L99.85345,2.97954545 L96.8930658,2.97954545 L96.8930658,0.0267676768 Z" id="Fill-67" fill="#9CA5BF"></path>
                            <path d="M13.3066465,4.4151936 L16.2670307,4.4151936 L16.2670307,7.36797138 L13.3066465,7.36797138 L13.3066465,4.4151936 Z" id="Fill-71" fill="#9CA5BF"></path>
                            <path d="M17.7056874,4.4151936 L20.6660717,4.4151936 L20.6660717,7.36797138 L17.7056874,7.36797138 L17.7056874,4.4151936 Z" id="Fill-75" fill="#9CA5BF"></path>
                            <path d="M22.1051925,4.4151936 L25.0655767,4.4151936 L25.0655767,7.36797138 L22.1051925,7.36797138 L22.1051925,4.4151936 Z" id="Fill-79" fill="#9CA5BF"></path>
                            <path d="M22.1051925,0.0272306397 L25.0655767,0.0272306397 L25.0655767,2.98000842 L22.1051925,2.98000842 L22.1051925,0.0272306397 Z" id="Fill-80" fill="#9CA5BF"></path>
                            <path d="M26.5046975,4.4151936 L29.4646177,4.4151936 L29.4646177,7.36797138 L26.5046975,7.36797138 L26.5046975,4.4151936 Z" id="Fill-83" fill="#9CA5BF"></path>
                            <path d="M30.9037385,4.4151936 L33.8641228,4.4151936 L33.8641228,7.36797138 L30.9037385,7.36797138 L30.9037385,4.4151936 Z" id="Fill-87" fill="#9CA5BF"></path>
                            <path d="M35.3027795,4.4151936 L38.2631637,4.4151936 L38.2631637,7.36797138 L35.3027795,7.36797138 L35.3027795,4.4151936 Z" id="Fill-91" fill="#9CA5BF"></path>
                            <path d="M39.7022845,4.4151936 L42.6622047,4.4151936 L42.6622047,7.36797138 L39.7022845,7.36797138 L39.7022845,4.4151936 Z" id="Fill-95" fill="#9CA5BF"></path>
                            <path d="M79.2959737,4.4151936 L82.256358,4.4151936 L82.256358,7.36797138 L79.2959737,7.36797138 L79.2959737,4.4151936 Z" id="Fill-127" fill="#9CA5BF"></path>
                            <path d="M83.6950147,4.4151936 L86.6553989,4.4151936 L86.6553989,7.36797138 L83.6950147,7.36797138 L83.6950147,4.4151936 Z" id="Fill-131" fill="#9CA5BF"></path>
                            <path d="M88.0945197,4.4151936 L91.0544399,4.4151936 L91.0544399,7.36797138 L88.0945197,7.36797138 L88.0945197,4.4151936 Z" id="Fill-135" fill="#9CA5BF"></path>
                            <path d="M92.4940248,4.4151936 L95.4544091,4.4151936 L95.4544091,7.36797138 L92.4940248,7.36797138 L92.4940248,4.4151936 Z" id="Fill-139" fill="#9CA5BF"></path>
                            <path d="M96.8930658,4.4151936 L99.85345,4.4151936 L99.85345,7.36797138 L96.8930658,7.36797138 L96.8930658,4.4151936 Z" id="Fill-143" fill="#9CA5BF"></path>
                            <path d="M13.3066465,8.80361953 L16.2670307,8.80361953 L16.2670307,11.7573232 L13.3066465,11.7573232 L13.3066465,8.80361953 Z" id="Fill-147" fill="#9CA5BF"></path>
                            <path d="M17.7056874,8.80361953 L20.6660717,8.80361953 L20.6660717,11.7573232 L17.7056874,11.7573232 L17.7056874,8.80361953 Z" id="Fill-151" fill="#9CA5BF"></path>
                            <path d="M22.1051925,8.80361953 L25.0655767,8.80361953 L25.0655767,11.7573232 L22.1051925,11.7573232 L22.1051925,8.80361953 Z" id="Fill-155" fill="#9CA5BF"></path>
                            <path d="M26.5046975,8.80361953 L29.4646177,8.80361953 L29.4646177,11.7573232 L26.5046975,11.7573232 L26.5046975,8.80361953 Z" id="Fill-159" fill="#9CA5BF"></path>
                            <path d="M30.9037385,8.80361953 L33.8641228,8.80361953 L33.8641228,11.7573232 L30.9037385,11.7573232 L30.9037385,8.80361953 Z" id="Fill-163" fill="#9CA5BF"></path>
                            <path d="M35.3027795,8.80361953 L38.2631637,8.80361953 L38.2631637,11.7573232 L35.3027795,11.7573232 L35.3027795,8.80361953 Z" id="Fill-167" fill="#9CA5BF"></path>
                            <path d="M39.7022845,8.80361953 L42.6622047,8.80361953 L42.6622047,11.7573232 L39.7022845,11.7573232 L39.7022845,8.80361953 Z" id="Fill-171" fill="#9CA5BF"></path>
                            <path d="M44.1017896,8.80361953 L47.0621739,8.80361953 L47.0621739,11.7573232 L44.1017896,11.7573232 L44.1017896,8.80361953 Z" id="Fill-175" fill="#9CA5BF"></path>
                            <path d="M48.5008306,8.80361953 L51.4612148,8.80361953 L51.4612148,11.7573232 L48.5008306,11.7573232 L48.5008306,8.80361953 Z" id="Fill-179" fill="#9CA5BF"></path>
                            <path d="M52.8998715,8.80361953 L55.8602558,8.80361953 L55.8602558,11.7573232 L52.8998715,11.7573232 L52.8998715,8.80361953 Z" id="Fill-183" fill="#9CA5BF"></path>
                            <path d="M57.2993766,8.80361953 L60.2592968,8.80361953 L60.2592968,11.7573232 L57.2993766,11.7573232 L57.2993766,8.80361953 Z" id="Fill-187" fill="#9CA5BF"></path>
                            <path d="M61.6988817,8.80361953 L64.6592659,8.80361953 L64.6592659,11.7573232 L61.6988817,11.7573232 L61.6988817,8.80361953 Z" id="Fill-191" fill="#9CA5BF"></path>
                            <path d="M74.8964687,8.80361953 L77.8568529,8.80361953 L77.8568529,11.7573232 L74.8964687,11.7573232 L74.8964687,8.80361953 Z" id="Fill-203" fill="#9CA5BF"></path>
                            <path d="M79.2959737,8.80361953 L82.256358,8.80361953 L82.256358,11.7573232 L79.2959737,11.7573232 L79.2959737,8.80361953 Z" id="Fill-207" fill="#9CA5BF"></path>
                            <path d="M83.6950147,8.80361953 L86.6553989,8.80361953 L86.6553989,11.7573232 L83.6950147,11.7573232 L83.6950147,8.80361953 Z" id="Fill-211" fill="#9CA5BF"></path>
                            <path d="M88.0945197,8.80361953 L91.0544399,8.80361953 L91.0544399,11.7573232 L88.0945197,11.7573232 L88.0945197,8.80361953 Z" id="Fill-215" fill="#9CA5BF"></path>
                            <path d="M92.4940248,8.80361953 L95.4544091,8.80361953 L95.4544091,11.7573232 L92.4940248,11.7573232 L92.4940248,8.80361953 Z" id="Fill-219" fill="#9CA5BF"></path>
                            <path d="M96.8930658,8.80361953 L99.85345,8.80361953 L99.85345,11.7573232 L96.8930658,11.7573232 L96.8930658,8.80361953 Z" id="Fill-223" fill="#9CA5BF"></path>
                            <path d="M101.292571,8.80361953 L104.252491,8.80361953 L104.252491,11.7573232 L101.292571,11.7573232 L101.292571,8.80361953 Z" id="Fill-227" fill="#9CA5BF"></path>
                            <path d="M13.3066465,13.1929714 L16.2670307,13.1929714 L16.2670307,16.1452862 L13.3066465,16.1452862 L13.3066465,13.1929714 Z" id="Fill-231" fill="#9CA5BF"></path>
                            <path d="M17.7056874,13.1929714 L20.6660717,13.1929714 L20.6660717,16.1452862 L17.7056874,16.1452862 L17.7056874,13.1929714 Z" id="Fill-235" fill="#9CA5BF"></path>
                            <path d="M22.1051925,13.1929714 L25.0655767,13.1929714 L25.0655767,16.1452862 L22.1051925,16.1452862 L22.1051925,13.1929714 Z" id="Fill-239" fill="#9CA5BF"></path>
                            <path d="M26.5046975,13.1929714 L29.4646177,13.1929714 L29.4646177,16.1452862 L26.5046975,16.1452862 L26.5046975,13.1929714 Z" id="Fill-243" fill="#9CA5BF"></path>
                            <path d="M30.9037385,13.1929714 L33.8641228,13.1929714 L33.8641228,16.1452862 L30.9037385,16.1452862 L30.9037385,13.1929714 Z" id="Fill-247" fill="#9CA5BF"></path>
                            <path d="M35.3027795,13.1929714 L38.2631637,13.1929714 L38.2631637,16.1452862 L35.3027795,16.1452862 L35.3027795,13.1929714 Z" id="Fill-251" fill="#9CA5BF"></path>
                            <path d="M39.7022845,13.1929714 L42.6622047,13.1929714 L42.6622047,16.1452862 L39.7022845,16.1452862 L39.7022845,13.1929714 Z" id="Fill-255" fill="#9CA5BF"></path>
                            <path d="M44.1017896,13.1929714 L47.0621739,13.1929714 L47.0621739,16.1452862 L44.1017896,16.1452862 L44.1017896,13.1929714 Z" id="Fill-259" fill="#9CA5BF"></path>
                            <path d="M48.5008306,13.1929714 L51.4612148,13.1929714 L51.4612148,16.1452862 L48.5008306,16.1452862 L48.5008306,13.1929714 Z" id="Fill-263" fill="#9CA5BF"></path>
                            <path d="M52.8998715,13.1929714 L55.8602558,13.1929714 L55.8602558,16.1452862 L52.8998715,16.1452862 L52.8998715,13.1929714 Z" id="Fill-267" fill="#9CA5BF"></path>
                            <path d="M57.2993766,13.1929714 L60.2592968,13.1929714 L60.2592968,16.1452862 L57.2993766,16.1452862 L57.2993766,13.1929714 Z" id="Fill-271" fill="#9CA5BF"></path>
                            <path d="M61.6988817,13.1929714 L64.6592659,13.1929714 L64.6592659,16.1452862 L61.6988817,16.1452862 L61.6988817,13.1929714 Z" id="Fill-275" fill="#9CA5BF"></path>
                            <path d="M66.0979226,13.1929714 L69.0583069,13.1929714 L69.0583069,16.1452862 L66.0979226,16.1452862 L66.0979226,13.1929714 Z" id="Fill-279" fill="#9CA5BF"></path>
                            <path d="M70.4974277,13.1929714 L73.4573479,13.1929714 L73.4573479,16.1452862 L70.4974277,16.1452862 L70.4974277,13.1929714 Z" id="Fill-283" fill="#9CA5BF"></path>
                            <path d="M74.8964687,13.1929714 L77.8568529,13.1929714 L77.8568529,16.1452862 L74.8964687,16.1452862 L74.8964687,13.1929714 Z" id="Fill-287" fill="#9CA5BF"></path>
                            <path d="M79.2959737,13.1929714 L82.256358,13.1929714 L82.256358,16.1452862 L79.2959737,16.1452862 L79.2959737,13.1929714 Z" id="Fill-291" fill="#9CA5BF"></path>
                            <path d="M83.6950147,13.1929714 L86.6553989,13.1929714 L86.6553989,16.1452862 L83.6950147,16.1452862 L83.6950147,13.1929714 Z" id="Fill-295" fill="#9CA5BF"></path>
                            <path d="M88.0945197,13.1929714 L91.0544399,13.1929714 L91.0544399,16.1452862 L88.0945197,16.1452862 L88.0945197,13.1929714 Z" id="Fill-299" fill="#9CA5BF"></path>
                            <path d="M92.4940248,13.1929714 L95.4544091,13.1929714 L95.4544091,16.1452862 L92.4940248,16.1452862 L92.4940248,13.1929714 Z" id="Fill-303" fill="#9CA5BF"></path>
                            <path d="M96.8930658,13.1929714 L99.85345,13.1929714 L99.85345,16.1452862 L96.8930658,16.1452862 L96.8930658,13.1929714 Z" id="Fill-307" fill="#9CA5BF"></path>
                            <path d="M101.292571,13.1929714 L104.252491,13.1929714 L104.252491,16.1452862 L101.292571,16.1452862 L101.292571,13.1929714 Z" id="Fill-311" fill="#9CA5BF"></path>
                            <path d="M105.691612,13.1929714 L108.651532,13.1929714 L108.651532,16.1452862 L105.691612,16.1452862 L105.691612,13.1929714 Z" id="Fill-315" fill="#9CA5BF"></path>
                            <path d="M17.7056874,17.5813973 L20.6660717,17.5813973 L20.6660717,20.5341751 L17.7056874,20.5341751 L17.7056874,17.5813973 Z" id="Fill-319" fill="#9CA5BF"></path>
                            <path d="M22.1051925,17.5813973 L25.0655767,17.5813973 L25.0655767,20.5341751 L22.1051925,20.5341751 L22.1051925,17.5813973 Z" id="Fill-323" fill="#9CA5BF"></path>
                            <path d="M26.5046975,17.5813973 L29.4646177,17.5813973 L29.4646177,20.5341751 L26.5046975,20.5341751 L26.5046975,17.5813973 Z" id="Fill-327" fill="#9CA5BF"></path>
                            <path d="M30.9037385,17.5813973 L33.8641228,17.5813973 L33.8641228,20.5341751 L30.9037385,20.5341751 L30.9037385,17.5813973 Z" id="Fill-331" fill="#9CA5BF"></path>
                            <path d="M35.3027795,17.5813973 L38.2631637,17.5813973 L38.2631637,20.5341751 L35.3027795,20.5341751 L35.3027795,17.5813973 Z" id="Fill-335" fill="#9CA5BF"></path>
                            <path d="M39.7022845,17.5813973 L42.6622047,17.5813973 L42.6622047,20.5341751 L39.7022845,20.5341751 L39.7022845,17.5813973 Z" id="Fill-339" fill="#9CA5BF"></path>
                            <path d="M44.1017896,17.5813973 L47.0621739,17.5813973 L47.0621739,20.5341751 L44.1017896,20.5341751 L44.1017896,17.5813973 Z" id="Fill-343" fill="#9CA5BF"></path>
                            <path d="M48.5008306,17.5813973 L51.4612148,17.5813973 L51.4612148,20.5341751 L48.5008306,20.5341751 L48.5008306,17.5813973 Z" id="Fill-347" fill="#9CA5BF"></path>
                            <path d="M52.8998715,17.5813973 L55.8602558,17.5813973 L55.8602558,20.5341751 L52.8998715,20.5341751 L52.8998715,17.5813973 Z" id="Fill-351" fill="#9CA5BF"></path>
                            <path d="M57.2993766,17.5813973 L60.2592968,17.5813973 L60.2592968,20.5341751 L57.2993766,20.5341751 L57.2993766,17.5813973 Z" id="Fill-355" fill="#9CA5BF"></path>
                            <path d="M61.6988817,17.5813973 L64.6592659,17.5813973 L64.6592659,20.5341751 L61.6988817,20.5341751 L61.6988817,17.5813973 Z" id="Fill-359" fill="#9CA5BF"></path>
                            <path d="M66.0979226,17.5813973 L69.0583069,17.5813973 L69.0583069,20.5341751 L66.0979226,20.5341751 L66.0979226,17.5813973 Z" id="Fill-363" fill="#9CA5BF"></path>
                            <path d="M70.4974277,17.5813973 L73.4573479,17.5813973 L73.4573479,20.5341751 L70.4974277,20.5341751 L70.4974277,17.5813973 Z" id="Fill-367" fill="#9CA5BF"></path>
                            <path d="M74.8964687,17.5813973 L77.8568529,17.5813973 L77.8568529,20.5341751 L74.8964687,20.5341751 L74.8964687,17.5813973 Z" id="Fill-371" fill="#9CA5BF"></path>
                            <path d="M79.2959737,17.5813973 L82.256358,17.5813973 L82.256358,20.5341751 L79.2959737,20.5341751 L79.2959737,17.5813973 Z" id="Fill-375" fill="#9CA5BF"></path>
                            <path d="M83.6950147,17.5813973 L86.6553989,17.5813973 L86.6553989,20.5341751 L83.6950147,20.5341751 L83.6950147,17.5813973 Z" id="Fill-379" fill="#9CA5BF"></path>
                            <path d="M88.0945197,17.5813973 L91.0544399,17.5813973 L91.0544399,20.5341751 L88.0945197,20.5341751 L88.0945197,17.5813973 Z" id="Fill-383" fill="#9CA5BF"></path>
                            <path d="M92.4940248,17.5813973 L95.4544091,17.5813973 L95.4544091,20.5341751 L92.4940248,20.5341751 L92.4940248,17.5813973 Z" id="Fill-387" fill="#9CA5BF"></path>
                            <path d="M96.8930658,17.5813973 L99.85345,17.5813973 L99.85345,20.5341751 L96.8930658,20.5341751 L96.8930658,17.5813973 Z" id="Fill-391" fill="#9CA5BF"></path>
                            <path d="M101.292571,17.5813973 L104.252491,17.5813973 L104.252491,20.5341751 L101.292571,20.5341751 L101.292571,17.5813973 Z" id="Fill-395" fill="#9CA5BF"></path>
                            <path d="M105.691612,17.5813973 L108.651532,17.5813973 L108.651532,20.5341751 L105.691612,20.5341751 L105.691612,17.5813973 Z" id="Fill-399" fill="#9CA5BF"></path>
                            <path d="M110.090189,17.5818603 L113.050109,17.5818603 L113.050109,20.534638 L110.090189,20.534638 L110.090189,17.5818603 Z" id="Fill-400" fill="#9CA5BF"></path>
                            <path d="M13.3066465,21.9698232 L16.2670307,21.9698232 L16.2670307,24.9235269 L13.3066465,24.9235269 L13.3066465,21.9698232 Z" id="Fill-403" fill="#9CA5BF"></path>
                            <path d="M17.7056874,21.9698232 L20.6660717,21.9698232 L20.6660717,24.9235269 L17.7056874,24.9235269 L17.7056874,21.9698232 Z" id="Fill-407" fill="#9CA5BF"></path>
                            <path d="M22.1051925,21.9698232 L25.0655767,21.9698232 L25.0655767,24.9235269 L22.1051925,24.9235269 L22.1051925,21.9698232 Z" id="Fill-411" fill="#9CA5BF"></path>
                            <path d="M26.5046975,21.9698232 L29.4646177,21.9698232 L29.4646177,24.9235269 L26.5046975,24.9235269 L26.5046975,21.9698232 Z" id="Fill-415" fill="#9CA5BF"></path>
                            <path d="M30.9037385,21.9698232 L33.8641228,21.9698232 L33.8641228,24.9235269 L30.9037385,24.9235269 L30.9037385,21.9698232 Z" id="Fill-419" fill="#9CA5BF"></path>
                            <path d="M35.3027795,21.9698232 L38.2631637,21.9698232 L38.2631637,24.9235269 L35.3027795,24.9235269 L35.3027795,21.9698232 Z" id="Fill-423" fill="#9CA5BF"></path>
                            <path d="M39.7022845,21.9698232 L42.6622047,21.9698232 L42.6622047,24.9235269 L39.7022845,24.9235269 L39.7022845,21.9698232 Z" id="Fill-427" fill="#9CA5BF"></path>
                            <path d="M44.1017896,21.9698232 L47.0621739,21.9698232 L47.0621739,24.9235269 L44.1017896,24.9235269 L44.1017896,21.9698232 Z" id="Fill-431" fill="#9CA5BF"></path>
                            <path d="M48.5008306,21.9698232 L51.4612148,21.9698232 L51.4612148,24.9235269 L48.5008306,24.9235269 L48.5008306,21.9698232 Z" id="Fill-435" fill="#9CA5BF"></path>
                            <path d="M52.8998715,21.9698232 L55.8602558,21.9698232 L55.8602558,24.9235269 L52.8998715,24.9235269 L52.8998715,21.9698232 Z" id="Fill-439" fill="#9CA5BF"></path>
                            <path d="M57.2993766,21.9698232 L60.2592968,21.9698232 L60.2592968,24.9235269 L57.2993766,24.9235269 L57.2993766,21.9698232 Z" id="Fill-443" fill="#9CA5BF"></path>
                            <path d="M61.6988817,21.9698232 L64.6592659,21.9698232 L64.6592659,24.9235269 L61.6988817,24.9235269 L61.6988817,21.9698232 Z" id="Fill-447" fill="#9CA5BF"></path>
                            <path d="M66.0979226,21.9698232 L69.0583069,21.9698232 L69.0583069,24.9235269 L66.0979226,24.9235269 L66.0979226,21.9698232 Z" id="Fill-451" fill="#9CA5BF"></path>
                            <path d="M70.4974277,21.9698232 L73.4573479,21.9698232 L73.4573479,24.9235269 L70.4974277,24.9235269 L70.4974277,21.9698232 Z" id="Fill-455" fill="#9CA5BF"></path>
                            <path d="M74.8964687,21.9698232 L77.8568529,21.9698232 L77.8568529,24.9235269 L74.8964687,24.9235269 L74.8964687,21.9698232 Z" id="Fill-459" fill="#9CA5BF"></path>
                            <path d="M79.2959737,21.9698232 L82.256358,21.9698232 L82.256358,24.9235269 L79.2959737,24.9235269 L79.2959737,21.9698232 Z" id="Fill-463" fill="#9CA5BF"></path>
                            <path d="M83.6950147,21.9698232 L86.6553989,21.9698232 L86.6553989,24.9235269 L83.6950147,24.9235269 L83.6950147,21.9698232 Z" id="Fill-467" fill="#9CA5BF"></path>
                            <path d="M88.0945197,21.9698232 L91.0544399,21.9698232 L91.0544399,24.9235269 L88.0945197,24.9235269 L88.0945197,21.9698232 Z" id="Fill-471" fill="#9CA5BF"></path>
                            <path d="M92.4940248,21.9698232 L95.4544091,21.9698232 L95.4544091,24.9235269 L92.4940248,24.9235269 L92.4940248,21.9698232 Z" id="Fill-475" fill="#9CA5BF"></path>
                            <path d="M96.8930658,21.9698232 L99.85345,21.9698232 L99.85345,24.9235269 L96.8930658,24.9235269 L96.8930658,21.9698232 Z" id="Fill-479" fill="#9CA5BF"></path>
                            <path d="M101.292571,21.9698232 L104.252491,21.9698232 L104.252491,24.9235269 L101.292571,24.9235269 L101.292571,21.9698232 Z" id="Fill-483" fill="#9CA5BF"></path>
                            <path d="M105.691612,21.9698232 L108.651532,21.9698232 L108.651532,24.9235269 L105.691612,24.9235269 L105.691612,21.9698232 Z" id="Fill-487" fill="#9CA5BF"></path>
                            <path d="M110.091117,21.9698232 L113.051501,21.9698232 L113.051501,24.9235269 L110.091117,24.9235269 L110.091117,21.9698232 Z" id="Fill-491" fill="#9CA5BF"></path>
                            <path d="M114.490158,21.9698232 L117.450542,21.9698232 L117.450542,24.9235269 L114.490158,24.9235269 L114.490158,21.9698232 Z" id="Fill-495" fill="#9CA5BF"></path>
                            <path d="M118.889663,21.9698232 L121.850047,21.9698232 L121.850047,24.9235269 L118.889663,24.9235269 L118.889663,21.9698232 Z" id="Fill-499" fill="#9CA5BF"></path>
                            <path d="M123.288704,21.9698232 L126.249088,21.9698232 L126.249088,24.9235269 L123.288704,24.9235269 L123.288704,21.9698232 Z" id="Fill-503" fill="#9CA5BF"></path>
                            <path d="M8.90760549,26.3591751 L11.8679897,26.3591751 L11.8679897,29.3119529 L8.90760549,29.3119529 L8.90760549,26.3591751 Z" id="Fill-507" fill="#9CA5BF"></path>
                            <path d="M13.3066465,26.3591751 L16.2670307,26.3591751 L16.2670307,29.3119529 L13.3066465,29.3119529 L13.3066465,26.3591751 Z" id="Fill-511" fill="#9CA5BF"></path>
                            <path d="M17.7056874,26.3591751 L20.6660717,26.3591751 L20.6660717,29.3119529 L17.7056874,29.3119529 L17.7056874,26.3591751 Z" id="Fill-515" fill="#F4A523"></path>
                            <path d="M22.1051925,26.3591751 L25.0655767,26.3591751 L25.0655767,29.3119529 L22.1051925,29.3119529 L22.1051925,26.3591751 Z" id="Fill-519" fill="#F4A523"></path>
                            <path d="M26.5046975,26.3591751 L29.4646177,26.3591751 L29.4646177,29.3119529 L26.5046975,29.3119529 L26.5046975,26.3591751 Z" id="Fill-523" fill="#9CA5BF"></path>
                            <path d="M30.9037385,26.3591751 L33.8641228,26.3591751 L33.8641228,29.3119529 L30.9037385,29.3119529 L30.9037385,26.3591751 Z" id="Fill-527" fill="#9CA5BF"></path>
                            <path d="M35.3027795,26.3591751 L38.2631637,26.3591751 L38.2631637,29.3119529 L35.3027795,29.3119529 L35.3027795,26.3591751 Z" id="Fill-531" fill="#9CA5BF"></path>
                            <path d="M39.7022845,26.3591751 L42.6622047,26.3591751 L42.6622047,29.3119529 L39.7022845,29.3119529 L39.7022845,26.3591751 Z" id="Fill-535" fill="#9CA5BF"></path>
                            <path d="M44.1017896,26.3591751 L47.0621739,26.3591751 L47.0621739,29.3119529 L44.1017896,29.3119529 L44.1017896,26.3591751 Z" id="Fill-539" fill="#9CA5BF"></path>
                            <path d="M48.5008306,26.3591751 L51.4612148,26.3591751 L51.4612148,29.3119529 L48.5008306,29.3119529 L48.5008306,26.3591751 Z" id="Fill-543" fill="#9CA5BF"></path>
                            <path d="M52.8998715,26.3591751 L55.8602558,26.3591751 L55.8602558,29.3119529 L52.8998715,29.3119529 L52.8998715,26.3591751 Z" id="Fill-547" fill="#9CA5BF"></path>
                            <path d="M57.2993766,26.3591751 L60.2592968,26.3591751 L60.2592968,29.3119529 L57.2993766,29.3119529 L57.2993766,26.3591751 Z" id="Fill-551" fill="#9CA5BF"></path>
                            <path d="M61.6988817,26.3591751 L64.6592659,26.3591751 L64.6592659,29.3119529 L61.6988817,29.3119529 L61.6988817,26.3591751 Z" id="Fill-555" fill="#9CA5BF"></path>
                            <path d="M66.0979226,26.3591751 L69.0583069,26.3591751 L69.0583069,29.3119529 L66.0979226,29.3119529 L66.0979226,26.3591751 Z" id="Fill-559" fill="#9CA5BF"></path>
                            <path d="M70.4974277,26.3591751 L73.4573479,26.3591751 L73.4573479,29.3119529 L70.4974277,29.3119529 L70.4974277,26.3591751 Z" id="Fill-563" fill="#9CA5BF"></path>
                            <path d="M74.8964687,26.3591751 L77.8568529,26.3591751 L77.8568529,29.3119529 L74.8964687,29.3119529 L74.8964687,26.3591751 Z" id="Fill-567" fill="#9CA5BF"></path>
                            <path d="M79.2959737,26.3591751 L82.256358,26.3591751 L82.256358,29.3119529 L79.2959737,29.3119529 L79.2959737,26.3591751 Z" id="Fill-571" fill="#9CA5BF"></path>
                            <path d="M83.6950147,26.3591751 L86.6553989,26.3591751 L86.6553989,29.3119529 L83.6950147,29.3119529 L83.6950147,26.3591751 Z" id="Fill-575" fill="#9CA5BF"></path>
                            <path d="M88.0945197,26.3591751 L91.0544399,26.3591751 L91.0544399,29.3119529 L88.0945197,29.3119529 L88.0945197,26.3591751 Z" id="Fill-579" fill="#9CA5BF"></path>
                            <path d="M92.4940248,26.3591751 L95.4544091,26.3591751 L95.4544091,29.3119529 L92.4940248,29.3119529 L92.4940248,26.3591751 Z" id="Fill-583" fill="#9CA5BF"></path>
                            <path d="M96.8930658,26.3591751 L99.85345,26.3591751 L99.85345,29.3119529 L96.8930658,29.3119529 L96.8930658,26.3591751 Z" id="Fill-587" fill="#9CA5BF"></path>
                            <path d="M101.292571,26.3591751 L104.252491,26.3591751 L104.252491,29.3119529 L101.292571,29.3119529 L101.292571,26.3591751 Z" id="Fill-591" fill="#9CA5BF"></path>
                            <path d="M105.691612,26.3591751 L108.651532,26.3591751 L108.651532,29.3119529 L105.691612,29.3119529 L105.691612,26.3591751 Z" id="Fill-595" fill="#9CA5BF"></path>
                            <path d="M110.091117,26.3591751 L113.051501,26.3591751 L113.051501,29.3119529 L110.091117,29.3119529 L110.091117,26.3591751 Z" id="Fill-599" fill="#9CA5BF"></path>
                            <path d="M114.490158,26.3591751 L117.450542,26.3591751 L117.450542,29.3119529 L114.490158,29.3119529 L114.490158,26.3591751 Z" id="Fill-603" fill="#9CA5BF"></path>
                            <path d="M118.889663,26.3591751 L121.850047,26.3591751 L121.850047,29.3119529 L118.889663,29.3119529 L118.889663,26.3591751 Z" id="Fill-607" fill="#9CA5BF"></path>
                            <path d="M123.288704,26.3591751 L126.249088,26.3591751 L126.249088,29.3119529 L123.288704,29.3119529 L123.288704,26.3591751 Z" id="Fill-611" fill="#9CA5BF"></path>
                            <path d="M127.688209,26.3591751 L130.648593,26.3591751 L130.648593,29.3119529 L127.688209,29.3119529 L127.688209,26.3591751 Z" id="Fill-615" fill="#9CA5BF"></path>
                            <path d="M132.087714,26.3591751 L135.047634,26.3591751 L135.047634,29.3119529 L132.087714,29.3119529 L132.087714,26.3591751 Z" id="Fill-619" fill="#9CA5BF"></path>
                            <path d="M136.486291,26.3591751 L139.446211,26.3591751 L139.446211,29.3119529 L136.486291,29.3119529 L136.486291,26.3591751 Z" id="Fill-620" fill="#9CA5BF"></path>
                            <path d="M4.50810043,30.747138 L7.46848469,30.747138 L7.46848469,33.6999158 L4.50810043,33.6999158 L4.50810043,30.747138 Z" id="Fill-623" fill="#9CA5BF"></path>
                            <path d="M8.90760549,30.747138 L11.8679897,30.747138 L11.8679897,33.6999158 L8.90760549,33.6999158 L8.90760549,30.747138 Z" id="Fill-627" fill="#9CA5BF"></path>
                            <path d="M13.3066465,30.747138 L16.2670307,30.747138 L16.2670307,33.6999158 L13.3066465,33.6999158 L13.3066465,30.747138 Z" id="Fill-631" fill="#9CA5BF"></path>
                            <path d="M17.7056874,30.747138 L20.6660717,30.747138 L20.6660717,33.6999158 L17.7056874,33.6999158 L17.7056874,30.747138 Z" id="Fill-635" fill="#F4A523"></path>
                            <path d="M22.1051925,30.747138 L25.0655767,30.747138 L25.0655767,33.6999158 L22.1051925,33.6999158 L22.1051925,30.747138 Z" id="Fill-639" fill="#F4A523"></path>
                            <path d="M26.5046975,30.747138 L29.4646177,30.747138 L29.4646177,33.6999158 L26.5046975,33.6999158 L26.5046975,30.747138 Z" id="Fill-643" fill="#9CA5BF"></path>
                            <path d="M30.9037385,30.747138 L33.8641228,30.747138 L33.8641228,33.6999158 L30.9037385,33.6999158 L30.9037385,30.747138 Z" id="Fill-647" fill="#9CA5BF"></path>
                            <path d="M35.3027795,30.747138 L38.2631637,30.747138 L38.2631637,33.6999158 L35.3027795,33.6999158 L35.3027795,30.747138 Z" id="Fill-651" fill="#9CA5BF"></path>
                            <path d="M39.7022845,30.747138 L42.6622047,30.747138 L42.6622047,33.6999158 L39.7022845,33.6999158 L39.7022845,30.747138 Z" id="Fill-655" fill="#9CA5BF"></path>
                            <path d="M44.1017896,30.747138 L47.0621739,30.747138 L47.0621739,33.6999158 L44.1017896,33.6999158 L44.1017896,30.747138 Z" id="Fill-659" fill="#9CA5BF"></path>
                            <path d="M48.5008306,30.747138 L51.4612148,30.747138 L51.4612148,33.6999158 L48.5008306,33.6999158 L48.5008306,30.747138 Z" id="Fill-663" fill="#9CA5BF"></path>
                            <path d="M52.8998715,30.747138 L55.8602558,30.747138 L55.8602558,33.6999158 L52.8998715,33.6999158 L52.8998715,30.747138 Z" id="Fill-667" fill="#9CA5BF"></path>
                            <path d="M57.2993766,30.747138 L60.2592968,30.747138 L60.2592968,33.6999158 L57.2993766,33.6999158 L57.2993766,30.747138 Z" id="Fill-671" fill="#9CA5BF"></path>
                            <path d="M61.6988817,30.747138 L64.6592659,30.747138 L64.6592659,33.6999158 L61.6988817,33.6999158 L61.6988817,30.747138 Z" id="Fill-675" fill="#9CA5BF"></path>
                            <path d="M66.0979226,30.747138 L69.0583069,30.747138 L69.0583069,33.6999158 L66.0979226,33.6999158 L66.0979226,30.747138 Z" id="Fill-679" fill="#9CA5BF"></path>
                            <path d="M70.4974277,30.747138 L73.4573479,30.747138 L73.4573479,33.6999158 L70.4974277,33.6999158 L70.4974277,30.747138 Z" id="Fill-683" fill="#9CA5BF"></path>
                            <path d="M74.8964687,30.747138 L77.8568529,30.747138 L77.8568529,33.6999158 L74.8964687,33.6999158 L74.8964687,30.747138 Z" id="Fill-687" fill="#9CA5BF"></path>
                            <path d="M79.2959737,30.747138 L82.256358,30.747138 L82.256358,33.6999158 L79.2959737,33.6999158 L79.2959737,30.747138 Z" id="Fill-691" fill="#9CA5BF"></path>
                            <path d="M83.6950147,30.747138 L86.6553989,30.747138 L86.6553989,33.6999158 L83.6950147,33.6999158 L83.6950147,30.747138 Z" id="Fill-695" fill="#9CA5BF"></path>
                            <path d="M88.0945197,30.747138 L91.0544399,30.747138 L91.0544399,33.6999158 L88.0945197,33.6999158 L88.0945197,30.747138 Z" id="Fill-699" fill="#9CA5BF"></path>
                            <path d="M92.4940248,30.747138 L95.4544091,30.747138 L95.4544091,33.6999158 L92.4940248,33.6999158 L92.4940248,30.747138 Z" id="Fill-703" fill="#9CA5BF"></path>
                            <path d="M96.8930658,30.747138 L99.85345,30.747138 L99.85345,33.6999158 L96.8930658,33.6999158 L96.8930658,30.747138 Z" id="Fill-707" fill="#9CA5BF"></path>
                            <path d="M101.292571,30.747138 L104.252491,30.747138 L104.252491,33.6999158 L101.292571,33.6999158 L101.292571,30.747138 Z" id="Fill-711" fill="#9CA5BF"></path>
                            <path d="M105.691612,30.747138 L108.651532,30.747138 L108.651532,33.6999158 L105.691612,33.6999158 L105.691612,30.747138 Z" id="Fill-715" fill="#9CA5BF"></path>
                            <path d="M110.091117,30.747138 L113.051501,30.747138 L113.051501,33.6999158 L110.091117,33.6999158 L110.091117,30.747138 Z" id="Fill-719" fill="#9CA5BF"></path>
                            <path d="M114.490158,30.747138 L117.450542,30.747138 L117.450542,33.6999158 L114.490158,33.6999158 L114.490158,30.747138 Z" id="Fill-723" fill="#9CA5BF"></path>
                            <path d="M118.889663,30.747138 L121.850047,30.747138 L121.850047,33.6999158 L118.889663,33.6999158 L118.889663,30.747138 Z" id="Fill-727" fill="#9CA5BF"></path>
                            <path d="M123.288704,30.747138 L126.249088,30.747138 L126.249088,33.6999158 L123.288704,33.6999158 L123.288704,30.747138 Z" id="Fill-731" fill="#9CA5BF"></path>
                            <path d="M127.688209,30.747138 L130.648593,30.747138 L130.648593,33.6999158 L127.688209,33.6999158 L127.688209,30.747138 Z" id="Fill-735" fill="#9CA5BF"></path>
                            <path d="M132.087714,30.747138 L135.047634,30.747138 L135.047634,33.6999158 L132.087714,33.6999158 L132.087714,30.747138 Z" id="Fill-739" fill="#9CA5BF"></path>
                            <path d="M136.486755,30.747138 L139.447139,30.747138 L139.447139,33.6999158 L136.486755,33.6999158 L136.486755,30.747138 Z" id="Fill-743" fill="#9CA5BF"></path>
                            <path d="M140.885796,30.747138 L143.84618,30.747138 L143.84618,33.6999158 L140.885796,33.6999158 L140.885796,30.747138 Z" id="Fill-747" fill="#9CA5BF"></path>
                            <path d="M145.284837,30.7485269 L148.245221,30.7485269 L148.245221,33.7013047 L145.284837,33.7013047 L145.284837,30.7485269 Z" id="Fill-748" fill="#9CA5BF"></path>
                            <path d="M4.50810043,35.135564 L7.46848469,35.135564 L7.46848469,38.0897306 L4.50810043,38.0897306 L4.50810043,35.135564 Z" id="Fill-751" fill="#9CA5BF"></path>
                            <path d="M8.90760549,35.135564 L11.8679897,35.135564 L11.8679897,38.0897306 L8.90760549,38.0897306 L8.90760549,35.135564 Z" id="Fill-755" fill="#9CA5BF"></path>
                            <path d="M13.3066465,35.135564 L16.2670307,35.135564 L16.2670307,38.0897306 L13.3066465,38.0897306 L13.3066465,35.135564 Z" id="Fill-759" fill="#9CA5BF"></path>
                            <path d="M17.7056874,35.135564 L20.6660717,35.135564 L20.6660717,38.0897306 L17.7056874,38.0897306 L17.7056874,35.135564 Z" id="Fill-763" fill="#9CA5BF"></path>
                            <path d="M22.1051925,35.135564 L25.0655767,35.135564 L25.0655767,38.0897306 L22.1051925,38.0897306 L22.1051925,35.135564 Z" id="Fill-767" fill="#9CA5BF"></path>
                            <path d="M26.5046975,35.135564 L29.4646177,35.135564 L29.4646177,38.0897306 L26.5046975,38.0897306 L26.5046975,35.135564 Z" id="Fill-771" fill="#9CA5BF"></path>
                            <path d="M30.9037385,35.135564 L33.8641228,35.135564 L33.8641228,38.0897306 L30.9037385,38.0897306 L30.9037385,35.135564 Z" id="Fill-775" fill="#9CA5BF"></path>
                            <path d="M35.3027795,35.135564 L38.2631637,35.135564 L38.2631637,38.0897306 L35.3027795,38.0897306 L35.3027795,35.135564 Z" id="Fill-779" fill="#9CA5BF"></path>
                            <path d="M39.7022845,35.135564 L42.6622047,35.135564 L42.6622047,38.0897306 L39.7022845,38.0897306 L39.7022845,35.135564 Z" id="Fill-783" fill="#9CA5BF"></path>
                            <path d="M44.1017896,35.135564 L47.0621739,35.135564 L47.0621739,38.0897306 L44.1017896,38.0897306 L44.1017896,35.135564 Z" id="Fill-787" fill="#9CA5BF"></path>
                            <path d="M48.5008306,35.135564 L51.4612148,35.135564 L51.4612148,38.0897306 L48.5008306,38.0897306 L48.5008306,35.135564 Z" id="Fill-791" fill="#9CA5BF"></path>
                            <path d="M52.8998715,35.135564 L55.8602558,35.135564 L55.8602558,38.0897306 L52.8998715,38.0897306 L52.8998715,35.135564 Z" id="Fill-795" fill="#9CA5BF"></path>
                            <path d="M57.2993766,35.135564 L60.2592968,35.135564 L60.2592968,38.0897306 L57.2993766,38.0897306 L57.2993766,35.135564 Z" id="Fill-799" fill="#9CA5BF"></path>
                            <path d="M61.6988817,35.135564 L64.6592659,35.135564 L64.6592659,38.0897306 L61.6988817,38.0897306 L61.6988817,35.135564 Z" id="Fill-803" fill="#9CA5BF"></path>
                            <path d="M66.0979226,35.135564 L69.0583069,35.135564 L69.0583069,38.0897306 L66.0979226,38.0897306 L66.0979226,35.135564 Z" id="Fill-807" fill="#9CA5BF"></path>
                            <path d="M70.4974277,35.135564 L73.4573479,35.135564 L73.4573479,38.0897306 L70.4974277,38.0897306 L70.4974277,35.135564 Z" id="Fill-811" fill="#9CA5BF"></path>
                            <path d="M74.8964687,35.135564 L77.8568529,35.135564 L77.8568529,38.0897306 L74.8964687,38.0897306 L74.8964687,35.135564 Z" id="Fill-815" fill="#9CA5BF"></path>
                            <path d="M79.2959737,35.135564 L82.256358,35.135564 L82.256358,38.0897306 L79.2959737,38.0897306 L79.2959737,35.135564 Z" id="Fill-819" fill="#9CA5BF"></path>
                            <path d="M83.6950147,35.135564 L86.6553989,35.135564 L86.6553989,38.0897306 L83.6950147,38.0897306 L83.6950147,35.135564 Z" id="Fill-823" fill="#9CA5BF"></path>
                            <path d="M88.0945197,35.135564 L91.0544399,35.135564 L91.0544399,38.0897306 L88.0945197,38.0897306 L88.0945197,35.135564 Z" id="Fill-827" fill="#9CA5BF"></path>
                            <path d="M92.4940248,35.135564 L95.4544091,35.135564 L95.4544091,38.0897306 L92.4940248,38.0897306 L92.4940248,35.135564 Z" id="Fill-831" fill="#9CA5BF"></path>
                            <path d="M96.8930658,35.135564 L99.85345,35.135564 L99.85345,38.0897306 L96.8930658,38.0897306 L96.8930658,35.135564 Z" id="Fill-835" fill="#9CA5BF"></path>
                            <path d="M101.292571,35.135564 L104.252491,35.135564 L104.252491,38.0897306 L101.292571,38.0897306 L101.292571,35.135564 Z" id="Fill-839" fill="#9CA5BF"></path>
                            <path d="M105.691612,35.135564 L108.651532,35.135564 L108.651532,38.0897306 L105.691612,38.0897306 L105.691612,35.135564 Z" id="Fill-843" fill="#9CA5BF"></path>
                            <path d="M110.091117,35.135564 L113.051501,35.135564 L113.051501,38.0897306 L110.091117,38.0897306 L110.091117,35.135564 Z" id="Fill-847" fill="#9CA5BF"></path>
                            <path d="M114.490158,35.135564 L117.450542,35.135564 L117.450542,38.0897306 L114.490158,38.0897306 L114.490158,35.135564 Z" id="Fill-851" fill="#9CA5BF"></path>
                            <path d="M118.889663,35.135564 L121.850047,35.135564 L121.850047,38.0897306 L118.889663,38.0897306 L118.889663,35.135564 Z" id="Fill-855" fill="#9CA5BF"></path>
                            <path d="M123.288704,35.135564 L126.249088,35.135564 L126.249088,38.0897306 L123.288704,38.0897306 L123.288704,35.135564 Z" id="Fill-859" fill="#9CA5BF"></path>
                            <path d="M127.688209,35.135564 L130.648593,35.135564 L130.648593,38.0897306 L127.688209,38.0897306 L127.688209,35.135564 Z" id="Fill-863" fill="#9CA5BF"></path>
                            <path d="M132.087714,35.135564 L135.047634,35.135564 L135.047634,38.0897306 L132.087714,38.0897306 L132.087714,35.135564 Z" id="Fill-867" fill="#9CA5BF"></path>
                            <path d="M136.486755,35.135564 L139.447139,35.135564 L139.447139,38.0897306 L136.486755,38.0897306 L136.486755,35.135564 Z" id="Fill-871" fill="#9CA5BF"></path>
                            <path d="M140.885796,35.135564 L143.84618,35.135564 L143.84618,38.0897306 L140.885796,38.0897306 L140.885796,35.135564 Z" id="Fill-875" fill="#9CA5BF"></path>
                            <path d="M145.284837,35.1364899 L148.245221,35.1364899 L148.245221,38.0906566 L145.284837,38.0906566 L145.284837,35.1364899 Z" id="Fill-876" fill="#9CA5BF"></path>
                            <path d="M149.683878,35.1364899 L152.644262,35.1364899 L152.644262,38.0906566 L149.683878,38.0906566 L149.683878,35.1364899 Z" id="Fill-877" fill="#9CA5BF"></path>
                            <path d="M4.50810043,39.5249158 L7.46848469,39.5249158 L7.46848469,42.4776936 L4.50810043,42.4776936 L4.50810043,39.5249158 Z" id="Fill-879" fill="#9CA5BF"></path>
                            <path d="M0.109059461,39.5249158 L3.06944372,39.5249158 L3.06944372,42.4776936 L0.109059461,42.4776936 L0.109059461,39.5249158 Z" id="Fill-880" fill="#9CA5BF"></path>
                            <path d="M8.90760549,39.5249158 L11.8679897,39.5249158 L11.8679897,42.4776936 L8.90760549,42.4776936 L8.90760549,39.5249158 Z" id="Fill-883" fill="#9CA5BF"></path>
                            <path d="M13.3066465,39.5249158 L16.2670307,39.5249158 L16.2670307,42.4776936 L13.3066465,42.4776936 L13.3066465,39.5249158 Z" id="Fill-887" fill="#9CA5BF"></path>
                            <path d="M17.7056874,39.5249158 L20.6660717,39.5249158 L20.6660717,42.4776936 L17.7056874,42.4776936 L17.7056874,39.5249158 Z" id="Fill-891" fill="#9CA5BF"></path>
                            <path d="M22.1051925,39.5249158 L25.0655767,39.5249158 L25.0655767,42.4776936 L22.1051925,42.4776936 L22.1051925,39.5249158 Z" id="Fill-895" fill="#9CA5BF"></path>
                            <path d="M26.5046975,39.5249158 L29.4646177,39.5249158 L29.4646177,42.4776936 L26.5046975,42.4776936 L26.5046975,39.5249158 Z" id="Fill-899" fill="#9CA5BF"></path>
                            <path d="M30.9037385,39.5249158 L33.8641228,39.5249158 L33.8641228,42.4776936 L30.9037385,42.4776936 L30.9037385,39.5249158 Z" id="Fill-903" fill="#9CA5BF"></path>
                            <path d="M35.3027795,39.5249158 L38.2631637,39.5249158 L38.2631637,42.4776936 L35.3027795,42.4776936 L35.3027795,39.5249158 Z" id="Fill-907" fill="#9CA5BF"></path>
                            <path d="M39.7022845,39.5249158 L42.6622047,39.5249158 L42.6622047,42.4776936 L39.7022845,42.4776936 L39.7022845,39.5249158 Z" id="Fill-911" fill="#9CA5BF"></path>
                            <path d="M44.1017896,39.5249158 L47.0621739,39.5249158 L47.0621739,42.4776936 L44.1017896,42.4776936 L44.1017896,39.5249158 Z" id="Fill-915" fill="#9CA5BF"></path>
                            <path d="M48.5008306,39.5249158 L51.4612148,39.5249158 L51.4612148,42.4776936 L48.5008306,42.4776936 L48.5008306,39.5249158 Z" id="Fill-919" fill="#9CA5BF"></path>
                            <path d="M52.8998715,39.5249158 L55.8602558,39.5249158 L55.8602558,42.4776936 L52.8998715,42.4776936 L52.8998715,39.5249158 Z" id="Fill-923" fill="#9CA5BF"></path>
                            <path d="M57.2993766,39.5249158 L60.2592968,39.5249158 L60.2592968,42.4776936 L57.2993766,42.4776936 L57.2993766,39.5249158 Z" id="Fill-927" fill="#9CA5BF"></path>
                            <path d="M61.6988817,39.5249158 L64.6592659,39.5249158 L64.6592659,42.4776936 L61.6988817,42.4776936 L61.6988817,39.5249158 Z" id="Fill-931" fill="#9CA5BF"></path>
                            <path d="M66.0979226,39.5249158 L69.0583069,39.5249158 L69.0583069,42.4776936 L66.0979226,42.4776936 L66.0979226,39.5249158 Z" id="Fill-935" fill="#9CA5BF"></path>
                            <path d="M70.4974277,39.5249158 L73.4573479,39.5249158 L73.4573479,42.4776936 L70.4974277,42.4776936 L70.4974277,39.5249158 Z" id="Fill-939" fill="#9CA5BF"></path>
                            <path d="M74.8964687,39.5249158 L77.8568529,39.5249158 L77.8568529,42.4776936 L74.8964687,42.4776936 L74.8964687,39.5249158 Z" id="Fill-943" fill="#9CA5BF"></path>
                            <path d="M79.2959737,39.5249158 L82.256358,39.5249158 L82.256358,42.4776936 L79.2959737,42.4776936 L79.2959737,39.5249158 Z" id="Fill-947" fill="#9CA5BF"></path>
                            <path d="M83.6950147,39.5249158 L86.6553989,39.5249158 L86.6553989,42.4776936 L83.6950147,42.4776936 L83.6950147,39.5249158 Z" id="Fill-951" fill="#9CA5BF"></path>
                            <path d="M88.0945197,39.5249158 L91.0544399,39.5249158 L91.0544399,42.4776936 L88.0945197,42.4776936 L88.0945197,39.5249158 Z" id="Fill-955" fill="#9CA5BF"></path>
                            <path d="M92.4940248,39.5249158 L95.4544091,39.5249158 L95.4544091,42.4776936 L92.4940248,42.4776936 L92.4940248,39.5249158 Z" id="Fill-959" fill="#9CA5BF"></path>
                            <path d="M96.8930658,39.5249158 L99.85345,39.5249158 L99.85345,42.4776936 L96.8930658,42.4776936 L96.8930658,39.5249158 Z" id="Fill-963" fill="#9CA5BF"></path>
                            <path d="M101.292571,39.5249158 L104.252491,39.5249158 L104.252491,42.4776936 L101.292571,42.4776936 L101.292571,39.5249158 Z" id="Fill-967" fill="#9CA5BF"></path>
                            <path d="M105.691612,39.5249158 L108.651532,39.5249158 L108.651532,42.4776936 L105.691612,42.4776936 L105.691612,39.5249158 Z" id="Fill-971" fill="#9CA5BF"></path>
                            <path d="M110.091117,39.5249158 L113.051501,39.5249158 L113.051501,42.4776936 L110.091117,42.4776936 L110.091117,39.5249158 Z" id="Fill-975" fill="#9CA5BF"></path>
                            <path d="M114.490158,39.5249158 L117.450542,39.5249158 L117.450542,42.4776936 L114.490158,42.4776936 L114.490158,39.5249158 Z" id="Fill-979" fill="#9CA5BF"></path>
                            <path d="M118.889663,39.5249158 L121.850047,39.5249158 L121.850047,42.4776936 L118.889663,42.4776936 L118.889663,39.5249158 Z" id="Fill-983" fill="#9CA5BF"></path>
                            <path d="M123.288704,39.5249158 L126.249088,39.5249158 L126.249088,42.4776936 L123.288704,42.4776936 L123.288704,39.5249158 Z" id="Fill-987" fill="#9CA5BF"></path>
                            <path d="M127.688209,39.5249158 L130.648593,39.5249158 L130.648593,42.4776936 L127.688209,42.4776936 L127.688209,39.5249158 Z" id="Fill-991" fill="#9CA5BF"></path>
                            <path d="M132.087714,39.5249158 L135.047634,39.5249158 L135.047634,42.4776936 L132.087714,42.4776936 L132.087714,39.5249158 Z" id="Fill-995" fill="#9CA5BF"></path>
                            <path d="M136.486755,39.5249158 L139.447139,39.5249158 L139.447139,42.4776936 L136.486755,42.4776936 L136.486755,39.5249158 Z" id="Fill-999" fill="#9CA5BF"></path>
                            <path d="M140.885796,39.5249158 L143.84618,39.5249158 L143.84618,42.4776936 L140.885796,42.4776936 L140.885796,39.5249158 Z" id="Fill-1003" fill="#9CA5BF"></path>
                            <path d="M145.284837,39.5258418 L148.245221,39.5258418 L148.245221,42.4786195 L145.284837,42.4786195 L145.284837,39.5258418 Z" id="Fill-1004" fill="#9CA5BF"></path>
                            <path d="M0.108595378,43.9133418 L3.06897963,43.9133418 L3.06897963,46.8661195 L0.108595378,46.8661195 L0.108595378,43.9133418 Z" id="Fill-1007" fill="#9CA5BF"></path>
                            <path d="M4.50810043,43.9133418 L7.46848469,43.9133418 L7.46848469,46.8661195 L4.50810043,46.8661195 L4.50810043,43.9133418 Z" id="Fill-1011" fill="#9CA5BF"></path>
                            <path d="M8.90760549,43.9133418 L11.8679897,43.9133418 L11.8679897,46.8661195 L8.90760549,46.8661195 L8.90760549,43.9133418 Z" id="Fill-1015" fill="#9CA5BF"></path>
                            <path d="M13.3066465,43.9133418 L16.2670307,43.9133418 L16.2670307,46.8661195 L13.3066465,46.8661195 L13.3066465,43.9133418 Z" id="Fill-1019" fill="#9CA5BF"></path>
                            <path d="M17.7056874,43.9133418 L20.6660717,43.9133418 L20.6660717,46.8661195 L17.7056874,46.8661195 L17.7056874,43.9133418 Z" id="Fill-1023" fill="#9CA5BF"></path>
                            <path d="M22.1051925,43.9133418 L25.0655767,43.9133418 L25.0655767,46.8661195 L22.1051925,46.8661195 L22.1051925,43.9133418 Z" id="Fill-1027" fill="#9CA5BF"></path>
                            <path d="M26.5046975,43.9133418 L29.4646177,43.9133418 L29.4646177,46.8661195 L26.5046975,46.8661195 L26.5046975,43.9133418 Z" id="Fill-1031" fill="#9CA5BF"></path>
                            <path d="M30.9037385,43.9133418 L33.8641228,43.9133418 L33.8641228,46.8661195 L30.9037385,46.8661195 L30.9037385,43.9133418 Z" id="Fill-1035" fill="#9CA5BF"></path>
                            <path d="M35.3027795,43.9133418 L38.2631637,43.9133418 L38.2631637,46.8661195 L35.3027795,46.8661195 L35.3027795,43.9133418 Z" id="Fill-1039" fill="#9CA5BF"></path>
                            <path d="M39.7022845,43.9133418 L42.6622047,43.9133418 L42.6622047,46.8661195 L39.7022845,46.8661195 L39.7022845,43.9133418 Z" id="Fill-1043" fill="#9CA5BF"></path>
                            <path d="M44.1017896,43.9133418 L47.0621739,43.9133418 L47.0621739,46.8661195 L44.1017896,46.8661195 L44.1017896,43.9133418 Z" id="Fill-1047" fill="#9CA5BF"></path>
                            <path d="M48.5008306,43.9133418 L51.4612148,43.9133418 L51.4612148,46.8661195 L48.5008306,46.8661195 L48.5008306,43.9133418 Z" id="Fill-1051" fill="#9CA5BF"></path>
                            <path d="M52.8998715,43.9133418 L55.8602558,43.9133418 L55.8602558,46.8661195 L52.8998715,46.8661195 L52.8998715,43.9133418 Z" id="Fill-1055" fill="#9CA5BF"></path>
                            <path d="M57.2993766,43.9133418 L60.2592968,43.9133418 L60.2592968,46.8661195 L57.2993766,46.8661195 L57.2993766,43.9133418 Z" id="Fill-1059" fill="#9CA5BF"></path>
                            <path d="M61.6988817,43.9133418 L64.6592659,43.9133418 L64.6592659,46.8661195 L61.6988817,46.8661195 L61.6988817,43.9133418 Z" id="Fill-1063" fill="#9CA5BF"></path>
                            <path d="M66.0979226,43.9133418 L69.0583069,43.9133418 L69.0583069,46.8661195 L66.0979226,46.8661195 L66.0979226,43.9133418 Z" id="Fill-1067" fill="#9CA5BF"></path>
                            <path d="M70.4974277,43.9133418 L73.4573479,43.9133418 L73.4573479,46.8661195 L70.4974277,46.8661195 L70.4974277,43.9133418 Z" id="Fill-1071" fill="#9CA5BF"></path>
                            <path d="M74.8964687,43.9133418 L77.8568529,43.9133418 L77.8568529,46.8661195 L74.8964687,46.8661195 L74.8964687,43.9133418 Z" id="Fill-1075" fill="#9CA5BF"></path>
                            <path d="M79.2959737,43.9133418 L82.256358,43.9133418 L82.256358,46.8661195 L79.2959737,46.8661195 L79.2959737,43.9133418 Z" id="Fill-1079" fill="#9CA5BF"></path>
                            <path d="M83.6950147,43.9133418 L86.6553989,43.9133418 L86.6553989,46.8661195 L83.6950147,46.8661195 L83.6950147,43.9133418 Z" id="Fill-1083" fill="#9CA5BF"></path>
                            <path d="M88.0945197,43.9133418 L91.0544399,43.9133418 L91.0544399,46.8661195 L88.0945197,46.8661195 L88.0945197,43.9133418 Z" id="Fill-1087" fill="#9CA5BF"></path>
                            <path d="M92.4940248,43.9133418 L95.4544091,43.9133418 L95.4544091,46.8661195 L92.4940248,46.8661195 L92.4940248,43.9133418 Z" id="Fill-1091" fill="#9CA5BF"></path>
                            <path d="M96.8930658,43.9133418 L99.85345,43.9133418 L99.85345,46.8661195 L96.8930658,46.8661195 L96.8930658,43.9133418 Z" id="Fill-1095" fill="#9CA5BF"></path>
                            <path d="M101.292571,43.9133418 L104.252491,43.9133418 L104.252491,46.8661195 L101.292571,46.8661195 L101.292571,43.9133418 Z" id="Fill-1099" fill="#9CA5BF"></path>
                            <path d="M105.691612,43.9133418 L108.651532,43.9133418 L108.651532,46.8661195 L105.691612,46.8661195 L105.691612,43.9133418 Z" id="Fill-1103" fill="#9CA5BF"></path>
                            <path d="M110.091117,43.9133418 L113.051501,43.9133418 L113.051501,46.8661195 L110.091117,46.8661195 L110.091117,43.9133418 Z" id="Fill-1107" fill="#9CA5BF"></path>
                            <path d="M114.490158,43.9133418 L117.450542,43.9133418 L117.450542,46.8661195 L114.490158,46.8661195 L114.490158,43.9133418 Z" id="Fill-1111" fill="#9CA5BF"></path>
                            <path d="M118.889663,43.9133418 L121.850047,43.9133418 L121.850047,46.8661195 L118.889663,46.8661195 L118.889663,43.9133418 Z" id="Fill-1115" fill="#9CA5BF"></path>
                            <path d="M123.288704,43.9133418 L126.249088,43.9133418 L126.249088,46.8661195 L123.288704,46.8661195 L123.288704,43.9133418 Z" id="Fill-1119" fill="#9CA5BF"></path>
                            <path d="M127.688209,43.9133418 L130.648593,43.9133418 L130.648593,46.8661195 L127.688209,46.8661195 L127.688209,43.9133418 Z" id="Fill-1123" fill="#9CA5BF"></path>
                            <path d="M132.087714,43.9133418 L135.047634,43.9133418 L135.047634,46.8661195 L132.087714,46.8661195 L132.087714,43.9133418 Z" id="Fill-1127" fill="#9CA5BF"></path>
                            <path d="M136.486755,43.9133418 L139.447139,43.9133418 L139.447139,46.8661195 L136.486755,46.8661195 L136.486755,43.9133418 Z" id="Fill-1131" fill="#9CA5BF"></path>
                            <path d="M140.885796,43.9138047 L143.84618,43.9138047 L143.84618,46.8665825 L140.885796,46.8665825 L140.885796,43.9138047 Z" id="Fill-1132" fill="#9CA5BF"></path>
                            <path d="M145.284837,43.9138047 L148.245221,43.9138047 L148.245221,46.8665825 L145.284837,46.8665825 L145.284837,43.9138047 Z" id="Fill-1133" fill="#9CA5BF"></path>
                            <path d="M0.108595378,48.3017677 L3.06897963,48.3017677 L3.06897963,51.2554714 L0.108595378,51.2554714 L0.108595378,48.3017677 Z" id="Fill-1135" fill="#9CA5BF"></path>
                            <path d="M4.50810043,48.3017677 L7.46848469,48.3017677 L7.46848469,51.2554714 L4.50810043,51.2554714 L4.50810043,48.3017677 Z" id="Fill-1139" fill="#9CA5BF"></path>
                            <path d="M8.90760549,48.3017677 L11.8679897,48.3017677 L11.8679897,51.2554714 L8.90760549,51.2554714 L8.90760549,48.3017677 Z" id="Fill-1143" fill="#9CA5BF"></path>
                            <path d="M13.3066465,48.3017677 L16.2670307,48.3017677 L16.2670307,51.2554714 L13.3066465,51.2554714 L13.3066465,48.3017677 Z" id="Fill-1147" fill="#9CA5BF"></path>
                            <path d="M13.3071105,52.6906566 L16.2674948,52.6906566 L16.2674948,55.6443603 L13.3071105,55.6443603 L13.3071105,52.6906566 Z" id="Fill-1148" fill="#9CA5BF"></path>
                            <path d="M17.7056874,48.3017677 L20.6660717,48.3017677 L20.6660717,51.2554714 L17.7056874,51.2554714 L17.7056874,48.3017677 Z" id="Fill-1151" fill="#9CA5BF"></path>
                            <path d="M17.7061515,52.6906566 L20.6665358,52.6906566 L20.6665358,55.6443603 L17.7061515,55.6443603 L17.7061515,52.6906566 Z" id="Fill-1152" fill="#9CA5BF"></path>
                            <path d="M22.1051925,48.3017677 L25.0655767,48.3017677 L25.0655767,51.2554714 L22.1051925,51.2554714 L22.1051925,48.3017677 Z" id="Fill-1155" fill="#9CA5BF"></path>
                            <path d="M26.5046975,48.3017677 L29.4646177,48.3017677 L29.4646177,51.2554714 L26.5046975,51.2554714 L26.5046975,48.3017677 Z" id="Fill-1159" fill="#9CA5BF"></path>
                            <path d="M30.9037385,48.3017677 L33.8641228,48.3017677 L33.8641228,51.2554714 L30.9037385,51.2554714 L30.9037385,48.3017677 Z" id="Fill-1163" fill="#9CA5BF"></path>
                            <path d="M35.3027795,48.3017677 L38.2631637,48.3017677 L38.2631637,51.2554714 L35.3027795,51.2554714 L35.3027795,48.3017677 Z" id="Fill-1167" fill="#9CA5BF"></path>
                            <path d="M48.5008306,48.3017677 L51.4612148,48.3017677 L51.4612148,51.2554714 L48.5008306,51.2554714 L48.5008306,48.3017677 Z" id="Fill-1179" fill="#9CA5BF"></path>
                            <path d="M52.8998715,48.3017677 L55.8602558,48.3017677 L55.8602558,51.2554714 L52.8998715,51.2554714 L52.8998715,48.3017677 Z" id="Fill-1183" fill="#9CA5BF"></path>
                            <path d="M57.2993766,48.3017677 L60.2592968,48.3017677 L60.2592968,51.2554714 L57.2993766,51.2554714 L57.2993766,48.3017677 Z" id="Fill-1187" fill="#9CA5BF"></path>
                            <path d="M61.6988817,48.3017677 L64.6592659,48.3017677 L64.6592659,51.2554714 L61.6988817,51.2554714 L61.6988817,48.3017677 Z" id="Fill-1191" fill="#9CA5BF"></path>
                            <path d="M66.0979226,48.3017677 L69.0583069,48.3017677 L69.0583069,51.2554714 L66.0979226,51.2554714 L66.0979226,48.3017677 Z" id="Fill-1195" fill="#9CA5BF"></path>
                            <path d="M70.4974277,48.3017677 L73.4573479,48.3017677 L73.4573479,51.2554714 L70.4974277,51.2554714 L70.4974277,48.3017677 Z" id="Fill-1199" fill="#9CA5BF"></path>
                            <path d="M74.8964687,48.3017677 L77.8568529,48.3017677 L77.8568529,51.2554714 L74.8964687,51.2554714 L74.8964687,48.3017677 Z" id="Fill-1203" fill="#9CA5BF"></path>
                            <path d="M79.2959737,48.3017677 L82.256358,48.3017677 L82.256358,51.2554714 L79.2959737,51.2554714 L79.2959737,48.3017677 Z" id="Fill-1207" fill="#9CA5BF"></path>
                            <path d="M83.6950147,48.3017677 L86.6553989,48.3017677 L86.6553989,51.2554714 L83.6950147,51.2554714 L83.6950147,48.3017677 Z" id="Fill-1211" fill="#9CA5BF"></path>
                            <path d="M88.0945197,48.3017677 L91.0544399,48.3017677 L91.0544399,51.2554714 L88.0945197,51.2554714 L88.0945197,48.3017677 Z" id="Fill-1215" fill="#9CA5BF"></path>
                            <path d="M92.4940248,48.3017677 L95.4544091,48.3017677 L95.4544091,51.2554714 L92.4940248,51.2554714 L92.4940248,48.3017677 Z" id="Fill-1219" fill="#9CA5BF"></path>
                            <path d="M96.8930658,48.3017677 L99.85345,48.3017677 L99.85345,51.2554714 L96.8930658,51.2554714 L96.8930658,48.3017677 Z" id="Fill-1223" fill="#9CA5BF"></path>
                            <path d="M101.292571,48.3017677 L104.252491,48.3017677 L104.252491,51.2554714 L101.292571,51.2554714 L101.292571,48.3017677 Z" id="Fill-1227" fill="#9CA5BF"></path>
                            <path d="M105.691612,48.3017677 L108.651532,48.3017677 L108.651532,51.2554714 L105.691612,51.2554714 L105.691612,48.3017677 Z" id="Fill-1231" fill="#9CA5BF"></path>
                            <path d="M110.091117,48.3017677 L113.051501,48.3017677 L113.051501,51.2554714 L110.091117,51.2554714 L110.091117,48.3017677 Z" id="Fill-1235" fill="#9CA5BF"></path>
                            <path d="M114.490158,48.3017677 L117.450542,48.3017677 L117.450542,51.2554714 L114.490158,51.2554714 L114.490158,48.3017677 Z" id="Fill-1239" fill="#9CA5BF"></path>
                            <path d="M118.889663,48.3017677 L121.850047,48.3017677 L121.850047,51.2554714 L118.889663,51.2554714 L118.889663,48.3017677 Z" id="Fill-1243" fill="#9CA5BF"></path>
                            <path d="M123.288704,48.3017677 L126.249088,48.3017677 L126.249088,51.2554714 L123.288704,51.2554714 L123.288704,48.3017677 Z" id="Fill-1247" fill="#9CA5BF"></path>
                            <path d="M127.688209,48.3017677 L130.648593,48.3017677 L130.648593,51.2554714 L127.688209,51.2554714 L127.688209,48.3017677 Z" id="Fill-1251" fill="#9CA5BF"></path>
                            <path d="M132.087714,48.3017677 L135.047634,48.3017677 L135.047634,51.2554714 L132.087714,51.2554714 L132.087714,48.3017677 Z" id="Fill-1255" fill="#9CA5BF"></path>
                            <path d="M136.486755,48.3017677 L139.447139,48.3017677 L139.447139,51.2554714 L136.486755,51.2554714 L136.486755,48.3017677 Z" id="Fill-1259" fill="#9CA5BF"></path>
                            <path d="M140.885796,48.3017677 L143.84618,48.3017677 L143.84618,51.2554714 L140.885796,51.2554714 L140.885796,48.3017677 Z" id="Fill-1263" fill="#9CA5BF"></path>
                            <path d="M22.1051925,52.6911195 L25.0655767,52.6911195 L25.0655767,55.6438973 L22.1051925,55.6438973 L22.1051925,52.6911195 Z" id="Fill-1279" fill="#9CA5BF"></path>
                            <path d="M26.5046975,52.6911195 L29.4646177,52.6911195 L29.4646177,55.6438973 L26.5046975,55.6438973 L26.5046975,52.6911195 Z" id="Fill-1283" fill="#9CA5BF"></path>
                            <path d="M52.8998715,52.6911195 L55.8602558,52.6911195 L55.8602558,55.6438973 L52.8998715,55.6438973 L52.8998715,52.6911195 Z" id="Fill-1295" fill="#9CA5BF"></path>
                            <path d="M57.2993766,52.6911195 L60.2592968,52.6911195 L60.2592968,55.6438973 L57.2993766,55.6438973 L57.2993766,52.6911195 Z" id="Fill-1299" fill="#9CA5BF"></path>
                            <path d="M61.6988817,52.6911195 L64.6592659,52.6911195 L64.6592659,55.6438973 L61.6988817,55.6438973 L61.6988817,52.6911195 Z" id="Fill-1303" fill="#9CA5BF"></path>
                            <path d="M66.0979226,52.6911195 L69.0583069,52.6911195 L69.0583069,55.6438973 L66.0979226,55.6438973 L66.0979226,52.6911195 Z" id="Fill-1307" fill="#9CA5BF"></path>
                            <path d="M70.4974277,52.6911195 L73.4573479,52.6911195 L73.4573479,55.6438973 L70.4974277,55.6438973 L70.4974277,52.6911195 Z" id="Fill-1311" fill="#9CA5BF"></path>
                            <path d="M74.8964687,52.6911195 L77.8568529,52.6911195 L77.8568529,55.6438973 L74.8964687,55.6438973 L74.8964687,52.6911195 Z" id="Fill-1315" fill="#9CA5BF"></path>
                            <path d="M79.2959737,52.6911195 L82.256358,52.6911195 L82.256358,55.6438973 L79.2959737,55.6438973 L79.2959737,52.6911195 Z" id="Fill-1319" fill="#9CA5BF"></path>
                            <path d="M83.6950147,52.6911195 L86.6553989,52.6911195 L86.6553989,55.6438973 L83.6950147,55.6438973 L83.6950147,52.6911195 Z" id="Fill-1323" fill="#9CA5BF"></path>
                            <path d="M88.0945197,52.6911195 L91.0544399,52.6911195 L91.0544399,55.6438973 L88.0945197,55.6438973 L88.0945197,52.6911195 Z" id="Fill-1327" fill="#9CA5BF"></path>
                            <path d="M92.4940248,52.6911195 L95.4544091,52.6911195 L95.4544091,55.6438973 L92.4940248,55.6438973 L92.4940248,52.6911195 Z" id="Fill-1331" fill="#9CA5BF"></path>
                            <path d="M96.8930658,52.6911195 L99.85345,52.6911195 L99.85345,55.6438973 L96.8930658,55.6438973 L96.8930658,52.6911195 Z" id="Fill-1335" fill="#9CA5BF"></path>
                            <path d="M101.292571,52.6911195 L104.252491,52.6911195 L104.252491,55.6438973 L101.292571,55.6438973 L101.292571,52.6911195 Z" id="Fill-1339" fill="#9CA5BF"></path>
                            <path d="M105.691612,52.6911195 L108.651532,52.6911195 L108.651532,55.6438973 L105.691612,55.6438973 L105.691612,52.6911195 Z" id="Fill-1343" fill="#9CA5BF"></path>
                            <path d="M110.091117,52.6911195 L113.051501,52.6911195 L113.051501,55.6438973 L110.091117,55.6438973 L110.091117,52.6911195 Z" id="Fill-1347" fill="#9CA5BF"></path>
                            <path d="M114.490158,52.6911195 L117.450542,52.6911195 L117.450542,55.6438973 L114.490158,55.6438973 L114.490158,52.6911195 Z" id="Fill-1351" fill="#9CA5BF"></path>
                            <path d="M118.889663,52.6911195 L121.850047,52.6911195 L121.850047,55.6438973 L118.889663,55.6438973 L118.889663,52.6911195 Z" id="Fill-1355" fill="#9CA5BF"></path>
                            <path d="M123.288704,52.6911195 L126.249088,52.6911195 L126.249088,55.6438973 L123.288704,55.6438973 L123.288704,52.6911195 Z" id="Fill-1359" fill="#9CA5BF"></path>
                            <path d="M127.688209,52.6911195 L130.648593,52.6911195 L130.648593,55.6438973 L127.688209,55.6438973 L127.688209,52.6911195 Z" id="Fill-1363" fill="#9CA5BF"></path>
                            <path d="M132.087714,52.6911195 L135.047634,52.6911195 L135.047634,55.6438973 L132.087714,55.6438973 L132.087714,52.6911195 Z" id="Fill-1367" fill="#9CA5BF"></path>
                            <path d="M136.486755,52.6911195 L139.447139,52.6911195 L139.447139,55.6438973 L136.486755,55.6438973 L136.486755,52.6911195 Z" id="Fill-1371" fill="#9CA5BF"></path>
                            <path d="M140.885796,52.6906566 L143.84618,52.6906566 L143.84618,55.6434343 L140.885796,55.6434343 L140.885796,52.6906566 Z" id="Fill-1372" fill="#9CA5BF"></path>
                            <path d="M145.284837,48.3017677 L148.245221,48.3017677 L148.245221,51.2554714 L145.284837,51.2554714 L145.284837,48.3017677 Z" id="Fill-1264" fill="#9CA5BF"></path>
                            <path d="M149.683878,48.3017677 L152.644262,48.3017677 L152.644262,51.2554714 L149.683878,51.2554714 L149.683878,48.3017677 Z" id="Fill-1265" fill="#9CA5BF"></path>
                            <path d="M145.284837,52.6906566 L148.245221,52.6906566 L148.245221,55.6434343 L145.284837,55.6434343 L145.284837,52.6906566 Z" id="Fill-1373" fill="#9CA5BF"></path>
                            <path d="M57.2993766,57.0790825 L60.2592968,57.0790825 L60.2592968,60.0318603 L57.2993766,60.0318603 L57.2993766,57.0790825 Z" id="Fill-1375" fill="#9CA5BF"></path>
                            <path d="M61.6988817,57.0790825 L64.6592659,57.0790825 L64.6592659,60.0318603 L61.6988817,60.0318603 L61.6988817,57.0790825 Z" id="Fill-1379" fill="#9CA5BF"></path>
                            <path d="M66.0979226,57.0790825 L69.0583069,57.0790825 L69.0583069,60.0318603 L66.0979226,60.0318603 L66.0979226,57.0790825 Z" id="Fill-1383" fill="#9CA5BF"></path>
                            <path d="M70.4974277,57.0790825 L73.4573479,57.0790825 L73.4573479,60.0318603 L70.4974277,60.0318603 L70.4974277,57.0790825 Z" id="Fill-1387" fill="#9CA5BF"></path>
                            <path d="M74.8964687,57.0790825 L77.8568529,57.0790825 L77.8568529,60.0318603 L74.8964687,60.0318603 L74.8964687,57.0790825 Z" id="Fill-1391" fill="#9CA5BF"></path>
                            <path d="M79.2959737,57.0790825 L82.256358,57.0790825 L82.256358,60.0318603 L79.2959737,60.0318603 L79.2959737,57.0790825 Z" id="Fill-1395" fill="#9CA5BF"></path>
                            <path d="M83.6950147,57.0790825 L86.6553989,57.0790825 L86.6553989,60.0318603 L83.6950147,60.0318603 L83.6950147,57.0790825 Z" id="Fill-1399" fill="#9CA5BF"></path>
                            <path d="M88.0945197,57.0790825 L91.0544399,57.0790825 L91.0544399,60.0318603 L88.0945197,60.0318603 L88.0945197,57.0790825 Z" id="Fill-1403" fill="#9CA5BF"></path>
                            <path d="M92.4940248,57.0790825 L95.4544091,57.0790825 L95.4544091,60.0318603 L92.4940248,60.0318603 L92.4940248,57.0790825 Z" id="Fill-1407" fill="#9CA5BF"></path>
                            <path d="M96.8930658,57.0790825 L99.85345,57.0790825 L99.85345,60.0318603 L96.8930658,60.0318603 L96.8930658,57.0790825 Z" id="Fill-1411" fill="#9CA5BF"></path>
                            <path d="M101.292571,57.0790825 L104.252491,57.0790825 L104.252491,60.0318603 L101.292571,60.0318603 L101.292571,57.0790825 Z" id="Fill-1415" fill="#9CA5BF"></path>
                            <path d="M105.691612,57.0790825 L108.651532,57.0790825 L108.651532,60.0318603 L105.691612,60.0318603 L105.691612,57.0790825 Z" id="Fill-1419" fill="#9CA5BF"></path>
                            <path d="M110.091117,57.0790825 L113.051501,57.0790825 L113.051501,60.0318603 L110.091117,60.0318603 L110.091117,57.0790825 Z" id="Fill-1423" fill="#9CA5BF"></path>
                            <path d="M114.490158,57.0790825 L117.450542,57.0790825 L117.450542,60.0318603 L114.490158,60.0318603 L114.490158,57.0790825 Z" id="Fill-1427" fill="#9CA5BF"></path>
                            <path d="M118.889663,57.0790825 L121.850047,57.0790825 L121.850047,60.0318603 L118.889663,60.0318603 L118.889663,57.0790825 Z" id="Fill-1431" fill="#9CA5BF"></path>
                            <path d="M123.288704,57.0790825 L126.249088,57.0790825 L126.249088,60.0318603 L123.288704,60.0318603 L123.288704,57.0790825 Z" id="Fill-1435" fill="#9CA5BF"></path>
                            <path d="M127.688209,57.0790825 L130.648593,57.0790825 L130.648593,60.0318603 L127.688209,60.0318603 L127.688209,57.0790825 Z" id="Fill-1439" fill="#9CA5BF"></path>
                            <path d="M57.2993766,61.4679714 L60.2592968,61.4679714 L60.2592968,64.4216751 L57.2993766,64.4216751 L57.2993766,61.4679714 Z" id="Fill-1443" fill="#9CA5BF"></path>
                            <path d="M61.6988817,61.4679714 L64.6592659,61.4679714 L64.6592659,64.4216751 L61.6988817,64.4216751 L61.6988817,61.4679714 Z" id="Fill-1447" fill="#9CA5BF"></path>
                            <path d="M66.0979226,61.4679714 L69.0583069,61.4679714 L69.0583069,64.4216751 L66.0979226,64.4216751 L66.0979226,61.4679714 Z" id="Fill-1451" fill="#9CA5BF"></path>
                            <path d="M70.4974277,61.4679714 L73.4573479,61.4679714 L73.4573479,64.4216751 L70.4974277,64.4216751 L70.4974277,61.4679714 Z" id="Fill-1455" fill="#9CA5BF"></path>
                            <path d="M74.8964687,61.4679714 L77.8568529,61.4679714 L77.8568529,64.4216751 L74.8964687,64.4216751 L74.8964687,61.4679714 Z" id="Fill-1459" fill="#9CA5BF"></path>
                            <path d="M79.2959737,61.4679714 L82.256358,61.4679714 L82.256358,64.4216751 L79.2959737,64.4216751 L79.2959737,61.4679714 Z" id="Fill-1463" fill="#9CA5BF"></path>
                            <path d="M83.6950147,61.4679714 L86.6553989,61.4679714 L86.6553989,64.4216751 L83.6950147,64.4216751 L83.6950147,61.4679714 Z" id="Fill-1467" fill="#9CA5BF"></path>
                            <path d="M88.0945197,61.4679714 L91.0544399,61.4679714 L91.0544399,64.4216751 L88.0945197,64.4216751 L88.0945197,61.4679714 Z" id="Fill-1471" fill="#9CA5BF"></path>
                            <path d="M92.4940248,61.4679714 L95.4544091,61.4679714 L95.4544091,64.4216751 L92.4940248,64.4216751 L92.4940248,61.4679714 Z" id="Fill-1475" fill="#9CA5BF"></path>
                            <path d="M96.8930658,61.4679714 L99.85345,61.4679714 L99.85345,64.4216751 L96.8930658,64.4216751 L96.8930658,61.4679714 Z" id="Fill-1479" fill="#9CA5BF"></path>
                            <path d="M101.292571,61.4679714 L104.252491,61.4679714 L104.252491,64.4216751 L101.292571,64.4216751 L101.292571,61.4679714 Z" id="Fill-1483" fill="#9CA5BF"></path>
                            <path d="M105.691612,61.4679714 L108.651532,61.4679714 L108.651532,64.4216751 L105.691612,64.4216751 L105.691612,61.4679714 Z" id="Fill-1487" fill="#9CA5BF"></path>
                            <path d="M110.091117,61.4679714 L113.051501,61.4679714 L113.051501,64.4216751 L110.091117,64.4216751 L110.091117,61.4679714 Z" id="Fill-1491" fill="#9CA5BF"></path>
                            <path d="M114.490158,61.4679714 L117.450542,61.4679714 L117.450542,64.4216751 L114.490158,64.4216751 L114.490158,61.4679714 Z" id="Fill-1495" fill="#9CA5BF"></path>
                            <path d="M118.889663,61.4679714 L121.850047,61.4679714 L121.850047,64.4216751 L118.889663,64.4216751 L118.889663,61.4679714 Z" id="Fill-1499" fill="#9CA5BF"></path>
                            <path d="M123.288704,61.4679714 L126.249088,61.4679714 L126.249088,64.4216751 L123.288704,64.4216751 L123.288704,61.4679714 Z" id="Fill-1503" fill="#9CA5BF"></path>
                            <path d="M123.288704,65.8568603 L126.249088,65.8568603 L126.249088,68.810564 L123.288704,68.810564 L123.288704,65.8568603 Z" id="Fill-1504" fill="#9CA5BF"></path>
                            <path d="M127.688209,61.4679714 L130.648593,61.4679714 L130.648593,64.4216751 L127.688209,64.4216751 L127.688209,61.4679714 Z" id="Fill-1507" fill="#9CA5BF"></path>
                            <path d="M132.08725,57.0790825 L135.047634,57.0790825 L135.047634,60.0318603 L132.08725,60.0318603 L132.08725,57.0790825 Z" id="Fill-1440" fill="#9CA5BF"></path>
                            <path d="M132.08725,61.4679714 L135.047634,61.4679714 L135.047634,64.4216751 L132.08725,64.4216751 L132.08725,61.4679714 Z" id="Fill-1508" fill="#9CA5BF"></path>
                            <path d="M57.2993766,65.8568603 L60.2592968,65.8568603 L60.2592968,68.809638 L57.2993766,68.809638 L57.2993766,65.8568603 Z" id="Fill-1511" fill="#9CA5BF"></path>
                            <path d="M61.6988817,65.8568603 L64.6592659,65.8568603 L64.6592659,68.809638 L61.6988817,68.809638 L61.6988817,65.8568603 Z" id="Fill-1515" fill="#9CA5BF"></path>
                            <path d="M66.0979226,65.8568603 L69.0583069,65.8568603 L69.0583069,68.809638 L66.0979226,68.809638 L66.0979226,65.8568603 Z" id="Fill-1519" fill="#9CA5BF"></path>
                            <path d="M70.4974277,65.8568603 L73.4573479,65.8568603 L73.4573479,68.809638 L70.4974277,68.809638 L70.4974277,65.8568603 Z" id="Fill-1523" fill="#9CA5BF"></path>
                            <path d="M74.8964687,65.8568603 L77.8568529,65.8568603 L77.8568529,68.809638 L74.8964687,68.809638 L74.8964687,65.8568603 Z" id="Fill-1527" fill="#9CA5BF"></path>
                            <path d="M79.2959737,65.8568603 L82.256358,65.8568603 L82.256358,68.809638 L79.2959737,68.809638 L79.2959737,65.8568603 Z" id="Fill-1531" fill="#9CA5BF"></path>
                            <path d="M83.6950147,65.8568603 L86.6553989,65.8568603 L86.6553989,68.809638 L83.6950147,68.809638 L83.6950147,65.8568603 Z" id="Fill-1535" fill="#9CA5BF"></path>
                            <path d="M88.0945197,65.8568603 L91.0544399,65.8568603 L91.0544399,68.809638 L88.0945197,68.809638 L88.0945197,65.8568603 Z" id="Fill-1539" fill="#9CA5BF"></path>
                            <path d="M92.4940248,65.8568603 L95.4544091,65.8568603 L95.4544091,68.809638 L92.4940248,68.809638 L92.4940248,65.8568603 Z" id="Fill-1543" fill="#9CA5BF"></path>
                            <path d="M96.8930658,65.8568603 L99.85345,65.8568603 L99.85345,68.809638 L96.8930658,68.809638 L96.8930658,65.8568603 Z" id="Fill-1547" fill="#9CA5BF"></path>
                            <path d="M101.292571,65.8568603 L104.252491,65.8568603 L104.252491,68.809638 L101.292571,68.809638 L101.292571,65.8568603 Z" id="Fill-1551" fill="#9CA5BF"></path>
                            <path d="M105.691612,65.8568603 L108.651532,65.8568603 L108.651532,68.809638 L105.691612,68.809638 L105.691612,65.8568603 Z" id="Fill-1555" fill="#9CA5BF"></path>
                            <path d="M110.091117,65.8568603 L113.051501,65.8568603 L113.051501,68.809638 L110.091117,68.809638 L110.091117,65.8568603 Z" id="Fill-1559" fill="#9CA5BF"></path>
                            <path d="M114.490158,65.8568603 L117.450542,65.8568603 L117.450542,68.809638 L114.490158,68.809638 L114.490158,65.8568603 Z" id="Fill-1563" fill="#9CA5BF"></path>
                            <path d="M118.889663,65.8568603 L121.850047,65.8568603 L121.850047,68.809638 L118.889663,68.809638 L118.889663,65.8568603 Z" id="Fill-1567" fill="#9CA5BF"></path>
                            <path d="M57.2993766,70.2457492 L60.2592968,70.2457492 L60.2592968,73.198064 L57.2993766,73.198064 L57.2993766,70.2457492 Z" id="Fill-1575" fill="#9CA5BF"></path>
                            <path d="M61.6988817,70.2457492 L64.6592659,70.2457492 L64.6592659,73.198064 L61.6988817,73.198064 L61.6988817,70.2457492 Z" id="Fill-1579" fill="#9CA5BF"></path>
                            <path d="M66.0979226,70.2457492 L69.0583069,70.2457492 L69.0583069,73.198064 L66.0979226,73.198064 L66.0979226,70.2457492 Z" id="Fill-1583" fill="#9CA5BF"></path>
                            <path d="M70.4974277,70.2457492 L73.4573479,70.2457492 L73.4573479,73.198064 L70.4974277,73.198064 L70.4974277,70.2457492 Z" id="Fill-1587" fill="#9CA5BF"></path>
                            <path d="M79.2959737,70.2457492 L82.256358,70.2457492 L82.256358,73.198064 L79.2959737,73.198064 L79.2959737,70.2457492 Z" id="Fill-1595" fill="#9CA5BF"></path>
                            <path d="M83.6950147,70.2457492 L86.6553989,70.2457492 L86.6553989,73.198064 L83.6950147,73.198064 L83.6950147,70.2457492 Z" id="Fill-1599" fill="#9CA5BF"></path>
                            <path d="M88.0945197,70.2457492 L91.0544399,70.2457492 L91.0544399,73.198064 L88.0945197,73.198064 L88.0945197,70.2457492 Z" id="Fill-1603" fill="#9CA5BF"></path>
                            <path d="M88.0945197,74.7912037 L91.0544399,74.7912037 L91.0544399,77.7435185 L88.0945197,77.7435185 L88.0945197,74.7912037 Z" id="Fill-1604" fill="#9CA5BF"></path>
                            <path d="M83.6950147,74.7912037 L86.6549349,74.7912037 L86.6549349,77.7435185 L83.6950147,77.7435185 L83.6950147,74.7912037 Z" id="Fill-1605" fill="#9CA5BF"></path>
                            <path d="M92.4940248,70.2457492 L95.4544091,70.2457492 L95.4544091,73.198064 L92.4940248,73.198064 L92.4940248,70.2457492 Z" id="Fill-1607" fill="#9CA5BF"></path>
                            <path d="M96.8930658,70.2457492 L99.85345,70.2457492 L99.85345,73.198064 L96.8930658,73.198064 L96.8930658,70.2457492 Z" id="Fill-1611" fill="#9CA5BF"></path>
                            <path d="M101.292571,70.2457492 L104.252491,70.2457492 L104.252491,73.198064 L101.292571,73.198064 L101.292571,70.2457492 Z" id="Fill-1615" fill="#9CA5BF"></path>
                            <path d="M101.292107,74.635101 L104.252027,74.635101 L104.252027,77.5874158 L101.292107,77.5874158 L101.292107,74.635101 Z" id="Fill-1616" fill="#9CA5BF"></path>
                            <path d="M105.691612,70.2457492 L108.651532,70.2457492 L108.651532,73.198064 L105.691612,73.198064 L105.691612,70.2457492 Z" id="Fill-1619" fill="#9CA5BF"></path>
                            <path d="M105.690684,74.6332492 L108.650604,74.6332492 L108.650604,77.585564 L105.690684,77.585564 L105.690684,74.6332492 Z" id="Fill-1620" fill="#9CA5BF"></path>
                            <path d="M110.091117,70.2457492 L113.051501,70.2457492 L113.051501,73.198064 L110.091117,73.198064 L110.091117,70.2457492 Z" id="Fill-1623" fill="#9CA5BF"></path>
                            <path d="M57.2993766,74.6337121 L60.2592968,74.6337121 L60.2592968,77.5874158 L57.2993766,77.5874158 L57.2993766,74.6337121 Z" id="Fill-1631" fill="#9CA5BF"></path>
                            <path d="M61.6988817,74.6337121 L64.6592659,74.6337121 L64.6592659,77.5874158 L61.6988817,77.5874158 L61.6988817,74.6337121 Z" id="Fill-1635" fill="#9CA5BF"></path>
                            <path d="M66.0979226,74.6337121 L69.0583069,74.6337121 L69.0583069,77.5874158 L66.0979226,77.5874158 L66.0979226,74.6337121 Z" id="Fill-1639" fill="#9CA5BF"></path>
                            <path d="M66.0983867,79.022601 L69.058771,79.022601 L69.058771,81.9763047 L66.0983867,81.9763047 L66.0983867,79.022601 Z" id="Fill-1640" fill="#9CA5BF"></path>
                            <path d="M92.4940248,74.6337121 L95.4544091,74.6337121 L95.4544091,77.5874158 L92.4940248,77.5874158 L92.4940248,74.6337121 Z" id="Fill-1659" fill="#9CA5BF"></path>
                            <path d="M96.8930658,74.6337121 L99.85345,74.6337121 L99.85345,77.5874158 L96.8930658,77.5874158 L96.8930658,74.6337121 Z" id="Fill-1663" fill="#9CA5BF"></path>
                            <path d="M52.8998715,79.0235269 L55.8602558,79.0235269 L55.8602558,81.9758418 L52.8998715,81.9758418 L52.8998715,79.0235269 Z" id="Fill-1675" fill="#9CA5BF"></path>
                            <path d="M57.2993766,79.0235269 L60.2592968,79.0235269 L60.2592968,81.9758418 L57.2993766,81.9758418 L57.2993766,79.0235269 Z" id="Fill-1679" fill="#9CA5BF"></path>
                            <path d="M61.6988817,79.0235269 L64.6592659,79.0235269 L64.6592659,81.9758418 L61.6988817,81.9758418 L61.6988817,79.0235269 Z" id="Fill-1683" fill="#9CA5BF"></path>
                            <path d="M101.276862,92.1878788 L104.236782,92.1878788 L104.236782,95.1401936 L101.276862,95.1401936 L101.276862,92.1878788 Z" id="Fill-1695" fill="#9CA5BF"></path>
                            <path d="M96.8930658,79.022601 L99.85345,79.022601 L99.85345,81.9749158 L96.8930658,81.9749158 L96.8930658,79.022601 Z" id="Fill-1699" fill="#9CA5BF"></path>
                            <path d="M101.292107,79.022601 L104.252491,79.022601 L104.252491,81.9749158 L101.292107,81.9749158 L101.292107,79.022601 Z" id="Fill-1703" fill="#9CA5BF"></path>
                            <path d="M105.615208,92.1878788 L108.575128,92.1878788 L108.575128,95.1401936 L105.615208,95.1401936 L105.615208,92.1878788 Z" id="Fill-1711" fill="#9CA5BF"></path>
                            <path d="M48.5008306,83.4114899 L51.4612148,83.4114899 L51.4612148,86.3642677 L48.5008306,86.3642677 L48.5008306,83.4114899 Z" id="Fill-1723" fill="#9CA5BF"></path>
                            <path d="M52.8998715,83.4114899 L55.8602558,83.4114899 L55.8602558,86.3642677 L52.8998715,86.3642677 L52.8998715,83.4114899 Z" id="Fill-1727" fill="#9CA5BF"></path>
                            <path d="M57.2993766,83.4114899 L60.2592968,83.4114899 L60.2592968,86.3642677 L57.2993766,86.3642677 L57.2993766,83.4114899 Z" id="Fill-1731" fill="#9CA5BF"></path>
                            <path d="M61.6988817,83.4114899 L64.6592659,83.4114899 L64.6592659,86.3642677 L61.6988817,86.3642677 L61.6988817,83.4114899 Z" id="Fill-1735" fill="#9CA5BF"></path>
                            <path d="M96.9380527,96.5763047 L99.898437,96.5763047 L99.898437,99.5290825 L96.9380527,99.5290825 L96.9380527,96.5763047 Z" id="Fill-1739" fill="#9CA5BF"></path>
                            <path d="M88.0940557,83.410564 L91.0544399,83.410564 L91.0544399,86.3633418 L88.0940557,86.3633418 L88.0940557,83.410564 Z" id="Fill-1743" fill="#9CA5BF"></path>
                            <path d="M92.4935607,83.410564 L95.4534809,83.410564 L95.4534809,86.3633418 L92.4935607,86.3633418 L92.4935607,83.410564 Z" id="Fill-1747" fill="#9CA5BF"></path>
                            <path d="M96.8930658,83.410564 L99.85345,83.410564 L99.85345,86.3633418 L96.8930658,86.3633418 L96.8930658,83.410564 Z" id="Fill-1751" fill="#9CA5BF"></path>
                            <path d="M101.292107,83.410564 L104.252491,83.410564 L104.252491,86.3633418 L101.292107,86.3633418 L101.292107,83.410564 Z" id="Fill-1755" fill="#9CA5BF"></path>
                            <path d="M105.691612,83.410564 L108.651532,83.410564 L108.651532,86.3633418 L105.691612,86.3633418 L105.691612,83.410564 Z" id="Fill-1759" fill="#9CA5BF"></path>
                            <path d="M114.458741,87.9560185 L117.418661,87.9560185 L117.418661,90.9087963 L114.458741,90.9087963 L114.458741,87.9560185 Z" id="Fill-1763" fill="#9CA5BF"></path>
                            <path d="M110.074944,87.7985269 L113.035328,87.7985269 L113.035328,90.7513047 L110.074944,90.7513047 L110.074944,87.7985269 Z" id="Fill-1767" fill="#9CA5BF"></path>
                            <path d="M92.4935607,87.7989899 L95.4534809,87.7989899 L95.4534809,90.7526936 L92.4935607,90.7526936 L92.4935607,87.7989899 Z" id="Fill-1775" fill="#9CA5BF"></path>
                            <path d="M96.8930658,87.7989899 L99.85345,87.7989899 L99.85345,90.7526936 L96.8930658,90.7526936 L96.8930658,87.7989899 Z" id="Fill-1779" fill="#9CA5BF"></path>
                            <path d="M101.276862,87.7989899 L104.237246,87.7989899 L104.237246,90.7526936 L101.276862,90.7526936 L101.276862,87.7989899 Z" id="Fill-1783" fill="#9CA5BF"></path>
                            <path d="M105.691612,87.7989899 L108.651532,87.7989899 L108.651532,90.7526936 L105.691612,90.7526936 L105.691612,87.7989899 Z" id="Fill-1787" fill="#9CA5BF"></path>
                            <path d="M96.9380527,92.1869529 L99.898437,92.1869529 L99.898437,95.1411195 L96.9380527,95.1411195 L96.9380527,92.1869529 Z" id="Fill-1803" fill="#9CA5BF"></path>
                        </g>
                    </g>
                </g>
            </g>
        </g>
    </g>
</svg>